<svg id="BACKGROUND" xmlns="http://www.w3.org/2000/svg" xmlns:xlink="http://www.w3.org/1999/xlink" viewBox="0 0 4000 2500"><defs><style>.cls-1{fill:url(#linear-gradient);}.cls-2{fill:url(#linear-gradient-2);}.cls-3{opacity:0.84;fill:url(#linear-gradient-3);}.cls-4{fill:#fabdb8;}.cls-5{fill:#db9199;}.cls-6{fill:#f8adb0;}.cls-7{fill:#fff;}.cls-8{fill:#e28d99;}.cls-9{fill:url(#linear-gradient-4);}.cls-10{fill:url(#linear-gradient-5);}.cls-11{fill:url(#linear-gradient-6);}.cls-12{fill:url(#linear-gradient-7);}.cls-13{fill:#d1828e;}.cls-14{fill:#e0aaa9;}.cls-15,.cls-21,.cls-30,.cls-35,.cls-40{fill:none;stroke-miterlimit:10;}.cls-15{stroke:#d1828e;}.cls-15,.cls-40{stroke-width:3px;}.cls-16{fill:#fac3bc;}.cls-17{fill:#f9b5b5;}.cls-18{fill:url(#linear-gradient-8);}.cls-19{fill:url(#linear-gradient-9);}.cls-20{fill:#f9bdbf;}.cls-21{stroke:#e28d99;stroke-width:2px;}.cls-22{fill:#d88496;}.cls-23{fill:#ec919f;}.cls-24{fill:url(#linear-gradient-10);}.cls-25{fill:url(#linear-gradient-11);}.cls-26{fill:url(#linear-gradient-12);}.cls-27{fill:url(#linear-gradient-13);}.cls-28{fill:url(#linear-gradient-14);}.cls-29{fill:url(#linear-gradient-15);}.cls-30{stroke:#ec919f;stroke-width:5px;}.cls-31{fill:#fdd9cb;}.cls-32{fill:#f8b1a7;}.cls-33{fill:#f8afb5;}.cls-34{fill:url(#New_Gradient_Swatch_copy);}.cls-35{stroke:#fff;stroke-width:30px;}.cls-36{fill:#eca1aa;}.cls-37{fill:#fbcbc4;}.cls-38{fill:#fac3bf;}.cls-39{fill:#fdddcd;}.cls-40{stroke:#e0aaa9;}</style><linearGradient id="linear-gradient" x1="2000" y1="5.84" x2="2000" y2="1135.2" gradientUnits="userSpaceOnUse"><stop offset="0" stop-color="#fcd3c8"/><stop offset="1" stop-color="#fee4cb"/></linearGradient><linearGradient id="linear-gradient-2" x1="2964.43" y1="813.12" x2="3096.85" y2="1224.32" xlink:href="#linear-gradient"/><linearGradient id="linear-gradient-3" x1="1531.05" y1="335.21" x2="489.71" y2="1697.32" gradientTransform="matrix(-1, 0, 0, 1, 1753.17, 0)" gradientUnits="userSpaceOnUse"><stop offset="0" stop-color="#fac5c0"/><stop offset="1" stop-color="#fee4cb"/></linearGradient><linearGradient id="linear-gradient-4" x1="1501.25" y1="1135.31" x2="1501.25" y2="1024.32" gradientUnits="userSpaceOnUse"><stop offset="0" stop-color="#fabdb8"/><stop offset="1" stop-color="#f7a9ae"/></linearGradient><linearGradient id="linear-gradient-5" x1="1484.46" y1="914.35" x2="1518.03" y2="914.35" xlink:href="#linear-gradient-4"/><linearGradient id="linear-gradient-6" x1="968.07" y1="1305.78" x2="1121.26" y2="1305.78" xlink:href="#linear-gradient-4"/><linearGradient id="linear-gradient-7" x1="1465.46" y1="942.34" x2="1537.03" y2="942.34" xlink:href="#linear-gradient-4"/><linearGradient id="linear-gradient-8" x1="1880.73" y1="1305.81" x2="2034.42" y2="1305.81" xlink:href="#linear-gradient-4"/><linearGradient id="linear-gradient-9" x1="1121.26" y1="1224.01" x2="1881.24" y2="1224.01" xlink:href="#linear-gradient-4"/><linearGradient id="linear-gradient-10" x1="1490.4" y1="1166.03" x2="1514.4" y2="1166.03" xlink:href="#linear-gradient-4"/><linearGradient id="linear-gradient-11" x1="1438.71" y1="1190.23" x2="1443.21" y2="1202.73" xlink:href="#linear-gradient-4"/><linearGradient id="linear-gradient-12" x1="1467.95" y1="1190.23" x2="1472.45" y2="1202.73" xlink:href="#linear-gradient-4"/><linearGradient id="linear-gradient-13" x1="1497.19" y1="1190.23" x2="1501.69" y2="1202.73" xlink:href="#linear-gradient-4"/><linearGradient id="linear-gradient-14" x1="1526.43" y1="1190.23" x2="1530.93" y2="1202.73" xlink:href="#linear-gradient-4"/><linearGradient id="linear-gradient-15" x1="1555.67" y1="1190.23" x2="1560.17" y2="1202.73" xlink:href="#linear-gradient-4"/><linearGradient id="New_Gradient_Swatch_copy" x1="2000.01" y1="2837.05" x2="2000.01" y2="1787.1" gradientUnits="userSpaceOnUse"><stop offset="0" stop-color="#121a3c"/><stop offset="1" stop-color="#1d3658"/></linearGradient></defs><title>v copy 12</title><rect class="cls-1" width="4000" height="2500"/><path class="cls-2" d="M4000,397.87c-96.73.88-518.78,23.9-649.65,96.06-41.8,23-74.29,63.52-63.4,104.06,13.08,48.72,81.29,81.51,80,131.42-.75,29.13-27,54.47-58.28,67.48s-67,15.95-101.88,18.07c-254.2,15.46-511.68-1.21-762.79,35.18-83.49,12.1-176.11,36.76-212.28,100.64-19.32,34.13-18.54,73.51-28.9,110.25-12.39,44-41.46,84.54-82,114.49-35.42,26.16-78.91,44.15-112.77,71.71s-57.17,70.52-37.75,106.5c15.38,28.5,52.32,43.9,87.35,55,267.78,85.1,565.87,48.24,851.71,65.31,292.4,17.46,801.44,92.45,1090.67,70.74Z"/><path class="cls-3" d="M1927,1159.77c-13.19-102.63-117.52-187.89-239.1-228.85s-258.23-44.64-390.58-40.08-265.24,16.7-396.88,5C834.3,890,759.71,872.45,733.51,824.81c-42.71-77.67,86.38-163.7,55.77-243.52C721.22,403.77,128.18,334.51,0,323.87V1492.62c514.43-3.7,1238.64-33.16,1727.35-152.4,68.65-16.75,142.37-38.8,178.17-87.38C1926,1225.05,1931.09,1191.65,1927,1159.77Z"/><path class="cls-4" d="M2991.53,1126.26s-1.35,22.33-10.71,32.71l-7.91-9.42-2.88,6.29-6.33-1.51,1.4,11.82c-13.42-.11-26.88-11.68-26.88-11.68-4.73,11.94-18.23,18.17-18.23,18.17,12.63,1.49,18.58,5.19,18.58,5.19a18.48,18.48,0,0,1,18.58,5c12.35-7.15,23.89.58,23.89.58,3.69-12.58,18.17-17.14,18.17-17.14,1.62-15.23,10.73-20.19,10.73-20.19,1.73-9.58,9.69-21.23,9.69-21.23C3007.75,1131.16,2991.53,1126.26,2991.53,1126.26Z"/><path class="cls-5" d="M2754.31,1101.87s-12.4,26.16-28.65,34.12l-5-15.13-6.49,6.17-6.88-4.88-4,14.87c-16.06-6.6-26.64-27-26.64-27-11.45,12.06-30.67,13-30.67,13,14.44,7.88,19.8,15.2,19.8,15.2,15.64,1.94,19.92,14.93,19.92,14.93,18.28-2.63,28.41,12.22,28.41,12.22,10.5-13.32,30.1-11.81,30.1-11.81,9.29-17.51,22.63-19.07,22.63-19.07,6.7-10.67,21.89-20.82,21.89-20.82C2771.42,1115.58,2754.31,1101.87,2754.31,1101.87Z"/><path class="cls-4" d="M2821.44,1187.71s3.73,14.54,11.21,20.19l4-7.21,2.7,3.78,4-1.8.58,8c8.83-1.78,16.23-11.11,16.23-11.11,4.64,7.27,14.32,9.66,14.32,9.66-8.13,2.59-11.58,5.78-11.58,5.78a12.4,12.4,0,0,0-11.61,5.63c-9-3.14-15.67,3.42-15.67,3.42-4-7.82-14.15-9-14.15-9-3-9.83-9.64-11.94-9.64-11.94-2.36-6.09-9.09-12.76-9.09-12.76C2811.38,1193,2821.44,1187.71,2821.44,1187.71Z"/><path class="cls-5" d="M2921.65,955.27s-19,40.55-43.22,53.26l-6.85-23.08-9.75,9.67-10-7.28-6.37,23c-23.46-9.66-38.43-40.66-38.43-40.66-17.22,18.86-45.57,20.93-45.57,20.93,21,11.67,28.72,22.75,28.72,22.75a33.86,33.86,0,0,1,28.89,22.32c27-4.59,41.48,17.92,41.48,17.92,15.88-20.78,44.69-19,44.69-19,14.21-27.17,33.91-30,33.91-30,10.19-16.58,32.87-32.63,32.87-32.63C2946.43,975.82,2921.65,955.27,2921.65,955.27Z"/><path class="cls-4" d="M2990.88,1247s8.4,2.6,13.54.54l-2.34-4.28,2.72-.2.34-2.59,4.15,2.17c1.87-5-.48-11.71-.48-11.71,5.06-.11,9.27-4.31,9.27-4.31-1.24,4.94-.73,7.69-.73,7.69a7.5,7.5,0,0,0-.81,7.66,9.65,9.65,0,0,0-3.18,9c-5.15-.37-8.88,4.43-8.88,4.43-5.83-1.51-8.95,1.22-8.95,1.22-3.77-.68-9.18.68-9.18.68C2990.38,1253.76,2990.88,1247,2990.88,1247Z"/><path class="cls-6" d="M2712,912.69s-17.11,13.75-30.95,13.68l1.5-12.08-6.51,2-3.17-5.69-7.63,8.84c-9-10-9.64-27.61-9.64-27.61-11.85,4.39-25.47-1.49-25.47-1.49,7.43,10.33,8.75,17.18,8.75,17.18a18.72,18.72,0,0,1,8.92,17c13.51,4.41,15.68,18.06,15.68,18.06,11.61-5.57,24.68,2.13,24.68,2.13,12.14-8.87,21.88-5.4,21.88-5.4,8.11-5,21.94-6.85,21.94-6.85C2719.39,927.94,2712,912.69,2712,912.69Z"/><path class="cls-5" d="M3104.91,721.39s-28.22,22.68-51,22.57l2.47-19.92-10.73,3.34-5.23-9.38-12.58,14.59c-14.79-16.5-15.9-45.54-15.9-45.54-19.55,7.24-42-2.46-42-2.46,12.25,17,14.44,28.34,14.44,28.34C3001.12,723.89,2999,741,2999,741c22.29,7.28,25.86,29.79,25.86,29.79,19.16-9.2,40.71,3.52,40.71,3.52,20-14.62,36.09-8.9,36.09-8.9,13.39-8.32,36.18-11.3,36.18-11.3C3117.07,746.52,3104.91,721.39,3104.91,721.39Z"/><path class="cls-6" d="M2522.67,888.84s-14.48,9.07-24.66,8.41l2.76-8.57-5.07,1.16-1.55-4.21-6.83,6c-5.22-7.55-3.3-20.18-3.3-20.18-9.33,2.61-18.54-2.2-18.54-2.2,4,7.72,4.08,12.68,4.08,12.68a11.93,11.93,0,0,1,4.22,12.58c9.34,3.76,9.06,13.62,9.06,13.62,9.32-3.47,17.87,2.62,17.87,2.62,10.15-5.8,16.85-2.89,16.85-2.89,6.67-3.25,17.09-3.93,17.09-3.93C2526,900.07,2522.67,888.84,2522.67,888.84Z"/><path class="cls-6" d="M3007.75,471.82s8.49,19.63,18.85,26.35l2.65-10.61,4.23,4.84,4.14-3.1,2.94,11c9.82-3.79,15.81-17.86,15.81-17.86,7.49,9.39,19.49,11.26,19.49,11.26-8.77,4.81-11.9,9.77-11.9,9.77-9.69.45-12,9.56-12,9.56-11.47-3-17.35,7.1-17.35,7.1-6.94-10.25-19.1-10.34-19.1-10.34-6.3-13.2-14.66-15.13-14.66-15.13-4.49-8.1-14.25-16.35-14.25-16.35C2997.49,480.68,3007.75,471.82,3007.75,471.82Z"/><path class="cls-4" d="M2304.61,846.85s11.62,7.92,20.38,7.26l-1.64-7.56,4.24,1,1.68-3.73,5.34,5.24c5.11-6.71,4.53-17.86,4.53-17.86,7.76,2.24,16.05-2.07,16.05-2.07-4.12,6.85-4.56,11.23-4.56,11.23a11.62,11.62,0,0,0-4.68,11.15c-8.31,3.39-8.9,12.1-8.9,12.1-7.67-3-15.51,2.44-15.51,2.44-8.19-5.06-14.17-2.43-14.17-2.43-5.43-2.82-14.29-3.35-14.29-3.35C2300.81,856.79,2304.61,846.85,2304.61,846.85Z"/><path class="cls-6" d="M2163.13,929.9s-.82,19.22-8.71,28.29l-7-8-2.38,5.46-5.47-1.21,1.39,10.14c-11.54.11-23.29-9.63-23.29-9.63-3.89,10.34-15.4,15.91-15.4,15.91,10.88,1.09,16.06,4.18,16.06,4.18a15.9,15.9,0,0,1,16.05,4c10.51-6.34,20.55.13,20.55.13,3-10.87,15.37-15,15.37-15,1.16-13.12,8.92-17.53,8.92-17.53,1.34-8.26,8-18.41,8-18.41C2177.15,933.87,2163.13,929.9,2163.13,929.9Z"/><path class="cls-6" d="M2819.88,762.38s-17.77,18.35-32,21.66l1.72-12.82-6.71,3.68-3.17-5.09-8,11c-9.06-8.12-9.49-26.11-9.49-26.11-12.23,7.42-26.13,4.68-26.13,4.68,7.47,8.84,8.73,15.58,8.73,15.58,10.36,4.37,8.9,15.38,8.9,15.38,13.8,1.25,15.83,14.79,15.83,14.79,12-8.58,25.3-3.82,25.3-3.82,12.59-12.1,22.54-10.9,22.54-10.9,8.41-7.18,22.62-12.42,22.62-12.42C2827.22,776.29,2819.88,762.38,2819.88,762.38Z"/><path class="cls-4" d="M2259.36,1073.12s-6.75,10.39-14.1,12.84l-1.24-6.7-3.11,2.25-2.64-2.46-2.55,6.08c-6.44-3.72-9.76-13-9.76-13-5.54,4.46-13.75,3.78-13.75,3.78,5.68,4.17,7.53,7.58,7.53,7.58a10.24,10.24,0,0,1,7.6,7.47c7.91-.07,11.35,6.81,11.35,6.81,5.22-5.05,13.44-3.29,13.44-3.29,4.94-6.9,10.69-6.8,10.69-6.8,3.45-4.14,10.47-7.58,10.47-7.58C2265.83,1079.91,2259.36,1073.12,2259.36,1073.12Z"/><path class="cls-4" d="M2629.08,1039.89s-3.87,6-8.09,7.36l-.71-3.84-1.78,1.29-1.51-1.41-1.47,3.49c-3.69-2.13-5.6-7.44-5.6-7.44-3.18,2.56-7.89,2.17-7.89,2.17a15.48,15.48,0,0,1,4.32,4.35,5.87,5.87,0,0,1,4.36,4.28,7.52,7.52,0,0,1,6.51,3.9c3-2.9,7.71-1.89,7.71-1.89,2.83-4,6.13-3.9,6.13-3.9,2-2.38,6-4.35,6-4.35C2632.79,1043.78,2629.08,1039.89,2629.08,1039.89Z"/><path class="cls-5" d="M2498.9,644.76s18.65,34.48,41.2,44.07l5.62-20.82,9.23,7.87,8.95-7.09,6.51,19.82c21.25-10.09,34.08-38.43,34.08-38.43,16.35,15.48,42.41,15.4,42.41,15.4-19,11.7-25.69,22-25.69,22-21,3.75-25.86,21.62-25.86,21.62-24.91-2.24-37.53,18.58-37.53,18.58-15.17-17.26-41.55-13.8-41.55-13.8-13.83-23-32-24.16-32-24.16-9.83-13.94-31.1-26.58-31.1-26.58C2476.76,664.54,2498.9,644.76,2498.9,644.76Z"/><path class="cls-6" d="M3167.85,535.31s14.2,26.61,30.44,34.51l3.39-15.59,6.76,6.22,6.14-5.11,5.18,15.18c14.77-7,23.06-28.1,23.06-28.1,12,12.18,30.49,12.86,30.49,12.86-13.1,8.31-17.57,15.9-17.57,15.9A21.34,21.34,0,0,0,3238,586.79c-17.71-2.4-26.07,13-26.07,13-11.24-13.49-29.83-11.62-29.83-11.62-10.45-17.8-23.35-19.18-23.35-19.18-7.36-10.83-22.79-21-22.79-21C3152.73,549.64,3167.85,535.31,3167.85,535.31Z"/><circle class="cls-7" cx="2440.37" cy="1070.68" r="125.2"/><path class="cls-8" d="M1091.39,1171.62c-19.19-4.72-37-16.53-45.33-28.69a1.68,1.68,0,0,0-2.79,0c-8.29,12.16-26.15,24-45.33,28.69-20.35,5-29.87,13.35-29.87,22.06h153.19C1121.26,1185,1111.74,1176.62,1091.39,1171.62Z"/><path class="cls-8" d="M2004.56,1171.62c-19.19-4.72-37-16.53-45.33-28.69a1.68,1.68,0,0,0-2.79,0c-8.29,12.16-26.15,24-45.33,28.69-20.35,5-29.87,13.35-29.87,22.06h153.19C2034.42,1185,2024.9,1176.62,2004.56,1171.62Z"/><rect class="cls-9" x="1441.6" y="972.16" width="119.29" height="57.91"/><rect class="cls-10" x="1484.46" y="876.49" width="33.57" height="75.72"/><polyline class="cls-8" points="1484.46 876.49 1501.25 824.49 1518.03 876.49 1484.46 876.49"/><path class="cls-11" d="M1121.26,1418H968.07V1193.67h153.19Z"/><path class="cls-8" d="M1560.89,972.16H1441.6a59.65,59.65,0,0,1,119.29,0Z"/><path class="cls-12" d="M1537,972.16h-71.57c0-32.94,16-59.64,35.78-59.64S1537,939.22,1537,972.16Z"/><path class="cls-8" d="M1513.17,972.16h-23.86c0-32.94,5.34-59.64,11.93-59.64S1513.17,939.22,1513.17,972.16Z"/><rect class="cls-13" x="987.02" y="1269.37" width="8.74" height="23.5"/><rect class="cls-13" x="1002.02" y="1269.37" width="8.74" height="23.5"/><rect class="cls-13" x="987.02" y="1227.35" width="8.74" height="23.5"/><rect class="cls-13" x="1002.02" y="1227.35" width="8.74" height="23.5"/><rect class="cls-13" x="1030.52" y="1269.37" width="8.74" height="23.5"/><rect class="cls-13" x="1045.52" y="1269.37" width="8.74" height="23.5"/><rect class="cls-13" x="1030.52" y="1227.35" width="8.74" height="23.5"/><rect class="cls-13" x="1045.52" y="1227.35" width="8.74" height="23.5"/><rect class="cls-13" x="1074.02" y="1269.37" width="8.74" height="23.5"/><rect class="cls-13" x="1089.02" y="1269.37" width="8.74" height="23.5"/><rect class="cls-13" x="1074.02" y="1227.35" width="8.74" height="23.5"/><rect class="cls-13" x="1089.02" y="1227.35" width="8.74" height="23.5"/><rect class="cls-13" x="987.02" y="1376.87" width="8.74" height="23.5"/><rect class="cls-13" x="1002.02" y="1376.87" width="8.74" height="23.5"/><rect class="cls-13" x="987.02" y="1334.85" width="8.74" height="23.5"/><rect class="cls-13" x="1002.02" y="1334.85" width="8.74" height="23.5"/><rect class="cls-13" x="1030.52" y="1376.87" width="8.74" height="23.5"/><rect class="cls-13" x="1045.52" y="1376.87" width="8.74" height="23.5"/><rect class="cls-13" x="1030.52" y="1334.85" width="8.74" height="23.5"/><rect class="cls-13" x="1045.52" y="1334.85" width="8.74" height="23.5"/><rect class="cls-13" x="1074.02" y="1376.87" width="8.74" height="23.5"/><rect class="cls-13" x="1089.02" y="1376.87" width="8.74" height="23.5"/><rect class="cls-13" x="1074.02" y="1334.85" width="8.74" height="23.5"/><rect class="cls-13" x="1089.02" y="1334.85" width="8.74" height="23.5"/><rect class="cls-14" x="1409.41" y="1030.06" width="183.67" height="11.5"/><line class="cls-15" x1="969.52" y1="1315.72" x2="1120.24" y2="1315.72"/><path class="cls-8" d="M1460,991.05h0a9.07,9.07,0,0,0-9,9v30h18.09v-30A9.07,9.07,0,0,0,1460,991.05Z"/><path class="cls-8" d="M1487.51,991.05h0a9.07,9.07,0,0,0-9,9v30h18.09v-30A9.07,9.07,0,0,0,1487.51,991.05Z"/><path class="cls-8" d="M1515,991.05h0a9.07,9.07,0,0,0-9,9v30H1524v-30A9.07,9.07,0,0,0,1515,991.05Z"/><path class="cls-8" d="M1542.46,991.05h0a9.07,9.07,0,0,0-9,9v30h18.09v-30A9.07,9.07,0,0,0,1542.46,991.05Z"/><ellipse class="cls-16" cx="2102.37" cy="1271.19" rx="74.98" ry="127.04"/><ellipse class="cls-17" cx="2201.41" cy="1294" rx="65" ry="102"/><polygon class="cls-18" points="1881.24 1193.67 1881.24 1252.16 1880.73 1252.16 1880.73 1256.9 1881.24 1256.9 1881.24 1328.82 1880.73 1328.82 1880.73 1333.56 1881.24 1333.56 1881.24 1417.95 2034.42 1417.95 2034.42 1193.67 1881.24 1193.67"/><polygon class="cls-19" points="1796.79 1221.71 1712.35 1221.71 1627.91 1221.71 1627.91 1221.69 1660.68 1221.69 1660.68 1193.64 1627.91 1193.64 1627.91 1175.71 1627.91 1166.71 1593.08 1166.71 1593.08 1152.71 1593.08 1127.73 1593.08 1127.73 1593.08 1116.21 1593.08 1116.21 1593.08 1030.06 1571.47 1030.06 1560.67 1030.06 1441.82 1030.06 1431.02 1030.06 1409.41 1030.06 1409.41 1116.21 1409.41 1127.73 1409.41 1152.71 1409.41 1166.71 1374.58 1166.71 1374.58 1175.71 1374.58 1193.64 1342.37 1193.64 1342.37 1221.69 1374.58 1221.69 1374.58 1221.71 1290.14 1221.71 1205.7 1221.71 1121.26 1221.71 1121.26 1317.48 1121.26 1322.21 1121.26 1417.95 1205.7 1417.95 1290.14 1417.95 1374.58 1417.95 1627.91 1417.95 1712.35 1417.95 1796.79 1417.95 1881.24 1417.95 1881.24 1322.21 1881.24 1317.48 1881.24 1221.71 1796.79 1221.71"/><rect class="cls-13" x="1129.52" y="1256.97" width="8.74" height="23.5"/><rect class="cls-13" x="1144.52" y="1256.97" width="8.74" height="23.5"/><rect class="cls-13" x="1129.52" y="1296.97" width="8.74" height="23.5"/><rect class="cls-13" x="1144.52" y="1296.97" width="8.74" height="23.5"/><rect class="cls-13" x="1129.52" y="1336.97" width="8.74" height="23.5"/><rect class="cls-13" x="1144.52" y="1336.97" width="8.74" height="23.5"/><rect class="cls-13" x="1174.52" y="1256.97" width="8.74" height="23.5"/><rect class="cls-13" x="1189.52" y="1256.97" width="8.74" height="23.5"/><rect class="cls-13" x="1174.52" y="1296.97" width="8.74" height="23.5"/><rect class="cls-13" x="1189.52" y="1296.97" width="8.74" height="23.5"/><rect class="cls-13" x="1174.52" y="1336.97" width="8.74" height="23.5"/><rect class="cls-13" x="1189.52" y="1336.97" width="8.74" height="23.5"/><rect class="cls-13" x="1219.52" y="1256.97" width="8.74" height="23.5"/><rect class="cls-13" x="1234.52" y="1256.97" width="8.74" height="23.5"/><rect class="cls-13" x="1219.52" y="1296.97" width="8.74" height="23.5"/><rect class="cls-13" x="1234.52" y="1296.97" width="8.74" height="23.5"/><rect class="cls-13" x="1219.52" y="1336.97" width="8.74" height="23.5"/><rect class="cls-13" x="1234.52" y="1336.97" width="8.74" height="23.5"/><rect class="cls-13" x="1264.52" y="1256.97" width="8.74" height="23.5"/><rect class="cls-13" x="1279.52" y="1256.97" width="8.74" height="23.5"/><rect class="cls-13" x="1264.52" y="1296.97" width="8.74" height="23.5"/><rect class="cls-13" x="1279.52" y="1296.97" width="8.74" height="23.5"/><rect class="cls-13" x="1264.52" y="1336.97" width="8.74" height="23.5"/><rect class="cls-13" x="1279.52" y="1336.97" width="8.74" height="23.5"/><rect class="cls-13" x="1309.52" y="1256.97" width="8.74" height="23.5"/><rect class="cls-13" x="1324.52" y="1256.97" width="8.74" height="23.5"/><rect class="cls-13" x="1309.52" y="1296.97" width="8.74" height="23.5"/><rect class="cls-13" x="1324.52" y="1296.97" width="8.74" height="23.5"/><rect class="cls-13" x="1309.52" y="1336.97" width="8.74" height="23.5"/><rect class="cls-13" x="1324.52" y="1336.97" width="8.74" height="23.5"/><rect class="cls-13" x="1354.52" y="1256.97" width="8.74" height="23.5"/><rect class="cls-13" x="1369.52" y="1256.97" width="8.74" height="23.5"/><rect class="cls-13" x="1354.52" y="1216.3" width="8.74" height="23.5"/><rect class="cls-13" x="1369.52" y="1216.3" width="8.74" height="23.5"/><rect class="cls-13" x="1624.52" y="1216.3" width="8.74" height="23.5"/><rect class="cls-13" x="1639.52" y="1216.3" width="8.74" height="23.5"/><rect class="cls-13" x="1354.52" y="1296.97" width="8.74" height="23.5"/><rect class="cls-13" x="1369.52" y="1296.97" width="8.74" height="23.5"/><rect class="cls-13" x="1354.52" y="1336.97" width="8.74" height="23.5"/><rect class="cls-13" x="1369.52" y="1336.97" width="8.74" height="23.5"/><rect class="cls-13" x="1903.02" y="1269.37" width="8.74" height="23.5"/><rect class="cls-13" x="1918.02" y="1269.37" width="8.74" height="23.5"/><rect class="cls-13" x="1903.02" y="1227.35" width="8.74" height="23.5"/><rect class="cls-13" x="1918.02" y="1227.35" width="8.74" height="23.5"/><rect class="cls-13" x="1946.52" y="1269.37" width="8.74" height="23.5"/><rect class="cls-13" x="1961.52" y="1269.37" width="8.74" height="23.5"/><rect class="cls-13" x="1946.52" y="1227.35" width="8.74" height="23.5"/><rect class="cls-13" x="1961.52" y="1227.35" width="8.74" height="23.5"/><rect class="cls-13" x="1990.02" y="1269.37" width="8.74" height="23.5"/><rect class="cls-13" x="2005.02" y="1269.37" width="8.74" height="23.5"/><rect class="cls-13" x="1990.02" y="1227.35" width="8.74" height="23.5"/><rect class="cls-13" x="2005.02" y="1227.35" width="8.74" height="23.5"/><rect class="cls-13" x="1903.02" y="1376.87" width="8.74" height="23.5"/><rect class="cls-13" x="1918.02" y="1376.87" width="8.74" height="23.5"/><rect class="cls-13" x="1903.02" y="1334.85" width="8.74" height="23.5"/><rect class="cls-13" x="1918.02" y="1334.85" width="8.74" height="23.5"/><rect class="cls-13" x="1946.52" y="1376.87" width="8.74" height="23.5"/><rect class="cls-13" x="1961.52" y="1376.87" width="8.74" height="23.5"/><rect class="cls-13" x="1946.52" y="1334.85" width="8.74" height="23.5"/><rect class="cls-13" x="1961.52" y="1334.85" width="8.74" height="23.5"/><rect class="cls-13" x="1990.02" y="1376.87" width="8.74" height="23.5"/><rect class="cls-13" x="2005.02" y="1376.87" width="8.74" height="23.5"/><rect class="cls-13" x="1990.02" y="1334.85" width="8.74" height="23.5"/><rect class="cls-13" x="2005.02" y="1334.85" width="8.74" height="23.5"/><rect class="cls-13" x="1625.65" y="1256.97" width="8.74" height="23.5"/><rect class="cls-13" x="1640.65" y="1256.97" width="8.74" height="23.5"/><rect class="cls-13" x="1625.65" y="1296.97" width="8.74" height="23.5"/><rect class="cls-13" x="1640.65" y="1296.97" width="8.74" height="23.5"/><rect class="cls-13" x="1625.65" y="1336.97" width="8.74" height="23.5"/><rect class="cls-13" x="1640.65" y="1336.97" width="8.74" height="23.5"/><rect class="cls-13" x="1670.65" y="1256.97" width="8.74" height="23.5"/><rect class="cls-13" x="1685.65" y="1256.97" width="8.74" height="23.5"/><rect class="cls-13" x="1670.65" y="1296.97" width="8.74" height="23.5"/><rect class="cls-13" x="1685.65" y="1296.97" width="8.74" height="23.5"/><rect class="cls-13" x="1670.65" y="1336.97" width="8.74" height="23.5"/><rect class="cls-13" x="1685.65" y="1336.97" width="8.74" height="23.5"/><rect class="cls-13" x="1715.65" y="1256.97" width="8.74" height="23.5"/><rect class="cls-13" x="1730.65" y="1256.97" width="8.74" height="23.5"/><rect class="cls-13" x="1715.65" y="1296.97" width="8.74" height="23.5"/><rect class="cls-13" x="1730.65" y="1296.97" width="8.74" height="23.5"/><rect class="cls-13" x="1715.65" y="1336.97" width="8.74" height="23.5"/><rect class="cls-13" x="1730.65" y="1336.97" width="8.74" height="23.5"/><rect class="cls-13" x="1760.65" y="1256.97" width="8.74" height="23.5"/><rect class="cls-13" x="1775.65" y="1256.97" width="8.74" height="23.5"/><rect class="cls-13" x="1760.65" y="1296.97" width="8.74" height="23.5"/><rect class="cls-13" x="1775.65" y="1296.97" width="8.74" height="23.5"/><rect class="cls-13" x="1760.65" y="1336.97" width="8.74" height="23.5"/><rect class="cls-13" x="1775.65" y="1336.97" width="8.74" height="23.5"/><rect class="cls-13" x="1805.65" y="1256.97" width="8.74" height="23.5"/><rect class="cls-13" x="1820.65" y="1256.97" width="8.74" height="23.5"/><rect class="cls-13" x="1805.65" y="1296.97" width="8.74" height="23.5"/><rect class="cls-13" x="1820.65" y="1296.97" width="8.74" height="23.5"/><rect class="cls-13" x="1805.65" y="1336.97" width="8.74" height="23.5"/><rect class="cls-13" x="1820.65" y="1336.97" width="8.74" height="23.5"/><rect class="cls-13" x="1850.65" y="1256.97" width="8.74" height="23.5"/><rect class="cls-13" x="1865.65" y="1256.97" width="8.74" height="23.5"/><rect class="cls-13" x="1850.65" y="1296.97" width="8.74" height="23.5"/><rect class="cls-13" x="1865.65" y="1296.97" width="8.74" height="23.5"/><rect class="cls-13" x="1850.65" y="1336.97" width="8.74" height="23.5"/><rect class="cls-13" x="1865.65" y="1336.97" width="8.74" height="23.5"/><rect class="cls-20" x="1374.98" y="1221.72" width="254.8" height="162.25"/><rect class="cls-13" x="1461.96" y="1247.8" width="81" height="176.99" rx="40.5" ry="40.5"/><line class="cls-15" x1="1882.52" y1="1315.72" x2="2033.24" y2="1315.72"/><rect class="cls-13" x="1391.62" y="1325.5" width="14" height="23.5"/><rect class="cls-13" x="1416.12" y="1325.5" width="14" height="23.5"/><line class="cls-21" x1="1448.52" y1="1221.38" x2="1448.52" y2="1368.72"/><line class="cls-21" x1="1556.91" y1="1221.38" x2="1556.91" y2="1368.72"/><path class="cls-22" d="M987.28,1289.17c-5.68-2.82-13.8.56-22.52,8.38-1.09-19.93-6.69-34.07-15.48-35.48-5-.81-10.39,2.69-15.42,9.31,9.55-22,11.15-40.16,2.49-46.36-9.25-6.63-27.71,2.24-46.78,20.72-2.27-17.09-7.67-28.46-15.5-29.72-8.65-1.39-18.36,9.87-26.36,28.45-1.86-16.4-7.15-27.65-14.93-28.9-13.27-2.14-28.76,25.57-34.6,61.87s.18,67.47,13.44,69.61c6.47,1,13.47-5,19.62-15.72.33,26.5,6.41,45.51,16.68,47.16,9.33,1.5,19.87-11.69,28.19-32.91l.26-.19c-.94,26.4,5,46.46,15.57,48.16,7.49,1.21,15.69-7.1,22.46-21.1,1.45,7,3.66,12.66,6.53,16.35-.3,9.94,2,17.12,7.13,19.67,12,6,35.05-15.89,51.4-48.83S999.32,1295.14,987.28,1289.17Z"/><path class="cls-22" d="M651.28,1249.17c-5.68-2.82-13.8.56-22.52,8.38-1.09-19.93-6.69-34.07-15.48-35.48-5-.81-10.39,2.69-15.42,9.31,9.55-22,11.15-40.16,2.49-46.36-9.25-6.63-27.71,2.24-46.78,20.72-2.27-17.09-7.67-28.46-15.5-29.72-8.65-1.39-18.36,9.87-26.36,28.45-1.86-16.4-7.15-27.65-14.93-28.9-13.27-2.14-28.76,25.57-34.6,61.87s.18,67.47,13.44,69.61c6.47,1,13.47-5,19.62-15.72.33,26.5,6.41,45.51,16.68,47.16,9.33,1.5,19.87-11.69,28.19-32.91l.26-.19c-.94,26.4,5,46.46,15.57,48.16,7.49,1.21,15.69-7.1,22.46-21.1,1.45,7,3.66,12.66,6.53,16.35-.3,9.94,2,17.12,7.13,19.67,12,6,35.05-15.89,51.4-48.83S663.32,1255.14,651.28,1249.17Z"/><path class="cls-22" d="M366.17,1158.09c-6.78-1.56-14.59,4.12-21.9,14.68-6.24-21-15.82-34.67-25.56-33.94-5.58.42-10.41,5.52-14.09,13.87,4.6-25.88,1.67-45.71-9.15-50.12-11.56-4.72-29,9.45-44.66,34-6.77-17.67-15.43-28.43-24.12-27.78-9.59.72-17.08,15.21-20.89,37.09-6.17-17-14.67-27.7-23.3-27.05-14.71,1.1-24.19,34.62-21.18,74.87s17.37,72,32.08,70.88c7.17-.54,13.1-8.8,16.94-21.78,7.11,28.2,18.44,46.95,29.82,46.1,10.34-.77,18.23-17.54,21.72-42.31l.23-.26c5.72,28.42,17.2,48.32,28.89,47.44,8.3-.62,14.94-11.58,18.61-28.25,3.33,7.14,7.13,12.58,11.13,15.79,2.22,10.69,6.5,17.77,12.62,19.18,14.37,3.31,33.37-25.89,42.43-65.21S380.54,1161.4,366.17,1158.09Z"/><path class="cls-22" d="M177.16,1244.75c-8.47-2-18.22,5.14-27.36,18.33-7.79-26.22-19.76-43.29-31.92-42.38-7,.52-13,6.89-17.6,17.32,5.74-32.32,2.09-57.08-11.42-62.6-14.44-5.89-36.23,11.8-55.78,42.5-8.46-22.07-21.19-35.5-32-34.69,1.87,5.07,0,224.91,0,224.91,12.91-1,41.51-21.91,45.86-52.84l.29-.33c7.15,35.49,21.47,60.34,36.08,59.25,10.37-.78,18.66-14.46,23.24-35.28,4.16,8.91,8.9,15.71,13.9,19.72,2.77,13.35,8.12,22.19,15.75,24,17.95,4.14,41.67-32.33,53-81.44S195.11,1248.89,177.16,1244.75Z"/><path class="cls-22" d="M805.28,1293.17c-5.68-2.82-13.8.56-22.52,8.38-1.09-19.93-6.69-34.07-15.48-35.48-5-.81-10.39,2.69-15.42,9.31,9.55-22,11.15-40.16,2.49-46.36-9.25-6.63-27.71,2.24-46.78,20.72-2.27-17.09-7.67-28.46-15.5-29.72-8.65-1.39-18.36,9.87-26.36,28.45-1.86-16.4-7.15-27.65-14.93-28.9-13.27-2.14-28.76,25.57-34.6,61.87s.18,67.47,13.44,69.61c6.47,1,13.47-5,19.62-15.72.33,26.5,6.41,45.51,16.68,47.16,9.33,1.5,19.87-11.69,28.19-32.91l.26-.19c-.94,26.4,5,46.46,15.57,48.16,7.49,1.21,15.69-7.1,22.46-21.1,1.45,7,3.66,12.66,6.53,16.35-.3,9.94,2,17.12,7.13,19.67,12,6,35.05-15.89,51.4-48.83S817.32,1299.14,805.28,1293.17Z"/><path class="cls-22" d="M3441.11,1382.77a78,78,0,0,0-23.73-95.86,55.12,55.12,0,0,0-11.09-103.31,77.94,77.94,0,1,0-141.4-45.24,55.08,55.08,0,0,0-54.78,61.16,38.95,38.95,0,0,0-44.29,20,49.7,49.7,0,0,0-72.81,4.7,42,42,0,0,0-47,49.92,42,42,0,1,0,27.56,77.2L3108,1486.23a77.89,77.89,0,0,0,114.44-13.74,77.92,77.92,0,0,0,107.33,19.23,77.94,77.94,0,1,0,111.34-108.94Z"/><path class="cls-22" d="M3826.22,1443.77a63.11,63.11,0,0,0-15.52,1.93,77.87,77.87,0,0,0-88.4-56.57,78,78,0,0,0-91.06-38.22,55.12,55.12,0,0,0-89.48-52.81,77.95,77.95,0,0,0-63.12-53.3,63,63,0,1,0-74.74,32.26A77.93,77.93,0,0,0,3421,1384.48a55.08,55.08,0,0,0,16.33,80.46,38.95,38.95,0,0,0-10.44,47.44,49.73,49.73,0,0,0-38.62,65,13.55,13.55,0,0,0,.51,24.13,23.89,23.89,0,0,0,37.72,23.42,38.81,38.81,0,0,0,26.48,4.42,54.94,54.94,0,0,0,17.21,32.72l136.1,56a77.89,77.89,0,0,0,57.34-100,77.92,77.92,0,0,0,79.53-74.6,78.23,78.23,0,0,0,27.07-7.81,63,63,0,1,0,56-91.92Z"/><path class="cls-23" d="M3463.49,1373.88a49.37,49.37,0,0,0-17.41,3.16,54.84,54.84,0,0,0-31.51-62.15,54.81,54.81,0,0,0-73.32-30.64,38.53,38.53,0,0,0-68.53-10.15,54.8,54.8,0,0,0-94.31,22.82,38.5,38.5,0,0,0-41.94,2,15.16,15.16,0,0,0-25.25,11.33c0,.48,0,1,.07,1.42a32.22,32.22,0,0,0-31.64,3.9h0a38.89,38.89,0,0,0-60.24,4.47,77.95,77.95,0,0,0-114.58-44.76,55.11,55.11,0,0,0-80.3,22.83,38.91,38.91,0,0,0-49.1-17.92,50.65,50.65,0,0,0-50.53-47.25c-.68,0-1.35,0-2,.05a77.93,77.93,0,0,0-132.31,38.11,38.92,38.92,0,0,0-36.62,9.36,23.88,23.88,0,0,0-47.54,2.52,38.9,38.9,0,0,0-50.84,13.34,55.14,55.14,0,0,0-63-22.81,38.91,38.91,0,0,0-47.82-17.33,77.93,77.93,0,0,0-134.55-5.73,38.92,38.92,0,0,0-47.22,18.38,38.9,38.9,0,0,0-56.9,31,78,78,0,0,0-85.61,50.73,38.9,38.9,0,0,0-40.92-10.68,77.93,77.93,0,0,0-123.24,3.36,23.88,23.88,0,0,0-37.54,10.58,38.93,38.93,0,0,0-50.54-19.09,39.07,39.07,0,0,0-15.29-16.23,13.57,13.57,0,0,0-24.67-4.88,38.93,38.93,0,0,0-32.2,27.77,38.9,38.9,0,0,0-51.47,19.33,23.88,23.88,0,0,0-40.71,7,77.89,77.89,0,0,0-109.19,3.72,23.87,23.87,0,0,0-31.78-.13,38.94,38.94,0,0,0-52.42-24.17,38.89,38.89,0,0,0-57.66-4.9A78,78,0,0,0,1244.39,1371a78,78,0,0,0-90.34,2.42,38.87,38.87,0,0,0-48.56-2.11,77.67,77.67,0,0,0-30.86-6.36,78.45,78.45,0,0,0-12.43,1,38.88,38.88,0,0,0-59.7-7.21,58.54,58.54,0,0,0-74.48-2.41,23.88,23.88,0,0,0-32.82,6.15,78.06,78.06,0,0,0-31.11-21.42,13.56,13.56,0,0,0-20.45-17.42,38.91,38.91,0,1,0-65.83,39.55,77.95,77.95,0,0,0,92.92,121.1,58.6,58.6,0,0,0,112.68-22.56c0-1.26-.05-2.51-.13-3.75A58.39,58.39,0,0,0,997.1,1451a77.94,77.94,0,0,0,143.26,33.86A77.93,77.93,0,0,0,1269,1473.7a78,78,0,0,0,121.42-64.7c0-.34,0-.68,0-1a38.65,38.65,0,0,0,4.32-1.54,38.91,38.91,0,0,0,64.43-3.49,23.88,23.88,0,0,0,15.06,9.76,77.95,77.95,0,1,0,150.67-12.81c.46,0,.92,0,1.39,0a23.82,23.82,0,0,0,17.85-8,38.91,38.91,0,0,0,73.25-4.31,38.93,38.93,0,0,0,31.42.31,38.91,38.91,0,0,0,73.28-11.88,23.85,23.85,0,0,0,19.18,9.64h.09c-.05,1.18-.09,2.37-.09,3.56a78,78,0,0,0,151.28,26.47,38.8,38.8,0,0,0,27.91-12.63,78,78,0,0,0,142.43,9.94,77.94,77.94,0,0,0,125.46,7,77.95,77.95,0,0,0,134.2,9.38,77.94,77.94,0,0,0,127.35,8.9,77.93,77.93,0,0,0,117.67-13.61,77.93,77.93,0,0,0,106.3,22.35,77.93,77.93,0,0,0,140-33.23,78,78,0,0,0,66-2A77.92,77.92,0,0,0,3116,1458.23l-2-7.78a55.22,55.22,0,0,0,7.94.58,54.56,54.56,0,0,0,34.28-12.06,54.8,54.8,0,0,0,58.34,6.5,54.77,54.77,0,0,0,62,12.32,54.84,54.84,0,0,0,74.08,21.91,54.79,54.79,0,0,0,81.91-17.69,49.49,49.49,0,1,0,30.92-88.13Z"/><path class="cls-23" d="M760.86,1578.2a77.92,77.92,0,0,0,51-96.4,77.94,77.94,0,1,0-69.9-139.21,78,78,0,0,0-98.54-6.56,55.12,55.12,0,0,0-101.79-20.87,77.94,77.94,0,1,0-86.12,120.93,55.08,55.08,0,0,0,41.59,70.79,38.95,38.95,0,0,0,5.54,48.26,49.73,49.73,0,0,0-15.41,74,13.55,13.55,0,0,0,8.32,22.65,23.89,23.89,0,0,0,43.28,9.89,38.81,38.81,0,0,0,26.48-4.42,54.94,54.94,0,0,0,26.91,25.35l146.92,8.77a77.89,77.89,0,0,0,21.74-113.2Z"/><path class="cls-23" d="M.17,1340.88a73.16,73.16,0,0,1,43.73,14.43,42.71,42.71,0,0,1,46.71-25.81,42.72,42.72,0,0,1,16.67-28.08,77.93,77.93,0,0,1,128.33-88.25A55.12,55.12,0,0,1,337.39,1234a78,78,0,0,1,98.54,6.56,77.93,77.93,0,1,1,69.9,139.21,77.92,77.92,0,0,1-51,96.4,77.89,77.89,0,0,1-21.74,113.2l-146.92-8.77a54.94,54.94,0,0,1-26.91-25.35,38.81,38.81,0,0,1-26.48,4.42,23.89,23.89,0,0,1-43.28-9.89,13.52,13.52,0,0,1-11.87-12.44h-134a42.55,42.55,0,0,1-26.22,9c-9.7,0-17.42-25.21-17.42-25.21Z"/><line class="cls-15" x1="1410.96" y1="1047.59" x2="1592.45" y2="1047.59"/><line class="cls-15" x1="1410.96" y1="1145.59" x2="1592.45" y2="1145.59"/><line class="cls-15" x1="1410.96" y1="1166.93" x2="1592.45" y2="1166.93"/><rect class="cls-13" x="1410.24" y="1047.72" width="22" height="97.69"/><rect class="cls-13" x="1450.49" y="1047.72" width="22" height="97.69"/><rect class="cls-13" x="1490.74" y="1047.72" width="22" height="97.69"/><rect class="cls-13" x="1530.99" y="1047.72" width="22" height="97.69"/><rect class="cls-13" x="1571.24" y="1047.72" width="22" height="97.69"/><polygon class="cls-8" points="1501.65 1134.67 1413.58 1189.43 1589.71 1189.43 1501.65 1134.67 1413.58 1189.43 1589.71 1189.43 1501.65 1134.67"/><circle class="cls-24" cx="1502.4" cy="1166.03" r="12"/><rect class="cls-20" x="1413.52" y="1189.72" width="177.5" height="30.95"/><rect class="cls-8" x="1120.24" y="1208.72" width="222" height="23"/><rect class="cls-8" x="1660.24" y="1208.72" width="222" height="23"/><polygon class="cls-8" points="1342.37 1193.64 1374.58 1175.71 1374.58 1193.28 1342.37 1193.64"/><polygon class="cls-8" points="1374.87 1166.92 1410.58 1148.99 1410.58 1166.56 1374.87 1166.92"/><polygon class="cls-8" points="1660.14 1193.64 1627.93 1175.71 1627.93 1193.28 1660.14 1193.64"/><polygon class="cls-8" points="1629.08 1166.92 1593.37 1148.99 1593.37 1166.56 1629.08 1166.92"/><line class="cls-15" x1="969.52" y1="1207.72" x2="1120.24" y2="1207.72"/><line class="cls-15" x1="1883.52" y1="1207.72" x2="2034.24" y2="1207.72"/><line class="cls-15" x1="1659.52" y1="1244.6" x2="1882.24" y2="1244.6"/><line class="cls-15" x1="1120.52" y1="1244.6" x2="1343.24" y2="1244.6"/><line class="cls-21" x1="1375.52" y1="1221.16" x2="1629.52" y2="1221.16"/><line class="cls-21" x1="1375.52" y1="1260.16" x2="1448.52" y2="1260.16"/><line class="cls-21" x1="1557.02" y1="1260.16" x2="1630.02" y2="1260.16"/><rect class="cls-13" x="1391.62" y="1229.5" width="14" height="23.5"/><rect class="cls-13" x="1416.12" y="1229.5" width="14" height="23.5"/><rect class="cls-25" x="1437.28" y="1198.48" width="14" height="14.48"/><rect class="cls-26" x="1466.52" y="1198.48" width="14" height="14.48"/><rect class="cls-27" x="1495.76" y="1198.48" width="14" height="14.48"/><rect class="cls-28" x="1525" y="1198.48" width="14" height="14.48"/><rect class="cls-29" x="1554.24" y="1198.48" width="14" height="14.48"/><rect class="cls-13" x="1391.62" y="1277.5" width="14" height="23.5"/><rect class="cls-13" x="1416.12" y="1277.5" width="14" height="23.5"/><rect class="cls-13" x="1573.62" y="1325.5" width="14" height="23.5"/><rect class="cls-13" x="1598.12" y="1325.5" width="14" height="23.5"/><rect class="cls-13" x="1573.62" y="1277.5" width="14" height="23.5"/><rect class="cls-13" x="1598.12" y="1277.5" width="14" height="23.5"/><rect class="cls-13" x="1574.12" y="1229.5" width="14" height="23.5"/><rect class="cls-13" x="1598.62" y="1229.5" width="14" height="23.5"/><line class="cls-30" x1="2098.52" y1="1187.81" x2="2098.52" y2="1351.72"/><path class="cls-30" d="M2067.93,1219.31v16.56a13.44,13.44,0,0,0,13.44,13.44h15.06"/><path class="cls-30" d="M2099.43,1232.8h3.06a13.44,13.44,0,0,0,13.44-13.44v-12.06"/><path class="cls-30" d="M2097.93,1274.8H2104a13.44,13.44,0,0,0,13.44-13.44v-9.06"/><path class="cls-31" d="M4000,2155.6V1521.69c-462.46-88.1-1187-144.82-2001.38-144.82-812.8,0-1536,56.5-1998.62,144.3V2155.6Z"/><path class="cls-32" d="M2336.11,1396.82a43.75,43.75,0,0,1,4.18,5.69c1.24,2,2.37,4,3.42,6.07s2,4.19,2.84,6.36a43.16,43.16,0,0,1,2.08,6.75,43.16,43.16,0,0,1-4.18-5.69q-1.86-3-3.42-6.07t-2.84-6.36A43.7,43.7,0,0,1,2336.11,1396.82Z"/><path class="cls-32" d="M2353.75,1419.67a55.51,55.51,0,0,1-3-7.37q-1.26-3.75-2.19-7.57T2347,1397a54.81,54.81,0,0,1-.73-7.93,54.81,54.81,0,0,1,3,7.37q1.26,3.75,2.19,7.57c.62,2.55,1.15,5.13,1.56,7.73A55.51,55.51,0,0,1,2353.75,1419.67Z"/><path class="cls-32" d="M2361.27,1392.25a48.32,48.32,0,0,1,1.18,7.33c.22,2.44.32,4.89.32,7.33s-.1,4.89-.32,7.33a47.67,47.67,0,0,1-1.18,7.33,47.73,47.73,0,0,1-1.18-7.33q-.33-3.67-.32-7.33c0-2.44.1-4.89.32-7.33A48.32,48.32,0,0,1,2361.27,1392.25Z"/><path class="cls-32" d="M2369.61,1420.3a57.32,57.32,0,0,1,.63-8.07c.38-2.65.87-5.28,1.46-7.88s1.28-5.18,2.09-7.74a56.53,56.53,0,0,1,2.92-7.55,56.6,56.6,0,0,1-.62,8.07q-.57,4-1.46,7.88c-.59,2.6-1.28,5.18-2.09,7.74A57.32,57.32,0,0,1,2369.61,1420.3Z"/><path class="cls-32" d="M2381.71,1419.67a58.36,58.36,0,0,1,.63-8.15c.38-2.68.87-5.33,1.46-8s1.28-5.24,2.09-7.82a57.56,57.56,0,0,1,2.92-7.63,57.62,57.62,0,0,1-.62,8.15q-.57,4-1.46,8t-2.09,7.82A58.43,58.43,0,0,1,2381.71,1419.67Z"/><path class="cls-32" d="M2395.9,1420.94a84.28,84.28,0,0,1-1.17-10c-.24-3.32-.33-6.64-.33-10s.09-6.64.33-10a83.49,83.49,0,0,1,1.17-10,83.59,83.59,0,0,1,1.17,10c.24,3.32.33,6.64.33,10s-.09,6.64-.33,10A84.49,84.49,0,0,1,2395.9,1420.94Z"/><path class="cls-32" d="M2404.67,1421.58a51.4,51.4,0,0,1-1.28-7.55c-.25-2.52-.39-5-.43-7.57s0-5,.22-7.58a50.71,50.71,0,0,1,1.08-7.59,50.77,50.77,0,0,1,1.28,7.55q.38,3.78.42,7.57c0,2.52,0,5-.22,7.58A51.4,51.4,0,0,1,2404.67,1421.58Z"/><path class="cls-32" d="M2411.34,1418.71a52.93,52.93,0,0,1-.44-7.76c0-2.57.17-5.13.41-7.68s.59-5.09,1-7.62a52.22,52.22,0,0,1,1.9-7.54,52.22,52.22,0,0,1,.44,7.76q0,3.86-.41,7.68c-.25,2.55-.59,5.09-1.05,7.62A52.87,52.87,0,0,1,2411.34,1418.71Z"/><path class="cls-32" d="M2415.1,1419.35a64.65,64.65,0,0,1,2.7-8.17q1.58-4,3.46-7.79t4-7.51a63.78,63.78,0,0,1,4.81-7.13,63.85,63.85,0,0,1-2.7,8.17q-1.58,4-3.47,7.79t-4,7.51A64.65,64.65,0,0,1,2415.1,1419.35Z"/><path class="cls-32" d="M2420.94,1417.75a61.31,61.31,0,0,1,4.19-7.26q2.3-3.47,4.86-6.73t5.36-6.34a60.54,60.54,0,0,1,6-5.81,60.6,60.6,0,0,1-4.18,7.26q-2.3,3.47-4.86,6.73t-5.37,6.33A61.38,61.38,0,0,1,2420.94,1417.75Z"/><path class="cls-32" d="M2425.53,1418.39a46.29,46.29,0,0,1,5.55-4.68q2.91-2.12,6-3.94t6.32-3.39a45.65,45.65,0,0,1,6.76-2.65,45.62,45.62,0,0,1-5.55,4.68q-2.91,2.12-6,3.94t-6.32,3.39A46.25,46.25,0,0,1,2425.53,1418.39Z"/><path class="cls-32" d="M2338.73,1420a41.54,41.54,0,0,1-4.36-5.32q-2-2.79-3.62-5.74t-3.06-6.05a41.05,41.05,0,0,1-2.31-6.48,41,41,0,0,1,4.36,5.32q2,2.79,3.62,5.74t3.06,6.06A41.53,41.53,0,0,1,2338.73,1420Z"/><path class="cls-32" d="M2332.89,1421.58a57.79,57.79,0,0,1-5.83-5.66q-2.71-3-5.16-6.18t-4.65-6.57a57,57,0,0,1-4-7.09,57.05,57.05,0,0,1,5.84,5.66q2.71,3,5.16,6.18t4.65,6.57A57.79,57.79,0,0,1,2332.89,1421.58Z"/><path class="cls-32" d="M2325.79,1421.58a32.1,32.1,0,0,1-5.64-2.2,54.1,54.1,0,0,1-5.18-2.91,53.17,53.17,0,0,1-4.84-3.46,31.74,31.74,0,0,1-4.37-4.18,31.74,31.74,0,0,1,5.64,2.19,53.16,53.16,0,0,1,5.18,2.92,54.1,54.1,0,0,1,4.83,3.46A32.15,32.15,0,0,1,2325.79,1421.58Z"/><path class="cls-32" d="M1465.24,1471.09a18.49,18.49,0,0,1,2.94,3.48,29.84,29.84,0,0,1,2.17,3.84,29.32,29.32,0,0,1,1.59,4.11,18.25,18.25,0,0,1,.81,4.48,18.25,18.25,0,0,1-2.94-3.48,29.27,29.27,0,0,1-2.16-3.84,29.78,29.78,0,0,1-1.58-4.12A18.46,18.46,0,0,1,1465.24,1471.09Z"/><path class="cls-32" d="M1475.81,1485.71a39.23,39.23,0,0,1-1.92-6.39c-.47-2.15-.82-4.32-1.07-6.49a64.92,64.92,0,0,1-.43-6.56,38.7,38.7,0,0,1,.42-6.66,38.66,38.66,0,0,1,1.92,6.39,65.06,65.06,0,0,1,1.07,6.49c.25,2.18.4,4.36.43,6.57A39.18,39.18,0,0,1,1475.81,1485.71Z"/><path class="cls-32" d="M1480.31,1468.17a20.78,20.78,0,0,1,1.18,4.69,33.91,33.91,0,0,1,.32,4.69,33.31,33.31,0,0,1-.32,4.69,20.51,20.51,0,0,1-1.18,4.69,20.53,20.53,0,0,1-1.18-4.69,33.31,33.31,0,0,1-.32-4.69,34,34,0,0,1,.32-4.69A20.78,20.78,0,0,1,1480.31,1468.17Z"/><polygon class="cls-6" points="1309.63 1437.39 1298.26 1418.28 1313.47 1427.44 1308.98 1408.59 1320.53 1425.34 1320.53 1407.54 1327.59 1424.3 1334.01 1405.97 1333.37 1424.82 1342.99 1412.78 1337.22 1429.53 1354.54 1420.11 1345.56 1436.86 1309.63 1437.39"/><path class="cls-32" d="M1491.31,1462.86a30.19,30.19,0,0,1,.54,5.84,50.64,50.64,0,0,1-.3,5.75,49.85,49.85,0,0,1-.94,5.68,29.83,29.83,0,0,1-1.8,5.58,29.87,29.87,0,0,1-.55-5.84,49.85,49.85,0,0,1,.31-5.75,50.86,50.86,0,0,1,.95-5.68A30.23,30.23,0,0,1,1491.31,1462.86Z"/><path class="cls-32" d="M1494.31,1485.31a21.42,21.42,0,0,1,.52-4.89,35.1,35.1,0,0,1,1.32-4.6,34.45,34.45,0,0,1,1.93-4.38,21.18,21.18,0,0,1,2.73-4.09,21.18,21.18,0,0,1-.52,4.89,34.52,34.52,0,0,1-1.32,4.6,35.1,35.1,0,0,1-1.93,4.38A21.43,21.43,0,0,1,1494.31,1485.31Z"/><path class="cls-32" d="M1502.31,1486.12a20.7,20.7,0,0,1,1.65-4.54,33.76,33.76,0,0,1,2.36-4.06,33.19,33.19,0,0,1,2.89-3.7,20.45,20.45,0,0,1,3.6-3.21,20.41,20.41,0,0,1-1.65,4.54,33.14,33.14,0,0,1-2.36,4.06,33.75,33.75,0,0,1-2.89,3.69A20.7,20.7,0,0,1,1502.31,1486.12Z"/><path class="cls-32" d="M3033.1,1554a18.48,18.48,0,0,1,2.94,3.48,29.83,29.83,0,0,1,2.17,3.84,29.26,29.26,0,0,1,1.59,4.11,18.27,18.27,0,0,1,.81,4.48,18.27,18.27,0,0,1-2.94-3.48,29.32,29.32,0,0,1-2.16-3.84,29.84,29.84,0,0,1-1.58-4.12A18.49,18.49,0,0,1,3033.1,1554Z"/><path class="cls-32" d="M3043.67,1568.59a39.18,39.18,0,0,1-1.92-6.39c-.47-2.15-.82-4.32-1.07-6.49a65.06,65.06,0,0,1-.43-6.56,38.65,38.65,0,0,1,.42-6.66,38.7,38.7,0,0,1,1.92,6.39,64.93,64.93,0,0,1,1.07,6.49c.25,2.18.4,4.36.43,6.57A39.23,39.23,0,0,1,3043.67,1568.59Z"/><path class="cls-32" d="M3048.17,1551a20.78,20.78,0,0,1,1.18,4.69,33.91,33.91,0,0,1,.32,4.69,33.31,33.31,0,0,1-.32,4.69,20.53,20.53,0,0,1-1.18,4.69,20.51,20.51,0,0,1-1.18-4.69,33.31,33.31,0,0,1-.32-4.69,33.91,33.91,0,0,1,.32-4.69A20.78,20.78,0,0,1,3048.17,1551Z"/><path class="cls-32" d="M3059.17,1545.74a30.23,30.23,0,0,1,.54,5.84,50.75,50.75,0,0,1-.3,5.75,49.85,49.85,0,0,1-.94,5.68,29.87,29.87,0,0,1-1.8,5.58,29.83,29.83,0,0,1-.55-5.84,49.74,49.74,0,0,1,.31-5.75,50.64,50.64,0,0,1,.95-5.68A30.2,30.2,0,0,1,3059.17,1545.74Z"/><path class="cls-32" d="M3062.17,1568.18a21.45,21.45,0,0,1,.52-4.89,35.1,35.1,0,0,1,1.32-4.6,34.51,34.51,0,0,1,1.93-4.38,21.16,21.16,0,0,1,2.73-4.09,21.18,21.18,0,0,1-.52,4.89,34.45,34.45,0,0,1-1.32,4.6,35,35,0,0,1-1.93,4.38A21.45,21.45,0,0,1,3062.17,1568.18Z"/><path class="cls-32" d="M3070.17,1569a20.67,20.67,0,0,1,1.65-4.54,33.69,33.69,0,0,1,2.36-4.06,33.14,33.14,0,0,1,2.89-3.7,20.42,20.42,0,0,1,3.6-3.21A20.46,20.46,0,0,1,3079,1558a33.2,33.2,0,0,1-2.36,4.06,33.76,33.76,0,0,1-2.89,3.69A20.69,20.69,0,0,1,3070.17,1569Z"/><path class="cls-32" d="M2557.29,1437.78a18.47,18.47,0,0,1,2.94,3.48,29.84,29.84,0,0,1,2.17,3.84,29.26,29.26,0,0,1,1.58,4.11,18.23,18.23,0,0,1,.81,4.48,18.27,18.27,0,0,1-2.94-3.48,29.26,29.26,0,0,1-2.16-3.84,29.84,29.84,0,0,1-1.58-4.12A18.49,18.49,0,0,1,2557.29,1437.78Z"/><path class="cls-32" d="M2567.86,1452.4a39.18,39.18,0,0,1-1.92-6.39c-.47-2.15-.82-4.32-1.07-6.49a65.06,65.06,0,0,1-.43-6.56,38.7,38.7,0,0,1,.42-6.66,38.7,38.7,0,0,1,1.92,6.39,65.06,65.06,0,0,1,1.07,6.49c.25,2.18.4,4.36.43,6.57A39.23,39.23,0,0,1,2567.86,1452.4Z"/><path class="cls-32" d="M2572.36,1434.86a20.78,20.78,0,0,1,1.18,4.69,33.83,33.83,0,0,1,.32,4.69,33.31,33.31,0,0,1-.32,4.69,20.54,20.54,0,0,1-1.18,4.69,20.53,20.53,0,0,1-1.18-4.69,33.23,33.23,0,0,1-.32-4.69,33.91,33.91,0,0,1,.32-4.69A20.78,20.78,0,0,1,2572.36,1434.86Z"/><path class="cls-32" d="M2583.36,1429.55a30.23,30.23,0,0,1,.54,5.84,50.75,50.75,0,0,1-.3,5.75,49.85,49.85,0,0,1-.94,5.68,29.83,29.83,0,0,1-1.8,5.58,29.83,29.83,0,0,1-.55-5.84,49.85,49.85,0,0,1,.31-5.75,50.75,50.75,0,0,1,.95-5.68A30.23,30.23,0,0,1,2583.36,1429.55Z"/><path class="cls-32" d="M2586.36,1452a21.42,21.42,0,0,1,.52-4.89,35,35,0,0,1,1.32-4.6,34.45,34.45,0,0,1,1.93-4.38,21.18,21.18,0,0,1,2.73-4.09,21.16,21.16,0,0,1-.52,4.89,34.44,34.44,0,0,1-1.32,4.6,35,35,0,0,1-1.93,4.38A21.4,21.4,0,0,1,2586.36,1452Z"/><path class="cls-32" d="M2594.36,1452.81a20.67,20.67,0,0,1,1.65-4.54,33.76,33.76,0,0,1,2.36-4.06,33.14,33.14,0,0,1,2.89-3.7,20.44,20.44,0,0,1,3.6-3.21,20.44,20.44,0,0,1-1.65,4.54,33.14,33.14,0,0,1-2.36,4.06,33.76,33.76,0,0,1-2.89,3.69A20.68,20.68,0,0,1,2594.36,1452.81Z"/><path class="cls-32" d="M1284.08,1466.77a18.47,18.47,0,0,1,2.94,3.48,29.78,29.78,0,0,1,2.17,3.84,29.2,29.2,0,0,1,1.59,4.11,18.27,18.27,0,0,1,.81,4.48,18.27,18.27,0,0,1-2.94-3.48,29.26,29.26,0,0,1-2.16-3.84,29.84,29.84,0,0,1-1.58-4.12A18.49,18.49,0,0,1,1284.08,1466.77Z"/><path class="cls-32" d="M1294.65,1481.4a39.23,39.23,0,0,1-1.92-6.39c-.47-2.15-.82-4.32-1.07-6.49a65.07,65.07,0,0,1-.43-6.56,38.7,38.7,0,0,1,.42-6.66,38.7,38.7,0,0,1,1.92,6.39,65.06,65.06,0,0,1,1.07,6.49c.25,2.18.4,4.36.43,6.57A39.18,39.18,0,0,1,1294.65,1481.4Z"/><path class="cls-32" d="M1299.15,1463.85a20.78,20.78,0,0,1,1.18,4.69,33.91,33.91,0,0,1,.32,4.69,33.23,33.23,0,0,1-.32,4.69,20.53,20.53,0,0,1-1.18,4.69,20.54,20.54,0,0,1-1.18-4.69,33.31,33.31,0,0,1-.32-4.69,33.83,33.83,0,0,1,.32-4.69A20.78,20.78,0,0,1,1299.15,1463.85Z"/><path class="cls-32" d="M1310.15,1458.55a30.23,30.23,0,0,1,.54,5.84,50.75,50.75,0,0,1-.3,5.75,49.85,49.85,0,0,1-.94,5.68,29.87,29.87,0,0,1-1.8,5.58,29.83,29.83,0,0,1-.55-5.84,49.85,49.85,0,0,1,.31-5.75,50.64,50.64,0,0,1,.95-5.68A30.23,30.23,0,0,1,1310.15,1458.55Z"/><path class="cls-32" d="M1313.15,1481a21.42,21.42,0,0,1,.52-4.89,35,35,0,0,1,1.32-4.6,34.45,34.45,0,0,1,1.93-4.38,21.18,21.18,0,0,1,2.73-4.09,21.16,21.16,0,0,1-.52,4.89,34.44,34.44,0,0,1-1.32,4.6,35.1,35.1,0,0,1-1.93,4.38A21.42,21.42,0,0,1,1313.15,1481Z"/><path class="cls-32" d="M1321.15,1481.8a20.67,20.67,0,0,1,1.65-4.54,33.76,33.76,0,0,1,2.36-4.06,33.14,33.14,0,0,1,2.89-3.7,20.44,20.44,0,0,1,3.6-3.21,20.44,20.44,0,0,1-1.65,4.54,33.14,33.14,0,0,1-2.36,4.06,33.76,33.76,0,0,1-2.89,3.69A20.68,20.68,0,0,1,1321.15,1481.8Z"/><path class="cls-32" d="M885.83,1514.26a18.47,18.47,0,0,1,2.94,3.48,29.78,29.78,0,0,1,2.17,3.84,29.29,29.29,0,0,1,1.59,4.11,18.26,18.26,0,0,1,.81,4.48,18.26,18.26,0,0,1-2.94-3.48,29.29,29.29,0,0,1-2.16-3.84,29.81,29.81,0,0,1-1.58-4.12A18.47,18.47,0,0,1,885.83,1514.26Z"/><path class="cls-32" d="M896.4,1528.89a39.21,39.21,0,0,1-1.92-6.39c-.47-2.15-.82-4.32-1.07-6.49a65,65,0,0,1-.43-6.56,38.68,38.68,0,0,1,.42-6.66,38.7,38.7,0,0,1,1.92,6.39,65.06,65.06,0,0,1,1.07,6.49c.25,2.18.4,4.36.43,6.57A39.21,39.21,0,0,1,896.4,1528.89Z"/><path class="cls-32" d="M900.9,1511.34a20.78,20.78,0,0,1,1.18,4.69,34,34,0,0,1,.32,4.69,33.31,33.31,0,0,1-.32,4.69,20.53,20.53,0,0,1-1.18,4.69,20.51,20.51,0,0,1-1.18-4.69,33.38,33.38,0,0,1-.32-4.69,34,34,0,0,1,.32-4.69A20.75,20.75,0,0,1,900.9,1511.34Z"/><path class="cls-32" d="M911.9,1506a30.19,30.19,0,0,1,.54,5.84,50.53,50.53,0,0,1-.3,5.75,49.74,49.74,0,0,1-.94,5.68,29.87,29.87,0,0,1-1.8,5.58,29.83,29.83,0,0,1-.55-5.84,49.85,49.85,0,0,1,.31-5.75,50.64,50.64,0,0,1,.95-5.68A30.2,30.2,0,0,1,911.9,1506Z"/><path class="cls-32" d="M914.9,1528.48a21.4,21.4,0,0,1,.52-4.89,35.1,35.1,0,0,1,1.32-4.6,34.51,34.51,0,0,1,1.93-4.38,21.16,21.16,0,0,1,2.73-4.09,21.21,21.21,0,0,1-.52,4.89,34.44,34.44,0,0,1-1.32,4.6,35,35,0,0,1-1.93,4.38A21.45,21.45,0,0,1,914.9,1528.48Z"/><path class="cls-32" d="M922.9,1529.29a20.7,20.7,0,0,1,1.65-4.54,33.76,33.76,0,0,1,2.36-4.06,33.19,33.19,0,0,1,2.89-3.7,20.44,20.44,0,0,1,3.6-3.21,20.46,20.46,0,0,1-1.65,4.54,33.2,33.2,0,0,1-2.36,4.06,33.75,33.75,0,0,1-2.89,3.69A20.71,20.71,0,0,1,922.9,1529.29Z"/><path class="cls-32" d="M1783.06,1404.71a18.48,18.48,0,0,1,2.94,3.48,29.83,29.83,0,0,1,2.17,3.84,29.26,29.26,0,0,1,1.59,4.11,18.27,18.27,0,0,1,.81,4.48,18.27,18.27,0,0,1-2.94-3.48,29.32,29.32,0,0,1-2.16-3.84,29.84,29.84,0,0,1-1.58-4.12A18.49,18.49,0,0,1,1783.06,1404.71Z"/><path class="cls-32" d="M1793.63,1419.33a39.18,39.18,0,0,1-1.92-6.39c-.47-2.15-.82-4.32-1.07-6.49a65.06,65.06,0,0,1-.43-6.56,38.65,38.65,0,0,1,.42-6.66,38.7,38.7,0,0,1,1.92,6.39,64.92,64.92,0,0,1,1.07,6.49c.25,2.18.4,4.36.43,6.57A39.23,39.23,0,0,1,1793.63,1419.33Z"/><path class="cls-32" d="M1798.13,1401.79a20.78,20.78,0,0,1,1.18,4.69,33.91,33.91,0,0,1,.32,4.69,33.31,33.31,0,0,1-.32,4.69,20.53,20.53,0,0,1-1.18,4.69,20.51,20.51,0,0,1-1.18-4.69,33.31,33.31,0,0,1-.32-4.69,33.83,33.83,0,0,1,.32-4.69A20.75,20.75,0,0,1,1798.13,1401.79Z"/><path class="cls-32" d="M1809.13,1396.49a30.23,30.23,0,0,1,.54,5.84,50.75,50.75,0,0,1-.3,5.75,49.85,49.85,0,0,1-.94,5.68,29.87,29.87,0,0,1-1.8,5.58,29.83,29.83,0,0,1-.55-5.84,49.74,49.74,0,0,1,.31-5.75,50.64,50.64,0,0,1,.95-5.68A30.2,30.2,0,0,1,1809.13,1396.49Z"/><path class="cls-32" d="M1812.13,1418.93a21.45,21.45,0,0,1,.52-4.89,35.1,35.1,0,0,1,1.32-4.6,34.45,34.45,0,0,1,1.93-4.38,21.16,21.16,0,0,1,2.73-4.09,21.18,21.18,0,0,1-.52,4.89,34.45,34.45,0,0,1-1.32,4.6,35,35,0,0,1-1.93,4.38A21.45,21.45,0,0,1,1812.13,1418.93Z"/><path class="cls-32" d="M1820.13,1419.74a20.67,20.67,0,0,1,1.65-4.54,33.69,33.69,0,0,1,2.36-4.06,33.14,33.14,0,0,1,2.89-3.7,20.42,20.42,0,0,1,3.6-3.21,20.46,20.46,0,0,1-1.65,4.54,33.14,33.14,0,0,1-2.36,4.06,33.76,33.76,0,0,1-2.89,3.69A20.69,20.69,0,0,1,1820.13,1419.74Z"/><path class="cls-32" d="M2202.45,1451a18.47,18.47,0,0,1,2.94,3.48,29.78,29.78,0,0,1,2.17,3.84,29.2,29.2,0,0,1,1.59,4.11,18.27,18.27,0,0,1,.81,4.48,18.27,18.27,0,0,1-2.94-3.48,29.26,29.26,0,0,1-2.16-3.84,29.84,29.84,0,0,1-1.58-4.12A18.49,18.49,0,0,1,2202.45,1451Z"/><path class="cls-32" d="M2213,1465.62a39.23,39.23,0,0,1-1.92-6.39c-.47-2.15-.82-4.32-1.07-6.49a65.06,65.06,0,0,1-.43-6.56,38.7,38.7,0,0,1,.42-6.66,38.7,38.7,0,0,1,1.92,6.39,65.06,65.06,0,0,1,1.07,6.49c.25,2.18.4,4.36.43,6.57A39.18,39.18,0,0,1,2213,1465.62Z"/><path class="cls-32" d="M2217.52,1448.07a20.78,20.78,0,0,1,1.18,4.69,33.83,33.83,0,0,1,.32,4.69,33.23,33.23,0,0,1-.32,4.69,20.53,20.53,0,0,1-1.18,4.69,20.54,20.54,0,0,1-1.18-4.69,33.31,33.31,0,0,1-.32-4.69,33.83,33.83,0,0,1,.32-4.69A20.78,20.78,0,0,1,2217.52,1448.07Z"/><path class="cls-32" d="M2228.52,1442.77a30.23,30.23,0,0,1,.54,5.84,50.75,50.75,0,0,1-.3,5.75,49.85,49.85,0,0,1-.94,5.68,29.87,29.87,0,0,1-1.8,5.58,29.83,29.83,0,0,1-.55-5.84,49.85,49.85,0,0,1,.31-5.75,50.64,50.64,0,0,1,.95-5.68A30.23,30.23,0,0,1,2228.52,1442.77Z"/><path class="cls-32" d="M2231.52,1465.21a21.42,21.42,0,0,1,.52-4.89,35,35,0,0,1,1.32-4.6,34.45,34.45,0,0,1,1.93-4.38,21.18,21.18,0,0,1,2.73-4.09,21.16,21.16,0,0,1-.52,4.89,34.44,34.44,0,0,1-1.32,4.6,35.1,35.1,0,0,1-1.93,4.38A21.42,21.42,0,0,1,2231.52,1465.21Z"/><path class="cls-32" d="M2239.52,1466a20.67,20.67,0,0,1,1.65-4.54,33.76,33.76,0,0,1,2.36-4.06,33.14,33.14,0,0,1,2.89-3.7,20.44,20.44,0,0,1,3.6-3.21,20.44,20.44,0,0,1-1.65,4.54,33.14,33.14,0,0,1-2.36,4.06,33.76,33.76,0,0,1-2.89,3.69A20.68,20.68,0,0,1,2239.52,1466Z"/><path class="cls-32" d="M2667.59,1545.39a18.49,18.49,0,0,1-.81,4.48,29.84,29.84,0,0,1-1.58,4.12,29.32,29.32,0,0,1-2.16,3.84,18.27,18.27,0,0,1-2.94,3.48,18.27,18.27,0,0,1,.81-4.48,29.26,29.26,0,0,1,1.59-4.11,29.84,29.84,0,0,1,2.17-3.84A18.48,18.48,0,0,1,2667.59,1545.39Z"/><path class="cls-32" d="M2657,1560a39.23,39.23,0,0,1-.42-6.66c0-2.2.18-4.39.43-6.57a64.92,64.92,0,0,1,1.07-6.49,38.7,38.7,0,0,1,1.92-6.39,38.65,38.65,0,0,1,.42,6.66,65.07,65.07,0,0,1-.43,6.56c-.25,2.18-.6,4.34-1.07,6.49A39.18,39.18,0,0,1,2657,1560Z"/><path class="cls-32" d="M2652.52,1542.47a20.78,20.78,0,0,1,1.18,4.69,33.91,33.91,0,0,1,.32,4.69,33.31,33.31,0,0,1-.32,4.69,20.51,20.51,0,0,1-1.18,4.69,20.53,20.53,0,0,1-1.18-4.69,33.31,33.31,0,0,1-.32-4.69,33.91,33.91,0,0,1,.32-4.69A20.78,20.78,0,0,1,2652.52,1542.47Z"/><path class="cls-32" d="M2641.52,1537.17a30.19,30.19,0,0,1,1.79,5.58,50.64,50.64,0,0,1,.95,5.68,49.74,49.74,0,0,1,.31,5.75,29.83,29.83,0,0,1-.55,5.84,29.87,29.87,0,0,1-1.8-5.58,49.85,49.85,0,0,1-.94-5.68,50.75,50.75,0,0,1-.3-5.75A30.23,30.23,0,0,1,2641.52,1537.17Z"/><path class="cls-32" d="M2638.52,1559.61a21.45,21.45,0,0,1-2.73-4.09,35,35,0,0,1-1.93-4.38,34.45,34.45,0,0,1-1.32-4.6,21.18,21.18,0,0,1-.52-4.89,21.16,21.16,0,0,1,2.73,4.09,34.51,34.51,0,0,1,1.93,4.38,35.1,35.1,0,0,1,1.32,4.6A21.45,21.45,0,0,1,2638.52,1559.61Z"/><path class="cls-32" d="M2630.52,1560.42a20.69,20.69,0,0,1-3.6-3.22,33.76,33.76,0,0,1-2.89-3.69,33.2,33.2,0,0,1-2.36-4.06,20.46,20.46,0,0,1-1.65-4.54,20.42,20.42,0,0,1,3.6,3.21,33.14,33.14,0,0,1,2.89,3.7,33.69,33.69,0,0,1,2.36,4.06A20.67,20.67,0,0,1,2630.52,1560.42Z"/><path class="cls-32" d="M3492.29,1496.79a18.49,18.49,0,0,1-.81,4.48,29.84,29.84,0,0,1-1.58,4.12,29.26,29.26,0,0,1-2.16,3.84,2.36,2.36,0,1,1-2.13-1,29.26,29.26,0,0,1,1.58-4.11,29.84,29.84,0,0,1,2.17-3.84A18.47,18.47,0,0,1,3492.29,1496.79Z"/><path class="cls-32" d="M3481.72,1511.42a39.18,39.18,0,0,1-.42-6.66c0-2.2.18-4.39.43-6.57a65.06,65.06,0,0,1,1.07-6.49,38.7,38.7,0,0,1,1.92-6.39,38.7,38.7,0,0,1,.42,6.66,65.07,65.07,0,0,1-.43,6.56c-.25,2.18-.6,4.34-1.07,6.49A39.18,39.18,0,0,1,3481.72,1511.42Z"/><path class="cls-32" d="M3477.22,1493.87a20.78,20.78,0,0,1,1.18,4.69,33.83,33.83,0,0,1,.32,4.69,33.31,33.31,0,0,1-.32,4.69,20.54,20.54,0,0,1-1.18,4.69,20.54,20.54,0,0,1-1.18-4.69,33.31,33.31,0,0,1-.32-4.69,33.83,33.83,0,0,1,.32-4.69A20.78,20.78,0,0,1,3477.22,1493.87Z"/><path class="cls-32" d="M3466.22,1488.57a30.23,30.23,0,0,1,1.79,5.58,50.64,50.64,0,0,1,.95,5.68,49.85,49.85,0,0,1,.31,5.75,29.83,29.83,0,0,1-.55,5.84,29.87,29.87,0,0,1-1.8-5.58,49.85,49.85,0,0,1-.94-5.68,50.75,50.75,0,0,1-.3-5.75A30.23,30.23,0,0,1,3466.22,1488.57Z"/><path class="cls-32" d="M3463.22,1511a21.42,21.42,0,0,1-2.73-4.09,35.1,35.1,0,0,1-1.93-4.38,34.44,34.44,0,0,1-1.32-4.6,21.16,21.16,0,0,1-.52-4.89,21.18,21.18,0,0,1,2.73,4.09,34.45,34.45,0,0,1,1.93,4.38,35,35,0,0,1,1.32,4.6A21.42,21.42,0,0,1,3463.22,1511Z"/><path class="cls-32" d="M3455.22,1511.83a20.68,20.68,0,0,1-3.6-3.22,33.76,33.76,0,0,1-2.89-3.69,33.14,33.14,0,0,1-2.36-4.06,20.44,20.44,0,0,1-1.65-4.54,20.44,20.44,0,0,1,3.6,3.21,33.14,33.14,0,0,1,2.89,3.7,33.76,33.76,0,0,1,2.36,4.06A20.67,20.67,0,0,1,3455.22,1511.83Z"/><path class="cls-32" d="M520.29,1498.79a18.47,18.47,0,0,1-.81,4.48,29.81,29.81,0,0,1-1.58,4.12,29.29,29.29,0,0,1-2.16,3.84,18.26,18.26,0,0,1-2.94,3.48,18.26,18.26,0,0,1,.81-4.48,29.29,29.29,0,0,1,1.59-4.11,29.81,29.81,0,0,1,2.17-3.84A18.47,18.47,0,0,1,520.29,1498.79Z"/><path class="cls-32" d="M509.72,1513.42a39.21,39.21,0,0,1-.42-6.66c0-2.2.18-4.39.43-6.57a65,65,0,0,1,1.07-6.49,38.68,38.68,0,0,1,1.92-6.39,38.68,38.68,0,0,1,.42,6.66,65,65,0,0,1-.43,6.56c-.25,2.18-.6,4.34-1.07,6.49A39.21,39.21,0,0,1,509.72,1513.42Z"/><path class="cls-32" d="M505.22,1495.87a20.77,20.77,0,0,1,1.18,4.69,33.87,33.87,0,0,1,.32,4.69,33.31,33.31,0,0,1-.32,4.69,20.52,20.52,0,0,1-1.18,4.69,20.52,20.52,0,0,1-1.18-4.69,33.31,33.31,0,0,1-.32-4.69,33.87,33.87,0,0,1,.32-4.69A20.77,20.77,0,0,1,505.22,1495.87Z"/><path class="cls-32" d="M494.22,1490.57a30.21,30.21,0,0,1,1.79,5.58,50.75,50.75,0,0,1,.95,5.68,49.79,49.79,0,0,1,.31,5.75,29.85,29.85,0,0,1-.55,5.84,29.83,29.83,0,0,1-1.8-5.58,49.8,49.8,0,0,1-.94-5.68,50.75,50.75,0,0,1-.3-5.75A30.21,30.21,0,0,1,494.22,1490.57Z"/><path class="cls-32" d="M491.22,1513a21.44,21.44,0,0,1-2.73-4.09,35.06,35.06,0,0,1-1.93-4.38,34.44,34.44,0,0,1-1.32-4.6,21.17,21.17,0,0,1-.52-4.89,21.17,21.17,0,0,1,2.73,4.09,34.41,34.41,0,0,1,1.93,4.38,35.06,35.06,0,0,1,1.32,4.6A21.44,21.44,0,0,1,491.22,1513Z"/><path class="cls-32" d="M483.22,1513.83a20.69,20.69,0,0,1-3.6-3.22,33.73,33.73,0,0,1-2.89-3.69,33.14,33.14,0,0,1-2.36-4.06,20.44,20.44,0,0,1-1.65-4.54,20.44,20.44,0,0,1,3.6,3.21,33.14,33.14,0,0,1,2.89,3.7,33.72,33.72,0,0,1,2.36,4.06A20.69,20.69,0,0,1,483.22,1513.83Z"/><path class="cls-32" d="M3135.25,1485.54a43.71,43.71,0,0,1,4.18,5.69q1.86,3,3.42,6.07t2.84,6.36a43.16,43.16,0,0,1,2.08,6.75,43.16,43.16,0,0,1-4.18-5.69q-1.86-3-3.42-6.07c-1-2.07-2-4.19-2.84-6.36A43.76,43.76,0,0,1,3135.25,1485.54Z"/><path class="cls-32" d="M3152.9,1508.39a55.51,55.51,0,0,1-3-7.37c-.84-2.5-1.56-5-2.19-7.57s-1.15-5.12-1.57-7.73a54.81,54.81,0,0,1-.73-7.93,54.74,54.74,0,0,1,3,7.37q1.26,3.75,2.19,7.57c.62,2.55,1.15,5.13,1.56,7.73A55.51,55.51,0,0,1,3152.9,1508.39Z"/><path class="cls-32" d="M3160.41,1481a48.38,48.38,0,0,1,1.18,7.33c.22,2.44.32,4.89.32,7.33s-.1,4.89-.32,7.33a47.73,47.73,0,0,1-1.18,7.33,47.73,47.73,0,0,1-1.18-7.33q-.33-3.67-.32-7.33c0-2.44.1-4.89.32-7.33A48.32,48.32,0,0,1,3160.41,1481Z"/><path class="cls-32" d="M2012.68,1547.67a39.45,39.45,0,0,1-2.08-6.36c-.52-2.15-.93-4.31-1.24-6.48a65.42,65.42,0,0,1-.6-6.57,39,39,0,0,1,.25-6.69,38.92,38.92,0,0,1,2.09,6.36,65.57,65.57,0,0,1,1.24,6.48c.31,2.18.51,4.37.6,6.57A39.45,39.45,0,0,1,2012.68,1547.67Z"/><path class="cls-32" d="M2018.2,1530.13a20.78,20.78,0,0,1,1.18,4.69,33.91,33.91,0,0,1,.32,4.69,33.31,33.31,0,0,1-.32,4.69,20.51,20.51,0,0,1-1.18,4.69,20.53,20.53,0,0,1-1.18-4.69,33.31,33.31,0,0,1-.32-4.69,33.91,33.91,0,0,1,.32-4.69A20.78,20.78,0,0,1,2018.2,1530.13Z"/><path class="cls-32" d="M2031.71,1524.82a30.39,30.39,0,0,1,.4,5.87,51,51,0,0,1-.45,5.76,50.11,50.11,0,0,1-1.08,5.67,30,30,0,0,1-1.94,5.56,30,30,0,0,1-.4-5.87,50.11,50.11,0,0,1,.45-5.75,51,51,0,0,1,1.09-5.67A30.39,30.39,0,0,1,2031.71,1524.82Z"/><path class="cls-32" d="M2035.39,1547.26a22.57,22.57,0,0,1,.92-5,37.08,37.08,0,0,1,1.7-4.62,36.38,36.38,0,0,1,2.29-4.36,22.31,22.31,0,0,1,3.07-4,22.28,22.28,0,0,1-.92,5,36.45,36.45,0,0,1-1.7,4.62,37.16,37.16,0,0,1-2.29,4.36A22.6,22.6,0,0,1,2035.39,1547.26Z"/><path class="cls-32" d="M2045.21,1548.08a23.67,23.67,0,0,1,2.32-4.63,39.07,39.07,0,0,1,3-4.08,38.39,38.39,0,0,1,3.47-3.67,23.41,23.41,0,0,1,4.13-3.12,23.41,23.41,0,0,1-2.32,4.63,38.39,38.39,0,0,1-3,4.08,39.07,39.07,0,0,1-3.47,3.67A23.69,23.69,0,0,1,2045.21,1548.08Z"/><path class="cls-32" d="M2005.92,1548.21a15.05,15.05,0,0,1-2.62-3.14,23.68,23.68,0,0,1-1.83-3.48,23.23,23.23,0,0,1-1.24-3.73,14.88,14.88,0,0,1-.45-4.07,14.88,14.88,0,0,1,2.62,3.14,23.28,23.28,0,0,1,1.83,3.48,23.73,23.73,0,0,1,1.24,3.73A15.07,15.07,0,0,1,2005.92,1548.21Z"/><path class="cls-32" d="M1998.56,1547.94a17.38,17.38,0,0,1-2.81-3.4,27.84,27.84,0,0,1-2-3.74,27.3,27.3,0,0,1-1.45-4,17.16,17.16,0,0,1-.66-4.36,17.18,17.18,0,0,1,2.82,3.39,27.36,27.36,0,0,1,2,3.75,27.84,27.84,0,0,1,1.44,4A17.36,17.36,0,0,1,1998.56,1547.94Z"/><path class="cls-32" d="M1989.15,1547.94a23.69,23.69,0,0,1-3.66-3.66,39.1,39.1,0,0,1-2.94-4.11,38.47,38.47,0,0,1-2.39-4.45,23.42,23.42,0,0,1-1.66-4.91,23.42,23.42,0,0,1,3.66,3.66,38.39,38.39,0,0,1,2.93,4.12,39.1,39.1,0,0,1,2.38,4.46A23.69,23.69,0,0,1,1989.15,1547.94Z"/><path class="cls-32" d="M1983.42,1547.67a19,19,0,0,1-3.84-2.55,30.67,30.67,0,0,1-3.21-3.12,30.13,30.13,0,0,1-2.73-3.55,18.71,18.71,0,0,1-2.09-4.12,18.74,18.74,0,0,1,3.85,2.55,30.18,30.18,0,0,1,3.21,3.12,30.72,30.72,0,0,1,2.72,3.55A19,19,0,0,1,1983.42,1547.67Z"/><path class="cls-32" d="M1980.55,1550.39a36.29,36.29,0,0,1-6.16-1.81,61.1,61.1,0,0,1-5.77-2.57,60.07,60.07,0,0,1-5.48-3.14A35.83,35.83,0,0,1,1958,1539a35.83,35.83,0,0,1,6.16,1.8,60,60,0,0,1,5.77,2.57,61,61,0,0,1,5.48,3.15A36.28,36.28,0,0,1,1980.55,1550.39Z"/><path class="cls-32" d="M2740.19,1474.26a20,20,0,0,1,3.32,3.39,32.6,32.6,0,0,1,2.58,3.82,32,32,0,0,1,2,4.14,19.77,19.77,0,0,1,1.28,4.57,19.77,19.77,0,0,1-3.32-3.39,32,32,0,0,1-2.58-3.82,32.53,32.53,0,0,1-2-4.14A20,20,0,0,1,2740.19,1474.26Z"/><path class="cls-32" d="M2758.69,1471.34a20.78,20.78,0,0,1,1.18,4.69,33.83,33.83,0,0,1,.32,4.69,33.31,33.31,0,0,1-.32,4.69,20.51,20.51,0,0,1-1.18,4.69,20.53,20.53,0,0,1-1.18-4.69,33.23,33.23,0,0,1-.32-4.69,33.91,33.91,0,0,1,.32-4.69A20.78,20.78,0,0,1,2758.69,1471.34Z"/><path class="cls-32" d="M2770.69,1471.34a20.78,20.78,0,0,1,1.18,4.69,33.91,33.91,0,0,1,.32,4.69,33.23,33.23,0,0,1-.32,4.69,20.53,20.53,0,0,1-1.18,4.69,20.51,20.51,0,0,1-1.18-4.69,33.31,33.31,0,0,1-.32-4.69,33.83,33.83,0,0,1,.32-4.69A20.78,20.78,0,0,1,2770.69,1471.34Z"/><path class="cls-32" d="M2783.59,1471.55a21.2,21.2,0,0,1-.06,4.89,34.6,34.6,0,0,1-.89,4.67,34.11,34.11,0,0,1-1.51,4.51,21,21,0,0,1-2.34,4.29,21,21,0,0,1,.06-4.89,34,34,0,0,1,.89-4.67,34.68,34.68,0,0,1,1.51-4.51A21.17,21.17,0,0,1,2783.59,1471.55Z"/><path class="cls-32" d="M1981.37,1437.49a39.45,39.45,0,0,1-2.08-6.36c-.52-2.15-.93-4.31-1.24-6.48a65.57,65.57,0,0,1-.6-6.57,38.92,38.92,0,0,1,.25-6.69,38.92,38.92,0,0,1,2.09,6.36,65.28,65.28,0,0,1,1.24,6.48c.31,2.18.51,4.37.6,6.57A39.5,39.5,0,0,1,1981.37,1437.49Z"/><path class="cls-32" d="M1986.9,1419.95a20.78,20.78,0,0,1,1.18,4.69,33.91,33.91,0,0,1,.32,4.69,33.31,33.31,0,0,1-.32,4.69,20.53,20.53,0,0,1-1.18,4.69,20.51,20.51,0,0,1-1.18-4.69,33.31,33.31,0,0,1-.32-4.69,33.83,33.83,0,0,1,.32-4.69A20.78,20.78,0,0,1,1986.9,1419.95Z"/><path class="cls-32" d="M2000.4,1414.64a30.39,30.39,0,0,1,.4,5.87,51,51,0,0,1-.45,5.76,50.11,50.11,0,0,1-1.08,5.67,30,30,0,0,1-1.94,5.56,30,30,0,0,1-.4-5.87,50.11,50.11,0,0,1,.45-5.75,51,51,0,0,1,1.09-5.67A30.39,30.39,0,0,1,2000.4,1414.64Z"/><path class="cls-32" d="M2004.08,1437.08a22.6,22.6,0,0,1,.92-5,37.16,37.16,0,0,1,1.7-4.62,36.52,36.52,0,0,1,2.29-4.36,22.31,22.31,0,0,1,3.07-4,22.34,22.34,0,0,1-.92,5,36.53,36.53,0,0,1-1.7,4.62,37.16,37.16,0,0,1-2.29,4.36A22.58,22.58,0,0,1,2004.08,1437.08Z"/><path class="cls-32" d="M2013.9,1437.9a23.7,23.7,0,0,1,2.32-4.63,39.07,39.07,0,0,1,3-4.08,38.39,38.39,0,0,1,3.47-3.67,23.39,23.39,0,0,1,4.13-3.12,23.41,23.41,0,0,1-2.32,4.63,38.39,38.39,0,0,1-3,4.08,39.07,39.07,0,0,1-3.47,3.67A23.67,23.67,0,0,1,2013.9,1437.9Z"/><path class="cls-32" d="M1974.62,1438a15,15,0,0,1-2.62-3.14,23.68,23.68,0,0,1-1.83-3.48,23.33,23.33,0,0,1-1.24-3.73,14.88,14.88,0,0,1-.45-4.07,14.86,14.86,0,0,1,2.62,3.14,23.28,23.28,0,0,1,1.83,3.48,23.68,23.68,0,0,1,1.24,3.73A15,15,0,0,1,1974.62,1438Z"/><path class="cls-32" d="M1967.25,1437.76a17.36,17.36,0,0,1-2.81-3.4,27.84,27.84,0,0,1-2-3.74,27.36,27.36,0,0,1-1.45-4,17.18,17.18,0,0,1-.66-4.36,17.17,17.17,0,0,1,2.82,3.39,27.36,27.36,0,0,1,2,3.75,27.84,27.84,0,0,1,1.44,4A17.38,17.38,0,0,1,1967.25,1437.76Z"/><path class="cls-32" d="M1957.84,1437.76a23.69,23.69,0,0,1-3.66-3.66,39.1,39.1,0,0,1-2.94-4.11,38.39,38.39,0,0,1-2.39-4.45,23.42,23.42,0,0,1-1.66-4.91,23.42,23.42,0,0,1,3.66,3.66,38.4,38.4,0,0,1,2.93,4.12,39.09,39.09,0,0,1,2.38,4.46A23.69,23.69,0,0,1,1957.84,1437.76Z"/><path class="cls-32" d="M1952.11,1437.49a19,19,0,0,1-3.84-2.55,30.67,30.67,0,0,1-3.21-3.12,30.13,30.13,0,0,1-2.73-3.55,18.75,18.75,0,0,1-2.09-4.12,18.73,18.73,0,0,1,3.85,2.55,30.13,30.13,0,0,1,3.21,3.12,30.62,30.62,0,0,1,2.72,3.55A19,19,0,0,1,1952.11,1437.49Z"/><path class="cls-32" d="M1949.25,1440.21a36.3,36.3,0,0,1-6.16-1.81,61,61,0,0,1-5.77-2.57,59.94,59.94,0,0,1-5.48-3.14,35.84,35.84,0,0,1-5.09-3.91,35.82,35.82,0,0,1,6.16,1.8,60,60,0,0,1,5.77,2.57,61.11,61.11,0,0,1,5.48,3.15A36.31,36.31,0,0,1,1949.25,1440.21Z"/><path class="cls-32" d="M3168.76,1509a57.39,57.39,0,0,1,.63-8.07c.38-2.65.87-5.28,1.46-7.88s1.28-5.18,2.09-7.74a56.6,56.6,0,0,1,2.92-7.55,56.46,56.46,0,0,1-.62,8.07q-.56,4-1.46,7.88c-.59,2.6-1.28,5.18-2.09,7.74A57.25,57.25,0,0,1,3168.76,1509Z"/><path class="cls-32" d="M3180.86,1508.39a58.36,58.36,0,0,1,.63-8.15c.38-2.68.87-5.33,1.46-8s1.28-5.24,2.09-7.82a57.63,57.63,0,0,1,2.92-7.63,57.7,57.7,0,0,1-.62,8.15q-.57,4-1.46,8t-2.09,7.82A58.43,58.43,0,0,1,3180.86,1508.39Z"/><path class="cls-32" d="M3195.05,1509.67a84.49,84.49,0,0,1-1.17-10c-.24-3.32-.33-6.64-.33-10s.09-6.64.33-10a83.48,83.48,0,0,1,1.17-10,83.49,83.49,0,0,1,1.17,10c.24,3.32.33,6.64.33,10s-.09,6.64-.33,10A84.28,84.28,0,0,1,3195.05,1509.67Z"/><path class="cls-32" d="M3203.81,1510.3a51.47,51.47,0,0,1-1.28-7.55c-.25-2.52-.39-5-.43-7.57s0-5,.22-7.57a50.77,50.77,0,0,1,1.07-7.59,50.77,50.77,0,0,1,1.28,7.55q.38,3.78.42,7.57c0,2.52,0,5-.22,7.58A51.47,51.47,0,0,1,3203.81,1510.3Z"/><path class="cls-32" d="M3210.49,1507.44a52.94,52.94,0,0,1-.44-7.76c0-2.57.17-5.13.41-7.68s.59-5.09,1-7.62a52.22,52.22,0,0,1,1.9-7.54,52.22,52.22,0,0,1,.44,7.76q0,3.86-.41,7.68c-.25,2.55-.59,5.09-1.05,7.62A52.87,52.87,0,0,1,3210.49,1507.44Z"/><path class="cls-32" d="M3214.25,1508.07a64.73,64.73,0,0,1,2.7-8.17q1.58-4,3.46-7.79t4-7.51a63.84,63.84,0,0,1,4.81-7.13,63.69,63.69,0,0,1-2.7,8.17q-1.58,4-3.47,7.79t-4,7.51A64.65,64.65,0,0,1,3214.25,1508.07Z"/><path class="cls-32" d="M3220.09,1506.48a61.38,61.38,0,0,1,4.19-7.26q2.3-3.47,4.86-6.73t5.36-6.34a60.59,60.59,0,0,1,6-5.81,60.59,60.59,0,0,1-4.18,7.26q-2.3,3.47-4.86,6.73t-5.37,6.33A61.38,61.38,0,0,1,3220.09,1506.48Z"/><path class="cls-32" d="M3224.68,1507.12a46.21,46.21,0,0,1,5.55-4.68q2.91-2.12,6-3.94t6.32-3.39a45.63,45.63,0,0,1,6.76-2.65,45.66,45.66,0,0,1-5.55,4.68q-2.91,2.12-6,3.94t-6.32,3.39A46.25,46.25,0,0,1,3224.68,1507.12Z"/><path class="cls-32" d="M3137.88,1508.71a41.54,41.54,0,0,1-4.36-5.32c-1.3-1.86-2.51-3.77-3.62-5.74s-2.14-4-3.06-6.05a41,41,0,0,1-2.31-6.48,41,41,0,0,1,4.36,5.32q2,2.79,3.62,5.74t3.06,6.06A41.58,41.58,0,0,1,3137.88,1508.71Z"/><path class="cls-32" d="M3132,1510.3a57.79,57.79,0,0,1-5.84-5.66q-2.71-3-5.16-6.18t-4.65-6.57a57.12,57.12,0,0,1-4-7.09,57,57,0,0,1,5.84,5.66q2.71,3,5.16,6.18t4.65,6.57A57.79,57.79,0,0,1,3132,1510.3Z"/><path class="cls-32" d="M3124.94,1510.3a32.13,32.13,0,0,1-5.64-2.2,54.09,54.09,0,0,1-5.18-2.91,53.1,53.1,0,0,1-4.84-3.46,31.74,31.74,0,0,1-4.37-4.18,31.72,31.72,0,0,1,5.64,2.19,53.11,53.11,0,0,1,5.18,2.92,54.1,54.1,0,0,1,4.83,3.46A32.12,32.12,0,0,1,3124.94,1510.3Z"/><path class="cls-32" d="M2364.44,1531.36a41.58,41.58,0,0,1-4.36-5.32q-2-2.79-3.62-5.74t-3.06-6.05a41,41,0,0,1-2.31-6.48,41.05,41.05,0,0,1,4.37,5.32q2,2.79,3.62,5.74t3.06,6.06A41.58,41.58,0,0,1,2364.44,1531.36Z"/><path class="cls-32" d="M2358.6,1533a57.79,57.79,0,0,1-5.84-5.66q-2.71-3-5.16-6.18t-4.65-6.57a57,57,0,0,1-4-7.09,57,57,0,0,1,5.84,5.66q2.71,3,5.16,6.18t4.65,6.57A57.86,57.86,0,0,1,2358.6,1533Z"/><path class="cls-32" d="M2351.5,1533a32.1,32.1,0,0,1-5.64-2.2,54.1,54.1,0,0,1-5.18-2.91,53.16,53.16,0,0,1-4.84-3.46,31.71,31.71,0,0,1-4.37-4.18,31.74,31.74,0,0,1,5.64,2.19,53.16,53.16,0,0,1,5.18,2.92,54.1,54.1,0,0,1,4.83,3.46A32.12,32.12,0,0,1,2351.5,1533Z"/><path class="cls-32" d="M1631.94,1506.44a19.2,19.2,0,0,1-1.69-4.33,31,31,0,0,1-.84-4.43,30.56,30.56,0,0,1-.2-4.5,19,19,0,0,1,.65-4.6,19,19,0,0,1,1.69,4.33,30.55,30.55,0,0,1,.84,4.43,31,31,0,0,1,.2,4.5A19.2,19.2,0,0,1,1631.94,1506.44Z"/><path class="cls-32" d="M1641.54,1507.08a34.28,34.28,0,0,1-1.49-6.08,57.86,57.86,0,0,1-.64-6.12,57,57,0,0,1,0-6.15,33.87,33.87,0,0,1,.87-6.2,33.87,33.87,0,0,1,1.49,6.08,57,57,0,0,1,.63,6.12,58,58,0,0,1,0,6.15A34.28,34.28,0,0,1,1641.54,1507.08Z"/><path class="cls-32" d="M1648.07,1507.71a43.61,43.61,0,0,1,0-7c.17-2.32.45-4.62.83-6.91s.86-4.55,1.46-6.8a43.07,43.07,0,0,1,2.31-6.66,43.07,43.07,0,0,1,0,7q-.25,3.48-.83,6.91c-.38,2.28-.87,4.55-1.47,6.8A43.61,43.61,0,0,1,1648.07,1507.71Z"/><path class="cls-32" d="M1626.94,1506.76a14.75,14.75,0,0,1-2.55-3.14,23.18,23.18,0,0,1-1.76-3.46,22.79,22.79,0,0,1-1.16-3.71,14.58,14.58,0,0,1-.37-4,14.58,14.58,0,0,1,2.55,3.14,22.79,22.79,0,0,1,1.76,3.47,23.13,23.13,0,0,1,1.16,3.71A14.74,14.74,0,0,1,1626.94,1506.76Z"/><path class="cls-32" d="M1656.68,1506.44a59.47,59.47,0,0,1,1-8.19c.48-2.69,1.08-5.34,1.77-8s1.49-5.23,2.4-7.81a58.65,58.65,0,0,1,3.23-7.59,58.64,58.64,0,0,1-.95,8.19q-.72,4-1.78,8t-2.4,7.81A59.4,59.4,0,0,1,1656.68,1506.44Z"/><path class="cls-32" d="M1665.76,1506.76a28,28,0,0,1-.11-5.64,46.78,46.78,0,0,1,.73-5.48,45.94,45.94,0,0,1,1.36-5.36,27.67,27.67,0,0,1,2.2-5.2,27.67,27.67,0,0,1,.12,5.64,46,46,0,0,1-.73,5.48,46.79,46.79,0,0,1-1.36,5.36A28,28,0,0,1,1665.76,1506.76Z"/><path class="cls-32" d="M1680.79,1506.44a46,46,0,0,1,1.18-7.15c.56-2.33,1.22-4.62,2-6.88s1.63-4.48,2.6-6.67a45.49,45.49,0,0,1,3.41-6.4,45.49,45.49,0,0,1-1.18,7.15q-.84,3.49-2,6.88c-.77,2.26-1.63,4.48-2.6,6.67A46.09,46.09,0,0,1,1680.79,1506.44Z"/><path class="cls-32" d="M1697,1508.35a66,66,0,0,1,1.92-8.48q1.2-4.15,2.72-8.18t3.33-8a65.26,65.26,0,0,1,4.13-7.66,65.26,65.26,0,0,1-1.92,8.48q-1.2,4.15-2.73,8.18t-3.33,8A66.12,66.12,0,0,1,1697,1508.35Z"/><path class="cls-32" d="M1708.55,1506.51a66.3,66.3,0,0,1,1.82-8.69c.75-2.85,1.64-5.64,2.61-8.41s2-5.5,3.23-8.19a65.62,65.62,0,0,1,4-7.91,65.47,65.47,0,0,1-1.82,8.69c-.75,2.85-1.64,5.64-2.61,8.41s-2,5.5-3.24,8.19A66.3,66.3,0,0,1,1708.55,1506.51Z"/><path class="cls-32" d="M1719.67,1504.66a42.61,42.61,0,0,1,.86-6.91c.45-2.25,1-4.47,1.67-6.67s1.42-4.35,2.29-6.48a42.07,42.07,0,0,1,3.11-6.23,42,42,0,0,1-.85,6.91q-.68,3.38-1.68,6.66c-.66,2.19-1.42,4.35-2.29,6.48A42.61,42.61,0,0,1,1719.67,1504.66Z"/><path class="cls-32" d="M1734.22,1502.82a66.48,66.48,0,0,1-1.18-8.65c-.22-2.88-.32-5.76-.32-8.65s.1-5.76.32-8.65a65.67,65.67,0,0,1,1.18-8.65,65.59,65.59,0,0,1,1.18,8.65q.33,4.32.32,8.65c0,2.88-.1,5.76-.32,8.65A66.48,66.48,0,0,1,1734.22,1502.82Z"/><path class="cls-32" d="M1742.57,1505.58a52,52,0,0,1-1.38-7.58c-.29-2.53-.46-5.06-.53-7.6s0-5.08.11-7.62a51.29,51.29,0,0,1,1-7.64,51.23,51.23,0,0,1,1.39,7.58q.43,3.8.53,7.6c.07,2.54,0,5.08-.12,7.62A52,52,0,0,1,1742.57,1505.58Z"/><path class="cls-32" d="M1750.4,1506.51a73.49,73.49,0,0,1-.12-9.35c.11-3.1.37-6.19.71-9.26s.79-6.14,1.37-9.19a72.79,72.79,0,0,1,2.21-9.09,72.8,72.8,0,0,1,.12,9.36c-.11,3.1-.37,6.19-.72,9.26s-.79,6.14-1.37,9.19A73.67,73.67,0,0,1,1750.4,1506.51Z"/><path class="cls-32" d="M1756.56,1507.43a78.14,78.14,0,0,1,.95-9.59c.46-3.17,1.07-6.3,1.76-9.41s1.48-6.21,2.41-9.27a77.27,77.27,0,0,1,3.23-9.08,77.09,77.09,0,0,1-.94,9.59c-.46,3.16-1.07,6.3-1.77,9.41s-1.48,6.21-2.41,9.27A78,78,0,0,1,1756.56,1507.43Z"/><path class="cls-32" d="M1771.85,1504.66a71,71,0,0,1-1-9.14c-.17-3-.19-6.08-.12-9.12s.23-6.07.54-9.1a70.11,70.11,0,0,1,1.38-9.08,70.11,70.11,0,0,1,1,9.14c.17,3,.19,6.08.12,9.12s-.23,6.07-.54,9.1A70.87,70.87,0,0,1,1771.85,1504.66Z"/><path class="cls-32" d="M1779.73,1504.2a40.15,40.15,0,0,1-.12-6.76c.13-2.23.38-4.43.72-6.62s.79-4.37,1.36-6.52a39.6,39.6,0,0,1,2.21-6.39,39.6,39.6,0,0,1,.12,6.76q-.2,3.34-.73,6.62c-.35,2.19-.8,4.36-1.36,6.52A40.15,40.15,0,0,1,1779.73,1504.2Z"/><path class="cls-32" d="M2368.47,1534.62a46.09,46.09,0,0,1,1.18-7.15c.56-2.33,1.23-4.62,2-6.88s1.63-4.48,2.6-6.67a45.49,45.49,0,0,1,3.41-6.4,45.49,45.49,0,0,1-1.18,7.15q-.83,3.49-2,6.88c-.77,2.26-1.63,4.48-2.6,6.67A46.09,46.09,0,0,1,2368.47,1534.62Z"/><path class="cls-32" d="M2384.65,1536.53a66,66,0,0,1,1.93-8.48q1.2-4.15,2.72-8.18t3.33-8a65.26,65.26,0,0,1,4.13-7.66,65.18,65.18,0,0,1-1.92,8.48q-1.2,4.15-2.73,8.18t-3.33,8A66.13,66.13,0,0,1,2384.65,1536.53Z"/><path class="cls-32" d="M2396.23,1534.69a66.3,66.3,0,0,1,1.82-8.69c.75-2.85,1.64-5.64,2.61-8.41s2-5.5,3.23-8.19a65.55,65.55,0,0,1,4-7.91,65.63,65.63,0,0,1-1.82,8.69c-.75,2.85-1.64,5.64-2.61,8.41s-2,5.5-3.24,8.19A66.3,66.3,0,0,1,2396.23,1534.69Z"/><path class="cls-32" d="M2407.35,1532.84a42.61,42.61,0,0,1,.86-6.91c.45-2.25,1-4.47,1.67-6.67s1.42-4.35,2.29-6.48a42,42,0,0,1,3.11-6.23,42.07,42.07,0,0,1-.85,6.91q-.68,3.38-1.68,6.66c-.66,2.19-1.42,4.35-2.29,6.48A42.61,42.61,0,0,1,2407.35,1532.84Z"/><path class="cls-32" d="M2421.91,1531a66.49,66.49,0,0,1-1.18-8.65c-.22-2.88-.32-5.76-.32-8.65s.1-5.76.32-8.65a65.59,65.59,0,0,1,1.18-8.65,65.67,65.67,0,0,1,1.18,8.65q.33,4.32.32,8.65c0,2.88-.1,5.76-.32,8.65A66.57,66.57,0,0,1,2421.91,1531Z"/><path class="cls-32" d="M2430.25,1533.77a52,52,0,0,1-1.38-7.58c-.29-2.53-.46-5.06-.53-7.6s0-5.08.11-7.62a51.29,51.29,0,0,1,1-7.64,51.29,51.29,0,0,1,1.39,7.58q.43,3.8.53,7.6c.07,2.54,0,5.08-.12,7.62A51.93,51.93,0,0,1,2430.25,1533.77Z"/><path class="cls-32" d="M2438.08,1534.69a73.59,73.59,0,0,1-.12-9.35c.11-3.1.37-6.19.71-9.26s.79-6.14,1.37-9.19a72.71,72.71,0,0,1,2.21-9.09,72.8,72.8,0,0,1,.12,9.36c-.11,3.1-.37,6.19-.72,9.26s-.79,6.14-1.37,9.19A73.58,73.58,0,0,1,2438.08,1534.69Z"/><path class="cls-32" d="M2444.24,1535.61a78,78,0,0,1,.95-9.59c.46-3.17,1.07-6.3,1.76-9.41s1.48-6.21,2.41-9.27a77.19,77.19,0,0,1,3.23-9.08,77.28,77.28,0,0,1-.94,9.59c-.46,3.16-1.07,6.3-1.77,9.41s-1.48,6.21-2.41,9.27A78,78,0,0,1,2444.24,1535.61Z"/><path class="cls-32" d="M2459.53,1532.84a71,71,0,0,1-1-9.14c-.17-3-.19-6.08-.12-9.12s.23-6.07.54-9.1a70.19,70.19,0,0,1,1.38-9.08,70.2,70.2,0,0,1,1,9.14c.17,3,.19,6.08.12,9.12s-.23,6.07-.54,9.1A71,71,0,0,1,2459.53,1532.84Z"/><path class="cls-32" d="M2467.41,1532.38a40.15,40.15,0,0,1-.12-6.76c.13-2.23.38-4.43.72-6.62a66.62,66.62,0,0,1,1.36-6.52,39.61,39.61,0,0,1,2.21-6.39,39.7,39.7,0,0,1,.12,6.76q-.2,3.34-.73,6.62c-.35,2.19-.8,4.36-1.36,6.52A40.15,40.15,0,0,1,2467.41,1532.38Z"/><path class="cls-32" d="M2035.69,1436.72a27.11,27.11,0,0,1,1.23-5.41,45.31,45.31,0,0,1,2-5.05,44.44,44.44,0,0,1,2.59-4.78,26.79,26.79,0,0,1,3.36-4.42,26.76,26.76,0,0,1-1.23,5.41,44.35,44.35,0,0,1-2,5.05,45.21,45.21,0,0,1-2.59,4.78A27.11,27.11,0,0,1,2035.69,1436.72Z"/><path class="cls-32" d="M2051.86,1438.11a39.46,39.46,0,0,1,2-6.4c.81-2.05,1.73-4.05,2.74-6a65.36,65.36,0,0,1,3.31-5.71,38.92,38.92,0,0,1,4.07-5.31,38.92,38.92,0,0,1-2,6.4,65.48,65.48,0,0,1-2.74,6c-1,2-2.11,3.86-3.31,5.71A39.41,39.41,0,0,1,2051.86,1438.11Z"/><path class="cls-32" d="M2063.45,1436.77a40.54,40.54,0,0,1,1.86-6.54c.78-2.1,1.66-4.16,2.63-6.16s2-4,3.21-5.88a40.09,40.09,0,0,1,4-5.51,40.09,40.09,0,0,1-1.86,6.54q-1.16,3.16-2.63,6.16c-1,2-2,4-3.21,5.88A40.63,40.63,0,0,1,2063.45,1436.77Z"/><path class="cls-32" d="M2074.57,1435.43a24.74,24.74,0,0,1,.9-5.22,41,41,0,0,1,1.68-4.89,40.21,40.21,0,0,1,2.28-4.65,24.45,24.45,0,0,1,3.07-4.32,24.48,24.48,0,0,1-.89,5.22,40.29,40.29,0,0,1-1.69,4.89,40.9,40.9,0,0,1-2.28,4.64A24.77,24.77,0,0,1,2074.57,1435.43Z"/><path class="cls-32" d="M2089.12,1434.09a35.89,35.89,0,0,1-1.18-6.27,60.53,60.53,0,0,1-.32-6.27,59.46,59.46,0,0,1,.32-6.27,35.41,35.41,0,0,1,1.18-6.27,35.46,35.46,0,0,1,1.18,6.27,59.33,59.33,0,0,1,.32,6.27,60.53,60.53,0,0,1-.32,6.27A35.94,35.94,0,0,1,2089.12,1434.09Z"/><path class="cls-32" d="M2097.47,1436.1a28.09,28.09,0,0,1-1.38-5.48,46.87,46.87,0,0,1-.53-5.51,46,46,0,0,1,.11-5.53,27.73,27.73,0,0,1,1-5.57,27.73,27.73,0,0,1,1.39,5.48,46.14,46.14,0,0,1,.53,5.51,47,47,0,0,1-.12,5.53A28.1,28.1,0,0,1,2097.47,1436.1Z"/><path class="cls-32" d="M2105.3,1436.77a41.49,41.49,0,0,1-.12-6.87c.13-2.26.38-4.51.72-6.74s.79-4.45,1.36-6.64a41,41,0,0,1,2.21-6.51,41,41,0,0,1,.12,6.87q-.2,3.4-.73,6.74c-.35,2.23-.8,4.45-1.36,6.64A41.6,41.6,0,0,1,2105.3,1436.77Z"/><path class="cls-32" d="M2111.46,1437.44a45.31,45.31,0,0,1,1-7.12c.49-2.32,1.08-4.61,1.78-6.87s1.49-4.49,2.39-6.68a44.68,44.68,0,0,1,3.21-6.43,44.79,44.79,0,0,1-1,7.12q-.73,3.48-1.78,6.87c-.7,2.26-1.49,4.49-2.4,6.68A45.37,45.37,0,0,1,2111.46,1437.44Z"/><path class="cls-32" d="M2126.75,1435.43a39.68,39.68,0,0,1-1-6.65c-.15-2.21-.18-4.42-.12-6.62a65.83,65.83,0,0,1,.53-6.6,39.2,39.2,0,0,1,1.39-6.57,39.15,39.15,0,0,1,1,6.65,65.69,65.69,0,0,1,.11,6.62c-.07,2.2-.24,4.4-.53,6.6A39.63,39.63,0,0,1,2126.75,1435.43Z"/><path class="cls-32" d="M2134.63,1435.1a22.32,22.32,0,0,1-.1-5,36.64,36.64,0,0,1,.73-4.84,36,36,0,0,1,1.36-4.7,22.05,22.05,0,0,1,2.2-4.52,22.08,22.08,0,0,1,.11,5,36.06,36.06,0,0,1-.73,4.84,36.64,36.64,0,0,1-1.36,4.7A22.32,22.32,0,0,1,2134.63,1435.1Z"/><path class="cls-32" d="M1490.81,1564.47a39.4,39.4,0,0,1-.24-6.69c.09-2.21.29-4.4.6-6.57a65.56,65.56,0,0,1,1.24-6.48,38.92,38.92,0,0,1,2.09-6.36,39,39,0,0,1,.25,6.69,65.57,65.57,0,0,1-.6,6.57c-.31,2.18-.72,4.34-1.24,6.48A39.5,39.5,0,0,1,1490.81,1564.47Z"/><path class="cls-32" d="M1485.29,1546.92a20.75,20.75,0,0,1,1.18,4.69,34,34,0,0,1,.32,4.69,33.38,33.38,0,0,1-.32,4.69,20.51,20.51,0,0,1-1.18,4.69,20.54,20.54,0,0,1-1.18-4.69,33.31,33.31,0,0,1-.32-4.69,34,34,0,0,1,.32-4.69A20.78,20.78,0,0,1,1485.29,1546.92Z"/><path class="cls-32" d="M1471.78,1541.62a30.42,30.42,0,0,1,1.93,5.56,51,51,0,0,1,1.09,5.67,50.11,50.11,0,0,1,.45,5.75,30,30,0,0,1-.4,5.87,30,30,0,0,1-1.94-5.56,50.11,50.11,0,0,1-1.08-5.67,51,51,0,0,1-.45-5.76A30.39,30.39,0,0,1,1471.78,1541.62Z"/><path class="cls-32" d="M1468.1,1564.06a22.55,22.55,0,0,1-3.07-4,37.09,37.09,0,0,1-2.29-4.36,36.45,36.45,0,0,1-1.7-4.62,22.31,22.31,0,0,1-.92-5,22.31,22.31,0,0,1,3.07,4,36.45,36.45,0,0,1,2.29,4.36,37.08,37.08,0,0,1,1.7,4.62A22.57,22.57,0,0,1,1468.1,1564.06Z"/><path class="cls-32" d="M1458.28,1564.88a23.67,23.67,0,0,1-4.13-3.12,39,39,0,0,1-3.47-3.67,38.39,38.39,0,0,1-3-4.08,23.38,23.38,0,0,1-2.32-4.63,23.41,23.41,0,0,1,4.13,3.12,38.45,38.45,0,0,1,3.47,3.67,39.07,39.07,0,0,1,3,4.08A23.67,23.67,0,0,1,1458.28,1564.88Z"/><path class="cls-32" d="M1497.56,1565a15,15,0,0,1,.45-4.06,23.73,23.73,0,0,1,1.24-3.73,23.28,23.28,0,0,1,1.83-3.48,14.89,14.89,0,0,1,2.62-3.14,14.88,14.88,0,0,1-.45,4.07,23.33,23.33,0,0,1-1.24,3.73,23.73,23.73,0,0,1-1.83,3.48A15.07,15.07,0,0,1,1497.56,1565Z"/><path class="cls-32" d="M1504.93,1564.74a17.36,17.36,0,0,1,.67-4.36,27.84,27.84,0,0,1,1.44-4,27.36,27.36,0,0,1,2-3.75,17.16,17.16,0,0,1,2.82-3.39,17.16,17.16,0,0,1-.66,4.36,27.36,27.36,0,0,1-1.45,4,27.84,27.84,0,0,1-2,3.74A17.38,17.38,0,0,1,1504.93,1564.74Z"/><path class="cls-32" d="M1514.34,1564.74a23.72,23.72,0,0,1,1.66-4.9,39.17,39.17,0,0,1,2.38-4.46,38.47,38.47,0,0,1,2.93-4.12,23.42,23.42,0,0,1,3.66-3.66,23.42,23.42,0,0,1-1.66,4.91,38.39,38.39,0,0,1-2.39,4.45,39.1,39.1,0,0,1-2.94,4.11A23.69,23.69,0,0,1,1514.34,1564.74Z"/><path class="cls-32" d="M1520.07,1564.47a19,19,0,0,1,2.09-4.11,30.67,30.67,0,0,1,2.72-3.55,30.13,30.13,0,0,1,3.21-3.12,18.73,18.73,0,0,1,3.85-2.55,18.75,18.75,0,0,1-2.09,4.12,30.13,30.13,0,0,1-2.73,3.55,30.67,30.67,0,0,1-3.21,3.12A19,19,0,0,1,1520.07,1564.47Z"/><path class="cls-32" d="M1522.93,1567.19a36.31,36.31,0,0,1,5.09-3.9,61.12,61.12,0,0,1,5.48-3.15,60,60,0,0,1,5.77-2.57,35.81,35.81,0,0,1,6.16-1.8,35.83,35.83,0,0,1-5.09,3.91,60.07,60.07,0,0,1-5.48,3.14,61.06,61.06,0,0,1-5.77,2.57A36.29,36.29,0,0,1,1522.93,1567.19Z"/><path class="cls-32" d="M1436.49,1563.7a27.14,27.14,0,0,1-3.36-4.42,45.21,45.21,0,0,1-2.59-4.78,44.44,44.44,0,0,1-2-5.05,26.82,26.82,0,0,1-1.23-5.41,26.79,26.79,0,0,1,3.36,4.42,44.35,44.35,0,0,1,2.59,4.78,45.12,45.12,0,0,1,2,5.05A27.11,27.11,0,0,1,1436.49,1563.7Z"/><path class="cls-32" d="M1420.32,1565.09a39.45,39.45,0,0,1-4.07-5.32q-1.81-2.78-3.31-5.71a65.49,65.49,0,0,1-2.74-6,38.92,38.92,0,0,1-2-6.4,38.88,38.88,0,0,1,4.07,5.31,65.36,65.36,0,0,1,3.31,5.71c1,2,1.92,4,2.74,6A39.41,39.41,0,0,1,1420.32,1565.09Z"/><path class="cls-32" d="M1408.73,1563.75a40.59,40.59,0,0,1-4-5.51q-1.76-2.87-3.21-5.88t-2.63-6.16a40,40,0,0,1-1.86-6.54,40,40,0,0,1,4,5.51q1.76,2.87,3.21,5.88c1,2,1.85,4.06,2.63,6.16A40.64,40.64,0,0,1,1408.73,1563.75Z"/><path class="cls-32" d="M1397.61,1562.41a24.74,24.74,0,0,1-3.07-4.32,41.07,41.07,0,0,1-2.28-4.64,40.21,40.21,0,0,1-1.69-4.89,24.45,24.45,0,0,1-.89-5.22,24.46,24.46,0,0,1,3.07,4.32,40.29,40.29,0,0,1,2.28,4.65,41.07,41.07,0,0,1,1.68,4.89A24.8,24.8,0,0,1,1397.61,1562.41Z"/><path class="cls-32" d="M1383.06,1561.07a35.89,35.89,0,0,1-1.18-6.27,60.26,60.26,0,0,1-.32-6.27,59.33,59.33,0,0,1,.32-6.27,35.46,35.46,0,0,1,1.18-6.27,35.41,35.41,0,0,1,1.18,6.27,59.33,59.33,0,0,1,.32,6.27,60.4,60.4,0,0,1-.32,6.27A35.89,35.89,0,0,1,1383.06,1561.07Z"/><path class="cls-32" d="M1374.71,1563.08a28.06,28.06,0,0,1-1-5.57,46.87,46.87,0,0,1-.12-5.53,46,46,0,0,1,.53-5.51,27.73,27.73,0,0,1,1.39-5.48,27.76,27.76,0,0,1,1,5.57,46,46,0,0,1,.11,5.53,47,47,0,0,1-.53,5.51A28.06,28.06,0,0,1,1374.71,1563.08Z"/><path class="cls-32" d="M1366.88,1563.75a41.49,41.49,0,0,1-2.2-6.51c-.57-2.2-1-4.41-1.36-6.64s-.6-4.48-.73-6.74a40.93,40.93,0,0,1,.12-6.87,41,41,0,0,1,2.21,6.51q.85,3.3,1.36,6.64c.35,2.23.59,4.48.72,6.74A41.49,41.49,0,0,1,1366.88,1563.75Z"/><path class="cls-32" d="M1360.72,1564.42a45.37,45.37,0,0,1-3.21-6.43c-.91-2.19-1.7-4.42-2.4-6.68s-1.29-4.55-1.78-6.87a44.79,44.79,0,0,1-1-7.12,44.74,44.74,0,0,1,3.21,6.43q1.36,3.29,2.39,6.68c.69,2.26,1.29,4.55,1.78,6.87A45.31,45.31,0,0,1,1360.72,1564.42Z"/><path class="cls-32" d="M1345.43,1562.41a39.68,39.68,0,0,1-1.38-6.57c-.29-2.2-.46-4.4-.53-6.6a66,66,0,0,1,.11-6.62,39.15,39.15,0,0,1,1-6.65,39.15,39.15,0,0,1,1.39,6.57,65.83,65.83,0,0,1,.53,6.6c.07,2.2,0,4.41-.12,6.62A39.63,39.63,0,0,1,1345.43,1562.41Z"/><path class="cls-32" d="M1337.55,1562.07a22.35,22.35,0,0,1-2.19-4.52,36.72,36.72,0,0,1-1.36-4.7,36,36,0,0,1-.73-4.84,22.05,22.05,0,0,1,.11-5,22,22,0,0,1,2.2,4.52,36,36,0,0,1,1.36,4.7,36.72,36.72,0,0,1,.73,4.84A22.35,22.35,0,0,1,1337.55,1562.07Z"/><path class="cls-32" d="M1794.75,1505.12a85.91,85.91,0,0,1-1.79-10c-.45-3.33-.74-6.67-1-10s-.33-6.69-.3-10.05a85,85,0,0,1,.54-10.1,85,85,0,0,1,1.79,10c.45,3.33.74,6.67,1,10s.32,6.69.29,10.05A85.91,85.91,0,0,1,1794.75,1505.12Z"/><path class="cls-32" d="M1802.22,1504.66a46.22,46.22,0,0,1-1.59-7.08c-.36-2.37-.6-4.75-.74-7.13s-.18-4.77-.1-7.17a45.54,45.54,0,0,1,.76-7.22,45.54,45.54,0,0,1,1.59,7.08q.54,3.55.74,7.13c.14,2.38.17,4.77.09,7.17A46.16,46.16,0,0,1,1802.22,1504.66Z"/><path class="cls-32" d="M1811.61,1501a37,37,0,0,1-.54-6.46,62.27,62.27,0,0,1,.3-6.37,61.17,61.17,0,0,1,.94-6.31,36.52,36.52,0,0,1,1.8-6.23,36.52,36.52,0,0,1,.55,6.46,61.3,61.3,0,0,1-.31,6.37,62.27,62.27,0,0,1-.95,6.31A37,37,0,0,1,1811.61,1501Z"/><path class="cls-32" d="M1817.87,1501.43a57.16,57.16,0,0,1,.41-8.07c.31-2.66.73-5.29,1.25-7.9s1.14-5.21,1.88-7.78a56.3,56.3,0,0,1,2.72-7.61,56.37,56.37,0,0,1-.41,8.07q-.46,4-1.25,7.9c-.52,2.61-1.15,5.21-1.88,7.78A57.09,57.09,0,0,1,1817.87,1501.43Z"/><path class="cls-32" d="M1826.64,1500a49.44,49.44,0,0,1,.85-7.46c.45-2.44,1-4.85,1.67-7.24s1.42-4.74,2.29-7.06a48.81,48.81,0,0,1,3.12-6.83,48.81,48.81,0,0,1-.85,7.46q-.67,3.66-1.67,7.23c-.66,2.38-1.42,4.74-2.29,7.06A49.44,49.44,0,0,1,1826.64,1500Z"/><path class="cls-32" d="M1836.24,1506.46a38.72,38.72,0,0,1,1.19-6.52,65.28,65.28,0,0,1,2-6.22,64.19,64.19,0,0,1,2.59-6,38.22,38.22,0,0,1,3.4-5.7,38.22,38.22,0,0,1-1.19,6.53,64.33,64.33,0,0,1-2,6.22c-.77,2-1.63,4-2.6,6A38.68,38.68,0,0,1,1836.24,1506.46Z"/><path class="cls-32" d="M1568.66,1437.82a73.59,73.59,0,0,1-.12-9.35c.11-3.1.37-6.19.71-9.26s.79-6.14,1.37-9.19a72.71,72.71,0,0,1,2.21-9.09,72.8,72.8,0,0,1,.12,9.36c-.11,3.1-.37,6.19-.72,9.26s-.79,6.14-1.37,9.19A73.58,73.58,0,0,1,1568.66,1437.82Z"/><path class="cls-32" d="M1574.82,1438.74a78,78,0,0,1,.95-9.59c.46-3.17,1.07-6.3,1.76-9.41s1.48-6.21,2.41-9.27a77.19,77.19,0,0,1,3.23-9.08,77.19,77.19,0,0,1-.94,9.59c-.46,3.16-1.07,6.3-1.77,9.41s-1.48,6.21-2.41,9.27A78,78,0,0,1,1574.82,1438.74Z"/><path class="cls-32" d="M1590.11,1436a71,71,0,0,1-1-9.14c-.17-3-.19-6.08-.12-9.12s.23-6.07.54-9.1a70.11,70.11,0,0,1,1.38-9.08,70.11,70.11,0,0,1,1,9.14c.17,3,.19,6.08.12,9.12s-.23,6.07-.54,9.1A71,71,0,0,1,1590.11,1436Z"/><path class="cls-32" d="M1598,1435.52a40.15,40.15,0,0,1-.12-6.76c.13-2.23.38-4.43.72-6.62s.79-4.37,1.36-6.52a39.61,39.61,0,0,1,2.21-6.39,39.65,39.65,0,0,1,.12,6.76q-.2,3.34-.73,6.62c-.35,2.19-.8,4.36-1.36,6.52A40.15,40.15,0,0,1,1598,1435.52Z"/><path class="cls-32" d="M1613,1436.44a86,86,0,0,1-1.79-10c-.45-3.33-.74-6.67-1-10s-.33-6.69-.3-10.05a85,85,0,0,1,.54-10.1,85,85,0,0,1,1.79,10c.45,3.33.74,6.67,1,10s.32,6.69.29,10.05A85.91,85.91,0,0,1,1613,1436.44Z"/><path class="cls-32" d="M1620.48,1436a46.16,46.16,0,0,1-1.59-7.08c-.36-2.37-.6-4.75-.74-7.13s-.18-4.77-.1-7.17a45.6,45.6,0,0,1,.76-7.22,45.6,45.6,0,0,1,1.59,7.08q.54,3.55.74,7.13c.14,2.38.17,4.77.09,7.17A46.22,46.22,0,0,1,1620.48,1436Z"/><path class="cls-32" d="M1629.87,1432.29a36.92,36.92,0,0,1-.54-6.46,62.41,62.41,0,0,1,.3-6.37,61.3,61.3,0,0,1,.94-6.31,36.48,36.48,0,0,1,1.8-6.23,36.52,36.52,0,0,1,.55,6.46,61.3,61.3,0,0,1-.31,6.37,62.27,62.27,0,0,1-.95,6.31A37,37,0,0,1,1629.87,1432.29Z"/><path class="cls-32" d="M1636.13,1432.75a57.16,57.16,0,0,1,.41-8.07c.31-2.66.73-5.29,1.25-7.9s1.14-5.21,1.88-7.78a56.37,56.37,0,0,1,2.72-7.61,56.37,56.37,0,0,1-.41,8.07q-.46,4-1.25,7.9c-.52,2.61-1.15,5.21-1.88,7.78A57.16,57.16,0,0,1,1636.13,1432.75Z"/><path class="cls-32" d="M1644.9,1431.36a49.44,49.44,0,0,1,.85-7.46c.45-2.44,1-4.85,1.67-7.24s1.42-4.74,2.29-7.06a48.81,48.81,0,0,1,3.12-6.83,48.81,48.81,0,0,1-.85,7.46q-.67,3.66-1.67,7.23c-.66,2.38-1.42,4.74-2.29,7.06A49.44,49.44,0,0,1,1644.9,1431.36Z"/><path class="cls-32" d="M1654.5,1437.77a38.72,38.72,0,0,1,1.19-6.52c.56-2.11,1.23-4.19,2-6.22a64.33,64.33,0,0,1,2.6-6,38.18,38.18,0,0,1,3.4-5.7,38.17,38.17,0,0,1-1.19,6.53,64.06,64.06,0,0,1-2,6.22,65.28,65.28,0,0,1-2.6,6A38.72,38.72,0,0,1,1654.5,1437.77Z"/><path class="cls-33" d="M2855.17,1534.7h13.43q-1.54-2.26-3.36-4.85c-2.38-3.36-5.15-7.08-8.22-11.07-6.16-8-13.67-16.92-22.09-26.12s-17.75-18.64-27.4-27.74-19.63-17.85-29.33-25.68-19.06-14.82-27.38-20.5c-4.16-2.84-8-5.38-11.53-7.56s-6.6-4-9.2-5.5c-5.19-3-8.35-4.44-8.35-4.44s1.66,3.07,4.92,8.07c1.62,2.51,3.65,5.5,6,8.86s5.15,7.08,8.23,11.06c6.16,8,13.67,16.92,22.08,26.12s17.74,18.64,27.38,27.76,19.62,17.86,29.31,25.71,19.06,14.83,27.38,20.5Q2851.35,1532.24,2855.17,1534.7Z"/><path class="cls-33" d="M2839.11,1471.59c2.91,7.17,5.81,14.07,8.71,20.57s5.71,12.61,8.41,18.23,5.29,10.72,7.65,15.22c1.78,3.39,3.43,6.43,4.92,9.09h6c-.46-3.46-1.07-7.54-1.83-12.15-.83-5-1.87-10.64-3.09-16.75s-2.67-12.68-4.31-19.6-3.47-14.18-5.48-21.65c-4-14.95-8.84-30.71-14.07-46.34s-10.93-31.1-16.74-45.44c-2.9-7.17-5.81-14.07-8.7-20.57-1.47-3.24-2.85-6.41-4.27-9.45s-2.78-6-4.14-8.78c-2.72-5.61-5.29-10.72-7.66-15.22s-4.51-8.4-6.34-11.59c-3.63-6.38-6-9.94-6-9.94s.27,4.26,1.23,11.54c.47,3.65,1.12,8,1.94,13.06s1.86,10.65,3.08,16.76c.6,3.06,1.31,6.22,2,9.5s1.52,6.64,2.3,10.11c1.62,6.93,3.47,14.18,5.49,21.65,4,14.94,8.85,30.71,14.1,46.33S2833.29,1457.25,2839.11,1471.59Z"/><path class="cls-33" d="M2853.89,1430.22c1.23,14.83,2.91,29.62,5,43.44s4.5,26.69,7,37.68c1.25,5.5,2.48,10.52,3.66,15,.82,3.09,1.61,5.89,2.34,8.39h6.29c.33-2.71.67-5.79,1-9.19.43-4.58.82-9.75,1.15-15.37.65-11.25.93-24.34.7-38.31s-1-28.84-2.22-43.67-2.93-29.62-5-43.44-4.51-26.69-7-37.68c-1.24-5.5-2.47-10.53-3.65-15s-2.29-8.32-3.27-11.51c-1.94-6.37-3.33-10-3.33-10s-.78,3.8-1.64,10.4c-.44,3.3-.9,7.31-1.33,11.89s-.82,9.75-1.14,15.37c-.65,11.25-.93,24.34-.7,38.31S2852.69,1415.39,2853.89,1430.22Z"/><path class="cls-33" d="M2881.26,1534.7c1.4-3.64,3-8,4.74-13,1.85-5.28,3.83-11.26,5.9-17.79,1-3.27,2-6.69,3.13-10.22s2.08-7.2,3.17-11c2.14-7.54,4.25-15.51,6.32-23.78,4.15-16.54,8-34.29,11.49-52.12s6.42-35.76,8.72-52.66c1.15-8.45,2.17-16.64,3-24.43s1.51-15.17,2-22,.91-13.12,1.17-18.71.4-10.47.45-14.51c.13-8.07-.08-12.73-.08-12.73s-1.94,4.25-4.82,11.79c-1.46,3.77-3.14,8.35-5,13.63s-3.82,11.26-5.89,17.8-4.17,13.65-6.3,21.19-4.25,15.51-6.33,23.78c-4.16,16.54-8.05,34.29-11.52,52.12s-6.45,35.75-8.75,52.65c-1.16,8.45-2.17,16.64-3,24.43-.39,3.9-.81,7.68-1.14,11.36s-.65,7.23-.9,10.65c-.52,6.84-.9,13.12-1.16,18.71s-.4,10.47-.44,14.51c0,.1,0,.2,0,.3Z"/><path class="cls-33" d="M2975.41,1345.62c-2.09,2.54-4.55,5.66-7.3,9.28s-5.75,7.75-8.94,12.3c-6.38,9.1-13.39,19.94-20.42,31.79s-14.08,24.73-20.71,37.81-12.83,26.39-18.2,39.08-10,24.75-13.54,35.28c-1.78,5.26-3.34,10.13-4.64,14.48-1,3.35-1.85,6.38-2.57,9.05h7.51c1.14-1.46,2.35-3,3.63-4.71,2.74-3.62,5.74-7.75,8.93-12.31,6.37-9.1,13.39-19.94,20.43-31.79s14.09-24.72,20.74-37.8,12.85-26.38,18.22-39.07,10-24.75,13.54-35.28c1.78-5.26,3.33-10.13,4.63-14.48s2.35-8.19,3.16-11.37c1.64-6.36,2.31-10.13,2.31-10.13S2979.57,1340.54,2975.41,1345.62Z"/><path class="cls-33" d="M3006.28,1384.85c-2.44,1.83-5.34,4.12-8.59,6.79s-6.84,5.76-10.69,9.18c-7.68,6.85-16.28,15.15-25.08,24.38s-17.78,19.41-26.41,29.88-16.88,21.25-24.23,31.67-13.86,20.44-19.11,29.29c-2.63,4.43-5,8.54-7,12.25-1.25,2.32-2.37,4.46-3.37,6.42h10.41l.38-.31c3.25-2.68,6.84-5.76,10.68-9.19,7.68-6.85,16.28-15.15,25.08-24.38s17.79-19.4,26.43-29.86,16.9-21.23,24.25-31.65,13.87-20.43,19.12-29.29c2.62-4.43,5-8.55,7-12.25s3.68-7,5-9.74c2.68-5.48,4-8.8,4-8.8S3011.14,1381.16,3006.28,1384.85Z"/><path class="cls-33" d="M2851.12,1522.84c3.51,3.76,6.81,7.16,9.81,10.12l1.79,1.75h9.12q-1.29-3.25-3-7.16c-1.66-3.87-3.62-8.18-5.83-12.83-4.43-9.29-10-19.87-16.39-30.9s-13.64-22.51-21.27-33.73-15.66-22.16-23.59-32.14-15.73-19-22.77-26.55c-3.52-3.76-6.82-7.15-9.81-10.11s-5.68-5.49-7.94-7.54c-4.51-4.11-7.33-6.29-7.33-6.29s1,3.42,3.18,9.12c1.08,2.86,2.46,6.28,4.11,10.15s3.61,8.18,5.82,12.83c4.43,9.29,10,19.87,16.39,30.9s13.65,22.5,21.29,33.71,15.68,22.15,23.62,32.13S2844.09,1515.32,2851.12,1522.84Z"/><polygon class="cls-8" points="2626.81 1437.62 2613.81 1410.83 2631.22 1423.67 2626.08 1397.23 2639.29 1420.73 2639.29 1395.77 2647.37 1419.26 2654.71 1393.56 2653.98 1420 2664.99 1403.11 2658.39 1426.61 2678.21 1413.39 2667.93 1436.89 2626.81 1437.62"/><polygon class="cls-8" points="670.05 1521.49 657.04 1494.7 674.46 1507.54 669.32 1481.11 682.53 1504.61 682.53 1479.64 690.61 1503.14 697.95 1477.44 697.22 1503.87 708.23 1486.98 701.63 1510.48 721.45 1497.26 711.17 1520.76 670.05 1521.49"/><polygon class="cls-8" points="3352.81 1533.82 3339.81 1507.03 3357.22 1519.87 3352.08 1493.44 3365.3 1516.93 3365.3 1491.97 3373.37 1515.47 3380.72 1489.77 3379.98 1516.2 3391 1499.31 3384.39 1522.81 3404.21 1509.59 3393.93 1533.09 3352.81 1533.82"/><rect class="cls-34" x="0.03" y="1662.72" width="3999.97" height="837.28"/><path class="cls-35" d="M4000,1942.31c-462.46-1.83-1180.92-3-1995.35-3-812.8,0-1542.06,1.17-2004.65,3"/><path class="cls-33" d="M958.57,1386.35c20.87,32.84,19.21,69.5,55.56,110.9,41.19,46.91,83.93,46.06,83.93,46.06s6.38-42.27-34.81-89.19c-36.43-41.49-72-44.47-102.62-69.6Z"/><path class="cls-36" d="M1037.33,1340c4.68,38.63-12.61,71,2.36,124,17,60.08,55.9,77.73,55.9,77.73s24-35.4,7-95.48c-15-53.14-45.85-71.16-62.62-107Z"/><path class="cls-37" d="M1188.73,1353.47c-22.74,31.57-57.41,43.64-82.35,92.76-28.27,55.66-11.61,95-11.61,95s41.62-9.77,69.89-65.43c25-49.23,14.55-83.39,26.53-121.12Z"/><path class="cls-33" d="M1127.3,1334.24c-12,37-41.36,59.07-50.13,113.46-9.94,61.63,17.93,94,17.93,94s36.66-22,46.6-83.63c8.8-54.51-11.58-83.86-11.68-123.44Z"/><path class="cls-36" d="M1276.73,1410.93c-33.85,19.19-70.38,15.69-113.55,49.91-48.92,38.78-50.22,81.51-50.22,81.51s41.9,8.49,90.82-30.29c43.27-34.3,48-69.71,74.67-99Z"/><path class="cls-37" d="M937.1,1435.24c31.84,24.88,43.25,60.56,93.09,88.74,56.48,31.94,97.5,17.59,97.5,17.59s-8.85-42.55-65.33-74.49c-50-28.25-85.43-19.83-123.93-34.24Z"/><rect class="cls-14" y="1561.59" width="4000" height="37.22"/><circle class="cls-38" cx="1508.52" cy="1589.72" r="7"/><circle class="cls-38" cx="3147.52" cy="1525.72" r="7"/><path class="cls-39" d="M0,1574.8v90H4000v-90Z"/><rect class="cls-14" y="1627.59" width="4000" height="37.22"/><line class="cls-40" x1="1179.65" y1="1637.81" x2="1243.55" y2="1573.91"/><line class="cls-40" x1="1561.65" y1="1637.81" x2="1625.55" y2="1573.91"/><line class="cls-40" x1="1943.65" y1="1637.81" x2="2007.55" y2="1573.91"/><line class="cls-40" x1="2325.65" y1="1637.81" x2="2389.55" y2="1573.91"/><line class="cls-40" x1="2707.65" y1="1637.81" x2="2771.55" y2="1573.91"/><line class="cls-40" x1="3089.65" y1="1637.81" x2="3153.55" y2="1573.91"/><line class="cls-40" x1="3457.65" y1="1637.81" x2="3521.55" y2="1573.91"/><line class="cls-40" x1="849.65" y1="1637.81" x2="913.55" y2="1573.91"/><line class="cls-40" x1="527.65" y1="1637.81" x2="591.55" y2="1573.91"/><line class="cls-40" x1="205.65" y1="1637.81" x2="269.55" y2="1573.91"/></svg>