<svg id="BACKGROUND" xmlns="http://www.w3.org/2000/svg" xmlns:xlink="http://www.w3.org/1999/xlink" viewBox="0 0 4000 2500"><defs><style>.cls-1,.cls-29,.cls-34{fill:none;}.cls-2{fill:url(#linear-gradient);}.cls-3{fill:url(#linear-gradient-2);}.cls-4{fill:url(#linear-gradient-3);}.cls-5{fill:#f0c46f;}.cls-6{fill:url(#linear-gradient-4);}.cls-7{fill:url(#linear-gradient-5);}.cls-8{fill:#ea9b64;}.cls-9{fill:url(#linear-gradient-6);}.cls-10{fill:url(#linear-gradient-7);}.cls-11{fill:url(#linear-gradient-8);}.cls-12{fill:url(#linear-gradient-9);}.cls-13{fill:url(#linear-gradient-10);}.cls-14{fill:url(#linear-gradient-11);}.cls-15{fill:#d7915d;}.cls-16{fill:url(#linear-gradient-12);}.cls-17{fill:url(#linear-gradient-13);}.cls-18{fill:url(#linear-gradient-14);}.cls-19{fill:url(#linear-gradient-15);}.cls-20{fill:#d8995f;}.cls-21{fill:#ecae69;}.cls-22{fill:#d9a06c;}.cls-23{fill:#d8975f;}.cls-24{fill:url(#linear-gradient-16);}.cls-25{clip-path:url(#clip-path);}.cls-26{fill:#ffd577;}.cls-27{fill:#ffe17d;}.cls-28{fill:#fcbd71;}.cls-29{stroke:#fff;stroke-width:30px;}.cls-29,.cls-34{stroke-miterlimit:10;}.cls-30{fill:#c67a56;}.cls-31{fill:#c78259;}.cls-32{fill:#c2774e;}.cls-33{fill:#c9875f;}.cls-34{stroke:#ffcf84;stroke-width:11px;}.cls-35{fill:#d27f5e;}.cls-36{fill:#c06d54;}.cls-37{fill:#e19460;}.cls-38{fill:#eebb6d;}.cls-39{fill:#eba567;}.cls-40{fill:#edb46b;}.cls-41{fill:url(#linear-gradient-17);}.cls-42{fill:url(#linear-gradient-18);}.cls-43{fill:url(#linear-gradient-19);}.cls-44{fill:url(#linear-gradient-20);}.cls-45{fill:url(#linear-gradient-21);}.cls-46{fill:url(#linear-gradient-22);}.cls-47{fill:url(#linear-gradient-23);}.cls-48{fill:url(#linear-gradient-24);}.cls-49{fill:url(#linear-gradient-25);}.cls-50{fill:url(#linear-gradient-26);}.cls-51{fill:#e2885d;}.cls-52{fill:#ae6143;}.cls-53{fill:#efc06e;}.cls-54{fill:#fff;}.cls-55{fill:#e99462;}.cls-56{fill:#f1d799;}.cls-57{fill:#fff9b0;}.cls-58{fill:#fffbd0;}.cls-59{fill:#f1dda8;}</style><linearGradient id="linear-gradient" x1="2000" y1="1118.79" x2="2000" y2="363.4" gradientUnits="userSpaceOnUse"><stop offset="0" stop-color="#fff791"/><stop offset="1" stop-color="#ffe67b"/></linearGradient><linearGradient id="linear-gradient-2" x1="2826.29" y1="461.28" x2="2829.48" y2="873.5" gradientUnits="userSpaceOnUse"><stop offset="0" stop-color="#fff2a7"/><stop offset="0.99" stop-color="#ffe67b"/></linearGradient><linearGradient id="linear-gradient-3" x1="825.09" y1="550.32" x2="773.17" y2="1065.26" xlink:href="#linear-gradient-2"/><linearGradient id="linear-gradient-4" x1="2660.88" y1="1070.72" x2="2660.88" y2="1535.93" gradientUnits="userSpaceOnUse"><stop offset="0" stop-color="#eeb76c"/><stop offset="0.99" stop-color="#ea9e65"/></linearGradient><linearGradient id="linear-gradient-5" x1="2000" y1="1021.89" x2="2000" y2="1534.34" xlink:href="#linear-gradient-4"/><linearGradient id="linear-gradient-6" x1="2643.36" y1="983.79" x2="2626.84" y2="1064.29" gradientUnits="userSpaceOnUse"><stop offset="0" stop-color="#ecac69"/><stop offset="0.99" stop-color="#eeb76c"/></linearGradient><linearGradient id="linear-gradient-7" x1="692.38" y1="968.62" x2="767.35" y2="1283.51" xlink:href="#linear-gradient-4"/><linearGradient id="linear-gradient-8" x1="2283.99" y1="808.57" x2="2283.99" y2="907.65" xlink:href="#linear-gradient-4"/><linearGradient id="linear-gradient-9" x1="2561.67" y1="1260.45" x2="2561.67" y2="1107.23" gradientUnits="userSpaceOnUse"><stop offset="0" stop-color="#eeb76c" stop-opacity="0"/><stop offset="0.99" stop-color="#ecad6b"/></linearGradient><linearGradient id="linear-gradient-10" x1="2214.89" y1="1157.42" x2="2214.89" y2="1074.44" gradientUnits="userSpaceOnUse"><stop offset="0" stop-color="#eeb76c" stop-opacity="0"/><stop offset="0.99" stop-color="#ecab6a"/></linearGradient><linearGradient id="linear-gradient-11" x1="1942.41" y1="1359.3" x2="1942.41" y2="1255.18" gradientUnits="userSpaceOnUse"><stop offset="0" stop-color="#eeb76c" stop-opacity="0"/><stop offset="0.99" stop-color="#eba569"/></linearGradient><linearGradient id="linear-gradient-12" x1="2704.09" y1="1324.48" x2="2704.09" y2="1130" xlink:href="#linear-gradient-11"/><linearGradient id="linear-gradient-13" x1="3339.58" y1="1290.23" x2="3341.99" y2="1203.45" xlink:href="#linear-gradient-11"/><linearGradient id="linear-gradient-14" x1="3723.37" y1="1334.02" x2="3725.85" y2="1244.83" xlink:href="#linear-gradient-11"/><linearGradient id="linear-gradient-15" x1="3044.4" y1="1298.48" x2="3046.81" y2="1211.71" xlink:href="#linear-gradient-11"/><linearGradient id="linear-gradient-16" x1="2000" y1="2835.74" x2="2000" y2="1789.88" gradientUnits="userSpaceOnUse"><stop offset="0" stop-color="#121a3c"/><stop offset="1" stop-color="#1d3658"/></linearGradient><clipPath id="clip-path"><path class="cls-1" d="M4000,1522.16C3537.54,1449.07,2813,1402,1998.62,1402c-812.8,0-1536,46.87-1998.62,119.71v189.16H4000Z"/></clipPath><linearGradient id="linear-gradient-17" x1="1524.42" y1="1642.5" x2="1540.93" y2="1642.5" xlink:href="#linear-gradient-4"/><linearGradient id="linear-gradient-18" x1="1029.02" y1="1553.74" x2="1045.53" y2="1553.74" xlink:href="#linear-gradient-4"/><linearGradient id="linear-gradient-19" x1="525.96" y1="1543.34" x2="542.48" y2="1543.34" xlink:href="#linear-gradient-4"/><linearGradient id="linear-gradient-20" x1="1310.78" y1="1639.4" x2="1327.29" y2="1639.4" xlink:href="#linear-gradient-4"/><linearGradient id="linear-gradient-21" x1="1338.64" y1="1576.44" x2="1355.16" y2="1576.44" xlink:href="#linear-gradient-4"/><linearGradient id="linear-gradient-22" x1="2559.85" y1="1544.29" x2="2576.36" y2="1544.29" xlink:href="#linear-gradient-4"/><linearGradient id="linear-gradient-23" x1="2069.36" y1="1628.05" x2="2085.87" y2="1628.05" xlink:href="#linear-gradient-4"/><linearGradient id="linear-gradient-24" x1="3682.48" y1="1604.12" x2="3699" y2="1604.12" xlink:href="#linear-gradient-4"/><linearGradient id="linear-gradient-25" x1="3014.1" y1="1640.15" x2="3030.61" y2="1640.15" xlink:href="#linear-gradient-4"/><linearGradient id="linear-gradient-26" x1="2878.79" y1="1658.86" x2="2895.31" y2="1658.86" xlink:href="#linear-gradient-4"/></defs><title>v copy 11</title><rect class="cls-2" width="4000" height="2500"/><path class="cls-3" d="M4000,488.36c-85.38-8.86-433.71-70.09-666.92-11.07-49.85,12.62-94.3,38.72-143.55,53.44-115.12,34.4-240.84,14.08-361.86,2.74a2353.17,2353.17,0,0,0-632.57,26.42C2116.63,574,2039,592,1959.75,602c-92.51,11.64-186.37,12.13-279.45,19.69-7.43.6-15.44,1.48-20.85,5.94-9,7.39-5.69,21.32,3.48,28.52s22,9.36,34.24,11c130.93,17.4,264.26,4.53,396.49-2.1,564.88-28.32,1341.33,58,1906.34,31.68Z"/><path class="cls-4" d="M0,718c166.81-34.42,550.24-2.83,724.85,13.57,211.31,19.86,426.6,16.86,640.59,18.44,74.56.55,151.81,2,218.82,21.21,10.38,3,21.36,7,24.24,13.58,5.88,13.38-24,21.72-47.24,24-193.57,18.57-391.84,7-587.25,16.92-254.21,12.9-723,62.09-974,35.2Z"/><path class="cls-5" d="M1875.33,1081,1576,1023.24l-26.83-22.71h-41.28l-16.51-20.64-220.87-10.32-31,39.22-39.22-8.26-16.51,18.58-113.53,6.19-84.63-37.16-78.44,20.64-37.16-41.28-358.33-32-22.61,19.18-33-24.15L0,959.15v579s1016.63-63.19,1047.6-57,340.59-212.24,340.59-212.24l328.2-68.12Z"/><polygon class="cls-6" points="2662.16 963.71 2659.6 963.32 2659.72 963.38 2662.16 963.71"/><polygon class="cls-7" points="3569.22 861.34 3400.75 973.7 3179.89 1008.79 3064.29 942.74 2969.34 955.13 2857.88 920.03 2791.82 942.74 2713.38 944.8 2713.38 970.61 2767.05 977.83 2775.31 1062.46 2641.14 1037.69 2535.86 988.15 2502.84 946.87 2503.75 946.27 2447.11 876.69 2420.27 876.69 2420.19 876.32 2387.24 889.07 2310.87 887.01 2246.88 899.39 2162.25 876.69 2147.8 870.5 2052.85 928.29 2017.76 928.29 1792.76 1076.91 1501.71 1159.48 1376.28 1181.73 1532.68 1291.59 1064.11 1301.91 1235.44 1268.88 0 1259.13 0 1551.67 4000 1549.61 4000 801.34 3569.22 861.34"/><path class="cls-8" d="M4000,1089.34v-67.72a24,24,0,0,0-23,30.82,24,24,0,0,0-40.32,14.36,24,24,0,0,0-42.19,10.11,24,24,0,0,0-27.6-4.61,165.94,165.94,0,0,1-61.4-13,24,24,0,0,0-20.73,11.91,24,24,0,0,0-46.74,6.56l-1.88-.08a24,24,0,0,0-35.79-16.58,24,24,0,0,0-47.56-1,24,24,0,0,0-20.2,3.62,24,24,0,0,0-46-13,24,24,0,0,0-41-1.89,24,24,0,0,0-29.65-18.82,31.1,31.1,0,1,0-61.65-5.83c0,1,.05,2,.14,2.94a31.09,31.09,0,0,0-40.67,26.83,20.15,20.15,0,0,1-31.64-2.46,21.86,21.86,0,0,0-21.31,27,25.77,25.77,0,0,0-17.51,9.95,25.81,25.81,0,0,0-43,13.62,20.65,20.65,0,0,0-35.49,9.58,187.9,187.9,0,0,1-38.3-14.61,20.62,20.62,0,0,1-31,7.22,20.63,20.63,0,0,0-16.83,8.69,20.67,20.67,0,0,0-40.87,1.47,20.66,20.66,0,0,0-31.22,10.53,20.67,20.67,0,0,0-38.81,7.28,31.09,31.09,0,0,0-51.67,10.65,20.62,20.62,0,0,0-27,16.45,20.62,20.62,0,0,0-33.13,5.28,17.52,17.52,0,0,0-24.67,8.95,79.74,79.74,0,0,1,16,13q1,.66,2.06,1.35H4000v-98.39C4000.36,1089.53,4000.34,1089.44,4000,1089.34Zm-22.21-1.62-1.25-.06c.31-.28.61-.56.9-.85C3977.55,1087.11,3977.67,1087.41,3977.79,1087.71Zm-34.92-1.57-1.28-.05q.11-.6.19-1.22Q3942.3,1085.52,3942.87,1086.14Z"/><polygon class="cls-1" points="2539.99 944.8 2659.6 963.32 2562.7 907.65 2503.75 946.27 2519.35 965.45 2539.99 944.8"/><polygon class="cls-1" points="2713.38 970.61 2662.16 963.71 2713.38 971.64 2713.38 970.61"/><polygon class="cls-9" points="2535.86 988.15 2641.14 1037.69 2775.31 1062.46 2767.05 977.83 2713.38 970.61 2713.38 971.64 2662.16 963.71 2659.72 963.38 2659.6 963.32 2539.99 944.8 2519.35 965.45 2503.75 946.27 2502.84 946.87 2535.86 988.15"/><polygon class="cls-10" points="1064.11 1301.91 1532.68 1291.59 1376.28 1181.73 1373.73 1182.18 1297.36 1136.77 1200.35 1124.39 991.86 1206.95 0 1151.14 0 1266.92 1235.44 1268.88 1064.11 1301.91"/><polygon class="cls-1" points="2178.76 773.48 2205.6 800.31 2228.3 775.54 2364.54 779.67 2387.24 818.89 2407.89 823.02 2420.19 876.32 2451.23 864.3 2348.03 709.49 2147.8 750.77 2092.07 771.41 2147.8 870.5 2158.12 789.99 2178.76 773.48"/><polygon class="cls-11" points="2246.88 899.39 2310.87 887.01 2387.24 889.07 2420.19 876.32 2407.89 823.02 2387.24 818.89 2364.54 779.67 2228.3 775.54 2205.6 800.31 2178.76 773.48 2158.12 789.99 2147.8 870.5 2162.25 876.69 2246.88 899.39"/><polygon class="cls-12" points="2348.03 1175.99 2775.31 1175.99 2560.64 1014.99 2348.03 1175.99"/><path class="cls-13" d="M1747.35,1235.85c9.28-2.06,512.78-289,512.78-289l83.53,66.05,32.48-12.39,306.28,249.76"/><polygon class="cls-14" points="1649.34 1301.91 2235.49 1301.91 1941 1192.51 1649.34 1301.91"/><path class="cls-15" d="M2964.44,1382.88a4,4,0,0,1-4-4V1316a4,4,0,0,1,7.93,0v62.91A4,4,0,0,1,2964.44,1382.88Z"/><path class="cls-15" d="M2963.91,1357.85h-5.2a13.9,13.9,0,0,1-13.89-13.89v-12a4,4,0,1,1,7.93,0v12a6,6,0,0,0,6,6h5.2a4,4,0,1,1,0,7.93Z"/><path class="cls-15" d="M2971.37,1346.52h-6.71a4,4,0,0,1,0-7.93h6.71a6,6,0,0,0,6-6v-12.75a4,4,0,0,1,7.93,0v12.75A13.9,13.9,0,0,1,2971.37,1346.52Z"/><path class="cls-15" d="M1316.24,1388.85a4,4,0,0,1-4-4V1322a4,4,0,1,1,7.93,0v62.91A4,4,0,0,1,1316.24,1388.85Z"/><path class="cls-15" d="M1315.7,1363.81h-5.2a13.9,13.9,0,0,1-13.89-13.89v-12a4,4,0,1,1,7.93,0v12a6,6,0,0,0,6,6h5.2a4,4,0,1,1,0,7.93Z"/><path class="cls-15" d="M1323.16,1352.48h-6.71a4,4,0,1,1,0-7.93h6.71a6,6,0,0,0,6-6v-12.75a4,4,0,1,1,7.93,0v12.75A13.9,13.9,0,0,1,1323.16,1352.48Z"/><path class="cls-15" d="M2748.63,1334.2a2.67,2.67,0,0,1-2.67-2.67v-42.34a2.67,2.67,0,0,1,5.34,0v42.34A2.67,2.67,0,0,1,2748.63,1334.2Z"/><path class="cls-15" d="M2748.27,1317.35h-3.5a9.36,9.36,0,0,1-9.35-9.35v-8.08a2.67,2.67,0,1,1,5.34,0V1308a4,4,0,0,0,4,4h3.5a2.67,2.67,0,1,1,0,5.34Z"/><path class="cls-15" d="M2753.29,1309.72h-4.51a2.67,2.67,0,1,1,0-5.34h4.51a4,4,0,0,0,4-4v-8.58a2.67,2.67,0,0,1,5.34,0v8.58A9.36,9.36,0,0,1,2753.29,1309.72Z"/><path class="cls-15" d="M2039.06,1174.71a1.34,1.34,0,0,1-1.34-1.34V1152.2a1.34,1.34,0,0,1,2.67,0v21.17A1.34,1.34,0,0,1,2039.06,1174.71Z"/><path class="cls-15" d="M2038.88,1166.28h-1.75a4.68,4.68,0,0,1-4.67-4.67v-4a1.34,1.34,0,0,1,2.67,0v4a2,2,0,0,0,2,2h1.75a1.34,1.34,0,1,1,0,2.67Z"/><path class="cls-15" d="M2041.39,1162.47h-2.26a1.34,1.34,0,1,1,0-2.67h2.26a2,2,0,0,0,2-2v-4.29a1.34,1.34,0,0,1,2.67,0v4.29A4.68,4.68,0,0,1,2041.39,1162.47Z"/><path class="cls-15" d="M1604.66,1239.84a1.34,1.34,0,0,1-1.34-1.34v-21.17a1.34,1.34,0,0,1,2.67,0v21.17A1.34,1.34,0,0,1,1604.66,1239.84Z"/><path class="cls-15" d="M1604.48,1231.41h-1.75a4.68,4.68,0,0,1-4.67-4.67v-4a1.34,1.34,0,0,1,2.67,0v4a2,2,0,0,0,2,2h1.75a1.34,1.34,0,0,1,0,2.67Z"/><path class="cls-15" d="M1607,1227.6h-2.26a1.34,1.34,0,1,1,0-2.67H1607a2,2,0,0,0,2-2v-4.29a1.34,1.34,0,0,1,2.67,0v4.29A4.68,4.68,0,0,1,1607,1227.6Z"/><path class="cls-15" d="M3125.62,1407.73a4,4,0,0,1-4-4v-55.92a4,4,0,0,1,7.93,0v55.92A4,4,0,0,1,3125.62,1407.73Z"/><path class="cls-15" d="M3125.62,1388.08h-8.4a12.2,12.2,0,0,1-12.19-12.19V1369a4,4,0,1,1,7.93,0v6.89a4.26,4.26,0,0,0,4.26,4.26h8.4a4,4,0,1,1,0,7.93Z"/><path class="cls-15" d="M3132.52,1379h-6.89a4,4,0,1,1,0-7.93h6.89a4.26,4.26,0,0,0,4.26-4.26v-15.2a4,4,0,1,1,7.93,0v15.2A12.2,12.2,0,0,1,3132.52,1379Z"/><path class="cls-15" d="M877.64,1439.7a4,4,0,0,1-4-4v-55.92a4,4,0,1,1,7.93,0v55.92A4,4,0,0,1,877.64,1439.7Z"/><path class="cls-15" d="M877.64,1420.05h-8.4A12.2,12.2,0,0,1,857,1407.86V1401a4,4,0,1,1,7.93,0v6.89a4.26,4.26,0,0,0,4.26,4.26h8.4a4,4,0,1,1,0,7.93Z"/><path class="cls-15" d="M884.53,1411h-6.89a4,4,0,0,1,0-7.93h6.89a4.26,4.26,0,0,0,4.26-4.26v-15.2a4,4,0,0,1,7.93,0v15.2A12.2,12.2,0,0,1,884.53,1411Z"/><path class="cls-15" d="M921.64,1217.81a1.82,1.82,0,0,1-1.82-1.82v-25.63a1.82,1.82,0,1,1,3.64,0V1216A1.82,1.82,0,0,1,921.64,1217.81Z"/><path class="cls-15" d="M921.64,1208.8h-3.85a5.59,5.59,0,0,1-5.59-5.59v-3.16a1.82,1.82,0,1,1,3.64,0v3.16a2,2,0,0,0,2,2h3.85a1.82,1.82,0,1,1,0,3.64Z"/><path class="cls-15" d="M924.8,1204.64h-3.16a1.82,1.82,0,0,1,0-3.64h3.16a2,2,0,0,0,2-2v-7a1.82,1.82,0,1,1,3.64,0v7A5.59,5.59,0,0,1,924.8,1204.64Z"/><path class="cls-15" d="M1750.6,1214.39a1.82,1.82,0,0,1-1.82-1.82v-25.63a1.82,1.82,0,1,1,3.64,0v25.63A1.82,1.82,0,0,1,1750.6,1214.39Z"/><path class="cls-15" d="M1750.6,1205.38h-3.85a5.59,5.59,0,0,1-5.59-5.59v-3.16a1.82,1.82,0,0,1,3.64,0v3.16a2,2,0,0,0,2,2h3.85a1.82,1.82,0,0,1,0,3.64Z"/><path class="cls-15" d="M1753.76,1201.22h-3.16a1.82,1.82,0,0,1,0-3.64h3.16a2,2,0,0,0,2-2v-7a1.82,1.82,0,0,1,3.64,0v7A5.59,5.59,0,0,1,1753.76,1201.22Z"/><path class="cls-15" d="M2700.75,1255a1.82,1.82,0,0,1-1.82-1.82v-25.63a1.82,1.82,0,1,1,3.64,0v25.63A1.82,1.82,0,0,1,2700.75,1255Z"/><path class="cls-15" d="M2700.75,1246h-3.85a5.59,5.59,0,0,1-5.59-5.59v-3.16a1.82,1.82,0,0,1,3.64,0v3.16a2,2,0,0,0,2,2h3.85a1.82,1.82,0,0,1,0,3.64Z"/><path class="cls-15" d="M2703.91,1241.8h-3.16a1.82,1.82,0,1,1,0-3.64h3.16a2,2,0,0,0,2-2v-7a1.82,1.82,0,1,1,3.64,0v7A5.59,5.59,0,0,1,2703.91,1241.8Z"/><path class="cls-15" d="M3023.61,1425.86a4,4,0,0,1-4-4V1363a4,4,0,1,1,7.93,0v58.94A4,4,0,0,1,3023.61,1425.86Z"/><path class="cls-15" d="M3030.11,1402.44h-13.76a11.84,11.84,0,0,1-11.83-11.83v-10.28a4,4,0,0,1,7.93,0v10.28a3.9,3.9,0,0,0,3.89,3.89h13.76a3.89,3.89,0,0,0,3.89-3.89v-16.32a4,4,0,0,1,7.93,0v16.32A11.84,11.84,0,0,1,3030.11,1402.44Z"/><path class="cls-15" d="M2568.44,1345.27a3.43,3.43,0,0,1-3.43-3.43v-51a3.43,3.43,0,0,1,6.86,0v51A3.43,3.43,0,0,1,2568.44,1345.27Z"/><path class="cls-15" d="M2574.06,1325h-11.89a10.24,10.24,0,0,1-10.23-10.23v-8.89a3.43,3.43,0,0,1,6.86,0v8.89a3.37,3.37,0,0,0,3.36,3.36h11.89a3.37,3.37,0,0,0,3.36-3.36v-14.11a3.43,3.43,0,1,1,6.86,0v14.11A10.24,10.24,0,0,1,2574.06,1325Z"/><path class="cls-15" d="M2386.86,1384.49a4.08,4.08,0,0,1-4.08-4.08v-60.67a4.08,4.08,0,1,1,8.17,0v60.67A4.08,4.08,0,0,1,2386.86,1384.49Z"/><path class="cls-15" d="M2393.55,1360.38h-14.16a12.19,12.19,0,0,1-12.17-12.17v-10.58a4.08,4.08,0,0,1,8.17,0v10.58a4,4,0,0,0,4,4h14.16a4,4,0,0,0,4-4v-16.8a4.08,4.08,0,0,1,8.17,0v16.8A12.19,12.19,0,0,1,2393.55,1360.38Z"/><path class="cls-15" d="M1140.6,1340.66a2.77,2.77,0,0,1-2.77-2.77v-41.15a2.77,2.77,0,0,1,5.54,0v41.15A2.77,2.77,0,0,1,1140.6,1340.66Z"/><path class="cls-15" d="M1145.14,1324.3h-9.6a8.27,8.27,0,0,1-8.26-8.26v-7.18a2.77,2.77,0,0,1,5.54,0V1316a2.72,2.72,0,0,0,2.72,2.72h9.6a2.72,2.72,0,0,0,2.72-2.72v-11.4a2.77,2.77,0,0,1,5.54,0V1316A8.27,8.27,0,0,1,1145.14,1324.3Z"/><path class="cls-15" d="M464.6,1244a2.77,2.77,0,0,1-2.77-2.77v-41.15a2.77,2.77,0,1,1,5.54,0v41.15A2.77,2.77,0,0,1,464.6,1244Z"/><path class="cls-15" d="M469.14,1227.64h-9.6a8.27,8.27,0,0,1-8.26-8.26v-7.18a2.77,2.77,0,1,1,5.54,0v7.18a2.72,2.72,0,0,0,2.72,2.72h9.6a2.72,2.72,0,0,0,2.72-2.72V1208a2.77,2.77,0,0,1,5.54,0v11.4A8.27,8.27,0,0,1,469.14,1227.64Z"/><path class="cls-15" d="M1768,1324.5a2.77,2.77,0,0,1-2.77-2.77v-41.15a2.77,2.77,0,0,1,5.54,0v41.15A2.77,2.77,0,0,1,1768,1324.5Z"/><path class="cls-15" d="M1772.5,1308.14h-9.6a8.27,8.27,0,0,1-8.26-8.26v-7.18a2.77,2.77,0,0,1,5.54,0v7.18a2.72,2.72,0,0,0,2.72,2.72h9.6a2.72,2.72,0,0,0,2.72-2.72v-11.4a2.77,2.77,0,0,1,5.54,0v11.4A8.27,8.27,0,0,1,1772.5,1308.14Z"/><path class="cls-15" d="M3401.69,1338.25a2.77,2.77,0,0,1-2.77-2.77v-41.15a2.77,2.77,0,0,1,5.54,0v41.15A2.77,2.77,0,0,1,3401.69,1338.25Z"/><path class="cls-15" d="M3406.23,1321.9h-9.6a8.27,8.27,0,0,1-8.26-8.26v-7.18a2.77,2.77,0,0,1,5.54,0v7.18a2.72,2.72,0,0,0,2.72,2.72h9.6a2.72,2.72,0,0,0,2.72-2.72v-11.4a2.77,2.77,0,0,1,5.54,0v11.4A8.27,8.27,0,0,1,3406.23,1321.9Z"/><polygon class="cls-15" points="2632.41 1336.91 2628.41 1319.58 2635.07 1328.47 2631.96 1312.48 2639.96 1326.69 2639.96 1311.59 2644.84 1325.8 2649.28 1310.26 2648.84 1326.25 2655.5 1316.03 2651.51 1330.24 2663.5 1322.25 2657.28 1336.46 2632.41 1336.91"/><polygon class="cls-15" points="2856.74 1397.28 2844.31 1371.66 2860.96 1383.94 2856.04 1358.66 2868.68 1381.13 2868.68 1357.26 2876.41 1379.73 2883.43 1355.15 2882.73 1380.43 2893.26 1364.28 2886.94 1386.75 2905.9 1374.11 2896.07 1396.58 2856.74 1397.28"/><polygon class="cls-15" points="2113.96 1365.29 2101.52 1339.67 2118.18 1351.95 2113.26 1326.67 2125.9 1349.14 2125.9 1325.27 2133.62 1347.73 2140.64 1323.16 2139.94 1348.44 2150.48 1332.29 2144.16 1354.76 2163.12 1342.12 2153.28 1364.59 2113.96 1365.29"/><polygon class="cls-15" points="1991.61 1329.93 1985.42 1317.19 1993.7 1323.3 1991.26 1310.72 1997.54 1321.9 1997.54 1310.03 2001.38 1321.2 2004.88 1308.98 2004.53 1321.55 2009.77 1313.52 2006.62 1324.69 2016.05 1318.41 2011.16 1329.58 1991.61 1329.93"/><polygon class="cls-15" points="1233.63 1202.6 1227.44 1189.86 1235.72 1195.97 1233.28 1183.39 1239.56 1194.57 1239.56 1182.7 1243.4 1193.87 1246.9 1181.65 1246.55 1194.22 1251.79 1186.19 1248.64 1197.36 1258.07 1191.08 1253.18 1202.25 1233.63 1202.6"/><polygon class="cls-15" points="1174.05 1215.69 1167.87 1202.94 1176.15 1209.05 1173.7 1196.48 1179.99 1207.65 1179.99 1195.78 1183.83 1206.95 1187.32 1194.73 1186.97 1207.3 1192.21 1199.27 1189.07 1210.45 1198.5 1204.16 1193.61 1215.34 1174.05 1215.69"/><polygon class="cls-15" points="396.29 1238.6 390.11 1225.86 398.39 1231.97 395.94 1219.39 402.23 1230.57 402.23 1218.7 406.07 1229.87 409.56 1217.65 409.21 1230.22 414.45 1222.19 411.31 1233.36 420.74 1227.08 415.85 1238.25 396.29 1238.6"/><polygon class="cls-15" points="266.05 1202.35 259.87 1189.61 268.15 1195.72 265.7 1183.14 271.99 1194.32 271.99 1182.45 275.83 1193.62 279.32 1181.4 278.97 1193.97 284.21 1185.94 281.07 1197.11 290.5 1190.83 285.61 1202 266.05 1202.35"/><polygon class="cls-15" points="855.88 1235.63 849.7 1222.89 857.98 1228.99 855.53 1216.42 861.82 1227.6 861.82 1215.72 865.66 1226.9 869.15 1214.68 868.8 1227.25 874.04 1219.22 870.9 1230.39 880.33 1224.11 875.44 1235.28 855.88 1235.63"/><polygon class="cls-15" points="1360.34 1338.21 1353.53 1324.18 1362.65 1330.91 1359.96 1317.06 1366.88 1329.37 1366.88 1316.3 1371.11 1328.6 1374.95 1315.14 1374.57 1328.98 1380.34 1320.14 1376.88 1332.44 1387.26 1325.52 1381.88 1337.83 1360.34 1338.21"/><polygon class="cls-15" points="684.84 1324.21 678.03 1310.18 687.15 1316.91 684.46 1303.06 691.38 1315.37 691.38 1302.3 695.61 1314.6 699.46 1301.14 699.07 1314.98 704.84 1306.14 701.38 1318.44 711.76 1311.52 706.38 1323.83 684.84 1324.21"/><polygon class="cls-15" points="1510.74 1221.52 1507.27 1214.36 1511.92 1217.8 1510.55 1210.73 1514.08 1217.01 1514.08 1210.34 1516.24 1216.62 1518.2 1209.75 1518.01 1216.81 1520.95 1212.3 1519.18 1218.58 1524.48 1215.05 1521.73 1221.33 1510.74 1221.52"/><polygon class="cls-15" points="1605.81 1183.85 1602.33 1176.69 1606.99 1180.12 1605.61 1173.06 1609.14 1179.34 1609.14 1172.66 1611.3 1178.94 1613.27 1172.08 1613.07 1179.14 1616.01 1174.63 1614.25 1180.91 1619.55 1177.37 1616.8 1183.65 1605.81 1183.85"/><polygon class="cls-15" points="2317.06 1244.11 2313.59 1236.95 2318.24 1240.38 2316.87 1233.32 2320.4 1239.6 2320.4 1232.92 2322.56 1239.2 2324.52 1232.34 2324.32 1239.4 2327.27 1234.89 2325.5 1241.17 2330.8 1237.63 2328.05 1243.91 2317.06 1244.11"/><polygon class="cls-15" points="3326.26 1263.57 3322.78 1256.41 3327.44 1259.84 3326.07 1252.77 3329.6 1259.05 3329.6 1252.38 3331.76 1258.66 3333.72 1251.79 3333.52 1258.86 3336.47 1254.34 3334.7 1260.62 3340 1257.09 3337.25 1263.37 3326.26 1263.57"/><rect class="cls-15" x="1452.61" y="1329.34" width="143.97" height="4.13"/><rect class="cls-15" x="219.67" y="1303.85" width="143.97" height="4.13"/><rect class="cls-15" x="968.07" y="1419.13" width="143.97" height="4.13"/><rect class="cls-15" x="1540.85" y="1320.06" width="143.97" height="4.13"/><rect class="cls-15" x="185.17" y="1428.34" width="322.38" height="4.13"/><rect class="cls-15" x="382.76" y="1419.05" width="322.38" height="4.13"/><rect class="cls-15" x="2163.16" y="1329.34" width="143.97" height="4.13"/><rect class="cls-15" x="2556.37" y="1355.66" width="221.37" height="4.13"/><rect class="cls-15" x="2783.93" y="1323.15" width="140.87" height="4.13"/><rect class="cls-15" x="2389.18" y="1235.69" width="242.54" height="2.58"/><rect class="cls-15" x="2229.73" y="1260.46" width="242.54" height="2.58"/><rect class="cls-15" x="3096.64" y="1286.77" width="242.54" height="2.58"/><rect class="cls-15" x="3367.55" y="1383.53" width="320.87" height="4.13"/><rect class="cls-15" x="3240.61" y="1431.52" width="140.87" height="4.13"/><rect class="cls-15" x="1040.83" y="1347.92" width="140.87" height="4.13"/><polygon class="cls-16" points="2411.02 1217.28 2997.17 1217.28 2702.68 1012.92 2411.02 1217.28"/><path class="cls-17" d="M3103.51,1241.69C3114.87,1239.26,3283,1152,3283,1152l40.89,26.65,115.85-46,138.57,111.47Z"/><path class="cls-18" d="M3449.51,1283.26c13.34-2.85,210.81-105.32,210.81-105.32l48,31.31L4000,1176.88V1285Z"/><path class="cls-19" d="M2808.34,1249.94c11.36-2.42,177.52-76,177.52-76l42.82,13,115.85-46,138.57,111.47Z"/><circle class="cls-15" cx="1893.91" cy="1330.81" r="16.51"/><ellipse class="cls-15" cx="944.39" cy="1352.12" rx="16.51" ry="19.97"/><ellipse class="cls-15" cx="415.39" cy="1334.62" rx="7.33" ry="8.87"/><ellipse class="cls-15" cx="2130.25" cy="1214.18" rx="9.61" ry="11.62"/><ellipse class="cls-15" cx="2171.54" cy="1182.19" rx="7.55" ry="9.13"/><ellipse class="cls-15" cx="2307.77" cy="1163.61" rx="7.55" ry="9.13"/><ellipse class="cls-15" cx="1550.22" cy="1264.75" rx="7.55" ry="9.13"/><path class="cls-20" d="M2317.06,792.06a168.7,168.7,0,0,1,2.35,19.61c.44,6.54.65,13.07.65,19.61s-.2,13.07-.64,19.61a166.65,166.65,0,0,1-2.36,19.61,166.65,166.65,0,0,1-2.36-19.61q-.66-9.8-.64-19.61c0-6.54.21-13.07.65-19.61A168.81,168.81,0,0,1,2317.06,792.06Z"/><path class="cls-20" d="M2337.19,779.67c1.24,8.27,1.89,16.53,2.35,24.8s.64,16.53.65,24.8-.2,16.53-.64,24.8-1.11,16.53-2.36,24.8c-1.25-8.27-1.9-16.53-2.36-24.8s-.65-16.53-.64-24.8.21-16.53.65-24.8S2335.95,787.94,2337.19,779.67Z"/><path class="cls-20" d="M2351.12,806.11a127.31,127.31,0,0,1,2.35,17c.44,5.67.65,11.33.65,17s-.2,11.33-.64,17a125.84,125.84,0,0,1-2.36,17,125.84,125.84,0,0,1-2.36-17q-.66-8.5-.64-17c0-5.67.21-11.33.65-17A127.31,127.31,0,0,1,2351.12,806.11Z"/><path class="cls-20" d="M2606.55,953.17a91.48,91.48,0,0,1,2.35,14.32c.44,4.77.65,9.55.65,14.32s-.2,9.55-.64,14.32a90.42,90.42,0,0,1-2.36,14.32,90.37,90.37,0,0,1-2.36-14.32q-.66-7.16-.64-14.32c0-4.77.21-9.55.65-14.32A91.48,91.48,0,0,1,2606.55,953.17Z"/><path class="cls-20" d="M2622,954.72a91.41,91.41,0,0,1,2.35,14.32c.44,4.77.65,9.55.65,14.32s-.2,9.55-.64,14.32A90.37,90.37,0,0,1,2622,1012a90.37,90.37,0,0,1-2.36-14.32q-.66-7.16-.64-14.32c0-4.77.21-9.55.65-14.32A91.47,91.47,0,0,1,2622,954.72Z"/><path class="cls-21" d="M1488.85,981c1.24,10.58,1.89,21.16,2.35,31.73s.65,21.16.65,31.74-.2,21.16-.64,31.74-1.11,21.16-2.36,31.74c-1.25-10.58-1.9-21.16-2.36-31.74s-.65-21.16-.64-31.74.21-21.16.65-31.74S1487.61,991.61,1488.85,981Z"/><path class="cls-21" d="M1507.43,1002.71c1.24,10.58,1.89,21.16,2.35,31.74s.65,21.16.65,31.74-.2,21.16-.64,31.74-1.11,21.16-2.36,31.74c-1.25-10.58-1.9-21.16-2.36-31.74s-.65-21.16-.64-31.74.21-21.16.65-31.74S1506.19,1013.29,1507.43,1002.71Z"/><path class="cls-21" d="M1549.23,998.06a191.23,191.23,0,0,1,2.35,20.9q.66,10.45.65,20.9t-.64,20.9a188.77,188.77,0,0,1-2.36,20.9,188.77,188.77,0,0,1-2.36-20.9q-.66-10.45-.64-20.9t.65-20.9A191.11,191.11,0,0,1,1549.23,998.06Z"/><path class="cls-21" d="M906.79,1013.54a122.23,122.23,0,0,1,2.35,16.64c.44,5.55.64,11.09.65,16.64s-.2,11.09-.64,16.64a120.79,120.79,0,0,1-2.36,16.64,120.79,120.79,0,0,1-2.36-16.64q-.66-8.32-.64-16.64c0-5.55.21-11.09.65-16.64A122.23,122.23,0,0,1,906.79,1013.54Z"/><path class="cls-21" d="M931.56,1004.26c1.24,10.06,1.89,20.12,2.35,30.19s.64,20.12.65,30.19-.2,20.12-.64,30.19-1.11,20.12-2.36,30.19c-1.25-10.06-1.9-20.12-2.36-30.19s-.65-20.12-.64-30.19.21-20.12.65-30.19S930.31,1014.32,931.56,1004.26Z"/><path class="cls-21" d="M947,995c1.24,10.06,1.89,20.12,2.35,30.19s.64,20.12.65,30.19-.2,20.12-.64,30.19-1.11,20.12-2.36,30.19c-1.25-10.06-1.9-20.12-2.36-30.19s-.65-20.12-.64-30.19.21-20.12.65-30.19S945.79,1005,947,995Z"/><path class="cls-21" d="M279.57,960.47c1.24,10.06,1.89,20.12,2.35,30.19s.64,20.12.65,30.19-.2,20.12-.64,30.19-1.11,20.12-2.36,30.19c-1.25-10.06-1.9-20.12-2.36-30.19s-.65-20.12-.64-30.19.21-20.12.65-30.19S278.33,970.53,279.57,960.47Z"/><path class="cls-21" d="M987.29,985.68a219.9,219.9,0,0,1,2.35,22.45q.66,11.22.65,22.45t-.64,22.45a217.21,217.21,0,0,1-2.36,22.45,217.21,217.21,0,0,1-2.36-22.45q-.66-11.22-.64-22.45t.65-22.45A220,220,0,0,1,987.29,985.68Z"/><path class="cls-21" d="M262.82,973.68a219.9,219.9,0,0,1,2.35,22.45q.66,11.22.65,22.45t-.64,22.45a217.21,217.21,0,0,1-2.36,22.45,217.21,217.21,0,0,1-2.36-22.45q-.66-11.22-.64-22.45t.65-22.45A220,220,0,0,1,262.82,973.68Z"/><path class="cls-21" d="M1622,1030.57a73.53,73.53,0,0,1,2.35,12.77,125.11,125.11,0,0,1,.65,12.77,122.9,122.9,0,0,1-.64,12.77,72.64,72.64,0,0,1-2.36,12.77,72.73,72.73,0,0,1-2.36-12.77,122.9,122.9,0,0,1-.64-12.77,125.11,125.11,0,0,1,.65-12.77A73.52,73.52,0,0,1,1622,1030.57Z"/><path class="cls-21" d="M513.54,946.58a73.53,73.53,0,0,1,2.35,12.77,125.11,125.11,0,0,1,.65,12.77,122.9,122.9,0,0,1-.64,12.77,72.64,72.64,0,0,1-2.36,12.77,72.73,72.73,0,0,1-2.36-12.77,122.9,122.9,0,0,1-.64-12.77,125.11,125.11,0,0,1,.65-12.77A73.52,73.52,0,0,1,513.54,946.58Z"/><path class="cls-21" d="M452.41,937.54c1.24,10.58,1.89,21.16,2.35,31.73s.65,21.16.65,31.74-.2,21.16-.64,31.74-1.11,21.16-2.36,31.74c-1.25-10.58-1.9-21.16-2.36-31.74s-.65-21.16-.64-31.74.21-21.16.65-31.74S451.16,948.12,452.41,937.54Z"/><path class="cls-21" d="M493.28,954.57a191.23,191.23,0,0,1,2.35,20.9q.66,10.45.65,20.9t-.64,20.9a188.77,188.77,0,0,1-2.36,20.9,188.77,188.77,0,0,1-2.36-20.9q-.66-10.45-.64-20.9t.65-20.9A191.11,191.11,0,0,1,493.28,954.57Z"/><path class="cls-21" d="M867.52,982.58a73.53,73.53,0,0,1,2.35,12.77,125.11,125.11,0,0,1,.65,12.77,122.9,122.9,0,0,1-.64,12.77,72.64,72.64,0,0,1-2.36,12.77,72.73,72.73,0,0,1-2.36-12.77,122.9,122.9,0,0,1-.64-12.77,125.11,125.11,0,0,1,.65-12.77A73.52,73.52,0,0,1,867.52,982.58Z"/><path class="cls-21" d="M1092.55,1103.06a38.15,38.15,0,0,1,2.35,9,62,62,0,0,1,.65,9,60.9,60.9,0,0,1-.64,9,37.73,37.73,0,0,1-2.36,9,37.73,37.73,0,0,1-2.36-9,60.9,60.9,0,0,1-.64-9,62,62,0,0,1,.65-9A38.17,38.17,0,0,1,1092.55,1103.06Z"/><path class="cls-21" d="M1106.66,1076.91a65.15,65.15,0,0,1,2.35,12,110.15,110.15,0,0,1,.65,12,108.08,108.08,0,0,1-.64,12,64.37,64.37,0,0,1-2.36,12,64.41,64.41,0,0,1-2.36-12,108.2,108.2,0,0,1-.64-12,110.16,110.16,0,0,1,.65-12A65.14,65.14,0,0,1,1106.66,1076.91Z"/><path class="cls-21" d="M1120.76,1061.09a69.63,69.63,0,0,1,2.35,12.41,118.16,118.16,0,0,1,.65,12.41,116.07,116.07,0,0,1-.64,12.41,68.84,68.84,0,0,1-2.36,12.41,68.8,68.8,0,0,1-2.36-12.41,116,116,0,0,1-.64-12.41,118.16,118.16,0,0,1,.65-12.41A69.63,69.63,0,0,1,1120.76,1061.09Z"/><path class="cls-21" d="M1134.87,1047.33a68.72,68.72,0,0,1,2.35,12.32,116.54,116.54,0,0,1,.65,12.32,114.48,114.48,0,0,1-.64,12.32,67.9,67.9,0,0,1-2.36,12.32,67.9,67.9,0,0,1-2.36-12.32,114.48,114.48,0,0,1-.64-12.32,116.41,116.41,0,0,1,.65-12.32A68.68,68.68,0,0,1,1134.87,1047.33Z"/><path class="cls-21" d="M1149,1030.12a77.09,77.09,0,0,1,2.35,13.1c.44,4.37.65,8.73.65,13.1a129.38,129.38,0,0,1-.64,13.1,76.26,76.26,0,0,1-2.36,13.1,76.31,76.31,0,0,1-2.36-13.1,129.38,129.38,0,0,1-.64-13.1c0-4.37.21-8.73.65-13.1A77.14,77.14,0,0,1,1149,1030.12Z"/><path class="cls-21" d="M1163.08,1032.53a38.15,38.15,0,0,1,2.35,9,61.93,61.93,0,0,1,.65,9,60.9,60.9,0,0,1-.64,9,37.73,37.73,0,0,1-2.36,9,37.73,37.73,0,0,1-2.36-9,60.9,60.9,0,0,1-.64-9,62,62,0,0,1,.65-9A38.17,38.17,0,0,1,1163.08,1032.53Z"/><path class="cls-21" d="M757.78,1028.09a69.63,69.63,0,0,1,2.35,12.41,118.16,118.16,0,0,1,.65,12.41,116.07,116.07,0,0,1-.64,12.41,68.84,68.84,0,0,1-2.36,12.41,68.8,68.8,0,0,1-2.36-12.41,116,116,0,0,1-.64-12.41,118.16,118.16,0,0,1,.65-12.41A69.63,69.63,0,0,1,757.78,1028.09Z"/><path class="cls-21" d="M771.89,1014.33a68.72,68.72,0,0,1,2.35,12.32,116.54,116.54,0,0,1,.65,12.32,114.48,114.48,0,0,1-.64,12.32,67.9,67.9,0,0,1-2.36,12.32,67.9,67.9,0,0,1-2.36-12.32,114.48,114.48,0,0,1-.64-12.32,116.41,116.41,0,0,1,.65-12.32A68.68,68.68,0,0,1,771.89,1014.33Z"/><path class="cls-21" d="M786,997.13a77.09,77.09,0,0,1,2.35,13.1c.44,4.37.65,8.73.65,13.1a129.38,129.38,0,0,1-.64,13.1,76.26,76.26,0,0,1-2.36,13.1,76.31,76.31,0,0,1-2.36-13.1,129.38,129.38,0,0,1-.64-13.1c0-4.37.21-8.73.65-13.1A77.14,77.14,0,0,1,786,997.13Z"/><path class="cls-21" d="M800.1,999.53a38.15,38.15,0,0,1,2.35,9,61.93,61.93,0,0,1,.65,9,60.9,60.9,0,0,1-.64,9,37.73,37.73,0,0,1-2.36,9,37.73,37.73,0,0,1-2.36-9,60.9,60.9,0,0,1-.64-9,62,62,0,0,1,.65-9A38.17,38.17,0,0,1,800.1,999.53Z"/><path class="cls-20" d="M2668.47,964a91.47,91.47,0,0,1,2.35,14.32c.44,4.77.64,9.55.65,14.32s-.2,9.55-.64,14.32a90.37,90.37,0,0,1-2.36,14.32,90.43,90.43,0,0,1-2.36-14.32q-.66-7.16-.64-14.32c0-4.77.21-9.55.65-14.32A91.47,91.47,0,0,1,2668.47,964Z"/><path class="cls-20" d="M2733.49,942.33a34.77,34.77,0,0,1,2.35,8.51,55.92,55.92,0,0,1,.65,8.51,55,55,0,0,1-.64,8.51,34.39,34.39,0,0,1-2.36,8.51,34.41,34.41,0,0,1-2.36-8.51,54.93,54.93,0,0,1-.64-8.51,55.92,55.92,0,0,1,.65-8.51A34.77,34.77,0,0,1,2733.49,942.33Z"/><path class="cls-20" d="M2742.78,942.33a34.75,34.75,0,0,1,2.35,8.51,55.85,55.85,0,0,1,.65,8.51,54.93,54.93,0,0,1-.64,8.51,34.37,34.37,0,0,1-2.36,8.51,34.37,34.37,0,0,1-2.36-8.51,54.93,54.93,0,0,1-.64-8.51,55.85,55.85,0,0,1,.65-8.51A34.75,34.75,0,0,1,2742.78,942.33Z"/><path class="cls-20" d="M2752.06,942.33a34.77,34.77,0,0,1,2.35,8.51,55.92,55.92,0,0,1,.65,8.51,54.93,54.93,0,0,1-.64,8.51,34.37,34.37,0,0,1-2.36,8.51,34.41,34.41,0,0,1-2.36-8.51,54.93,54.93,0,0,1-.64-8.51,55.92,55.92,0,0,1,.65-8.51A34.77,34.77,0,0,1,2752.06,942.33Z"/><path class="cls-22" d="M1777.2,1142a26.6,26.6,0,0,1-1.88,7.44A41.29,41.29,0,0,1,1772,1156a40.57,40.57,0,0,1-4.41,5.85,26.31,26.31,0,0,1-5.87,4.94,26.29,26.29,0,0,1,1.87-7.44,40.57,40.57,0,0,1,3.33-6.53,41.28,41.28,0,0,1,4.42-5.85A26.59,26.59,0,0,1,1777.2,1142Z"/><path class="cls-22" d="M1801.87,1129.65a35.92,35.92,0,0,1-2.6,8.6,58,58,0,0,1-4,7.7,56.93,56.93,0,0,1-5.14,7,35.52,35.52,0,0,1-6.6,6.1,35.52,35.52,0,0,1,2.6-8.6,56.93,56.93,0,0,1,4.05-7.69,57.93,57.93,0,0,1,5.15-7A35.9,35.9,0,0,1,1801.87,1129.65Z"/><path class="cls-22" d="M1829.23,1117.61a46,46,0,0,1-3.27,9.67,76,76,0,0,1-4.72,8.77,74.63,74.63,0,0,1-5.81,8.09,45.49,45.49,0,0,1-7.27,7.18,45.51,45.51,0,0,1,3.27-9.68,74.68,74.68,0,0,1,4.72-8.77,76,76,0,0,1,5.82-8.08A46,46,0,0,1,1829.23,1117.61Z"/><path class="cls-22" d="M1853.31,1108.49a49.49,49.49,0,0,1-3.49,10,82.3,82.3,0,0,1-4.93,9.12,80.79,80.79,0,0,1-6,8.43,49,49,0,0,1-7.48,7.52,49,49,0,0,1,3.48-10,80.87,80.87,0,0,1,4.94-9.11,82.28,82.28,0,0,1,6-8.43A49.52,49.52,0,0,1,1853.31,1108.49Z"/><path class="cls-22" d="M1878.68,1097.31a59,59,0,0,1-4,10.88,99.09,99.09,0,0,1-5.47,10,97.3,97.3,0,0,1-6.56,9.29,58.26,58.26,0,0,1-8,8.38,58.27,58.27,0,0,1,4-10.88,97.39,97.39,0,0,1,5.48-10,99.13,99.13,0,0,1,6.57-9.29A58.94,58.94,0,0,1,1878.68,1097.31Z"/><path class="cls-22" d="M1903.36,1087.23a65.87,65.87,0,0,1-4.39,11.46,111.41,111.41,0,0,1-5.84,10.56,109.52,109.52,0,0,1-6.93,9.88,65.12,65.12,0,0,1-8.39,9,65.08,65.08,0,0,1,4.38-11.47,109.5,109.5,0,0,1,5.84-10.56,111.44,111.44,0,0,1,6.94-9.87A65.83,65.83,0,0,1,1903.36,1087.23Z"/><path class="cls-22" d="M1927.62,1077.83a71,71,0,0,1-4.65,11.88,120.59,120.59,0,0,1-6.1,11,118.41,118.41,0,0,1-7.19,10.29,70.15,70.15,0,0,1-8.65,9.38,70.16,70.16,0,0,1,4.64-11.88,118.41,118.41,0,0,1,6.1-11,120.48,120.48,0,0,1,7.19-10.29A70.94,70.94,0,0,1,1927.62,1077.83Z"/><path class="cls-22" d="M1957.21,1059.91a107.1,107.1,0,0,1-6.24,14.42q-3.56,6.94-7.69,13.52t-8.78,12.84a105.74,105.74,0,0,1-10.24,11.93,105.81,105.81,0,0,1,6.24-14.43q3.56-6.94,7.69-13.52t8.79-12.83A107,107,0,0,1,1957.21,1059.91Z"/><path class="cls-22" d="M1980.17,1052.59a105.4,105.4,0,0,1-6.18,14.32q-3.53,6.89-7.62,13.42t-8.71,12.73a104.17,104.17,0,0,1-10.17,11.82,104.19,104.19,0,0,1,6.17-14.32q3.53-6.89,7.63-13.41t8.72-12.73A105.4,105.4,0,0,1,1980.17,1052.59Z"/><path class="cls-22" d="M2013.45,1028.75a178.2,178.2,0,0,1-8.69,18.34q-4.78,8.9-10.14,17.44t-11.23,16.76a176,176,0,0,1-12.69,15.85,176.09,176.09,0,0,1,8.69-18.35q4.78-8.9,10.14-17.44t11.24-16.75A178.18,178.18,0,0,1,2013.45,1028.75Z"/><path class="cls-23" d="M1228.39,1270.57c.06-.59.09-1.18.09-1.78a17.62,17.62,0,0,0-26.48-15.26,21,21,0,0,0-35.8-8.82,21,21,0,0,0-25.3,3.58,17.56,17.56,0,0,0-20.62-1.87,25.91,25.91,0,0,0-48.15,1,22.53,22.53,0,0,0-38.55,9.68,17.66,17.66,0,0,0-23-3,21.2,21.2,0,0,0-39.74-1.68,18.5,18.5,0,0,0-23.19,9.91,15.34,15.34,0,0,0-27.23,8.23Z"/><path class="cls-8" d="M2712.52,1191.79a12.85,12.85,0,0,0,.1-1.57c0-8.57-8.54-15.52-19.07-15.52a22.36,22.36,0,0,0-9.54,2.1c-2.57-7.92-11.4-13.77-21.94-13.77a25.22,25.22,0,0,0-16.74,6,26.71,26.71,0,0,0-11.14-2.39,25.43,25.43,0,0,0-16.2,5.53,21.64,21.64,0,0,0-12.53-3.84,22.31,22.31,0,0,0-9.74,2.2c-4.25-8.18-14.19-13.92-25.79-13.92-12,0-22.27,6.17-26.23,14.84a27,27,0,0,0-18-6.5c-11.41,0-21,6.39-23.62,15a21.17,21.17,0,0,0-14.3-5.25,22.25,22.25,0,0,0-10.54,2.58c-3-7.49-11.6-12.92-21.8-12.92-9.52,0-17.67,4.72-21.14,11.44a24.13,24.13,0,0,0-6.74-1c-8.17,0-15.18,4-18.32,9.68a18.19,18.19,0,0,0-12.9-5c-8.65,0-15.74,5.39-16.51,12.27Z"/><path class="cls-8" d="M2869.4,1191.79a12.85,12.85,0,0,0,.1-1.57c0-8.57-8.54-15.52-19.07-15.52a22.36,22.36,0,0,0-9.54,2.1c-2.57-7.92-11.4-13.77-21.94-13.77a25.22,25.22,0,0,0-16.74,6,26.71,26.71,0,0,0-11.14-2.39,25.43,25.43,0,0,0-16.2,5.53,21.64,21.64,0,0,0-12.53-3.84,22.31,22.31,0,0,0-9.74,2.2c-4.25-8.18-14.19-13.92-25.79-13.92-12,0-22.27,6.17-26.23,14.84a27,27,0,0,0-18-6.5c-11.41,0-21,6.39-23.62,15a21.17,21.17,0,0,0-14.3-5.25,22.25,22.25,0,0,0-10.54,2.58c-3-7.49-11.6-12.92-21.8-12.92-9.52,0-17.67,4.72-21.14,11.44a24.13,24.13,0,0,0-6.74-1c-8.17,0-15.18,4-18.32,9.68a18.19,18.19,0,0,0-12.9-5c-8.65,0-15.74,5.39-16.51,12.27Z"/><circle class="cls-15" cx="1121.91" cy="1198.7" r="2.75"/><circle class="cls-15" cx="1674.42" cy="1159.48" r="2.75"/><circle class="cls-15" cx="1530.61" cy="1196.63" r="2.75"/><circle class="cls-15" cx="1302.01" cy="1216.07" r="2.75"/><circle class="cls-15" cx="1267.43" cy="1223.98" r="2.75"/><circle class="cls-15" cx="870.08" cy="1282.64" r="2.75"/><circle class="cls-15" cx="366.72" cy="1364.34" r="2.75"/><circle class="cls-15" cx="1697.81" cy="1222.78" r="2.75"/><circle class="cls-15" cx="1670.98" cy="1193.88" r="2.75"/><circle class="cls-15" cx="1715.01" cy="1202.83" r="2.75"/><rect class="cls-24" y="1654" width="4000" height="846"/><g class="cls-25"><path class="cls-26" d="M4000,1522.16C3537.54,1449.07,2813,1402,1998.62,1402c-812.8,0-1536,46.87-1998.62,119.71v189.16H4000Z"/><path class="cls-27" d="M582.45,1448.82c504.17,145.35,1056.44,190.77,1588,118.31,192.26-26.21,391-74.34,550-159.18-139.2-20.09-279.9-34.56-421.66-33.07-.26,5.41-4.67,12.66-4.93,18.07-115.18,44.15-302.71,65.14-444.46,68.92-266.15,7.1-498.31-7.54-758.54-49.88Z"/></g><path class="cls-28" d="M1736.66,1674.25a61.54,61.54,0,0,1-2.12-8.12c-.54-2.73-1-5.47-1.27-8.22s-.53-5.52-.63-8.29a60.86,60.86,0,0,1,.22-8.39,60.71,60.71,0,0,1,2.12,8.12q.8,4.09,1.27,8.22c.31,2.75.53,5.52.63,8.29A61.55,61.55,0,0,1,1736.66,1674.25Z"/><path class="cls-28" d="M1742.36,1652.06a32.07,32.07,0,0,1,1.18,5.93,54.19,54.19,0,0,1,.32,5.93,53.23,53.23,0,0,1-.32,5.93,31.68,31.68,0,0,1-1.18,5.93,31.72,31.72,0,0,1-1.18-5.93,53.11,53.11,0,0,1-.32-5.93,54.19,54.19,0,0,1,.32-5.93A32.11,32.11,0,0,1,1742.36,1652.06Z"/><path class="cls-28" d="M1756.3,1645.35a47.6,47.6,0,0,1,.38,7.35c0,2.43-.21,4.85-.47,7.26s-.63,4.81-1.11,7.19a46.89,46.89,0,0,1-2,7.1,47,47,0,0,1-.38-7.35q.07-3.65.47-7.26c.27-2.41.63-4.8,1.11-7.19A47.55,47.55,0,0,1,1756.3,1645.35Z"/><path class="cls-28" d="M1760.1,1673.73a33.19,33.19,0,0,1,1-6.08,56,56,0,0,1,1.75-5.79,54.93,54.93,0,0,1,2.36-5.57,32.77,32.77,0,0,1,3.17-5.27,32.72,32.72,0,0,1-1,6.08,54.93,54.93,0,0,1-1.76,5.79,56,56,0,0,1-2.36,5.57A33.16,33.16,0,0,1,1760.1,1673.73Z"/><path class="cls-28" d="M1770.24,1674.76a32,32,0,0,1,2.35-5.56,53.84,53.84,0,0,1,3.06-5.08,52.88,52.88,0,0,1,3.59-4.72,31.6,31.6,0,0,1,4.3-4.24,31.63,31.63,0,0,1-2.35,5.56,53,53,0,0,1-3.06,5.08,54,54,0,0,1-3.59,4.72A32,32,0,0,1,1770.24,1674.76Z"/><path class="cls-28" d="M1729.69,1674.94a21.87,21.87,0,0,1-2.69-4.17,35.78,35.78,0,0,1-1.89-4.45,35.19,35.19,0,0,1-1.28-4.66,21.6,21.6,0,0,1-.47-4.95,21.62,21.62,0,0,1,2.7,4.17,35.28,35.28,0,0,1,1.89,4.45,35.79,35.79,0,0,1,1.28,4.66A21.84,21.84,0,0,1,1729.69,1674.94Z"/><path class="cls-28" d="M1722.09,1674.59a25.23,25.23,0,0,1-2.9-4.5,41.89,41.89,0,0,1-2.1-4.79,41.19,41.19,0,0,1-1.49-5,25,25,0,0,1-.69-5.31,24.94,24.94,0,0,1,2.9,4.5,41.18,41.18,0,0,1,2.1,4.79,41.89,41.89,0,0,1,1.49,5A25.29,25.29,0,0,1,1722.09,1674.59Z"/><path class="cls-28" d="M1712.38,1674.59a33.54,33.54,0,0,1-3.79-4.89,56.57,56.57,0,0,1-3-5.27,55.6,55.6,0,0,1-2.46-5.56,33.15,33.15,0,0,1-1.69-6,33.14,33.14,0,0,1,3.8,4.89,55.6,55.6,0,0,1,3,5.27,56.58,56.58,0,0,1,2.46,5.56A33.51,33.51,0,0,1,1712.38,1674.59Z"/><path class="cls-28" d="M1706.46,1674.25a25.16,25.16,0,0,1-4-3.52,41.68,41.68,0,0,1-3.32-4,41,41,0,0,1-2.8-4.4,24.88,24.88,0,0,1-2.11-4.91,24.83,24.83,0,0,1,4,3.52,41,41,0,0,1,3.32,4,41.79,41.79,0,0,1,2.8,4.4A25.15,25.15,0,0,1,1706.46,1674.25Z"/><path class="cls-28" d="M1703.51,1677.69a42.29,42.29,0,0,1-6.43-2.61q-3.08-1.53-6-3.34t-5.64-3.88a41.74,41.74,0,0,1-5.18-4.61,41.73,41.73,0,0,1,6.43,2.61q3.08,1.53,6,3.34t5.64,3.89A42.33,42.33,0,0,1,1703.51,1677.69Z"/><path class="cls-28" d="M2273.11,1672.61a60.22,60.22,0,0,1-4.51-7q-2-3.59-3.74-7.32t-3.16-7.59a59.48,59.48,0,0,1-2.37-8,59.39,59.39,0,0,1,4.52,7q2,3.59,3.74,7.32t3.15,7.59A60.21,60.21,0,0,1,2273.11,1672.61Z"/><path class="cls-28" d="M2267.08,1674.62a77.21,77.21,0,0,1-6-7.44c-1.89-2.56-3.65-5.2-5.34-7.89s-3.3-5.42-4.78-8.24a76.4,76.4,0,0,1-4.07-8.69,76.33,76.33,0,0,1,6.05,7.44c1.89,2.56,3.65,5.2,5.34,7.89s3.29,5.43,4.78,8.24A77.29,77.29,0,0,1,2267.08,1674.62Z"/><path class="cls-28" d="M2259.76,1674.62a39,39,0,0,1-5.89-3.1q-2.79-1.76-5.37-3.78a64.85,64.85,0,0,1-5-4.28,38.53,38.53,0,0,1-4.44-5,38.5,38.5,0,0,1,5.89,3.1,64.68,64.68,0,0,1,5.37,3.78q2.58,2,5,4.29A39,39,0,0,1,2259.76,1674.62Z"/><path class="cls-28" d="M2277.27,1676.73a67.57,67.57,0,0,1,1.25-8.88c.56-2.92,1.26-5.8,2-8.66s1.67-5.69,2.69-8.48a66.9,66.9,0,0,1,3.5-8.25,66.76,66.76,0,0,1-1.24,8.88c-.56,2.92-1.26,5.8-2.05,8.65s-1.67,5.69-2.69,8.48A67.66,67.66,0,0,1,2277.27,1676.73Z"/><path class="cls-28" d="M2294,1679.15a96.77,96.77,0,0,1,2-10.55c.81-3.47,1.77-6.9,2.8-10.31s2.17-6.78,3.44-10.11a95.68,95.68,0,0,1,4.24-9.86,95.57,95.57,0,0,1-2,10.55c-.81,3.47-1.77,6.9-2.81,10.3s-2.17,6.78-3.44,10.11A96.78,96.78,0,0,1,2294,1679.15Z"/><path class="cls-28" d="M2305.92,1676.82a101.26,101.26,0,0,1,1.89-10.82c.78-3.57,1.7-7.09,2.69-10.59s2.1-7,3.33-10.41a100,100,0,0,1,4.14-10.18,100,100,0,0,1-1.89,10.82c-.78,3.57-1.7,7.09-2.7,10.59s-2.1,7-3.34,10.41A101.15,101.15,0,0,1,2305.92,1676.82Z"/><path class="cls-28" d="M2317.4,1674.49a65.19,65.19,0,0,1,.9-8.59q.7-4.23,1.73-8.39t2.36-8.24a64.36,64.36,0,0,1,3.19-8,64.37,64.37,0,0,1-.9,8.59q-.7,4.23-1.74,8.39t-2.36,8.23A65.29,65.29,0,0,1,2317.4,1674.49Z"/><path class="cls-28" d="M2332.42,1672.15a101.48,101.48,0,0,1-1.17-10.94c-.24-3.65-.33-7.29-.33-10.94s.09-7.29.33-10.94a100.39,100.39,0,0,1,1.17-10.94,100.27,100.27,0,0,1,1.17,10.94c.24,3.65.33,7.29.33,10.94s-.1,7.29-.33,10.94A101.23,101.23,0,0,1,2332.42,1672.15Z"/><path class="cls-28" d="M2341,1675.65a79,79,0,0,1-1.38-9.6c-.31-3.2-.47-6.41-.55-9.62s-.05-6.42.11-9.63a78.07,78.07,0,0,1,1-9.65,78.16,78.16,0,0,1,1.39,9.6c.31,3.2.47,6.41.54,9.62s0,6.42-.12,9.63A78.91,78.91,0,0,1,2341,1675.65Z"/><path class="cls-28" d="M2349.11,1676.82A116.25,116.25,0,0,1,2349,1665c0-2,.19-3.9.29-5.86l.46-5.84c.35-3.89.83-7.77,1.4-11.64a114.85,114.85,0,0,1,2.24-11.56,114.86,114.86,0,0,1,.09,11.77c-.14,3.91-.38,7.81-.75,11.7l-.62,5.83c-.26,1.94-.47,3.88-.79,5.81A116.12,116.12,0,0,1,2349.11,1676.82Z"/><path class="cls-28" d="M2355.47,1678c.11-4,.51-8,1-12,.22-2,.55-4,.83-6l1-5.92c.71-3.94,1.55-7.85,2.48-11.75a120.56,120.56,0,0,1,3.31-11.6,120.56,120.56,0,0,1-1,12c-.5,4-1.1,7.93-1.83,11.87l-1.16,5.89c-.44,2-.83,3.92-1.32,5.86C2357.84,1670.28,2356.8,1674.16,2355.47,1678Z"/><path class="cls-28" d="M2371.25,1674.49a112.42,112.42,0,0,1-1-11.54c-.1-1.92-.1-3.84-.14-5.76l0-5.76c.06-3.84.25-7.68.54-11.51a111.07,111.07,0,0,1,1.39-11.5,111.2,111.2,0,0,1,1,11.54c.15,3.84.19,7.69.11,11.53l-.19,5.76c-.12,1.92-.18,3.84-.36,5.76A112.42,112.42,0,0,1,2371.25,1674.49Z"/><path class="cls-28" d="M2379.39,1673.9a62.61,62.61,0,0,1-.09-8.46c.14-2.8.4-5.58.76-8.35s.82-5.53,1.39-8.27a61.83,61.83,0,0,1,2.25-8.16,61.76,61.76,0,0,1,.09,8.46q-.21,4.2-.76,8.35t-1.4,8.27A62.6,62.6,0,0,1,2379.39,1673.9Z"/><path class="cls-28" d="M1797.41,1431.51a26.83,26.83,0,0,1,3,4.61,44.68,44.68,0,0,1,2.24,4.92,43.82,43.82,0,0,1,1.64,5.15,26.51,26.51,0,0,1,.83,5.45,26.48,26.48,0,0,1-3-4.61,43.75,43.75,0,0,1-2.23-4.92,44.66,44.66,0,0,1-1.63-5.15A26.82,26.82,0,0,1,1797.41,1431.51Z"/><path class="cls-28" d="M1808.32,1450a61.27,61.27,0,0,1-1.94-8.15c-.48-2.73-.84-5.47-1.1-8.23s-.42-5.51-.46-8.29a60.51,60.51,0,0,1,.4-8.37,60.58,60.58,0,0,1,1.95,8.15q.71,4.1,1.09,8.23c.26,2.75.41,5.51.45,8.29A61.34,61.34,0,0,1,1808.32,1450Z"/><path class="cls-28" d="M1813,1427.82a32.07,32.07,0,0,1,1.18,5.93,54.06,54.06,0,0,1,.32,5.93,53.11,53.11,0,0,1-.32,5.93,31.68,31.68,0,0,1-1.18,5.93,31.72,31.72,0,0,1-1.18-5.93,53.11,53.11,0,0,1-.32-5.93,54.19,54.19,0,0,1,.32-5.93A32.11,32.11,0,0,1,1813,1427.82Z"/><path class="cls-28" d="M1824.32,1421.11a47.33,47.33,0,0,1,.53,7.33c0,2.43-.11,4.84-.32,7.25s-.53,4.81-1,7.2a46.74,46.74,0,0,1-1.82,7.12,46.69,46.69,0,0,1-.53-7.33q0-3.64.33-7.25c.22-2.41.53-4.81,1-7.2A47.32,47.32,0,0,1,1824.32,1421.11Z"/><path class="cls-28" d="M1827.41,1449.49a31.93,31.93,0,0,1,.55-6,53.62,53.62,0,0,1,1.37-5.77,52.87,52.87,0,0,1,2-5.59,31.56,31.56,0,0,1,2.81-5.34,31.53,31.53,0,0,1-.55,6,52.77,52.77,0,0,1-1.37,5.77,53.75,53.75,0,0,1-2,5.58A31.93,31.93,0,0,1,1827.41,1449.49Z"/><path class="cls-28" d="M1835.67,1450.53a28.8,28.8,0,0,1,1.68-5.47,48.21,48.21,0,0,1,2.43-5.06,47.37,47.37,0,0,1,3-4.75,28.48,28.48,0,0,1,3.74-4.33,28.48,28.48,0,0,1-1.68,5.47,47.37,47.37,0,0,1-2.43,5.06,48.23,48.23,0,0,1-3,4.75A28.79,28.79,0,0,1,1835.67,1450.53Z"/><path class="cls-28" d="M2662.77,1628.12a26.85,26.85,0,0,1,3,4.61,44.67,44.67,0,0,1,2.24,4.91,43.85,43.85,0,0,1,1.64,5.15,26.48,26.48,0,0,1,.83,5.45,26.51,26.51,0,0,1-3-4.61,43.94,43.94,0,0,1-2.23-4.92,44.68,44.68,0,0,1-1.63-5.15A26.79,26.79,0,0,1,2662.77,1628.12Z"/><path class="cls-28" d="M2673.68,1646.61a61.41,61.41,0,0,1-1.94-8.15c-.48-2.73-.84-5.47-1.1-8.23s-.42-5.51-.46-8.29a60.51,60.51,0,0,1,.4-8.37,60.5,60.5,0,0,1,1.95,8.15q.71,4.1,1.09,8.23c.26,2.75.41,5.51.45,8.29A61.34,61.34,0,0,1,2673.68,1646.61Z"/><path class="cls-28" d="M2678.33,1624.42a32.11,32.11,0,0,1,1.18,5.93,54,54,0,0,1,.32,5.93,53.12,53.12,0,0,1-.32,5.93,31.68,31.68,0,0,1-1.18,5.93,31.72,31.72,0,0,1-1.18-5.93,53,53,0,0,1-.32-5.93,54.07,54.07,0,0,1,.32-5.93A32.11,32.11,0,0,1,2678.33,1624.42Z"/><path class="cls-28" d="M2689.68,1617.71a47.39,47.39,0,0,1,.53,7.33c0,2.43-.11,4.85-.32,7.25s-.53,4.81-1,7.2a46.75,46.75,0,0,1-1.82,7.12,46.69,46.69,0,0,1-.53-7.33q0-3.64.33-7.25c.22-2.41.53-4.81,1-7.2A47.39,47.39,0,0,1,2689.68,1617.71Z"/><path class="cls-28" d="M2692.78,1646.1a32,32,0,0,1,.55-6,53.89,53.89,0,0,1,1.37-5.77,52.87,52.87,0,0,1,2-5.59,31.52,31.52,0,0,1,2.81-5.34,31.57,31.57,0,0,1-.55,6,52.76,52.76,0,0,1-1.37,5.77,53.65,53.65,0,0,1-2,5.58A31.92,31.92,0,0,1,2692.78,1646.1Z"/><path class="cls-28" d="M2701,1647.13a28.84,28.84,0,0,1,1.68-5.47,48.23,48.23,0,0,1,2.43-5.06,47.37,47.37,0,0,1,3-4.75,28.48,28.48,0,0,1,3.74-4.33,28.45,28.45,0,0,1-1.68,5.47,47.25,47.25,0,0,1-2.43,5.06,48.2,48.2,0,0,1-3,4.75A28.8,28.8,0,0,1,2701,1647.13Z"/><path class="cls-29" d="M4000,2004.34c-462.46-1.89-1187-3.1-2001.38-3.1-812.8,0-1536,1.21-1998.62,3.09"/><path class="cls-30" d="M1105,1398.71c21.54,33.89,19.83,71.73,57.34,114.46,42.51,48.42,86.62,47.54,86.62,47.54s6.58-43.63-35.93-92c-37.6-42.82-74.34-45.9-105.91-71.83Z"/><path class="cls-31" d="M1186.33,1350.9c4.84,39.86-13,73.28,2.43,128,17.5,62,57.69,80.22,57.69,80.22s24.74-36.54,7.23-98.55c-15.48-54.84-47.32-73.45-64.63-110.45Z"/><path class="cls-30" d="M1342.59,1364.78c-23.47,32.58-59.25,45-85,95.74-29.18,57.45-12,98.08-12,98.08s43-10.09,72.13-67.53c25.81-50.81,15-86.07,27.38-125Z"/><path class="cls-32" d="M1279.18,1344.93c-12.42,38.19-42.69,61-51.74,117.1-10.26,63.61,18.51,97.06,18.51,97.06s37.83-22.71,48.1-86.32c9.08-56.26-12-86.55-12.06-127.41Z"/><path class="cls-31" d="M1414.84,1424.08c-34.93,19.81-72.64,16.2-117.2,51.52-50.49,40-51.83,84.13-51.83,84.13s43.24,8.77,93.74-31.26c44.66-35.4,49.57-71.94,77.06-102.17Z"/><path class="cls-32" d="M1064.3,1449.16c32.86,25.68,44.64,62.5,96.08,91.59,58.29,33,100.63,18.15,100.63,18.15s-9.13-43.91-67.42-76.88c-51.56-29.16-88.17-20.47-127.9-35.34Z"/><polygon class="cls-33" points="1947.58 1443.96 2010.55 1443.96 2010.59 1443.8 2011.05 1443.96 2037.01 1443.96 2062.61 1405.09 2035.17 1435.28 2062.61 1379.02 2037.03 1419.41 2066.09 1356.89 2020.46 1436.59 2057.37 1337.14 2013.21 1433.6 2041.67 1322.92 2006.49 1429.15 2025.1 1303.17 2000.43 1420.58 2008.53 1289.74 1991.04 1437.52 1990.22 1281.05 1983.7 1418.18 1977.14 1278.68 1976.35 1431.14 1961.44 1297.64 1968.53 1431.81 1937.02 1322.92 1956.92 1414.49 1924.78 1338.21 1956.38 1432.13 1915.22 1365.59 1949.13 1433.6 1911.73 1386.92 1947.58 1443.96"/><polygon class="cls-33" points="1424.29 1608.06 1487.26 1608.06 1487.3 1607.97 1487.76 1608.06 1513.72 1608.06 1539.32 1586.73 1511.88 1603.3 1539.32 1572.43 1513.74 1594.59 1542.8 1560.29 1497.17 1604.01 1534.08 1549.46 1489.92 1602.38 1518.39 1541.66 1483.2 1599.93 1501.82 1530.82 1477.14 1595.23 1485.24 1523.45 1467.75 1604.52 1466.93 1518.69 1460.41 1593.92 1453.85 1517.39 1453.06 1601.02 1438.15 1527.79 1445.24 1601.39 1413.73 1541.66 1433.64 1591.89 1401.49 1550.04 1433.09 1601.57 1391.93 1565.06 1425.84 1602.37 1388.44 1576.76 1424.29 1608.06"/><polygon class="cls-33" points="281.62 1546.72 344.59 1546.72 344.63 1546.64 345.09 1546.72 371.06 1546.72 396.65 1525.4 369.21 1541.96 396.65 1511.1 371.08 1533.26 400.14 1498.96 354.5 1542.68 391.42 1488.13 347.26 1541.04 375.72 1480.33 340.53 1538.6 359.15 1469.49 334.47 1533.9 342.58 1462.12 325.08 1543.19 324.26 1457.35 317.75 1532.58 311.18 1456.05 310.39 1539.69 295.48 1466.46 302.58 1540.06 271.07 1480.33 290.97 1530.56 258.83 1488.71 290.43 1540.23 249.26 1503.73 283.18 1541.04 245.77 1515.43 281.62 1546.72"/><path class="cls-34" d="M2903.46,1579.42c4.13-81.14,10-162,1.4-243-8.4-79.47-29.77-158.43-23.36-238.89,1.94-24.36,8.07-49.38,16.63-72.23"/><path class="cls-33" d="M3133.27,1497.66c-6.32,1.86-15.26,4.68-25.85,8.39-5.29,1.86-11,3.93-17,6.2s-12.3,4.72-18.77,7.36c-3.25,1.29-6.52,2.66-9.84,4.05s-6.67,2.79-10,4.26c-6.74,2.88-13.53,6-20.32,9s-13.52,6.25-20.11,9.46l-4.71,2.27,8.09-5c5.73-3.62,11.47-7.22,17-10.9,2.8-1.81,5.56-3.65,8.27-5.49s5.4-3.62,8-5.45c5.24-3.61,10.25-7.18,15-10.62s9.14-6.77,13.19-9.88c8.09-6.24,14.68-11.69,19.22-15.62s7-6.32,7-6.32-3.26,1.18-8.79,3.52-13.34,5.83-22.51,10.33c-4.59,2.25-9.52,4.75-14.7,7.46s-10.59,5.63-16.15,8.74c-2.79,1.53-5.59,3.14-8.43,4.77s-5.71,3.27-8.58,5c-5.76,3.37-11.53,6.93-17.32,10.47l-.62.39c4.18-3.38,8.37-6.82,12.56-10.25,6.36-5.32,12.73-10.62,18.9-16l4.62-4,4.53-4c3-2.64,6-5.24,8.86-7.86,5.8-5.19,11.34-10.28,16.56-15.15s10.09-9.55,14.55-13.91,8.5-8.42,12.05-12.05,6.61-6.85,9.1-9.53,4.41-4.84,5.73-6.28l2-2.27-2.6,1.54c-1.67,1-4.16,2.49-7.24,4.46s-6.82,4.36-11.06,7.17-9,6-14.09,9.6-10.61,7.5-16.38,11.71-11.79,8.71-18,13.45c-3.11,2.34-6.21,4.79-9.37,7.24l-4.76,3.71-4.76,3.8c-5,4-10,8.06-15,12.17,4.39-4.18,8.76-8.36,13-12.56l4.05-4,4-4c2.62-2.64,5.23-5.23,7.74-7.84,5.06-5.17,9.88-10.25,14.41-15.1s8.75-9.51,12.61-13.85,7.34-8.37,10.39-12,5.68-6.8,7.81-9.46c4.27-5.31,6.58-8.48,6.58-8.48s-3.3,2.12-8.85,6.07c-2.78,2-6.12,4.4-9.91,7.23s-8,6.08-12.58,9.67-9.45,7.54-14.57,11.77-10.47,8.75-15.93,13.49c-2.75,2.35-5.5,4.8-8.29,7.26l-4.21,3.72-4.2,3.81c-5.65,5.07-11.27,10.35-16.92,15.61s-11.17,10.63-16.57,16c-2.72,2.64-5.39,5.31-8,8s-5.23,5.24-7.74,7.85c-5.06,5.17-9.88,10.25-14.41,15.11q-4.57,4.91-8.7,9.49c1.23-1.63,2.47-3.29,3.74-5,4-5.43,8.2-11.18,12.44-17.18,2.15-3,4.26-6.07,6.41-9.18l3.25-4.69,3.22-4.78c4.35-6.38,8.62-12.95,12.91-19.5s8.45-13.2,12.49-19.78c2.05-3.27,4-6.54,6-9.78s3.89-6.43,5.74-9.61c3.75-6.33,7.27-12.5,10.58-18.39s6.34-11.5,9.11-16.71c5.53-10.43,9.88-19.28,12.82-25.54s4.47-9.94,4.47-9.94-2.74,2.9-7.24,8.15-10.8,12.85-18,22.16c-3.62,4.66-7.49,9.74-11.51,15.16s-8.2,11.17-12.44,17.18c-2.14,3-4.27,6.06-6.42,9.17s-4.33,6.26-6.47,9.47c-4.35,6.38-8.63,12.94-12.92,19.5s-8.47,13.19-12.5,19.77l-3,4.9-2.95,4.89-1.62,2.69c1.25-2.84,2.51-5.71,3.73-8.61,3.16-7.3,6.21-14.77,9.29-22.23s6-15,8.82-22.42l2.13-5.54,2-5.51c1.35-3.66,2.71-7.26,4-10.83,2.57-7.13,5-14.05,7.17-20.64s4.21-12.86,6-18.66,3.38-11.15,4.73-15.91,2.48-8.93,3.37-12.38,1.52-6.19,2-8,.65-2.87.65-2.87-.55.87-1.53,2.51-2.43,4.05-4.18,7.15-3.86,6.88-6.2,11.23-4.93,9.3-7.68,14.72-5.66,11.32-8.67,17.58-6.1,12.91-9.22,19.81c-1.59,3.44-3.12,7-4.7,10.53l-2.37,5.38-2.33,5.46c-3.16,7.3-6.2,14.77-9.27,22.24s-6,15-8.81,22.43c-1.44,3.7-2.82,7.4-4.16,11.06s-2.7,7.26-4,10.83c-2.57,7.13-5,14.05-7.17,20.64s-4.22,12.86-6,18.66c-.34,1.11-.68,2.19-1,3.27q.81-3,1.66-6.13c1.85-7,3.8-14.53,5.78-22.54s4-16.47,6-25.25c1-4.38,2-8.85,3-13.37s2-9.1,2.93-13.72c2-9.24,3.79-18.65,5.64-28.06s3.55-18.85,5.15-28.15l1.22-6.94,1.14-6.89c.75-4.57,1.52-9.07,2.19-13.52,1.4-8.88,2.66-17.49,3.8-25.67s2.11-15.92,3-23.08,1.56-13.74,2.13-19.58,1-10.94,1.35-15.15.51-7.53.67-9.79l.18-3.47-1.12,3.3c-.69,2.16-1.76,5.31-3,9.34s-2.72,8.94-4.35,14.57-3.4,12-5.26,19-3.8,14.53-5.78,22.54-4,16.48-6,25.25c-1,4.38-2,8.85-3,13.37l-1.49,6.82-1.43,6.9c-2,9.24-3.78,18.65-5.63,28.06s-3.54,18.85-5.14,28.15c-.84,4.65-1.61,9.27-2.35,13.83s-1.51,9.07-2.18,13.52c-1.41,8.88-2.66,17.49-3.79,25.67s-2.12,15.92-3,23.08c-.93,7.81-1.69,14.92-2.29,21.14-.6-6.22-1.36-13.33-2.29-21.14-.85-7.16-1.84-14.9-3-23.08s-2.39-16.78-3.79-25.67c-.67-4.45-1.42-9-2.18-13.52s-1.52-9.19-2.35-13.83c-1.6-9.31-3.38-18.73-5.14-28.15s-3.67-18.82-5.63-28.06l-1.43-6.9-1.49-6.82c-1-4.52-1.95-9-3-13.37-2-8.77-4-17.23-6-25.25s-3.93-15.57-5.78-22.54-3.64-13.34-5.26-19-3.1-10.54-4.35-14.57-2.31-7.19-3-9.34l-1.12-3.3.18,3.47c.16,2.26.32,5.58.67,9.79s.78,9.31,1.35,15.15,1.29,12.42,2.13,19.58,1.84,14.9,3,23.08,2.39,16.78,3.8,25.67c.67,4.45,1.43,9,2.19,13.52l1.14,6.89,1.22,6.94c1.6,9.31,3.39,18.73,5.15,28.15s3.68,18.82,5.64,28.06c.94,4.62,1.94,9.2,2.93,13.72s2,9,3,13.37c2,8.77,4,17.23,6,25.25q1.79,7.25,3.53,13.95c-.77-2.36-1.55-4.75-2.37-7.2-2.21-6.59-4.6-13.52-7.17-20.64-1.26-3.57-2.6-7.18-4-10.83s-2.72-7.35-4.16-11.06c-2.81-7.44-5.82-14.93-8.81-22.43s-6.12-14.94-9.27-22.24l-2.33-5.46-2.37-5.38c-1.57-3.56-3.11-7.09-4.7-10.53-3.11-6.9-6.23-13.54-9.22-19.81s-5.92-12.16-8.67-17.58-5.34-10.36-7.68-14.72-4.44-8.14-6.2-11.23-3.22-5.5-4.18-7.15-1.53-2.51-1.53-2.51.21,1,.65,2.87,1.07,4.6,2,8,2,7.62,3.37,12.38,2.94,10.11,4.73,15.91,3.81,12.07,6,18.66,4.6,13.52,7.17,20.64c1.25,3.58,2.61,7.18,4,10.83l2,5.51,2.13,5.54c2.81,7.44,5.83,14.92,8.82,22.42s6.13,14.94,9.29,22.23c1.22,2.91,2.48,5.77,3.73,8.61l-1.62-2.69-2.95-4.89-3-4.9c-4-6.58-8.28-13.16-12.5-19.77s-8.58-13.12-12.92-19.5c-2.14-3.21-4.31-6.36-6.47-9.47s-4.27-6.19-6.42-9.17c-4.24-6-8.43-11.76-12.44-17.18s-7.89-10.5-11.51-15.16c-7.25-9.31-13.53-16.91-18-22.16s-7.24-8.15-7.24-8.15,1.52,3.68,4.47,9.94,7.29,15.12,12.82,25.54c2.77,5.21,5.82,10.82,9.11,16.71s6.83,12.06,10.58,18.39c1.85,3.18,3.78,6.38,5.74,9.61s3.93,6.52,6,9.78c4,6.58,8.27,13.17,12.49,19.78s8.56,13.13,12.91,19.5l3.22,4.78,3.25,4.69c2.16,3.11,4.27,6.19,6.41,9.18,4.24,6,8.43,11.76,12.44,17.18,1.26,1.7,2.51,3.36,3.74,5q-4.13-4.58-8.7-9.49c-4.53-4.85-9.35-9.93-14.41-15.11-2.51-2.61-5.11-5.21-7.74-7.85s-5.28-5.31-8-8c-5.4-5.34-11-10.65-16.57-16s-11.26-10.54-16.92-15.61l-4.2-3.81-4.21-3.72c-2.79-2.46-5.53-4.91-8.29-7.26-5.46-4.74-10.82-9.25-15.93-13.49s-10-8.17-14.57-11.77-8.79-6.83-12.58-9.67-7.13-5.26-9.91-7.23c-5.55-4-8.85-6.07-8.85-6.07s2.31,3.17,6.58,8.48c2.13,2.66,4.76,5.85,7.81,9.46s6.54,7.64,10.39,12,8.08,9,12.61,13.85,9.35,9.93,14.41,15.1c2.51,2.61,5.11,5.2,7.74,7.84l4,4,4.05,4c4.24,4.2,8.62,8.38,13,12.56-5-4.11-10-8.21-15-12.17l-4.76-3.8-4.76-3.71c-3.16-2.46-6.26-4.9-9.37-7.24-6.17-4.73-12.21-9.22-18-13.45s-11.27-8.13-16.38-11.71-9.86-6.79-14.09-9.6-8-5.22-11.06-7.17-5.57-3.43-7.24-4.46l-2.6-1.54,2,2.27c1.32,1.45,3.22,3.62,5.73,6.28s5.55,5.89,9.1,9.53,7.6,7.69,12.05,12.05,9.34,9,14.55,13.91,10.76,10,16.56,15.15c2.88,2.62,5.86,5.21,8.86,7.86l4.53,4,4.62,4c6.17,5.35,12.55,10.65,18.9,16,4.79,3.92,9.57,7.85,14.34,11.69-5.65-3.36-11.29-6.73-16.93-9.91-2.84-1.65-5.7-3.24-8.52-4.8s-5.6-3.12-8.38-4.58c-5.52-3-10.9-5.77-16-8.38s-10-5-14.6-7.13c-9.11-4.3-16.86-7.63-22.35-9.84s-8.72-3.33-8.72-3.33,2.49,2.34,7,6.16,11.08,9.12,19.13,15.18c4,3,8.43,6.25,13.12,9.58s9.68,6.79,14.89,10.28c2.59,1.77,5.26,3.51,8,5.27s5.43,3.55,8.22,5.3c3.77,2.42,7.62,4.8,11.49,7.18-4-1.86-7.95-3.71-11.94-5.56-6.79-3.05-13.58-6.13-20.32-9-3.36-1.47-6.71-2.88-10-4.26s-6.59-2.76-9.84-4.05c-6.47-2.64-12.77-5.08-18.77-7.36s-11.71-4.34-17-6.2c-10.59-3.71-19.53-6.54-25.85-8.39s-10-2.76-10-2.76,3.09,2.21,8.63,5.76,13.52,8.48,23.26,14.05c4.87,2.79,10.17,5.74,15.81,8.8s11.62,6.21,17.85,9.38c3.1,1.61,6.28,3.19,9.5,4.79s6.48,3.22,9.79,4.8c6.59,3.22,13.35,6.34,20.11,9.47s13.57,6.14,20.32,9l5,2.18,5,2.09c3.32,1.38,6.59,2.77,9.84,4.06,6.47,2.64,12.77,5.09,18.77,7.36l2.4.9c-4-1.3-8.29-2.63-12.71-3.89-2.29-.69-4.64-1.31-7-2l-3.58-1-3.63-.91c-4.85-1.26-9.81-2.37-14.77-3.51s-9.95-2.12-14.88-3c-2.46-.49-4.91-.91-7.33-1.32s-4.81-.83-7.18-1.17c-4.72-.74-9.31-1.35-13.67-1.88s-8.5-.93-12.34-1.26c-7.67-.64-14.13-.89-18.68-.94s-7.19.1-7.19.1,2.33,1.25,6.47,3.12,10.1,4.37,17.33,7c3.62,1.32,7.55,2.69,11.72,4.05s8.59,2.73,13.19,4c2.29.69,4.63,1.32,7,2s4.77,1.3,7.2,1.89c4.85,1.26,9.81,2.38,14.77,3.52s9.95,2.14,14.88,3l3.67.7,3.65.62c2.42.41,4.81.84,7.18,1.18,4.72.74,9.31,1.35,13.66,1.88q3.1.37,6,.66h131.59q2.92-.3,6-.66c4.36-.53,8.94-1.14,13.66-1.88,2.37-.34,4.76-.76,7.18-1.18l3.65-.62,3.67-.7c4.93-.9,9.9-2,14.88-3s9.92-2.26,14.77-3.52c2.43-.59,4.83-1.24,7.2-1.89s4.71-1.27,7-2c4.59-1.31,9-2.69,13.19-4s8.11-2.73,11.72-4.05c7.23-2.65,13.19-5.14,17.33-7s6.47-3.12,6.47-3.12-2.64-.16-7.19-.1-11,.29-18.68.94c-3.84.33-8,.74-12.34,1.26s-8.95,1.14-13.67,1.88c-2.37.34-4.76.75-7.18,1.17s-4.87.83-7.33,1.32c-4.93.9-9.9,2-14.88,3s-9.92,2.25-14.77,3.51l-3.63.91-3.58,1c-2.37.65-4.72,1.27-7,2-4.42,1.27-8.67,2.59-12.71,3.89l2.4-.9c6-2.28,12.3-4.73,18.77-7.36,3.25-1.29,6.52-2.67,9.84-4.06l5-2.09,5-2.18c6.74-2.88,13.52-6,20.32-9s13.52-6.26,20.11-9.47c3.31-1.57,6.57-3.19,9.79-4.8s6.4-3.17,9.5-4.79c6.23-3.17,12.2-6.33,17.85-9.38s10.94-6,15.81-8.8c9.73-5.58,17.72-10.49,23.26-14.05s8.63-5.76,8.63-5.76S3139.58,1495.8,3133.27,1497.66Z"/><circle class="cls-35" cx="2901.22" cy="1007.76" r="7.22"/><circle class="cls-35" cx="2891.93" cy="1016.02" r="7.22"/><circle class="cls-35" cx="2889.87" cy="1027.37" r="7.22"/><circle class="cls-35" cx="2883.27" cy="1038.77" r="7.22"/><circle class="cls-35" cx="2882.24" cy="1049.4" r="7.22"/><circle class="cls-35" cx="2875.29" cy="1059.5" r="7.22"/><circle class="cls-35" cx="2876.32" cy="1072.6" r="7.22"/><circle class="cls-35" cx="2871.97" cy="1086.02" r="7.22"/><circle class="cls-35" cx="2874.75" cy="1097.06" r="7.22"/><circle class="cls-35" cx="2876.81" cy="1111.15" r="7.22"/><circle class="cls-35" cx="2882.38" cy="1118.06" r="7.22"/><circle class="cls-35" cx="2886.19" cy="1106.71" r="7.22"/><circle class="cls-35" cx="2890" cy="1095.4" r="7.22"/><circle class="cls-35" cx="2890" cy="1086.82" r="7.22"/><circle class="cls-35" cx="2903.91" cy="1020.45" r="7.22"/><circle class="cls-35" cx="2899.06" cy="1026.56" r="7.22"/><circle class="cls-35" cx="2899.06" cy="1039.35" r="7.22"/><circle class="cls-35" cx="2893.5" cy="1040.7" r="7.22"/><circle class="cls-35" cx="2894.22" cy="1052.13" r="7.22"/><circle class="cls-35" cx="2891.39" cy="1061.87" r="7.22"/><circle class="cls-35" cx="2887.89" cy="1057.07" r="7.22"/><circle class="cls-35" cx="2884.8" cy="1065.82" r="7.22"/><circle class="cls-35" cx="2882.02" cy="1081.3" r="7.22"/><circle class="cls-35" cx="2882.02" cy="1103.23" r="7.22"/><circle class="cls-35" cx="2883.05" cy="1090.54" r="7.22"/><circle class="cls-36" cx="2881.96" cy="1065.22" r="5.03"/><circle class="cls-36" cx="2882.65" cy="1094.8" r="5.03"/><circle class="cls-36" cx="2893.62" cy="1029.65" r="5.03"/><circle class="cls-36" cx="2897.75" cy="1020.7" r="5.03"/><circle class="cls-36" cx="2884.92" cy="1056.27" r="5.03"/><circle class="cls-35" cx="2888.25" cy="1075.68" r="7.22"/><path class="cls-37" d="M3270.49,1616.14c7.26,32.61-2.1,83.83-26.5,89.26s-54.61-37-61.87-69.58,7.54-59.39,31.94-64.82S3263.23,1583.54,3270.49,1616.14Z"/><path class="cls-37" d="M3232.17,1505c6.81,30.57-2,78.6-24.85,83.69s-51.2-34.67-58-65.24,7.07-55.68,29.95-60.78S3225.36,1474.47,3232.17,1505Z"/><path class="cls-37" d="M3441.51,1639.5c-5.8,30.78-32.81,71.45-55.84,67.11s-33.38-52.06-27.57-82.83,28.46-48.38,51.49-44S3447.32,1608.72,3441.51,1639.5Z"/><path class="cls-37" d="M3314.74,1520.72c5.57,25-1.61,64.34-20.34,68.51s-41.91-28.38-47.49-53.4,5.79-45.58,24.52-49.75S3309.17,1495.69,3314.74,1520.72Z"/><path class="cls-37" d="M3323.35,1459.31c-3.34,17.77-18.92,41.25-32.22,38.75s-19.28-30-15.94-47.8,16.41-27.93,29.71-25.43S3326.69,1441.54,3323.35,1459.31Z"/><path class="cls-38" d="M3226,1603c-.44,43.5-22.56,105.75-49.06,105.48s-47.35-63-46.91-106.45,22.23-73.14,48.73-72.87S3226.43,1559.53,3226,1603Z"/><circle class="cls-37" cx="3179.77" cy="1554.67" r="6.33" transform="translate(1592.91 4718.5) rotate(-89.42)"/><circle class="cls-37" cx="3152.4" cy="1577.02" r="6.33" transform="translate(1543.48 4713.25) rotate(-89.42)"/><circle class="cls-37" cx="3178.23" cy="1595.37" r="6.33" transform="translate(1550.69 4757.25) rotate(-89.42)"/><circle class="cls-37" cx="3200.59" cy="1620.48" r="6.33" transform="translate(1547.72 4804.47) rotate(-89.42)"/><circle class="cls-37" cx="3202.72" cy="1578.09" r="6.33" transform="translate(1592.21 4764.63) rotate(-89.42)"/><circle class="cls-37" cx="3156.46" cy="1622.3" r="6.33" transform="matrix(0.01, -1, 1, 0.01, 1502.22, 4762.14)"/><circle class="cls-37" cx="3178.27" cy="1646.84" r="6.33" transform="translate(1499.27 4808.23) rotate(-89.42)"/><circle class="cls-37" cx="3161.44" cy="1674.08" r="6.33" transform="translate(1455.37 4818.37) rotate(-89.42)"/><circle class="cls-37" cx="3190.1" cy="1676.46" r="6.33" transform="translate(1481.35 4849.38) rotate(-89.42)"/><path class="cls-38" d="M3259.13,1507.31c-12.71,22.69-44.74,47.56-61.72,38s-12.49-49.81.22-72.5,35.21-30.55,52.19-21S3271.85,1484.62,3259.13,1507.31Z"/><circle class="cls-37" cx="3238.84" cy="1471.6" r="6.33"/><circle class="cls-37" cx="3211.01" cy="1484.71" r="6.33"/><circle class="cls-37" cx="3235.29" cy="1503.93" r="6.33"/><circle class="cls-37" cx="3209.66" cy="1520.49" r="6.33"/><path class="cls-38" d="M3265.65,1404.83c-.93,20.06-14.43,48.29-29.44,47.59s-25.84-30.06-24.91-50.11,13.74-33.26,28.75-32.56S3266.58,1384.78,3265.65,1404.83Z"/><path class="cls-38" d="M3448.9,1511.94c-8.56,18.16-31.86,39.05-45.45,32.65s-12.33-37.67-3.77-55.84,25.45-25.44,39-19S3457.46,1493.78,3448.9,1511.94Z"/><path class="cls-38" d="M3338.6,1612.56c7.67,34.44-1.1,88.3-25.5,93.74s-55.2-39.62-62.87-74.06,6.85-62.49,31.25-67.92S3330.93,1578.12,3338.6,1612.56Z"/><path class="cls-38" d="M3350.71,1518.51c-6.08,26.85-31.1,61.72-51.2,57.17s-27.66-46.79-21.58-73.65,26.54-41.59,46.64-37S3356.79,1491.66,3350.71,1518.51Z"/><path class="cls-38" d="M3403.62,1608.27c-24.7,12.15-67.55,14.61-76.64-3.88s19-50.93,43.71-63.08,49-5.5,58.13,13S3428.32,1596.11,3403.62,1608.27Z"/><circle class="cls-37" cx="3227.43" cy="1410.8" r="6.33" transform="matrix(0.01, -1, 1, 0.01, 1783.95, 4623.74)"/><circle class="cls-37" cx="3250.37" cy="1410.96" r="6.33" transform="translate(1806.5 4646.84) rotate(-89.42)"/><circle class="cls-37" cx="3411.03" cy="1499.9" r="6.33" transform="translate(1876.6 4895.54) rotate(-89.42)"/><circle class="cls-37" cx="3236.96" cy="1433.8" r="6.33" transform="translate(1770.38 4656.04) rotate(-89.42)"/><circle class="cls-37" cx="3318.11" cy="1489.65" r="6.33" transform="matrix(0.01, -1, 1, 0.01, 1794.86, 4792.47)"/><circle class="cls-37" cx="3297.61" cy="1513.31" r="6.33" transform="translate(1750.91 4795.39) rotate(-89.42)"/><circle class="cls-37" cx="3327.57" cy="1520.4" r="6.33" transform="matrix(0.01, -1, 1, 0.01, 1773.48, 4832.38)"/><circle class="cls-37" cx="3303.91" cy="1545.64" r="6.33" transform="translate(1724.83 4833.7) rotate(-89.42)"/><circle class="cls-37" cx="3282.62" cy="1589.01" r="6.33" transform="translate(1660.39 4855.34) rotate(-89.42)"/><circle class="cls-37" cx="3269.72" cy="1621.74" r="6.33" transform="translate(1614.89 4874.84) rotate(-89.42)"/><circle class="cls-37" cx="3296.03" cy="1637.9" r="6.33" transform="translate(1624.77 4917.13) rotate(-89.42)"/><circle class="cls-37" cx="3310.05" cy="1688.31" r="6.33" transform="translate(1588.23 4981.06) rotate(-89.42)"/><circle class="cls-37" cx="3283.41" cy="1666.28" r="6.33" transform="translate(1583.9 4932.62) rotate(-89.42)"/><circle class="cls-37" cx="3321.26" cy="1653.67" r="6.33" transform="translate(1633.98 4957.98) rotate(-89.42)"/><circle class="cls-37" cx="3352.8" cy="1593.74" r="6.33" transform="translate(1725.13 4930.2) rotate(-89.42)"/><circle class="cls-37" cx="3364.63" cy="1565.35" r="6.33" transform="matrix(0.01, -1, 1, 0.01, 1765.22, 4913.92)"/><circle class="cls-37" cx="3386.71" cy="1594.53" r="6.33" transform="translate(1757.9 4964.88) rotate(-89.42)"/><circle class="cls-37" cx="3402.48" cy="1566.14" r="6.33" transform="translate(1801.9 4952.55) rotate(-89.42)"/><circle class="cls-37" cx="3419.25" cy="1523.97" r="6.33" transform="translate(1860.67 4927.58) rotate(-89.42)"/><circle class="cls-37" cx="3434.21" cy="1492.59" r="6.33" transform="translate(1906.85 4911.47) rotate(-89.42)"/><circle class="cls-37" cx="3307.92" cy="1608.7" r="6.33" transform="translate(1665.74 4900.12) rotate(-89.42)"/><polygon class="cls-39" points="2803.55 1588.39 2764.85 1549.69 2714.83 1556.83 2688.99 1543.5 2664.22 1585.29 2803.55 1588.39"/><polygon class="cls-38" points="2908.82 1610.06 2871.66 1565.17 2805.1 1563.62 2764.85 1606.97 2908.82 1610.06"/><polygon class="cls-40" points="990.79 1690.34 1048.07 1645.44 1102.25 1645.44 1148.69 1671.76 1156.43 1707.36 984.6 1707.36 990.79 1690.34"/><polygon class="cls-39" points="939.7 1707.36 1037.23 1707.36 1017.11 1673.31 973.76 1660.92 939.7 1707.36"/><polygon class="cls-39" points="416.23 1636.87 513.76 1636.87 493.63 1602.81 450.29 1590.42 416.23 1636.87"/><path class="cls-38" d="M2242.37,1424.35c22.49-24.84,56-68.43,60.72-75.26,6.76-9.88,6.9-21.54.31-26s-17.4-.15-24.16,9.73c-4.05,5.93-26.07,42.23-41.61,71.31,8.16-31.93,16.43-73.52,17.44-80.62,1.69-11.85-3.35-22.37-11.25-23.49s-15.67,7.57-17.36,19.42c-1,6.86-4.43,46.47-5.63,78.84-5.17-32.09-13.55-71.4-15.38-78.13-3.13-11.55-11.91-19.23-19.62-17.14s-11.41,13.15-8.27,24.7c1.7,6.26,12.74,39.72,23.72,68.76-16.42-26.47-36.45-55.84-40.41-61-7.27-9.51-18.3-13.29-24.64-8.44s-5.59,16.48,1.68,26c5,6.52,40.26,47.67,64,71.39Z"/><polygon class="cls-38" points="2409.95 1619.79 2431.62 1599.15 2451.23 1601.21 2473.94 1606.37 2488.39 1620.82 2409.95 1619.79"/><polygon class="cls-38" points="3501.89 1550.79 3523.57 1530.15 3543.18 1532.22 3565.89 1537.38 3580.33 1551.83 3501.89 1550.79"/><polygon class="cls-38" points="271.06 1678.29 292.73 1657.64 312.34 1659.71 335.05 1664.87 349.5 1679.32 271.06 1678.29"/><polygon class="cls-38" points="872.14 1570.25 890.72 1554.77 905.17 1556.83 910.33 1569.22 872.14 1570.25"/><path class="cls-32" d="M935.1,1602.24l20.64-10.32s8.26,3.1,11.35,3.1,14.45,4.13,14.45,4.13l1,9.29-57.8,1Z"/><path class="cls-32" d="M399.63,1629.24l20.64-10.32s8.26,3.1,11.35,3.1,14.45,4.13,14.45,4.13l1,9.29-57.8,1Z"/><ellipse class="cls-41" cx="1532.68" cy="1642.5" rx="8.26" ry="4.13"/><ellipse class="cls-42" cx="1037.28" cy="1553.74" rx="8.26" ry="4.13"/><ellipse class="cls-43" cx="534.22" cy="1543.34" rx="8.26" ry="4.13"/><ellipse class="cls-32" cx="985.67" cy="1535.16" rx="4.97" ry="2.48"/><ellipse class="cls-32" cx="1091.98" cy="1547.54" rx="4.97" ry="2.48"/><ellipse class="cls-32" cx="1117.78" cy="1561.99" rx="4.97" ry="2.48"/><ellipse class="cls-32" cx="2790.6" cy="1681.72" rx="4.97" ry="2.48"/><ellipse class="cls-32" cx="1975.25" cy="1673.46" rx="4.97" ry="2.48"/><ellipse class="cls-32" cx="1692.84" cy="1425.76" rx="4.97" ry="2.48"/><ellipse class="cls-27" cx="2028.08" cy="1660.65" rx="4.97" ry="2.48"/><ellipse class="cls-27" cx="2496.65" cy="1671.81" rx="4.97" ry="2.48"/><ellipse class="cls-27" cx="2641.14" cy="1488.1" rx="4.97" ry="2.48"/><ellipse class="cls-44" cx="1319.03" cy="1639.4" rx="8.26" ry="4.13"/><ellipse class="cls-45" cx="1346.9" cy="1576.44" rx="8.26" ry="4.13"/><ellipse class="cls-46" cx="2568.1" cy="1544.29" rx="8.26" ry="4.13"/><ellipse class="cls-47" cx="2077.62" cy="1628.05" rx="8.26" ry="4.13"/><ellipse class="cls-32" cx="3588.37" cy="1649.53" rx="4.97" ry="2.48"/><ellipse class="cls-27" cx="3641.2" cy="1636.73" rx="4.97" ry="2.48"/><ellipse class="cls-48" cx="3690.74" cy="1604.12" rx="8.26" ry="4.13"/><ellipse class="cls-49" cx="3022.36" cy="1640.15" rx="8.26" ry="4.13"/><ellipse class="cls-50" cx="2887.05" cy="1658.86" rx="8.26" ry="4.13"/><path class="cls-28" d="M1160.37,1645.58a70,70,0,0,1-1.6-9c-.38-3-.61-6-.76-9s-.2-6-.1-9.06a69.24,69.24,0,0,1,.74-9.1,69.25,69.25,0,0,1,1.6,9c.38,3,.61,6,.76,9s.19,6,.1,9.06A70.07,70.07,0,0,1,1160.37,1645.58Z"/><path class="cls-28" d="M1170.07,1640.92a57.77,57.77,0,0,1-.53-8.11c0-2.69.11-5.37.32-8s.53-5.34,1-8a57.07,57.07,0,0,1,1.82-7.93,57.14,57.14,0,0,1,.53,8.11q0,4-.33,8c-.22,2.67-.53,5.34-1,8A57.84,57.84,0,0,1,1170.07,1640.92Z"/><path class="cls-28" d="M1181.35,1637.37a85.84,85.84,0,0,1,.46-10.1c.3-3.34.75-6.66,1.29-10s1.17-6.6,1.94-9.86a84.82,84.82,0,0,1,2.77-9.73,85,85,0,0,1-.46,10.1c-.3,3.34-.75,6.66-1.29,10s-1.17,6.6-1.94,9.86A85.94,85.94,0,0,1,1181.35,1637.37Z"/><path class="cls-28" d="M1190.4,1635.62a73.38,73.38,0,0,1,.91-9.3c.45-3.07,1-6.1,1.72-9.11s1.45-6,2.37-9a72.6,72.6,0,0,1,3.19-8.78,72.66,72.66,0,0,1-.9,9.3c-.45,3.07-1,6.1-1.73,9.11s-1.46,6-2.37,9A73.29,73.29,0,0,1,1190.4,1635.62Z"/><path class="cls-28" d="M1200.3,1643.73a58.44,58.44,0,0,1,1.25-8.07q.87-4,2.06-7.82t2.68-7.63a57.55,57.55,0,0,1,3.5-7.38,57.61,57.61,0,0,1-1.24,8.07q-.87,4-2.06,7.82t-2.68,7.63A58.36,58.36,0,0,1,1200.3,1643.73Z"/><path class="cls-28" d="M590.29,1663.19a70,70,0,0,1-1.6-9c-.38-3-.61-6-.76-9s-.2-6-.1-9.06a69.24,69.24,0,0,1,.74-9.1,69.25,69.25,0,0,1,1.6,9c.38,3,.61,6,.76,9s.19,6,.1,9.06A70.07,70.07,0,0,1,590.29,1663.19Z"/><path class="cls-28" d="M600,1658.53a57.77,57.77,0,0,1-.53-8.11c0-2.69.11-5.37.32-8s.53-5.34,1-8a57.07,57.07,0,0,1,1.82-7.93,57.14,57.14,0,0,1,.53,8.11q0,4-.33,8c-.22,2.67-.53,5.34-1,8A57.84,57.84,0,0,1,600,1658.53Z"/><path class="cls-28" d="M611.27,1655a85.84,85.84,0,0,1,.46-10.1c.3-3.34.75-6.66,1.29-10s1.17-6.6,1.94-9.86a84.82,84.82,0,0,1,2.77-9.73,85,85,0,0,1-.46,10.1c-.3,3.34-.75,6.66-1.29,10s-1.17,6.6-1.94,9.86A85.94,85.94,0,0,1,611.27,1655Z"/><path class="cls-28" d="M620.31,1653.23a73.38,73.38,0,0,1,.91-9.3c.45-3.07,1-6.1,1.72-9.11s1.45-6,2.37-9a72.59,72.59,0,0,1,3.19-8.78,72.66,72.66,0,0,1-.9,9.3c-.45,3.07-1,6.1-1.73,9.11s-1.46,6-2.37,9A73.29,73.29,0,0,1,620.31,1653.23Z"/><path class="cls-28" d="M630.22,1661.34a58.44,58.44,0,0,1,1.25-8.07q.87-4,2.06-7.82t2.68-7.63a57.55,57.55,0,0,1,3.5-7.38,57.61,57.61,0,0,1-1.24,8.07q-.87,4-2.06,7.82t-2.68,7.63A58.36,58.36,0,0,1,630.22,1661.34Z"/><path class="cls-51" d="M1793.57,1243.59l-43.05,22.31a22.09,22.09,0,0,0-5,35.68l49.07,46.24,6.71,12.39.52-35.09-20.13-34.57,17.55-2.58,14.45-36.64-20.13-7.74"/><path class="cls-32" d="M1609.34,1532.19a91.82,91.82,0,1,1,91.82-91.82A91.92,91.92,0,0,1,1609.34,1532.19Zm0-170.22a78.4,78.4,0,1,0,78.4,78.4A78.49,78.49,0,0,0,1609.34,1362Z"/><path class="cls-32" d="M1786.54,1289.84l12.71-1.87,14.45-36.64-20.13-7.74-35.8,18.56C1767.59,1271.14,1777,1280.58,1786.54,1289.84Z"/><path class="cls-52" d="M1825.59,1368.44l13.13,18.4-8.05,7.54-24.34,29.33A3.73,3.73,0,0,1,1803,1425h0a3.73,3.73,0,0,1-2.88-5.38l12.49-24.84,1.06-14.72"/><path class="cls-32" d="M1915.53,1532.19a91.82,91.82,0,1,1,91.82-91.82A91.92,91.92,0,0,1,1915.53,1532.19Zm0-170.22a78.4,78.4,0,1,0,78.4,78.4A78.49,78.49,0,0,0,1915.53,1362Z"/><circle class="cls-52" cx="1915.53" cy="1440.37" r="14.04"/><polyline class="cls-53" points="1823.5 1366.41 1816.28 1355.06 1808.02 1376.22 1811.63 1383.44 1825.05 1368.99"/><path class="cls-54" d="M1787.47,1464.29,1809,1341.65l-141.81-34.7,2-8,141.28,34.57,6.94-39.53,8.13,1.43-7.33,41.78L1924,1442.49Zm29-117.2-18.82,107.22,109.09-17.42Z"/><rect class="cls-54" x="1549.52" y="1351.88" width="189.32" height="8.26" transform="translate(-227.79 2374.74) rotate(-68.07)"/><rect class="cls-54" x="1724.94" y="1282.35" width="8.26" height="200.65" transform="translate(-484.3 1333.33) rotate(-37.37)"/><rect class="cls-54" x="1668.43" y="1217.85" width="8.26" height="88.14" transform="translate(-75.2 2417.43) rotate(-70.5)"/><path class="cls-52" d="M1714.1,1282.3a5.67,5.67,0,0,1-1.89-.33l-22.84-8.08a5.68,5.68,0,0,1,3.79-10.7l22.84,8.08a5.68,5.68,0,0,1-1.89,11Z"/><path class="cls-52" d="M1658.61,1262.65a5.67,5.67,0,0,1-1.89-.33l-27.59-9.77a5.68,5.68,0,0,1,3.79-10.7l27.59,9.77a5.68,5.68,0,0,1-1.89,11Z"/><path class="cls-55" d="M1865.3,1211.6c24.25,28.9,1,60.38,1,60.38l-47.48,73.79-9.8,95-16.51-1-3.61-95.47,13.42-85.66-8.77-15Z"/><path class="cls-31" d="M1794.18,1310.7c13.55,3.84,27.47,6.33,41.25,9.32l30.91-48s23.22-31.48-1-60.38l-71.73,32,8.77,15Z"/><path class="cls-55" d="M1696.56,1086.72l.62,6.45a38.7,38.7,0,0,1-6.3,27.09c4.13,0,7-.26,7-.26l.5,11.38c0,6.44,5,7.34,9.94,6.62a13.29,13.29,0,0,1,14.25,8.68l.34.92,21.67-15v-38.7l-7.74-7.74-16-.52Z"/><polygon class="cls-53" points="1792.54 1439.69 1791.51 1452.08 1808.54 1452.59 1809.05 1440.72 1792.54 1439.69"/><polygon class="cls-56" points="1738.87 1175.48 1738.87 1212.12 1759.51 1212.12 1760.55 1186.83 1738.87 1175.48"/><path class="cls-52" d="M1791.51,1452.08l-8.77,11.87-23.84,14.3a3.73,3.73,0,0,0-.44,6.08h0a3.73,3.73,0,0,0,3.51.66l36.25-11.76,10.84-2.06-.52-18.58"/><path class="cls-57" d="M1751.77,1129.55c67.7,19.1,113.53,82.05,113.53,82.05l-71.73,32-57.28-66.05-9.29,13.93-18.06-10.84,15.48-40.25S1731.65,1123.87,1751.77,1129.55Z"/><polygon class="cls-55" points="1727 1191.47 1714.62 1212.12 1657.85 1243.59 1642.37 1237.4 1704.3 1192.51 1708.94 1180.64 1727 1191.47"/><polygon class="cls-51" points="1738.87 1212.12 1736.81 1228.11 1699.13 1259.59 1708.42 1265.27 1755.38 1234.82 1759.51 1212.12 1738.87 1212.12"/><path class="cls-55" d="M1633.6,1250.3l16.51,6.19s9.8-2.06,7.74-12.9l-15.48-6.19S1631,1238.95,1633.6,1250.3Z"/><path class="cls-51" d="M1689.33,1268.36l16.51,6.19s8.77.52,6.71-10.32l-15.48-6.19S1686.75,1257,1689.33,1268.36Z"/><circle class="cls-30" cx="1754" cy="1118.37" r="13.93"/><path class="cls-30" d="M1745.06,1117.16c-24.77-1.55-28.38-19.61-28.38-19.61l17-6.19,18.58-3.61.52,22.71Z"/><circle class="cls-52" cx="1703.9" cy="1113.2" r="2.58"/><path class="cls-52" d="M1714.36,1142.19a2.06,2.06,0,0,1-2.06-2.06v-45.9a2.06,2.06,0,0,1,4.13,0v38.2l20.92-36.17a2.06,2.06,0,0,1,3.57,2.07l-24.77,42.83A2.07,2.07,0,0,1,1714.36,1142.19Z"/><path class="cls-58" d="M1687.06,1098.84h54.64a14.19,14.19,0,0,0,5.92-1.29l17.09-7.85a5.29,5.29,0,0,0,2-8.09c-6.23-7.77-22.45-19.77-60.05-9.86,0,0-18.18,5.29-23.54,21.6A4.19,4.19,0,0,0,1687.06,1098.84Z"/><rect class="cls-38" x="1722.66" y="1385.91" width="19.25" height="45.93" rx="3.4" ry="3.4" transform="translate(-499.67 1344.62) rotate(-37.47)"/><rect class="cls-59" x="1710.37" y="1381.39" width="4.83" height="4.9" transform="translate(-488.46 1327.59) rotate(-37.47)"/><rect class="cls-31" x="1709.23" y="1386.4" width="15.48" height="5.25" transform="translate(-490.75 1331.2) rotate(-37.47)"/><rect class="cls-31" x="1709.41" y="1384.46" width="10.37" height="2.95" transform="translate(-489.36 1329.13) rotate(-37.47)"/><rect class="cls-52" x="1715.93" y="1396.79" width="27.18" height="4.13" transform="translate(-494.81 1378.3) rotate(-38.44)"/><rect class="cls-52" x="1727.28" y="1411.24" width="27.18" height="4.13" transform="translate(-501.33 1388.49) rotate(-38.44)"/></svg>