<svg id="BACKGROUND" xmlns="http://www.w3.org/2000/svg" xmlns:xlink="http://www.w3.org/1999/xlink" viewBox="0 0 4000 2500"><defs><style>.cls-1{fill:#ffe67b;}.cls-2{fill:url(#linear-gradient);}.cls-3{fill:url(#linear-gradient-2);}.cls-4{fill:url(#linear-gradient-3);}.cls-5{fill:#c2774e;}.cls-6{fill:#ffefac;}.cls-7{fill:#e6b86a;}.cls-10,.cls-8{fill:#daa162;}.cls-22,.cls-8{stroke:#ffd577;}.cls-8{stroke-miterlimit:10;stroke-width:3px;}.cls-9{fill:#ffd577;}.cls-11{fill:#fff;}.cls-12{fill:url(#linear-gradient-4);}.cls-13{fill:url(#linear-gradient-5);}.cls-14{fill:url(#linear-gradient-6);}.cls-15{fill:url(#linear-gradient-7);}.cls-16{fill:url(#linear-gradient-8);}.cls-17{fill:url(#linear-gradient-9);}.cls-18{fill:url(#linear-gradient-10);}.cls-19{fill:url(#linear-gradient-11);}.cls-20{fill:url(#linear-gradient-12);}.cls-21{fill:url(#linear-gradient-13);}.cls-22{fill:none;stroke-linecap:round;stroke-linejoin:round;stroke-width:10px;}.cls-23{fill:#ffd680;}.cls-24{fill:url(#New_Gradient_Swatch_copy);}</style><linearGradient id="linear-gradient" x1="893.44" y1="543.45" x2="893.44" y2="754.84" gradientUnits="userSpaceOnUse"><stop offset="0" stop-color="#fff2a7"/><stop offset="0.99" stop-color="#ffe67b"/></linearGradient><linearGradient id="linear-gradient-2" x1="2960.42" y1="639.45" x2="2960.42" y2="828.47" xlink:href="#linear-gradient"/><linearGradient id="linear-gradient-3" x1="1892" y1="744.46" x2="1892" y2="970.21" xlink:href="#linear-gradient"/><linearGradient id="linear-gradient-4" x1="981.44" y1="1159.86" x2="1075.18" y2="1159.86" gradientUnits="userSpaceOnUse"><stop offset="0" stop-color="#fff" stop-opacity="0"/><stop offset="1" stop-color="#f6d574"/></linearGradient><linearGradient id="linear-gradient-5" x1="1067.02" y1="1021.66" x2="1114.2" y2="1021.66" xlink:href="#linear-gradient-4"/><linearGradient id="linear-gradient-6" x1="1436.72" y1="1159.86" x2="1530.46" y2="1159.86" xlink:href="#linear-gradient-4"/><linearGradient id="linear-gradient-7" x1="1522.29" y1="1021.66" x2="1569.47" y2="1021.66" xlink:href="#linear-gradient-4"/><linearGradient id="linear-gradient-8" x1="1892" y1="1159.86" x2="1985.74" y2="1159.86" xlink:href="#linear-gradient-4"/><linearGradient id="linear-gradient-9" x1="1977.57" y1="1021.66" x2="2024.75" y2="1021.66" xlink:href="#linear-gradient-4"/><linearGradient id="linear-gradient-10" x1="2347.27" y1="1159.86" x2="2441.01" y2="1159.86" xlink:href="#linear-gradient-4"/><linearGradient id="linear-gradient-11" x1="2432.85" y1="1021.66" x2="2480.03" y2="1021.66" xlink:href="#linear-gradient-4"/><linearGradient id="linear-gradient-12" x1="2802.55" y1="1159.86" x2="2896.29" y2="1159.86" xlink:href="#linear-gradient-4"/><linearGradient id="linear-gradient-13" x1="2888.12" y1="1021.66" x2="2935.3" y2="1021.66" xlink:href="#linear-gradient-4"/><linearGradient id="New_Gradient_Swatch_copy" x1="2000" y1="2500" x2="2000" y2="1430.46" gradientUnits="userSpaceOnUse"><stop offset="0" stop-color="#121a3c"/><stop offset="1" stop-color="#1d3658"/></linearGradient></defs><title>v copy 9</title><rect class="cls-1" width="4000" height="1064.27"/><path class="cls-2" d="M1518.8,711.47H268.08s30.48-82.54,102.58-120.75a161.84,161.84,0,0,1,76.8-19c127.78,0,169.55,97.12,272.75,97.12s174.46-215.56,415.27-215.56S1518.8,711.47,1518.8,711.47Z"/><path class="cls-3" d="M3689.67,812.36H2231.17s105.15-213.7,237.74-213.7,96.17,58.77,224.39,58.77,137.82-211,341.38-211,208.21,226.33,298.93,251.1c88.32,24.12,91.62-42.74,195.8-42.74S3689.67,812.36,3689.67,812.36Z"/><path class="cls-4" d="M2184,989.08H1600s11.78-189.33,167.6-189.33c63.76,0,99.33,25.39,119.1,55.39,23.37,35.47,69.16,49.25,107.29,30.53,17.75-8.72,37.11-14.71,56.78-14.71C2122.82,871,2184,989.08,2184,989.08Z"/><circle class="cls-5" cx="3270.41" cy="1028.9" r="25.57"/><circle class="cls-5" cx="3170.53" cy="1020.9" r="25.57"/><circle class="cls-5" cx="2943.03" cy="1015.27" r="25.57"/><circle class="cls-5" cx="2837.03" cy="1054.47" r="25.57"/><circle class="cls-5" cx="2870.03" cy="1046.47" r="25.57"/><circle class="cls-5" cx="2890.03" cy="1025.08" r="25.57"/><circle class="cls-5" cx="2914.41" cy="1010.27" r="19.11"/><circle class="cls-5" cx="2857.59" cy="1028.9" r="12.44"/><circle class="cls-5" cx="3031.03" cy="1049.47" r="25.57"/><circle class="cls-5" cx="3131.34" cy="1038.7" r="25.57"/><circle class="cls-5" cx="3152.15" cy="1054.47" r="25.57"/><circle class="cls-5" cx="3216.91" cy="1010.27" r="39.19"/><circle class="cls-5" cx="2785.75" cy="1068.27" r="39.19"/><circle class="cls-5" cx="2975.41" cy="1052.32" r="39.19"/><circle class="cls-5" cx="2914.41" cy="1054.47" r="39.19"/><circle class="cls-5" cx="3089.91" cy="1064.27" r="46.79"/><circle class="cls-5" cx="3256.1" cy="1064.27" r="39.19"/><circle class="cls-5" cx="3196.1" cy="1064.27" r="39.19"/><circle class="cls-5" cx="1294.88" cy="1048.83" r="19.44"/><circle class="cls-5" cx="1385.55" cy="1024.83" r="19.44"/><circle class="cls-5" cx="1389.88" cy="1048.83" r="19.44"/><circle class="cls-5" cx="1468.88" cy="1060.42" r="19.44"/><circle class="cls-5" cx="1429.21" cy="1040.98" r="29.55"/><circle class="cls-5" cx="1344.67" cy="1031.03" r="39.5"/><circle class="cls-5" cx="701" cy="1006.53" r="29.92"/><circle class="cls-5" cx="731.2" cy="1018.78" r="19.53"/><circle class="cls-5" cx="536.2" cy="1050.78" r="19.53"/><circle class="cls-5" cx="704" cy="1031.03" r="29.92"/><circle class="cls-5" cx="782.67" cy="1063.03" r="33"/><circle class="cls-5" cx="632.67" cy="1060.03" r="33"/><circle class="cls-5" cx="820.67" cy="1051.03" r="33"/><circle class="cls-5" cx="670.67" cy="1031.03" r="33"/><circle class="cls-5" cx="755.67" cy="1033.03" r="11.67"/><circle class="cls-5" cx="518.67" cy="1057.03" r="11.67"/><circle class="cls-5" cx="558.67" cy="1054.36" r="11.67"/><circle class="cls-5" cx="738" cy="1054.47" r="26.33"/><rect class="cls-6" y="1054.47" width="4000" height="269.83"/><polygon class="cls-7" points="1610.4 1243.27 1607.73 1240.05 1611.83 1238.98 1614.51 1240.41 1616.48 1239.87 1617.19 1243.27 1610.4 1243.27"/><polygon class="cls-7" points="873.95 1275.51 871.27 1272.29 875.38 1271.22 878.05 1272.65 880.02 1272.11 880.73 1275.51 873.95 1275.51"/><polygon class="cls-7" points="1164.67 1239.7 1171 1235.03 1174.64 1237.36 1177 1235.03 1181.67 1235.03 1176.67 1242.36 1164.67 1239.7"/><polygon class="cls-7" points="2756.17 1223.36 2754.17 1217.03 2757.67 1216.2 2759.33 1217.36 2765 1216.2 2766.5 1222.03 2756.17 1223.36"/><polygon class="cls-7" points="3161.5 1212.36 3162.75 1209.36 3167.25 1210.86 3170 1209.36 3168.75 1214.86 3161.5 1212.36"/><polygon class="cls-7" points="2173.17 1169.38 2173.17 1164.05 2171.65 1163.27 2170.77 1157.85 2164.08 1157.85 2161.93 1160.63 2158.71 1160.98 2159.93 1169.38 2173.17 1169.38"/><polygon class="cls-7" points="716.59 1098.01 718.74 1101.73 720.12 1101.66 722.92 1105.09 727.6 1102.39 727.97 1099.58 730.08 1098.04 725.84 1092.66 716.59 1098.01"/><path class="cls-7" d="M2226.75,1164.33l4.54-3.46,4.72,1a1.64,1.64,0,0,1,1,2.58l-1.87,2.55h-7.2Z"/><path class="cls-7" d="M2357.64,1287.71l4.54-3.46,4.72,1a1.64,1.64,0,0,1,1,2.58l-1.87,2.55h-7.2Z"/><path class="cls-7" d="M1676.65,1070.79l2.94-2.25,3.06.65a1.06,1.06,0,0,1,.64,1.67l-1.21,1.65h-4.67Z"/><line class="cls-8" x1="969" y1="1242.36" x2="1136.26" y2="1242.36"/><line class="cls-8" x1="678.67" y1="1250.36" x2="876" y2="1250.36"/><line class="cls-8" x1="838.67" y1="1124.57" x2="1036" y2="1124.57"/><line class="cls-8" x1="178.67" y1="1124.57" x2="376" y2="1124.57"/><line class="cls-8" x1="1221.67" y1="1140.36" x2="1419" y2="1140.36"/><line class="cls-8" x1="1689.67" y1="1112.92" x2="1887" y2="1112.92"/><line class="cls-8" x1="1709" y1="1170.36" x2="1843" y2="1170.36"/><line class="cls-8" x1="690.7" y1="1304.36" x2="1037" y2="1304.36"/><line class="cls-8" x1="1141.18" y1="1279.33" x2="1796" y2="1279.33"/><polygon class="cls-7" points="356.4 1243.27 353.73 1240.05 357.83 1238.98 360.51 1240.41 362.48 1239.87 363.19 1243.27 356.4 1243.27"/><path class="cls-7" d="M422.65,1070.79l2.94-2.25,3.06.65a1.06,1.06,0,0,1,.64,1.67l-1.21,1.65H423.4Z"/><line class="cls-8" x1="435.67" y1="1112.92" x2="633" y2="1112.92"/><line class="cls-8" x1="455" y1="1170.36" x2="589" y2="1170.36"/><line class="cls-8" x1="195.23" y1="1279.33" x2="542" y2="1279.33"/><line class="cls-8" x1="1647.67" y1="1205.36" x2="1845" y2="1205.36"/><line class="cls-8" x1="2009.67" y1="1276.11" x2="2207" y2="1276.11"/><line class="cls-8" x1="2140" y1="1211.36" x2="2274" y2="1211.36"/><polygon class="cls-7" points="3644.49 1169.38 3644.49 1164.05 3642.97 1163.27 3642.09 1157.85 3635.4 1157.85 3633.25 1160.63 3630.03 1160.98 3631.25 1169.38 3644.49 1169.38"/><path class="cls-7" d="M3422.69,1289.31l4.54-3.46,4.72,1a1.64,1.64,0,0,1,1,2.58l-1.87,2.55h-7.2Z"/><line class="cls-8" x1="3390.99" y1="1112.92" x2="3588.32" y2="1112.92"/><line class="cls-8" x1="3348.99" y1="1205.36" x2="3546.32" y2="1205.36"/><line class="cls-8" x1="3480.99" y1="1276.11" x2="3678.32" y2="1276.11"/><line class="cls-8" x1="3611.32" y1="1211.36" x2="3745.32" y2="1211.36"/><line class="cls-8" x1="2650" y1="1138.36" x2="2790" y2="1138.36"/><line class="cls-8" x1="3172" y1="1121.36" x2="3368.35" y2="1121.36"/><line class="cls-8" x1="3005.46" y1="1146.36" x2="3288.35" y2="1146.36"/><line class="cls-8" x1="2483" y1="1296.36" x2="3288.35" y2="1296.36"/><polygon class="cls-9" points="1149.11 1156.49 1174.64 1125.61 1168.96 1032.97 1130.39 1089.11 1149.11 1156.49"/><circle class="cls-10" cx="1180.25" cy="1099.12" r="31.14" transform="translate(-95.27 112.16) rotate(-5.23)"/><circle class="cls-11" cx="1180.25" cy="1099.12" r="13.81" transform="translate(-95.27 112.16) rotate(-5.23)"/><path class="cls-7" d="M1194.71,964.14l-11.82,54.31-1.46,6.73-1.47,6.74-1.07,4.92s-14.35-3.77-32.79,45,10,53.8,10,53.8l-35.87,106.72h-90.11l30.09-74.62s-4.56-12.73,3-36.33c6.41-19.91,21.87-59.65,26.54-71.6l1.37-3.48.62-3.41,1.19-6.65,8.46-46.87,21.86-60.11s14.85,23.24,25.45,27.78l9.29-14.28,9.17,7.5,7.91-3.27Z"/><path class="cls-9" d="M1048.34,1079.41a11.54,11.54,0,0,0-15.39,2.08c-6.09,7.25-14.8,18.87-20.67,32-8.06,18.08-24.94,99.67-30.84,128.84h10l7.2-22.26,34.17,15.77,3-7.45-34.65-16,6.42-38.25s7.84-47,32.08-69.3a11.53,11.53,0,0,1,14-1.2l15.69,10.1,5.83-15.83Z"/><path class="cls-9" d="M1067,1092.31s12-35.13,12-48,0-43.24,2.67-54.91,17.67-44,17.67-44l14.89,19-12.75,35.08-10.27,56.93-16,41.62Z"/><path class="cls-9" d="M1180,994.5a3,3,0,1,0-5.53-2.33c-.91,2.16-2.13,3.53-3.64,4.06a6,6,0,0,1-2.93.2l7.93-18.84a3,3,0,1,0-5.53-2.33L1165,987.91a4.49,4.49,0,0,1-.91-1.41,7.4,7.4,0,0,1,.25-5,3,3,0,0,0-5.46-2.49,13.26,13.26,0,0,0-.39,9.65,10.77,10.77,0,0,0,4.09,5l-5,11.8a3,3,0,1,0,5.53,2.33l2.41-5.73a12.43,12.43,0,0,0,7.23-.15C1176,1000.8,1178.41,998.31,1180,994.5Z"/><polygon class="cls-10" points="1132.52 1011.49 1127.36 1008.43 1122.2 1005.37 1127.43 1002.43 1132.66 999.49 1132.59 1005.49 1132.52 1011.49"/><polygon class="cls-9" points="1139.92 1021.03 1139.79 1017.61 1139.67 1014.18 1142.7 1015.79 1145.72 1017.39 1142.82 1019.21 1139.92 1021.03"/><polygon class="cls-9" points="1112.75 1002.42 1111.99 999.43 1111.23 996.44 1114.2 997.27 1117.17 998.11 1114.96 1000.26 1112.75 1002.42"/><circle class="cls-10" cx="1125.48" cy="984.35" r="7.18"/><circle class="cls-9" cx="1144.67" cy="1001.36" r="4.44"/><circle class="cls-10" cx="1110.33" cy="1019.03" r="5.8"/><circle class="cls-9" cx="1127.43" cy="1019.03" r="2.96"/><line class="cls-10" x1="1181.43" y1="1025.18" x2="1091.79" y2="1052.92"/><path class="cls-10" d="M1182.89,1018.45l-1.46,6.73-1.47,6.74-90.16,27.89,1.37-3.48.62-3.41,1.19-6.65Z"/><polygon class="cls-9" points="1604.39 1156.49 1629.92 1125.61 1624.32 1034.37 1585.67 1089.11 1604.39 1156.49"/><circle class="cls-10" cx="1635.53" cy="1099.12" r="31.14" transform="translate(-93.38 153.66) rotate(-5.23)"/><circle class="cls-11" cx="1635.53" cy="1099.12" r="13.81" transform="matrix(1, -0.09, 0.09, 1, -93.38, 153.66)"/><path class="cls-7" d="M1650,964.14l-4.43,20.35-11.4,52.35s-7.21-1.9-18,14.4c-4.3,6.5-9.17,15.91-14.37,29.49h0l-.42,1.1c-18.44,48.77,10,53.8,10,53.8l-3.3,9.81-8.4,25-11.32,33.66h0L1581,1226l-5.51,16.38h-90.11l3.49-8.67,15.75-39.07,10.84-26.88s-2.71-7.59-.45-21.9h0a95.07,95.07,0,0,1,3.49-14.42c1.27-4,2.9-8.67,4.73-13.81,1.53-4.32,3.21-8.92,4.94-13.6,4.14-11.18,8.56-22.75,12-31.69,3.66-9.46,6.23-16,6.23-16l5.4-29.93,4.87-27,21.86-60.11a162.51,162.51,0,0,0,12.2,16.37,65.28,65.28,0,0,0,8.58,8.5,21.58,21.58,0,0,0,4.67,2.91l9.29-14.28,9.17,7.5,1-.43h0l6.86-2.84Z"/><polygon class="cls-9" points="1541 1205.36 1538.8 1206.75 1526.21 1214.69 1508.32 1225.98 1530.46 1229.33 1488.91 1233.69 1504.66 1194.62 1515.92 1191.62 1526.46 1188.81 1560 1179.87 1518.38 1202.44 1513 1205.36 1541 1205.36"/><polygon class="cls-9" points="1608.1 1145.45 1599.7 1170.45 1591.95 1175.36 1588.38 1204.11 1588.38 1204.12 1581.04 1225.98 1553 1225.98 1562.26 1209.12 1565.41 1203.39 1596 1147.69 1551.33 1160.83 1540.47 1164.02 1540.46 1164.03 1522.29 1169.37 1539 1140.36 1556 1146.54 1559.15 1147.69 1564.59 1145.91 1596 1135.64 1608.1 1145.45"/><path class="cls-9" d="M1579,1085.3v37l-9.53-14.88-4.53,10.9-2.41,5.8-2.53,6.09L1528.21,1104c4.14-11.18,8.56-22.75,12-31.69l7.44,18.28,2.5,6.14h0l.49,1.21Z"/><path class="cls-9" d="M1616.17,1051.24c-4.3,6.5-9.17,15.91-14.37,29.49l-5.28-30-1.32-7.49-1.76-10-1.49-8.46-3.61,4.09L1560,1061l-8.15-34.63,4.87-27,21.86-60.11.26,55.53,0,5.41h28.93Z"/><polygon class="cls-9" points="1649.99 964.14 1645.56 984.49 1615.27 982.03 1607.73 981.42 1610.31 977.89 1610.32 977.88 1623.52 959.86 1623.53 959.86 1630.39 957.02 1649.99 964.14"/><circle class="cls-9" cx="1621.72" cy="1000.23" r="6.38"/><path class="cls-9" d="M1599.36,964.16a6.38,6.38,0,1,1-8.58-8.5A65.28,65.28,0,0,0,1599.36,964.16Z"/><path class="cls-9" d="M1537.36,1132.62a15.07,15.07,0,0,1-22.31,13.22h0a95.07,95.07,0,0,1,3.49-14.42c1.27-4,2.9-8.67,4.73-13.81A15.05,15.05,0,0,1,1537.36,1132.62Z"/><path class="cls-10" d="M1637,970.38,1615.27,982l-33.84,18.2-.73.39a7.72,7.72,0,0,0-1.37,12.67l18.17,15.59a13.72,13.72,0,0,1,.71,20.18l-1.69,1.68-45.49,45a7,7,0,0,0-.87,1,7.72,7.72,0,0,0,1.34,10.39l13.44,11.24,3,2.5a13.71,13.71,0,0,1,1.45,19.65l-4.8,5.4-13.26,14.92-24.87,28-6.25,7a7.42,7.42,0,0,0-1.83,6.6,7.86,7.86,0,0,0,.83,2.24,5.42,5.42,0,0,0,.42.68,7.51,7.51,0,0,0,7.57,3.24l11.6-1.85,21.63-3.46a13.86,13.86,0,0,1,5,.1,13.75,13.75,0,0,1,10.06,18.2l-1.62,4.39-6,16.38h-6.39l6-16.38,2.38-6.46a7.73,7.73,0,0,0-7.58-10.4,6.55,6.55,0,0,0-.88.09l-33.23,5.31a14.24,14.24,0,0,1-1.94.17,13.72,13.72,0,0,1-10.49-22.84l.2-.23,24.54-27.59,15.54-17.49,8.91-10a7.73,7.73,0,0,0-.82-11.06l-1.56-1.3-14.88-12.43a13.73,13.73,0,0,1-.84-20.3l.85-.84,46.34-45.8a7.73,7.73,0,0,0-.4-11.36l-.16-.14-5.1-4.37-12.92-11.08a13.72,13.72,0,0,1,2.44-22.5l1-.52,31.47-16.93,23.8-12.79a3,3,0,0,1,2.84,5.28Z"/><path class="cls-9" d="M1503.62,1079.41a11.54,11.54,0,0,0-15.39,2.08c-6.09,7.25-14.8,18.87-20.67,32-8.06,18.08-24.94,99.67-30.84,128.84h10l7.2-22.26,34.17,15.77,3-7.45-34.65-16,6.42-38.25s7.84-47,32.08-69.3a11.53,11.53,0,0,1,14-1.2l15.69,10.1,5.83-15.83Z"/><path class="cls-9" d="M1522.29,1092.31s12-35.13,12-48,0-43.24,2.67-54.91,17.67-44,17.67-44l14.89,19-12.75,35.08-10.27,56.93-16,41.62Z"/><path class="cls-12" d="M1048.34,1079.41a11.54,11.54,0,0,0-15.39,2.08c-6.09,7.25-14.8,18.87-20.67,32-8.06,18.08-24.94,99.67-30.84,128.84h10l7.2-22.26,34.17,15.77,3-7.45-34.65-16,6.42-38.25s7.84-47,32.08-69.3a11.53,11.53,0,0,1,14-1.2l15.69,10.1,5.83-15.83Z"/><path class="cls-13" d="M1067,1092.31s12-35.13,12-48,0-43.24,2.67-54.91,17.67-44,17.67-44l14.89,19-12.75,35.08-10.27,56.93-16,41.62Z"/><path class="cls-14" d="M1503.62,1079.41a11.54,11.54,0,0,0-15.39,2.08c-6.09,7.25-14.8,18.87-20.67,32-8.06,18.08-24.94,99.67-30.84,128.84h10l7.2-22.26,34.17,15.77,3-7.45-34.65-16,6.42-38.25s7.84-47,32.08-69.3a11.53,11.53,0,0,1,14-1.2l15.69,10.1,5.83-15.83Z"/><path class="cls-15" d="M1522.29,1092.31s12-35.13,12-48,0-43.24,2.67-54.91,17.67-44,17.67-44l14.89,19-12.75,35.08-10.27,56.93-16,41.62Z"/><polygon class="cls-9" points="2059.66 1156.49 2085.2 1125.61 2079.87 1038.74 2040.95 1089.11 2059.66 1156.49"/><circle class="cls-10" cx="2090.81" cy="1099.12" r="31.14" transform="translate(-91.48 195.16) rotate(-5.23)"/><circle class="cls-11" cx="2090.81" cy="1099.12" r="13.81" transform="translate(-91.48 195.16) rotate(-5.23)"/><path class="cls-7" d="M2105.27,964.14l-.53,2.43-6.54,30-2.18,10-6.58,30.23s-14.34-3.77-32.78,45a106.66,106.66,0,0,0-5.1,17.5,56.83,56.83,0,0,0-1.09,12.46c.67,21.09,16.2,23.84,16.2,23.84L2051,1182.11l-3.51,10.46-16.74,49.79h-90.1l9.39-23.29,4-9.88,16.71-41.45s-4.56-12.73,3-36.33c5.23-16.26,16.51-45.77,23-62.54,2.11-5.45,3.72-9.56,4.44-11.42.3-.73.45-1.12.45-1.12L2012,999.4l21.85-60.11s1.06,1.66,2.81,4.18,4.15,5.8,6.88,9.18c1.57,2,3.24,3.91,5,5.76a42.71,42.71,0,0,0,9.26,7.89,15.84,15.84,0,0,0,1.54.77l9.3-14.28,9.17,7.5,7.9-3.27,3.38,1.23,7.27,2.64,2.25.82Z"/><path class="cls-10" d="M2051,1182.11l-3.51,10.46c-14.13,2-27,7.42-40.32,13.05-9.12,3.86-18.54,7.84-28.31,10.56a86.1,86.1,0,0,1-23,3.07c-2,0-3.9-.06-5.78-.18l4-9.88a75.93,75.93,0,0,0,22.16-2.65c9.15-2.54,17.87-6.22,27.09-10.13C2018.28,1190.09,2033.57,1183.62,2051,1182.11Z"/><path class="cls-10" d="M2021,1167.47a25.39,25.39,0,0,1-18.51-7.44c-12.41-12.41-5.72-28.79-.44-35.71a5,5,0,0,1,8,6c-.41.55-9.76,13.29-.45,22.6,9.77,9.77,25.8.66,26,.57a5,5,0,1,1,5,8.65,45.09,45.09,0,0,1-12.84,4.63A35.43,35.43,0,0,1,2021,1167.47Z"/><path class="cls-10" d="M2050.47,1111.8c-8.43-7.75-21.49-18.81-33.55-25-8.5-4.36-15.12-11.14-20.08-17.94,2.11-5.45,3.72-9.56,4.44-11.42,4.47,7.42,11.13,15.81,20.2,20.46,10.59,5.43,21.59,14,30.08,21.43A56.83,56.83,0,0,0,2050.47,1111.8Z"/><path class="cls-10" d="M2055.87,1048.74a5,5,0,0,1-4.7,3.29,4.87,4.87,0,0,1-1.71-.31,5,5,0,0,1-3-6.41c.42-1.14,10-28.56-9.06-47.6-15-15-8.38-38.18-.75-54.24,1.74,2.48,4.15,5.8,6.88,9.18-.34.81-.66,1.63-1,2.46-6.14,16.16-5.5,28.11,1.92,35.53C2068.09,1014.24,2056.38,1047.34,2055.87,1048.74Z"/><path class="cls-10" d="M2094.62,977l-12.1,12.45,5,2.28,10.7,4.89-2.18,10-16.85-7.71-7.25-3.31a5,5,0,0,1-2.83-3.63,5,5,0,0,1,1.32-4.4l15.46-15.91,10.45-10.76,3-3c-.22,1.27-.46,2.56-.71,3.87l6.7,2.43-.53,2.43Z"/><circle class="cls-10" cx="2029.33" cy="1130.26" r="8.11"/><path class="cls-10" d="M2029.62,1242.36h-12.25c-3.41-5.92-5.28-12.94-3-20.48a5,5,0,1,1,9.56,3C2022,1231.14,2025.41,1237.42,2029.62,1242.36Z"/><polygon class="cls-9" points="1977.57 1189.38 1992.35 1170.36 2004.67 1180.6 1977.57 1189.38"/><polygon class="cls-9" points="1994.67 1107.47 2001.16 1087.7 2019.2 1103.31 2004.67 1103.31 1994.67 1107.47"/><polygon class="cls-9" points="2054.17 1147.7 2051.17 1135.7 2066.67 1135.64 2054.17 1147.7"/><path class="cls-9" d="M2018.4,1054.47l2.83-56.77s20.11,15.43,16.77,31.38-4.41,31.1,5.8,35.19,0,16.38,0,16.38-12.53-12.38-17.5-12.38S2018.4,1054.47,2018.4,1054.47Z"/><path class="cls-9" d="M2099.28,957.84c-.22,1.27-.46,2.56-.71,3.87a123.85,123.85,0,0,1-3.95,15.28,55.43,55.43,0,0,1-7.12,14.73,22.2,22.2,0,0,1-6.7,6.35,16.51,16.51,0,0,1-1.63.83,15.58,15.58,0,0,1-6.29,1.33,18.72,18.72,0,0,1-8.44-2.16c-12.67-6.33-18.33-19-16.36-36.57q.18-1.58.42-3.09a42.71,42.71,0,0,0,9.26,7.89c0,.55,0,1.11,0,1.66,0,8.49,2.58,16.86,11.19,21.17l.4.19c3.26,1.51,5.17.85,6.48.1,4.19-2.42,7.54-9.32,10.08-17.77a130.75,130.75,0,0,0,3.18-13.4l7.27,2.64Z"/><path class="cls-9" d="M1983.53,1216.3a24.56,24.56,0,0,0-24.53,24.53c0,.51,0,1,0,1.53h10a12.92,12.92,0,0,1-.09-1.53,14.53,14.53,0,0,1,29.06,0,12.72,12.72,0,0,1-.09,1.53h10c0-.5.05-1,.05-1.53A24.55,24.55,0,0,0,1983.53,1216.3Z"/><path class="cls-9" d="M1958.9,1079.41a11.54,11.54,0,0,0-15.39,2.08c-6.09,7.25-14.8,18.87-20.67,32-8.06,18.08-24.94,99.67-30.84,128.84h10l7.2-22.26,34.17,15.77,3-7.45-34.65-16,6.42-38.25s7.84-47,32.08-69.3a11.53,11.53,0,0,1,14-1.2l15.69,10.1,5.83-15.83Z"/><path class="cls-9" d="M1977.57,1092.31s12-35.13,12-48,0-43.24,2.67-54.91,17.67-44,17.67-44l14.89,19L2012,999.4l-10.27,56.93-16,41.62Z"/><path class="cls-16" d="M1958.9,1079.41a11.54,11.54,0,0,0-15.39,2.08c-6.09,7.25-14.8,18.87-20.67,32-8.06,18.08-24.94,99.67-30.84,128.84h10l7.2-22.26,34.17,15.77,3-7.45-34.65-16,6.42-38.25s7.84-47,32.08-69.3a11.53,11.53,0,0,1,14-1.2l15.69,10.1,5.83-15.83Z"/><path class="cls-17" d="M1977.57,1092.31s12-35.13,12-48,0-43.24,2.67-54.91,17.67-44,17.67-44l14.89,19L2012,999.4l-10.27,56.93-16,41.62Z"/><polygon class="cls-9" points="2514.94 1156.49 2540.47 1125.61 2535.09 1037.79 2496.22 1089.11 2514.94 1156.49"/><circle class="cls-10" cx="2546.08" cy="1099.12" r="31.14" transform="translate(-89.59 236.66) rotate(-5.23)"/><circle class="cls-11" cx="2546.08" cy="1099.12" r="13.81" transform="translate(-89.59 236.66) rotate(-5.23)"/><path class="cls-7" d="M2560.54,964.14l-15.82,72.7s-14.34-3.77-32.79,45,10,53.8,10,53.8l-5,14.78-2.64,7.85-9,26.86-2.64,7.84-16.6,49.39H2396l17-42.12,13.11-32.5s-4.56-12.73,3-36.33,27.91-75.08,27.91-75.08l10.27-56.93,21.86-60.11s14.85,23.24,25.45,27.78l9.3-14.28,9.17,7.5L2541,957Z"/><path class="cls-9" d="M2414.17,1079.41a11.54,11.54,0,0,0-15.39,2.08c-6.09,7.25-14.8,18.87-20.67,32-8.06,18.08-24.94,99.67-30.84,128.84h10l7.2-22.26,34.17,15.77,3-7.45-34.65-16,6.42-38.25s7.84-47,32.08-69.3a11.53,11.53,0,0,1,14-1.2l15.69,10.1L2441,1098Z"/><path class="cls-9" d="M2432.85,1092.31s12-35.13,12-48,0-43.24,2.67-54.91,17.67-44,17.67-44l14.89,19-12.75,35.08L2457,1056.33,2441,1098Z"/><path class="cls-18" d="M2414.17,1079.41a11.54,11.54,0,0,0-15.39,2.08c-6.09,7.25-14.8,18.87-20.67,32-8.06,18.08-24.94,99.67-30.84,128.84h10l7.2-22.26,34.17,15.77,3-7.45-34.65-16,6.42-38.25s7.84-47,32.08-69.3a11.53,11.53,0,0,1,14-1.2l15.69,10.1L2441,1098Z"/><path class="cls-19" d="M2432.85,1092.31s12-35.13,12-48,0-43.24,2.67-54.91,17.67-44,17.67-44l14.89,19-12.75,35.08L2457,1056.33,2441,1098Z"/><polygon class="cls-10" points="2460 1219.78 2448 1234.7 2460 1242.36 2395.97 1242.36 2412.95 1200.24 2432.85 1205.03 2436.33 1218.7 2460 1219.78"/><path class="cls-10" d="M2513.86,1159.69l-2.64,7.85-9,26.86-2.64,7.84a22.44,22.44,0,1,1,14.3-42.55Z"/><path class="cls-9" d="M2511.22,1167.54l-9,26.86a14.17,14.17,0,0,1,4.51-27.6A14,14,0,0,1,2511.22,1167.54Z"/><path class="cls-10" d="M2441,1174.38a5,5,0,0,1-1.5-9.77h0c.25-.08,25.49-8.3,25.49-26.95,0-8.12-1.77-14.41-3.48-20.49-2.89-10.27-5.62-20,1.33-34.08a5,5,0,1,1,9,4.42c-5.26,10.67-3.34,17.49-.68,26.94,1.81,6.42,3.86,13.7,3.86,23.2,0,11-5.75,20.78-16.62,28.43a63.71,63.71,0,0,1-15.87,8.05A5,5,0,0,1,2441,1174.38Z"/><polygon class="cls-9" points="2483.33 1103.03 2489.67 1093.7 2494.67 1112.92 2483.33 1103.03"/><rect class="cls-9" x="2481.34" y="988.73" width="46.75" height="4.63" transform="translate(-188.72 956.6) rotate(-20.85)"/><path class="cls-10" d="M2491.25,989.77c.05.14.09.27.14.42l-10.47,4c-.06-.14-.12-.26-.18-.4a5.62,5.62,0,0,1,10-5.09A6,6,0,0,1,2491.25,989.77Z"/><path class="cls-10" d="M2495.2,988.74l-5.25,2a2.91,2.91,0,0,1,.75-2.05,2.93,2.93,0,0,1,3.35-.78A2.72,2.72,0,0,1,2495.2,988.74Z"/><path class="cls-10" d="M2513.14,981.9l-11.33,4.31a6.06,6.06,0,0,1,9.93-6.45A5.92,5.92,0,0,1,2513.14,981.9Z"/><path class="cls-10" d="M2502.48,984.37a4.32,4.32,0,0,1,.29,1.48l-8.06,3.07a4.21,4.21,0,0,1-.66-1c0-.09-.08-.18-.12-.28a4.57,4.57,0,0,1,7.6-4.76A4.43,4.43,0,0,1,2502.48,984.37Z"/><path class="cls-10" d="M2517.31,980.31l-5.83,2.22a3.09,3.09,0,0,1,.27-2.77,3.13,3.13,0,0,1,1.53-1.26,3.05,3.05,0,0,1,1.76-.13A3.11,3.11,0,0,1,2517.31,980.31Z"/><path class="cls-10" d="M2524,976.07a4.56,4.56,0,0,1,.3,1.58l-8.2,3.12a4.57,4.57,0,0,1-.82-1.38,4.48,4.48,0,0,1-.26-1,4.66,4.66,0,0,1,9-2.31Z"/><polygon class="cls-9" points="2416.33 1215.11 2429.25 1215.11 2432.25 1224.61 2448 1224.11 2440 1231.86 2432.85 1236.86 2410.33 1236.86 2416.33 1215.11"/><polygon class="cls-10" points="2523.88 952.79 2533.05 960.29 2540.95 957.02 2560.54 964.14 2544.72 1036.84 2532.28 1017.03 2544.33 1009.03 2540.47 994.82 2552 975.03 2552.33 968.36 2539 969.7 2539 964.03 2529.67 969.36 2523.88 952.79"/><polygon class="cls-9" points="2484.26 1044.17 2480.03 1019.89 2518.35 1005.52 2507.28 1021.66 2519.65 1035.6 2501.41 1035.6 2504.71 1061.03 2484.26 1044.17"/><path class="cls-9" d="M2497,1126.05l-.09,0-2.1.6-.09,0a4,4,0,0,1-2.74,4.92,3.94,3.94,0,0,1-2.31-.05l.7,2.46a6.24,6.24,0,0,0,5.71-2.73,4,4,0,0,1-2.77,4.82,3.94,3.94,0,0,1-2.31-.05l.7,2.46a6.24,6.24,0,0,0,5.67-2.68,4,4,0,0,1-2.78,4.78,3.94,3.94,0,0,1-2.31-.05l.7,2.46a6.24,6.24,0,0,0,5.67-2.68,4,4,0,0,1-2.78,4.78,3.94,3.94,0,0,1-2.31-.05l.7,2.46a6.24,6.24,0,0,0,5.68-2.69l1.66,5.84,2.19-.62-1.66-5.84a6.25,6.25,0,0,0,6.32-.77l-.71-2.48a3.94,3.94,0,0,1-2,1.35,4,4,0,0,1-4.88-2.6,6.25,6.25,0,0,0,6.32-.77l-.71-2.48a4,4,0,0,1-2,1.35,4,4,0,0,1-4.88-2.6,6.25,6.25,0,0,0,6.32-.77l-.71-2.48a3.94,3.94,0,0,1-2,1.35,4,4,0,0,1-4.89-2.64,6.24,6.24,0,0,0,6.38-.75l-.71-2.48a3.94,3.94,0,0,1-2,1.35A4,4,0,0,1,2497,1126.05Z"/><circle class="cls-10" cx="2489" cy="1073.29" r="5.31"/><circle class="cls-10" cx="2460" cy="1196.93" r="12.23"/><polygon class="cls-9" points="2970.22 1156.49 2995.75 1125.61 2990.34 1037.36 2951.5 1089.11 2970.22 1156.49"/><circle class="cls-10" cx="3001.36" cy="1099.12" r="31.14" transform="translate(-87.69 278.16) rotate(-5.23)"/><circle class="cls-11" cx="3001.36" cy="1099.12" r="13.81" transform="translate(-87.69 278.16) rotate(-5.23)"/><path class="cls-7" d="M3015.82,964.14l-15.82,72.7s-3.57-.94-9.44,4.18a52.75,52.75,0,0,0-9.54,11.74c-4.17,6.61-8.84,15.94-13.81,29.08-18.44,48.77,10,53.8,10,53.8l-2,5.85-1.55,4.63-.41,1.22-1.47,4.37-.09.25h0l-1.46,4.37,0,.13-.59,1.73-1.56,4.63-3.45,10.26-2.14,6.38-1.92,5.72-19.22,57.17h-90.11l2.62-6.51,3-7.43,24.46-60.68s-4.55-12.73,3-36.33c1.58-4.91,3.71-11,6.1-17.63,1.72-4.78,3.58-9.82,5.46-14.85l.36-1,.06-.17c7.28-19.46,14.73-38.41,15.8-41.12l.13-.33,10.27-56.93,21.85-60.07a.15.15,0,0,0,0,0s14.85,23.24,25.45,27.78l3.85-5.92,5.44-8.36,9.17,7.5,7.9-3.27Z"/><path class="cls-9" d="M2869.45,1079.41a11.54,11.54,0,0,0-15.39,2.08c-6.09,7.25-14.8,18.87-20.67,32-8.06,18.08-24.94,99.67-30.84,128.84h10l7.2-22.26,34.17,15.77,3-7.45-34.65-16,6.42-38.25s7.84-47,32.08-69.3a11.53,11.53,0,0,1,14-1.2l15.69,10.1,5.83-15.83Z"/><path class="cls-9" d="M2888.12,1092.31s12-35.13,12-48,0-43.24,2.67-54.91,17.67-44,17.67-44l14.89,19-12.75,35.08-10.27,56.93-16,41.62Z"/><path class="cls-20" d="M2869.45,1079.41a11.54,11.54,0,0,0-15.39,2.08c-6.09,7.25-14.8,18.87-20.67,32-8.06,18.08-24.94,99.67-30.84,128.84h10l7.2-22.26,34.17,15.77,3-7.45-34.65-16,6.42-38.25s7.84-47,32.08-69.3a11.53,11.53,0,0,1,14-1.2l15.69,10.1,5.83-15.83Z"/><path class="cls-21" d="M2888.12,1092.31s12-35.13,12-48,0-43.24,2.67-54.91,17.67-44,17.67-44l14.89,19-12.75,35.08-10.27,56.93-16,41.62Z"/><path class="cls-10" d="M2964.64,1173.09l-2.14,6.38-1.92,5.72a27.35,27.35,0,0,1-4.22.62q-.87.06-1.74.06c-6.76,0-12.86-2.68-18.16-8-17.26-17.27-31.68-7.84-32.29-7.43a5,5,0,0,1-5.71-8.2c7.41-5.22,26.38-10.14,45.08,8.55,3.66,3.67,7.65,5.31,12.14,5A23.07,23.07,0,0,0,2964.64,1173.09Z"/><path class="cls-10" d="M2936.5,1242.36v-22.79a8.87,8.87,0,0,0-17.75,0v11a3.88,3.88,0,0,1-7.76,0v-24.25a6.11,6.11,0,1,0-12.22,0v16.77a4.3,4.3,0,0,1-8.61,0v-7.89a8.87,8.87,0,0,0-17.75,0v27.13Z"/><path class="cls-9" d="M2933,1242.36v-22.79a5.38,5.38,0,1,0-10.75,0v11a7.38,7.38,0,1,1-14.76,0v-24.25a2.61,2.61,0,0,0-5.22,0v16.77a7.8,7.8,0,0,1-15.61,0v-7.89a5.37,5.37,0,0,0-10.75,0v27.13Z"/><circle class="cls-9" cx="2917.46" cy="1185.03" r="5.94"/><polygon class="cls-9" points="2912.28 1056.33 2933.53 1062.36 2918.9 1070.49 2927.89 1079.58 2914.41 1085.31 2925.33 1099.12 2910.5 1099.12 2900 1114.86 2896.29 1097.95 2903.25 1079.83 2912.28 1056.33"/><path class="cls-10" d="M2899.29,1118.63l-4-18.08,3.64-9.72,12.75-33.1.84-2.88,24.89,7.07-16.08,8.93,9.15,9.26-13.71,5.82,11.63,14.7H2911.3Zm-2-23.23,3.44,15.69,9-13.48h12.54L2912,1084.7l13.26-5.63-8.83-8.93,13.19-7.32-17.92-5.09Z"/><polygon class="cls-10" points="2970.28 1156.34 2969.65 1158.2 2968.09 1162.83 2930.87 1122.56 2935.28 1118.48 2970.28 1156.34"/><polygon class="cls-10" points="2973.71 1146.12 2973.3 1147.34 2971.83 1151.71 2971.74 1151.96 2948.7 1127.03 2952.67 1123.36 2973.71 1146.12"/><polygon class="cls-10" points="2948.5 1039.24 2948.38 1023.05 2941.19 1014.11 2950.31 998.05 2967.53 995.61 2963.44 1007.24 2973.97 1016.13 2963.19 1023.36 2961.46 1044.17 2948.5 1039.24"/><path class="cls-9" d="M2967.46,991.86a1.08,1.08,0,0,1,0,.23h0l-17.51,2.37-1.52.21-.32.55a6.65,6.65,0,0,1-1.29-4,6.73,6.73,0,0,1,12.65-3.19,3.22,3.22,0,0,1,3.95,2.27,2.33,2.33,0,0,1,4.11,1.5Z"/><path class="cls-9" d="M2975.13,1006.88a3.2,3.2,0,0,1-.58,5.32l-7-5.89,3.31-10.1,0-.08a7.05,7.05,0,0,1,4.27,10.75Z"/><path class="cls-9" d="M2945.68,999.22l-7.9,13.36a6.33,6.33,0,0,1,1.46-12.49,6.2,6.2,0,0,1,1.5.19,3.21,3.21,0,0,1,4.95-1.05Z"/><path class="cls-9" d="M2944.94,1024.5v15.67a6.33,6.33,0,0,1-4.43-6c0-.13,0-.25,0-.37a8,8,0,0,1-4.19-12.26,3.17,3.17,0,0,1-.81-2.11,3.21,3.21,0,0,1,2.41-3.12l.08.09Z"/><path class="cls-9" d="M2973,1041.88a5.5,5.5,0,0,1-5.5,5.5,5.41,5.41,0,0,1-2.32-.51l.13-1.56,1.62-20.16,1.73-1.32a4.35,4.35,0,0,1,.71,8.36,3.2,3.2,0,0,1,.51,4.75A5.5,5.5,0,0,1,2973,1041.88Z"/><path class="cls-9" d="M2960.84,1047.95a2.67,2.67,0,0,1-5.24-.12A4.55,4.55,0,1,1,2948,1043Z"/><path class="cls-10" d="M2973.71,961.15l-.75,7.46-3.9,5.5-5.31-7.75s-.75,2.5-4.25,2.5-5.9-3.75-5.9-3.75v-8s-6-3.59-8.66-6.25-.69-10.89-.54-11.53a.15.15,0,0,0,0,0s14.85,23.24,25.45,27.78Z"/><circle class="cls-10" cx="2941.19" cy="976.7" r="3.75"/><polygon class="cls-10" points="2955.33 1090.83 2946.96 1090.83 2946.96 1076.31 2962.8 1068.84 2955.33 1090.83"/><line class="cls-8" x1="1424.69" y1="1242.36" x2="1591.95" y2="1242.36"/><line class="cls-8" x1="1880.37" y1="1242.36" x2="2047.63" y2="1242.36"/><line class="cls-8" x1="2336.06" y1="1242.36" x2="2503.32" y2="1242.36"/><line class="cls-8" x1="2791.13" y1="1242.36" x2="2958.39" y2="1242.36"/><path class="cls-10" d="M1052.63,1242.36,1081,1167s-7.67-13.62,0-32.29,23.53-58.67,23.53-58.67l27.47-7.76s-29,60.09,2.33,74.43L1102,1242.36Z"/><path class="cls-22" d="M1122.2,1205.36c-12,15.75-28.89,31-47,25.75s-20.69-29.73-7.19-41.73,26.52,4.09,38.59-8-16.58-41.71-7.25-61,36.93-48,36.93-48"/><circle class="cls-9" cx="1083.02" cy="1208.53" r="7.83"/><circle class="cls-10" cx="1132.67" cy="1125.36" r="3.08"/><circle class="cls-10" cx="1128.98" cy="1107.53" r="3.08"/><circle class="cls-10" cx="1128.38" cy="1113.37" r="1.07"/><circle class="cls-10" cx="1131.34" cy="1117.18" r="1.07"/><circle class="cls-10" cx="1127.91" cy="1119.83" r="1.07"/><polygon class="cls-9" points="1105.5 1064.2 1142.7 1052.92 1142.7 1061.53 1105.5 1064.2"/><rect class="cls-7" y="1324.3" width="4000" height="1175.7"/><path class="cls-23" d="M3999.82,1428.54l-77.88-.29.16-19,77.89.29Z"/><path class="cls-23" d="M3787.51,1427.81q-72.67-.22-150.9-.43l.12-19q78.19.21,150.92.43Zm-3575.36,0-.14-19q72.61-.22,150.93-.42l.12,19Q284.81,1427.58,212.15,1427.8Zm285.38-.75-.1-19,150.92-.32.09,19Zm3004.61,0-150.9-.32.09-19,150.92.32ZM782.9,1426.5l-.08-19,150.92-.23.06,19Zm2433.87,0-150.9-.24.07-19,150.91.24Zm-2148.49-.4-.05-19,150.92-.17,0,19Zm1863.12,0-150.9-.17,0-19,150.91.17Zm-1577.74-.28,0-19,150.91-.11,0,19Zm1292.37,0-150.9-.11,0-19,150.91.11Zm-1007-.17,0-19,150.91-.05v19Zm721.63,0-150.9-.05v-19l150.91.05Zm-285.35-.07h-150.9v-19h150.91Z"/><path class="cls-23" d="M.18,1428.53l-.18-19,77.89-.29.16,19Z"/><path class="cls-24" d="M4000,1546.09c-462.46-70.34-1187-115.63-2001.38-115.63-812.8,0-1536,45.11-1998.62,115.21V2500H4000Z"/></svg>