<svg id="FOREGROUND" xmlns="http://www.w3.org/2000/svg" xmlns:xlink="http://www.w3.org/1999/xlink" viewBox="0 0 4000 2500"><defs><style>.cls-1{fill:#a5a7aa;}.cls-2{fill:#0c2340;}.cls-3{fill:url(#linear-gradient);}.cls-4{fill:url(#linear-gradient-2);}.cls-5{fill:url(#linear-gradient-3);}.cls-6{fill:#00122f;}.cls-7{fill:#000524;}.cls-8{fill:url(#linear-gradient-4);}.cls-9{fill:url(#linear-gradient-5);}.cls-10{fill:url(#linear-gradient-6);}.cls-11{fill:url(#linear-gradient-7);}.cls-12{fill:url(#linear-gradient-8);}.cls-13{fill:url(#linear-gradient-9);}.cls-14{fill:url(#linear-gradient-10);}.cls-15{fill:url(#linear-gradient-11);}.cls-16{fill:url(#linear-gradient-12);}.cls-17{fill:url(#linear-gradient-13);}.cls-18{fill:#c2484d;}.cls-19{fill:url(#linear-gradient-14);}.cls-20{fill:url(#linear-gradient-15);}.cls-21{fill:url(#linear-gradient-16);}.cls-22{fill:url(#linear-gradient-17);}.cls-23{fill:url(#linear-gradient-18);}.cls-24{fill:url(#linear-gradient-19);}.cls-25{fill:url(#linear-gradient-20);}.cls-26{fill:url(#linear-gradient-21);}.cls-27{fill:url(#linear-gradient-22);}</style><linearGradient id="linear-gradient" x1="1814.2" y1="1922.74" x2="1808.2" y2="1886.74" gradientUnits="userSpaceOnUse"><stop offset="0" stop-color="#fec359"/><stop offset="1" stop-color="#f79562"/></linearGradient><linearGradient id="linear-gradient-2" x1="1915.5" y1="1838.11" x2="2024.5" y2="1838.11" xlink:href="#linear-gradient"/><linearGradient id="linear-gradient-3" x1="1696.5" y1="1827.77" x2="2024.5" y2="1827.77" xlink:href="#linear-gradient"/><linearGradient id="linear-gradient-4" x1="673.28" y1="1800.12" x2="993.57" y2="1800.12" gradientUnits="userSpaceOnUse"><stop offset="0" stop-color="#4d3b5b"/><stop offset="1" stop-color="#0c2340"/></linearGradient><linearGradient id="linear-gradient-5" x1="697.18" y1="1678.96" x2="922.74" y2="1678.96" xlink:href="#linear-gradient-4"/><linearGradient id="linear-gradient-6" x1="2537.25" y1="1915.64" x2="2845.59" y2="1915.64" xlink:href="#linear-gradient-4"/><linearGradient id="linear-gradient-7" x1="2351" y1="1863.18" x2="2436" y2="1863.18" xlink:href="#linear-gradient-4"/><linearGradient id="linear-gradient-8" x1="324.73" y1="1769.85" x2="409.73" y2="1769.85" xlink:href="#linear-gradient-4"/><linearGradient id="linear-gradient-9" x1="3604.7" y1="1983.7" x2="3689.7" y2="1983.7" xlink:href="#linear-gradient-4"/><linearGradient id="linear-gradient-10" x1="1183.5" y1="2022.33" x2="1387" y2="2022.33" xlink:href="#linear-gradient-4"/><linearGradient id="linear-gradient-11" x1="3403.72" y1="1860.31" x2="3607.22" y2="1860.31" xlink:href="#linear-gradient-4"/><linearGradient id="linear-gradient-12" x1="2780" y1="1929.51" x2="3124" y2="1929.51" gradientUnits="userSpaceOnUse"><stop offset="0" stop-color="#e5577b"/><stop offset="1" stop-color="#e84b56"/></linearGradient><linearGradient id="linear-gradient-13" x1="2825" y1="1714.69" x2="3079" y2="1714.69" xlink:href="#linear-gradient-12"/><linearGradient id="linear-gradient-14" x1="2846.74" y1="1775.06" x2="2960.62" y2="2002.83" xlink:href="#linear-gradient"/><linearGradient id="linear-gradient-15" x1="1008.65" y1="1986.64" x2="936.12" y2="1904.1" gradientTransform="matrix(1, 0, -0.18, 1, -111.17, 0)" gradientUnits="userSpaceOnUse"><stop offset="0" stop-color="#4e3d5b"/><stop offset="1" stop-color="#0d233f"/></linearGradient><linearGradient id="linear-gradient-16" x1="984.66" y1="1956.8" x2="944.41" y2="1914.64" gradientTransform="matrix(1, 0, -0.18, 1, -111.17, 0)" gradientUnits="userSpaceOnUse"><stop offset="0" stop-color="#fff" stop-opacity="0"/><stop offset="1" stop-color="#eddbc5"/></linearGradient><linearGradient id="linear-gradient-17" x1="963.58" y1="1874.29" x2="943.34" y2="1853.09" gradientTransform="matrix(1, 0, -0.18, 1, -111.17, 0)" gradientUnits="userSpaceOnUse"><stop offset="0" stop-color="#4e3d5b"/><stop offset="1" stop-color="#232a47"/></linearGradient><linearGradient id="linear-gradient-18" x1="969.97" y1="2003.7" x2="949.73" y2="1982.5" xlink:href="#linear-gradient-17"/><linearGradient id="linear-gradient-19" x1="923.83" y1="1909.55" x2="903.6" y2="1888.35" xlink:href="#linear-gradient-17"/><linearGradient id="linear-gradient-20" x1="1009.71" y1="1968.44" x2="989.47" y2="1947.24" xlink:href="#linear-gradient-17"/><linearGradient id="linear-gradient-21" x1="927.43" y1="1970.04" x2="907.19" y2="1948.84" xlink:href="#linear-gradient-17"/><linearGradient id="linear-gradient-22" x1="1006.12" y1="1907.95" x2="985.88" y2="1886.75" xlink:href="#linear-gradient-17"/></defs><title>v copy 9</title><rect class="cls-1" x="1453" y="1968.08" width="1032" height="121.28"/><rect class="cls-2" x="1502.5" y="1990.47" width="16.5" height="76.5" rx="8.25" ry="8.25"/><rect class="cls-2" x="1568.5" y="1990.47" width="16.5" height="76.5" rx="8.25" ry="8.25"/><rect class="cls-2" x="1634.5" y="1990.47" width="16.5" height="76.5" rx="8.25" ry="8.25"/><rect class="cls-2" x="1700.5" y="1990.47" width="16.5" height="76.5" rx="8.25" ry="8.25"/><rect class="cls-2" x="1766.5" y="1990.47" width="16.5" height="76.5" rx="8.25" ry="8.25"/><rect class="cls-2" x="1832.5" y="1990.47" width="16.5" height="76.5" rx="8.25" ry="8.25"/><rect class="cls-2" x="2419" y="1990.47" width="16.5" height="76.5" rx="8.25" ry="8.25" transform="translate(4854.5 4057.45) rotate(-180)"/><rect class="cls-2" x="2353" y="1990.47" width="16.5" height="76.5" rx="8.25" ry="8.25" transform="translate(4722.5 4057.45) rotate(180)"/><rect class="cls-2" x="2287" y="1990.47" width="16.5" height="76.5" rx="8.25" ry="8.25" transform="translate(4590.5 4057.45) rotate(-180)"/><rect class="cls-2" x="2221" y="1990.47" width="16.5" height="76.5" rx="8.25" ry="8.25" transform="translate(4458.5 4057.45) rotate(180)"/><rect class="cls-2" x="2155" y="1990.47" width="16.5" height="76.5" rx="8.25" ry="8.25" transform="translate(4326.5 4057.45) rotate(180)"/><rect class="cls-2" x="2089" y="1990.47" width="16.5" height="76.5" rx="8.25" ry="8.25" transform="translate(4194.5 4057.45) rotate(180)"/><circle class="cls-1" cx="1720.26" cy="1894.61" r="13.75"/><circle class="cls-1" cx="1891.74" cy="1894.61" r="13.75"/><rect class="cls-3" x="1696.5" y="1863.18" width="219" height="20.69"/><circle class="cls-1" cx="2000.74" cy="1827.77" r="13.75"/><polygon class="cls-4" points="2024.5 1810.05 1915.5 1883.86 1915.5 1863.18 2024.5 1792.36 2024.5 1810.05"/><polygon class="cls-5" points="2024.5 1792.36 1805.5 1792.36 1696.5 1863.18 1915.5 1863.18 2024.5 1792.36"/><path class="cls-1" d="M1249,1860.91l28.07-19a33.62,33.62,0,0,0-49.8,33.75l-107.85,73.09a33.62,33.62,0,0,0-49.8,33.75l28.07-19,16.86,24.87-28.07,19a33.62,33.62,0,0,0,49.8-33.75l107.85-73.09a33.62,33.62,0,0,0,49.8-33.75l-28.07,19Z"/><path class="cls-6" d="M686.39,2012.79H983.14a22.86,22.86,0,0,1,22.86,22.86V2070a22.86,22.86,0,0,1-22.86,22.86H686.39a22,22,0,0,1-22-22v-36.07A22,22,0,0,1,686.39,2012.79Z"/><path class="cls-7" d="M618.89,1911.86H936.51a28.61,28.61,0,0,1,28.61,28.61V1996a28.61,28.61,0,0,1-28.61,28.61H618.89a28,28,0,0,1-28-28v-56.71A28,28,0,0,1,618.89,1911.86Z"/><path class="cls-8" d="M992.73,1745.2c-9-26.55-88.22-23.62-176.85,6.55-54.79,18.65-104.11,44.74-125,65.75s-25.73,41.12,0,51.4,91.37,1.6,157.77-21C937.24,1817.73,1001.77,1771.75,992.73,1745.2Z"/><ellipse class="cls-7" cx="832.24" cy="1799.83" rx="52.81" ry="15.82" transform="translate(-535.58 364.18) rotate(-18.8)"/><path class="cls-6" d="M992.73,1745.2c-.83,21.32-17.29,40.61-56.79,63.71a314,314,0,0,1-41.11,21.69,426.35,426.35,0,0,1-43.22,16.27l-3,1a536.39,536.39,0,0,1-56.88,16c-40,8.84-74.53,11-96.3,6.15-1.56.06-28.19-8.23-20.86-30.9-24.67,49.33,13.33,102.67,13.33,102.67,20.67,21.33,92,31.39,179.32,1.68,43.45-14.79,81.11-33.38,107.15-51.62,23.74-16.63,34.78-29.35,37.82-46.87S1015.23,1793.18,992.73,1745.2Z"/><path class="cls-6" d="M922.72,1750.06v-78.81c-.77,16.49-50.8,33.37-113.46,38-31.5,2.34-60.3,1.16-81.56-2.66l-30.47-24.78s-9.33,24.67-2,73.33c9.33,26.67,58,36.67,114,33.9,46.33-2.29,85.63-13.53,103.39-25.22,6.3-4.15,9.88-8.49,10.07-12.81A6.54,6.54,0,0,0,922.72,1750.06Z"/><path class="cls-9" d="M922.72,1670.26c-1.25-16.8-54.07-26.56-118-21.81-29.87,2.22-50.08,6.49-77,13.63-54.47,14.44-24.2,40,0,44.54s50.06,5,81.56,2.66C873.17,1704.53,924,1687.06,922.72,1670.26Z"/><ellipse class="cls-6" cx="807" cy="1678.86" rx="35.4" ry="9.31" transform="translate(-122.28 64.47) rotate(-4.25)"/><path class="cls-10" d="M2845.53,1909c-2.06-27-57.26-45.44-129.47-45.8-10,0-20.23.24-30.73.92h-.23c-35.88,1.28-93.25,4-118.1,9-27.7,5.54-38.35,18.85-22.07,27.85,5.75,3.19,14.88,5.83,27.82,7.4,49.5,6,86.25,12.25,84.75,21.25s-41.75,14.25-34.5,29c5.11,10.4,72.62,10,111,8.95a180,180,0,0,0,71.91-16.93C2831.56,1938.51,2846.66,1923.79,2845.53,1909Z"/><ellipse class="cls-11" cx="2393.5" cy="1863.18" rx="42.5" ry="16.69"/><ellipse class="cls-12" cx="367.23" cy="1769.85" rx="42.5" ry="16.69"/><ellipse class="cls-13" cx="3647.2" cy="1983.7" rx="42.5" ry="16.69"/><path class="cls-14" d="M1362.56,2006.51c15.11-2.62,24.43-6.2,24.43-10.15,0-8-38.28-14.5-85.5-14.5s-85.5,6.49-85.5,14.5c0,6.36,24.22,11.85,57.77,13.72,11.51.72,6.54,3.6-.72,6.16a93.43,93.43,0,0,1-23.91,4.91c-38.24,2.93-65.65,10.88-65.65,20.22,0,11.84,44,21.43,98.25,21.43,48,0,88-7.51,96.54-17.44l.13-.15.1-.12a7.31,7.31,0,0,0,1.31-2.3c2.54-7.4-7.66-17.6-22.77-22.78-2.41-.82-4.83-4.48-4-6.89C1354.46,2009.19,1358.47,2007.22,1362.56,2006.51Z"/><path class="cls-15" d="M3582.79,1844.5c15.11-2.62,24.43-6.2,24.43-10.15,0-8-38.28-14.5-85.5-14.5s-85.5,6.49-85.5,14.5c0,6.36,24.22,11.85,57.77,13.72,11.51.72,6.54,3.6-.72,6.16a93.43,93.43,0,0,1-23.91,4.91c-38.24,2.93-65.65,10.88-65.65,20.22,0,11.84,44,21.43,98.25,21.43,48,0,88-7.51,96.54-17.44l.13-.15.1-.12a7.31,7.31,0,0,0,1.31-2.3c2.54-7.4-7.66-17.6-22.77-22.78-2.41-.82-4.83-4.48-4-6.89C3574.68,1847.18,3578.69,1845.2,3582.79,1844.5Z"/><circle class="cls-1" cx="2829.02" cy="2093.36" r="19"/><circle class="cls-1" cx="3074.98" cy="2093.36" r="19"/><rect class="cls-16" x="2780" y="1781.66" width="344" height="295.7"/><rect class="cls-17" x="2825" y="1647.72" width="254" height="133.94"/><rect class="cls-18" x="2850.47" y="1674.58" width="203.06" height="107.08"/><rect class="cls-18" x="2813.74" y="1810.66" width="276.53" height="237.7"/><rect class="cls-1" x="2813.74" y="1987.31" width="276.53" height="6.5"/><rect class="cls-1" x="2813.74" y="1926.26" width="276.53" height="6.5"/><rect class="cls-1" x="2813.74" y="1895.74" width="276.53" height="6.5"/><rect class="cls-1" x="2813.74" y="1865.21" width="276.53" height="6.5"/><rect class="cls-1" x="2813.74" y="1834.69" width="276.53" height="6.5"/><rect class="cls-1" x="2850.47" y="1758.95" width="203.06" height="6.5"/><rect class="cls-1" x="2850.47" y="1736.23" width="203.06" height="6.5"/><rect class="cls-1" x="2850.47" y="1713.51" width="203.06" height="6.5"/><rect class="cls-1" x="2850.47" y="1690.8" width="203.06" height="6.5"/><path class="cls-19" d="M2924.45,1940.72h-74.9c-8.58,0-17-7-17.75-15.55-4.46-47.43,10.13-94.87,3.5-142.3-.6-4.34,2.21-7.85,6.55-7.85h90.3a9.55,9.55,0,0,1,9.15,7.85c6.64,47.43-8,94.87-3.5,142.3C2938.59,1933.76,2933,1940.72,2924.45,1940.72Z"/><path class="cls-6" d="M583.91,1763H526.46l-41.75,328.86h57.46c65.38,0,127.74-73.62,139.26-164.43S649.3,1763,583.91,1763Z"/><path class="cls-20" d="M624,1927.42c-11.53,90.81-73.88,164.43-139.26,164.43s-109-73.62-97.51-164.43S461.07,1763,526.46,1763,635.5,1836.61,624,1927.42Z"/><path class="cls-1" d="M572.31,1927.42c-6.5,51.18-41.64,92.68-78.49,92.68s-61.46-41.49-55-92.68,41.64-92.68,78.49-92.68S578.81,1876.23,572.31,1927.42Z"/><path class="cls-21" d="M532.38,1927.42c-2.61,20.56-16.72,37.22-31.52,37.22s-24.68-16.66-22.07-37.22,16.72-37.22,31.52-37.22S535,1906.86,532.38,1927.42Z"/><path class="cls-22" d="M525.32,1863.69c-1.13,8.93-7.27,16.17-13.7,16.17s-10.72-7.24-9.59-16.17,7.27-16.17,13.7-16.17S526.45,1854.76,525.32,1863.69Z"/><path class="cls-23" d="M508.89,1993.1c-1.13,8.93-7.27,16.17-13.7,16.17s-10.72-7.24-9.59-16.17,7.27-16.17,13.7-16.17S510,1984.17,508.89,1993.1Z"/><path class="cls-24" d="M456.36,1897.18c1.83-8.88,8.4-15.28,14.67-14.3s9.86,9,8,17.85-8.4,15.28-14.67,14.3S454.53,1906.06,456.36,1897.18Z"/><path class="cls-25" d="M550.33,1943.44c5.21,4.06,6.24,13.81,2.31,21.76s-11.35,11.11-16.56,7-6.24-13.81-2.31-21.76S545.12,1939.37,550.33,1943.44Z"/><path class="cls-26" d="M470.45,1948.23c3.64,6.44,2.2,16.67-3.22,22.87s-12.77,6-16.41-.44-2.2-16.67,3.22-22.87S466.81,1941.79,470.45,1948.23Z"/><path class="cls-27" d="M562,1896c-.59,8.9-6.34,16.72-12.85,17.47s-11.3-5.86-10.7-14.76,6.34-16.72,12.85-17.47S562.64,1887.09,562,1896Z"/></svg>