<?xml version="1.0" encoding="utf-8"?>
<!-- Generator: Adobe Illustrator 17.0.0, SVG Export Plug-In . SVG Version: 6.00 Build 0)  -->
<!DOCTYPE svg PUBLIC "-//W3C//DTD SVG 1.1//EN" "http://www.w3.org/Graphics/SVG/1.1/DTD/svg11.dtd">
<svg version="1.1" xmlns="http://www.w3.org/2000/svg" xmlns:xlink="http://www.w3.org/1999/xlink" x="0px" y="0px" width="2592px"
	 height="1728px" viewBox="0 0 2592 1728" enable-background="new 0 0 2592 1728" xml:space="preserve">
<g id="Layer_8" display="none">
	<g display="inline">
		<defs>
			<rect id="SVGID_1_" x="-529" y="-74" width="3564" height="1785"/>
		</defs>
		<clipPath id="SVGID_2_">
			<use xlink:href="#SVGID_1_"  overflow="visible"/>
		</clipPath>
	</g>
</g>
<g id="Layer_3" display="none">
	<rect x="-616.142" y="-77.194" display="inline" fill="#FFE67B" width="3702.539" height="5024.773"/>
	<linearGradient id="SVGID_3_" gradientUnits="userSpaceOnUse" x1="1921.2561" y1="246.1132" x2="2155.7097" y2="748.9006">
		<stop  offset="0" style="stop-color:#FFF2A7"/>
		<stop  offset="0.9949" style="stop-color:#FFE67B"/>
	</linearGradient>
	<path display="inline" fill="url(#SVGID_3_)" d="M3027.708-72.865h-555.49c-3.272,1.876-392.093,76.562-355.66,261.273
		c8.352,42.344,71.167,56.741,79.79,99.03c4.871,23.889-8.969,48.621-28.646,63.018c-19.676,14.397-44.202,20.311-68.24,24.387
		c-94.471,16.019-191.938,8.635-285.945,27.184c-52.73,10.404-111.664,37.438-121.958,90.189
		c-13.146,67.36,62.286,134.726,35.275,197.819c-16.569,38.703-63.742,52.973-105.572,57.735
		c-83.252,9.476-117.302-0.39-201.009-4.094s-170.127-0.713-247.026,32.561c-76.899,33.274-142.885,102.531-151.225,185.904
		c-2.59,25.893,0.632,53.031,13.583,75.602c22.644,39.462,69.271,57.376,112.686,70.982
		c427.541,133.986,1431.368,128.431,1879.436,120.975V-72.865z"/>
	
		<linearGradient id="SVGID_4_" gradientUnits="userSpaceOnUse" x1="128.7074" y1="443.1662" x2="326.6217" y2="867.5947" gradientTransform="matrix(-1 0 0 1 408.1974 0)">
		<stop  offset="0" style="stop-color:#FFF2A7"/>
		<stop  offset="0.9949" style="stop-color:#FFE67B"/>
	</linearGradient>
	<path display="inline" fill="url(#SVGID_4_)" d="M-613.417,133.721c381.306,0,608.006,79.636,639.751,98.999
		s55.426,56.85,47.305,93.137c-9.758,43.601-60.647,72.953-59.685,117.623c0.561,26.072,20.146,48.752,43.481,60.394
		c23.335,11.642,50.003,14.273,76.012,16.171c189.652,13.839,381.759-1.081,569.106,31.483
		c62.292,10.828,131.395,32.896,158.381,90.074c87.464,135.565-78.38,239.92-53.119,264.593
		c25.261,24.673,262.657,63.857,248.167,96.058c-11.477,25.507-39.032,39.29-65.168,49.253
		c-199.784,76.163-422.184,43.172-635.446,58.45c-218.154,15.629-752.993,82.741-968.785,63.313V133.721z"/>
	<linearGradient id="SVGID_5_" gradientUnits="userSpaceOnUse" x1="994.0901" y1="182.0954" x2="994.0901" y2="372.836">
		<stop  offset="0" style="stop-color:#FFF2A7"/>
		<stop  offset="0.9949" style="stop-color:#FFE67B"/>
	</linearGradient>
	<path display="inline" fill="url(#SVGID_5_)" d="M599.638,332.148c31.99-67.315,83.075-116.708,139.728-135.1
		c56.653-18.392,118.265-5.586,168.524,35.027c21.857,17.663,41.796,40.442,65.447,52.908c54.531,28.742,114.59-2.62,171.954-17.392
		c52.592-13.543,107.09-12.74,159.463,2.35c37.643,10.846,80.316,38.815,85.148,91.643H598.28L599.638,332.148z"/>
	<circle display="inline" fill="#FFFFFF" cx="450.247" cy="365.506" r="120.558"/>
	<path display="inline" fill="#EEB76C" d="M169.139,317.947c-15.476-18.146-37.961-22.964-37.961-22.964s16.99-17.085,38.616,10.299
		c0,0,21.525-25.708,45.09,3.697C214.885,308.979,192.481,300.2,169.139,317.947z"/>
	<path display="inline" fill="#EEB76C" d="M1310.441,596.444c-15.511-11.121-33.904-10.542-33.904-10.542s9.914-16.538,31.979,0.577
		c0,0,11.779-24.109,35.739-5.797C1344.254,580.682,1325.163,578.17,1310.441,596.444z"/>
	<path display="inline" fill="#EEB76C" d="M917.506,415.355c32.505-15.605,66.535-8.497,66.535-8.497s-13.023-34.02-59.686-9.411
		c0,0-14.01-48.717-64.591-22.503C859.765,374.944,896.108,376.529,917.506,415.355z"/>
	<path display="inline" fill="#EEB76C" d="M1627.042,499.288c-18.402-21.424-45.048-27.037-45.048-27.037
		s20.049-20.302,45.772,12.036c0,0,25.383-30.533,53.411,4.191C1681.177,488.479,1654.61,478.176,1627.042,499.288z"/>
</g>
<g id="Layer_4" display="none">
	<g display="inline">
		<rect x="2630.358" y="704.46" fill="#DAA162" width="323.533" height="163.692"/>
		<rect x="2750.72" y="717.94" fill="#F6D574" width="13.481" height="103.993"/>
		<rect x="2854.712" y="717.94" fill="#F6D574" width="13.481" height="103.993"/>
		<rect x="2889.376" y="717.94" fill="#F6D574" width="13.481" height="103.993"/>
		<rect x="2924.041" y="717.94" fill="#F6D574" width="13.481" height="103.993"/>
		<rect x="2785.384" y="717.94" fill="#F6D574" width="13.481" height="103.993"/>
		<rect x="2820.048" y="717.94" fill="#F6D574" width="13.481" height="103.993"/>
		<linearGradient id="SVGID_6_" gradientUnits="userSpaceOnUse" x1="388.6027" y1="1439.41" x2="668.2612" y2="1673.8448">
			<stop  offset="0" style="stop-color:#FEC359"/>
			<stop  offset="1" style="stop-color:#F79562"/>
		</linearGradient>
		<path fill="url(#SVGID_6_)" d="M564.894,1366.736c0-24.198-81.563-24.267-81.563,0s0,377.65,0,377.65h81.563
			C564.894,1744.386,564.894,1389.651,564.894,1366.736z"/>
		<g>
			<linearGradient id="SVGID_7_" gradientUnits="userSpaceOnUse" x1="152.5858" y1="1271.9381" x2="168.1062" y2="1483.7467">
				<stop  offset="0" style="stop-color:#A7A9AC"/>
				<stop  offset="1" style="stop-color:#E6E7E8"/>
			</linearGradient>
			<polygon fill="url(#SVGID_7_)" points="216.504,1576.781 216.504,1271.191 135.873,1271.191 135.873,1576.781 52.247,1576.781 
				52.247,1611.31 300.13,1611.31 300.13,1576.781 			"/>
			<g>
				<path fill="#A4A7A9" d="M277.607,1360.916h-10.113c-9.866,0-17.893-8.027-17.893-17.892v-78.878h8.666v78.878
					c0,5.087,4.139,9.226,9.227,9.226h10.113c5.087,0,9.227-4.139,9.227-9.226v-35.869h8.666v35.869
					C295.5,1352.889,287.473,1360.916,277.607,1360.916z"/>
			</g>
			<rect x="48.466" y="999.668" fill="#E7E7E7" width="255.636" height="281.633"/>
			<rect x="48.466" y="999.668" fill="#FFFFFF" width="255.636" height="105.61"/>
			
				<ellipse fill="none" stroke="#E6555A" stroke-width="7" stroke-linecap="round" stroke-linejoin="round" stroke-miterlimit="10" cx="268.277" cy="1443.975" rx="27.515" ry="95.635"/>
			
				<ellipse fill="none" stroke="#E6555A" stroke-width="7" stroke-linecap="round" stroke-linejoin="round" stroke-miterlimit="10" cx="267.197" cy="1434.637" rx="26.435" ry="86.296"/>
			
				<ellipse fill="none" stroke="#E6555A" stroke-width="7" stroke-linecap="round" stroke-linejoin="round" stroke-miterlimit="10" cx="266.648" cy="1415.468" rx="25.886" ry="67.127"/>
			<path fill="none" stroke="#E6555A" stroke-width="7" stroke-linecap="round" stroke-linejoin="round" stroke-miterlimit="10" d="
				M307.892,1448.164c0,52.12-8.981,88.919-26.485,88.919s-31.695-42.252-31.695-94.371c0-52.12,4.872-94.022,22.377-94.022
				S307.892,1396.044,307.892,1448.164z"/>
			<path fill="none" stroke="#E6555A" stroke-width="7" stroke-linecap="round" stroke-linejoin="round" stroke-miterlimit="10" d="
				M261.637,1348.678c0,0,65.958-22.304,67.884,162.714"/>
			<text transform="matrix(1 0 0 1 97.3838 1079.12)"><tspan x="0" y="0" fill="#E6555A" font-family="'Gotham-Bold'" font-size="73.5516" letter-spacing="5">A</tspan><tspan x="50.53" y="0" fill="#E6555A" font-family="'Gotham-Bold'" font-size="73.5516" letter-spacing="9">I</tspan><tspan x="78.038" y="0" fill="#E6555A" font-family="'Gotham-Bold'" font-size="73.5516" letter-spacing="5">R</tspan></text>
			<rect x="74.318" y="1134.563" fill="#B8B9BB" width="203.642" height="117.447"/>
			<rect x="94.736" y="1157.662" fill="#E7E7E7" width="8.987" height="37.874"/>
			<rect x="155.719" y="1158.946" fill="#E7E7E7" width="101.425" height="3.852"/>
			<rect x="155.719" y="1169.859" fill="#E7E7E7" width="101.425" height="3.852"/>
			<rect x="155.719" y="1180.772" fill="#E7E7E7" width="101.425" height="3.852"/>
			<rect x="155.719" y="1191.684" fill="#E7E7E7" width="101.425" height="3.852"/>
			<rect x="155.719" y="1202.597" fill="#E7E7E7" width="101.425" height="3.852"/>
			<rect x="155.719" y="1213.51" fill="#E7E7E7" width="101.425" height="3.852"/>
			<g>
				<path fill="#A4A7A9" d="M271.962,1354.495c-0.823-0.59-1.63-1.237-2.423-1.965c-0.099-0.091-0.189-0.188-0.286-0.28h-1.759
					c-5.087,0-9.227-4.139-9.227-9.226v-29.453c-0.171,0.071-0.339,0.151-0.511,0.219c-2.615,1.04-5.367,1.647-8.155,2.07v27.163
					c0,9.866,8.027,17.892,17.893,17.892h6.526C273.055,1358.911,272.358,1356.751,271.962,1354.495z"/>
			</g>
			<path fill="#B8B9BB" d="M330.621,1485.538h-3.797c-4.423,0-8.009,3.586-8.009,8.009v60.685l4.113,8.638h4.113l3.702-8.638v-39.9
				h7.815l0.071-20.757C338.645,1489.141,335.055,1485.538,330.621,1485.538z"/>
		</g>
		<rect x="2049.707" y="650.47" fill="#DAA162" width="128.92" height="206.697"/>
		<g>
			<rect x="2114.272" y="661.343" fill="#F6D574" width="2.525" height="246.982"/>
		</g>
		<g>
			<rect x="2123.11" y="661.343" fill="#F6D574" width="2.525" height="246.982"/>
		</g>
		<g>
			<rect x="2131.947" y="661.343" fill="#F6D574" width="2.525" height="246.982"/>
		</g>
		<g>
			<rect x="2140.783" y="661.343" fill="#F6D574" width="2.525" height="246.982"/>
		</g>
		<g>
			<rect x="2149.621" y="661.343" fill="#F6D574" width="2.525" height="246.982"/>
		</g>
		<g>
			<rect x="2158.458" y="661.343" fill="#F6D574" width="2.525" height="246.982"/>
		</g>
		<g>
			<rect x="2167.295" y="661.343" fill="#F6D574" width="2.525" height="246.982"/>
		</g>
		<path fill="#FFEFAC" d="M1576.951,1027.029c41.886-41.886,104.956-42.001,146.36-42.001s104.595-2.293,104.595-71.49
			c0-27.911-15.453-45.416-33.89-56.373H-22.416v280.088h1796.865c-105.372-18.928-178.239-32.23-178.239-32.23
			S1535.065,1068.915,1576.951,1027.029z"/>
		<path fill="#FFEFAC" d="M1498.05,1027.029c55.055-41.886,137.954-42.001,192.376-42.001s137.481-2.293,137.481-71.49
			c0-27.911-20.311-45.416-44.546-56.373H-625.025v280.088h2382.666c-138.501-18.928-234.279-32.23-234.279-32.23
			S1442.995,1068.915,1498.05,1027.029z"/>
		<g>
			<rect x="1891.115" y="710.006" fill="#FFD577" width="189.475" height="147.16"/>
			<g>
				<path fill="#FFFFFF" d="M1891.115,814.987v0.002h62.813v-0.002h-20.483v-20.563h20.598v-0.481h-20.598V773.38h20.563v-0.481
					h-20.563v-20.563h20.563v20.563h0.481v-20.563h20.563v20.563h0.557v-20.563h20.563v20.563h0.481v-20.563h20.403v-0.481h-20.403
					v-20.563h20.563v-0.481h-20.563v-20.804h-0.481v20.804h-20.563v-20.804h-0.075h-0.406h-0.075v20.804h-20.563v-20.804h-0.481
					v20.804h-20.563v-20.804h-0.481v20.804h-20.563v-20.804h-0.481v20.804h-20.804v0.481h20.804v20.563h-20.804v0.481h20.804v20.563
					h-20.804v0.481h20.804v20.563h-20.804v0.481h20.804v20.563H1891.115z M1975.609,731.291h20.563v20.563h-20.563V731.291z
					 M1954.49,731.291h20.563v20.563h-20.563V731.291z M1933.445,731.291h20.563v20.563h-20.563V731.291z M1912.401,731.291h20.563
					v20.563h-20.563V731.291z M1912.401,752.336h20.563v20.563h-20.563V752.336z M1912.401,773.38h20.563v20.563h-20.563V773.38z
					 M1912.401,794.424h20.563v20.563h-20.563V794.424z"/>
				<rect x="2059.305" y="710.006" fill="#FFFFFF" width="0.481" height="20.804"/>
				<rect x="2038.261" y="710.006" fill="#FFFFFF" width="0.481" height="20.804"/>
				<rect x="2017.217" y="710.006" fill="#FFFFFF" width="0.481" height="20.804"/>
			</g>
			<polygon fill="#EEB76C" points="2080.591,773.464 2080.591,730.81 2048.944,730.749 2017.217,730.81 2017.217,772.898 
				1954.008,772.898 1954.008,814.989 1890.995,814.989 1890.995,857.108 2080.591,857.108 2080.591,814.929 2080.591,814.929 
				2080.591,773.464 			"/>
			<rect x="2032.669" y="738.401" fill="#F6D574" width="32.47" height="3.826"/>
			<rect x="2032.669" y="749.879" fill="#F6D574" width="32.47" height="3.826"/>
			<rect x="2032.669" y="761.356" fill="#F6D574" width="32.47" height="3.826"/>
			<rect x="2032.669" y="780.486" fill="#F6D574" width="32.47" height="3.826"/>
			<rect x="2032.669" y="791.963" fill="#F6D574" width="32.47" height="3.826"/>
			<rect x="2032.669" y="803.441" fill="#F6D574" width="32.47" height="3.826"/>
			<rect x="2032.669" y="822.675" fill="#F6D574" width="32.47" height="3.826"/>
			<rect x="2032.669" y="834.153" fill="#F6D574" width="32.47" height="3.826"/>
			<rect x="2032.669" y="845.631" fill="#F6D574" width="32.47" height="3.826"/>
			<rect x="1969.656" y="780.486" fill="#F6D574" width="32.47" height="3.826"/>
			<rect x="1969.656" y="791.963" fill="#F6D574" width="32.47" height="3.826"/>
			<rect x="1969.656" y="803.441" fill="#F6D574" width="32.47" height="3.826"/>
			<rect x="1969.656" y="822.675" fill="#F6D574" width="32.47" height="3.826"/>
			<rect x="1969.656" y="834.153" fill="#F6D574" width="32.47" height="3.826"/>
			<rect x="1969.656" y="845.631" fill="#F6D574" width="32.47" height="3.826"/>
			<rect x="1906.447" y="822.675" fill="#F6D574" width="32.47" height="3.826"/>
			<rect x="1906.447" y="834.153" fill="#F6D574" width="32.47" height="3.826"/>
			<rect x="1906.447" y="845.631" fill="#F6D574" width="32.47" height="3.826"/>
		</g>
		<g>
			<circle fill="#C2774E" cx="2142.148" cy="816.466" r="32.64"/>
			<circle fill="#C2774E" cx="2190.296" cy="840.467" r="32.64"/>
			<circle fill="#C2774E" cx="2175.538" cy="790.21" r="32.64"/>
			<circle fill="#C2774E" cx="2279.068" cy="821.013" r="32.64"/>
			<circle fill="#C2774E" cx="2217.806" cy="777.045" r="21.301"/>
			<circle fill="#C2774E" cx="2067.525" cy="847.797" r="21.301"/>
			<circle fill="#C2774E" cx="2320.772" cy="771.586" r="32.563"/>
			<circle fill="#C2774E" cx="2324.131" cy="788.861" r="32.563"/>
			<circle fill="#C2774E" cx="2319.368" cy="822.132" r="32.563"/>
			<circle fill="#C2774E" cx="2275.146" cy="835.519" r="32.563"/>
			<circle fill="#C2774E" cx="2160.83" cy="836.137" r="32.563"/>
			<circle fill="#C2774E" cx="2313.353" cy="831.323" r="32.563"/>
			<circle fill="#C2774E" cx="2116.065" cy="857.492" r="32.563"/>
			<circle fill="#C2774E" cx="2264.313" cy="784.834" r="32.563"/>
			<circle fill="#C2774E" cx="2229.171" cy="808.886" r="32.563"/>
			<circle fill="#C2774E" cx="2244.32" cy="850.391" r="32.64"/>
			<circle fill="#C2774E" cx="2100.712" cy="831.331" r="22.223"/>
			<circle fill="#C2774E" cx="2659.411" cy="812.615" r="32.64"/>
			<circle fill="#C2774E" cx="2622.169" cy="790.21" r="32.64"/>
			<circle fill="#C2774E" cx="2579.902" cy="777.045" r="21.301"/>
			<circle fill="#C2774E" cx="2720.553" cy="838.168" r="21.301"/>
			<circle fill="#C2774E" cx="2476.935" cy="771.586" r="32.563"/>
			<circle fill="#C2774E" cx="2473.577" cy="788.861" r="32.563"/>
			<circle fill="#C2774E" cx="2478.339" cy="822.132" r="32.563"/>
			<circle fill="#C2774E" cx="2484.354" cy="831.323" r="32.563"/>
			<circle fill="#C2774E" cx="2681.643" cy="857.492" r="32.563"/>
			<circle fill="#C2774E" cx="2533.395" cy="784.834" r="32.563"/>
			<circle fill="#C2774E" cx="2533.395" cy="815.647" r="32.563"/>
			<circle fill="#C2774E" cx="2568.536" cy="808.886" r="32.563"/>
			<circle fill="#C2774E" cx="2610.903" cy="808.886" r="32.563"/>
			<circle fill="#C2774E" cx="2696.996" cy="831.331" r="22.223"/>
		</g>
		<path fill="#FFFFFF" d="M3077.514,857.166H1794.016c18.437,10.957,33.89,28.461,33.89,56.373c0,69.197-63.191,71.49-104.595,71.49
			s-104.474,0.115-146.36,42.001c-41.886,41.886,19.258,77.995,19.258,77.995s72.868,13.302,178.239,32.23l1303.066,231.095V857.166
			z"/>
		<path fill="none" stroke="#000000" stroke-width="0.372" stroke-miterlimit="10" d="M1864.468,992.994"/>
		<path fill="none" stroke="#000000" stroke-width="0.372" stroke-miterlimit="10" d="M1864.468,939.133"/>
		<g>
			
				<rect x="1875.354" y="903.899" transform="matrix(0.964 0.2659 -0.2659 0.964 312.792 -465.8295)" fill="#C2774E" width="2.275" height="36.368"/>
			<polygon fill="#F6D574" points="1845.122,899.103 1889.637,873.838 1914.902,918.353 			"/>
			<polygon fill="#EEB76C" points="1859.077,902.953 1873.034,906.803 1889.637,873.838 			"/>
			<polygon fill="#EEB76C" points="1900.946,914.503 1886.99,910.653 1889.637,873.838 			"/>
		</g>
		<g>
			<path fill="#EEB76C" d="M1893.968,961.637c0,2.902-0.459,5.696-1.311,8.318c-1.77,5.467-5.244,10.167-9.794,13.469
				c-4.442,3.238-9.909,5.144-15.826,5.144c-5.918,0-11.385-1.906-15.827-5.144c-4.55-3.303-8.024-8.003-9.794-13.469
				c-0.853-2.622-1.311-5.416-1.311-8.318c0-2.902,0.459-5.703,1.318-8.325c1.769-5.459,5.237-10.159,9.786-13.462
				c4.442-3.238,9.909-5.144,15.827-5.144c5.918,0,11.384,1.906,15.826,5.144c4.55,3.303,8.017,8.003,9.787,13.462
				C1893.51,955.934,1893.968,958.735,1893.968,961.637z"/>
			<path fill="#F6D574" d="M1867.037,934.706v26.932l-15.827-21.787C1855.652,936.611,1861.119,934.706,1867.037,934.706z"/>
			<path fill="#F6D574" d="M1867.037,961.637l-25.613,8.318h-0.007c-0.853-2.622-1.311-5.416-1.311-8.318
				c0-2.902,0.459-5.703,1.318-8.325L1867.037,961.637z"/>
			<path fill="#F6D574" d="M1867.037,961.637v26.932c-5.918,0-11.385-1.906-15.827-5.144L1867.037,961.637z"/>
			<path fill="#F6D574" d="M1892.657,969.955c-1.77,5.467-5.244,10.167-9.794,13.469l-15.826-21.787l25.613,8.318H1892.657z"/>
			<path fill="#F6D574" d="M1892.65,953.312l-25.613,8.325l15.826-21.787C1887.413,943.153,1890.88,947.852,1892.65,953.312z"/>
		</g>
		<g>
			<rect x="2420.391" y="501.927" fill="#DAA162" width="2.889" height="79.118"/>
		</g>
		<g>
			<rect x="2444.463" y="501.927" fill="#DAA162" width="2.889" height="79.118"/>
		</g>
		<g>
			<rect x="2365.897" y="538.199" fill="#DAA162" width="2.889" height="42.844"/>
		</g>
		<g>
			<rect x="2087.209" y="607.626" fill="#DAA162" width="2.889" height="42.844"/>
		</g>
		<g>
			<path fill="#C2774E" d="M2015.902,932.318l-3.613-1.514c-5.197,8.701-21.337,40.883-18.86,101.565l3.848-0.158
				C1994.814,971.853,2011.474,939.725,2015.902,932.318z"/>
			<g>
				<g>
					<path fill="#C2774E" d="M2014.541,931.993l-29.138,30.667C1985.403,962.66,1984.927,930.286,2014.541,931.993z"/>
				</g>
			</g>
			<g>
				<g>
					<path fill="#C2774E" d="M2014.684,931.999l-39.613,14.843C1975.072,946.842,1988.797,917.518,2014.684,931.999z"/>
				</g>
			</g>
			<g>
				<g>
					<path fill="#C2774E" d="M2014.458,932.143l-40.686-11.582C1973.772,920.562,2002.229,905.119,2014.458,932.143z"/>
				</g>
			</g>
			<g>
				<g>
					<path fill="#C2774E" d="M2014.083,931.927l-0.646,42.297C2013.438,974.225,2036.432,951.431,2014.083,931.927z"/>
				</g>
			</g>
			<g>
				<g>
					<path fill="#C2774E" d="M2013.988,931.72l34.507,24.469C2048.496,956.189,2042.716,924.332,2013.988,931.72z"/>
				</g>
			</g>
			<g>
				<g>
					<path fill="#C2774E" d="M2013.878,932.093l40.031-13.676C2053.909,918.417,2024.689,904.47,2013.878,932.093z"/>
				</g>
			</g>
			<g>
				<g>
					<path fill="#C2774E" d="M2014.226,931.771l-22.801-35.632C1991.425,896.139,2022.972,903.427,2014.226,931.771z"/>
				</g>
			</g>
		</g>
		<g>
			<g>
				<g>
					<g>
						<path fill="#C2774E" d="M1836.752,756.262l27.716,16.711C1864.468,772.972,1858.251,748.995,1836.752,756.262z"/>
					</g>
				</g>
				<g>
					<g>
						<path fill="#C2774E" d="M1836.752,756.262l32.362-0.354C1869.114,755.907,1851.22,738.778,1836.752,756.262z"/>
					</g>
				</g>
				<g>
					<g>
						<path fill="#C2774E" d="M1836.953,756.302l25.827-19.503C1862.781,736.799,1838.212,733.643,1836.953,756.302z"/>
					</g>
				</g>
				<g>
					<g>
						<path fill="#C2774E" d="M1837.161,756.044l12.146,29.998C1849.307,786.042,1826.605,776.134,1837.161,756.044z"/>
					</g>
				</g>
				<g>
					<g>
						<path fill="#C2774E" d="M1837.143,755.923l-12.438,29.878C1824.705,785.802,1815.516,762.799,1837.143,755.923z"/>
					</g>
				</g>
				<g>
					<g>
						<path fill="#C2774E" d="M1837.171,755.863l-29.896,12.396C1807.275,768.259,1816.994,745.475,1837.171,755.863z"/>
					</g>
				</g>
				<g>
					<g>
						<path fill="#C2774E" d="M1837.059,755.993l2.606-32.259C1839.665,723.734,1820.972,739.987,1837.059,755.993z"/>
					</g>
				</g>
			</g>
			<g>
				<path fill="#C2774E" d="M1870.958,857.166c-2.31-61.56-12.985-73.293-30.69-93.269c-1.735-1.958-3.536-3.989-5.399-6.146
					l3.643-3.148c1.85,2.14,3.637,4.157,5.36,6.1c18.418,20.781,29.529,33.179,31.905,96.462H1870.958z"/>
			</g>
		</g>
		<rect x="2344.597" y="626.452" fill="#EEB76C" width="128.81" height="230.714"/>
		<rect x="2429.057" y="626.452" fill="#C2774E" width="92.494" height="230.714"/>
		<rect x="2344.596" y="658.072" fill="#DAA162" width="84.445" height="199.094"/>
		<rect x="2360.119" y="581.044" fill="#DAA162" width="68.937" height="45.408"/>
		<rect x="2429.057" y="581.044" fill="#C2774E" width="49.164" height="45.408"/>
		<rect x="2356.66" y="681.295" fill="#C2774E" width="12.064" height="21.161"/>
		<rect x="2380.787" y="681.295" fill="#C2774E" width="12.064" height="21.161"/>
		<rect x="2384.007" y="597.618" fill="#C2774E" width="21.161" height="12.064"/>
		<rect x="2404.914" y="681.295" fill="#C2774E" width="12.064" height="21.161"/>
		<rect x="2356.66" y="723.617" fill="#C2774E" width="12.064" height="21.161"/>
		<rect x="2380.787" y="723.617" fill="#C2774E" width="12.064" height="21.161"/>
		<rect x="2404.914" y="723.617" fill="#C2774E" width="12.064" height="21.161"/>
		<rect x="2356.66" y="765.94" fill="#C2774E" width="12.064" height="21.161"/>
		<rect x="2380.787" y="765.94" fill="#C2774E" width="12.064" height="21.161"/>
		<rect x="2404.914" y="765.94" fill="#C2774E" width="12.064" height="21.161"/>
		<rect x="2356.66" y="808.263" fill="#C2774E" width="12.064" height="21.161"/>
		<rect x="2380.787" y="808.263" fill="#C2774E" width="12.064" height="21.161"/>
		<rect x="2404.914" y="808.263" fill="#C2774E" width="12.064" height="21.161"/>
		<rect x="2125.893" y="842.635" fill="#EEB76C" width="218.704" height="170.527"/>
		<rect x="2135.225" y="851.161" fill="#DAA162" width="10.677" height="16.173"/>
		<rect x="2154.285" y="851.161" fill="#DAA162" width="10.677" height="16.173"/>
		<rect x="2173.346" y="851.161" fill="#DAA162" width="10.677" height="16.173"/>
		<rect x="2192.407" y="851.161" fill="#DAA162" width="10.677" height="16.173"/>
		<rect x="2211.467" y="851.161" fill="#DAA162" width="10.677" height="16.173"/>
		<rect x="2230.528" y="851.161" fill="#DAA162" width="10.677" height="16.173"/>
		<rect x="2249.589" y="851.161" fill="#DAA162" width="10.677" height="16.173"/>
		<rect x="2268.65" y="851.161" fill="#DAA162" width="10.677" height="16.173"/>
		<rect x="2287.71" y="851.161" fill="#DAA162" width="10.677" height="16.173"/>
		<rect x="2306.771" y="851.161" fill="#DAA162" width="10.677" height="16.173"/>
		<rect x="2325.832" y="851.161" fill="#DAA162" width="10.677" height="16.173"/>
		<rect x="2135.225" y="875.42" fill="#DAA162" width="10.677" height="16.173"/>
		<rect x="2154.285" y="875.42" fill="#DAA162" width="10.677" height="16.173"/>
		<rect x="2173.346" y="875.42" fill="#DAA162" width="10.677" height="16.173"/>
		<rect x="2192.407" y="875.42" fill="#DAA162" width="10.677" height="16.173"/>
		<rect x="2211.467" y="875.42" fill="#DAA162" width="10.677" height="16.173"/>
		<rect x="2230.528" y="875.42" fill="#DAA162" width="10.677" height="16.173"/>
		<rect x="2249.589" y="875.42" fill="#DAA162" width="10.677" height="16.173"/>
		<rect x="2268.65" y="875.42" fill="#DAA162" width="10.677" height="16.173"/>
		<rect x="2287.71" y="875.42" fill="#DAA162" width="10.677" height="16.173"/>
		<rect x="2306.771" y="875.42" fill="#DAA162" width="10.677" height="16.173"/>
		<rect x="2325.832" y="875.42" fill="#DAA162" width="10.677" height="16.173"/>
		<rect x="2135.225" y="899.679" fill="#DAA162" width="10.677" height="16.173"/>
		<rect x="2154.285" y="899.679" fill="#DAA162" width="10.677" height="16.173"/>
		<rect x="2173.346" y="899.679" fill="#DAA162" width="10.677" height="16.173"/>
		<rect x="2192.407" y="899.679" fill="#DAA162" width="10.677" height="16.173"/>
		<rect x="2211.467" y="899.679" fill="#DAA162" width="10.677" height="16.173"/>
		<rect x="2230.528" y="899.679" fill="#DAA162" width="10.677" height="16.173"/>
		<rect x="2249.589" y="899.679" fill="#DAA162" width="10.677" height="16.173"/>
		<rect x="2268.65" y="899.679" fill="#DAA162" width="10.677" height="16.173"/>
		<rect x="2287.71" y="899.679" fill="#DAA162" width="10.677" height="16.173"/>
		<rect x="2306.771" y="899.679" fill="#DAA162" width="10.677" height="16.173"/>
		<rect x="2325.832" y="899.679" fill="#DAA162" width="10.677" height="16.173"/>
		<rect x="2135.225" y="923.938" fill="#DAA162" width="10.677" height="16.173"/>
		<rect x="2154.285" y="923.938" fill="#DAA162" width="10.677" height="16.173"/>
		<rect x="2173.346" y="923.938" fill="#DAA162" width="10.677" height="16.173"/>
		<rect x="2192.407" y="923.938" fill="#DAA162" width="10.677" height="16.173"/>
		<rect x="2211.467" y="923.938" fill="#DAA162" width="10.677" height="16.173"/>
		<rect x="2230.528" y="923.938" fill="#DAA162" width="10.677" height="16.173"/>
		<rect x="2249.589" y="923.938" fill="#DAA162" width="10.677" height="16.173"/>
		<rect x="2268.65" y="923.938" fill="#DAA162" width="10.677" height="16.173"/>
		<rect x="2287.71" y="923.938" fill="#DAA162" width="10.677" height="16.173"/>
		<rect x="2306.771" y="923.938" fill="#DAA162" width="10.677" height="16.173"/>
		<rect x="2325.832" y="923.938" fill="#DAA162" width="10.677" height="16.173"/>
		<rect x="2135.225" y="948.197" fill="#DAA162" width="10.677" height="16.173"/>
		<rect x="2154.285" y="948.197" fill="#DAA162" width="10.677" height="16.173"/>
		<rect x="2173.346" y="948.197" fill="#DAA162" width="10.677" height="16.173"/>
		<rect x="2192.407" y="948.197" fill="#DAA162" width="10.677" height="16.173"/>
		<rect x="2211.467" y="948.197" fill="#DAA162" width="10.677" height="16.173"/>
		<rect x="2230.528" y="948.197" fill="#DAA162" width="10.677" height="16.173"/>
		<rect x="2249.589" y="948.197" fill="#DAA162" width="10.677" height="16.173"/>
		<rect x="2268.65" y="948.197" fill="#DAA162" width="10.677" height="16.173"/>
		<rect x="2287.71" y="948.197" fill="#DAA162" width="10.677" height="16.173"/>
		<rect x="2306.771" y="948.197" fill="#DAA162" width="10.677" height="16.173"/>
		<rect x="2325.832" y="948.197" fill="#DAA162" width="10.677" height="16.173"/>
		<rect x="2135.225" y="972.457" fill="#DAA162" width="10.677" height="16.173"/>
		<rect x="2154.285" y="972.457" fill="#DAA162" width="10.677" height="16.173"/>
		<rect x="2173.346" y="972.457" fill="#DAA162" width="10.677" height="16.173"/>
		<rect x="2192.407" y="972.457" fill="#DAA162" width="10.677" height="16.173"/>
		<rect x="2211.467" y="972.457" fill="#DAA162" width="10.677" height="16.173"/>
		<rect x="2230.528" y="972.457" fill="#DAA162" width="10.677" height="16.173"/>
		<rect x="2249.589" y="972.457" fill="#DAA162" width="10.677" height="16.173"/>
		<rect x="2268.65" y="972.457" fill="#DAA162" width="10.677" height="16.173"/>
		<rect x="2287.71" y="972.457" fill="#DAA162" width="10.677" height="16.173"/>
		<rect x="2306.771" y="972.457" fill="#DAA162" width="10.677" height="16.173"/>
		<rect x="2325.832" y="972.457" fill="#DAA162" width="10.677" height="16.173"/>
		<rect x="2055.988" y="947.679" fill="#F6D574" width="288.609" height="65.483"/>
		<g>
			<rect x="2075.401" y="966.566" fill="#EEB76C" width="16.552" height="25.915"/>
			<rect x="2114.272" y="966.566" fill="#EEB76C" width="16.552" height="25.915"/>
			<rect x="2153.144" y="966.566" fill="#EEB76C" width="16.552" height="25.915"/>
			<rect x="2192.016" y="966.566" fill="#EEB76C" width="16.552" height="25.915"/>
			<rect x="2230.887" y="966.566" fill="#EEB76C" width="16.552" height="25.915"/>
			<rect x="2269.76" y="966.566" fill="#EEB76C" width="16.552" height="25.915"/>
			<rect x="2308.631" y="966.566" fill="#EEB76C" width="16.552" height="25.915"/>
		</g>
		<g>
			<g>
				<g>
					<rect x="2097.175" y="994.967" fill="#C2774E" width="6.038" height="122.818"/>
				</g>
			</g>
			<g>
				<g>
					<path fill="#C2774E" d="M2100.117,994.722l-12.835,38.504C2087.282,1033.226,2073.693,1005.292,2100.117,994.722z"/>
				</g>
			</g>
			<g>
				<g>
					<path fill="#C2774E" d="M2100.117,994.722l-31.159,26.008C2068.958,1020.73,2072.082,989.823,2100.117,994.722z"/>
				</g>
			</g>
			<g>
				<g>
					<path fill="#C2774E" d="M2099.958,994.925l-40.515,2.421C2059.443,997.346,2080.311,974.334,2099.958,994.925z"/>
				</g>
			</g>
			<g>
				<g>
					<path fill="#C2774E" d="M2099.55,994.848l12.835,38.504C2112.385,1033.352,2125.974,1005.418,2099.55,994.848z"/>
				</g>
			</g>
			<g>
				<g>
					<path fill="#C2774E" d="M2099.469,994.717l36.188,18.376C2135.657,1013.094,2125.697,983.669,2099.469,994.717z"/>
				</g>
			</g>
			<g>
				<g>
					<path fill="#C2774E" d="M2099.393,994.682l38.61-12.513C2138.003,982.169,2110.183,968.347,2099.393,994.682z"/>
				</g>
			</g>
			<g>
				<g>
					<path fill="#C2774E" d="M2099.605,994.715l-28.748-28.651C2070.858,966.065,2101.921,966.35,2099.605,994.715z"/>
				</g>
			</g>
		</g>
		<polygon fill="#DAA162" points="2315.687,808.263 2154.802,808.263 2125.893,842.635 2344.596,842.635 		"/>
		<rect x="2272.863" y="831.876" fill="#F6D574" width="804.651" height="305.533"/>
		<path fill="#C2774E" d="M3089.615,802.788c1.513-6.665,0.953-13.859-2.073-20.571c-0.187-0.415-0.387-0.821-0.59-1.224
			c0.443-5.325-0.417-10.834-2.768-16.05c-7.392-16.395-26.675-23.694-43.069-16.302c-9.479,4.274-15.909,12.525-18.225,21.893
			c-9.15-10.817-24.676-14.758-38.234-8.645c-6.037,2.722-10.835,7.059-14.126,12.267c-5.113-10.105-17.325-14.491-27.752-9.79
			c-4.588,2.068-8.083,5.563-10.206,9.721c-9.31-9.489-23.897-12.676-36.722-6.894c-13.077,5.896-20.371,19.34-19.076,32.866
			c-0.794,0.251-1.583,0.545-2.361,0.896c-10.725,4.835-15.499,17.449-10.664,28.173c4.835,10.725,17.449,15.499,28.174,10.664
			c2.086-0.94,3.943-2.178,5.552-3.636c8.922,12.038,25.307,16.682,39.526,10.272c2.565-1.156,4.907-2.604,7.006-4.286
			c9.12,6.485,21.339,8.099,32.277,3.168c5.548-2.501,10.051-6.368,13.299-11.02c0.309,0.879,0.649,1.753,1.039,2.617
			c7.391,16.395,26.674,23.694,43.069,16.302c4.472-2.016,8.26-4.921,11.265-8.406c8.504,4.345,18.83,4.934,28.213,0.703
			C3089.445,838.169,3096.748,819.107,3089.615,802.788z"/>
		<rect x="2565.844" y="831.876" fill="#EEB76C" width="511.67" height="305.533"/>
		<path fill="#FFFFFF" d="M2691.02,949.998c23.109-47.182,188.727-59.699,387.083-59.699c0,21.184,0,174.284,0,174.284
			L2691.02,949.998z"/>
		<g>
			<g>
				<g>
					<rect x="2820.754" y="886.647" fill="#C2774E" width="6.038" height="122.818"/>
				</g>
			</g>
			<g>
				<g>
					<path fill="#C2774E" d="M2823.696,886.402l-12.835,38.504C2810.861,924.906,2797.271,896.972,2823.696,886.402z"/>
				</g>
			</g>
			<g>
				<g>
					<path fill="#C2774E" d="M2823.696,886.402l-31.159,26.008C2792.537,912.41,2795.661,881.502,2823.696,886.402z"/>
				</g>
			</g>
			<g>
				<g>
					<path fill="#C2774E" d="M2823.537,886.604l-40.515,2.421C2783.022,889.025,2803.89,866.014,2823.537,886.604z"/>
				</g>
			</g>
			<g>
				<g>
					<path fill="#C2774E" d="M2823.129,886.528l12.835,38.504C2835.964,925.032,2849.553,897.097,2823.129,886.528z"/>
				</g>
			</g>
			<g>
				<g>
					<path fill="#C2774E" d="M2823.048,886.397l36.188,18.376C2859.236,904.773,2849.276,875.349,2823.048,886.397z"/>
				</g>
			</g>
			<g>
				<g>
					<path fill="#C2774E" d="M2822.972,886.362l38.61-12.513C2861.582,873.849,2833.762,860.027,2822.972,886.362z"/>
				</g>
			</g>
			<g>
				<g>
					<path fill="#C2774E" d="M2823.184,886.395l-28.748-28.651C2794.437,857.744,2825.5,858.03,2823.184,886.395z"/>
				</g>
			</g>
		</g>
		<g>
			<path fill="#C2774E" d="M3020.86,891.894l-3.613-1.514c-5.197,8.701-21.337,40.883-18.86,101.565l3.848-0.158
				C2999.771,931.429,3016.432,899.301,3020.86,891.894z"/>
			<g>
				<g>
					<path fill="#C2774E" d="M3019.498,891.569l-29.138,30.667C2990.361,922.236,2989.885,889.862,3019.498,891.569z"/>
				</g>
			</g>
			<g>
				<g>
					<path fill="#C2774E" d="M3019.642,891.575l-39.613,14.843C2980.029,906.418,2993.754,877.094,3019.642,891.575z"/>
				</g>
			</g>
			<g>
				<g>
					<path fill="#C2774E" d="M3019.416,891.72l-40.686-11.582C2978.73,880.138,3007.187,864.695,3019.416,891.72z"/>
				</g>
			</g>
			<g>
				<g>
					<path fill="#C2774E" d="M3019.041,891.504l-0.646,42.297C3018.395,933.801,3041.39,911.007,3019.041,891.504z"/>
				</g>
			</g>
			<g>
				<g>
					<path fill="#C2774E" d="M3018.946,891.297l34.507,24.469C3053.453,915.765,3047.674,883.908,3018.946,891.297z"/>
				</g>
			</g>
			<g>
				<g>
					<path fill="#C2774E" d="M3018.835,891.669l40.031-13.676C3058.866,877.993,3029.646,864.047,3018.835,891.669z"/>
				</g>
			</g>
			<g>
				<g>
					<path fill="#C2774E" d="M3019.184,891.347l-22.801-35.632C2996.383,855.716,3027.929,863.003,3019.184,891.347z"/>
				</g>
			</g>
		</g>
		<rect x="2272.863" y="876.643" fill="#FFFFFF" width="292.74" height="6.396"/>
		<rect x="2307.855" y="876.643" fill="#FFFFFF" width="6.396" height="200.543"/>
		<rect x="2351.168" y="876.643" fill="#FFFFFF" width="6.396" height="200.543"/>
		<rect x="2395.445" y="876.643" fill="#FFFFFF" width="6.396" height="200.543"/>
		<rect x="2439.721" y="876.643" fill="#FFFFFF" width="6.396" height="200.543"/>
		<rect x="2483.998" y="876.643" fill="#FFFFFF" width="6.396" height="200.543"/>
		<rect x="2528.275" y="876.643" fill="#FFFFFF" width="6.396" height="200.543"/>
		<linearGradient id="SVGID_8_" gradientUnits="userSpaceOnUse" x1="2141.6204" y1="1073.494" x2="3078.3425" y2="1073.494">
			<stop  offset="0" style="stop-color:#DAA162"/>
			<stop  offset="1" style="stop-color:#C2774E"/>
		</linearGradient>
		<path fill="url(#SVGID_8_)" d="M3078.343,1251.305c-9.64,2.186-22.564,1.235-32.151-3.411
			c-10.698-5.186-18.418-14.041-22.397-24.317c-8.32,1.003-17.012-0.277-25.113-4.204c-0.371-0.18-0.73-0.376-1.094-0.565
			c-0.483,1.279-1.018,2.55-1.626,3.805c-10.876,22.438-37.882,31.812-60.32,20.936c-14.682-7.116-23.767-21.139-25.249-36.268
			c-2.929-0.372-5.851-1.038-8.728-2.011c-0.684,4.243-1.98,8.459-3.951,12.525c-10.875,22.438-37.882,31.812-60.32,20.936
			c-8.336-4.04-14.864-10.31-19.225-17.741c-2.762-0.733-5.494-1.73-8.162-3.023c-14.898-7.221-24.022-21.555-25.294-36.939
			c-2.095-0.659-4.169-1.474-6.205-2.46c-10.699-5.186-18.418-14.041-22.397-24.317c-8.32,1.003-17.012-0.277-25.113-4.204
			c-0.372-0.18-0.73-0.376-1.094-0.565c-0.483,1.279-1.018,2.55-1.626,3.805c-10.876,22.438-37.882,31.812-60.32,20.936
			c-14.682-7.116-23.767-21.139-25.249-36.268c-2.929-0.372-5.851-1.038-8.728-2.011c-0.684,4.243-1.98,8.459-3.951,12.525
			c-10.875,22.438-37.882,31.812-60.32,20.936c-8.336-4.04-14.864-10.31-19.226-17.741c-2.762-0.733-5.494-1.73-8.161-3.023
			c-4.7-2.278-8.819-5.271-12.305-8.775c-12.758,8.056-29.257,9.543-43.833,2.478c-5.848-2.834-10.799-6.772-14.744-11.431
			c-0.749,3.179-1.842,6.327-3.326,9.388c-10.875,22.438-37.882,31.811-60.32,20.936c-10.699-5.186-18.418-14.042-22.397-24.317
			c-8.32,1.003-17.012-0.277-25.113-4.204c-0.372-0.18-0.73-0.376-1.094-0.565c-0.483,1.28-1.018,2.55-1.626,3.805
			c-10.876,22.438-37.882,31.812-60.32,20.936c-14.682-7.116-23.767-21.139-25.249-36.268c-2.929-0.372-5.851-1.038-8.728-2.011
			c-0.684,4.243-1.98,8.459-3.951,12.525c-10.875,22.438-37.882,31.812-60.32,20.936c-8.336-4.04-14.864-10.31-19.226-17.741
			c-2.762-0.733-5.494-1.73-8.162-3.023c-20.158-9.77-29.761-32.558-23.62-53.359c-7.489-12.605-8.712-28.606-1.838-42.787
			c8.79-18.134,28.115-27.729,47.051-25.003c10.377-17.388,31.025-25.571,50.246-20.483c0.515-1.403,1.103-2.793,1.768-4.166
			c10.876-22.438,37.882-31.812,60.32-20.936c9.166,4.443,16.148,11.578,20.464,19.993c8.353-10.884,23.466-14.787,36.296-8.568
			c4.387,2.126,8.004,5.2,10.738,8.85c13.158-10.135,31.421-12.631,47.384-4.894c2.681,1.299,5.171,2.833,7.467,4.557
			c0.542-5.016,1.92-10.025,4.247-14.826c8.79-18.134,28.115-27.729,47.051-25.003c10.377-17.388,31.025-25.571,50.245-20.483
			c0.515-1.403,1.103-2.793,1.768-4.166c10.876-22.438,37.882-31.812,60.32-20.936c9.166,4.443,16.148,11.578,20.464,19.993
			c8.353-10.884,23.466-14.787,36.296-8.568c4.387,2.126,8.004,5.2,10.738,8.85c13.158-10.135,31.421-12.631,47.384-4.894
			c11.045,5.354,18.922,14.61,22.798,25.305c9.032-8.764,22.921-11.417,34.903-5.61c6.88,3.335,11.952,8.895,14.788,15.393
			c13.271-11.759,32.819-15.076,49.771-6.86c10.068,4.88,17.502,13.005,21.676,22.505c12.244-6.402,27.256-7.125,40.643-0.636
			c9.166,4.443,16.148,11.578,20.464,19.993c8.353-10.884,23.466-14.787,36.296-8.568c4.387,2.126,8.004,5.2,10.738,8.85
			c13.158-10.135,31.421-12.631,47.384-4.894c11.045,5.354,18.922,14.61,22.798,25.305c9.032-8.764,22.921-11.417,34.903-5.61
			c6.88,3.335,11.952,8.895,14.788,15.393V1251.305z"/>
		<g>
			<g>
				<path fill="#C2774E" d="M2078.399,947.701l-4.814-0.043c0.017-1.844,0.56-48.326,13.681-61.446l3.404,3.404
					C2078.926,901.359,2078.403,947.269,2078.399,947.701z"/>
			</g>
			<g>
				<g>
					<path fill="#C2774E" d="M2088.654,888.395l-19.291,25.986C2069.363,914.381,2066.006,889.839,2088.654,888.395z"/>
				</g>
			</g>
			<g>
				<g>
					<path fill="#C2774E" d="M2088.654,888.395l-30.071,11.965C2058.583,900.36,2068.629,877.718,2088.654,888.395z"/>
				</g>
			</g>
			<g>
				<g>
					<path fill="#C2774E" d="M2088.483,888.509l-31.3-8.231C2057.184,880.278,2078.712,868.027,2088.483,888.509z"/>
				</g>
			</g>
			<g>
				<g>
					<path fill="#C2774E" d="M2088.193,888.35l0.159,32.363C2088.352,920.713,2105.589,902.923,2088.193,888.35z"/>
				</g>
			</g>
			<g>
				<g>
					<path fill="#C2774E" d="M2088.164,888.231l22.855,22.914C2111.019,911.145,2110.782,886.375,2088.164,888.231z"/>
				</g>
			</g>
			<g>
				<g>
					<path fill="#C2774E" d="M2088.115,888.185l32.364,0.111C2120.479,888.297,2102.833,870.912,2088.115,888.185z"/>
				</g>
			</g>
			<g>
				<g>
					<path fill="#C2774E" d="M2088.268,888.263l-14.664-28.851C2073.604,859.412,2097.07,867.346,2088.268,888.263z"/>
				</g>
			</g>
		</g>
		<g>
			<g>
				<rect x="1951.749" y="862.462" fill="#C2774E" width="4.814" height="74.565"/>
			</g>
			<g>
				<path fill="#C2774E" d="M1953.752,860.599l14.527,43.581C1968.279,904.18,1983.661,872.563,1953.752,860.599z"/>
			</g>
			<g>
				<path fill="#C2774E" d="M1953.752,860.599l35.268,29.437C1989.02,890.036,1985.484,855.054,1953.752,860.599z"/>
			</g>
			<g>
				<path fill="#C2774E" d="M1953.932,860.828l45.856,2.74C1999.789,863.569,1976.169,837.523,1953.932,860.828z"/>
			</g>
			<g>
				<path fill="#C2774E" d="M1954.394,860.742l-14.527,43.581C1939.867,904.322,1924.486,872.705,1954.394,860.742z"/>
			</g>
			<g>
				<path fill="#C2774E" d="M1954.486,860.594l-40.96,20.799C1913.526,881.393,1924.8,848.089,1954.486,860.594z"/>
			</g>
			<g>
				<path fill="#C2774E" d="M1954.572,860.554l-43.7-14.163C1910.871,846.392,1942.359,830.747,1954.572,860.554z"/>
			</g>
			<g>
				<path fill="#C2774E" d="M1954.331,860.592l32.538-32.428C1986.869,828.163,1951.71,828.486,1954.331,860.592z"/>
			</g>
		</g>
		<rect x="2296.581" y="846.128" fill="#FFFFFF" width="20.488" height="30.281"/>
		<rect x="2340.787" y="846.128" fill="#FFFFFF" width="20.488" height="30.281"/>
		<rect x="2384.993" y="846.128" fill="#FFFFFF" width="20.488" height="30.281"/>
		<rect x="2429.2" y="846.128" fill="#FFFFFF" width="20.488" height="30.281"/>
		<rect x="2473.406" y="846.128" fill="#FFFFFF" width="20.488" height="30.281"/>
		<rect x="2517.613" y="846.128" fill="#FFFFFF" width="20.488" height="30.281"/>
		<polygon fill="#FFFFFF" points="2160.887,947.679 2216.875,891.691 2272.863,947.679 		"/>
		<path fill="#F6D574" d="M892.433,914.934c0.614,9.517,8.523,17.047,18.195,17.047s17.581-7.53,18.195-17.047H892.433z"/>
		<path fill="#F6D574" d="M929.023,914.934c0.614,9.517,8.523,17.047,18.195,17.047s17.581-7.53,18.195-17.047H929.023z"/>
		<path fill="#F6D574" d="M965.613,914.934c0.614,9.517,8.523,17.047,18.195,17.047s17.581-7.53,18.195-17.047H965.613z"/>
		<path fill="#F6D574" d="M1002.203,914.934c0.614,9.517,8.523,17.047,18.195,17.047c9.672,0,17.581-7.53,18.195-17.047H1002.203z"
			/>
		<path fill="#F6D574" d="M155.856,914.934c0.614,9.517,8.523,17.047,18.195,17.047s17.581-7.53,18.195-17.047H155.856z"/>
		<path fill="#F6D574" d="M192.446,914.934c0.614,9.517,8.523,17.047,18.195,17.047s17.581-7.53,18.195-17.047H192.446z"/>
		<path fill="#F6D574" d="M229.036,914.934c0.614,9.517,8.523,17.047,18.195,17.047c9.672,0,17.581-7.53,18.195-17.047H229.036z"/>
		<path fill="#F6D574" d="M265.626,914.934c0.614,9.517,8.523,17.047,18.195,17.047s17.581-7.53,18.195-17.047H265.626z"/>
		<path fill="#F6D574" d="M1038.793,914.934c0.614,9.517,8.523,17.047,18.195,17.047c9.672,0,17.581-7.53,18.195-17.047H1038.793z"
			/>
		<path fill="#F6D574" d="M-288.5,877.864c0.614,9.517,8.523,17.047,18.195,17.047s17.581-7.53,18.195-17.047H-288.5z"/>
		<path fill="#F6D574" d="M-251.91,877.864c0.614,9.517,8.523,17.047,18.195,17.047s17.581-7.53,18.195-17.047H-251.91z"/>
		<path fill="#F6D574" d="M-215.32,877.864c0.614,9.517,8.523,17.047,18.195,17.047s17.581-7.53,18.195-17.047H-215.32z"/>
		<path fill="#F6D574" d="M-178.73,877.864c0.614,9.517,8.523,17.047,18.195,17.047s17.581-7.53,18.195-17.047H-178.73z"/>
		<path fill="#F6D574" d="M-142.14,877.864c0.614,9.517,8.523,17.047,18.195,17.047s17.581-7.53,18.195-17.047H-142.14z"/>
		<path fill="#F6D574" d="M395.579,888.936c0.614,9.517,8.523,17.047,18.195,17.047c9.672,0,17.581-7.53,18.195-17.047H395.579z"/>
		<g>
			
				<rect x="139.279" y="585.553" transform="matrix(-1 0.0099 -0.0099 -1 322.1575 1713.549)" fill="#FBFDF9" width="35.127" height="544.036"/>
		</g>
		<g>
			<path fill="#EEB76C" d="M151.07,572.004l109.129,316.908C260.199,888.912,370.138,657.128,151.07,572.004z"/>
		</g>
		<g>
			<path fill="#DAA162" d="M151.07,572.004l259.427,212.219C410.497,784.224,382.175,529.257,151.07,572.004z"/>
		</g>
		<g>
			<path fill="#F0C46F" d="M152.4,573.664l334.755,16.685C487.156,590.348,312.956,402.028,152.4,573.664z"/>
		</g>
		<g>
			<path fill="#EEB76C" d="M155.763,572.997L52.922,892.001C52.922,892.001-61.579,662.437,155.763,572.997z"/>
		</g>
		<g>
			<path fill="#F0C46F" d="M156.422,571.911l-297.333,154.701C-140.911,726.613-61.063,482.821,156.422,571.911z"/>
		</g>
		<g>
			<path fill="#EEB76C" d="M157.045,571.618l-319.851-100.175C-162.806,471.442,65.794,355.03,157.045,571.618z"/>
		</g>
		<g>
			<path fill="#EEB76C" d="M155.294,571.908l235.05-238.937C390.344,332.971,133.857,337.863,155.294,571.908z"/>
		</g>
		<path fill="#F6D574" d="M468.759,888.936c0.614,9.517,8.523,17.047,18.195,17.047s17.581-7.53,18.195-17.047H468.759z"/>
		<path fill="#F6D574" d="M505.349,888.936c0.614,9.517,8.523,17.047,18.195,17.047s17.581-7.53,18.195-17.047H505.349z"/>
		<path fill="#F6D574" d="M-580.747,901.935c0.614,9.517,8.523,17.047,18.195,17.047s17.581-7.53,18.195-17.047H-580.747z"/>
		<path fill="#F6D574" d="M-507.567,901.935c0.614,9.517,8.523,17.047,18.195,17.047s17.581-7.53,18.195-17.047H-507.567z"/>
		<path fill="#F6D574" d="M-470.977,901.935c0.614,9.517,8.523,17.047,18.195,17.047s17.581-7.53,18.195-17.047H-470.977z"/>
		<path fill="#F6D574" d="M1198.633,969.819c0.614,9.517,8.523,17.047,18.195,17.047c9.672,0,17.581-7.53,18.195-17.047H1198.633z"
			/>
		<path fill="#F6D574" d="M1235.223,969.819c0.614,9.517,8.523,17.047,18.195,17.047c9.672,0,17.581-7.53,18.195-17.047H1235.223z"
			/>
		<path fill="#F6D574" d="M1271.813,969.819c0.614,9.517,8.523,17.047,18.195,17.047c9.672,0,17.581-7.53,18.195-17.047H1271.813z"
			/>
		<path fill="#F6D574" d="M672.893,969.819c0.614,9.517,8.523,17.047,18.195,17.047s17.581-7.53,18.195-17.047H672.893z"/>
		<path fill="#F6D574" d="M52.074,907.038c0.614,9.517,8.523,17.047,18.195,17.047s17.581-7.53,18.195-17.047H52.074z"/>
		<path fill="#F6D574" d="M709.483,969.819c0.614,9.517,8.523,17.047,18.195,17.047s17.581-7.53,18.195-17.047H709.483z"/>
		<path fill="#F6D574" d="M15.683,907.038c0.614,9.517,8.523,17.047,18.195,17.047s17.581-7.53,18.195-17.047H15.683z"/>
		<path fill="#F6D574" d="M1470.613,910.604c0.614,9.517,8.523,17.047,18.195,17.047c9.672,0,17.581-7.53,18.195-17.047H1470.613z"
			/>
		<rect x="-22.657" y="935.539" fill="#C2774E" width="124.207" height="38.995"/>
		<rect x="-84.841" y="974.615" fill="#F0C46F" width="124.207" height="38.995"/>
		<rect x="-84.52" y="1052.284" fill="#F0C46F" width="124.207" height="38.995"/>
		<rect x="-581.589" y="974.534" fill="#C2774E" width="124.207" height="38.995"/>
		<rect x="-209.048" y="974.615" fill="#C2774E" width="124.207" height="38.995"/>
		<rect x="-625.025" y="1013.61" fill="#F0C46F" width="105.459" height="38.995"/>
		<rect x="-519.486" y="1013.289" fill="#DAA162" width="124.207" height="38.995"/>
		<rect x="-395.279" y="1013.289" fill="#C2774E" width="124.207" height="38.995"/>
		<rect x="-271.071" y="1013.289" fill="#F0C46F" width="124.207" height="38.995"/>
		<rect x="-625.025" y="1091.279" fill="#F0C46F" width="105.78" height="38.995"/>
		<rect x="-625.025" y="1169.61" fill="#F0C46F" width="105.78" height="38.995"/>
		<rect x="-519.245" y="1091.279" fill="#DAA162" width="124.207" height="38.995"/>
		<rect x="-395.038" y="1091.279" fill="#C2774E" width="124.207" height="38.995"/>
		<rect x="-270.831" y="1091.279" fill="#F0C46F" width="124.207" height="38.995"/>
		<rect x="-146.624" y="1013.289" fill="#DAA162" width="124.207" height="38.995"/>
		<rect x="-146.864" y="935.539" fill="#DAA162" width="124.207" height="38.995"/>
		<rect x="536.275" y="974.294" fill="#C2774E" width="124.207" height="38.995"/>
		<rect x="412.068" y="974.294" fill="#DAA162" width="124.207" height="38.995"/>
		<rect x="-581.349" y="1052.284" fill="#C2774E" width="124.207" height="38.995"/>
		<rect x="-457.141" y="1052.284" fill="#F0C46F" width="124.207" height="38.995"/>
		<rect x="-271.071" y="935.539" fill="#F0C46F" width="124.207" height="38.995"/>
		<rect x="349.964" y="935.539" fill="#C2774E" width="124.207" height="38.995"/>
		<rect x="225.757" y="935.539" fill="#DAA162" width="124.207" height="38.995"/>
		<rect x="101.55" y="935.539" fill="#F0C46F" width="124.207" height="38.995"/>
		<rect x="474.172" y="935.539" fill="#F0C46F" width="124.207" height="38.995"/>
		<rect x="-395.279" y="935.539" fill="#C2774E" width="124.207" height="38.995"/>
		<rect x="-457.462" y="974.615" fill="#F0C46F" width="124.207" height="38.995"/>
		<rect x="-333.255" y="974.615" fill="#DAA162" width="124.207" height="38.995"/>
		<rect x="-625.025" y="935.539" fill="#F0C46F" width="105.539" height="38.995"/>
		<rect x="-519.486" y="935.539" fill="#DAA162" width="124.207" height="38.995"/>
		<rect x="-146.624" y="1091.279" fill="#DAA162" width="124.207" height="38.995"/>
		<rect x="-625.025" y="1052.284" fill="#DAA162" width="43.676" height="38.995"/>
		<rect x="-625.025" y="1130.275" fill="#DAA162" width="43.676" height="38.995"/>
		<rect x="-625.025" y="974.534" fill="#DAA162" width="43.435" height="38.995"/>
		<rect x="-332.934" y="1052.284" fill="#DAA162" width="124.207" height="38.995"/>
		<rect x="-581.349" y="1130.275" fill="#C2774E" width="124.207" height="38.995"/>
		<rect x="-457.141" y="1130.275" fill="#F0C46F" width="124.207" height="38.995"/>
		<rect x="-332.934" y="1129.322" fill="#DAA162" width="124.207" height="38.995"/>
		<rect x="-208.727" y="1052.284" fill="#C2774E" width="124.207" height="38.995"/>
		<line fill="#E7E7E7" x1="-510.466" y1="1038.663" x2="-254.831" y2="1038.663"/>
		<rect x="39.446" y="974.294" fill="#DAA162" width="124.207" height="38.995"/>
		<rect x="163.654" y="974.294" fill="#C2774E" width="124.207" height="38.995"/>
		<rect x="287.861" y="974.294" fill="#F0C46F" width="124.207" height="38.995"/>
		<rect x="39.687" y="1052.284" fill="#DAA162" width="124.207" height="38.995"/>
		<rect x="163.894" y="1052.284" fill="#C2774E" width="124.207" height="38.995"/>
		<rect x="412.309" y="1052.284" fill="#C2774E" width="124.207" height="38.995"/>
		<rect x="288.102" y="1052.284" fill="#DAA162" width="124.207" height="38.995"/>
		<rect x="-22.416" y="1013.289" fill="#C2774E" width="124.207" height="38.995"/>
		<rect x="101.791" y="1013.289" fill="#F0C46F" width="124.207" height="38.995"/>
		<rect x="225.998" y="1013.289" fill="#DAA162" width="124.207" height="38.995"/>
		<rect x="-22.416" y="1091.279" fill="#C2774E" width="124.207" height="38.995"/>
		<rect x="101.791" y="1091.279" fill="#F0C46F" width="124.207" height="38.995"/>
		<rect x="225.998" y="1090.327" fill="#83AFC0" width="124.207" height="38.995"/>
		<rect x="474.413" y="1013.289" fill="#F0C46F" width="124.207" height="38.995"/>
		<rect x="598.62" y="1013.289" fill="#DAA162" width="124.207" height="38.995"/>
		<rect x="350.205" y="1013.289" fill="#C2774E" width="124.207" height="38.995"/>
		<linearGradient id="SVGID_9_" gradientUnits="userSpaceOnUse" x1="1226.2446" y1="5433.647" x2="1226.2446" y2="2839.8701">
			<stop  offset="0" style="stop-color:#121A3C"/>
			<stop  offset="1" style="stop-color:#1D3658"/>
		</linearGradient>
		<path fill="url(#SVGID_9_)" d="M3077.514,4593V1199.392c-289.814-68.185-1342.677-180.455-1853.061-180.455
			c-509.364,0-1559.589,92.837-1849.478,160.789V4601L3077.514,4593z"/>
		<polygon fill="#C1DDE9" points="1450.313,1080.453 1450.313,1100.673 1357.522,1023.203 1357.522,1002.984 		"/>
		<rect x="1450.313" y="1080.453" fill="#DAF1FA" width="419.952" height="20.22"/>
		<path fill="#FFFFFF" d="M1777.474,1002.984h-15.683h-388.586h-4.56h-11.123l11.123,9.286v0.824h0.987l80.681,67.36h15.683h388.586
			h6.927h8.756L1777.474,1002.984z M1458.691,1074.355l-73.377-61.261h388.586l73.376,61.261H1458.691z"/>
		<linearGradient id="SVGID_10_" gradientUnits="userSpaceOnUse" x1="1385.3146" y1="1043.7242" x2="1847.2773" y2="1043.7242">
			<stop  offset="0" style="stop-color:#FCC25B"/>
			<stop  offset="1" style="stop-color:#F79563"/>
		</linearGradient>
		<polygon fill="url(#SVGID_10_)" points="1385.315,1013.094 1773.901,1013.094 1847.277,1074.355 1458.691,1074.355 		"/>
		<polygon fill="#F6D574" points="1453.656,1038.711 1512.405,1038.711 1512.443,1038.632 1512.87,1038.711 1537.097,1038.711 
			1560.972,1018.815 1535.373,1034.271 1560.972,1005.472 1537.114,1026.146 1564.227,994.15 1521.65,1034.938 1556.091,984.042 
			1514.89,1033.411 1541.445,976.764 1508.616,1031.133 1525.986,966.655 1502.964,1026.744 1510.526,959.781 1494.205,1035.413 
			1493.44,955.333 1487.361,1025.518 1481.236,954.12 1480.497,1032.149 1466.59,963.825 1473.207,1032.492 1443.808,976.764 
			1462.377,1023.631 1432.391,984.586 1461.871,1032.656 1423.467,998.598 1455.108,1033.408 1420.212,1009.516 		"/>
		<polygon fill="#C2774E" points="1535.892,1061.233 1587.767,1061.233 1587.8,1061.134 1588.177,1061.233 1609.57,1061.233 
			1630.652,1036.355 1608.048,1055.681 1630.652,1019.67 1609.585,1045.521 1633.525,1005.513 1595.93,1056.515 1626.341,992.873 
			1589.961,1054.606 1613.409,983.772 1584.421,1051.758 1599.759,971.132 1579.43,1046.269 1586.108,962.537 1571.697,1057.109 
			1571.021,956.975 1565.653,1044.736 1560.245,955.458 1559.593,1053.028 1547.312,967.593 1553.155,1053.456 1527.196,983.772 
			1543.593,1042.376 1517.115,993.553 1543.146,1053.661 1509.235,1011.075 1537.174,1054.602 1506.361,1024.726 		"/>
		<linearGradient id="SVGID_11_" gradientUnits="userSpaceOnUse" x1="1647.2159" y1="1019.8077" x2="1705.9525" y2="1019.8077">
			<stop  offset="0" style="stop-color:#EFE2D1"/>
			<stop  offset="1" style="stop-color:#C5BAA4"/>
		</linearGradient>
		<polygon fill="url(#SVGID_11_)" points="1647.216,1030.4 1663.585,1007.772 1684.769,1007.772 1691.509,1019.326 
			1705.953,1031.844 		"/>
		<path fill="#F6D574" d="M1680.917,1048.213c0.62-0.93,4.035-10.644,6.388-17.444c1.437-4.153,4.836-7.319,9.079-8.464
			l17.563-4.739c3.783-1.021,7.823-0.317,11.038,1.922l19.416,13.522c1.629,1.134,2.982,2.619,3.96,4.346l6.698,11.82
			L1680.917,1048.213z"/>
		<g>
			<ellipse fill="#FAB857" cx="1669.262" cy="1060.259" rx="4.68" ry="2.733"/>
			<ellipse fill="#FAB857" cx="1763.304" cy="1036.508" rx="4.68" ry="2.733"/>
			<ellipse fill="#FAB857" cx="1655.722" cy="1042.436" rx="4.68" ry="2.733"/>
			<ellipse fill="#FAB857" cx="1770.814" cy="1020.931" rx="4.68" ry="2.733"/>
			<ellipse fill="#F38B50" cx="1630.231" cy="1056.237" rx="4.68" ry="2.733"/>
			<ellipse fill="#F38B50" cx="1417.753" cy="1025.425" rx="4.68" ry="2.733"/>
			<ellipse fill="#F38B50" cx="1516.041" cy="1046.779" rx="4.68" ry="2.733"/>
			<ellipse fill="#F9B557" cx="1452.49" cy="1060.259" rx="4.68" ry="2.733"/>
			<ellipse fill="#FAB857" cx="1650.003" cy="1049.186" rx="3.778" ry="2.206"/>
			<ellipse fill="#F38B50" cx="1558.77" cy="1068.564" rx="3.778" ry="2.206"/>
			<ellipse fill="#FAB857" cx="1615.941" cy="1066.157" rx="3.778" ry="2.206"/>
			<ellipse fill="#FAB857" cx="1747.196" cy="1064.903" rx="3.778" ry="2.206"/>
			<ellipse fill="#F38B50" cx="1764.85" cy="1061.052" rx="3.778" ry="2.206"/>
			<ellipse fill="#FAB857" cx="1809.972" cy="1064.582" rx="3.778" ry="2.206"/>
			<ellipse fill="#F38B50" cx="1656.363" cy="1050.46" rx="3.778" ry="2.206"/>
			<ellipse fill="#FAB857" cx="1779.614" cy="1054.031" rx="3.778" ry="2.206"/>
			<ellipse fill="#FAB857" cx="1794.565" cy="1042.115" rx="3.778" ry="2.206"/>
			<ellipse fill="#FAB857" cx="1637.847" cy="1037.752" rx="3.778" ry="2.206"/>
			<ellipse fill="#FAB857" cx="1745.779" cy="1021.573" rx="3.778" ry="2.206"/>
			<ellipse fill="#FAB857" cx="1672.511" cy="1036.548" rx="2.049" ry="1.196"/>
			<ellipse fill="#FAB857" cx="1703.866" cy="1056.967" rx="2.049" ry="1.196"/>
			<ellipse fill="#FAB857" cx="1638.911" cy="1066.629" rx="2.049" ry="1.196"/>
			<ellipse fill="#FAB857" cx="1718.048" cy="1057.692" rx="4.68" ry="2.733"/>
			<ellipse fill="#FAB857" cx="1687.698" cy="1064.061" rx="2.049" ry="1.196"/>
			<ellipse fill="#FAB857" cx="1786.033" cy="1065.224" rx="2.049" ry="1.196"/>
			<ellipse fill="#FAB857" cx="1585.109" cy="1066.508" rx="2.049" ry="1.196"/>
			<ellipse fill="#F38B50" cx="1515.179" cy="1060.971" rx="3.296" ry="1.925"/>
			<ellipse fill="#FAB857" cx="1633.997" cy="1024.141" rx="3.296" ry="1.925"/>
			<ellipse fill="#F38B50" cx="1475.219" cy="1051.102" rx="3.296" ry="1.925"/>
			<ellipse fill="#F38B50" cx="1504.828" cy="1069.397" rx="3.296" ry="1.925"/>
			<ellipse fill="#FAB857" cx="1710.566" cy="1066.829" rx="3.296" ry="1.925"/>
			<ellipse fill="#F9B557" cx="1480.515" cy="1045.686" rx="2.049" ry="1.196"/>
			<ellipse fill="#F38B50" cx="1494.477" cy="1050.981" rx="3.455" ry="2.017"/>
			<ellipse fill="#F38B50" cx="1502.18" cy="1052.546" rx="3.455" ry="2.017"/>
			<ellipse fill="#F38B50" cx="1495.56" cy="1059.166" rx="3.455" ry="2.017"/>
			<ellipse fill="#FAB857" cx="1534.316" cy="1068.795" rx="3.455" ry="2.017"/>
			<ellipse fill="#FAB857" cx="1610.043" cy="1063.028" rx="4.68" ry="2.733"/>
			<ellipse fill="#F38B50" cx="1769.53" cy="1038.905" rx="4.68" ry="2.733"/>
			<ellipse fill="#F38B50" cx="1455.018" cy="1039.316" rx="3.778" ry="2.206"/>
			<ellipse fill="#F38B50" cx="1488.839" cy="1038.955" rx="3.778" ry="2.206"/>
			<ellipse fill="#F38B50" cx="1460.193" cy="1039.316" rx="2.313" ry="1.35"/>
		</g>
		<rect x="498.189" y="784.598" fill="#EEB76C" width="54.564" height="34.664"/>
		<rect x="574.981" y="776.395" fill="#EEB76C" width="37.711" height="42.868"/>
		<path fill="#FFFFFF" d="M740.302,848.657c9.208-8.061,25.45-20.227,47.721-29.036c3.092-1.223,2.218-5.817-1.107-5.818
			c-73.948-0.016-341.232-0.131-340.403-0.96l17.907,35.814H740.302z"/>
		<path fill="#EEB76C" d="M459.452,838.72l9.208,18.416h262.87c0,0,7.464-8.519,21.389-18.416H459.452z"/>
		
			<line fill="none" stroke="#EEB76C" stroke-width="7" stroke-miterlimit="10" x1="593.836" y1="797.829" x2="593.836" y2="747.79"/>
		
			<line fill="none" stroke="#EEB76C" stroke-width="7" stroke-miterlimit="10" x1="575.541" y1="762.218" x2="612.131" y2="762.218"/>
	</g>
</g>
<g id="Layer_2">
	<linearGradient id="SVGID_12_" gradientUnits="userSpaceOnUse" x1="2166.5591" y1="1749.5348" x2="2399.7297" y2="2225.5918">
		<stop  offset="0" style="stop-color:#FCC25B"/>
		<stop  offset="1" style="stop-color:#F79563"/>
	</linearGradient>
	<polygon fill="url(#SVGID_12_)" points="2274.892,1729.231 1996.372,1728.269 1637.968,1423.031 2160.82,1423.031 
		2525.757,1730.194 	"/>
	<path fill="#FFFFFF" d="M2179.705,1419.218c-13.434-11.223-30.382-17.371-47.887-17.371h-473.158h-0.251h-0.231
		c-9.966,0-19.085,3.842-25.941,10.11c-5.864,5.363-10.072,12.498-11.747,20.548c-0.511,2.378-0.78,4.834-0.809,7.347
		c-0.009,0.164-0.009,0.337-0.009,0.501v4.574c0,0,60.749,64.639,67.807,56.647l272.095,226.694h56.003l-318.421-265.403
		l-7.057-5.895c-7.8-6.515-3.192-19.217,6.971-19.217l0,0h455.807l39.695,33.162l315.853,258.316h46.219L2179.705,1419.218z"/>
	<path fill="#DAF1FA" d="M1687.48,1501.574l-67.807-56.647v31.198c0,11.439,5.055,21.752,13.038,28.82l1.724,1.444
		c0.009,0,0.009,0.01,0.009,0.01l266.323,221.87h58.808L1687.48,1501.574z"/>
	<polygon fill="#FFFFFF" points="1088.151,1481.768 1029.341,1481.768 1322.067,1727.306 1380.875,1727.306 	"/>
	<polygon fill="#FFFFFF" points="518.165,1481.768 459.354,1481.768 752.08,1727.306 810.889,1727.306 	"/>
	<ellipse fill="#E9B453" cx="1756.696" cy="1457.053" rx="17.653" ry="7.703"/>
	<ellipse fill="#E9B453" cx="1991.963" cy="1596.994" rx="17.653" ry="7.703"/>
	<ellipse fill="#E69F50" cx="1804.199" cy="1483.372" rx="17.653" ry="7.703"/>
	<ellipse fill="#E69F50" cx="1773.229" cy="1441.223" rx="11.719" ry="6.843"/>
	<ellipse fill="#E69F50" cx="1768.736" cy="1481.023" rx="11.719" ry="6.843"/>
	<ellipse fill="#E9B453" cx="1816.462" cy="1538.33" rx="11.719" ry="6.843"/>
	<ellipse fill="#E69F50" cx="1985.932" cy="1556.304" rx="11.719" ry="6.843"/>
	<ellipse fill="#E69F50" cx="1918.118" cy="1551.818" rx="11.719" ry="6.843"/>
	<ellipse fill="#E69F50" cx="1903.995" cy="1537.054" rx="11.719" ry="6.843"/>
	<ellipse fill="#E9B453" cx="2078.624" cy="1576.452" rx="11.719" ry="6.843"/>
	<ellipse fill="#E69F50" cx="1973.333" cy="1641.764" rx="11.719" ry="6.843"/>
	<ellipse fill="#E69F50" cx="2302.365" cy="1708.048" rx="11.719" ry="6.843"/>
	<ellipse fill="#E69F50" cx="2431.393" cy="1698.419" rx="11.719" ry="6.843"/>
	<ellipse fill="#E69F50" cx="1866.145" cy="1526.382" rx="11.719" ry="6.843"/>
	<ellipse fill="#E69F50" cx="1876.519" cy="1572.734" rx="17.082" ry="9.975"/>
	<ellipse fill="#E69F50" cx="1787.375" cy="1516.911" rx="11.719" ry="6.843"/>
	<ellipse fill="#E69F50" cx="1814.315" cy="1504.443" rx="11.719" ry="6.843"/>
	<ellipse fill="#E9B453" cx="1709.408" cy="1443.723" rx="11.719" ry="6.843"/>
	<ellipse fill="#E69F50" cx="1996.466" cy="1586.237" rx="11.719" ry="6.843"/>
	<ellipse fill="#E69F50" cx="2115.865" cy="1579.175" rx="11.719" ry="6.843"/>
	<ellipse fill="#E69F50" cx="1932.585" cy="1595.71" rx="17.653" ry="7.703"/>
	<ellipse fill="#E69F50" cx="2072.847" cy="1605.981" rx="17.653" ry="7.703"/>
	<path fill="#C2747B" d="M2028.847,1370.564c-2.737,1.545-5.998,3.49-9.677,5.785c-3.677,2.297-7.752,4.966-12.127,7.952
		c-8.751,5.972-18.617,13.304-28.806,21.564c-8.084,6.535-16.341,13.686-24.483,21.123c6.777-10.156,13.216-20.43,18.971-30.378
		c6.733-11.601,12.582-22.726,17.24-32.504c2.326-4.891,4.383-9.425,6.127-13.499c1.74-4.076,3.193-7.672,4.326-10.678
		c2.29-5.995,3.342-9.595,3.342-9.595s-2.966,2.296-7.709,6.619c-2.383,2.153-5.199,4.822-8.357,7.931
		c-3.154,3.112-6.623,6.684-10.324,10.638c-7.398,7.91-15.614,17.422-23.95,27.931c-8.351,10.498-16.779,22.024-24.82,33.813
		c-4.846,7.138-9.552,14.368-14.002,21.538c5.969-14.784,11.793-30.672,17.207-46.707c5.517-16.434,10.59-33.016,14.83-48.736
		c2.124-7.859,4.07-15.491,5.776-22.776c0.829-3.65,1.683-7.185,2.424-10.633c0.724-3.453,1.464-6.776,2.101-9.992
		c1.282-6.427,2.37-12.348,3.244-17.626c0.868-5.28,1.554-9.907,2.045-13.743c1.009-7.662,1.291-12.139,1.291-12.139
		s-2.478,3.739-6.301,10.456c-1.925,3.353-4.173,7.456-6.669,12.189c-2.491,4.735-5.199,10.111-8.059,16.008
		c-1.434,2.947-2.85,6.043-4.359,9.233c-1.491,3.196-2.946,6.529-4.488,9.939c-3.041,6.836-6.098,14.095-9.15,21.642
		c-6.114,15.09-12.083,31.372-17.61,47.802c-3.617,10.816-7.042,21.689-10.172,32.343c0.713-6.511,1.35-13.097,1.899-19.696
		c1.268-15.6,2.083-31.237,2.302-45.942c0.237-14.704-0.058-28.47-0.739-40.305c-0.339-5.918-0.746-11.35-1.199-16.172
		c-0.457-4.823-0.931-9.034-1.399-12.508c-0.906-6.946-1.73-10.94-1.73-10.94s-1.47,3.804-3.507,10.507
		c-1.033,3.35-2.194,7.425-3.438,12.107c-1.242,4.682-2.536,9.974-3.844,15.755c-2.619,11.562-5.176,25.092-7.361,39.634
		c-2.204,14.541-3.972,30.099-5.289,45.695c-1.182,14.328-1.965,28.68-2.261,42.321c-0.569-4.687-1.187-9.47-1.855-14.346
		c-2.427-17.776-5.589-36.626-9.209-55.388c-3.649-18.756-7.744-37.426-12.12-54.826c-2.184-8.701-4.402-17.09-6.655-25.018
		c-2.234-7.931-4.469-15.405-6.624-22.286c-2.172-6.878-4.255-13.166-6.195-18.72c-1.942-5.555-3.711-10.382-5.243-14.343
		c-3.035-7.928-5.072-12.4-5.072-12.4s-0.224,4.909-0.088,13.397c0.054,4.247,0.21,9.386,0.477,15.264
		c0.27,5.878,0.678,12.488,1.226,19.681c0.563,7.189,1.274,14.958,2.155,23.15c0.862,8.196,1.93,16.808,3.145,25.696
		c2.42,17.777,5.576,36.629,9.176,55.395c3.631,18.76,7.719,37.431,12.088,54.832c1.38,5.51,2.778,10.876,4.187,16.098
		c-5.479-12.838-11.754-26.213-18.408-39.405c-6.976-13.764-14.369-27.316-21.786-39.775c-7.4-12.468-14.778-23.866-21.486-33.442
		c-3.356-4.786-6.515-9.132-9.4-12.941c-2.89-3.807-5.477-7.091-7.677-9.76c-4.374-5.352-7.15-8.27-7.15-8.27
		s0.709,3.965,2.435,10.658c0.85,3.353,1.966,7.382,3.325,11.964c1.363,4.58,2.997,9.698,4.869,15.236
		c3.75,11.073,8.571,23.766,14.242,37.109c5.653,13.352,12.204,27.332,19.17,41.1c0.545,1.072,1.097,2.139,1.646,3.208
		c-8.008-9.555-16.24-18.815-24.344-27.296c-9.252-9.712-18.296-18.44-26.379-25.649c-4.044-3.602-7.821-6.846-11.244-9.66
		c-3.427-2.811-6.472-5.213-9.04-7.142c-5.114-3.876-8.276-5.894-8.276-5.894s1.373,3.49,4.196,9.254
		c1.4,2.891,3.174,6.341,5.275,10.243c2.105,3.899,4.563,8.229,7.323,12.889c5.523,9.316,12.355,19.866,20.111,30.81
		c7.741,10.956,16.447,22.273,25.514,33.293c9.091,11,18.531,21.713,27.804,31.408c9.259,9.707,18.301,18.437,26.382,25.646
		c4.04,3.605,7.817,6.85,11.237,9.666c0.137,0.113,0.264,0.214,0.399,0.325h5.91h5.039h0.596h2.267h0.972h2.219h1.325h3.078h0.068
		h3.195h0.197h6.197h7.927c2.682-1.727,5.524-3.608,8.519-5.649c8.752-5.97,18.62-13.301,28.804-21.567
		c10.197-8.252,20.674-17.477,30.833-27.043c10.137-9.587,19.962-19.505,28.798-29.201c8.849-9.682,16.752-19.097,23.233-27.479
		c3.24-4.19,6.146-8.101,8.656-11.635c2.509-3.537,4.643-6.676,6.348-9.317c3.429-5.261,5.178-8.491,5.178-8.491
		S2034.302,1367.452,2028.847,1370.564z"/>
	<ellipse fill="#E69F50" cx="1851.06" cy="1509.692" rx="17.653" ry="7.703"/>
	<ellipse fill="#E69F50" cx="2131.262" cy="1521.246" rx="15.874" ry="9.269"/>
	<ellipse fill="#E69F50" cx="2164" cy="1492.359" rx="10.806" ry="6.31"/>
	<ellipse fill="#E9B453" cx="2193.128" cy="1553.744" rx="10.806" ry="6.31"/>
	<ellipse fill="#E69F50" cx="2231.845" cy="1541.743" rx="10.806" ry="6.31"/>
	<ellipse fill="#E69F50" cx="2175.314" cy="1514.987" rx="17.178" ry="10.031"/>
	<ellipse fill="#E9B453" cx="2094.672" cy="1467.083" rx="17.178" ry="10.031"/>
	<ellipse fill="#E69F50" cx="2097.32" cy="1438.197" rx="10.876" ry="6.351"/>
	<ellipse fill="#E69F50" cx="2066.53" cy="1442.826" rx="14.268" ry="8.332"/>
	<ellipse fill="#E69F50" cx="2138.025" cy="1464.731" rx="14.268" ry="8.332"/>
	<ellipse fill="#E9B453" cx="2029.745" cy="1581.209" rx="17.653" ry="7.703"/>
	<ellipse fill="#E9B453" cx="1876.162" cy="1509.443" rx="11.719" ry="6.843"/>
	<ellipse fill="#E69F50" cx="1899.847" cy="1510.333" rx="17.653" ry="7.703"/>
	<linearGradient id="SVGID_13_" gradientUnits="userSpaceOnUse" x1="2045.9095" y1="1488.5039" x2="2039.1692" y2="1574.2014">
		<stop  offset="0" style="stop-color:#EFE2D1"/>
		<stop  offset="1" style="stop-color:#C5BAA4"/>
	</linearGradient>
	<path fill="url(#SVGID_13_)" d="M1949.275,1525.098l61.625,33.701l124.213-3.852v-47.64c0-17.633-11.066-33.369-27.66-39.332
		l-20.113-7.228c-8.965-3.222-16.56-9.41-21.528-17.538l-5.513-9.021c-10.708-17.523-32.561-24.67-51.555-16.862l-29.634,12.183
		c-14.729,6.055-24.737,19.955-25.809,35.845L1949.275,1525.098z"/>
	<ellipse fill="#E69F50" cx="2017.227" cy="1560.025" rx="17.653" ry="7.703"/>
	<ellipse fill="#E69F50" cx="1945.49" cy="1522.603" rx="11.719" ry="6.843"/>
	<ellipse fill="#E9B453" cx="1960.054" cy="1534.366" rx="15.874" ry="9.269"/>
	<ellipse fill="#E69F50" cx="2115.856" cy="1616.573" rx="11.719" ry="6.843"/>
	<ellipse fill="#E69F50" cx="2225.281" cy="1599" rx="11.719" ry="6.843"/>
	<ellipse fill="#E69F50" cx="2264.784" cy="1672.742" rx="11.719" ry="6.843"/>
	<ellipse fill="#E69F50" cx="2173.309" cy="1573.564" rx="11.719" ry="6.843"/>
	<ellipse fill="#E69F50" cx="2183.682" cy="1619.915" rx="17.082" ry="9.975"/>
	<ellipse fill="#E69F50" cx="2239.748" cy="1642.892" rx="17.653" ry="7.703"/>
	<ellipse fill="#E9B453" cx="2183.9" cy="1635.831" rx="17.653" ry="7.703"/>
	<ellipse fill="#E69F50" cx="2162.09" cy="1613.842" rx="17.653" ry="7.703"/>
	<ellipse fill="#E69F50" cx="2252.653" cy="1569.785" rx="11.719" ry="6.843"/>
	<ellipse fill="#E9B453" cx="2267.217" cy="1581.547" rx="15.874" ry="9.269"/>
	<ellipse fill="#E69F50" cx="2071.86" cy="1647.145" rx="11.719" ry="6.843"/>
	<ellipse fill="#E69F50" cx="2030.261" cy="1668.06" rx="17.082" ry="9.975"/>
	<ellipse fill="#E69F50" cx="2086.327" cy="1691.037" rx="17.653" ry="7.703"/>
	<ellipse fill="#E69F50" cx="2208.294" cy="1671.779" rx="17.653" ry="7.703"/>
	<ellipse fill="#E69F50" cx="2206.691" cy="1673.359" rx="17.653" ry="7.703"/>
	<ellipse fill="#E69F50" cx="2030.479" cy="1683.975" rx="17.653" ry="7.703"/>
	<ellipse fill="#E9B453" cx="2008.668" cy="1661.987" rx="17.653" ry="7.703"/>
	<ellipse fill="#E69F50" cx="2113.796" cy="1629.692" rx="15.874" ry="9.269"/>
	<ellipse fill="#E69F50" cx="2131.583" cy="1683.013" rx="17.653" ry="7.703"/>
	<ellipse fill="#E69F50" cx="2041.071" cy="1715.751" rx="17.653" ry="7.703"/>
	<ellipse fill="#E69F50" cx="2242.419" cy="1696.947" rx="17.082" ry="9.975"/>
	<ellipse fill="#E9B453" cx="2242.637" cy="1712.862" rx="17.653" ry="7.703"/>
	<ellipse fill="#E69F50" cx="2172.532" cy="1706.724" rx="15.874" ry="9.269"/>
	<ellipse fill="#E9B453" cx="2153.117" cy="1667.966" rx="15.874" ry="9.269"/>
	<ellipse fill="#E9B453" cx="2116.527" cy="1712.862" rx="15.874" ry="9.269"/>
	<ellipse fill="#E9B453" cx="2138.323" cy="1555.269" rx="17.653" ry="7.703"/>
	<ellipse fill="#E9B453" cx="2373.893" cy="1712.338" rx="17.653" ry="7.703"/>
	<ellipse fill="#E9B453" cx="2422.038" cy="1712.338" rx="17.653" ry="7.703"/>
	<ellipse fill="#E69F50" cx="2347.089" cy="1715.665" rx="17.653" ry="7.703"/>
	<path fill="#B84D63" d="M2511.669,1563.522c-3.043,1.718-6.668,3.879-10.757,6.43c-4.087,2.553-8.617,5.52-13.481,8.84
		c-9.728,6.639-20.695,14.789-32.022,23.971c-8.987,7.264-18.166,15.213-27.216,23.481c7.533-11.29,14.692-22.711,21.089-33.769
		c7.485-12.896,13.987-25.263,19.165-36.132c2.586-5.437,4.872-10.478,6.811-15.006c1.934-4.531,3.55-8.529,4.809-11.87
		c2.546-6.664,3.715-10.667,3.715-10.667s-3.297,2.552-8.569,7.358c-2.649,2.394-5.78,5.36-9.29,8.816
		c-3.506,3.46-7.362,7.431-11.477,11.826c-8.223,8.793-17.357,19.366-26.624,31.049c-9.283,11.67-18.652,24.483-27.591,37.588
		c-5.388,7.935-10.618,15.972-15.565,23.942c6.635-16.435,13.11-34.097,19.127-51.921c6.133-18.268,11.773-36.702,16.486-54.177
		c2.361-8.736,4.525-17.221,6.42-25.319c0.922-4.058,1.871-7.987,2.695-11.82c0.804-3.839,1.628-7.533,2.336-11.107
		c1.425-7.145,2.635-13.726,3.606-19.594c0.965-5.87,1.727-11.013,2.273-15.277c1.122-8.517,1.435-13.494,1.435-13.494
		s-2.755,4.156-7.004,11.623c-2.14,3.728-4.639,8.288-7.414,13.55c-2.77,5.263-5.78,11.24-8.958,17.795
		c-1.594,3.276-3.168,6.718-4.845,10.264c-1.658,3.552-3.274,7.258-4.989,11.049c-3.38,7.6-6.779,15.669-10.172,24.058
		c-6.797,16.775-13.432,34.874-19.576,53.139c-4.021,12.023-7.828,24.11-11.307,35.954c0.792-7.237,1.5-14.56,2.111-21.895
		c1.409-17.341,2.315-34.724,2.559-51.071c0.263-16.345-0.065-31.648-0.822-44.805c-0.377-6.578-0.829-12.617-1.333-17.978
		c-0.507-5.361-1.035-10.042-1.555-13.904c-1.007-7.721-1.923-12.162-1.923-12.162s-1.634,4.229-3.898,11.68
		c-1.148,3.724-2.439,8.254-3.822,13.459c-1.38,5.205-2.819,11.087-4.273,17.513c-2.912,12.852-5.753,27.893-8.183,44.059
		c-2.45,16.164-4.416,33.459-5.879,50.796c-1.314,15.928-2.184,31.881-2.513,47.045c-0.632-5.21-1.319-10.527-2.062-15.947
		c-2.698-19.761-6.213-40.715-10.237-61.572c-4.057-20.85-8.609-41.605-13.473-60.946c-2.428-9.672-4.894-18.998-7.397-27.81
		c-2.484-8.816-4.968-17.125-7.364-24.775c-2.414-7.646-4.73-14.635-6.886-20.81c-2.158-6.175-4.125-11.541-5.829-15.944
		c-3.374-8.813-5.638-13.784-5.638-13.784s-0.249,5.457-0.097,14.892c0.06,4.721,0.234,10.434,0.531,16.968
		c0.3,6.534,0.754,13.883,1.363,21.878c0.626,7.992,1.416,16.628,2.395,25.735c0.959,9.111,2.146,18.684,3.496,28.564
		c2.691,19.762,6.198,40.718,10.201,61.579c4.036,20.854,8.581,41.61,13.438,60.953c1.535,6.125,3.088,12.091,4.654,17.896
		c-6.091-14.272-13.066-29.139-20.463-43.805c-7.755-15.3-15.973-30.366-24.219-44.216c-8.226-13.86-16.428-26.53-23.885-37.175
		c-3.731-5.321-7.242-10.152-10.449-14.386c-3.213-4.232-6.089-7.883-8.534-10.85c-4.863-5.95-7.948-9.194-7.948-9.194
		s0.789,4.407,2.707,11.848c0.944,3.728,2.186,8.206,3.696,13.3c1.515,5.091,3.331,10.781,5.413,16.937
		c4.168,12.31,9.528,26.419,15.832,41.252c6.284,14.843,13.566,30.383,21.31,45.689c0.606,1.192,1.219,2.378,1.83,3.567
		c-8.902-10.622-18.053-20.915-27.062-30.343c-10.285-10.796-20.338-20.499-29.324-28.512c-4.495-4.004-8.694-7.61-12.5-10.738
		c-3.809-3.125-7.194-5.795-10.05-7.94c-5.685-4.309-9.2-6.552-9.2-6.552s1.527,3.88,4.665,10.287
		c1.556,3.214,3.528,7.049,5.864,11.386c2.34,4.334,5.072,9.148,8.14,14.328c6.14,10.356,13.734,22.084,22.356,34.25
		c8.605,12.179,18.283,24.759,28.363,37.009c10.105,12.229,20.6,24.137,30.907,34.914c10.293,10.79,20.344,20.495,29.327,28.509
		c4.491,4.008,8.689,7.615,12.491,10.745c0.153,0.125,0.293,0.238,0.444,0.362h6.57h5.602h0.662h2.52h1.081h2.467h1.473h3.421h0.075
		h3.552h0.219h6.888h8.812c2.982-1.92,6.141-4.011,9.47-6.28c9.729-6.637,20.698-14.786,32.019-23.975
		c11.336-9.173,22.983-19.428,34.275-30.062c11.268-10.658,22.191-21.682,32.013-32.461c9.837-10.763,18.623-21.229,25.826-30.547
		c3.602-4.658,6.832-9.005,9.622-12.934c2.789-3.931,5.162-7.421,7.057-10.357c3.812-5.848,5.757-9.439,5.757-9.439
		S2517.733,1560.063,2511.669,1563.522z"/>
</g>
</svg>
