<?xml version="1.0" encoding="iso-8859-1"?>
<!-- Generator: Adobe Illustrator 17.0.0, SVG Export Plug-In . SVG Version: 6.00 Build 0)  -->
<!DOCTYPE svg PUBLIC "-//W3C//DTD SVG 1.1//EN" "http://www.w3.org/Graphics/SVG/1.1/DTD/svg11.dtd">
<svg version="1.1" id="Layer_3" xmlns="http://www.w3.org/2000/svg" xmlns:xlink="http://www.w3.org/1999/xlink" x="0px" y="0px"
	 width="2128.381px" height="1724px" viewBox="0 0 2128.381 1724" style="enable-background:new 0 0 2128.381 1724;"
	 xml:space="preserve">
<g>
	<rect x="2149.99" y="596.249" style="fill:#DAA162;" width="230.399" height="116.571"/>
	<rect x="2235.704" y="605.849" style="fill:#F6D574;" width="9.6" height="74.057"/>
	<rect x="2309.76" y="605.849" style="fill:#F6D574;" width="9.6" height="74.057"/>
	<rect x="2334.446" y="605.849" style="fill:#F6D574;" width="9.6" height="74.057"/>
	<rect x="2359.132" y="605.849" style="fill:#F6D574;" width="9.6" height="74.057"/>
	<rect x="2260.389" y="605.849" style="fill:#F6D574;" width="9.6" height="74.057"/>
	<rect x="2285.075" y="605.849" style="fill:#F6D574;" width="9.6" height="74.057"/>
	<rect x="-168.285" y="-214" style="fill:#FFE67B;" width="2636.71" height="1525.789"/>
	<linearGradient id="SVGID_1_" gradientUnits="userSpaceOnUse" x1="1638.6875" y1="248.2385" x2="1805.6503" y2="606.2913">
		<stop  offset="0" style="stop-color:#FFF2A7"/>
		<stop  offset="0.9949" style="stop-color:#FFE67B"/>
	</linearGradient>
	<path style="fill:url(#SVGID_1_);" d="M2426.631,21.083h-395.584c-2.33,1.336-279.223,54.523-253.278,186.062
		c5.948,30.155,50.68,40.407,56.821,70.523c3.469,17.012-6.387,34.625-20.4,44.877c-14.012,10.252-31.478,14.464-48.596,17.367
		c-67.276,11.408-136.686,6.15-203.631,19.359c-37.551,7.409-79.52,26.661-86.851,64.227c-9.362,47.97,44.356,95.943,25.12,140.874
		c-11.8,27.562-45.393,37.724-75.182,41.115c-59.287,6.748-83.535-0.278-143.146-2.915s-121.154-0.508-175.916,23.188
		c-54.763,23.695-101.754,73.016-107.693,132.389c-1.845,18.44,0.45,37.766,9.673,53.839c16.126,28.103,49.33,40.86,80.248,50.549
		c304.467,95.416,1019.328,91.46,1338.413,86.15V21.083z"/>
	
		<linearGradient id="SVGID_2_" gradientUnits="userSpaceOnUse" x1="7313.4326" y1="388.5669" x2="7454.3745" y2="690.8176" gradientTransform="matrix(-1 0 0 1 7782.96 0)">
		<stop  offset="0" style="stop-color:#FFF2A7"/>
		<stop  offset="0.9949" style="stop-color:#FFE67B"/>
	</linearGradient>
	<path style="fill:url(#SVGID_2_);" d="M-166.344,168.2c271.542,0,432.983,56.712,455.59,70.5
		c22.607,13.789,39.471,40.485,33.688,66.326c-6.949,31.05-43.189,51.953-42.504,83.763c0.4,18.567,14.347,34.718,30.964,43.009
		c16.617,8.291,35.609,10.164,54.131,11.516c135.058,9.855,271.864-0.77,405.281,22.42c44.361,7.711,93.571,23.427,112.789,64.145
		c62.286,96.541-55.817,170.856-37.828,188.426c17.989,17.57,187.047,45.475,176.729,68.406
		c-8.173,18.165-27.796,27.979-46.408,35.075c-142.273,54.238-300.652,30.744-452.524,41.625
		c-155.355,11.13-536.233,58.923-689.906,45.087V168.2z"/>
	<linearGradient id="SVGID_3_" gradientUnits="userSpaceOnUse" x1="978.4194" y1="202.6491" x2="978.4194" y2="338.4823">
		<stop  offset="0" style="stop-color:#FFF2A7"/>
		<stop  offset="0.9949" style="stop-color:#FFE67B"/>
	</linearGradient>
	<path style="fill:url(#SVGID_3_);" d="M697.516,309.507c22.781-47.938,59.161-83.112,99.505-96.21s84.221-3.978,120.012,24.944
		c15.565,12.578,29.764,28.8,46.607,37.678c38.833,20.468,81.604-1.866,122.454-12.385c37.453-9.644,76.263-9.073,113.559,1.673
		c26.807,7.724,57.196,27.642,60.637,65.262H696.549L697.516,309.507z"/>
	<circle style="fill:#FFFFFF;" cx="591.129" cy="333.262" r="85.854"/>
	<path style="fill:#EEB76C;" d="M390.942,299.394c-11.021-12.922-27.033-16.354-27.033-16.354s12.099-12.167,27.5,7.335
		c0,0,15.328-18.308,32.11,2.632C423.519,293.007,407.565,286.756,390.942,299.394z"/>
	<path style="fill:#EEB76C;" d="M1203.704,497.721c-11.046-7.92-24.144-7.507-24.144-7.507s7.06-11.778,22.773,0.411
		c0,0,8.388-17.169,25.451-4.128C1227.784,486.497,1214.188,484.708,1203.704,497.721z"/>
	<path style="fill:#EEB76C;" d="M923.881,368.762c23.148-11.113,47.382-6.051,47.382-6.051s-9.274-24.227-42.504-6.702
		c0,0-9.977-34.693-45.998-16.025C882.761,339.984,908.643,341.112,923.881,368.762z"/>
	<path style="fill:#EEB76C;" d="M1429.167,428.534c-13.105-15.257-32.08-19.254-32.08-19.254s14.277-14.458,32.596,8.572
		c0,0,18.076-21.743,38.036,2.984C1467.718,420.836,1448.799,413.499,1429.167,428.534z"/>
	<rect x="1736.487" y="557.8" style="fill:#DAA162;" width="91.808" height="147.196"/>
	<g>
		<rect x="1782.467" y="565.544" style="fill:#F6D574;" width="1.798" height="175.885"/>
	</g>
	<g>
		<rect x="1788.76" y="565.544" style="fill:#F6D574;" width="1.798" height="175.885"/>
	</g>
	<g>
		<rect x="1795.053" y="565.544" style="fill:#F6D574;" width="1.798" height="175.885"/>
	</g>
	<g>
		<rect x="1801.346" y="565.544" style="fill:#F6D574;" width="1.798" height="175.885"/>
	</g>
	<g>
		<rect x="1807.639" y="565.544" style="fill:#F6D574;" width="1.798" height="175.885"/>
	</g>
	<g>
		<rect x="1813.933" y="565.544" style="fill:#F6D574;" width="1.798" height="175.885"/>
	</g>
	<g>
		<rect x="1820.226" y="565.544" style="fill:#F6D574;" width="1.798" height="175.885"/>
	</g>
	<path style="fill:#FFEFAC;" d="M1399.821,825.962c29.828-29.828,74.743-29.91,104.228-29.91s74.486-1.633,74.486-50.911
		c0-19.877-11.005-32.342-24.134-40.145H260.854v199.461h1279.612c-75.039-13.479-126.931-22.953-126.931-22.953
		S1369.993,855.791,1399.821,825.962z"/>
	<path style="fill:#FFEFAC;" d="M1343.632,825.962c39.207-29.828,98.242-29.91,136.998-29.91c38.756,0,97.905-1.633,97.905-50.911
		c0-19.877-14.464-32.342-31.722-40.145H-168.285v199.461h1696.781c-98.631-13.479-166.838-22.953-166.838-22.953
		S1304.426,855.791,1343.632,825.962z"/>
	<g>
		<rect x="1623.548" y="600.198" style="fill:#FFD577;" width="134.932" height="104.798"/>
		<g>
			<path style="fill:#FFFFFF;" d="M1623.549,674.959v0.002h44.731v-0.002h-14.587v-14.644h14.669v-0.343h-14.669v-14.644h14.644
				v-0.343h-14.644v-14.643h14.644v14.643h0.343v-14.643h14.644v14.643h0.396v-14.643h14.644v14.643h0.343v-14.643h14.53V630h-14.53
				v-14.644h14.644v-0.343h-14.644v-14.815h-0.343v14.815h-14.644v-14.815h-0.054h-0.289h-0.054v14.815h-14.644v-14.815h-0.343
				v14.815h-14.644v-14.815h-0.343v14.815h-14.644v-14.815h-0.343v14.815h-14.815v0.343h14.815V630h-14.815v0.343h14.815v14.643
				h-14.815v0.343h14.815v14.644h-14.815v0.343h14.815v14.644H1623.549z M1683.72,615.356h14.644V630h-14.644V615.356z
				 M1668.68,615.356h14.644V630h-14.644V615.356z M1653.693,615.356h14.644V630h-14.644V615.356z M1638.707,615.356h14.644V630
				h-14.644V615.356z M1638.707,630.343h14.644v14.643h-14.644V630.343z M1638.707,645.329h14.644v14.644h-14.644V645.329z
				 M1638.707,660.316h14.644v14.644h-14.644V660.316z"/>
			<rect x="1743.322" y="600.198" style="fill:#FFFFFF;" width="0.343" height="14.815"/>
			<rect x="1728.336" y="600.198" style="fill:#FFFFFF;" width="0.343" height="14.815"/>
			<rect x="1713.35" y="600.198" style="fill:#FFFFFF;" width="0.343" height="14.815"/>
		</g>
		<polygon style="fill:#EEB76C;" points="1758.48,645.389 1758.48,615.013 1735.944,614.971 1713.35,615.013 1713.35,644.986 
			1668.337,644.986 1668.337,674.961 1623.463,674.961 1623.463,704.955 1758.48,704.955 1758.48,674.918 1758.48,674.918 
			1758.48,645.389 		"/>
		<rect x="1724.354" y="620.419" style="fill:#F6D574;" width="23.123" height="2.725"/>
		<rect x="1724.354" y="628.593" style="fill:#F6D574;" width="23.123" height="2.725"/>
		<rect x="1724.354" y="636.767" style="fill:#F6D574;" width="23.123" height="2.725"/>
		<rect x="1724.354" y="650.389" style="fill:#F6D574;" width="23.123" height="2.725"/>
		<rect x="1724.354" y="658.563" style="fill:#F6D574;" width="23.123" height="2.725"/>
		<rect x="1724.354" y="666.736" style="fill:#F6D574;" width="23.123" height="2.725"/>
		<rect x="1724.354" y="680.434" style="fill:#F6D574;" width="23.123" height="2.725"/>
		<rect x="1724.354" y="688.608" style="fill:#F6D574;" width="23.123" height="2.725"/>
		<rect x="1724.354" y="696.781" style="fill:#F6D574;" width="23.123" height="2.725"/>
		<rect x="1679.48" y="650.389" style="fill:#F6D574;" width="23.123" height="2.725"/>
		<rect x="1679.48" y="658.563" style="fill:#F6D574;" width="23.123" height="2.725"/>
		<rect x="1679.48" y="666.736" style="fill:#F6D574;" width="23.123" height="2.725"/>
		<rect x="1679.48" y="680.434" style="fill:#F6D574;" width="23.123" height="2.725"/>
		<rect x="1679.48" y="688.608" style="fill:#F6D574;" width="23.123" height="2.725"/>
		<rect x="1679.48" y="696.781" style="fill:#F6D574;" width="23.123" height="2.725"/>
		<rect x="1634.467" y="680.434" style="fill:#F6D574;" width="23.123" height="2.725"/>
		<rect x="1634.467" y="688.608" style="fill:#F6D574;" width="23.123" height="2.725"/>
		<rect x="1634.467" y="696.781" style="fill:#F6D574;" width="23.123" height="2.725"/>
	</g>
	<g>
		<circle style="fill:#C2774E;" cx="1802.318" cy="676.013" r="23.244"/>
		<circle style="fill:#C2774E;" cx="1836.606" cy="693.104" r="23.244"/>
		<circle style="fill:#C2774E;" cx="1826.096" cy="657.314" r="23.244"/>
		<circle style="fill:#C2774E;" cx="1899.823" cy="679.25" r="23.244"/>
		<circle style="fill:#C2774E;" cx="1856.196" cy="647.939" r="15.169"/>
		<circle style="fill:#C2774E;" cx="1749.176" cy="698.324" r="15.169"/>
		<circle style="fill:#C2774E;" cx="1929.523" cy="644.052" r="23.189"/>
		<circle style="fill:#C2774E;" cx="1931.914" cy="656.354" r="23.189"/>
		<circle style="fill:#C2774E;" cx="1928.523" cy="680.047" r="23.189"/>
		<circle style="fill:#C2774E;" cx="1897.031" cy="689.581" r="23.189"/>
		<circle style="fill:#C2774E;" cx="1815.622" cy="690.021" r="23.189"/>
		<circle style="fill:#C2774E;" cx="1924.239" cy="686.592" r="23.189"/>
		<circle style="fill:#C2774E;" cx="1783.743" cy="705.228" r="23.189"/>
		<circle style="fill:#C2774E;" cx="1889.316" cy="653.486" r="23.189"/>
		<circle style="fill:#C2774E;" cx="1864.29" cy="670.614" r="23.189"/>
		<circle style="fill:#C2774E;" cx="1875.078" cy="700.171" r="23.244"/>
		<circle style="fill:#C2774E;" cx="1772.81" cy="686.599" r="15.826"/>
		<circle style="fill:#C2774E;" cx="2170.679" cy="673.27" r="23.244"/>
		<circle style="fill:#C2774E;" cx="2144.158" cy="657.314" r="23.244"/>
		<circle style="fill:#C2774E;" cx="2114.058" cy="647.939" r="15.169"/>
		<circle style="fill:#C2774E;" cx="2214.221" cy="691.467" r="15.169"/>
		<circle style="fill:#C2774E;" cx="2040.732" cy="644.052" r="23.189"/>
		<circle style="fill:#C2774E;" cx="2038.34" cy="656.354" r="23.189"/>
		<circle style="fill:#C2774E;" cx="2041.732" cy="680.047" r="23.189"/>
		<circle style="fill:#C2774E;" cx="2046.015" cy="686.592" r="23.189"/>
		<circle style="fill:#C2774E;" cx="2186.511" cy="705.228" r="23.189"/>
		<circle style="fill:#C2774E;" cx="2080.938" cy="653.486" r="23.189"/>
		<circle style="fill:#C2774E;" cx="2080.938" cy="675.429" r="23.189"/>
		<circle style="fill:#C2774E;" cx="2105.964" cy="670.614" r="23.189"/>
		<circle style="fill:#C2774E;" cx="2136.135" cy="670.614" r="23.189"/>
		<circle style="fill:#C2774E;" cx="2197.444" cy="686.599" r="15.826"/>
	</g>
	<path style="fill:#FFFFFF;" d="M2468.426,704.996h-914.025c13.13,7.803,24.134,20.268,24.134,40.145
		c0,49.278-45,50.911-74.486,50.911s-74.4,0.082-104.228,29.91c-29.828,29.828,13.714,55.543,13.714,55.543
		s51.892,9.473,126.931,22.953l927.96,164.571V704.996z"/>
	<path style="fill:none;stroke:#000000;stroke-width:0.372;stroke-miterlimit:10;" d="M1604.572,801.724"/>
	<path style="fill:none;stroke:#000000;stroke-width:0.372;stroke-miterlimit:10;" d="M1604.572,763.368"/>
	<g>
		
			<rect x="1612.324" y="738.277" transform="matrix(0.964 0.2659 -0.2659 0.964 257.8707 -401.945)" style="fill:#C2774E;" width="1.62" height="25.899"/>
		<polygon style="fill:#F6D574;" points="1590.795,734.861 1622.496,716.869 1640.488,748.57 		"/>
		<polygon style="fill:#EEB76C;" points="1600.733,737.602 1610.672,740.345 1622.496,716.869 		"/>
		<polygon style="fill:#EEB76C;" points="1630.549,745.828 1620.611,743.086 1622.496,716.869 		"/>
	</g>
	<g>
		<path style="fill:#EEB76C;" d="M1625.58,779.394c0,2.066-0.327,4.056-0.934,5.924c-1.26,3.893-3.735,7.24-6.975,9.592
			c-3.163,2.306-7.056,3.663-11.271,3.663c-4.214,0-8.107-1.357-11.271-3.663c-3.24-2.352-5.714-5.699-6.974-9.592
			c-0.607-1.867-0.934-3.857-0.934-5.924s0.327-4.061,0.939-5.929c1.26-3.888,3.729-7.235,6.969-9.587
			c3.163-2.306,7.056-3.663,11.271-3.663c4.214,0,8.107,1.357,11.271,3.663c3.24,2.352,5.709,5.699,6.97,9.587
			C1625.254,775.333,1625.58,777.328,1625.58,779.394z"/>
		<path style="fill:#F6D574;" d="M1606.401,760.215v19.179l-11.271-15.516C1598.294,761.572,1602.187,760.215,1606.401,760.215z"/>
		<path style="fill:#F6D574;" d="M1606.401,779.394l-18.24,5.924h-0.005c-0.607-1.867-0.934-3.857-0.934-5.924
			s0.327-4.061,0.939-5.929L1606.401,779.394z"/>
		<path style="fill:#F6D574;" d="M1606.401,779.394v19.179c-4.214,0-8.107-1.357-11.271-3.663L1606.401,779.394z"/>
		<path style="fill:#F6D574;" d="M1624.646,785.317c-1.26,3.893-3.735,7.24-6.975,9.592l-11.271-15.516l18.24,5.924H1624.646z"/>
		<path style="fill:#F6D574;" d="M1624.641,773.465l-18.24,5.929l11.271-15.516C1620.912,766.23,1623.381,769.577,1624.641,773.465z
			"/>
	</g>
	<g>
		<rect x="2000.464" y="452.018" style="fill:#DAA162;" width="2.057" height="56.343"/>
	</g>
	<g>
		<rect x="2017.607" y="452.018" style="fill:#DAA162;" width="2.057" height="56.343"/>
	</g>
	<g>
		<rect x="1961.657" y="477.849" style="fill:#DAA162;" width="2.057" height="30.511"/>
	</g>
	<g>
		<rect x="1763.194" y="527.29" style="fill:#DAA162;" width="2.057" height="30.511"/>
	</g>
	<g>
		<path style="fill:#C2774E;" d="M1712.414,758.514l-2.573-1.078c-3.701,6.196-15.195,29.114-13.431,72.328l2.74-0.113
			C1697.396,786.669,1709.26,763.789,1712.414,758.514z"/>
		<g>
			<g>
				<path style="fill:#C2774E;" d="M1711.444,758.283l-20.75,21.839C1690.694,780.122,1690.355,757.067,1711.444,758.283z"/>
			</g>
		</g>
		<g>
			<g>
				<path style="fill:#C2774E;" d="M1711.547,758.287l-28.21,10.57C1683.337,768.858,1693.111,747.975,1711.547,758.287z"/>
			</g>
		</g>
		<g>
			<g>
				<path style="fill:#C2774E;" d="M1711.385,758.39l-28.974-8.248C1682.411,750.143,1702.677,739.145,1711.385,758.39z"/>
			</g>
		</g>
		<g>
			<g>
				<path style="fill:#C2774E;" d="M1711.118,758.236l-0.46,30.121C1710.659,788.358,1727.034,772.126,1711.118,758.236z"/>
			</g>
		</g>
		<g>
			<g>
				<path style="fill:#C2774E;" d="M1711.051,758.089l24.574,17.425C1735.625,775.514,1731.509,752.827,1711.051,758.089z"/>
			</g>
		</g>
		<g>
			<g>
				<path style="fill:#C2774E;" d="M1710.972,758.354l28.507-9.739C1739.479,748.615,1718.671,738.683,1710.972,758.354z"/>
			</g>
		</g>
		<g>
			<g>
				<path style="fill:#C2774E;" d="M1711.22,758.125l-16.237-25.375C1694.983,732.751,1717.448,737.94,1711.22,758.125z"/>
			</g>
		</g>
	</g>
	<g>
		<g>
			<g>
				<g>
					<path style="fill:#C2774E;" d="M1584.834,633.139l19.737,11.9C1604.572,645.039,1600.145,627.963,1584.834,633.139z"/>
				</g>
			</g>
			<g>
				<g>
					<path style="fill:#C2774E;" d="M1584.834,633.139l23.046-0.252C1607.88,632.886,1595.138,620.688,1584.834,633.139z"/>
				</g>
			</g>
			<g>
				<g>
					<path style="fill:#C2774E;" d="M1584.978,633.167l18.392-13.889C1603.37,619.279,1585.874,617.031,1584.978,633.167z"/>
				</g>
			</g>
			<g>
				<g>
					<path style="fill:#C2774E;" d="M1585.126,632.984l8.65,21.363C1593.776,654.347,1577.608,647.29,1585.126,632.984z"/>
				</g>
			</g>
			<g>
				<g>
					<path style="fill:#C2774E;" d="M1585.113,632.898l-8.857,21.277C1576.255,654.175,1569.711,637.794,1585.113,632.898z"/>
				</g>
			</g>
			<g>
				<g>
					<path style="fill:#C2774E;" d="M1585.133,632.855l-21.29,8.828C1563.843,641.682,1570.764,625.457,1585.133,632.855z"/>
				</g>
			</g>
			<g>
				<g>
					<path style="fill:#C2774E;" d="M1585.053,632.947l1.856-22.972C1586.909,609.975,1573.597,621.549,1585.053,632.947z"/>
				</g>
			</g>
		</g>
		<g>
			<path style="fill:#C2774E;" d="M1609.194,704.996c-1.645-43.839-9.247-52.194-21.856-66.42c-1.235-1.394-2.518-2.841-3.845-4.376
				l2.594-2.242c1.317,1.524,2.59,2.96,3.817,4.344c13.116,14.799,21.029,23.628,22.72,68.694H1609.194z"/>
		</g>
	</g>
	<rect x="1946.489" y="540.697" style="fill:#EEB76C;" width="91.73" height="164.3"/>
	<rect x="2006.636" y="540.697" style="fill:#C2774E;" width="65.868" height="164.3"/>
	<rect x="1946.489" y="563.215" style="fill:#DAA162;" width="60.136" height="141.782"/>
	<rect x="1957.543" y="508.36" style="fill:#DAA162;" width="49.093" height="32.337"/>
	<rect x="2006.636" y="508.36" style="fill:#C2774E;" width="35.011" height="32.337"/>
	<rect x="1955.079" y="579.752" style="fill:#C2774E;" width="8.591" height="15.07"/>
	<rect x="1972.261" y="579.752" style="fill:#C2774E;" width="8.591" height="15.07"/>
	<rect x="1974.554" y="520.163" style="fill:#C2774E;" width="15.07" height="8.591"/>
	<rect x="1989.443" y="579.752" style="fill:#C2774E;" width="8.591" height="15.07"/>
	<rect x="1955.079" y="609.891" style="fill:#C2774E;" width="8.591" height="15.07"/>
	<rect x="1972.261" y="609.891" style="fill:#C2774E;" width="8.591" height="15.07"/>
	<rect x="1989.443" y="609.891" style="fill:#C2774E;" width="8.591" height="15.07"/>
	<rect x="1955.079" y="640.031" style="fill:#C2774E;" width="8.591" height="15.07"/>
	<rect x="1972.261" y="640.031" style="fill:#C2774E;" width="8.591" height="15.07"/>
	<rect x="1989.443" y="640.031" style="fill:#C2774E;" width="8.591" height="15.07"/>
	<rect x="1955.079" y="670.17" style="fill:#C2774E;" width="8.591" height="15.07"/>
	<rect x="1972.261" y="670.17" style="fill:#C2774E;" width="8.591" height="15.07"/>
	<rect x="1989.443" y="670.17" style="fill:#C2774E;" width="8.591" height="15.07"/>
	<rect x="1790.742" y="694.648" style="fill:#EEB76C;" width="155.747" height="121.438"/>
	<rect x="1797.387" y="700.72" style="fill:#DAA162;" width="7.603" height="11.517"/>
	<rect x="1810.961" y="700.72" style="fill:#DAA162;" width="7.603" height="11.517"/>
	<rect x="1824.535" y="700.72" style="fill:#DAA162;" width="7.603" height="11.517"/>
	<rect x="1838.109" y="700.72" style="fill:#DAA162;" width="7.603" height="11.517"/>
	<rect x="1851.683" y="700.72" style="fill:#DAA162;" width="7.603" height="11.517"/>
	<rect x="1865.257" y="700.72" style="fill:#DAA162;" width="7.603" height="11.517"/>
	<rect x="1878.83" y="700.72" style="fill:#DAA162;" width="7.603" height="11.517"/>
	<rect x="1892.404" y="700.72" style="fill:#DAA162;" width="7.603" height="11.517"/>
	<rect x="1905.978" y="700.72" style="fill:#DAA162;" width="7.603" height="11.517"/>
	<rect x="1919.552" y="700.72" style="fill:#DAA162;" width="7.603" height="11.517"/>
	<rect x="1933.126" y="700.72" style="fill:#DAA162;" width="7.603" height="11.517"/>
	<rect x="1797.387" y="717.995" style="fill:#DAA162;" width="7.603" height="11.517"/>
	<rect x="1810.961" y="717.995" style="fill:#DAA162;" width="7.603" height="11.517"/>
	<rect x="1824.535" y="717.995" style="fill:#DAA162;" width="7.603" height="11.517"/>
	<rect x="1838.109" y="717.995" style="fill:#DAA162;" width="7.603" height="11.517"/>
	<rect x="1851.683" y="717.995" style="fill:#DAA162;" width="7.603" height="11.517"/>
	<rect x="1865.257" y="717.995" style="fill:#DAA162;" width="7.603" height="11.517"/>
	<rect x="1878.83" y="717.995" style="fill:#DAA162;" width="7.603" height="11.517"/>
	<rect x="1892.404" y="717.995" style="fill:#DAA162;" width="7.603" height="11.517"/>
	<rect x="1905.978" y="717.995" style="fill:#DAA162;" width="7.603" height="11.517"/>
	<rect x="1919.552" y="717.995" style="fill:#DAA162;" width="7.603" height="11.517"/>
	<rect x="1933.126" y="717.995" style="fill:#DAA162;" width="7.603" height="11.517"/>
	<rect x="1797.387" y="735.271" style="fill:#DAA162;" width="7.603" height="11.517"/>
	<rect x="1810.961" y="735.271" style="fill:#DAA162;" width="7.603" height="11.517"/>
	<rect x="1824.535" y="735.271" style="fill:#DAA162;" width="7.603" height="11.517"/>
	<rect x="1838.109" y="735.271" style="fill:#DAA162;" width="7.603" height="11.517"/>
	<rect x="1851.683" y="735.271" style="fill:#DAA162;" width="7.603" height="11.517"/>
	<rect x="1865.257" y="735.271" style="fill:#DAA162;" width="7.603" height="11.517"/>
	<rect x="1878.83" y="735.271" style="fill:#DAA162;" width="7.603" height="11.517"/>
	<rect x="1892.404" y="735.271" style="fill:#DAA162;" width="7.603" height="11.517"/>
	<rect x="1905.978" y="735.271" style="fill:#DAA162;" width="7.603" height="11.517"/>
	<rect x="1919.552" y="735.271" style="fill:#DAA162;" width="7.603" height="11.517"/>
	<rect x="1933.126" y="735.271" style="fill:#DAA162;" width="7.603" height="11.517"/>
	<rect x="1797.387" y="752.547" style="fill:#DAA162;" width="7.603" height="11.517"/>
	<rect x="1810.961" y="752.547" style="fill:#DAA162;" width="7.603" height="11.517"/>
	<rect x="1824.535" y="752.547" style="fill:#DAA162;" width="7.603" height="11.517"/>
	<rect x="1838.109" y="752.547" style="fill:#DAA162;" width="7.603" height="11.517"/>
	<rect x="1851.683" y="752.547" style="fill:#DAA162;" width="7.603" height="11.517"/>
	<rect x="1865.257" y="752.547" style="fill:#DAA162;" width="7.603" height="11.517"/>
	<rect x="1878.83" y="752.547" style="fill:#DAA162;" width="7.603" height="11.517"/>
	<rect x="1892.404" y="752.547" style="fill:#DAA162;" width="7.603" height="11.517"/>
	<rect x="1905.978" y="752.547" style="fill:#DAA162;" width="7.603" height="11.517"/>
	<rect x="1919.552" y="752.547" style="fill:#DAA162;" width="7.603" height="11.517"/>
	<rect x="1933.126" y="752.547" style="fill:#DAA162;" width="7.603" height="11.517"/>
	<rect x="1797.387" y="769.823" style="fill:#DAA162;" width="7.603" height="11.517"/>
	<rect x="1810.961" y="769.823" style="fill:#DAA162;" width="7.603" height="11.517"/>
	<rect x="1824.535" y="769.823" style="fill:#DAA162;" width="7.603" height="11.517"/>
	<rect x="1838.109" y="769.823" style="fill:#DAA162;" width="7.603" height="11.517"/>
	<rect x="1851.683" y="769.823" style="fill:#DAA162;" width="7.603" height="11.517"/>
	<rect x="1865.257" y="769.823" style="fill:#DAA162;" width="7.603" height="11.517"/>
	<rect x="1878.83" y="769.823" style="fill:#DAA162;" width="7.603" height="11.517"/>
	<rect x="1892.404" y="769.823" style="fill:#DAA162;" width="7.603" height="11.517"/>
	<rect x="1905.978" y="769.823" style="fill:#DAA162;" width="7.603" height="11.517"/>
	<rect x="1919.552" y="769.823" style="fill:#DAA162;" width="7.603" height="11.517"/>
	<rect x="1933.126" y="769.823" style="fill:#DAA162;" width="7.603" height="11.517"/>
	<rect x="1797.387" y="787.099" style="fill:#DAA162;" width="7.603" height="11.517"/>
	<rect x="1810.961" y="787.099" style="fill:#DAA162;" width="7.603" height="11.517"/>
	<rect x="1824.535" y="787.099" style="fill:#DAA162;" width="7.603" height="11.517"/>
	<rect x="1838.109" y="787.099" style="fill:#DAA162;" width="7.603" height="11.517"/>
	<rect x="1851.683" y="787.099" style="fill:#DAA162;" width="7.603" height="11.517"/>
	<rect x="1865.257" y="787.099" style="fill:#DAA162;" width="7.603" height="11.517"/>
	<rect x="1878.83" y="787.099" style="fill:#DAA162;" width="7.603" height="11.517"/>
	<rect x="1892.404" y="787.099" style="fill:#DAA162;" width="7.603" height="11.517"/>
	<rect x="1905.978" y="787.099" style="fill:#DAA162;" width="7.603" height="11.517"/>
	<rect x="1919.552" y="787.099" style="fill:#DAA162;" width="7.603" height="11.517"/>
	<rect x="1933.126" y="787.099" style="fill:#DAA162;" width="7.603" height="11.517"/>
	<rect x="1740.96" y="769.454" style="fill:#F6D574;" width="205.529" height="46.633"/>
	<g>
		<rect x="1754.785" y="782.904" style="fill:#EEB76C;" width="11.787" height="18.455"/>
		<rect x="1782.467" y="782.904" style="fill:#EEB76C;" width="11.787" height="18.455"/>
		<rect x="1810.149" y="782.904" style="fill:#EEB76C;" width="11.787" height="18.455"/>
		<rect x="1837.831" y="782.904" style="fill:#EEB76C;" width="11.787" height="18.455"/>
		<rect x="1865.513" y="782.904" style="fill:#EEB76C;" width="11.787" height="18.455"/>
		<rect x="1893.195" y="782.904" style="fill:#EEB76C;" width="11.787" height="18.455"/>
		<rect x="1920.876" y="782.904" style="fill:#EEB76C;" width="11.787" height="18.455"/>
	</g>
	<g>
		<g>
			<g>
				<rect x="1770.291" y="803.129" style="fill:#C2774E;" width="4.3" height="87.463"/>
			</g>
		</g>
		<g>
			<g>
				<path style="fill:#C2774E;" d="M1772.386,802.955l-9.14,27.42C1763.246,830.375,1753.568,810.482,1772.386,802.955z"/>
			</g>
		</g>
		<g>
			<g>
				<path style="fill:#C2774E;" d="M1772.386,802.955l-22.19,18.521C1750.196,821.476,1752.421,799.466,1772.386,802.955z"/>
			</g>
		</g>
		<g>
			<g>
				<path style="fill:#C2774E;" d="M1772.273,803.099l-28.852,1.724C1743.421,804.823,1758.282,788.436,1772.273,803.099z"/>
			</g>
		</g>
		<g>
			<g>
				<path style="fill:#C2774E;" d="M1771.982,803.044l9.14,27.42C1781.122,830.465,1790.8,810.572,1771.982,803.044z"/>
			</g>
		</g>
		<g>
			<g>
				<path style="fill:#C2774E;" d="M1771.924,802.951l25.771,13.086C1797.696,816.038,1790.602,795.084,1771.924,802.951z"/>
			</g>
		</g>
		<g>
			<g>
				<path style="fill:#C2774E;" d="M1771.87,802.927l27.496-8.911C1799.366,794.016,1779.554,784.172,1771.87,802.927z"/>
			</g>
		</g>
		<g>
			<g>
				<path style="fill:#C2774E;" d="M1772.022,802.95l-20.472-20.403C1751.549,782.547,1773.671,782.75,1772.022,802.95z"/>
			</g>
		</g>
	</g>
	<polygon style="fill:#DAA162;" points="1925.901,670.17 1811.33,670.17 1790.742,694.648 1946.489,694.648 	"/>
	<rect x="1895.404" y="686.987" style="fill:#F6D574;" width="573.021" height="217.581"/>
	<path style="fill:#C2774E;" d="M2477.043,666.272c1.078-4.747,0.679-9.87-1.476-14.649c-0.133-0.296-0.276-0.585-0.42-0.872
		c0.315-3.792-0.297-7.715-1.971-11.43c-5.264-11.675-18.996-16.873-30.671-11.609c-6.75,3.043-11.329,8.92-12.979,15.591
		c-6.516-7.703-17.573-10.51-27.228-6.157c-4.299,1.938-7.716,5.027-10.06,8.736c-3.641-7.196-12.337-10.32-19.763-6.972
		c-3.268,1.473-5.756,3.961-7.268,6.923c-6.63-6.758-17.018-9.027-26.151-4.909c-9.313,4.199-14.507,13.772-13.584,23.405
		c-0.566,0.179-1.127,0.388-1.681,0.638c-7.638,3.443-11.038,12.426-7.594,20.063c3.443,7.637,12.426,11.037,20.063,7.594
		c1.485-0.67,2.808-1.551,3.954-2.589c6.354,8.573,18.022,11.88,28.148,7.315c1.827-0.823,3.495-1.854,4.989-3.052
		c6.495,4.618,15.196,5.768,22.985,2.256c3.951-1.781,7.157-4.535,9.47-7.848c0.22,0.626,0.462,1.248,0.74,1.864
		c5.264,11.675,18.996,16.873,30.671,11.609c3.184-1.436,5.882-3.505,8.022-5.986c6.056,3.094,13.41,3.513,20.092,0.501
		C2476.922,691.468,2482.123,677.893,2477.043,666.272z"/>
	<rect x="2104.047" y="686.987" style="fill:#EEB76C;" width="364.379" height="217.581"/>
	<path style="fill:#FFFFFF;" d="M2193.189,771.105c16.457-33.6,134.4-42.514,275.656-42.514c0,15.086,0,124.114,0,124.114
		L2193.189,771.105z"/>
	<g>
		<g>
			<g>
				<rect x="2285.578" y="725.991" style="fill:#C2774E;" width="4.3" height="87.463"/>
			</g>
		</g>
		<g>
			<g>
				<path style="fill:#C2774E;" d="M2287.672,725.816l-9.14,27.42C2278.532,753.236,2268.855,733.343,2287.672,725.816z"/>
			</g>
		</g>
		<g>
			<g>
				<path style="fill:#C2774E;" d="M2287.672,725.816l-22.189,18.521C2265.483,744.337,2267.708,722.327,2287.672,725.816z"/>
			</g>
		</g>
		<g>
			<g>
				<path style="fill:#C2774E;" d="M2287.559,725.96l-28.852,1.724C2258.707,727.685,2273.568,711.297,2287.559,725.96z"/>
			</g>
		</g>
		<g>
			<g>
				<path style="fill:#C2774E;" d="M2287.269,725.906l9.14,27.42C2296.409,753.326,2306.086,733.433,2287.269,725.906z"/>
			</g>
		</g>
		<g>
			<g>
				<path style="fill:#C2774E;" d="M2287.211,725.813l25.771,13.086C2312.982,738.899,2305.889,717.945,2287.211,725.813z"/>
			</g>
		</g>
		<g>
			<g>
				<path style="fill:#C2774E;" d="M2287.157,725.788l27.496-8.911C2314.653,716.877,2294.841,707.034,2287.157,725.788z"/>
			</g>
		</g>
		<g>
			<g>
				<path style="fill:#C2774E;" d="M2287.308,725.811l-20.472-20.403C2266.836,705.408,2288.957,705.611,2287.308,725.811z"/>
			</g>
		</g>
	</g>
	<g>
		<path style="fill:#C2774E;" d="M2428.08,729.727l-2.573-1.078c-3.701,6.196-15.195,29.114-13.431,72.328l2.74-0.112
			C2413.062,757.882,2424.927,735.002,2428.08,729.727z"/>
		<g>
			<g>
				<path style="fill:#C2774E;" d="M2427.11,729.496l-20.75,21.839C2406.36,751.335,2406.021,728.28,2427.11,729.496z"/>
			</g>
		</g>
		<g>
			<g>
				<path style="fill:#C2774E;" d="M2427.212,729.5l-28.209,10.57C2399.003,740.071,2408.777,719.188,2427.212,729.5z"/>
			</g>
		</g>
		<g>
			<g>
				<path style="fill:#C2774E;" d="M2427.051,729.603l-28.974-8.248C2398.077,721.355,2418.343,710.358,2427.051,729.603z"/>
			</g>
		</g>
		<g>
			<g>
				<path style="fill:#C2774E;" d="M2426.784,729.449l-0.46,30.121C2426.325,759.571,2442.7,743.339,2426.784,729.449z"/>
			</g>
		</g>
		<g>
			<g>
				<path style="fill:#C2774E;" d="M2426.717,729.302l24.574,17.425C2451.291,746.727,2447.175,724.04,2426.717,729.302z"/>
			</g>
		</g>
		<g>
			<g>
				<path style="fill:#C2774E;" d="M2426.638,729.567l28.507-9.739C2455.146,719.828,2434.337,709.896,2426.638,729.567z"/>
			</g>
		</g>
		<g>
			<g>
				<path style="fill:#C2774E;" d="M2426.886,729.338l-16.237-25.375C2410.649,703.963,2433.115,709.153,2426.886,729.338z"/>
			</g>
		</g>
	</g>
	<rect x="1895.405" y="718.867" style="fill:#FFFFFF;" width="208.471" height="4.555"/>
	<rect x="1920.323" y="718.867" style="fill:#FFFFFF;" width="4.555" height="142.814"/>
	<rect x="1951.169" y="718.867" style="fill:#FFFFFF;" width="4.555" height="142.814"/>
	<rect x="1982.7" y="718.867" style="fill:#FFFFFF;" width="4.555" height="142.814"/>
	<rect x="2014.23" y="718.867" style="fill:#FFFFFF;" width="4.555" height="142.814"/>
	<rect x="2045.761" y="718.867" style="fill:#FFFFFF;" width="4.555" height="142.814"/>
	<rect x="2077.292" y="718.867" style="fill:#FFFFFF;" width="4.555" height="142.814"/>
	<linearGradient id="SVGID_4_" gradientUnits="userSpaceOnUse" x1="1801.942" y1="859.0511" x2="2469.0154" y2="859.0511">
		<stop  offset="0" style="stop-color:#DAA162"/>
		<stop  offset="1" style="stop-color:#C2774E"/>
	</linearGradient>
	<path style="fill:url(#SVGID_4_);" d="M2469.015,985.677c-6.865,1.556-16.069,0.88-22.896-2.429
		c-7.619-3.693-13.116-9.999-15.95-17.317c-5.925,0.715-12.115-0.197-17.884-2.994c-0.264-0.128-0.52-0.268-0.779-0.402
		c-0.344,0.911-0.725,1.816-1.158,2.709c-7.745,15.979-26.977,22.654-42.956,14.909c-10.456-5.068-16.925-15.054-17.981-25.828
		c-2.086-0.265-4.167-0.739-6.215-1.432c-0.487,3.021-1.41,6.024-2.814,8.919c-7.745,15.979-26.977,22.654-42.956,14.909
		c-5.936-2.877-10.585-7.342-13.691-12.634c-1.967-0.522-3.913-1.232-5.812-2.153c-10.61-5.142-17.107-15.35-18.013-26.306
		c-1.492-0.469-2.969-1.049-4.418-1.752c-7.619-3.693-13.116-9.999-15.95-17.317c-5.925,0.714-12.115-0.197-17.884-2.994
		c-0.264-0.128-0.52-0.268-0.779-0.402c-0.344,0.911-0.725,1.816-1.158,2.709c-7.745,15.979-26.977,22.654-42.956,14.909
		c-10.455-5.068-16.925-15.054-17.981-25.828c-2.086-0.265-4.167-0.739-6.215-1.432c-0.487,3.021-1.41,6.024-2.814,8.919
		c-7.745,15.979-26.977,22.654-42.956,14.909c-5.936-2.877-10.585-7.342-13.691-12.634c-1.967-0.522-3.913-1.232-5.812-2.153
		c-3.347-1.622-6.28-3.754-8.763-6.249c-9.085,5.737-20.835,6.796-31.215,1.765c-4.165-2.018-7.69-4.822-10.5-8.14
		c-0.533,2.264-1.312,4.505-2.369,6.686c-7.745,15.979-26.977,22.654-42.956,14.909c-7.619-3.693-13.116-9.999-15.95-17.317
		c-5.925,0.715-12.115-0.197-17.884-2.994c-0.265-0.128-0.52-0.268-0.779-0.402c-0.344,0.911-0.725,1.816-1.158,2.709
		c-7.745,15.979-26.977,22.654-42.956,14.909c-10.455-5.068-16.925-15.054-17.981-25.828c-2.086-0.265-4.167-0.739-6.215-1.432
		c-0.487,3.021-1.41,6.024-2.814,8.919c-7.745,15.979-26.977,22.654-42.956,14.909c-5.936-2.877-10.585-7.342-13.691-12.634
		c-1.967-0.522-3.913-1.232-5.812-2.153c-14.355-6.958-21.194-23.186-16.821-37.999c-5.333-8.977-6.204-20.372-1.309-30.47
		c6.259-12.914,20.022-19.747,33.506-17.806c7.39-12.383,22.094-18.21,35.782-14.587c0.367-0.999,0.785-1.989,1.259-2.967
		c7.745-15.979,26.977-22.654,42.956-14.909c6.527,3.164,11.5,8.245,14.573,14.238c5.948-7.751,16.711-10.53,25.847-6.102
		c3.124,1.514,5.7,3.703,7.647,6.303c9.371-7.218,22.376-8.995,33.744-3.485c1.909,0.925,3.683,2.017,5.317,3.245
		c0.386-3.572,1.367-7.139,3.024-10.558c6.26-12.914,20.022-19.746,33.506-17.806c7.39-12.383,22.094-18.21,35.781-14.587
		c0.367-0.999,0.785-1.989,1.259-2.967c7.745-15.979,26.977-22.654,42.956-14.909c6.527,3.164,11.5,8.245,14.573,14.238
		c5.948-7.751,16.711-10.53,25.847-6.102c3.124,1.514,5.7,3.703,7.647,6.303c9.371-7.218,22.376-8.995,33.743-3.485
		c7.866,3.812,13.475,10.404,16.235,18.021c6.432-6.241,16.323-8.131,24.856-3.995c4.899,2.375,8.512,6.334,10.531,10.962
		c9.451-8.374,23.372-10.736,35.444-4.885c7.17,3.475,12.464,9.262,15.436,16.027c8.719-4.559,19.41-5.074,28.944-0.453
		c6.527,3.164,11.5,8.245,14.573,14.238c5.948-7.751,16.711-10.53,25.848-6.102c3.124,1.514,5.699,3.703,7.647,6.303
		c9.371-7.218,22.376-8.995,33.744-3.485c7.865,3.812,13.475,10.404,16.235,18.021c6.432-6.241,16.323-8.131,24.856-3.995
		c4.899,2.375,8.512,6.334,10.531,10.962V985.677z"/>
	<g>
		<g>
			<path style="fill:#C2774E;" d="M1756.92,769.469l-3.429-0.031c0.012-1.313,0.398-34.414,9.743-43.758l2.424,2.424
				C1757.295,736.468,1756.923,769.162,1756.92,769.469z"/>
		</g>
		<g>
			<g>
				<path style="fill:#C2774E;" d="M1764.223,727.236l-13.738,18.506C1750.485,745.741,1748.094,728.264,1764.223,727.236z"/>
			</g>
		</g>
		<g>
			<g>
				<path style="fill:#C2774E;" d="M1764.223,727.236l-21.414,8.521C1742.808,735.756,1749.962,719.632,1764.223,727.236z"/>
			</g>
		</g>
		<g>
			<g>
				<path style="fill:#C2774E;" d="M1764.101,727.317l-22.289-5.862C1741.812,721.455,1757.143,712.731,1764.101,727.317z"/>
			</g>
		</g>
		<g>
			<g>
				<path style="fill:#C2774E;" d="M1763.895,727.203l0.113,23.047C1764.008,750.25,1776.283,737.582,1763.895,727.203z"/>
			</g>
		</g>
		<g>
			<g>
				<path style="fill:#C2774E;" d="M1763.874,727.118l16.276,16.318C1780.15,743.437,1779.981,725.797,1763.874,727.118z"/>
			</g>
		</g>
		<g>
			<g>
				<path style="fill:#C2774E;" d="M1763.839,727.086l23.047,0.079C1786.886,727.165,1774.321,714.785,1763.839,727.086z"/>
			</g>
		</g>
		<g>
			<g>
				<path style="fill:#C2774E;" d="M1763.948,727.142l-10.443-20.546C1753.505,706.596,1770.216,712.246,1763.948,727.142z"/>
			</g>
		</g>
	</g>
	<g>
		<g>
			<rect x="1666.728" y="708.768" style="fill:#C2774E;" width="3.429" height="53.1"/>
		</g>
		<g>
			<path style="fill:#C2774E;" d="M1668.155,707.441l10.345,31.035C1678.5,738.477,1689.453,715.961,1668.155,707.441z"/>
		</g>
		<g>
			<path style="fill:#C2774E;" d="M1668.155,707.441l25.115,20.963C1693.27,728.404,1690.752,703.492,1668.155,707.441z"/>
		</g>
		<g>
			<path style="fill:#C2774E;" d="M1668.283,707.604l32.656,1.951C1700.939,709.556,1684.119,691.008,1668.283,707.604z"/>
		</g>
		<g>
			<path style="fill:#C2774E;" d="M1668.612,707.543l-10.345,31.035C1658.266,738.578,1647.313,716.062,1668.612,707.543z"/>
		</g>
		<g>
			<path style="fill:#C2774E;" d="M1668.677,707.437l-29.169,14.812C1639.508,722.249,1647.536,698.532,1668.677,707.437z"/>
		</g>
		<g>
			<path style="fill:#C2774E;" d="M1668.738,707.409l-31.121-10.086C1637.617,697.323,1660.041,686.182,1668.738,707.409z"/>
		</g>
		<g>
			<path style="fill:#C2774E;" d="M1668.567,707.436l23.171-23.093C1691.738,684.342,1666.7,684.572,1668.567,707.436z"/>
		</g>
	</g>
	<rect x="1912.295" y="697.136" style="fill:#FFFFFF;" width="14.59" height="21.564"/>
	<rect x="1943.776" y="697.136" style="fill:#FFFFFF;" width="14.59" height="21.564"/>
	<rect x="1975.257" y="697.136" style="fill:#FFFFFF;" width="14.59" height="21.564"/>
	<rect x="2006.738" y="697.136" style="fill:#FFFFFF;" width="14.59" height="21.564"/>
	<rect x="2038.218" y="697.136" style="fill:#FFFFFF;" width="14.59" height="21.564"/>
	<rect x="2069.699" y="697.136" style="fill:#FFFFFF;" width="14.59" height="21.564"/>
	<polygon style="fill:#FFFFFF;" points="1815.663,769.454 1855.534,729.583 1895.405,769.454 	"/>
	<path style="fill:#F6D574;" d="M912.351,746.135c0.437,6.777,6.07,12.14,12.958,12.14s12.52-5.362,12.958-12.14H912.351z"/>
	<path style="fill:#F6D574;" d="M938.408,746.135c0.437,6.777,6.07,12.14,12.958,12.14s12.52-5.362,12.958-12.14H938.408z"/>
	<path style="fill:#F6D574;" d="M964.465,746.135c0.438,6.777,6.07,12.14,12.958,12.14s12.52-5.362,12.958-12.14H964.465z"/>
	<path style="fill:#F6D574;" d="M990.522,746.135c0.437,6.777,6.07,12.14,12.958,12.14s12.52-5.362,12.958-12.14H990.522z"/>
	<path style="fill:#F6D574;" d="M387.808,746.135c0.437,6.777,6.07,12.14,12.958,12.14s12.52-5.362,12.958-12.14H387.808z"/>
	<path style="fill:#F6D574;" d="M413.865,746.135c0.437,6.777,6.07,12.14,12.958,12.14s12.52-5.362,12.958-12.14H413.865z"/>
	<path style="fill:#F6D574;" d="M439.922,746.135c0.437,6.777,6.07,12.14,12.958,12.14s12.52-5.362,12.958-12.14H439.922z"/>
	<path style="fill:#F6D574;" d="M465.979,746.135c0.437,6.777,6.07,12.14,12.958,12.14c6.888,0,12.52-5.362,12.958-12.14H465.979z"
		/>
	<path style="fill:#F6D574;" d="M1016.579,746.135c0.438,6.777,6.07,12.14,12.958,12.14c6.888,0,12.52-5.362,12.958-12.14H1016.579z
		"/>
	<path style="fill:#F6D574;" d="M71.367,719.736c0.437,6.777,6.07,12.14,12.958,12.14s12.52-5.362,12.958-12.14H71.367z"/>
	<path style="fill:#F6D574;" d="M97.424,719.736c0.437,6.777,6.07,12.14,12.958,12.14s12.52-5.362,12.958-12.14H97.424z"/>
	<path style="fill:#F6D574;" d="M123.481,719.736c0.437,6.777,6.07,12.14,12.958,12.14s12.52-5.362,12.958-12.14H123.481z"/>
	<path style="fill:#F6D574;" d="M149.538,719.736c0.437,6.777,6.07,12.14,12.958,12.14s12.52-5.362,12.958-12.14H149.538z"/>
	<path style="fill:#F6D574;" d="M175.595,719.736c0.437,6.777,6.07,12.14,12.958,12.14s12.52-5.362,12.958-12.14H175.595z"/>
	<path style="fill:#F6D574;" d="M558.524,727.621c0.437,6.777,6.07,12.14,12.958,12.14s12.52-5.362,12.958-12.14H558.524z"/>
	<g>
		
			<rect x="376.004" y="511.571" transform="matrix(-1 0.0099 -0.0099 -1 783.9771 1406.6932)" style="fill:#FBFDF9;" width="25.015" height="387.428"/>
	</g>
	<g>
		<path style="fill:#EEB76C;" d="M384.4,501.922l77.715,225.681C462.115,727.604,540.406,562.542,384.4,501.922z"/>
	</g>
	<g>
		<path style="fill:#DAA162;" d="M384.4,501.922l184.747,151.129C569.148,653.051,548.978,471.481,384.4,501.922z"/>
	</g>
	<g>
		<path style="fill:#F0C46F;" d="M385.348,503.104l238.391,11.882C623.739,514.986,499.685,380.876,385.348,503.104z"/>
	</g>
	<g>
		<path style="fill:#EEB76C;" d="M387.742,502.629l-73.237,227.174C314.505,729.803,232.965,566.323,387.742,502.629z"/>
	</g>
	<g>
		<path style="fill:#F0C46F;" d="M388.212,501.856L176.47,612.024C176.47,612.024,233.333,438.412,388.212,501.856z"/>
	</g>
	<g>
		<path style="fill:#EEB76C;" d="M388.655,501.647l-227.777-71.338C160.878,430.309,323.672,347.407,388.655,501.647z"/>
	</g>
	<g>
		<path style="fill:#EEB76C;" d="M387.408,501.854l167.388-170.156C554.796,331.698,372.142,335.182,387.408,501.854z"/>
	</g>
	<path style="fill:#F6D574;" d="M610.638,727.621c0.437,6.777,6.07,12.14,12.958,12.14s12.52-5.362,12.958-12.14H610.638z"/>
	<path style="fill:#F6D574;" d="M636.695,727.621c0.437,6.777,6.07,12.14,12.958,12.14s12.52-5.362,12.958-12.14H636.695z"/>
	<path style="fill:#F6D574;" d="M-136.753,736.878c0.437,6.777,6.07,12.14,12.958,12.14s12.52-5.362,12.958-12.14H-136.753z"/>
	<path style="fill:#F6D574;" d="M-84.639,736.878c0.437,6.777,6.07,12.14,12.958,12.14s12.52-5.362,12.958-12.14H-84.639z"/>
	<path style="fill:#F6D574;" d="M-58.581,736.878c0.437,6.777,6.07,12.14,12.958,12.14s12.52-5.362,12.958-12.14H-58.581z"/>
	<path style="fill:#F6D574;" d="M1130.407,785.221c0.438,6.777,6.07,12.14,12.958,12.14s12.52-5.362,12.958-12.14H1130.407z"/>
	<path style="fill:#F6D574;" d="M1156.464,785.221c0.438,6.777,6.07,12.14,12.958,12.14s12.52-5.362,12.958-12.14H1156.464z"/>
	<path style="fill:#F6D574;" d="M1182.522,785.221c0.437,6.777,6.07,12.14,12.958,12.14s12.52-5.362,12.958-12.14H1182.522z"/>
	<path style="fill:#F6D574;" d="M756.009,785.221c0.437,6.777,6.07,12.14,12.958,12.14s12.52-5.362,12.958-12.14H756.009z"/>
	<path style="fill:#F6D574;" d="M313.901,740.512c0.437,6.777,6.07,12.14,12.958,12.14s12.52-5.362,12.958-12.14H313.901z"/>
	<path style="fill:#F6D574;" d="M782.066,785.221c0.437,6.777,6.07,12.14,12.958,12.14s12.52-5.362,12.958-12.14H782.066z"/>
	<path style="fill:#F6D574;" d="M287.986,740.512c0.437,6.777,6.07,12.14,12.958,12.14s12.52-5.362,12.958-12.14H287.986z"/>
	<path style="fill:#F6D574;" d="M1324.094,743.052c0.438,6.777,6.07,12.14,12.958,12.14s12.52-5.362,12.958-12.14H1324.094z"/>
	<rect x="260.683" y="760.808" style="fill:#C2774E;" width="88.452" height="27.77"/>
	<rect x="216.4" y="788.636" style="fill:#F0C46F;" width="88.452" height="27.77"/>
	<rect x="216.628" y="843.947" style="fill:#F0C46F;" width="88.452" height="27.77"/>
	<rect x="-137.353" y="788.578" style="fill:#C2774E;" width="88.452" height="27.77"/>
	<rect x="127.947" y="788.636" style="fill:#C2774E;" width="88.452" height="27.77"/>
	<rect x="-168.285" y="816.406" style="fill:#F0C46F;" width="75.101" height="27.77"/>
	<rect x="-93.127" y="816.177" style="fill:#DAA162;" width="88.452" height="27.77"/>
	<rect x="-4.674" y="816.177" style="fill:#C2774E;" width="88.452" height="27.77"/>
	<rect x="83.778" y="816.177" style="fill:#F0C46F;" width="88.452" height="27.77"/>
	<rect x="-168.285" y="871.717" style="fill:#F0C46F;" width="75.329" height="27.77"/>
	<rect x="-168.285" y="927.499" style="fill:#F0C46F;" width="75.329" height="27.77"/>
	<rect x="-92.955" y="871.717" style="fill:#DAA162;" width="88.452" height="27.77"/>
	<rect x="-4.503" y="871.717" style="fill:#C2774E;" width="88.452" height="27.77"/>
	<rect x="83.95" y="871.717" style="fill:#F0C46F;" width="88.452" height="27.77"/>
	<rect x="172.402" y="816.177" style="fill:#DAA162;" width="88.452" height="27.77"/>
	<rect x="172.231" y="760.808" style="fill:#DAA162;" width="88.452" height="27.77"/>
	<rect x="658.719" y="788.407" style="fill:#C2774E;" width="88.452" height="27.77"/>
	<rect x="570.266" y="788.407" style="fill:#DAA162;" width="88.452" height="27.77"/>
	<rect x="-137.181" y="843.947" style="fill:#C2774E;" width="88.452" height="27.77"/>
	<rect x="-48.729" y="843.947" style="fill:#F0C46F;" width="88.452" height="27.77"/>
	<rect x="83.778" y="760.808" style="fill:#F0C46F;" width="88.452" height="27.77"/>
	<rect x="526.04" y="760.808" style="fill:#C2774E;" width="88.452" height="27.77"/>
	<rect x="437.588" y="760.808" style="fill:#DAA162;" width="88.452" height="27.77"/>
	<rect x="349.135" y="760.808" style="fill:#F0C46F;" width="88.452" height="27.77"/>
	<rect x="614.492" y="760.808" style="fill:#F0C46F;" width="88.452" height="27.77"/>
	<rect x="-4.674" y="760.808" style="fill:#C2774E;" width="88.452" height="27.77"/>
	<rect x="-48.957" y="788.636" style="fill:#F0C46F;" width="88.452" height="27.77"/>
	<rect x="39.495" y="788.636" style="fill:#DAA162;" width="88.452" height="27.77"/>
	<rect x="-168.285" y="760.808" style="fill:#F0C46F;" width="75.158" height="27.77"/>
	<rect x="-93.127" y="760.808" style="fill:#DAA162;" width="88.452" height="27.77"/>
	<rect x="172.402" y="871.717" style="fill:#DAA162;" width="88.452" height="27.77"/>
	<rect x="-168.285" y="843.947" style="fill:#DAA162;" width="31.103" height="27.77"/>
	<rect x="-168.285" y="899.487" style="fill:#DAA162;" width="31.103" height="27.77"/>
	<rect x="-168.285" y="788.578" style="fill:#DAA162;" width="30.932" height="27.77"/>
	<rect x="39.723" y="843.947" style="fill:#DAA162;" width="88.452" height="27.77"/>
	<rect x="-137.181" y="899.487" style="fill:#C2774E;" width="88.452" height="27.77"/>
	<rect x="-48.729" y="899.487" style="fill:#F0C46F;" width="88.452" height="27.77"/>
	<rect x="39.723" y="898.808" style="fill:#DAA162;" width="88.452" height="27.77"/>
	<rect x="128.176" y="843.947" style="fill:#C2774E;" width="88.452" height="27.77"/>
	<line style="fill:#E7E7E7;" x1="-86.703" y1="834.247" x2="95.344" y2="834.247"/>
	<rect x="304.909" y="788.407" style="fill:#DAA162;" width="88.452" height="27.77"/>
	<rect x="393.361" y="788.407" style="fill:#C2774E;" width="88.452" height="27.77"/>
	<rect x="481.814" y="788.407" style="fill:#F0C46F;" width="88.452" height="27.77"/>
	<rect x="305.081" y="843.947" style="fill:#DAA162;" width="88.452" height="27.77"/>
	<rect x="393.533" y="843.947" style="fill:#C2774E;" width="88.452" height="27.77"/>
	<rect x="570.438" y="843.947" style="fill:#C2774E;" width="88.452" height="27.77"/>
	<rect x="481.985" y="843.947" style="fill:#DAA162;" width="88.452" height="27.77"/>
	<rect x="260.854" y="816.177" style="fill:#C2774E;" width="88.452" height="27.77"/>
	<rect x="349.307" y="816.177" style="fill:#F0C46F;" width="88.452" height="27.77"/>
	<rect x="437.759" y="816.177" style="fill:#DAA162;" width="88.452" height="27.77"/>
	<rect x="260.854" y="871.717" style="fill:#C2774E;" width="88.452" height="27.77"/>
	<rect x="349.307" y="871.717" style="fill:#F0C46F;" width="88.452" height="27.77"/>
	<rect x="437.759" y="871.038" style="fill:#83AFC0;" width="88.452" height="27.77"/>
	<rect x="614.664" y="816.177" style="fill:#F0C46F;" width="88.452" height="27.77"/>
	<rect x="703.116" y="816.177" style="fill:#DAA162;" width="88.452" height="27.77"/>
	<rect x="526.211" y="816.177" style="fill:#C2774E;" width="88.452" height="27.77"/>
	<linearGradient id="SVGID_5_" gradientUnits="userSpaceOnUse" x1="1082.0704" y1="1970.4485" x2="1082.0704" y2="1294.6417">
		<stop  offset="0" style="stop-color:#121A3C"/>
		<stop  offset="1" style="stop-color:#1D3658"/>
	</linearGradient>
	<path style="fill:url(#SVGID_5_);" d="M3160.426,1753.503V1052.05c-325.364-87.605-1507.377-231.852-2080.366-231.852
		c-571.845,0-1750.896,119.278-2076.344,206.583v726.721H3160.426z"/>
	<polygon style="fill:#C1DDE9;" points="1309.637,864.007 1309.637,878.406 1243.558,823.237 1243.558,808.838 	"/>
	<rect x="1309.637" y="864.007" style="fill:#DAF1FA;" width="299.063" height="14.399"/>
	<path style="fill:#FFFFFF;" d="M1542.62,808.838h-11.168h-276.726h-3.247h-7.921l7.921,6.613v0.587h0.703l57.456,47.969h11.168
		h276.726h4.932h6.236L1542.62,808.838z M1315.604,859.664l-52.254-43.626h276.726l52.254,43.626H1315.604z"/>
	<linearGradient id="SVGID_6_" gradientUnits="userSpaceOnUse" x1="1263.3499" y1="837.851" x2="1592.33" y2="837.851">
		<stop  offset="0" style="stop-color:#FCC25B"/>
		<stop  offset="1" style="stop-color:#F79563"/>
	</linearGradient>
	<polygon style="fill:url(#SVGID_6_);" points="1263.35,816.038 1540.076,816.038 1592.33,859.664 1315.604,859.664 	"/>
	<polygon style="fill:#F6D574;" points="1312.018,834.281 1353.856,834.281 1353.882,834.224 1354.186,834.281 1371.44,834.281 
		1388.442,820.113 1370.212,831.119 1388.442,810.61 1371.452,825.333 1390.76,802.548 1360.439,831.594 1384.965,795.349 
		1355.625,830.507 1374.536,790.166 1351.157,828.885 1363.527,782.967 1347.132,825.759 1352.518,778.072 1340.895,831.932 
		1340.35,774.905 1336.021,824.886 1331.659,774.041 1331.133,829.608 1321.229,780.952 1325.941,829.852 1305.005,790.166 
		1318.229,823.542 1296.874,795.736 1317.868,829.969 1290.519,805.715 1313.052,830.505 1288.202,813.49 	"/>
	<polygon style="fill:#C2774E;" points="1370.581,850.32 1407.524,850.32 1407.547,850.249 1407.816,850.32 1423.05,850.32 
		1438.063,832.603 1421.966,846.366 1438.063,820.721 1423.061,839.13 1440.109,810.64 1413.337,846.959 1434.993,801.638 
		1409.086,845.6 1425.784,795.157 1405.141,843.572 1416.063,786.156 1401.587,839.663 1406.342,780.035 1396.079,847.383 
		1395.598,776.074 1391.775,838.571 1387.924,774.994 1387.459,844.476 1378.714,783.635 1382.875,844.781 1364.389,795.157 
		1376.065,836.891 1357.209,802.122 1375.747,844.927 1351.598,814.6 1371.494,845.598 1349.552,824.322 	"/>
	<linearGradient id="SVGID_7_" gradientUnits="userSpaceOnUse" x1="1449.8591" y1="820.8193" x2="1491.6875" y2="820.8193">
		<stop  offset="0" style="stop-color:#EFE2D1"/>
		<stop  offset="1" style="stop-color:#C5BAA4"/>
	</linearGradient>
	<polygon style="fill:url(#SVGID_7_);" points="1449.859,828.362 1461.516,812.248 1476.602,812.248 1481.402,820.476 
		1491.688,829.391 	"/>
	<path style="fill:#F6D574;" d="M1473.859,841.048c0.442-0.662,2.873-7.58,4.549-12.422c1.024-2.957,3.444-5.212,6.465-6.027
		l12.508-3.375c2.694-0.727,5.571-0.226,7.861,1.369l13.827,9.629c1.16,0.808,2.124,1.865,2.82,3.095l4.77,8.418L1473.859,841.048z"
		/>
	<g>
		<ellipse style="fill:#FAB857;" cx="1465.559" cy="849.626" rx="3.333" ry="1.946"/>
		<ellipse style="fill:#FAB857;" cx="1532.53" cy="832.712" rx="3.333" ry="1.946"/>
		<ellipse style="fill:#FAB857;" cx="1455.916" cy="836.934" rx="3.333" ry="1.946"/>
		<ellipse style="fill:#FAB857;" cx="1537.878" cy="821.619" rx="3.333" ry="1.946"/>
		<ellipse style="fill:#F38B50;" cx="1437.764" cy="846.762" rx="3.333" ry="1.946"/>
		<ellipse style="fill:#F38B50;" cx="1286.45" cy="824.819" rx="3.333" ry="1.946"/>
		<ellipse style="fill:#F38B50;" cx="1356.445" cy="840.026" rx="3.333" ry="1.946"/>
		<ellipse style="fill:#F9B557;" cx="1311.188" cy="849.626" rx="3.333" ry="1.946"/>
		<ellipse style="fill:#FAB857;" cx="1451.844" cy="841.741" rx="2.69" ry="1.571"/>
		<ellipse style="fill:#F38B50;" cx="1386.873" cy="855.541" rx="2.69" ry="1.571"/>
		<ellipse style="fill:#FAB857;" cx="1427.587" cy="853.826" rx="2.69" ry="1.571"/>
		<ellipse style="fill:#FAB857;" cx="1521.059" cy="852.934" rx="2.69" ry="1.571"/>
		<ellipse style="fill:#F38B50;" cx="1533.63" cy="850.19" rx="2.69" ry="1.571"/>
		<ellipse style="fill:#FAB857;" cx="1565.763" cy="852.705" rx="2.69" ry="1.571"/>
		<ellipse style="fill:#F38B50;" cx="1456.373" cy="842.648" rx="2.69" ry="1.571"/>
		<ellipse style="fill:#FAB857;" cx="1544.144" cy="845.191" rx="2.69" ry="1.571"/>
		<ellipse style="fill:#FAB857;" cx="1554.792" cy="836.705" rx="2.69" ry="1.571"/>
		<ellipse style="fill:#FAB857;" cx="1443.187" cy="833.598" rx="2.69" ry="1.571"/>
		<ellipse style="fill:#FAB857;" cx="1520.049" cy="822.076" rx="2.69" ry="1.571"/>
		<ellipse style="fill:#FAB857;" cx="1467.873" cy="832.741" rx="1.459" ry="0.852"/>
		<ellipse style="fill:#FAB857;" cx="1490.202" cy="847.281" rx="1.459" ry="0.852"/>
		<ellipse style="fill:#FAB857;" cx="1443.945" cy="854.162" rx="1.459" ry="0.852"/>
		<ellipse style="fill:#FAB857;" cx="1500.301" cy="847.798" rx="3.333" ry="1.946"/>
		<ellipse style="fill:#FAB857;" cx="1478.688" cy="852.333" rx="1.459" ry="0.852"/>
		<ellipse style="fill:#FAB857;" cx="1548.716" cy="853.162" rx="1.459" ry="0.852"/>
		<ellipse style="fill:#FAB857;" cx="1405.631" cy="854.076" rx="1.459" ry="0.852"/>
		<ellipse style="fill:#F38B50;" cx="1355.831" cy="850.133" rx="2.347" ry="1.371"/>
		<ellipse style="fill:#FAB857;" cx="1440.445" cy="823.905" rx="2.347" ry="1.371"/>
		<ellipse style="fill:#F38B50;" cx="1327.374" cy="843.105" rx="2.347" ry="1.371"/>
		<ellipse style="fill:#F38B50;" cx="1348.46" cy="856.133" rx="2.347" ry="1.371"/>
		<ellipse style="fill:#FAB857;" cx="1494.973" cy="854.305" rx="2.347" ry="1.371"/>
		<ellipse style="fill:#F9B557;" cx="1331.145" cy="839.248" rx="1.459" ry="0.852"/>
		<ellipse style="fill:#F38B50;" cx="1341.088" cy="843.019" rx="2.46" ry="1.437"/>
		<ellipse style="fill:#F38B50;" cx="1346.574" cy="844.133" rx="2.46" ry="1.437"/>
		<ellipse style="fill:#F38B50;" cx="1341.86" cy="848.848" rx="2.46" ry="1.437"/>
		<ellipse style="fill:#FAB857;" cx="1369.459" cy="855.705" rx="2.46" ry="1.437"/>
		<ellipse style="fill:#FAB857;" cx="1423.387" cy="851.598" rx="3.333" ry="1.946"/>
		<ellipse style="fill:#F38B50;" cx="1536.964" cy="834.419" rx="3.333" ry="1.946"/>
		<ellipse style="fill:#F38B50;" cx="1312.988" cy="834.712" rx="2.69" ry="1.571"/>
		<ellipse style="fill:#F38B50;" cx="1337.073" cy="834.455" rx="2.69" ry="1.571"/>
		<ellipse style="fill:#F38B50;" cx="1316.673" cy="834.712" rx="1.647" ry="0.962"/>
	</g>
	<rect x="631.596" y="653.318" style="fill:#EEB76C;" width="38.857" height="24.686"/>
	<rect x="686.282" y="647.476" style="fill:#EEB76C;" width="26.855" height="30.528"/>
	<path style="fill:#FFFFFF;" d="M804.013,698.937c6.558-5.741,18.124-14.404,33.984-20.677c2.202-0.871,1.579-4.143-0.788-4.143
		c-52.661-0.011-243.004-0.093-242.413-0.684l12.752,25.505H804.013z"/>
	<path style="fill:#EEB76C;" d="M604.01,691.86l6.557,13.115h187.199c0,0,5.316-6.067,15.232-13.115H604.01z"/>
	<line style="fill:none;stroke:#EEB76C;stroke-width:7;stroke-miterlimit:10;" x1="699.71" y1="662.74" x2="699.71" y2="627.106"/>
	<line style="fill:none;stroke:#EEB76C;stroke-width:7;stroke-miterlimit:10;" x1="686.681" y1="637.38" x2="712.738" y2="637.38"/>
</g>
</svg>
