<svg id="BACKGROUND" xmlns="http://www.w3.org/2000/svg" xmlns:xlink="http://www.w3.org/1999/xlink" viewBox="0 0 4000 2500"><defs><style>.cls-1{fill:#a6def0;}.cls-2{fill:url(#linear-gradient);}.cls-3{fill:url(#linear-gradient-2);}.cls-4{fill:#a1d4e7;}.cls-45,.cls-5{fill:#9ccfdf;}.cls-6{fill:#90becd;}.cls-7{fill:#87b3c1;}.cls-47,.cls-8{fill:#fff;}.cls-9{fill:#a2d5e5;}.cls-10,.cls-32{fill:#78a1ac;}.cls-11{fill:#daa162;}.cls-12{fill:#88b2bf;}.cls-13{fill:#8dbaca;}.cls-14{fill:#f9fdff;}.cls-15{fill:#87b1be;}.cls-16{fill:#f9a56d;}.cls-17{fill:url(#linear-gradient-3);}.cls-18,.cls-19,.cls-30,.cls-31,.cls-41,.cls-43,.cls-51{fill:none;}.cls-18,.cls-19,.cls-51{stroke:#fff;}.cls-18,.cls-19,.cls-30,.cls-31,.cls-41,.cls-45,.cls-51{stroke-miterlimit:10;}.cls-18,.cls-19,.cls-30,.cls-41{stroke-width:3px;}.cls-19{stroke-linecap:round;}.cls-20{fill:url(#linear-gradient-4);}.cls-21{fill:#97c9d7;}.cls-22{fill:#d0edf7;}.cls-23{fill:#efd794;}.cls-24{fill:#9dd1e3;}.cls-25{fill:#c3e8f6;}.cls-26{fill:#e6b86a;}.cls-27{fill:url(#linear-gradient-5);}.cls-28{fill:url(#linear-gradient-6);}.cls-29{fill:#93c2d2;}.cls-30,.cls-31{stroke:#78a1ac;}.cls-31{stroke-width:2px;}.cls-32{font-size:17px;font-family:LubalinGraphStd-Demi, ITC Lubalin Graph Std;letter-spacing:0.04em;}.cls-33{letter-spacing:0.05em;}.cls-34{letter-spacing:0.04em;}.cls-35{letter-spacing:0.04em;}.cls-36{letter-spacing:0.02em;}.cls-37{letter-spacing:0.2em;}.cls-38{letter-spacing:-0.08em;}.cls-39{letter-spacing:0.02em;}.cls-40{fill:#89b4c2;}.cls-41{stroke:#a6def0;}.cls-42{fill:#628892;}.cls-44{fill:#99cddb;}.cls-45{stroke:#9ccfdf;stroke-width:8px;}.cls-46{fill:#8bb7c6;}.cls-47{opacity:0.23;}.cls-48{fill:#5c8289;}.cls-49{fill:#98c9d9;}.cls-50{fill:url(#New_Gradient_Swatch_copy);}.cls-51{stroke-width:30px;}</style><linearGradient id="linear-gradient" x1="1077.08" y1="719.77" x2="831.44" y2="1286.43" gradientUnits="userSpaceOnUse"><stop offset="0" stop-color="#c5e9f3"/><stop offset="0.99" stop-color="#a7def1"/></linearGradient><linearGradient id="linear-gradient-2" x1="2717.86" y1="292.43" x2="3168.37" y2="1293.57" xlink:href="#linear-gradient"/><linearGradient id="linear-gradient-3" x1="1777.61" y1="1016.07" x2="1857.21" y2="1016.07" gradientUnits="userSpaceOnUse"><stop offset="0" stop-color="#8bb7c6"/><stop offset="1" stop-color="#7ca4b0"/></linearGradient><linearGradient id="linear-gradient-4" x1="1414.94" y1="599.79" x2="1464.08" y2="599.79" xlink:href="#linear-gradient-3"/><linearGradient id="linear-gradient-5" x1="632.29" y1="1152.14" x2="632.29" y2="735.3" gradientUnits="userSpaceOnUse"><stop offset="0" stop-color="#fff" stop-opacity="0.2"/><stop offset="1" stop-color="#a4dcee" stop-opacity="0"/></linearGradient><linearGradient id="linear-gradient-6" x1="1437.12" y1="975.29" x2="1496.21" y2="975.29" xlink:href="#linear-gradient-3"/><linearGradient id="New_Gradient_Swatch_copy" x1="2000.48" y1="2838.09" x2="2000.48" y2="1784.9" gradientUnits="userSpaceOnUse"><stop offset="0" stop-color="#121a3c"/><stop offset="1" stop-color="#1d3658"/></linearGradient></defs><title>v copy 8</title><rect class="cls-1" x="0.7" width="4000" height="2500"/><path class="cls-2" d="M2034.71,1183.87c-37.28-29.53-85.15-48.79-124.15-76.81-44.64-32.08-76.64-75.54-90.29-122.63-11.41-39.35-10.54-81.53-31.82-118.08-39.82-68.42-141.79-94.83-233.72-107.79-276.46-39-559.95-21.11-839.81-37.68-38.38-2.27-77.73-5.42-112.17-19.35s-63.34-41.07-64.16-72.27c-1.42-53.46,73.68-88.58,88.08-140.76,12-43.42-21.15-92.38-69.81-111.46-159-62.34-441-74.34-556.86-56.55V1506.77c280.3.4,759.72-63.52,1042.4-79.94,314.71-18.28,642.9,21.2,937.71-69.95,38.57-11.92,79.23-28.42,96.17-58.94C2097.66,1259.41,2072,1213.4,2034.71,1183.87Z"/><path class="cls-3" d="M4000-3.33H3484.43q-7,3.87-13.9,7.85c-55.81,32.17-115.33,88.07-94.81,147.73,19.39,56.39,101.25,78.13,113.51,136.36,6.93,32.89-12.76,66.95-40.75,86.77s-62.88,28-97.08,33.58C3217,431,3078.33,420.86,2944.59,446.4c-75,14.33-158.86,51.55-173.5,124.19-18.7,92.75,88.61,185.51,50.18,272.39-23.57,53.29-90.68,72.94-150.19,79.5-118.44,13-238-.54-357.1-5.64s-242-1-351.43,44.83-203.28,141.18-215.14,256c-3.68,35.65.9,73,19.32,104.1,32.21,54.34,98.55,79,160.31,97.74,608.24,184.49,1435.51,176.84,2073,166.58Z"/><rect class="cls-4" x="874.1" y="847.45" width="121.68" height="368.73"/><rect class="cls-4" x="2459.74" y="889.48" width="156.1" height="378.8"/><rect class="cls-4" x="2485.21" y="848.04" width="105.15" height="255.17"/><polygon class="cls-5" points="1724.03 1206.97 1602.35 1206.97 1602.35 878.8 1724.03 838.24 1724.03 1206.97"/><rect class="cls-4" x="966.29" y="900.92" width="121.68" height="368.73"/><rect class="cls-5" x="1691.5" y="936.57" width="121.68" height="368.73"/><rect class="cls-4" x="2668.14" y="959.8" width="147.5" height="223.71"/><polygon class="cls-6" points="2719.77 1317.49 2736.98 1096.24 2802.13 1101.15 2847.6 1027.4 2911.52 1000.36 3050.42 1028.63 3043.04 1312.57 2719.77 1317.49"/><circle class="cls-6" cx="2544" cy="1269.55" r="45.48"/><circle class="cls-6" cx="2619.39" cy="1216.29" r="61.54"/><circle class="cls-6" cx="2755.42" cy="1086.81" r="34.46"/><circle class="cls-6" cx="2813.6" cy="1099.11" r="34.46"/><circle class="cls-6" cx="2860.31" cy="1026.99" r="64.1"/><circle class="cls-6" cx="2920.94" cy="981.93" r="51.88"/><circle class="cls-6" cx="2965.19" cy="1013.06" r="51.88"/><circle class="cls-6" cx="3058.61" cy="1043.38" r="67.16"/><path class="cls-6" d="M3794.73,1321.26A67.14,67.14,0,0,0,3708,1218.75a49.8,49.8,0,0,0-48.47-44.66,67.15,67.15,0,0,0-111.35-74.21,47.29,47.29,0,1,0-2.52,80.33q1.68,2.39,3.54,4.63a67.11,67.11,0,0,0-13.25,66.39,67.13,67.13,0,0,0,34.21,71.8,67.18,67.18,0,0,0,78.41,97.43,67.11,67.11,0,0,0,88.71,6.21,67.15,67.15,0,1,0,57.44-105.39Z"/><circle class="cls-6" cx="3113.92" cy="1097.47" r="48.85"/><rect class="cls-7" x="1670.88" y="1043.38" width="117.18" height="240.92"/><rect class="cls-8" x="1533.62" y="909.39" width="142.24" height="401.94"/><rect class="cls-9" x="1639.64" y="908.79" width="36.94" height="401.94"/><rect class="cls-10" x="1624.58" y="916.16" width="5.53" height="389.03"/><rect class="cls-10" x="1610.76" y="916.16" width="5.53" height="389.03"/><rect class="cls-10" x="1596.94" y="916.16" width="5.53" height="389.03"/><rect class="cls-10" x="1583.13" y="916.16" width="5.53" height="389.03"/><rect class="cls-10" x="1569.31" y="916.16" width="5.53" height="389.03"/><rect class="cls-10" x="1555.49" y="916.16" width="5.53" height="389.03"/><rect class="cls-11" x="1543.45" y="916.16" width="5.53" height="389.03"/><polygon class="cls-8" points="1520.51 727.49 1524.61 773.46 1528.71 819.43 1520.51 819.43 1512.3 819.43 1516.4 773.46 1520.51 727.49"/><polygon class="cls-10" points="652.09 855.08 652.09 854.62 651.96 854.85 651.82 854.62 651.82 855.08 632.23 848.36 563.59 1005.8 563.59 1006.18 563.59 1405.88 651.82 1416.91 651.82 1416.94 651.96 1416.93 652.09 1416.94 652.09 1416.91 740.32 1405.88 740.32 1285.02 740.32 1005.8 652.09 855.08"/><rect class="cls-12" x="1205.43" y="1104.84" width="132.75" height="223.71"/><polygon class="cls-8" points="1125.53 809.02 1128.79 835.12 1132.05 861.23 1125.53 861.23 1119.02 861.23 1122.28 835.12 1125.53 809.02"/><polygon class="cls-8" points="1242.71 809.02 1245.97 835.12 1249.23 861.23 1242.71 861.23 1236.2 861.23 1239.46 835.12 1242.71 809.02"/><polygon class="cls-8" points="1182.89 767.67 1186.84 805.02 1190.79 842.38 1182.89 842.38 1175 842.38 1178.95 805.02 1182.89 767.67"/><rect class="cls-13" x="456.86" y="1230.22" width="114.31" height="226.17"/><polygon class="cls-14" points="907.11 1082.25 957.96 1082.25 957.96 958.98 1113.65 958.98 1113.65 1309.7 915.35 1334.29 902.23 1224.48 907.11 1082.25"/><rect class="cls-15" x="897.32" y="1081.9" width="61.42" height="13.99"/><polygon class="cls-5" points="1848.7 918.83 1886.39 918.83 1886.39 1065.51 1927.36 1065.51 1927.36 1335.11 1853.61 1335.11 1848.7 918.83"/><polygon class="cls-5" points="632.42 848.52 632.42 848.07 632.29 848.3 632.16 848.07 632.16 848.52 543.93 999.25 543.93 999.63 543.93 1399.33 632.16 1410.35 632.16 1410.39 632.29 1410.37 632.42 1410.39 632.42 1410.35 720.65 1399.33 720.65 1278.46 720.65 999.25 632.42 848.52"/><rect class="cls-16" x="1740.53" y="702.49" width="149.14" height="54.08"/><rect class="cls-10" x="1777.61" y="670.03" width="79.6" height="32.88" rx="0.56" ry="0.56"/><rect class="cls-17" x="1777.61" y="751.16" width="79.6" height="529.83" rx="2.19" ry="2.19"/><rect class="cls-5" x="1777.61" y="751.16" width="24.7" height="526.49" rx="1.22" ry="1.22"/><rect class="cls-5" x="1832.92" y="751.16" width="24.7" height="525.16" rx="1.22" ry="1.22"/><rect class="cls-10" x="1740.53" y="702.49" width="149.14" height="54.08" rx="0.98" ry="0.98"/><rect class="cls-10" x="1750.83" y="770.6" width="128.54" height="15.45" rx="0.48" ry="0.48"/><circle class="cls-18" cx="1816.22" cy="731.3" r="81.12"/><rect class="cls-5" x="1485.68" y="818.45" width="70.06" height="471.3"/><line class="cls-19" x1="1736.56" y1="726.04" x2="1800.34" y2="811.07"/><line class="cls-19" x1="1742.17" y1="700.3" x2="1825.56" y2="811.48"/><line class="cls-19" x1="1753.23" y1="681.83" x2="1846.78" y2="806.56"/><line class="cls-19" x1="1766.91" y1="666.85" x2="1864.4" y2="796.84"/><line class="cls-19" x1="1784.37" y1="656.91" x2="1878.61" y2="782.56"/><line class="cls-19" x1="1805.06" y1="651.28" x2="1890.18" y2="764.77"/><line class="cls-19" x1="1830.58" y1="652.1" x2="1896.65" y2="740.19"/><line class="cls-19" x1="1896.65" y1="726.04" x2="1832.88" y2="811.07"/><line class="cls-19" x1="1891.05" y1="700.3" x2="1807.66" y2="811.48"/><line class="cls-19" x1="1879.99" y1="681.83" x2="1786.43" y2="806.56"/><line class="cls-19" x1="1866.31" y1="666.85" x2="1768.81" y2="796.84"/><line class="cls-19" x1="1848.85" y1="656.91" x2="1754.61" y2="782.56"/><line class="cls-19" x1="1828.16" y1="651.28" x2="1743.04" y2="764.77"/><line class="cls-19" x1="1802.63" y1="652.1" x2="1736.56" y2="740.19"/><rect class="cls-5" x="1358.02" y="569.08" width="106.06" height="61.41"/><rect class="cls-20" x="1414.94" y="569.08" width="49.14" height="61.41"/><rect class="cls-5" x="1325.89" y="627.92" width="170.32" height="694.73"/><rect class="cls-21" x="2019.14" y="861.47" width="169.63" height="424.85"/><rect class="cls-10" x="2019.14" y="861.47" width="169.63" height="23.85"/><rect class="cls-22" x="2070.15" y="833.88" width="65.76" height="309.14" rx="26.75" ry="26.75"/><path class="cls-10" d="M2127.63,885.61V866.87a24.6,24.6,0,1,0-49.19,0v18.74Z"/><rect class="cls-9" x="2206.59" y="973.94" width="75.59" height="307.71"/><rect class="cls-14" x="2207.21" y="991.76" width="51.63" height="11.06"/><rect class="cls-14" x="2207.21" y="1017.57" width="51.63" height="11.06"/><rect class="cls-14" x="2207.21" y="1043.38" width="51.63" height="11.06"/><rect class="cls-14" x="2207.21" y="1069.2" width="51.63" height="11.06"/><rect class="cls-14" x="2207.21" y="1095.01" width="51.63" height="11.06"/><rect class="cls-14" x="2207.21" y="1120.82" width="51.63" height="11.06"/><rect class="cls-14" x="2207.21" y="1146.63" width="51.63" height="11.06"/><rect class="cls-14" x="2207.21" y="1172.45" width="51.63" height="11.06"/><rect class="cls-14" x="2207.21" y="1198.26" width="51.63" height="11.06"/><rect class="cls-14" x="2207.21" y="1224.07" width="51.63" height="11.06"/><rect class="cls-8" x="2315.1" y="964.02" width="49.67" height="316.59"/><rect class="cls-9" x="2309.84" y="977.62" width="57.16" height="9.83"/><rect class="cls-9" x="2309.84" y="999.75" width="57.16" height="9.83"/><rect class="cls-9" x="2309.84" y="1021.87" width="57.16" height="9.83"/><rect class="cls-9" x="2309.84" y="1044" width="57.16" height="9.83"/><rect class="cls-9" x="2309.84" y="1066.12" width="57.16" height="9.83"/><rect class="cls-9" x="2309.84" y="1088.25" width="57.16" height="9.83"/><rect class="cls-9" x="2309.84" y="1110.37" width="57.16" height="9.83"/><rect class="cls-9" x="2309.84" y="1132.5" width="57.16" height="9.83"/><rect class="cls-9" x="2309.84" y="1154.62" width="57.16" height="9.83"/><rect class="cls-9" x="2309.84" y="1176.75" width="57.16" height="9.83"/><rect class="cls-9" x="2309.84" y="1198.87" width="57.16" height="9.83"/><rect class="cls-9" x="2309.84" y="1221" width="57.16" height="9.83"/><rect class="cls-9" x="2309.84" y="1243.12" width="57.16" height="9.83"/><rect class="cls-23" x="2309.84" y="1265.25" width="57.16" height="9.83"/><rect class="cls-24" x="2580.26" y="1068.58" width="178.84" height="220.02"/><rect class="cls-10" x="2587.02" y="1083.33" width="165.94" height="4.3"/><rect class="cls-10" x="2587.02" y="1095.62" width="165.94" height="4.3"/><rect class="cls-10" x="2587.02" y="1107.92" width="165.94" height="4.3"/><rect class="cls-10" x="2587.02" y="1120.21" width="165.94" height="4.3"/><rect class="cls-10" x="2587.02" y="1132.5" width="165.94" height="4.3"/><rect class="cls-10" x="2587.02" y="1144.79" width="165.94" height="4.3"/><rect class="cls-10" x="2587.02" y="1157.08" width="165.94" height="4.3"/><rect class="cls-10" x="2587.02" y="1169.37" width="165.94" height="4.3"/><rect class="cls-10" x="2587.02" y="1181.67" width="165.94" height="4.3"/><rect class="cls-10" x="2587.02" y="1193.96" width="165.94" height="4.3"/><rect class="cls-10" x="2587.02" y="1206.25" width="165.94" height="4.3"/><rect class="cls-10" x="2587.02" y="1218.54" width="165.94" height="4.3"/><rect class="cls-5" x="1113.24" y="860.24" width="142.58" height="479.38"/><rect class="cls-7" x="787.51" y="1001.59" width="126.6" height="378.59"/><rect class="cls-7" x="796.35" y="978.84" width="108.94" height="23.86"/><polygon class="cls-7" points="850.81 938.09 878.08 958.47 905.34 978.85 850.81 978.85 796.29 978.85 823.55 958.47 850.81 938.09"/><rect class="cls-10" x="2027.6" y="891.58" width="13.52" height="13.52"/><rect class="cls-10" x="2047.27" y="891.58" width="13.52" height="13.52"/><rect class="cls-10" x="2027.6" y="911.86" width="13.52" height="13.52"/><rect class="cls-10" x="2047.27" y="911.86" width="13.52" height="13.52"/><rect class="cls-10" x="2027.6" y="932.14" width="13.52" height="13.52"/><rect class="cls-10" x="2047.27" y="932.14" width="13.52" height="13.52"/><rect class="cls-10" x="2027.6" y="952.43" width="13.52" height="13.52"/><rect class="cls-10" x="2047.27" y="952.43" width="13.52" height="13.52"/><rect class="cls-10" x="2027.6" y="972.71" width="13.52" height="13.52"/><rect class="cls-10" x="2027.6" y="992.99" width="13.52" height="13.52"/><rect class="cls-10" x="2027.6" y="1013.27" width="13.52" height="13.52"/><rect class="cls-10" x="2027.6" y="1033.55" width="13.52" height="13.52"/><rect class="cls-10" x="2027.6" y="1053.83" width="13.52" height="13.52"/><rect class="cls-10" x="2027.6" y="1074.11" width="13.52" height="13.52"/><rect class="cls-10" x="2165.56" y="891.58" width="13.52" height="13.52" transform="translate(4344.64 1796.68) rotate(-180)"/><rect class="cls-10" x="2145.89" y="891.58" width="13.52" height="13.52" transform="translate(4305.31 1796.68) rotate(-180)"/><rect class="cls-10" x="2165.56" y="911.86" width="13.52" height="13.52" transform="translate(4344.64 1837.25) rotate(-180)"/><rect class="cls-10" x="2145.89" y="911.86" width="13.52" height="13.52" transform="translate(4305.31 1837.25) rotate(-180)"/><rect class="cls-10" x="2165.56" y="932.14" width="13.52" height="13.52" transform="translate(4344.64 1877.81) rotate(-180)"/><rect class="cls-10" x="2145.89" y="932.14" width="13.52" height="13.52" transform="translate(4305.31 1877.81) rotate(-180)"/><rect class="cls-10" x="2165.56" y="952.43" width="13.52" height="13.52" transform="translate(4344.64 1918.37) rotate(-180)"/><rect class="cls-10" x="2145.89" y="952.43" width="13.52" height="13.52" transform="translate(4305.31 1918.37) rotate(-180)"/><rect class="cls-10" x="2165.56" y="972.71" width="13.52" height="13.52" transform="translate(4344.64 1958.93) rotate(-180)"/><rect class="cls-10" x="2165.56" y="992.99" width="13.52" height="13.52" transform="translate(4344.64 1999.5) rotate(-180)"/><rect class="cls-10" x="2165.56" y="1013.27" width="13.52" height="13.52" transform="translate(4344.64 2040.06) rotate(-180)"/><rect class="cls-10" x="2165.56" y="1033.55" width="13.52" height="13.52" transform="translate(4344.64 2080.62) rotate(-180)"/><rect class="cls-10" x="2165.56" y="1053.83" width="13.52" height="13.52" transform="translate(4344.64 2121.18) rotate(-180)"/><rect class="cls-10" x="2165.56" y="1074.11" width="13.52" height="13.52" transform="translate(4344.64 2161.75) rotate(-180)"/><rect class="cls-10" x="1358.1" y="551.1" width="106.26" height="17.82"/><rect class="cls-22" x="1357.85" y="575.76" width="48.55" height="7.82"/><rect class="cls-22" x="1357.85" y="588.66" width="48.55" height="7.82"/><rect class="cls-22" x="1357.85" y="601.57" width="48.55" height="7.82"/><rect class="cls-22" x="1357.85" y="614.48" width="48.55" height="7.82"/><rect class="cls-22" x="1325.27" y="639.06" width="100.14" height="7.82"/><rect class="cls-22" x="1325.27" y="653.2" width="100.14" height="7.82"/><rect class="cls-22" x="1325.27" y="667.33" width="100.14" height="7.82"/><rect class="cls-22" x="1325.27" y="681.47" width="100.14" height="7.82"/><rect class="cls-22" x="1325.27" y="695.6" width="100.14" height="7.82"/><rect class="cls-22" x="1325.27" y="709.74" width="100.14" height="7.82"/><rect class="cls-22" x="1325.27" y="723.87" width="100.14" height="7.82"/><rect class="cls-22" x="1325.27" y="738.01" width="100.14" height="7.82"/><rect class="cls-22" x="1325.27" y="752.14" width="100.14" height="7.82"/><rect class="cls-22" x="1325.27" y="766.28" width="100.14" height="7.82"/><rect class="cls-22" x="1325.27" y="780.41" width="100.14" height="7.82"/><rect class="cls-22" x="1325.27" y="794.55" width="100.14" height="7.82"/><rect class="cls-22" x="1325.27" y="808.69" width="100.14" height="7.82"/><rect class="cls-22" x="1325.27" y="822.82" width="100.14" height="7.82"/><rect class="cls-22" x="1325.27" y="836.96" width="100.14" height="7.82"/><rect class="cls-22" x="1325.27" y="851.09" width="100.14" height="7.82"/><rect class="cls-22" x="1325.27" y="865.23" width="100.14" height="7.82"/><rect class="cls-22" x="1325.27" y="879.36" width="100.14" height="7.82"/><rect class="cls-22" x="1325.27" y="893.5" width="100.14" height="7.82"/><rect class="cls-22" x="1325.27" y="907.63" width="100.14" height="7.82"/><rect class="cls-22" x="1325.27" y="921.77" width="100.14" height="7.82"/><rect class="cls-22" x="1325.27" y="935.91" width="100.14" height="7.82"/><rect class="cls-22" x="1325.27" y="950.04" width="100.14" height="7.82"/><rect class="cls-22" x="1325.27" y="964.18" width="100.14" height="7.82"/><rect class="cls-22" x="1325.27" y="978.31" width="100.14" height="7.82"/><rect class="cls-22" x="1325.27" y="992.45" width="100.14" height="7.82"/><rect class="cls-22" x="1325.27" y="1006.58" width="100.14" height="7.82"/><rect class="cls-22" x="1325.27" y="1020.72" width="100.14" height="7.82"/><rect class="cls-22" x="1325.27" y="1034.85" width="100.14" height="7.82"/><rect class="cls-22" x="1325.27" y="1048.99" width="100.14" height="7.82"/><rect class="cls-22" x="1325.27" y="1063.12" width="100.14" height="7.82"/><rect class="cls-22" x="1325.27" y="1077.26" width="100.14" height="7.82"/><rect class="cls-22" x="1325.27" y="1091.4" width="100.14" height="7.82"/><rect class="cls-22" x="1325.27" y="1105.53" width="100.14" height="7.82"/><rect class="cls-22" x="1325.27" y="1119.67" width="100.14" height="7.82"/><rect class="cls-22" x="1325.27" y="1133.8" width="100.14" height="7.82"/><rect class="cls-22" x="1325.27" y="1147.94" width="100.14" height="7.82"/><rect class="cls-22" x="1325.27" y="1162.07" width="100.14" height="7.82"/><rect class="cls-22" x="1325.27" y="1176.21" width="100.14" height="7.82"/><rect class="cls-22" x="1325.27" y="1190.34" width="100.14" height="7.82"/><rect class="cls-22" x="1325.27" y="1204.48" width="100.14" height="7.82"/><rect class="cls-22" x="1325.27" y="1218.61" width="100.14" height="7.82"/><rect class="cls-25" x="1925.72" y="934.4" width="97.51" height="342.59"/><rect class="cls-21" x="1925.72" y="943.41" width="96.69" height="6.56"/><rect class="cls-21" x="1925.72" y="957.34" width="96.69" height="6.56"/><rect class="cls-21" x="1925.72" y="971.27" width="96.69" height="6.56"/><rect class="cls-21" x="1925.72" y="985.2" width="96.69" height="6.56"/><rect class="cls-21" x="1925.72" y="999.13" width="96.69" height="6.56"/><rect class="cls-21" x="1925.72" y="1013.06" width="96.69" height="6.56"/><rect class="cls-21" x="1925.72" y="1026.99" width="96.69" height="6.56"/><rect class="cls-21" x="1925.72" y="1040.93" width="96.69" height="6.56"/><rect class="cls-21" x="1925.72" y="1054.86" width="96.69" height="6.56"/><rect class="cls-21" x="1925.72" y="1068.79" width="96.69" height="6.56"/><rect class="cls-21" x="1925.72" y="1082.72" width="96.69" height="6.56"/><rect class="cls-15" x="957.96" y="957.34" width="155.7" height="17.48"/><rect class="cls-9" x="965.89" y="986.02" width="12.29" height="61.46"/><rect class="cls-9" x="991.29" y="986.02" width="12.29" height="61.46"/><rect class="cls-9" x="1016.69" y="986.02" width="12.29" height="61.46"/><rect class="cls-9" x="1042.1" y="986.02" width="12.29" height="61.46"/><rect class="cls-9" x="1067.5" y="986.02" width="12.29" height="61.46"/><rect class="cls-9" x="1092.9" y="986.02" width="12.29" height="61.46"/><rect class="cls-9" x="965.89" y="1061" width="12.29" height="61.46"/><rect class="cls-9" x="991.29" y="1061" width="12.29" height="61.46"/><rect class="cls-9" x="1016.69" y="1061" width="12.29" height="61.46"/><rect class="cls-9" x="1042.1" y="1061" width="12.29" height="61.46"/><rect class="cls-9" x="1067.5" y="1061" width="12.29" height="61.46"/><rect class="cls-9" x="1092.9" y="1061" width="12.29" height="61.46"/><rect class="cls-9" x="965.89" y="1135.98" width="12.29" height="61.46"/><rect class="cls-9" x="991.29" y="1135.98" width="12.29" height="61.46"/><rect class="cls-9" x="1016.69" y="1135.98" width="12.29" height="61.46"/><rect class="cls-9" x="1042.1" y="1135.98" width="12.29" height="61.46"/><rect class="cls-9" x="1067.5" y="1135.98" width="12.29" height="61.46"/><rect class="cls-9" x="1092.9" y="1135.98" width="12.29" height="61.46"/><rect class="cls-9" x="965.89" y="1210.96" width="12.29" height="61.46"/><rect class="cls-9" x="991.29" y="1210.96" width="12.29" height="61.46"/><rect class="cls-9" x="1016.69" y="1210.96" width="12.29" height="61.46"/><rect class="cls-9" x="1042.1" y="1210.96" width="12.29" height="61.46"/><rect class="cls-9" x="1067.5" y="1210.96" width="12.29" height="61.46"/><rect class="cls-9" x="1092.9" y="1210.96" width="12.29" height="61.46"/><rect class="cls-9" x="965.89" y="1285.94" width="12.29" height="61.46"/><rect class="cls-9" x="991.29" y="1285.94" width="12.29" height="61.46"/><rect class="cls-9" x="1016.69" y="1285.94" width="12.29" height="61.46"/><rect class="cls-9" x="1042.1" y="1285.94" width="12.29" height="61.46"/><rect class="cls-9" x="1067.5" y="1285.94" width="12.29" height="61.46"/><rect class="cls-9" x="1092.9" y="1285.94" width="12.29" height="61.46"/><rect class="cls-7" x="1138.24" y="840.98" width="90.14" height="18.85"/><rect class="cls-7" x="1112.83" y="883.59" width="142.58" height="10.65"/><rect class="cls-7" x="1112.83" y="906.54" width="142.58" height="10.65"/><rect class="cls-7" x="1112.83" y="929.48" width="142.58" height="10.65"/><rect class="cls-7" x="1112.83" y="952.43" width="142.58" height="10.65"/><rect class="cls-7" x="1112.83" y="975.37" width="142.58" height="10.65"/><rect class="cls-7" x="1112.83" y="998.31" width="142.58" height="10.65"/><rect class="cls-7" x="1112.83" y="1021.26" width="142.58" height="10.65"/><rect class="cls-7" x="1112.83" y="1044.2" width="142.58" height="10.65"/><rect class="cls-7" x="1112.83" y="1067.15" width="142.58" height="10.65"/><rect class="cls-7" x="1112.83" y="1090.09" width="142.58" height="10.65"/><rect class="cls-7" x="1112.83" y="1113.04" width="142.58" height="10.65"/><rect class="cls-7" x="1112.83" y="1135.98" width="142.58" height="10.65"/><rect class="cls-7" x="1112.83" y="1158.93" width="142.58" height="10.65"/><rect class="cls-7" x="1112.83" y="1181.87" width="142.58" height="10.65"/><rect class="cls-7" x="1112.83" y="1204.82" width="142.58" height="10.65"/><rect class="cls-7" x="1112.83" y="1227.76" width="142.58" height="10.65"/><rect class="cls-7" x="1112.83" y="1250.7" width="142.58" height="10.65"/><rect class="cls-7" x="1112.83" y="1273.65" width="142.58" height="10.65"/><rect class="cls-26" x="1112.83" y="1296.59" width="142.58" height="10.65"/><rect class="cls-26" x="1112.83" y="1319.54" width="142.58" height="10.65"/><rect class="cls-26" x="1112.83" y="1342.48" width="142.58" height="10.65"/><circle class="cls-7" cx="1125.12" cy="804.92" r="5.74"/><circle class="cls-7" cx="1242.31" cy="804.92" r="5.74"/><circle class="cls-7" cx="1182.9" cy="760.26" r="5.74"/><polygon class="cls-27" points="720.65 999.25 632.42 848.52 632.42 848.07 632.29 848.3 632.16 848.07 632.16 848.52 543.93 999.25 543.93 999.63 720.65 1278.46 720.65 999.25"/><polygon class="cls-25" points="633.87 1378.95 633.87 1287.99 697.78 1287.99 697.78 1188.43 758.83 1188.43 758.83 1110.99 874.78 1110.99 874.78 1244.97 975.16 1244.97 975.16 1361.74 633.87 1378.95"/><rect class="cls-5" x="853.07" y="1120.41" width="11.47" height="11.47"/><rect class="cls-5" x="853.07" y="1139.26" width="11.47" height="11.47"/><rect class="cls-5" x="853.07" y="1158.11" width="11.47" height="11.47"/><rect class="cls-5" x="853.07" y="1176.95" width="11.47" height="11.47"/><rect class="cls-5" x="853.07" y="1195.8" width="11.47" height="11.47"/><rect class="cls-5" x="853.07" y="1214.65" width="11.47" height="11.47"/><rect class="cls-5" x="853.07" y="1233.5" width="11.47" height="11.47"/><rect class="cls-5" x="853.07" y="1252.34" width="11.47" height="11.47"/><rect class="cls-5" x="853.07" y="1271.19" width="11.47" height="11.47"/><rect class="cls-5" x="853.07" y="1290.04" width="11.47" height="11.47"/><rect class="cls-5" x="853.07" y="1308.89" width="11.47" height="11.47"/><rect class="cls-5" x="853.07" y="1327.73" width="11.47" height="11.47"/><rect class="cls-5" x="873.55" y="1252.34" width="11.47" height="11.47"/><rect class="cls-5" x="873.55" y="1271.19" width="11.47" height="11.47"/><rect class="cls-5" x="873.55" y="1290.04" width="11.47" height="11.47"/><rect class="cls-5" x="873.55" y="1308.89" width="11.47" height="11.47"/><rect class="cls-5" x="873.55" y="1327.73" width="11.47" height="11.47"/><rect class="cls-5" x="894.04" y="1252.34" width="11.47" height="11.47"/><rect class="cls-5" x="894.04" y="1271.19" width="11.47" height="11.47"/><rect class="cls-5" x="894.04" y="1290.04" width="11.47" height="11.47"/><rect class="cls-5" x="894.04" y="1308.89" width="11.47" height="11.47"/><rect class="cls-5" x="894.04" y="1327.73" width="11.47" height="11.47"/><rect class="cls-5" x="914.53" y="1252.34" width="11.47" height="11.47"/><rect class="cls-5" x="914.53" y="1271.19" width="11.47" height="11.47"/><rect class="cls-5" x="914.53" y="1290.04" width="11.47" height="11.47"/><rect class="cls-5" x="914.53" y="1308.89" width="11.47" height="11.47"/><rect class="cls-5" x="914.53" y="1327.73" width="11.47" height="11.47"/><rect class="cls-5" x="935.01" y="1252.34" width="11.47" height="11.47"/><rect class="cls-5" x="935.01" y="1271.19" width="11.47" height="11.47"/><rect class="cls-5" x="935.01" y="1290.04" width="11.47" height="11.47"/><rect class="cls-5" x="935.01" y="1308.89" width="11.47" height="11.47"/><rect class="cls-5" x="935.01" y="1327.73" width="11.47" height="11.47"/><rect class="cls-5" x="955.5" y="1252.34" width="11.47" height="11.47"/><rect class="cls-5" x="955.5" y="1271.19" width="11.47" height="11.47"/><rect class="cls-5" x="955.5" y="1290.04" width="11.47" height="11.47"/><rect class="cls-5" x="955.5" y="1308.89" width="11.47" height="11.47"/><rect class="cls-5" x="955.5" y="1327.73" width="11.47" height="11.47"/><rect class="cls-5" x="831.76" y="1120.41" width="11.47" height="11.47"/><rect class="cls-5" x="831.76" y="1139.26" width="11.47" height="11.47"/><rect class="cls-5" x="831.76" y="1158.11" width="11.47" height="11.47"/><rect class="cls-5" x="831.76" y="1176.95" width="11.47" height="11.47"/><rect class="cls-5" x="831.76" y="1195.8" width="11.47" height="11.47"/><rect class="cls-5" x="831.76" y="1214.65" width="11.47" height="11.47"/><rect class="cls-5" x="831.76" y="1233.5" width="11.47" height="11.47"/><rect class="cls-5" x="831.76" y="1252.34" width="11.47" height="11.47"/><rect class="cls-5" x="831.76" y="1271.19" width="11.47" height="11.47"/><rect class="cls-5" x="831.76" y="1290.04" width="11.47" height="11.47"/><rect class="cls-5" x="831.76" y="1308.89" width="11.47" height="11.47"/><rect class="cls-5" x="831.76" y="1327.73" width="11.47" height="11.47"/><rect class="cls-5" x="810.46" y="1120.41" width="11.47" height="11.47"/><rect class="cls-5" x="810.46" y="1139.26" width="11.47" height="11.47"/><rect class="cls-5" x="810.46" y="1158.11" width="11.47" height="11.47"/><rect class="cls-5" x="810.46" y="1176.95" width="11.47" height="11.47"/><rect class="cls-5" x="810.46" y="1195.8" width="11.47" height="11.47"/><rect class="cls-5" x="810.46" y="1214.65" width="11.47" height="11.47"/><rect class="cls-5" x="810.46" y="1233.5" width="11.47" height="11.47"/><rect class="cls-5" x="810.46" y="1252.34" width="11.47" height="11.47"/><rect class="cls-5" x="810.46" y="1271.19" width="11.47" height="11.47"/><rect class="cls-5" x="810.46" y="1290.04" width="11.47" height="11.47"/><rect class="cls-5" x="810.46" y="1308.89" width="11.47" height="11.47"/><rect class="cls-5" x="810.46" y="1327.73" width="11.47" height="11.47"/><rect class="cls-5" x="789.15" y="1120.41" width="11.47" height="11.47"/><rect class="cls-5" x="789.15" y="1139.26" width="11.47" height="11.47"/><rect class="cls-5" x="789.15" y="1158.11" width="11.47" height="11.47"/><rect class="cls-5" x="789.15" y="1176.95" width="11.47" height="11.47"/><rect class="cls-5" x="789.15" y="1195.8" width="11.47" height="11.47"/><rect class="cls-5" x="789.15" y="1214.65" width="11.47" height="11.47"/><rect class="cls-5" x="789.15" y="1233.5" width="11.47" height="11.47"/><rect class="cls-5" x="789.15" y="1252.34" width="11.47" height="11.47"/><rect class="cls-5" x="789.15" y="1271.19" width="11.47" height="11.47"/><rect class="cls-5" x="789.15" y="1290.04" width="11.47" height="11.47"/><rect class="cls-5" x="789.15" y="1308.89" width="11.47" height="11.47"/><rect class="cls-5" x="789.15" y="1327.73" width="11.47" height="11.47"/><rect class="cls-5" x="767.84" y="1120.41" width="11.47" height="11.47"/><rect class="cls-5" x="767.84" y="1139.26" width="11.47" height="11.47"/><rect class="cls-5" x="767.84" y="1158.11" width="11.47" height="11.47"/><rect class="cls-5" x="767.84" y="1176.95" width="11.47" height="11.47"/><rect class="cls-5" x="767.84" y="1195.8" width="11.47" height="11.47"/><rect class="cls-5" x="767.84" y="1214.65" width="11.47" height="11.47"/><rect class="cls-5" x="767.84" y="1233.5" width="11.47" height="11.47"/><rect class="cls-5" x="767.84" y="1252.34" width="11.47" height="11.47"/><rect class="cls-5" x="767.84" y="1271.19" width="11.47" height="11.47"/><rect class="cls-5" x="767.84" y="1290.04" width="11.47" height="11.47"/><rect class="cls-5" x="767.84" y="1308.89" width="11.47" height="11.47"/><rect class="cls-5" x="767.84" y="1327.73" width="11.47" height="11.47"/><rect class="cls-10" x="389.06" y="1306.29" width="86.44" height="67.54"/><rect class="cls-25" x="379.43" y="1326.99" width="127.83" height="99.89"/><rect class="cls-10" x="380.25" y="1335.11" width="127.01" height="5.74"/><rect class="cls-10" x="380.25" y="1349.04" width="127.01" height="5.74"/><rect class="cls-11" x="380.25" y="1362.97" width="127.01" height="5.74"/><rect class="cls-11" x="380.25" y="1376.9" width="127.01" height="5.74"/><rect class="cls-11" x="380.25" y="1390.83" width="127.01" height="5.74"/><rect class="cls-28" x="1437.12" y="627.92" width="59.09" height="694.73"/><rect class="cls-8" x="2282.91" y="941.98" width="32.57" height="338.64"/><rect class="cls-8" x="2364.88" y="941.98" width="32.57" height="338.64"/><polygon class="cls-10" points="2495.67 1157.52 2495.67 1121.44 2416.55 1121.44 2416.55 1157.52 2376.83 1157.52 2376.83 1302.13 2535.39 1302.13 2535.39 1157.52 2495.67 1157.52"/><rect class="cls-5" x="2424.15" y="1128.81" width="6.15" height="28.89"/><rect class="cls-5" x="2438.53" y="1128.81" width="6.15" height="28.89"/><rect class="cls-5" x="2452.9" y="1128.81" width="6.15" height="28.89"/><rect class="cls-5" x="2467.28" y="1128.81" width="6.15" height="28.89"/><rect class="cls-5" x="2481.65" y="1128.81" width="6.15" height="28.89"/><rect class="cls-5" x="2499.6" y="1168.14" width="9.83" height="9.83"/><rect class="cls-5" x="2516.81" y="1168.14" width="9.83" height="9.83"/><rect class="cls-5" x="2499.6" y="1184.12" width="9.83" height="9.83"/><rect class="cls-5" x="2516.81" y="1184.12" width="9.83" height="9.83"/><rect class="cls-5" x="2499.6" y="1200.1" width="9.83" height="9.83"/><rect class="cls-5" x="2516.81" y="1200.1" width="9.83" height="9.83"/><rect class="cls-5" x="2499.6" y="1216.08" width="9.83" height="9.83"/><rect class="cls-5" x="2516.81" y="1216.08" width="9.83" height="9.83"/><rect class="cls-5" x="2499.6" y="1232.06" width="9.83" height="9.83"/><rect class="cls-5" x="2516.81" y="1232.06" width="9.83" height="9.83"/><rect class="cls-5" x="2499.6" y="1248.04" width="9.83" height="9.83"/><rect class="cls-5" x="2516.81" y="1248.04" width="9.83" height="9.83"/><rect class="cls-5" x="2499.6" y="1264.02" width="9.83" height="9.83"/><rect class="cls-5" x="2516.81" y="1264.02" width="9.83" height="9.83"/><rect class="cls-5" x="2386.32" y="1168.14" width="9.83" height="9.83"/><rect class="cls-5" x="2403.53" y="1168.14" width="9.83" height="9.83"/><rect class="cls-5" x="2386.32" y="1184.12" width="9.83" height="9.83"/><rect class="cls-5" x="2403.53" y="1184.12" width="9.83" height="9.83"/><rect class="cls-5" x="2386.32" y="1200.1" width="9.83" height="9.83"/><rect class="cls-5" x="2403.53" y="1200.1" width="9.83" height="9.83"/><rect class="cls-5" x="2386.32" y="1216.08" width="9.83" height="9.83"/><rect class="cls-5" x="2403.53" y="1216.08" width="9.83" height="9.83"/><rect class="cls-5" x="2386.32" y="1232.06" width="9.83" height="9.83"/><rect class="cls-5" x="2403.53" y="1232.06" width="9.83" height="9.83"/><rect class="cls-5" x="2386.32" y="1248.04" width="9.83" height="9.83"/><rect class="cls-5" x="2403.53" y="1248.04" width="9.83" height="9.83"/><rect class="cls-5" x="2386.32" y="1264.02" width="9.83" height="9.83"/><rect class="cls-5" x="2403.53" y="1264.02" width="9.83" height="9.83"/><rect class="cls-5" x="2422.47" y="1178.59" width="65.76" height="146.27"/><rect class="cls-9" x="2044.34" y="961.03" width="118" height="311.29"/><rect class="cls-14" x="2000.7" y="1097.47" width="148.73" height="172.08"/><rect class="cls-29" x="2121.16" y="1131.88" width="27.66" height="6.76"/><rect class="cls-29" x="2107.24" y="1148.52" width="41.58" height="6.72"/><rect class="cls-29" x="2107.24" y="1165.11" width="41.58" height="6.72"/><rect class="cls-29" x="2107.24" y="1181.7" width="41.58" height="6.72"/><rect class="cls-29" x="2107.24" y="1198.3" width="41.58" height="6.72"/><rect class="cls-29" x="2107.24" y="1214.89" width="41.58" height="6.72"/><rect class="cls-29" x="2107.24" y="1231.49" width="41.58" height="6.72"/><rect class="cls-29" x="2107.24" y="1248.08" width="41.58" height="6.72"/><rect class="cls-29" x="2000.37" y="1131.88" width="27.66" height="6.76" transform="translate(4028.41 2270.53) rotate(-180)"/><rect class="cls-29" x="2000.37" y="1148.52" width="41.58" height="6.72" transform="translate(4042.33 2303.76) rotate(-180)"/><rect class="cls-29" x="2000.37" y="1165.11" width="41.58" height="6.72" transform="translate(4042.33 2336.94) rotate(-180)"/><rect class="cls-29" x="2000.37" y="1181.7" width="41.58" height="6.72" transform="translate(4042.33 2370.13) rotate(-180)"/><rect class="cls-5" x="2929.96" y="1041.18" width="111.85" height="261.56"/><rect class="cls-5" x="3351.5" y="1147.91" width="170" height="148.69"/><rect class="cls-1" x="3378.45" y="1168.74" width="22.15" height="35.93"/><rect class="cls-1" x="3422.85" y="1168.74" width="22.15" height="35.93"/><rect class="cls-1" x="3467.24" y="1168.74" width="22.15" height="35.93"/><rect class="cls-1" x="3378.45" y="1228.97" width="22.15" height="35.93"/><rect class="cls-1" x="3422.85" y="1228.97" width="22.15" height="35.93"/><rect class="cls-1" x="3467.24" y="1228.97" width="22.15" height="35.93"/><rect class="cls-5" x="3053.61" y="1095.8" width="243" height="200.79"/><rect class="cls-29" x="2000.37" y="1198.3" width="41.58" height="6.72" transform="translate(4042.33 2403.32) rotate(-180)"/><rect class="cls-11" x="2000.37" y="1214.89" width="41.58" height="6.72" transform="translate(4042.33 2436.51) rotate(-180)"/><rect class="cls-29" x="2000.37" y="1231.49" width="41.58" height="6.72" transform="translate(4042.33 2469.69) rotate(-180)"/><rect class="cls-29" x="2000.37" y="1248.08" width="41.58" height="6.72" transform="translate(4042.33 2502.88) rotate(-180)"/><rect class="cls-9" x="2051.28" y="1141.71" width="47.22" height="127.85"/><path class="cls-23" d="M2009.8,1108.62l-.15-.09A.51.51,0,0,0,2009.8,1108.62Z"/><path class="cls-23" d="M2139.79,1108.62a.51.51,0,0,0,.15-.09Z"/><path class="cls-9" d="M2009.8,1108.62l40.9,27h48.18l40.9-27C2136.79,1109.92,2012.81,1109.92,2009.8,1108.62Z"/><path class="cls-8" d="M3429.17,1075c-85.38-11.48-198.07-11.44-281.82.14v43.21h281.82Z"/><path class="cls-30" d="M3521.81,1118.36l-.61-21.51c-94.65-40.56-372.44-40.56-462.17,0l1.23,21.51H3517.5"/><circle class="cls-10" cx="3535.94" cy="1039.29" r="17.75"/><rect class="cls-8" x="3517.46" y="1068.45" width="36.07" height="224.51"/><rect class="cls-10" x="3507.67" y="1054.45" width="55.72" height="15.34"/><line class="cls-30" x1="3108.8" y1="1082.1" x2="3108.8" y2="1117.13"/><line class="cls-30" x1="3147.35" y1="1075.16" x2="3147.35" y2="1118.36"/><line class="cls-30" x1="3468.88" y1="1082.1" x2="3468.88" y2="1117.13"/><line class="cls-30" x1="3430.33" y1="1075.16" x2="3430.33" y2="1118.36"/><polygon class="cls-10" points="3598.63 1291.68 2847.6 1291.68 3593.71 1445.32 3598.63 1291.68"/><path class="cls-10" d="M3183,1062.08a7.16,7.16,0,0,0-14.09,0Z"/><line class="cls-31" x1="3175.79" y1="1058.75" x2="3175.79" y2="1071.04"/><path class="cls-10" d="M3411.33,1062.08a7.16,7.16,0,0,0-14.09,0Z"/><line class="cls-31" x1="3404.11" y1="1058.75" x2="3404.11" y2="1071.04"/><path class="cls-10" d="M3354.25,1062.08a7.16,7.16,0,0,0-14.09,0Z"/><line class="cls-31" x1="3347.03" y1="1058.75" x2="3347.03" y2="1068.39"/><path class="cls-10" d="M3297.17,1062.08a7.16,7.16,0,0,0-14.09,0Z"/><polyline class="cls-31" points="3289.95 1058.75 3289.95 1067.5 3289.95 1117.13"/><path class="cls-10" d="M3240.09,1062.08a7.16,7.16,0,0,0-14.09,0Z"/><line class="cls-31" x1="3232.87" y1="1058.75" x2="3232.87" y2="1068.39"/><text class="cls-32" transform="translate(3159.61 1102.14)">FO<tspan class="cls-33" x="24.48" y="0">R</tspan><tspan class="cls-34" x="36.26" y="0">T WO</tspan><tspan class="cls-33" x="84.88" y="0">R</tspan><tspan class="cls-35" x="96.66" y="0">TH </tspan><tspan class="cls-36" x="126.58" y="0"> </tspan><tspan class="cls-37" x="132.02" y="0"> </tspan><tspan class="cls-36" x="140.52" y="0">STOCK </tspan><tspan class="cls-38" x="205.12" y="0">Y</tspan><tspan class="cls-39" x="215.35" y="0">ARDS</tspan></text><circle class="cls-40" cx="3024.6" cy="1208.09" r="35.65"/><circle class="cls-40" cx="2972.98" cy="1224.07" r="40.56"/><circle class="cls-40" cx="2917.51" cy="1219.69" r="28.61"/><circle class="cls-40" cx="2892.6" cy="1268.96" r="43.36"/><circle class="cls-40" cx="2945.87" cy="1279.62" r="43.36"/><circle class="cls-40" cx="2823.77" cy="1296.82" r="43.36"/><circle class="cls-10" cx="3044.27" cy="1039.29" r="17.75"/><rect class="cls-8" x="3025.8" y="1068.45" width="36.07" height="224.51"/><rect class="cls-10" x="3016" y="1054.45" width="55.72" height="15.34"/><circle class="cls-40" cx="3026.53" cy="1274.66" r="43.36"/><circle class="cls-40" cx="2973.26" cy="1291.05" r="43.36"/><line class="cls-41" x1="3301.17" y1="1182.28" x2="3062.71" y2="1182.28"/><line class="cls-41" x1="3301.17" y1="1217.93" x2="3062.71" y2="1217.93"/><line class="cls-41" x1="3079.52" y1="1216.7" x2="3079.52" y2="1183.51"/><line class="cls-41" x1="3104.11" y1="1216.7" x2="3104.11" y2="1183.51"/><line class="cls-41" x1="3128.69" y1="1216.7" x2="3128.69" y2="1183.51"/><line class="cls-41" x1="3153.27" y1="1216.7" x2="3153.27" y2="1183.51"/><line class="cls-41" x1="3177.86" y1="1216.7" x2="3177.86" y2="1183.51"/><line class="cls-41" x1="3202.44" y1="1216.7" x2="3202.44" y2="1183.51"/><line class="cls-41" x1="3227.03" y1="1216.7" x2="3227.03" y2="1183.51"/><line class="cls-41" x1="3251.61" y1="1216.7" x2="3251.61" y2="1183.51"/><line class="cls-41" x1="3276.19" y1="1216.7" x2="3276.19" y2="1183.51"/><rect class="cls-1" x="3103.89" y="1217.93" width="7.38" height="73.75"/><rect class="cls-1" x="3173.33" y="1217.93" width="7.38" height="73.75"/><rect class="cls-1" x="3242.78" y="1217.93" width="7.38" height="73.75"/><rect class="cls-1" x="3082.38" y="1130.04" width="28.89" height="37.49"/><rect class="cls-1" x="3135.35" y="1130.04" width="28.89" height="37.49"/><rect class="cls-1" x="3188.33" y="1130.04" width="28.89" height="37.49"/><rect class="cls-1" x="3241.3" y="1130.04" width="28.89" height="37.49"/><path class="cls-8" d="M3313.17,1267.37c-8.88,2.79-17-9.7-26-7.46-2.39.59-4.42,2.17-6.78,2.86-7.61,2.24-15-5.2-22.91-4.8a11.11,11.11,0,0,0-5.29,1.71l6.8,51.62h12.44l-4.65-36.84s22.54,28.27,48.76.41l-4.09,36.43h10.24l11.15-62.7a10.36,10.36,0,0,0-5.17,1.79C3321.42,1254.75,3320.41,1265.1,3313.17,1267.37Z"/><path class="cls-10" d="M3291.84,1203.2a41.76,41.76,0,0,0-41.63,41.63l2,14.85a11.11,11.11,0,0,1,5.29-1.71c7.92-.4,15.3,7,22.91,4.8,2.36-.69,4.39-2.27,6.78-2.86,9-2.23,17.15,10.25,26,7.46,7.24-2.27,8.25-12.62,14.46-17a10.36,10.36,0,0,1,5.17-1.79l.67-3.77A41.76,41.76,0,0,0,3291.84,1203.2Z"/><path class="cls-40" d="M3313.65,1232.4l-5.69-24.79.44-1.25c-2.93,0-8.43,1-9.63,7.89l4.31,23.64a7.53,7.53,0,0,1,1,3.79v3.5l0,.16a8.07,8.07,0,0,1,4-5l2.3-1.2A6.2,6.2,0,0,0,3313.65,1232.4Z"/><path class="cls-8" d="M3312.94,1193.52h31.91a12.27,12.27,0,0,0,10.52-6l8.2-13.67a.73.73,0,0,1,1.33.56l-5.91,22.78a12.36,12.36,0,0,1-12,9.25h-42.29Z"/><path class="cls-8" d="M3276.69,1193.52h-31.91a12.27,12.27,0,0,1-10.52-6l-8.2-13.67a.73.73,0,0,0-1.33.56l5.91,22.78a12.36,12.36,0,0,0,12,9.25h42.29Z"/><path class="cls-10" d="M3308.4,1206.35l4.54-12.83-13.24-2.12a50.24,50.24,0,0,0-15.85,0l-13.24,2.12,4.54,12.84c3,.13,8.08,1.34,9.22,7.88l-4.52,24.79a7.57,7.57,0,0,1,7.09-4.94h9.58a7.56,7.56,0,0,1,6.55,3.79l-4.31-23.64C3300,1207.39,3305.48,1206.39,3308.4,1206.35Z"/><path class="cls-40" d="M3275.15,1206.36l.44,1.25-5.69,24.79a6.2,6.2,0,0,0,3.2,6.75l2.3,1.2a8.05,8.05,0,0,1,3.71,4.07l.26-2.76a7.53,7.53,0,0,1,.48-2.63l4.52-24.79C3283.23,1207.7,3278.15,1206.49,3275.15,1206.36Z"/><path class="cls-10" d="M3275.67,1206.71s-4.67,5.92-10.43,5.92-10.43-5.92-10.43-5.92,4.67-5.92,10.43-5.92S3275.67,1206.71,3275.67,1206.71Z"/><path class="cls-8" d="M3296.38,1234.09h-9.5a7.54,7.54,0,0,0-7.51,7.57v3.48a8.12,8.12,0,0,1,.36,2.36,4.11,4.11,0,0,0,4.09,4.12h15.69a4.11,4.11,0,0,0,4.09-4.12,8.14,8.14,0,0,1,.29-2.15v-3.7A7.54,7.54,0,0,0,3296.38,1234.09Z"/><path class="cls-10" d="M3328.64,1206.71s-4.67,5.92-10.43,5.92-10.43-5.92-10.43-5.92,4.67-5.92,10.43-5.92S3328.64,1206.71,3328.64,1206.71Z"/><circle class="cls-42" cx="3279.16" cy="1214.65" r="2.75"/><circle class="cls-42" cx="3304.1" cy="1214.65" r="2.75"/><path class="cls-10" d="M3285.26,1239.94l4.13,2.79a1,1,0,0,1-.07,1.69l-4.25,2.37a1,1,0,0,1-1.47-.89l.12-5.16A1,1,0,0,1,3285.26,1239.94Z"/><path class="cls-10" d="M3298.09,1239.94l-4.13,2.79a1,1,0,0,0,.07,1.69l4.25,2.37a1,1,0,0,0,1.47-.89l-.12-5.16A1,1,0,0,0,3298.09,1239.94Z"/><path class="cls-43" d="M3303.08,1237.88l.69,3.79.33,3.5v-3.5A7.53,7.53,0,0,0,3303.08,1237.88Z"/><path class="cls-43" d="M3279.85,1239a7.53,7.53,0,0,0-.48,2.63Z"/><path class="cls-11" d="M3304.1,1245.36l0,0,0-.16Z"/><path class="cls-11" d="M3279.38,1245.15v-3.48l-.26,2.76Q3279.26,1244.78,3279.38,1245.15Z"/><path class="cls-44" d="M4000.48,1417.49c-462.46-83.6-1187-157.44-2001.38-157.44-812.8,0-1536,73.62-1998.62,156.94v216.4H4000Z"/><rect class="cls-25" x="2.8" y="1538.56" width="3997.2" height="84.82"/><path class="cls-5" d="M4000,1648.06c-429.42-.32-1299.25-.5-2000.82-.5-699.24,0-1567.79.18-1998,.5l0-36.88c430.2-.32,1298.76-.5,1998-.5,701.59,0,1571.4.18,2000.82.5Z"/><line class="cls-45" x1="514.73" y1="1619.7" x2="599.55" y2="1534.88"/><line class="cls-45" x1="1071.6" y1="1619.7" x2="1156.42" y2="1534.88"/><line class="cls-45" x1="2185.34" y1="1619.7" x2="2270.16" y2="1534.88"/><line class="cls-45" x1="2742.21" y1="1619.7" x2="2827.03" y2="1534.88"/><line class="cls-45" x1="3299.08" y1="1619.7" x2="3383.9" y2="1534.88"/><polygon class="cls-25" points="2058.48 1358.05 1726.6 1358.05 1684.81 1358.05 1352.93 1358.05 1175.93 1547.35 1684.81 1547.35 1726.6 1547.35 2235.48 1547.35 2058.48 1358.05"/><path class="cls-46" d="M2310.71,1479.13a98.57,98.57,0,0,1-1.68-10.71c-.41-3.58-.67-7.16-.85-10.75s-.25-7.18-.18-10.78a97.48,97.48,0,0,1,.66-10.82,97.47,97.47,0,0,1,1.68,10.71c.41,3.58.67,7.16.84,10.75s.25,7.18.18,10.78A98.59,98.59,0,0,1,2310.71,1479.13Z"/><polygon class="cls-47" points="1248.37 1019.7 2172.05 1019.7 2162.83 1475.08 2065.11 1371.84 1352.93 1368.05 1244.68 1480.61 1248.37 1019.7"/><path class="cls-46" d="M2322.26,1473.58a78.28,78.28,0,0,1-.39-9.65c0-3.2.19-6.39.44-9.58s.6-6.36,1.1-9.53a77.4,77.4,0,0,1,1.94-9.46,77.42,77.42,0,0,1,.4,9.65c0,3.2-.19,6.39-.44,9.58s-.61,6.36-1.1,9.52A78.28,78.28,0,0,1,2322.26,1473.58Z"/><line class="cls-45" x1="1628.47" y1="1619.7" x2="1713.29" y2="1534.88"/><line class="cls-45" x1="1186.99" y1="1535.05" x2="2223.18" y2="1535.05"/><rect class="cls-10" x="1342.56" y="997.55" width="21.17" height="336.22"/><rect class="cls-10" x="1556.52" y="997.55" width="21.17" height="336.22"/><rect class="cls-10" x="2051.09" y="997.55" width="21.17" height="336.22" transform="translate(4123.35 2331.31) rotate(-180)"/><rect class="cls-10" x="1843.13" y="997.55" width="21.17" height="336.22" transform="translate(3707.43 2331.31) rotate(-180)"/><polygon class="cls-10" points="2174.09 1320.07 2070.3 1214 2061.45 1227.48 2061.45 1213.01 1351.81 1213.01 1351.81 1222.84 1344.74 1216 1243.95 1320.07 1258.08 1333.75 1355.97 1232.68 2061.45 1232.68 2061.45 1232.04 2159.96 1333.75 2174.09 1320.07"/><path class="cls-10" d="M1382.74,1457h-16v-48.43a27.89,27.89,0,0,1,17.92-25.95l45.63-17.29,5.66,14.94-45.63,17.29a11.83,11.83,0,0,0-7.6,11Z"/><path class="cls-10" d="M2052.89,1457h-16v-48.43a11.83,11.83,0,0,0-7.6-11l-45.63-17.29,5.66-14.94,45.63,17.29a27.89,27.89,0,0,1,17.92,25.95Z"/><path class="cls-8" d="M1732,1328v-.27l-22.84.14-22.84-.14v.27l-363.22,2.18v17.93a31.24,31.24,0,0,0,31.24,31.24H2064a31.24,31.24,0,0,0,31.24-31.24v-17.93Z"/><rect class="cls-10" x="1236.85" y="1022.6" width="21.17" height="470.13"/><rect class="cls-10" x="2158.8" y="1022.6" width="21.17" height="470.13" transform="translate(4338.77 2515.34) rotate(-180)"/><path class="cls-48" d="M2112.85,972.09H1281.34c-118.23,0-132.75,59-132.75,59h1097S2231.08,972.09,2112.85,972.09Z"/><path class="cls-46" d="M2638.15,1402.74a37.5,37.5,0,0,1,3.4,5.57,63.17,63.17,0,0,1,2.61,5.88,62.09,62.09,0,0,1,2,6.11,37,37,0,0,1,1.2,6.42,37,37,0,0,1-3.41-5.57,62.12,62.12,0,0,1-2.6-5.88,63.24,63.24,0,0,1-2-6.11A37.5,37.5,0,0,1,2638.15,1402.74Z"/><path class="cls-46" d="M2651.14,1424.77a83.05,83.05,0,0,1-2.08-9.72c-.54-3.26-.94-6.53-1.25-9.8s-.52-6.56-.59-9.86a82.12,82.12,0,0,1,.24-9.94,82.11,82.11,0,0,1,2.09,9.72c.54,3.26.94,6.53,1.25,9.8s.52,6.56.59,9.86A83,83,0,0,1,2651.14,1424.77Z"/><path class="cls-46" d="M2656.67,1398.34a45.06,45.06,0,0,1,1.18,7.07c.22,2.36.32,4.71.32,7.07s-.1,4.71-.32,7.07a44.47,44.47,0,0,1-1.18,7.07,44.47,44.47,0,0,1-1.18-7.07q-.33-3.53-.32-7.07c0-2.36.1-4.71.32-7.07A45.06,45.06,0,0,1,2656.67,1398.34Z"/><path class="cls-46" d="M2670.19,1390.35a66.38,66.38,0,0,1,.4,8.71c0,2.89-.19,5.76-.45,8.63s-.61,5.73-1.09,8.58a65.5,65.5,0,0,1-1.94,8.5,65.5,65.5,0,0,1-.41-8.71q.06-4.33.45-8.63c.26-2.87.62-5.73,1.09-8.58A66.38,66.38,0,0,1,2670.19,1390.35Z"/><path class="cls-46" d="M2673.88,1424.15a44.83,44.83,0,0,1,.87-7.09c.45-2.32,1-4.6,1.69-6.85s1.43-4.48,2.3-6.67a44.25,44.25,0,0,1,3.13-6.43,44.24,44.24,0,0,1-.87,7.09q-.68,3.47-1.69,6.85c-.67,2.25-1.43,4.48-2.31,6.67A44.82,44.82,0,0,1,2673.88,1424.15Z"/><path class="cls-46" d="M2683.71,1425.38a40.34,40.34,0,0,1,2.2-6.41q1.32-3.08,2.94-6t3.51-5.68a39.8,39.8,0,0,1,4.26-5.27,39.82,39.82,0,0,1-2.19,6.41q-1.32,3.08-2.95,6t-3.51,5.68A40.36,40.36,0,0,1,2683.71,1425.38Z"/><path class="cls-46" d="M2439.27,1283.3a39.84,39.84,0,0,1,3.89,5.49c1.14,1.9,2.18,3.86,3.12,5.85a66.16,66.16,0,0,1,2.54,6.13,39.32,39.32,0,0,1,1.76,6.5,39.32,39.32,0,0,1-3.9-5.49,66.16,66.16,0,0,1-3.12-5.86c-.94-2-1.79-4-2.54-6.13A39.83,39.83,0,0,1,2439.27,1283.3Z"/><path class="cls-46" d="M2455.23,1305.33a55.48,55.48,0,0,1-2.36-7.61c-.62-2.56-1.12-5.14-1.52-7.74s-.7-5.21-.88-7.83a54.77,54.77,0,0,1,0-8,54.75,54.75,0,0,1,2.36,7.61q.92,3.84,1.51,7.74c.4,2.6.69,5.21.87,7.83A55.5,55.5,0,0,1,2455.23,1305.33Z"/><path class="cls-46" d="M2462,1278.91a45.05,45.05,0,0,1,1.18,7.07c.22,2.36.32,4.71.32,7.07s-.1,4.71-.32,7.07a44.46,44.46,0,0,1-1.18,7.07,44.46,44.46,0,0,1-1.18-7.07q-.33-3.53-.32-7.07c0-2.36.1-4.71.32-7.07A45.05,45.05,0,0,1,2462,1278.91Z"/><path class="cls-46" d="M2478.61,1270.92a66.64,66.64,0,0,1,.23,8.73c-.1,2.89-.31,5.77-.62,8.64s-.73,5.73-1.26,8.57a65.76,65.76,0,0,1-2.12,8.48,65.75,65.75,0,0,1-.23-8.73q.14-4.34.62-8.64c.32-2.87.73-5.72,1.27-8.57A66.65,66.65,0,0,1,2478.61,1270.92Z"/><path class="cls-46" d="M2483.14,1304.72a46.58,46.58,0,0,1,1.35-7.16c.61-2.33,1.33-4.62,2.15-6.87s1.73-4.47,2.75-6.65a46,46,0,0,1,3.56-6.36,46,46,0,0,1-1.34,7.16q-.92,3.49-2.15,6.87c-.82,2.25-1.73,4.47-2.76,6.65A46.57,46.57,0,0,1,2483.14,1304.72Z"/><path class="cls-46" d="M2495.21,1305.95a44.9,44.9,0,0,1,3-6.5q1.71-3.1,3.69-6t4.23-5.66a44.32,44.32,0,0,1,4.94-5.18,44.33,44.33,0,0,1-3,6.5q-1.71,3.1-3.7,6t-4.23,5.66A44.92,44.92,0,0,1,2495.21,1305.95Z"/><path class="cls-46" d="M2522.63,1333.19a83.4,83.4,0,0,1-2.29-9.7c-.61-3.25-1.08-6.52-1.46-9.8s-.66-6.57-.8-9.87a82.46,82.46,0,0,1,0-10,82.47,82.47,0,0,1,2.29,9.7c.61,3.25,1.08,6.52,1.46,9.8s.66,6.57.8,9.87A83.4,83.4,0,0,1,2522.63,1333.19Z"/><path class="cls-46" d="M2529.42,1306.77a45.06,45.06,0,0,1,1.18,7.07c.22,2.36.32,4.71.32,7.07s-.1,4.71-.32,7.07a44.47,44.47,0,0,1-1.18,7.07,44.47,44.47,0,0,1-1.18-7.07q-.33-3.53-.32-7.07c0-2.36.1-4.71.32-7.07A45.06,45.06,0,0,1,2529.42,1306.77Z"/><path class="cls-46" d="M2546,1298.78a66.64,66.64,0,0,1,.23,8.73c-.1,2.89-.31,5.77-.62,8.64s-.73,5.73-1.26,8.57a65.76,65.76,0,0,1-2.12,8.48,65.75,65.75,0,0,1-.23-8.73q.14-4.34.62-8.64c.32-2.87.73-5.72,1.27-8.57A66.63,66.63,0,0,1,2546,1298.78Z"/><path class="cls-46" d="M2550.54,1332.58a46.58,46.58,0,0,1,1.35-7.16c.61-2.33,1.33-4.62,2.15-6.87s1.73-4.47,2.75-6.65a46,46,0,0,1,3.56-6.36,46,46,0,0,1-1.34,7.16q-.92,3.49-2.15,6.87c-.82,2.25-1.73,4.47-2.76,6.65A46.59,46.59,0,0,1,2550.54,1332.58Z"/><path class="cls-46" d="M2562.62,1333.81a44.91,44.91,0,0,1,3-6.5q1.71-3.1,3.69-6t4.23-5.66a44.33,44.33,0,0,1,4.94-5.18,44.31,44.31,0,0,1-3,6.5q-1.71,3.1-3.7,6t-4.23,5.66A44.89,44.89,0,0,1,2562.62,1333.81Z"/><path class="cls-46" d="M2514.33,1334a30.22,30.22,0,0,1-3-5,50.7,50.7,0,0,1-2.19-5.32,49.83,49.83,0,0,1-1.58-5.53,29.85,29.85,0,0,1-.77-5.82,29.86,29.86,0,0,1,3,5,49.83,49.83,0,0,1,2.19,5.32,50.7,50.7,0,0,1,1.58,5.54A30.22,30.22,0,0,1,2514.33,1334Z"/><path class="cls-46" d="M2505.27,1333.6a35,35,0,0,1-3.24-5.43,59.33,59.33,0,0,1-2.44-5.73,58.28,58.28,0,0,1-1.84-5.95,34.62,34.62,0,0,1-1-6.24,34.62,34.62,0,0,1,3.25,5.43,58.26,58.26,0,0,1,2.44,5.73,59.33,59.33,0,0,1,1.83,5.95A35,35,0,0,1,2505.27,1333.6Z"/><path class="cls-46" d="M2493.7,1333.6a47.11,47.11,0,0,1-4.32-5.92q-1.93-3.08-3.56-6.31t-3-6.6a46.5,46.5,0,0,1-2.22-7,46.5,46.5,0,0,1,4.32,5.92q1.93,3.08,3.56,6.31t3,6.6A47.12,47.12,0,0,1,2493.7,1333.6Z"/><path class="cls-46" d="M2486.66,1333.19a34.9,34.9,0,0,1-4.6-4.33,59.07,59.07,0,0,1-3.91-4.83,58,58,0,0,1-3.39-5.21,34.48,34.48,0,0,1-2.69-5.71,34.47,34.47,0,0,1,4.6,4.33,58,58,0,0,1,3.91,4.83,59,59,0,0,1,3.38,5.21A34.91,34.91,0,0,1,2486.66,1333.19Z"/><path class="cls-46" d="M2483.14,1337.29a59.19,59.19,0,0,1-7.54-3.3q-3.63-1.87-7.09-4t-6.75-4.57a58.45,58.45,0,0,1-6.29-5.3,58.42,58.42,0,0,1,7.54,3.3q3.63,1.87,7.09,4t6.75,4.58A59.22,59.22,0,0,1,2483.14,1337.29Z"/><path class="cls-46" d="M3176.74,1427.11a39.84,39.84,0,0,1,3.89,5.49c1.14,1.9,2.18,3.86,3.12,5.85a66.13,66.13,0,0,1,2.54,6.13,39.31,39.31,0,0,1,1.76,6.5,39.32,39.32,0,0,1-3.9-5.49,66.13,66.13,0,0,1-3.12-5.86c-.94-2-1.79-4-2.54-6.13A39.82,39.82,0,0,1,3176.74,1427.11Z"/><path class="cls-46" d="M3199.48,1422.71a45.05,45.05,0,0,1,1.18,7.07c.22,2.36.32,4.71.32,7.07s-.1,4.71-.32,7.07a44.46,44.46,0,0,1-1.18,7.07,44.46,44.46,0,0,1-1.18-7.07q-.33-3.53-.32-7.07c0-2.36.1-4.71.32-7.07A45.05,45.05,0,0,1,3199.48,1422.71Z"/><path class="cls-46" d="M3214.23,1422.71a45,45,0,0,1,1.18,7.07c.22,2.36.32,4.71.32,7.07s-.1,4.71-.32,7.07a44.46,44.46,0,0,1-1.18,7.07,44.48,44.48,0,0,1-1.18-7.07q-.33-3.53-.32-7.07c0-2.36.1-4.71.32-7.07A45.05,45.05,0,0,1,3214.23,1422.71Z"/><path class="cls-46" d="M3230.08,1423a45,45,0,0,1-.32,7.16c-.28,2.35-.67,4.68-1.16,7s-1.08,4.59-1.79,6.85a44.47,44.47,0,0,1-2.63,6.67,44.45,44.45,0,0,1,.32-7.16q.41-3.53,1.16-7c.49-2.3,1.08-4.59,1.79-6.84A45.05,45.05,0,0,1,3230.08,1423Z"/><path class="cls-46" d="M3260.09,1477a83.39,83.39,0,0,1-2.29-9.7c-.61-3.25-1.08-6.52-1.46-9.8s-.66-6.57-.8-9.87a82.49,82.49,0,0,1,0-10,82.47,82.47,0,0,1,2.29,9.7c.61,3.25,1.08,6.52,1.46,9.8s.66,6.57.8,9.87A83.41,83.41,0,0,1,3260.09,1477Z"/><path class="cls-46" d="M3266.88,1450.57a45.05,45.05,0,0,1,1.18,7.07c.22,2.36.32,4.71.32,7.07s-.1,4.71-.32,7.07a44.47,44.47,0,0,1-1.18,7.07,44.46,44.46,0,0,1-1.18-7.07q-.33-3.53-.32-7.07c0-2.36.1-4.71.32-7.07A45,45,0,0,1,3266.88,1450.57Z"/><path class="cls-46" d="M3283.48,1442.58a66.61,66.61,0,0,1,.23,8.73c-.1,2.89-.31,5.77-.62,8.64s-.73,5.73-1.26,8.57a65.77,65.77,0,0,1-2.12,8.48,65.77,65.77,0,0,1-.23-8.73q.14-4.34.63-8.64c.32-2.87.73-5.72,1.27-8.57A66.64,66.64,0,0,1,3283.48,1442.58Z"/><path class="cls-46" d="M3288,1476.39a46.58,46.58,0,0,1,1.35-7.16c.61-2.33,1.33-4.62,2.15-6.87s1.73-4.47,2.75-6.65a46,46,0,0,1,3.56-6.36,46,46,0,0,1-1.34,7.16q-.92,3.49-2.15,6.87c-.82,2.25-1.73,4.47-2.76,6.65A46.59,46.59,0,0,1,3288,1476.39Z"/><path class="cls-46" d="M3300.08,1477.62a44.9,44.9,0,0,1,3-6.5q1.71-3.1,3.69-6t4.23-5.66a44.31,44.31,0,0,1,4.94-5.18,44.32,44.32,0,0,1-3,6.5q-1.71,3.1-3.7,6t-4.23,5.66A44.92,44.92,0,0,1,3300.08,1477.62Z"/><path class="cls-46" d="M3251.79,1477.82a30.21,30.21,0,0,1-3-5,50.71,50.71,0,0,1-2.19-5.32,49.85,49.85,0,0,1-1.58-5.53,29.86,29.86,0,0,1-.77-5.82,29.85,29.85,0,0,1,3,5,49.81,49.81,0,0,1,2.19,5.32A50.71,50.71,0,0,1,3251,1472,30.23,30.23,0,0,1,3251.79,1477.82Z"/><path class="cls-46" d="M3242.74,1477.41a35.06,35.06,0,0,1-3.24-5.43,59.33,59.33,0,0,1-2.44-5.73,58.28,58.28,0,0,1-1.84-5.95,34.62,34.62,0,0,1-1-6.24,34.62,34.62,0,0,1,3.25,5.43,58.27,58.27,0,0,1,2.44,5.73,59.33,59.33,0,0,1,1.83,5.95A35.06,35.06,0,0,1,3242.74,1477.41Z"/><path class="cls-46" d="M3231.17,1477.41a47.1,47.1,0,0,1-4.32-5.92q-1.93-3.08-3.56-6.31t-3-6.6a46.5,46.5,0,0,1-2.22-7,46.48,46.48,0,0,1,4.32,5.92q1.93,3.08,3.56,6.31t3,6.6A47.11,47.11,0,0,1,3231.17,1477.41Z"/><path class="cls-46" d="M3224.13,1477a34.91,34.91,0,0,1-4.6-4.33,59,59,0,0,1-3.91-4.83,58,58,0,0,1-3.39-5.21,34.47,34.47,0,0,1-2.69-5.71,34.48,34.48,0,0,1,4.6,4.33,58,58,0,0,1,3.91,4.83,59.07,59.07,0,0,1,3.38,5.21A34.91,34.91,0,0,1,3224.13,1477Z"/><path class="cls-46" d="M3220.61,1481.1a59.23,59.23,0,0,1-7.54-3.3q-3.63-1.87-7.09-4t-6.75-4.57a58.48,58.48,0,0,1-6.29-5.3,58.45,58.45,0,0,1,7.54,3.3q3.63,1.87,7.09,4t6.75,4.58A59.2,59.2,0,0,1,3220.61,1481.1Z"/><path class="cls-46" d="M2817.66,1329.32a87.12,87.12,0,0,1,4.93,8.92c1.5,3,2.87,6.12,4.16,9.24s2.48,6.28,3.54,9.49a86.17,86.17,0,0,1,2.76,9.81,86.12,86.12,0,0,1-4.93-8.92c-1.5-3-2.87-6.12-4.15-9.24s-2.48-6.28-3.54-9.49A87.1,87.1,0,0,1,2817.66,1329.32Z"/><path class="cls-46" d="M2839.35,1363.74a116.81,116.81,0,0,1-3.45-11.29c-.52-1.89-.94-3.81-1.4-5.71l-1.24-5.75c-.78-3.84-1.43-7.7-2-11.59a115.49,115.49,0,0,1-1.16-11.75,115.51,115.51,0,0,1,3.46,11.29c1,3.8,1.87,7.62,2.63,11.46l1.07,5.78c.31,1.94.66,3.86.91,5.81A116.87,116.87,0,0,1,2839.35,1363.74Z"/><path class="cls-46" d="M2848.58,1322.45a103.37,103.37,0,0,1,1.17,11c.24,3.68.33,7.36.33,11s-.09,7.36-.33,11a102.25,102.25,0,0,1-1.17,11,102.19,102.19,0,0,1-1.17-11c-.24-3.68-.33-7.36-.33-11s.09-7.36.33-11A103.4,103.4,0,0,1,2848.58,1322.45Z"/><path class="cls-46" d="M2858.84,1364.7c.12-4,.52-8,1-12,.23-2,.56-4,.84-5.93l1-5.9c.72-3.92,1.56-7.82,2.5-11.7a119.66,119.66,0,0,1,3.33-11.55,119.65,119.65,0,0,1-1,12c-.51,4-1.12,7.9-1.86,11.82l-1.17,5.87c-.44,1.95-.84,3.9-1.34,5.84C2861.22,1357,2860.18,1360.89,2858.84,1364.7Z"/><path class="cls-46" d="M2873.71,1363.74c.12-4.07.52-8.09,1-12.09.23-2,.56-4,.84-6l1-6c.72-4,1.56-7.9,2.5-11.82s2-7.82,3.33-11.67c-.11,4.07-.52,8.09-1,12.09s-1.12,8-1.86,11.94l-1.17,5.93c-.44,2-.84,3.94-1.34,5.9C2876.1,1356,2875.05,1359.89,2873.71,1363.74Z"/><path class="cls-46" d="M2891.16,1365.66c-.62-5-.95-10-1.17-15-.14-2.5-.17-5-.25-7.5l-.08-7.5.08-7.5c.08-2.5.11-5,.25-7.5.22-5,.55-10,1.17-15,.62,5,1,10,1.17,15,.14,2.5.17,5,.25,7.5l.08,7.5-.08,7.5c-.08,2.5-.11,5-.25,7.5C2892.1,1355.66,2891.78,1360.66,2891.16,1365.66Z"/><path class="cls-46" d="M2901.93,1366.62a110.17,110.17,0,0,1-1.29-11.39c-.16-1.9-.21-3.8-.31-5.7l-.15-5.7c-.05-3.8,0-7.6.2-11.41a108.9,108.9,0,0,1,1-11.42,108.86,108.86,0,0,1,1.3,11.39c.26,3.8.42,7.6.46,11.4l0,5.7c-.06,1.9-.07,3.8-.19,5.7A110.11,110.11,0,0,1,2901.93,1366.62Z"/><path class="cls-46" d="M2910.14,1362.3a113.06,113.06,0,0,1-.26-11.61c0-1.93.13-3.85.2-5.78l.37-5.77c.29-3.84.71-7.67,1.23-11.5a111.81,111.81,0,0,1,2.06-11.43,111.82,111.82,0,0,1,.27,11.61c-.08,3.86-.26,7.71-.57,11.55l-.53,5.76c-.23,1.91-.41,3.83-.7,5.74A113.06,113.06,0,0,1,2910.14,1362.3Z"/><path class="cls-46" d="M2914.75,1363.26c1-4.07,2.2-8,3.53-12,.64-2,1.38-3.9,2.08-5.85l2.23-5.79c1.53-3.84,3.18-7.64,4.92-11.4s3.58-7.48,5.7-11.09c-1,4.07-2.2,8-3.53,12s-2.76,7.81-4.31,11.65l-2.39,5.73c-.84,1.89-1.64,3.8-2.54,5.67C2918.71,1355.93,2916.87,1359.65,2914.75,1363.26Z"/><path class="cls-46" d="M2921.93,1360.86a115.41,115.41,0,0,1,5.3-10.47c.93-1.71,2-3.37,2.93-5.06l3.07-5q3.13-4.93,6.56-9.67a114.08,114.08,0,0,1,7.27-9.21,114.1,114.1,0,0,1-5.3,10.47c-1.91,3.4-3.9,6.74-6,10l-3.21,4.88c-1.12,1.6-2.19,3.22-3.35,4.79A115.38,115.38,0,0,1,2921.93,1360.86Z"/><path class="cls-46" d="M2927.58,1361.82a74.87,74.87,0,0,1,6.88-6.46c2.38-2,4.85-3.95,7.37-5.79s5.1-3.61,7.76-5.26a74,74,0,0,1,8.26-4.58,74,74,0,0,1-6.88,6.47c-2.38,2-4.85,3.95-7.37,5.79s-5.1,3.6-7.76,5.25A74.87,74.87,0,0,1,2927.58,1361.82Z"/><path class="cls-46" d="M2820.88,1364.22a81.53,81.53,0,0,1-5.16-8.39c-1.58-2.86-3-5.78-4.41-8.74s-2.65-6-3.81-9a80.63,80.63,0,0,1-3-9.37,80.62,80.62,0,0,1,5.17,8.39c1.58,2.86,3,5.78,4.4,8.74s2.65,6,3.8,9A81.56,81.56,0,0,1,2820.88,1364.22Z"/><path class="cls-46" d="M2813.7,1366.62a108.87,108.87,0,0,1-7-9c-1.12-1.53-2.15-3.11-3.23-4.67l-3.08-4.76c-2-3.2-3.92-6.46-5.75-9.78a107.64,107.64,0,0,1-5-10.23,107.62,107.62,0,0,1,7,9c2.19,3.09,4.3,6.22,6.31,9.43l2.94,4.85c.94,1.64,1.91,3.26,2.8,4.93A108.91,108.91,0,0,1,2813.7,1366.62Z"/><path class="cls-46" d="M2805,1366.62a54.53,54.53,0,0,1-6.88-3.87q-3.28-2.14-6.36-4.55t-6-5.05a53.84,53.84,0,0,1-5.43-5.73,53.82,53.82,0,0,1,6.88,3.87q3.28,2.14,6.35,4.55t6,5.06A54.56,54.56,0,0,1,2805,1366.62Z"/><path class="cls-46" d="M3080.38,1414.82a81.49,81.49,0,0,1-5.16-8.39c-1.58-2.86-3-5.78-4.41-8.74s-2.65-6-3.81-9a80.61,80.61,0,0,1-3-9.37,80.65,80.65,0,0,1,5.17,8.39c1.58,2.86,3,5.78,4.4,8.74s2.65,6,3.8,9A81.54,81.54,0,0,1,3080.38,1414.82Z"/><path class="cls-46" d="M3073.2,1417.22a108.84,108.84,0,0,1-7-9c-1.12-1.53-2.15-3.11-3.23-4.67l-3.08-4.76c-2-3.2-3.92-6.46-5.75-9.78a107.62,107.62,0,0,1-5-10.22,107.64,107.64,0,0,1,7,9c2.19,3.09,4.3,6.22,6.31,9.43l2.94,4.85c.94,1.64,1.91,3.26,2.8,4.93A108.82,108.82,0,0,1,3073.2,1417.22Z"/><path class="cls-46" d="M3064.48,1417.22a54.56,54.56,0,0,1-6.88-3.87q-3.28-2.14-6.36-4.55t-6-5.05a53.83,53.83,0,0,1-5.43-5.73,53.85,53.85,0,0,1,6.88,3.87q3.28,2.14,6.35,4.55t6,5.06A54.58,54.58,0,0,1,3064.48,1417.22Z"/><path class="cls-46" d="M3085.34,1419.74a95.11,95.11,0,0,1,1.7-10.51c.71-3.46,1.57-6.89,2.5-10.29s2-6.78,3.14-10.12a94.1,94.1,0,0,1,3.95-9.89,94.08,94.08,0,0,1-1.69,10.51c-.71,3.46-1.57,6.89-2.5,10.29s-2,6.78-3.14,10.11A95.14,95.14,0,0,1,3085.34,1419.74Z"/><path class="cls-46" d="M3105.22,1422.62c.65-4.23,1.58-8.38,2.6-12.5.49-2.07,1.08-4.1,1.62-6.15l1.78-6.1c1.23-4.05,2.59-8.07,4-12.06s3-7.94,4.84-11.81c-.64,4.23-1.57,8.38-2.6,12.5s-2.16,8.2-3.4,12.25l-1.94,6.05c-.7,2-1.35,4-2.1,6C3108.61,1414.79,3107.06,1418.75,3105.22,1422.62Z"/><path class="cls-46" d="M3119.46,1419.84c.6-4.34,1.49-8.6,2.47-12.83.47-2.12,1-4.21,1.55-6.32l1.72-6.27c1.19-4.17,2.5-8.31,3.91-12.41s2.92-8.19,4.72-12.18c-.6,4.34-1.48,8.6-2.47,12.83s-2.07,8.43-3.28,12.59l-1.87,6.23c-.68,2.06-1.3,4.14-2,6.18C3122.77,1411.77,3121.26,1415.84,3119.46,1419.84Z"/><path class="cls-46" d="M3133.13,1417.06a88.35,88.35,0,0,1,1.3-10.18c.58-3.36,1.31-6.68,2.11-10s1.71-6.58,2.76-9.82a87.38,87.38,0,0,1,3.57-9.62,87.39,87.39,0,0,1-1.3,10.18c-.58,3.36-1.31,6.68-2.12,10s-1.72,6.58-2.76,9.82A88.37,88.37,0,0,1,3133.13,1417.06Z"/><path class="cls-46" d="M3151,1414.28c-.62-4.34-.95-8.68-1.17-13-.14-2.17-.17-4.34-.25-6.51l-.08-6.51c0-4.34.11-8.68.33-13s.55-8.68,1.17-13c.62,4.34,1,8.68,1.17,13s.34,8.68.33,13l-.08,6.51c-.08,2.17-.11,4.34-.25,6.51C3152,1405.6,3151.64,1409.94,3151,1414.28Z"/><path class="cls-46" d="M3161.28,1418.45a111.27,111.27,0,0,1-1.42-11.44c-.18-1.91-.25-3.82-.38-5.73l-.21-5.73c-.09-3.82-.06-7.64.07-11.47a110.05,110.05,0,0,1,.91-11.49,110.05,110.05,0,0,1,1.43,11.44c.3,3.82.51,7.63.59,11.45l0,5.73c0,1.91,0,3.82-.12,5.74A111.27,111.27,0,0,1,3161.28,1418.45Z"/><path class="cls-46" d="M3170.9,1419.84c-.19-4.69-.09-9.35.12-14,.08-2.33.26-4.65.39-7l.56-7,.72-6.94c.3-2.31.54-4.62.89-6.92.65-4.61,1.4-9.21,2.45-13.79.19,4.69.09,9.35-.12,14-.07,2.33-.26,4.65-.39,7l-.56,7-.72,6.94c-.29,2.31-.54,4.62-.89,6.92C3172.7,1410.67,3171.95,1415.27,3170.9,1419.84Z"/><path class="cls-46" d="M3178.48,1421.23c.24-4.8.78-9.55,1.42-14.28.29-2.37.69-4.72,1-7.08l1.2-7,1.36-7c.51-2.33,1-4.67,1.53-7,1.07-4.65,2.25-9.28,3.72-13.86-.24,4.8-.77,9.55-1.41,14.28-.29,2.37-.69,4.72-1,7.08l-1.2,7-1.36,7c-.51,2.33-1,4.67-1.53,7C3181.12,1412,3179.94,1416.65,3178.48,1421.23Z"/><path class="cls-46" d="M3197.27,1417.06c-.54-4.58-.77-9.16-.91-13.74-.1-2.29-.08-4.58-.12-6.86l0-6.86c.08-4.57.28-9.14.58-13.71s.72-9.14,1.43-13.7c.54,4.58.78,9.16.91,13.74s.17,9.15.07,13.73l-.21,6.86c-.12,2.29-.2,4.57-.38,6.86C3198.39,1407.93,3198,1412.5,3197.27,1417.06Z"/><path class="cls-46" d="M3207,1416.37a84.77,84.77,0,0,1,.13-10c.19-3.33.53-6.64,1-9.94s.95-6.59,1.61-9.86a83.84,83.84,0,0,1,2.44-9.75,83.83,83.83,0,0,1-.12,10c-.19,3.33-.53,6.64-1,9.94s-.95,6.59-1.61,9.86A84.78,84.78,0,0,1,3207,1416.37Z"/><path class="cls-46" d="M3326.86,1475.84a56.13,56.13,0,0,1,1.72-7.82q1.1-3.82,2.52-7.52t3.12-7.29a55.39,55.39,0,0,1,3.92-7,55.37,55.37,0,0,1-1.72,7.82q-1.1,3.82-2.52,7.52t-3.12,7.29A56.13,56.13,0,0,1,3326.86,1475.84Z"/><path class="cls-46" d="M3346.74,1477.93a78.14,78.14,0,0,1,2.64-9.27c1-3,2.18-6,3.41-8.95s2.56-5.84,4-8.69a77.26,77.26,0,0,1,4.8-8.37,77.24,77.24,0,0,1-2.64,9.27c-1,3-2.18,6-3.42,8.95s-2.57,5.84-4,8.69A78.14,78.14,0,0,1,3346.74,1477.93Z"/><path class="cls-46" d="M3361,1475.91a81.08,81.08,0,0,1,2.51-9.5c1-3.11,2.09-6.17,3.28-9.2s2.48-6,3.9-9a80.2,80.2,0,0,1,4.68-8.64,80.16,80.16,0,0,1-2.5,9.5c-1,3.11-2.09,6.17-3.28,9.19s-2.48,6-3.9,8.95A81.08,81.08,0,0,1,3361,1475.91Z"/><path class="cls-46" d="M3374.65,1473.9a51.6,51.6,0,0,1,1.32-7.56c.6-2.46,1.32-4.89,2.13-7.29s1.72-4.76,2.74-7.08a50.92,50.92,0,0,1,3.55-6.8,50.94,50.94,0,0,1-1.32,7.56q-.91,3.7-2.13,7.28t-2.74,7.08A51.6,51.6,0,0,1,3374.65,1473.9Z"/><path class="cls-46" d="M2335.7,1469.35c0-4,.35-8,.77-12,.18-2,.47-4,.71-5.95l.88-5.92c.63-3.94,1.39-7.85,2.25-11.76a119.67,119.67,0,0,1,3.08-11.62,119.69,119.69,0,0,1-.77,12c-.43,4-.95,7.93-1.6,11.86l-1,5.89c-.4,2-.75,3.92-1.21,5.86C2337.91,1461.63,2336.95,1465.52,2335.7,1469.35Z"/><path class="cls-46" d="M2346.47,1467.27a103.33,103.33,0,0,1,1.3-11c.58-3.64,1.3-7.25,2.11-10.84s1.71-7.16,2.76-10.69a102.15,102.15,0,0,1,3.58-10.51,102.16,102.16,0,0,1-1.29,11c-.58,3.64-1.31,7.25-2.12,10.84s-1.72,7.16-2.76,10.69A103.3,103.3,0,0,1,2346.47,1467.27Z"/><path class="cls-46" d="M2358.27,1476.92a79,79,0,0,1,1.71-9.55c.71-3.14,1.57-6.23,2.5-9.3s2-6.11,3.14-9.11a78.09,78.09,0,0,1,3.94-8.86,78.11,78.11,0,0,1-1.7,9.55c-.71,3.14-1.57,6.23-2.51,9.3s-2,6.11-3.14,9.11A79,79,0,0,1,2358.27,1476.92Z"/><path class="cls-46" d="M451.86,1407.32a37.5,37.5,0,0,1,3.4,5.57,63.24,63.24,0,0,1,2.61,5.88,62.12,62.12,0,0,1,2,6.11,37,37,0,0,1,1.2,6.42,37,37,0,0,1-3.41-5.57,62.06,62.06,0,0,1-2.6-5.88,63.21,63.21,0,0,1-2-6.11A37.52,37.52,0,0,1,451.86,1407.32Z"/><path class="cls-46" d="M464.85,1429.34a83,83,0,0,1-2.08-9.72c-.55-3.26-.94-6.52-1.25-9.8s-.52-6.56-.59-9.86a82.11,82.11,0,0,1,.24-9.94,82.11,82.11,0,0,1,2.09,9.72c.54,3.26.94,6.52,1.25,9.8s.52,6.56.59,9.86A83,83,0,0,1,464.85,1429.34Z"/><path class="cls-46" d="M470.38,1402.92a45.06,45.06,0,0,1,1.18,7.07c.22,2.36.32,4.71.32,7.07s-.1,4.71-.32,7.07a44.45,44.45,0,0,1-1.18,7.07,44.48,44.48,0,0,1-1.18-7.07q-.33-3.53-.32-7.07c0-2.36.1-4.71.32-7.07A45.06,45.06,0,0,1,470.38,1402.92Z"/><path class="cls-46" d="M483.91,1394.93a66.39,66.39,0,0,1,.4,8.71c0,2.89-.19,5.76-.45,8.63s-.61,5.73-1.09,8.58a65.49,65.49,0,0,1-1.94,8.5,65.51,65.51,0,0,1-.41-8.71q.06-4.33.45-8.63c.26-2.87.62-5.73,1.09-8.58A66.37,66.37,0,0,1,483.91,1394.93Z"/><path class="cls-46" d="M487.59,1428.73a44.84,44.84,0,0,1,.87-7.09c.45-2.32,1-4.6,1.69-6.85s1.43-4.48,2.3-6.67a44.25,44.25,0,0,1,3.13-6.43,44.24,44.24,0,0,1-.87,7.09q-.68,3.47-1.69,6.85c-.67,2.25-1.43,4.48-2.31,6.67A44.85,44.85,0,0,1,487.59,1428.73Z"/><path class="cls-46" d="M497.43,1430a40.33,40.33,0,0,1,2.2-6.41c.88-2.05,1.87-4,2.94-6s2.24-3.84,3.51-5.68a39.83,39.83,0,0,1,4.26-5.27,39.81,39.81,0,0,1-2.19,6.41q-1.32,3.08-2.95,6t-3.51,5.68A40.34,40.34,0,0,1,497.43,1430Z"/><path class="cls-46" d="M2206.5,1326.8a37.52,37.52,0,0,1,3.4,5.57,63.21,63.21,0,0,1,2.61,5.88,62.11,62.11,0,0,1,2,6.11,37,37,0,0,1,1.2,6.42,37,37,0,0,1-3.41-5.57,62.09,62.09,0,0,1-2.6-5.88,63.21,63.21,0,0,1-2-6.11A37.51,37.51,0,0,1,2206.5,1326.8Z"/><path class="cls-46" d="M2219.5,1348.83a83.05,83.05,0,0,1-2.08-9.72c-.54-3.26-.94-6.53-1.25-9.8s-.52-6.56-.59-9.86a82.12,82.12,0,0,1,.24-9.94,82.11,82.11,0,0,1,2.09,9.72c.54,3.26.94,6.52,1.25,9.8s.52,6.56.59,9.86A83.05,83.05,0,0,1,2219.5,1348.83Z"/><path class="cls-46" d="M2225,1322.41a45.05,45.05,0,0,1,1.18,7.07c.22,2.36.32,4.71.32,7.07s-.1,4.71-.32,7.07a44.47,44.47,0,0,1-1.18,7.07,44.47,44.47,0,0,1-1.18-7.07q-.33-3.53-.32-7.07c0-2.36.1-4.71.32-7.07A45.05,45.05,0,0,1,2225,1322.41Z"/><path class="cls-46" d="M2238.55,1314.42a66.38,66.38,0,0,1,.4,8.71c0,2.89-.19,5.76-.45,8.63s-.61,5.73-1.09,8.58a65.5,65.5,0,0,1-1.94,8.5,65.51,65.51,0,0,1-.41-8.71q.06-4.33.45-8.63c.26-2.87.62-5.73,1.09-8.58A66.38,66.38,0,0,1,2238.55,1314.42Z"/><path class="cls-46" d="M2242.24,1348.22a44.83,44.83,0,0,1,.87-7.09c.45-2.32,1-4.6,1.69-6.85s1.43-4.48,2.3-6.67a44.24,44.24,0,0,1,3.13-6.43,44.24,44.24,0,0,1-.87,7.09q-.68,3.47-1.69,6.85c-.67,2.25-1.43,4.48-2.31,6.67A44.84,44.84,0,0,1,2242.24,1348.22Z"/><path class="cls-46" d="M2252.07,1349.45a40.34,40.34,0,0,1,2.2-6.41q1.32-3.08,2.94-6t3.51-5.68a39.81,39.81,0,0,1,4.26-5.27,39.81,39.81,0,0,1-2.19,6.41q-1.32,3.08-2.95,6t-3.51,5.68A40.36,40.36,0,0,1,2252.07,1349.45Z"/><path class="cls-46" d="M894.34,1328a37.51,37.51,0,0,1,3.4,5.57,63.22,63.22,0,0,1,2.61,5.88,62.11,62.11,0,0,1,2,6.11,37,37,0,0,1,1.2,6.42,37,37,0,0,1-3.41-5.57,62.12,62.12,0,0,1-2.6-5.88,63.2,63.2,0,0,1-2-6.11A37.5,37.5,0,0,1,894.34,1328Z"/><path class="cls-46" d="M907.33,1350.07a83.05,83.05,0,0,1-2.08-9.72c-.54-3.26-.94-6.53-1.25-9.8s-.52-6.56-.59-9.86a82.11,82.11,0,0,1,.24-9.94,82.13,82.13,0,0,1,2.09,9.72c.54,3.26.94,6.53,1.25,9.8s.52,6.56.59,9.86A83,83,0,0,1,907.33,1350.07Z"/><path class="cls-46" d="M912.86,1323.64a45,45,0,0,1,1.18,7.07c.22,2.36.32,4.71.32,7.07s-.1,4.71-.32,7.07a44.46,44.46,0,0,1-1.18,7.07,44.47,44.47,0,0,1-1.18-7.07q-.33-3.53-.32-7.07c0-2.36.1-4.71.32-7.07A45,45,0,0,1,912.86,1323.64Z"/><path class="cls-46" d="M926.39,1315.65a66.37,66.37,0,0,1,.4,8.71c0,2.89-.19,5.76-.45,8.63s-.61,5.73-1.09,8.58a65.51,65.51,0,0,1-1.94,8.5,65.51,65.51,0,0,1-.41-8.71q.06-4.33.45-8.63c.26-2.87.62-5.73,1.09-8.58A66.37,66.37,0,0,1,926.39,1315.65Z"/><path class="cls-46" d="M930.07,1349.45a44.83,44.83,0,0,1,.87-7.09c.45-2.32,1-4.6,1.69-6.85s1.43-4.48,2.3-6.67a44.24,44.24,0,0,1,3.13-6.43,44.24,44.24,0,0,1-.87,7.09q-.68,3.47-1.69,6.85c-.67,2.25-1.43,4.48-2.31,6.67A44.83,44.83,0,0,1,930.07,1349.45Z"/><path class="cls-46" d="M939.91,1350.68a40.35,40.35,0,0,1,2.2-6.41q1.32-3.08,2.94-6t3.51-5.68a39.8,39.8,0,0,1,4.26-5.27,39.82,39.82,0,0,1-2.19,6.41q-1.32,3.08-2.95,6t-3.51,5.68A40.35,40.35,0,0,1,939.91,1350.68Z"/><path class="cls-46" d="M558.79,1482.91a37.53,37.53,0,0,1,3.4,5.57,63.24,63.24,0,0,1,2.61,5.88,62.08,62.08,0,0,1,2,6.11,37,37,0,0,1,1.2,6.42,37,37,0,0,1-3.41-5.57,62.06,62.06,0,0,1-2.6-5.88,63.18,63.18,0,0,1-2-6.11A37.5,37.5,0,0,1,558.79,1482.91Z"/><path class="cls-46" d="M571.79,1504.93a83,83,0,0,1-2.08-9.72c-.54-3.26-.94-6.52-1.25-9.8s-.52-6.56-.59-9.86a82.11,82.11,0,0,1,.24-9.94,82.09,82.09,0,0,1,2.09,9.72c.54,3.26.94,6.52,1.25,9.8s.52,6.56.59,9.86A83,83,0,0,1,571.79,1504.93Z"/><path class="cls-46" d="M577.32,1478.51a45.05,45.05,0,0,1,1.18,7.07c.22,2.36.32,4.71.32,7.07s-.1,4.71-.32,7.07a44.48,44.48,0,0,1-1.18,7.07,44.45,44.45,0,0,1-1.18-7.07q-.33-3.53-.32-7.07c0-2.36.1-4.71.32-7.07A45.05,45.05,0,0,1,577.32,1478.51Z"/><path class="cls-46" d="M590.84,1470.52a66.39,66.39,0,0,1,.4,8.71c0,2.89-.19,5.76-.45,8.63s-.61,5.73-1.09,8.58a65.48,65.48,0,0,1-1.94,8.5,65.51,65.51,0,0,1-.41-8.71q.06-4.33.45-8.63c.26-2.87.62-5.73,1.09-8.58A66.37,66.37,0,0,1,590.84,1470.52Z"/><path class="cls-46" d="M594.53,1504.32a44.84,44.84,0,0,1,.87-7.09c.45-2.32,1-4.6,1.69-6.85s1.43-4.48,2.3-6.67a44.25,44.25,0,0,1,3.13-6.43,44.24,44.24,0,0,1-.87,7.09q-.68,3.47-1.69,6.85c-.67,2.25-1.43,4.48-2.31,6.67A44.84,44.84,0,0,1,594.53,1504.32Z"/><path class="cls-46" d="M604.36,1505.55a40.33,40.33,0,0,1,2.2-6.41q1.32-3.08,2.94-6t3.51-5.68a39.81,39.81,0,0,1,4.26-5.27,39.8,39.8,0,0,1-2.19,6.41q-1.32,3.08-2.95,6t-3.51,5.68A40.37,40.37,0,0,1,604.36,1505.55Z"/><path class="cls-46" d="M787.63,1436.12a87.12,87.12,0,0,1,4.93,8.92c1.5,3,2.87,6.12,4.16,9.24s2.48,6.28,3.54,9.49a86.16,86.16,0,0,1,2.76,9.81,86.16,86.16,0,0,1-4.93-8.92c-1.5-3-2.87-6.12-4.15-9.24s-2.48-6.28-3.54-9.49A87.12,87.12,0,0,1,787.63,1436.12Z"/><path class="cls-46" d="M809.32,1470.54a116.85,116.85,0,0,1-3.45-11.29c-.52-1.89-.94-3.81-1.4-5.71l-1.24-5.75c-.78-3.84-1.43-7.7-2-11.59a115.54,115.54,0,0,1-1.16-11.75,115.53,115.53,0,0,1,3.46,11.29c1,3.8,1.87,7.62,2.63,11.46l1.07,5.78c.3,1.94.66,3.86.91,5.81A116.83,116.83,0,0,1,809.32,1470.54Z"/><path class="cls-46" d="M818.55,1429.25a103.37,103.37,0,0,1,1.17,11c.24,3.68.33,7.36.33,11s-.09,7.36-.33,11a102.23,102.23,0,0,1-1.17,11,102.21,102.21,0,0,1-1.17-11c-.24-3.68-.33-7.36-.33-11s.09-7.36.33-11A103.38,103.38,0,0,1,818.55,1429.25Z"/><path class="cls-46" d="M828.81,1471.5c.12-4,.52-8,1-12,.23-2,.56-4,.84-5.93l1-5.9c.72-3.92,1.56-7.82,2.5-11.7a119.65,119.65,0,0,1,3.33-11.55,119.65,119.65,0,0,1-1,12c-.51,4-1.12,7.9-1.86,11.82l-1.17,5.87c-.44,1.95-.84,3.9-1.34,5.84C831.2,1463.83,830.15,1467.69,828.81,1471.5Z"/><path class="cls-46" d="M843.69,1470.54c.12-4.07.52-8.09,1-12.09.23-2,.56-4,.84-6l1-6c.72-4,1.56-7.9,2.5-11.82s2-7.82,3.33-11.67c-.11,4.07-.52,8.09-1,12.09s-1.12,8-1.86,11.94l-1.17,5.93c-.44,2-.84,3.94-1.34,5.9C846.07,1462.79,845,1466.69,843.69,1470.54Z"/><path class="cls-46" d="M861.13,1472.46c-.62-5-.95-10-1.17-15-.14-2.5-.17-5-.25-7.5l-.08-7.5.08-7.5c.08-2.5.11-5,.25-7.5.22-5,.55-10,1.17-15,.62,5,1,10,1.17,15,.14,2.5.17,5,.25,7.5l.08,7.5-.08,7.5c-.08,2.5-.11,5-.25,7.5C862.08,1462.46,861.75,1467.46,861.13,1472.46Z"/><path class="cls-46" d="M871.9,1473.42a110.13,110.13,0,0,1-1.29-11.39c-.16-1.9-.21-3.8-.31-5.7l-.15-5.7c-.05-3.8,0-7.6.2-11.41a108.87,108.87,0,0,1,1-11.42,108.9,108.9,0,0,1,1.3,11.39c.26,3.8.42,7.6.46,11.4l0,5.7c-.06,1.9-.07,3.8-.19,5.7A110.14,110.14,0,0,1,871.9,1473.42Z"/><path class="cls-46" d="M880.11,1469.1a113.06,113.06,0,0,1-.26-11.61c0-1.93.13-3.85.2-5.78l.37-5.77c.29-3.84.71-7.67,1.23-11.5A111.82,111.82,0,0,1,883.7,1423a111.79,111.79,0,0,1,.27,11.61c-.08,3.86-.26,7.71-.57,11.55l-.53,5.76c-.23,1.91-.41,3.83-.7,5.74A113.07,113.07,0,0,1,880.11,1469.1Z"/><path class="cls-46" d="M884.73,1470.06c1-4.07,2.2-8,3.53-12,.64-2,1.38-3.9,2.08-5.85l2.23-5.79c1.53-3.84,3.18-7.64,4.92-11.4s3.58-7.48,5.7-11.09c-1,4.07-2.2,8-3.53,12s-2.76,7.81-4.31,11.65L893,1453.3c-.84,1.89-1.64,3.8-2.54,5.67C888.68,1462.73,886.84,1466.45,884.73,1470.06Z"/><path class="cls-46" d="M891.91,1467.66a115.39,115.39,0,0,1,5.3-10.47c.93-1.71,2-3.37,2.93-5.06l3.07-5q3.13-4.93,6.56-9.67a114,114,0,0,1,7.27-9.21,114.09,114.09,0,0,1-5.3,10.47c-1.91,3.4-3.9,6.74-6,10l-3.21,4.88c-1.12,1.6-2.19,3.22-3.35,4.79A115.33,115.33,0,0,1,891.91,1467.66Z"/><path class="cls-46" d="M897.55,1468.62a74.9,74.9,0,0,1,6.88-6.46c2.38-2,4.85-3.95,7.37-5.79s5.1-3.61,7.76-5.26a74,74,0,0,1,8.26-4.58,74,74,0,0,1-6.88,6.47c-2.38,2-4.85,3.95-7.37,5.79s-5.1,3.6-7.76,5.25A74.86,74.86,0,0,1,897.55,1468.62Z"/><path class="cls-46" d="M790.85,1471a81.55,81.55,0,0,1-5.16-8.39c-1.58-2.86-3-5.78-4.41-8.74s-2.65-6-3.81-9a80.62,80.62,0,0,1-3-9.37,80.63,80.63,0,0,1,5.17,8.39c1.58,2.86,3,5.78,4.4,8.74s2.65,6,3.8,9A81.52,81.52,0,0,1,790.85,1471Z"/><path class="cls-46" d="M783.67,1473.42a108.84,108.84,0,0,1-7-9c-1.12-1.53-2.15-3.11-3.23-4.67l-3.08-4.76c-2-3.2-3.92-6.46-5.75-9.78a107.62,107.62,0,0,1-5-10.22,107.64,107.64,0,0,1,7,9c2.19,3.09,4.3,6.22,6.31,9.43l2.94,4.85c.94,1.64,1.91,3.26,2.8,4.93A108.85,108.85,0,0,1,783.67,1473.42Z"/><path class="cls-46" d="M775,1473.42a54.57,54.57,0,0,1-6.88-3.87q-3.28-2.14-6.36-4.55t-6-5.05a53.84,53.84,0,0,1-5.43-5.73,53.85,53.85,0,0,1,6.88,3.87q3.28,2.14,6.35,4.55t6,5.06A54.57,54.57,0,0,1,775,1473.42Z"/><path class="cls-46" d="M929.36,1501.75a41.3,41.3,0,0,1-1.81-6.61c-.43-2.22-.75-4.45-1-6.69s-.33-4.49-.32-6.75a40.75,40.75,0,0,1,.53-6.83,40.75,40.75,0,0,1,1.82,6.61q.65,3.33,1,6.69c.21,2.24.32,4.49.32,6.75A41.29,41.29,0,0,1,929.36,1501.75Z"/><path class="cls-46" d="M941.15,1502.71a73.08,73.08,0,0,1-1.55-9.19c-.37-3.07-.58-6.15-.72-9.23s-.17-6.17-.06-9.26a72.25,72.25,0,0,1,.78-9.29,72.25,72.25,0,0,1,1.55,9.19c.37,3.07.58,6.15.71,9.23s.16,6.17.05,9.26A73.07,73.07,0,0,1,941.15,1502.71Z"/><path class="cls-46" d="M949.18,1503.67a92.21,92.21,0,0,1,.26-10.48c.23-3.47.62-6.93,1.08-10.37s1-6.87,1.74-10.28a91.17,91.17,0,0,1,2.57-10.16,91.19,91.19,0,0,1-.25,10.48c-.23,3.47-.62,6.93-1.08,10.37s-1,6.87-1.74,10.28A92.21,92.21,0,0,1,949.18,1503.67Z"/><path class="cls-46" d="M923.2,1502.23a29.68,29.68,0,0,1-2.91-5,49.74,49.74,0,0,1-2.1-5.3,48.89,48.89,0,0,1-1.49-5.5,29.33,29.33,0,0,1-.68-5.77,29.32,29.32,0,0,1,2.91,5,48.89,48.89,0,0,1,2.1,5.3,49.77,49.77,0,0,1,1.49,5.5A29.68,29.68,0,0,1,923.2,1502.23Z"/><path class="cls-46" d="M959.77,1501.75c.25-4.09.79-8.12,1.43-12.13.29-2,.69-4,1-6l1.2-6c.85-4,1.82-7.9,2.89-11.81s2.24-7.81,3.71-11.64c-.24,4.09-.78,8.12-1.42,12.13s-1.38,8-2.24,12l-1.36,5.92c-.51,2-1,3.94-1.53,5.89C962.4,1494,961.23,1497.92,959.77,1501.75Z"/><path class="cls-46" d="M970.93,1502.23a60.89,60.89,0,0,1,.12-8.34c.21-2.75.54-5.49,1-8.21s1-5.43,1.6-8.11a60.09,60.09,0,0,1,2.45-8,60.08,60.08,0,0,1-.12,8.35q-.32,4.13-1,8.21c-.43,2.72-1,5.43-1.6,8.11A60.88,60.88,0,0,1,970.93,1502.23Z"/><path class="cls-46" d="M989.39,1501.75a95.14,95.14,0,0,1,1.7-10.51c.71-3.46,1.57-6.89,2.5-10.29s2-6.78,3.14-10.11a94.07,94.07,0,0,1,3.95-9.89,94.07,94.07,0,0,1-1.69,10.51c-.71,3.46-1.57,6.89-2.5,10.29s-2,6.78-3.14,10.11A95.14,95.14,0,0,1,989.39,1501.75Z"/><path class="cls-46" d="M1009.28,1504.63c.65-4.23,1.58-8.38,2.6-12.5.49-2.07,1.08-4.1,1.62-6.15l1.78-6.1c1.23-4.05,2.59-8.07,4-12.06s3-7.94,4.84-11.81c-.64,4.23-1.57,8.38-2.6,12.5s-2.16,8.2-3.4,12.25l-1.94,6.05c-.7,2-1.35,4-2.1,6C1012.66,1496.8,1011.11,1500.76,1009.28,1504.63Z"/><path class="cls-46" d="M1023.52,1501.85c.6-4.34,1.49-8.6,2.47-12.83.47-2.12,1-4.21,1.55-6.32l1.72-6.27c1.19-4.17,2.5-8.31,3.91-12.41s2.92-8.19,4.72-12.18c-.6,4.34-1.48,8.6-2.47,12.83s-2.07,8.43-3.27,12.59l-1.88,6.23c-.68,2.06-1.3,4.14-2,6.18C1026.82,1493.78,1025.31,1497.86,1023.52,1501.85Z"/><path class="cls-46" d="M1037.18,1499.07a88.35,88.35,0,0,1,1.3-10.18c.58-3.36,1.31-6.68,2.11-10s1.71-6.58,2.76-9.82a87.37,87.37,0,0,1,3.57-9.62,87.39,87.39,0,0,1-1.3,10.18c-.58,3.36-1.31,6.68-2.12,10s-1.72,6.58-2.76,9.82A88.37,88.37,0,0,1,1037.18,1499.07Z"/><path class="cls-46" d="M1055.08,1496.29c-.62-4.34-.95-8.68-1.17-13-.14-2.17-.17-4.34-.25-6.51l-.08-6.51c0-4.34.11-8.68.33-13s.55-8.68,1.17-13c.62,4.34,1,8.68,1.17,13s.34,8.68.33,13l-.08,6.51c-.08,2.17-.11,4.34-.25,6.51C1056,1487.61,1055.7,1492,1055.08,1496.29Z"/><path class="cls-46" d="M1065.34,1500.46a111.27,111.27,0,0,1-1.42-11.44c-.18-1.91-.25-3.82-.38-5.73l-.21-5.73c-.09-3.82-.06-7.64.07-11.47a110,110,0,0,1,.91-11.49,110,110,0,0,1,1.43,11.44c.3,3.82.51,7.63.59,11.45l0,5.73c0,1.91,0,3.82-.12,5.74A111.27,111.27,0,0,1,1065.34,1500.46Z"/><path class="cls-46" d="M1075,1501.85c-.19-4.69-.09-9.35.12-14,.08-2.33.26-4.65.39-7l.56-7,.72-6.94c.3-2.31.54-4.62.89-6.92.65-4.61,1.4-9.21,2.45-13.79.19,4.69.09,9.35-.12,14-.07,2.33-.26,4.65-.39,7l-.56,7-.72,6.94c-.29,2.31-.54,4.62-.89,6.92C1076.76,1492.68,1076,1497.28,1075,1501.85Z"/><path class="cls-46" d="M1082.53,1503.24c.24-4.8.78-9.55,1.42-14.28.29-2.37.69-4.72,1-7.08l1.2-7,1.36-7c.51-2.33,1-4.67,1.53-7,1.07-4.65,2.25-9.28,3.72-13.86-.24,4.8-.77,9.55-1.41,14.28-.29,2.37-.69,4.72-1,7.08l-1.2,7-1.36,7c-.51,2.33-1,4.67-1.53,7C1085.17,1494,1084,1498.66,1082.53,1503.24Z"/><path class="cls-46" d="M1101.33,1499.07c-.54-4.58-.77-9.16-.91-13.74-.1-2.29-.08-4.58-.12-6.86l0-6.86c.08-4.57.28-9.14.59-13.71s.72-9.14,1.43-13.7c.54,4.58.78,9.16.91,13.74s.17,9.15.07,13.73l-.21,6.86c-.12,2.28-.2,4.57-.38,6.85C1102.44,1489.94,1102,1494.51,1101.33,1499.07Z"/><path class="cls-46" d="M1111,1498.38a84.77,84.77,0,0,1,.13-10c.19-3.33.53-6.64,1-9.94s.95-6.59,1.61-9.86a83.84,83.84,0,0,1,2.44-9.75,83.84,83.84,0,0,1-.12,10c-.19,3.33-.53,6.64-1,9.94s-.95,6.59-1.61,9.86A84.78,84.78,0,0,1,1111,1498.38Z"/><path class="cls-46" d="M1129.48,1499.77c-.88-5-1.46-10-1.93-15-.27-2.51-.43-5-.63-7.54l-.47-7.55-.31-7.56c0-2.52-.15-5-.14-7.57,0-5,0-10.1.4-15.17.88,5,1.46,10,1.94,15,.27,2.51.42,5,.63,7.54l.46,7.55.3,7.56c0,2.52.14,5,.13,7.57C1129.91,1489.65,1129.84,1494.7,1129.48,1499.77Z"/><path class="cls-46" d="M1138.65,1499.07a98.57,98.57,0,0,1-1.68-10.71c-.41-3.58-.67-7.16-.85-10.75s-.25-7.18-.18-10.78a97.48,97.48,0,0,1,.66-10.82,97.47,97.47,0,0,1,1.68,10.71c.41,3.58.67,7.16.84,10.75s.25,7.18.18,10.78A98.57,98.57,0,0,1,1138.65,1499.07Z"/><path class="cls-46" d="M1150.2,1493.52a78.27,78.27,0,0,1-.39-9.65c0-3.2.19-6.39.44-9.58s.6-6.36,1.1-9.53a77.4,77.4,0,0,1,1.94-9.46,77.39,77.39,0,0,1,.4,9.65c0,3.2-.19,6.39-.44,9.58s-.61,6.36-1.1,9.52A78.29,78.29,0,0,1,1150.2,1493.52Z"/><path class="cls-46" d="M1157.9,1494.21c0-4,.35-8,.77-12,.18-2,.47-4,.71-5.94l.88-5.92c.63-3.94,1.39-7.85,2.25-11.76a119.7,119.7,0,0,1,3.08-11.62,119.67,119.67,0,0,1-.77,12c-.43,4-.95,7.93-1.6,11.86l-1,5.89c-.4,2-.75,3.92-1.21,5.86C1160.11,1486.49,1159.15,1490.37,1157.9,1494.21Z"/><path class="cls-46" d="M1168.67,1492.13a103.3,103.3,0,0,1,1.3-11c.58-3.64,1.3-7.25,2.11-10.84s1.71-7.16,2.76-10.69a102.16,102.16,0,0,1,3.58-10.51,102.14,102.14,0,0,1-1.29,11c-.58,3.64-1.31,7.25-2.12,10.84s-1.72,7.16-2.76,10.69A103.3,103.3,0,0,1,1168.67,1492.13Z"/><path class="cls-46" d="M1180.47,1501.78a79,79,0,0,1,1.71-9.55c.71-3.14,1.57-6.23,2.5-9.3s2-6.11,3.14-9.11a78.1,78.1,0,0,1,3.94-8.86,78.11,78.11,0,0,1-1.7,9.55c-.71,3.14-1.57,6.23-2.51,9.3s-2,6.11-3.14,9.11A79,79,0,0,1,1180.47,1501.78Z"/><rect class="cls-48" x="2472.71" y="1155.24" width="15.98" height="292.54"/><rect class="cls-8" x="2410.35" y="1025.68" width="138.27" height="160.4"/><path class="cls-10" d="M2444.67,1048.3h70.52a13.9,13.9,0,0,1,13.9,13.9v33.2a3.49,3.49,0,0,1-3.49,3.49h-91.35a3.49,3.49,0,0,1-3.49-3.49v-33.2A13.9,13.9,0,0,1,2444.67,1048.3Z"/><circle class="cls-8" cx="2454.94" cy="1098.75" r="13.12"/><circle class="cls-10" cx="2454.94" cy="1098.75" r="9.13"/><circle class="cls-8" cx="2505.34" cy="1098.75" r="13.12"/><circle class="cls-10" cx="2505.34" cy="1098.75" r="9.13"/><rect class="cls-8" x="2440.81" y="1056.9" width="21.2" height="17.62" rx="1.67" ry="1.67"/><rect class="cls-8" x="2469.06" y="1056.9" width="21.2" height="17.62" rx="1.67" ry="1.67"/><rect class="cls-8" x="2497.31" y="1056.9" width="21.2" height="17.62" rx="1.67" ry="1.67"/><rect class="cls-49" x="2419.44" y="1126.97" width="119.64" height="4.92"/><polygon class="cls-50" points="0.48 1648.06 0.48 2500 4000.48 2500 4000 1648.06 0.48 1648.06"/><path class="cls-51" d="M4000,1716.23c-462.46-2.25-1187-3.69-2001.38-3.69-812.8,0-1536,1.44-1998.62,3.68"/><rect class="cls-10" x="793.74" y="1012.71" width="22.41" height="10.54"/><rect class="cls-10" x="824.06" y="1012.71" width="22.41" height="10.54"/><rect class="cls-10" x="854.38" y="1012.71" width="22.41" height="10.54"/><rect class="cls-10" x="884.7" y="1012.71" width="22.41" height="10.54"/><rect class="cls-10" x="793.74" y="1032.38" width="22.41" height="10.54"/><rect class="cls-10" x="824.06" y="1032.38" width="22.41" height="10.54"/><rect class="cls-10" x="854.38" y="1032.38" width="22.41" height="10.54"/><rect class="cls-10" x="884.7" y="1032.38" width="22.41" height="10.54"/><rect class="cls-10" x="793.74" y="1052.04" width="22.41" height="10.54"/><rect class="cls-10" x="824.06" y="1052.04" width="22.41" height="10.54"/><rect class="cls-10" x="854.38" y="1052.04" width="22.41" height="10.54"/><rect class="cls-10" x="884.7" y="1052.04" width="22.41" height="10.54"/><rect class="cls-10" x="793.74" y="1071.71" width="22.41" height="10.54"/><rect class="cls-10" x="824.06" y="1071.71" width="22.41" height="10.54"/><rect class="cls-10" x="854.38" y="1071.71" width="22.41" height="10.54"/><rect class="cls-10" x="884.7" y="1071.71" width="22.41" height="10.54"/><rect class="cls-10" x="793.74" y="1091.38" width="22.41" height="10.54"/><rect class="cls-10" x="824.06" y="1091.38" width="22.41" height="10.54"/><rect class="cls-10" x="854.38" y="1091.38" width="22.41" height="10.54"/><rect class="cls-10" x="884.7" y="1091.38" width="22.41" height="10.54"/><rect class="cls-10" x="884.7" y="1111.04" width="22.41" height="10.54"/><rect class="cls-10" x="884.7" y="1130.71" width="22.41" height="10.54"/><rect class="cls-10" x="884.7" y="1150.38" width="22.41" height="10.54"/><rect class="cls-10" x="884.7" y="1170.04" width="22.41" height="10.54"/><rect class="cls-10" x="884.7" y="1189.71" width="22.41" height="10.54"/><rect class="cls-10" x="884.7" y="1209.38" width="22.41" height="10.54"/><rect class="cls-10" x="884.7" y="1229.04" width="22.41" height="10.54"/></svg>