<?xml version="1.0" encoding="iso-8859-1"?>
<!-- Generator: Adobe Illustrator 17.0.0, SVG Export Plug-In . SVG Version: 6.00 Build 0)  -->
<!DOCTYPE svg PUBLIC "-//W3C//DTD SVG 1.1//EN" "http://www.w3.org/Graphics/SVG/1.1/DTD/svg11.dtd">
<svg version="1.1" id="Layer_1" xmlns="http://www.w3.org/2000/svg" xmlns:xlink="http://www.w3.org/1999/xlink" x="0px" y="0px"
	 width="2128px" height="735.091px" viewBox="0 0 2128 735.091" style="enable-background:new 0 0 2128 735.091;"
	 xml:space="preserve">
<g>
	<path style="fill:#3EAB99;" d="M234.917,577.016c6.856,40.152-1.98,103.228-25.023,109.92
		c-23.043,6.692-51.568-45.535-58.424-85.687c-6.856-40.152,7.119-73.132,30.162-79.824S228.061,536.864,234.917,577.016z"/>
	<path style="fill:#3EAB99;" d="M198.734,454.006c6.428,28.867-1.856,74.215-23.461,79.026
		c-21.605,4.811-48.349-32.737-54.777-61.604c-6.428-28.867,6.674-52.578,28.279-57.389S192.306,425.14,198.734,454.006z"/>
	<path style="fill:#3EAB99;" d="M329.89,645.617c6.428,28.867-1.856,74.215-23.461,79.026
		c-21.605,4.811-48.349-32.737-54.777-61.604c-6.428-28.867,6.674-52.578,28.279-57.389
		C301.536,600.839,323.462,616.75,329.89,645.617z"/>
	<path style="fill:#3EAB99;" d="M396.408,601.548c-5.479,37.9-30.979,87.982-52.73,82.634
		c-21.751-5.348-31.516-64.101-26.037-102.001s26.872-59.575,48.623-54.227S401.888,563.648,396.408,601.548z"/>
	<path style="fill:#3EAB99;" d="M276.7,468.808c5.262,23.63-1.52,60.751-19.205,64.689c-17.685,3.938-39.577-26.798-44.839-50.428
		s5.464-43.039,23.149-46.977S271.439,445.178,276.7,468.808z"/>
	<path style="fill:#3EAB99;" d="M284.826,410.824c-3.155,16.776-17.864,38.948-30.419,36.587
		c-12.555-2.362-18.203-28.363-15.047-45.139c3.155-16.776,15.499-26.374,28.054-24.012
		C279.969,380.621,287.981,394.048,284.826,410.824z"/>
	<g>
		<path style="fill:#5FC1A8;" d="M193.03,533.643c-0.339,33.435-21.112,81.235-46.135,80.981
			c-25.023-0.254-44.822-48.466-44.482-81.901c0.339-33.434,20.858-56.175,45.881-55.921
			C173.317,477.057,193.369,500.209,193.03,533.643z"/>
		<circle style="fill:#3EAB99;" cx="149.253" cy="500.871" r="5.98"/>
		<circle style="fill:#3EAB99;" cx="123.407" cy="521.969" r="5.98"/>
		<circle style="fill:#3EAB99;" cx="147.795" cy="539.304" r="5.98"/>
		<circle style="fill:#3EAB99;" cx="168.914" cy="563.014" r="5.98"/>
		<circle style="fill:#3EAB99;" cx="170.922" cy="522.985" r="5.98"/>
		<circle style="fill:#3EAB99;" cx="127.245" cy="564.728" r="5.98"/>
		<circle style="fill:#3EAB99;" cx="147.836" cy="587.898" r="5.98"/>
	</g>
	<g>
		<path style="fill:#5FC1A8;" d="M224.192,456.147c-12.005,21.426-42.243,44.907-58.279,35.921
			c-16.036-8.985-11.798-47.034,0.208-68.46c12.006-21.426,33.245-28.847,49.28-19.861
			C231.437,412.732,236.197,434.721,224.192,456.147z"/>
		<circle style="fill:#3EAB99;" cx="205.028" cy="422.433" r="5.98"/>
		<circle style="fill:#3EAB99;" cx="178.75" cy="434.805" r="5.98"/>
		<circle style="fill:#3EAB99;" cx="201.677" cy="452.961" r="5.98"/>
		<circle style="fill:#3EAB99;" cx="177.479" cy="468.597" r="5.98"/>
	</g>
	<path style="fill:#5FC1A8;" d="M230.344,359.382c-0.878,18.937-13.628,45.596-27.801,44.939s-24.403-28.381-23.525-47.318
		c0.878-18.937,12.97-31.402,27.143-30.745C220.334,326.915,231.222,340.444,230.344,359.382z"/>
	<path style="fill:#5FC1A8;" d="M403.385,460.522c-8.079,17.15-30.084,36.874-42.92,30.827s-11.641-35.573-3.563-52.723
		c8.079-17.15,24.029-24.019,36.864-17.972C406.603,426.7,411.464,443.372,403.385,460.522z"/>
	<path style="fill:#5FC1A8;" d="M298.575,552.608c6.856,30.789-1.98,79.156-25.023,84.288
		c-23.043,5.131-51.568-34.917-58.424-65.706s7.119-56.079,30.162-61.21S291.719,521.82,298.575,552.608z"/>
	<path style="fill:#5FC1A8;" d="M310.667,466.729c-5.74,25.355-29.365,58.279-48.342,53.983s-26.119-44.185-20.379-69.54
		c5.74-25.355,25.063-39.274,44.04-34.978S316.407,441.373,310.667,466.729z"/>
	<path style="fill:#5FC1A8;" d="M360.624,558.181c-23.327,11.475-63.784,13.799-72.372-3.66
		c-8.589-17.459,17.943-48.089,41.271-59.564c23.327-11.475,46.299-5.198,54.888,12.261
		C392.998,524.676,383.951,546.705,360.624,558.181z"/>
	<circle style="fill:#3EAB99;" cx="194.252" cy="365.018" r="5.98"/>
	<circle style="fill:#3EAB99;" cx="215.915" cy="365.167" r="5.98"/>
	<circle style="fill:#3EAB99;" cx="367.625" cy="449.153" r="5.98"/>
	<circle style="fill:#3EAB99;" cx="203.251" cy="386.738" r="5.98"/>
	<circle style="fill:#3EAB99;" cx="279.879" cy="439.475" r="5.98"/>
	<circle style="fill:#3EAB99;" cx="260.52" cy="461.813" r="5.98"/>
	<circle style="fill:#3EAB99;" cx="288.814" cy="468.514" r="5.98"/>
	<circle style="fill:#3EAB99;" cx="266.476" cy="492.34" r="5.98"/>
	<circle style="fill:#3EAB99;" cx="246.373" cy="533.292" r="5.98"/>
	<circle style="fill:#3EAB99;" cx="234.191" cy="564.203" r="5.98"/>
	<circle style="fill:#3EAB99;" cx="259.031" cy="579.456" r="5.98"/>
	<circle style="fill:#3EAB99;" cx="247.117" cy="606.261" r="5.98"/>
	<circle style="fill:#3EAB99;" cx="282.857" cy="594.347" r="5.98"/>
	<circle style="fill:#3EAB99;" cx="312.64" cy="544.462" r="5.98"/>
	<circle style="fill:#3EAB99;" cx="330.511" cy="517.657" r="5.98"/>
	<circle style="fill:#3EAB99;" cx="351.36" cy="545.206" r="5.98"/>
	<circle style="fill:#3EAB99;" cx="359.549" cy="511.699" r="5.98"/>
	<circle style="fill:#3EAB99;" cx="375.386" cy="471.879" r="5.98"/>
	<circle style="fill:#3EAB99;" cx="389.51" cy="442.246" r="5.98"/>
	<circle style="fill:#3EAB99;" cx="270.26" cy="551.884" r="5.98"/>
	<circle style="fill:#3EAB99;" cx="207.872" cy="343.719" r="5.98"/>
</g>
<g>
	<g>
		<path style="fill:#FEC465;" d="M1418.799,686.813c0,0-0.254-0.559-0.73-1.608c-0.454-1.055-1.166-2.589-1.982-4.569
			c-0.828-1.976-1.857-4.368-2.944-7.141c-1.111-2.765-2.366-5.884-3.641-9.316c-1.303-3.423-2.714-7.131-4.126-11.078
			c-1.417-3.945-2.889-8.113-4.358-12.44c-1.477-4.325-2.969-8.804-4.433-13.372c-1.485-4.561-2.919-9.218-4.363-13.871
			c-1.401-4.667-2.817-9.329-4.13-13.942c-1.344-4.604-2.596-9.157-3.792-13.568c-1.197-4.41-2.304-8.689-3.331-12.753
			c-1.03-4.063-1.933-7.927-2.76-11.495c-0.857-3.559-1.559-6.847-2.178-9.762c-0.645-2.908-1.127-5.467-1.541-7.569
			c-0.427-2.098-0.692-3.769-0.903-4.898c-0.19-1.136-0.291-1.742-0.291-1.742s0.254,0.559,0.731,1.608
			c0.456,1.055,1.168,2.589,1.985,4.568c0.83,1.975,1.858,4.368,2.947,7.14c1.115,2.764,2.367,5.884,3.643,9.315
			c1.307,3.422,2.714,7.131,4.128,11.078c1.417,3.945,2.887,8.113,4.356,12.441c1.47,4.327,2.973,8.803,4.428,13.374
			c1.486,4.561,2.914,9.219,4.357,13.873c1.4,4.667,2.81,9.331,4.125,13.944c1.336,4.607,2.598,9.156,3.788,13.569
			c1.197,4.41,2.303,8.689,3.33,12.754c1.032,4.063,1.931,7.927,2.762,11.494c0.858,3.559,1.558,6.847,2.18,9.761
			c0.646,2.907,1.128,5.466,1.544,7.568c0.428,2.098,0.694,3.768,0.906,4.897C1418.698,686.207,1418.799,686.813,1418.799,686.813z"
			/>
	</g>
	<g>
		<path style="fill:#FEC465;" d="M1375.233,488.565c0,0,0.267,0.846,0.767,2.434c0.478,1.592,1.226,3.917,2.086,6.896
			c0.872,2.976,1.955,6.585,3.102,10.745c1.171,4.155,2.495,8.842,3.842,13.976c1.376,5.128,2.866,10.684,4.36,16.578
			c1.5,5.893,3.057,12.112,4.614,18.558c1.565,6.444,3.148,13.111,4.702,19.896c1.577,6.781,3.101,13.686,4.636,20.589
			c1.492,6.913,2.997,13.822,4.399,20.641c1.432,6.812,2.769,13.533,4.048,20.039c1.279,6.507,2.465,12.808,3.566,18.788
			c1.104,5.979,2.076,11.649,2.965,16.883c0.92,5.228,1.679,10.039,2.348,14.304c0.695,4.259,1.22,7.99,1.669,11.059
			c0.462,3.066,0.754,5.49,0.984,7.137c0.208,1.651,0.319,2.532,0.319,2.532s-0.267-0.846-0.768-2.433
			c-0.479-1.592-1.228-3.916-2.089-6.895c-0.874-2.976-1.957-6.585-3.105-10.745c-1.175-4.154-2.496-8.842-3.845-13.976
			c-1.38-5.127-2.866-10.684-4.362-16.577c-1.499-5.893-3.055-12.113-4.612-18.558c-1.558-6.446-3.151-13.11-4.698-19.897
			c-1.577-6.781-3.096-13.687-4.63-20.591c-1.491-6.913-2.991-13.823-4.393-20.643c-1.424-6.814-2.772-13.532-4.043-20.041
			c-1.279-6.507-2.464-12.808-3.564-18.788c-1.106-5.979-2.074-11.649-2.967-16.883c-0.922-5.228-1.678-10.039-2.351-14.303
			c-0.697-4.259-1.221-7.99-1.673-11.058c-0.464-3.066-0.756-5.49-0.987-7.136C1375.345,489.445,1375.233,488.565,1375.233,488.565z
			"/>
	</g>
	<g>
		<path style="fill:#FEC465;" d="M1377.169,400.845c0,0,0.283,1.29,0.813,3.708c0.508,2.422,1.3,5.966,2.215,10.492
			c0.927,4.524,2.078,10.014,3.301,16.326c1.248,6.308,2.658,13.425,4.098,21.204c1.471,7.774,3.064,16.196,4.637,25.121
			c1.596,8.922,3.322,18.324,4.948,28.074c1.642,9.749,3.423,19.809,5.079,30.055c1.649,10.248,3.324,20.658,4.999,31.068
			c1.594,10.423,3.189,20.846,4.759,31.106c1.55,10.263,3.004,20.375,4.394,30.162c1.404,9.786,2.656,19.262,3.861,28.245
			c0.597,4.492,1.178,8.862,1.74,13.089c0.531,4.232,1.043,8.321,1.536,12.246c1.008,7.847,1.848,15.053,2.587,21.441
			c0.766,6.384,1.352,11.962,1.852,16.553c0.513,4.589,0.844,8.206,1.1,10.667c0.235,2.465,0.36,3.779,0.36,3.779
			s-0.283-1.29-0.814-3.708c-0.509-2.422-1.302-5.966-2.218-10.492c-0.93-4.524-2.079-10.013-3.304-16.325
			c-1.252-6.308-2.659-13.425-4.101-21.203c-0.733-3.887-1.497-7.937-2.287-12.128c-0.759-4.196-1.544-8.534-2.351-12.993
			c-1.603-8.921-3.312-18.325-4.971-28.071c-1.673-9.744-3.385-19.814-5.051-30.059c-1.647-10.248-3.32-20.659-4.993-31.069
			c-1.593-10.423-3.185-20.846-4.753-31.107c-1.561-10.261-2.944-20.384-4.366-30.167c-1.437-9.781-2.673-19.259-3.885-28.241
			c-1.235-8.978-2.297-17.484-3.276-25.335c-1.01-7.846-1.847-15.053-2.59-21.44c-0.768-6.383-1.353-11.962-1.856-16.552
			c-0.514-4.589-0.845-8.206-1.103-10.667C1377.295,402.159,1377.169,400.845,1377.169,400.845z"/>
	</g>
	<g>
		<path style="fill:#FEC465;" d="M1405.245,383.301c0,0,0.166,1.489,0.478,4.282c0.289,2.794,0.761,6.889,1.268,12.106
			c0.519,5.216,1.174,11.549,1.828,18.819c0.679,7.268,1.447,15.468,2.187,24.42c0.77,8.949,1.604,18.645,2.373,28.906
			c0.792,10.26,1.671,21.077,2.418,32.276c0.392,5.599,0.79,11.29,1.194,17.052c0.411,5.761,0.814,11.594,1.162,17.476
			c0.731,11.762,1.473,23.712,2.216,35.661c0.651,11.955,1.301,23.909,1.942,35.677c0.16,2.942,0.318,5.872,0.476,8.788
			c0.135,2.917,0.27,5.819,0.404,8.704c0.268,5.77,0.532,11.469,0.792,17.076c0.555,11.211,0.948,22.056,1.346,32.339
			c0.193,5.142,0.381,10.143,0.562,14.981c0.15,4.84,0.295,9.516,0.435,14.005c0.303,8.977,0.494,17.21,0.66,24.509
			c0.192,7.297,0.277,13.663,0.365,18.904c0.1,5.241,0.106,9.363,0.142,12.172c0.013,2.81,0.021,4.309,0.021,4.309
			s-0.167-1.489-0.48-4.282c-0.291-2.794-0.763-6.889-1.271-12.106c-0.521-5.216-1.176-11.549-1.832-18.819
			c-0.683-7.268-1.448-15.468-2.189-24.419c-0.383-4.475-0.781-9.136-1.194-13.961c-0.381-4.826-0.775-9.816-1.18-14.945
			c-0.799-10.259-1.667-21.077-2.416-32.276c-0.392-5.599-0.791-11.29-1.195-17.052c-0.202-2.881-0.405-5.779-0.609-8.692
			c-0.181-2.914-0.364-5.843-0.547-8.784c-0.729-11.763-1.471-23.712-2.212-35.661c-0.649-11.955-1.299-23.909-1.938-35.677
			c-0.337-5.883-0.614-11.722-0.874-17.493c-0.268-5.77-0.533-11.469-0.793-17.076c-0.557-11.21-0.94-22.056-1.344-32.339
			c-0.428-10.281-0.724-20.008-0.998-28.986c-0.305-8.977-0.493-17.21-0.662-24.508c-0.194-7.297-0.278-13.663-0.368-18.904
			c-0.102-5.241-0.108-9.363-0.145-12.171C1405.253,384.799,1405.245,383.301,1405.245,383.301z"/>
	</g>
	<g>
		<path style="fill:#FEC465;" d="M1425.576,349.967c0,0,0.095,1.596,0.272,4.589c0.155,2.993,0.43,7.382,0.686,12.969
			c0.268,5.587,0.618,12.37,0.922,20.152c0.329,7.782,0.703,16.561,1.011,26.14c0.339,9.578,0.707,19.955,0.982,30.931
			c0.299,10.976,0.656,22.55,0.865,34.525c0.123,5.987,0.247,12.074,0.373,18.236c0.134,6.162,0.256,12.399,0.322,18.686
			c0.165,12.574,0.333,25.348,0.5,38.122c0.076,12.775,0.151,25.549,0.226,38.124c0.018,3.144,0.036,6.275,0.054,9.391
			c-0.005,3.116-0.01,6.216-0.015,9.298c-0.01,6.163-0.02,12.252-0.029,18.24c0.016,11.977-0.112,23.556-0.209,34.536
			c-0.054,5.49-0.107,10.83-0.158,15.996c-0.082,5.166-0.162,10.157-0.239,14.948c-0.129,9.583-0.333,18.368-0.518,26.155
			c-0.158,7.786-0.379,14.576-0.544,20.166c-0.151,5.591-0.343,9.984-0.443,12.979c-0.122,2.995-0.187,4.593-0.187,4.593
			s-0.095-1.596-0.273-4.589c-0.156-2.993-0.431-7.382-0.689-12.969c-0.27-5.587-0.62-12.37-0.926-20.152
			c-0.333-7.782-0.703-16.562-1.014-26.14c-0.167-4.789-0.341-9.778-0.522-14.941c-0.149-5.164-0.302-10.502-0.461-15.99
			c-0.305-10.976-0.653-22.55-0.863-34.525c-0.123-5.987-0.248-12.074-0.375-18.236c-0.063-3.081-0.127-6.181-0.191-9.296
			c-0.041-3.115-0.083-6.247-0.124-9.39c-0.164-12.574-0.33-25.348-0.496-38.122c-0.074-12.775-0.149-25.549-0.222-38.125
			c-0.054-6.287-0.05-12.525-0.032-18.689c0.009-6.163,0.019-12.252,0.028-18.24c-0.018-11.977,0.12-23.556,0.211-34.536
			c0.067-10.979,0.238-21.361,0.396-30.944c0.127-9.583,0.334-18.368,0.516-26.155c0.157-7.786,0.379-14.576,0.541-20.166
			c0.15-5.591,0.342-9.984,0.44-12.979C1425.512,351.564,1425.576,349.967,1425.576,349.967z"/>
	</g>
	<g>
		<path style="fill:#FEC465;" d="M1436.226,388.564c0,0,0.072,1.529,0.207,4.395c0.112,2.866,0.325,7.07,0.501,12.42
			c0.188,5.35,0.443,11.846,0.636,19.298c0.219,7.452,0.467,15.858,0.64,25.029c0.203,9.171,0.423,19.106,0.542,29.613
			c0.143,10.508,0.336,21.589,0.375,33.051c0.037,5.731,0.076,11.558,0.114,17.457c0.047,5.898,0.08,11.869,0.056,17.886
			c-0.014,12.035-0.028,24.261-0.041,36.488c-0.106,12.226-0.212,24.452-0.316,36.486c-0.027,3.009-0.053,6.005-0.08,8.987
			c-0.049,2.982-0.098,5.948-0.147,8.897c-0.097,5.898-0.194,11.724-0.288,17.455c-0.154,11.461-0.447,22.54-0.7,33.046
			c-0.132,5.253-0.261,10.362-0.385,15.305c-0.156,4.942-0.306,9.717-0.451,14.302c-0.265,9.168-0.594,17.572-0.89,25.021
			c-0.269,7.449-0.587,13.943-0.83,19.291c-0.231,5.348-0.485,9.549-0.627,12.414c-0.164,2.865-0.252,4.393-0.252,4.393
			s-0.073-1.529-0.208-4.395c-0.114-2.866-0.326-7.07-0.504-12.42c-0.191-5.35-0.444-11.846-0.639-19.298
			c-0.222-7.451-0.468-15.858-0.642-25.029c-0.099-4.585-0.203-9.362-0.309-14.305c-0.075-4.943-0.153-10.054-0.233-15.308
			c-0.149-10.508-0.332-21.589-0.373-33.051c-0.038-5.731-0.077-11.558-0.115-17.457c-0.02-2.949-0.039-5.916-0.059-8.898
			c0.003-2.982,0.006-5.979,0.009-8.988c0.015-12.035,0.03-24.261,0.045-36.488c0.107-12.226,0.214-24.452,0.32-36.486
			c0.036-6.017,0.128-11.987,0.233-17.885c0.097-5.898,0.193-11.724,0.287-17.455c0.152-11.461,0.455-22.54,0.702-33.046
			c0.223-10.506,0.541-20.438,0.835-29.607c0.263-9.168,0.595-17.572,0.887-25.021c0.267-7.449,0.586-13.943,0.827-19.291
			c0.229-5.348,0.484-9.549,0.624-12.414C1436.139,390.092,1436.226,388.564,1436.226,388.564z"/>
	</g>
	<g>
		<polygon style="fill:#FEC465;" points="1459.461,383.301 1457.396,409.787 1455.234,436.263 1450.756,489.199 1446.083,542.117 
			1441.256,595.018 1438.825,621.467 1436.316,647.908 1431.271,700.788 1420.841,806.513 1412.917,805.474 1430.067,700.682 
			1438.817,648.314 1443.2,622.132 1447.667,595.963 1456.631,543.63 1465.752,491.322 1475.067,439.045 1479.801,412.919 
			1484.633,386.809 1480.994,413.112 1477.256,439.399 1469.629,491.948 1461.807,544.466 1453.829,596.959 1449.824,623.203 
			1445.736,649.433 1437.544,701.891 1420.81,806.75 1412.885,805.711 1423.755,700.031 1429.359,647.207 1432.174,620.797 
			1435.068,594.395 1440.89,541.593 1446.868,488.808 1453.039,436.042 1456.201,409.666 		"/>
	</g>
	<g>
		<path style="fill:#FEC465;" d="M1999.235,698.877c0,0-0.254-0.559-0.73-1.608c-0.454-1.055-1.166-2.589-1.982-4.569
			c-0.828-1.976-1.857-4.368-2.944-7.141c-1.111-2.765-2.366-5.884-3.641-9.316c-1.303-3.423-2.714-7.131-4.126-11.078
			c-1.417-3.945-2.889-8.113-4.358-12.44c-1.477-4.325-2.969-8.804-4.433-13.372c-1.485-4.561-2.919-9.218-4.363-13.871
			c-1.401-4.667-2.817-9.329-4.13-13.942c-1.344-4.604-2.596-9.157-3.792-13.568c-1.197-4.41-2.304-8.689-3.331-12.753
			c-1.03-4.063-1.933-7.927-2.76-11.495c-0.856-3.559-1.559-6.847-2.178-9.762c-0.645-2.908-1.127-5.467-1.541-7.569
			c-0.427-2.099-0.692-3.769-0.903-4.898c-0.19-1.136-0.291-1.742-0.291-1.742s0.254,0.559,0.731,1.608
			c0.456,1.055,1.168,2.589,1.985,4.568c0.83,1.975,1.858,4.368,2.947,7.14c1.115,2.764,2.367,5.884,3.643,9.315
			c1.307,3.422,2.714,7.131,4.128,11.078c1.417,3.945,2.887,8.113,4.356,12.441c1.47,4.327,2.973,8.803,4.428,13.374
			c1.486,4.561,2.914,9.219,4.357,13.873c1.4,4.667,2.81,9.33,4.125,13.944c1.336,4.607,2.598,9.156,3.788,13.569
			c1.197,4.41,2.303,8.689,3.33,12.754c1.032,4.063,1.931,7.927,2.762,11.494c0.858,3.559,1.558,6.847,2.18,9.762
			c0.646,2.907,1.128,5.466,1.544,7.568c0.428,2.098,0.694,3.768,0.906,4.897C1999.133,698.271,1999.235,698.877,1999.235,698.877z"
			/>
	</g>
	<g>
		<path style="fill:#FEC465;" d="M1955.668,500.629c0,0,0.267,0.846,0.767,2.434c0.478,1.592,1.226,3.917,2.086,6.896
			c0.872,2.976,1.955,6.585,3.102,10.745c1.171,4.155,2.495,8.842,3.842,13.976c1.376,5.128,2.866,10.684,4.36,16.578
			c1.5,5.893,3.057,12.112,4.614,18.558c1.565,6.444,3.148,13.11,4.702,19.896c1.577,6.781,3.101,13.686,4.636,20.589
			c1.492,6.913,2.997,13.822,4.399,20.641c1.432,6.812,2.769,13.533,4.048,20.039c1.279,6.507,2.465,12.808,3.566,18.788
			c1.104,5.979,2.076,11.649,2.965,16.883c0.92,5.228,1.679,10.039,2.348,14.304c0.695,4.259,1.22,7.99,1.669,11.059
			c0.462,3.066,0.754,5.49,0.984,7.137c0.208,1.651,0.319,2.532,0.319,2.532s-0.267-0.846-0.768-2.433
			c-0.479-1.592-1.228-3.916-2.089-6.895c-0.874-2.976-1.957-6.585-3.105-10.745c-1.175-4.154-2.496-8.842-3.845-13.976
			c-1.38-5.127-2.866-10.684-4.362-16.577c-1.499-5.893-3.055-12.113-4.612-18.558c-1.558-6.446-3.151-13.11-4.698-19.897
			c-1.577-6.781-3.096-13.687-4.63-20.591c-1.491-6.913-2.991-13.823-4.393-20.643c-1.424-6.814-2.772-13.532-4.043-20.041
			c-1.279-6.507-2.464-12.808-3.564-18.788c-1.106-5.979-2.074-11.649-2.967-16.883c-0.922-5.228-1.678-10.039-2.35-14.303
			c-0.697-4.259-1.221-7.99-1.673-11.058c-0.464-3.066-0.756-5.49-0.987-7.136C1955.78,501.51,1955.668,500.629,1955.668,500.629z"
			/>
	</g>
	<g>
		<path style="fill:#FEC465;" d="M1957.605,412.909c0,0,0.283,1.29,0.813,3.708c0.508,2.422,1.3,5.966,2.215,10.492
			c0.927,4.524,2.078,10.014,3.301,16.326c1.248,6.308,2.658,13.425,4.098,21.204c1.471,7.774,3.064,16.196,4.637,25.121
			c1.597,8.922,3.322,18.323,4.948,28.074c1.642,9.748,3.423,19.808,5.079,30.055c1.649,10.248,3.324,20.658,4.999,31.068
			c1.594,10.423,3.189,20.846,4.759,31.106c1.55,10.263,3.004,20.375,4.394,30.163c1.404,9.786,2.656,19.262,3.861,28.245
			c0.597,4.492,1.178,8.862,1.74,13.089c0.531,4.232,1.043,8.321,1.536,12.246c1.008,7.847,1.848,15.053,2.587,21.441
			c0.766,6.384,1.352,11.962,1.852,16.553c0.513,4.589,0.844,8.206,1.1,10.667c0.235,2.465,0.36,3.779,0.36,3.779
			s-0.283-1.29-0.814-3.708c-0.509-2.422-1.302-5.966-2.218-10.492c-0.93-4.524-2.079-10.013-3.304-16.325
			c-1.252-6.307-2.659-13.425-4.101-21.203c-0.733-3.887-1.497-7.937-2.287-12.128c-0.759-4.196-1.544-8.534-2.351-12.993
			c-1.603-8.921-3.312-18.325-4.971-28.071c-1.673-9.744-3.385-19.814-5.051-30.059c-1.647-10.248-3.32-20.659-4.993-31.069
			c-1.593-10.423-3.185-20.846-4.753-31.107c-1.561-10.261-2.944-20.384-4.366-30.167c-1.437-9.78-2.673-19.259-3.885-28.241
			c-1.235-8.978-2.297-17.484-3.276-25.335c-1.01-7.846-1.847-15.053-2.59-21.44c-0.768-6.383-1.353-11.962-1.856-16.552
			c-0.514-4.589-0.845-8.206-1.103-10.667C1957.73,414.224,1957.605,412.909,1957.605,412.909z"/>
	</g>
	<g>
		<path style="fill:#FEC465;" d="M1985.681,395.365c0,0,0.166,1.489,0.478,4.282c0.289,2.794,0.761,6.889,1.268,12.106
			c0.519,5.216,1.174,11.549,1.828,18.819c0.679,7.268,1.447,15.468,2.187,24.42c0.77,8.949,1.604,18.645,2.373,28.906
			c0.792,10.26,1.671,21.077,2.418,32.276c0.392,5.599,0.79,11.291,1.194,17.052c0.411,5.761,0.814,11.594,1.162,17.476
			c0.731,11.762,1.473,23.712,2.216,35.661c0.651,11.954,1.301,23.909,1.942,35.677c0.16,2.942,0.318,5.872,0.476,8.788
			c0.135,2.917,0.27,5.819,0.404,8.704c0.268,5.77,0.532,11.469,0.792,17.076c0.555,11.211,0.948,22.056,1.346,32.339
			c0.193,5.142,0.381,10.143,0.562,14.981c0.15,4.84,0.295,9.516,0.435,14.005c0.303,8.977,0.494,17.21,0.66,24.509
			c0.192,7.297,0.277,13.663,0.364,18.904c0.1,5.241,0.106,9.363,0.142,12.172c0.013,2.81,0.021,4.308,0.021,4.308
			s-0.167-1.489-0.48-4.282c-0.291-2.794-0.763-6.889-1.271-12.106c-0.521-5.216-1.176-11.549-1.832-18.819
			c-0.683-7.268-1.448-15.468-2.189-24.419c-0.383-4.475-0.781-9.136-1.194-13.961c-0.381-4.826-0.775-9.816-1.18-14.945
			c-0.799-10.26-1.667-21.077-2.416-32.276c-0.392-5.599-0.791-11.29-1.195-17.052c-0.202-2.881-0.405-5.779-0.609-8.692
			c-0.181-2.914-0.364-5.843-0.547-8.784c-0.729-11.763-1.471-23.712-2.212-35.661c-0.649-11.955-1.298-23.909-1.938-35.677
			c-0.337-5.883-0.614-11.723-0.874-17.493c-0.268-5.77-0.533-11.469-0.793-17.076c-0.557-11.21-0.94-22.056-1.344-32.339
			c-0.428-10.281-0.724-20.008-0.998-28.986c-0.305-8.977-0.493-17.21-0.662-24.508c-0.194-7.297-0.278-13.663-0.368-18.904
			c-0.102-5.241-0.108-9.363-0.145-12.171C1985.688,396.864,1985.681,395.365,1985.681,395.365z"/>
	</g>
	<g>
		<path style="fill:#FEC465;" d="M2006.012,362.031c0,0,0.095,1.596,0.272,4.589c0.155,2.993,0.43,7.382,0.686,12.969
			c0.268,5.587,0.618,12.37,0.922,20.152c0.329,7.782,0.703,16.561,1.011,26.14c0.339,9.578,0.707,19.955,0.982,30.931
			c0.299,10.976,0.656,22.55,0.865,34.525c0.123,5.987,0.247,12.074,0.373,18.236c0.134,6.162,0.256,12.399,0.322,18.686
			c0.165,12.574,0.333,25.348,0.5,38.122c0.076,12.775,0.151,25.549,0.226,38.124c0.018,3.144,0.036,6.275,0.054,9.391
			c-0.005,3.116-0.01,6.216-0.015,9.298c-0.01,6.163-0.02,12.252-0.029,18.24c0.016,11.977-0.112,23.556-0.209,34.536
			c-0.054,5.49-0.107,10.83-0.158,15.996c-0.082,5.166-0.162,10.157-0.239,14.948c-0.129,9.583-0.333,18.368-0.518,26.155
			c-0.158,7.787-0.38,14.576-0.544,20.166c-0.151,5.591-0.343,9.984-0.443,12.979c-0.122,2.995-0.186,4.593-0.186,4.593
			s-0.095-1.596-0.274-4.589c-0.156-2.993-0.431-7.382-0.689-12.969c-0.27-5.587-0.62-12.37-0.926-20.152
			c-0.333-7.782-0.703-16.561-1.014-26.14c-0.167-4.789-0.341-9.778-0.522-14.941c-0.149-5.164-0.303-10.502-0.461-15.99
			c-0.305-10.976-0.653-22.55-0.863-34.525c-0.123-5.987-0.248-12.074-0.375-18.236c-0.063-3.081-0.127-6.181-0.191-9.296
			c-0.041-3.115-0.083-6.247-0.124-9.39c-0.164-12.574-0.33-25.348-0.496-38.122c-0.074-12.775-0.149-25.549-0.222-38.125
			c-0.054-6.287-0.05-12.525-0.032-18.689c0.01-6.163,0.019-12.252,0.028-18.24c-0.018-11.977,0.12-23.556,0.211-34.536
			c0.067-10.979,0.238-21.361,0.396-30.944c0.127-9.583,0.334-18.368,0.516-26.155c0.157-7.786,0.379-14.576,0.54-20.166
			c0.15-5.591,0.342-9.984,0.44-12.979C2005.947,363.629,2006.012,362.031,2006.012,362.031z"/>
	</g>
	<g>
		<path style="fill:#FEC465;" d="M2016.661,400.628c0,0,0.072,1.529,0.207,4.395c0.112,2.866,0.325,7.07,0.501,12.42
			c0.188,5.35,0.443,11.846,0.636,19.298c0.219,7.452,0.467,15.858,0.64,25.029c0.203,9.171,0.423,19.106,0.542,29.613
			c0.143,10.508,0.336,21.589,0.375,33.051c0.038,5.731,0.076,11.558,0.114,17.456c0.047,5.898,0.08,11.869,0.056,17.886
			c-0.014,12.035-0.028,24.261-0.041,36.488c-0.106,12.226-0.212,24.452-0.316,36.486c-0.027,3.009-0.053,6.005-0.08,8.987
			c-0.049,2.982-0.098,5.948-0.147,8.897c-0.097,5.898-0.194,11.724-0.288,17.454c-0.154,11.461-0.447,22.54-0.7,33.046
			c-0.132,5.253-0.261,10.362-0.385,15.305c-0.156,4.942-0.306,9.718-0.451,14.302c-0.265,9.168-0.594,17.572-0.89,25.021
			c-0.269,7.449-0.586,13.943-0.83,19.291c-0.231,5.348-0.485,9.549-0.627,12.414c-0.164,2.865-0.252,4.393-0.252,4.393
			s-0.073-1.529-0.208-4.395c-0.114-2.866-0.326-7.07-0.504-12.42c-0.191-5.35-0.444-11.846-0.639-19.298
			c-0.222-7.451-0.468-15.858-0.642-25.029c-0.099-4.585-0.203-9.362-0.309-14.305c-0.075-4.943-0.153-10.054-0.233-15.308
			c-0.149-10.508-0.332-21.589-0.373-33.051c-0.038-5.731-0.077-11.558-0.116-17.456c-0.02-2.949-0.039-5.916-0.059-8.898
			c0.003-2.982,0.006-5.979,0.009-8.988c0.015-12.035,0.03-24.261,0.045-36.488c0.107-12.226,0.214-24.452,0.32-36.486
			c0.036-6.017,0.128-11.987,0.233-17.885c0.097-5.898,0.193-11.724,0.287-17.454c0.152-11.461,0.455-22.54,0.702-33.046
			c0.223-10.506,0.541-20.438,0.835-29.606c0.263-9.168,0.595-17.572,0.887-25.021c0.267-7.449,0.586-13.943,0.827-19.291
			c0.229-5.348,0.484-9.549,0.624-12.414C2016.574,402.156,2016.661,400.628,2016.661,400.628z"/>
	</g>
	<g>
		<polygon style="fill:#FEC465;" points="2039.896,395.365 2037.832,421.851 2035.669,448.327 2031.191,501.264 2026.519,554.181 
			2021.692,607.083 2019.261,633.532 2016.751,659.973 2011.706,712.852 2001.276,818.577 1993.352,817.539 2010.502,712.747 
			2019.253,660.379 2023.635,634.196 2028.102,608.027 2037.067,555.694 2046.187,503.386 2055.502,451.11 2060.236,424.984 
			2065.068,398.874 2061.429,425.177 2057.691,451.464 2050.064,504.013 2042.242,556.531 2034.264,609.023 2030.26,635.267 
			2026.171,661.497 2017.979,713.955 2001.245,818.814 1993.321,817.776 2004.19,712.095 2009.794,659.272 2012.609,632.861 
			2015.503,606.459 2021.326,553.658 2027.303,500.872 2033.474,448.106 2036.636,421.731 		"/>
	</g>
	<g>
		<path style="fill:#FEC465;" d="M1492.378,404.353c0,0-0.111,1.178-0.318,3.386c-0.23,2.205-0.519,5.446-0.981,9.556
			c-0.45,4.112-0.971,9.109-1.665,14.826c-0.67,5.72-1.423,12.175-2.343,19.2c-0.889,7.03-1.852,14.646-2.984,22.683
			c-1.108,8.041-2.234,16.527-3.558,25.28c-1.308,8.756-2.575,17.817-4.016,26.999c-1.401,9.189-2.901,18.511-4.392,27.835
			c-1.534,9.317-3.054,18.636-4.631,27.796c-1.547,9.165-3.142,18.173-4.701,26.888c-1.546,8.717-3.145,17.126-4.643,25.104
			c-0.755,3.988-1.489,7.867-2.199,11.619c-0.741,3.747-1.458,7.368-2.145,10.843c-1.351,6.955-2.675,13.317-3.853,18.955
			c-1.151,5.642-2.236,10.548-3.113,14.591c-0.864,4.045-1.614,7.211-2.095,9.375c-0.503,2.16-0.771,3.313-0.771,3.313
			s0.11-1.178,0.317-3.386c0.228-2.205,0.518-5.446,0.978-9.557c0.447-4.112,0.969-9.109,1.662-14.826
			c0.666-5.721,1.422-12.175,2.34-19.2c0.447-3.515,0.912-7.176,1.394-10.965c0.513-3.784,1.043-7.696,1.589-11.718
			c1.102-8.042,2.244-16.525,3.535-25.284c1.277-8.761,2.613-17.811,4.044-26.995c1.4-9.189,2.906-18.51,4.397-27.834
			c1.535-9.317,3.06-18.635,4.637-27.795c1.537-9.167,3.201-18.164,4.729-26.884c1.513-8.723,3.128-17.129,4.62-25.108
			c1.469-7.982,2.963-15.512,4.343-22.462c1.349-6.955,2.676-13.317,3.85-18.955c1.149-5.643,2.235-10.548,3.109-14.591
			c0.862-4.045,1.612-7.212,2.092-9.376C1492.11,405.506,1492.378,404.353,1492.378,404.353z"/>
	</g>
	<g>
		<path style="fill:#FEC465;" d="M1510.772,385.055c0,0-0.068,1.318-0.197,3.789c-0.151,2.468-0.325,6.094-0.639,10.698
			c-0.303,4.605-0.645,10.2-1.135,16.607c-0.465,6.41-0.988,13.641-1.656,21.52c-0.638,7.881-1.329,16.42-2.173,25.438
			c-0.82,9.021-1.643,18.538-2.655,28.366c-0.995,9.83-1.938,19.996-3.052,30.31c-1.121,10.312-2.259,20.789-3.398,31.265
			c-1.219,10.467-2.439,20.934-3.639,31.238c-1.22,10.301-2.493,20.431-3.741,30.232c-1.235,9.803-2.534,19.267-3.747,28.243
			c-0.612,4.488-1.208,8.853-1.784,13.075c-0.608,4.219-1.195,8.295-1.758,12.208c-1.103,7.829-2.2,14.996-3.176,21.348
			c-0.95,6.355-1.86,11.886-2.592,16.443c-0.719,4.558-1.357,8.132-1.76,10.572c-0.426,2.438-0.653,3.737-0.653,3.737
			s0.068-1.318,0.195-3.789c0.15-2.469,0.323-6.094,0.636-10.699c0.3-4.606,0.643-10.201,1.132-16.608
			c0.461-6.41,0.987-13.642,1.654-21.52c0.321-3.94,0.656-8.045,1.003-12.293c0.378-4.245,0.768-8.633,1.17-13.145
			c0.814-9.021,1.654-18.537,2.631-28.369c0.964-9.833,1.977-19.992,3.08-30.307c1.123-10.312,2.263-20.788,3.404-31.264
			c1.221-10.467,2.443-20.934,3.645-31.237c1.209-10.303,2.552-20.424,3.77-30.229c1.201-9.806,2.517-19.269,3.724-28.246
			c1.184-8.98,2.41-17.458,3.542-25.284c1.101-7.829,2.201-14.996,3.174-21.349c0.948-6.355,1.859-11.886,2.589-16.444
			c0.718-4.559,1.355-8.132,1.758-10.572C1510.546,386.355,1510.772,385.055,1510.772,385.055z"/>
	</g>
	<g>
		<path style="fill:#FEC465;" d="M1470.111,374.529c0,0,0.042,1.339,0.12,3.849c0.056,2.509,0.185,6.191,0.255,10.874
			c0.083,4.683,0.208,10.371,0.254,16.892c0.071,6.522,0.153,13.88,0.144,21.905c0.022,8.025,0.045,16.719-0.044,25.911
			c-0.065,9.193-0.092,18.889-0.28,28.914c-0.172,10.026-0.264,20.388-0.514,30.914c-0.257,10.525-0.518,21.217-0.778,31.909
			c-0.342,10.69-0.684,21.38-1.021,31.902c-0.356,10.522-0.78,20.875-1.207,30.894c-0.413,10.019-0.918,19.701-1.379,28.883
			c-0.236,4.591-0.466,9.056-0.688,13.376c-0.254,4.319-0.499,8.491-0.734,12.497c-0.446,8.012-0.941,15.354-1.385,21.861
			c-0.416,6.508-0.862,12.18-1.212,16.851c-0.337,4.672-0.674,8.34-0.873,10.842c-0.221,2.501-0.339,3.836-0.339,3.836
			s-0.042-1.339-0.121-3.849c-0.057-2.509-0.186-6.191-0.258-10.874c-0.085-4.683-0.209-10.371-0.257-16.892
			c-0.075-6.522-0.154-13.88-0.146-21.905c-0.008-4.013-0.017-8.192-0.026-12.518c0.023-4.325,0.046-8.797,0.07-13.393
			c0.059-9.193,0.102-18.888,0.256-28.915c0.141-10.027,0.303-20.387,0.542-30.913c0.259-10.525,0.522-21.217,0.784-31.909
			c0.344-10.69,0.688-21.38,1.027-31.902c0.346-10.522,0.84-20.874,1.235-30.893c0.379-10.02,0.901-19.702,1.356-28.884
			c0.431-9.183,0.946-17.861,1.421-25.873c0.445-8.012,0.943-15.354,1.382-21.861c0.415-6.508,0.862-12.18,1.209-16.851
			c0.335-4.672,0.672-8.34,0.87-10.842C1469.993,375.863,1470.111,374.529,1470.111,374.529z"/>
	</g>
	<g>
		<path style="fill:#FEC465;" d="M1542.721,358.739c0,0-0.145,1.295-0.416,3.724c-0.294,2.425-0.677,5.989-1.258,10.509
			c-0.569,4.522-1.236,10.018-2.096,16.305c-0.836,6.291-1.777,13.39-2.901,21.116c-1.094,7.732-2.279,16.108-3.645,24.948
			c-1.342,8.844-2.716,18.178-4.295,27.806c-1.563,9.631-3.094,19.597-4.804,29.698c-1.717,10.099-3.461,20.359-5.204,30.618
			c-1.824,10.245-3.648,20.491-5.444,30.576c-1.815,10.082-3.673,19.992-5.488,29.578c-1.801,9.589-3.646,18.841-5.378,27.617
			c-0.872,4.387-1.719,8.655-2.539,12.782c-0.851,4.122-1.673,8.105-2.463,11.929c-1.555,7.652-3.065,14.651-4.408,20.854
			c-1.317,6.208-2.546,11.605-3.541,16.053c-0.982,4.45-1.826,7.934-2.37,10.315c-0.566,2.377-0.868,3.645-0.868,3.645
			s0.144-1.295,0.415-3.724c0.292-2.425,0.676-5.989,1.256-10.51c0.567-4.523,1.234-10.018,2.093-16.305
			c0.832-6.292,1.776-13.39,2.899-21.117c0.549-3.866,1.122-7.892,1.714-12.06c0.623-4.162,1.268-8.465,1.93-12.888
			c1.336-8.845,2.726-18.176,4.272-27.81c1.532-9.636,3.133-19.59,4.832-29.693c1.719-10.099,3.464-20.358,5.21-30.617
			c1.826-10.245,3.652-20.49,5.45-30.575c1.805-10.084,3.732-19.981,5.516-29.574c1.768-9.595,3.629-18.844,5.355-27.621
			c1.702-8.781,3.418-17.065,5.001-24.712c1.553-7.652,3.066-14.651,4.406-20.854c1.315-6.208,2.545-11.605,3.538-16.054
			c0.981-4.451,1.824-7.935,2.367-10.316C1542.419,360.007,1542.721,358.739,1542.721,358.739z"/>
	</g>
	<g>
		<path style="fill:#FEC465;" d="M1523.358,383.301c0,0-0.133,1.417-0.383,4.073c-0.272,2.653-0.624,6.551-1.164,11.499
			c-0.529,4.949-1.146,10.963-1.95,17.846c-0.78,6.887-1.658,14.657-2.713,23.119c-1.025,8.466-2.135,17.638-3.422,27.323
			c-1.263,9.688-2.554,19.91-4.048,30.461c-0.729,5.278-1.47,10.644-2.22,16.076c-0.742,5.433-1.507,10.931-2.336,16.463
			c-1.622,11.07-3.271,22.317-4.919,33.563c-1.739,11.232-3.478,22.465-5.19,33.522c-0.429,2.764-0.855,5.517-1.28,8.257
			c-0.447,2.736-0.892,5.458-1.335,8.164c-0.885,5.412-1.759,10.758-2.619,16.016c-1.685,10.522-3.455,20.672-5.11,30.301
			c-0.833,4.813-1.643,9.496-2.427,14.025c-0.815,4.524-1.602,8.896-2.358,13.092c-1.488,8.397-2.937,16.081-4.225,22.891
			c-1.262,6.814-2.444,12.742-3.4,17.627c-0.943,4.887-1.757,8.715-2.28,11.33c-0.545,2.612-0.836,4.005-0.836,4.005
			s0.133-1.417,0.381-4.073c0.271-2.653,0.622-6.552,1.161-11.499c0.526-4.95,1.144-10.963,1.947-17.846
			c0.776-6.887,1.657-14.657,2.71-23.119c0.515-4.233,1.051-8.642,1.606-13.206c0.586-4.559,1.192-9.272,1.815-14.117
			c1.257-9.689,2.557-19.91,4.049-30.461c0.729-5.278,1.469-10.644,2.219-16.077c0.375-2.716,0.752-5.449,1.131-8.195
			c0.402-2.743,0.805-5.5,1.211-8.267c1.624-11.07,3.273-22.316,4.922-33.562c1.74-11.232,3.481-22.464,5.194-33.521
			c0.84-5.531,1.729-11.009,2.621-16.42c0.884-5.412,1.758-10.758,2.617-16.017c1.683-10.522,3.463-20.671,5.112-30.301
			c1.625-9.633,3.268-18.725,4.784-27.117c1.486-8.397,2.938-16.081,4.223-22.891c1.26-6.815,2.443-12.743,3.397-17.628
			c0.942-4.887,1.755-8.716,2.277-11.331C1523.068,384.694,1523.358,383.301,1523.358,383.301z"/>
	</g>
	<g>
		<path style="fill:#FEC465;" d="M1494.314,365.757c0,0,0.181,1.296,0.521,3.726c0.318,2.432,0.831,5.994,1.391,10.536
			c0.572,4.541,1.291,10.052,2.018,16.382c0.753,6.328,1.604,13.467,2.433,21.262c0.861,7.793,1.793,16.236,2.665,25.174
			c0.896,8.937,1.884,18.357,2.745,28.116c0.877,9.757,1.869,19.833,2.721,30.083c0.845,10.251,1.703,20.664,2.562,31.078
			c0.777,10.42,1.555,20.84,2.32,31.097c0.746,10.259,1.406,20.36,2.03,30.137c0.637,9.776,1.147,19.234,1.648,28.202
			c0.245,4.484,0.484,8.846,0.714,13.066c0.199,4.222,0.392,8.301,0.577,12.217c0.394,7.83,0.669,15.014,0.908,21.382
			c0.266,6.366,0.416,11.922,0.556,16.496c0.154,4.573,0.202,8.172,0.266,10.624c0.042,2.453,0.064,3.761,0.064,3.761
			s-0.182-1.296-0.523-3.726c-0.319-2.431-0.833-5.994-1.394-10.535c-0.574-4.54-1.293-10.052-2.022-16.381
			c-0.756-6.328-1.604-13.467-2.436-21.262c-0.428-3.897-0.874-7.956-1.335-12.157c-0.43-4.204-0.874-8.55-1.331-13.017
			c-0.902-8.936-1.873-18.358-2.768-28.114c-0.909-9.755-1.83-19.836-2.693-30.085c-0.843-10.251-1.699-20.665-2.556-31.078
			c-0.775-10.42-1.551-20.84-2.314-31.097c-0.756-10.258-1.347-20.365-2.001-30.139c-0.671-9.773-1.164-19.233-1.672-28.2
			c-0.532-8.965-0.927-17.45-1.292-25.282c-0.396-7.83-0.668-15.014-0.911-21.381c-0.268-6.366-0.417-11.922-0.56-16.496
			c-0.155-4.573-0.203-8.172-0.269-10.624C1494.337,367.065,1494.314,365.757,1494.314,365.757z"/>
	</g>
	<g>
		<path style="fill:#FEC465;" d="M1915.23,380.502c0,0,0.181,1.296,0.521,3.726c0.318,2.432,0.831,5.994,1.391,10.536
			c0.572,4.541,1.291,10.052,2.018,16.382c0.752,6.328,1.604,13.467,2.433,21.262c0.861,7.793,1.793,16.236,2.665,25.174
			c0.896,8.937,1.884,18.358,2.745,28.116c0.877,9.757,1.869,19.833,2.721,30.083c0.845,10.251,1.703,20.664,2.562,31.078
			c0.777,10.42,1.555,20.84,2.32,31.097c0.746,10.259,1.406,20.36,2.03,30.137c0.637,9.776,1.147,19.234,1.648,28.202
			c0.245,4.484,0.484,8.846,0.714,13.066c0.199,4.222,0.392,8.301,0.577,12.217c0.394,7.83,0.669,15.014,0.908,21.382
			c0.266,6.366,0.416,11.922,0.556,16.496c0.154,4.573,0.202,8.172,0.266,10.624c0.042,2.453,0.064,3.761,0.064,3.761
			s-0.182-1.296-0.523-3.726c-0.319-2.431-0.833-5.994-1.394-10.535c-0.574-4.54-1.293-10.052-2.022-16.382
			c-0.756-6.327-1.604-13.466-2.436-21.262c-0.428-3.897-0.874-7.956-1.335-12.157c-0.43-4.204-0.874-8.55-1.331-13.017
			c-0.902-8.936-1.873-18.358-2.768-28.114c-0.908-9.755-1.83-19.836-2.693-30.085c-0.843-10.251-1.699-20.665-2.556-31.078
			c-0.775-10.42-1.551-20.84-2.314-31.097c-0.756-10.258-1.347-20.365-2.001-30.139c-0.671-9.773-1.164-19.233-1.672-28.2
			c-0.532-8.965-0.927-17.45-1.292-25.282c-0.396-7.83-0.668-15.014-0.911-21.382c-0.268-6.366-0.417-11.922-0.56-16.496
			c-0.155-4.573-0.203-8.172-0.269-10.624C1915.253,381.81,1915.23,380.502,1915.23,380.502z"/>
	</g>
	<g>
		<path style="fill:#FEC465;" d="M1515.613,360.493c0,0,0.14,1.36,0.402,3.911c0.24,2.552,0.639,6.292,1.054,11.056
			c0.426,4.764,0.969,10.547,1.495,17.185c0.55,6.637,1.173,14.125,1.754,22.298c0.612,8.172,1.274,17.024,1.86,26.393
			c0.611,9.367,1.297,19.244,1.846,29.468c0.565,10.223,1.235,20.784,1.76,31.521c0.518,10.738,1.043,21.646,1.569,32.555
			c0.444,10.912,0.889,21.824,1.326,32.565c0.418,10.742,0.756,21.317,1.067,31.552c0.325,10.234,0.532,20.132,0.748,29.517
			c0.102,4.693,0.201,9.257,0.297,13.673c0.064,4.417,0.127,8.684,0.187,12.781c0.144,8.192,0.19,15.706,0.226,22.366
			c0.063,6.659,0.035,12.467,0.03,17.25c0.008,4.782-0.059,8.543-0.073,11.106c-0.036,2.564-0.056,3.931-0.056,3.931
			s-0.14-1.36-0.404-3.911c-0.241-2.551-0.641-6.291-1.057-11.056c-0.429-4.764-0.971-10.547-1.498-17.185
			c-0.554-6.637-1.174-14.125-1.756-22.298c-0.303-4.086-0.619-8.342-0.946-12.747c-0.295-4.406-0.601-8.962-0.915-13.645
			c-0.617-9.367-1.286-19.244-1.87-29.467c-0.597-10.222-1.196-20.786-1.732-31.523c-0.516-10.738-1.039-21.646-1.563-32.555
			c-0.442-10.912-0.885-21.824-1.32-32.566c-0.428-10.742-0.696-21.32-1.038-31.553c-0.358-10.233-0.549-20.131-0.771-29.516
			c-0.245-9.384-0.37-18.26-0.484-26.454c-0.146-8.192-0.188-15.706-0.228-22.366c-0.065-6.659-0.036-12.467-0.033-17.25
			c-0.009-4.782,0.058-8.543,0.071-11.106C1515.594,361.861,1515.613,360.493,1515.613,360.493z"/>
	</g>
	<g>
		<path style="fill:#FEC465;" d="M1546.593,392.073c0,0,0.023,1.388,0.065,3.989c0.02,2.601,0.097,6.417,0.101,11.271
			c0.016,4.854,0.061,10.749,0.015,17.507c-0.021,6.759-0.043,14.385-0.166,22.7c-0.092,8.316-0.192,17.325-0.411,26.85
			c-0.195,9.525-0.359,19.572-0.689,29.958c-0.147,5.194-0.296,10.474-0.448,15.82c-0.143,5.346-0.302,10.756-0.519,16.207
			c-0.401,10.904-0.808,21.98-1.215,33.057c-0.499,11.073-0.998,22.146-1.49,33.046c-0.123,2.725-0.246,5.439-0.369,8.14
			c-0.145,2.7-0.29,5.386-0.433,8.056c-0.287,5.34-0.571,10.615-0.85,15.803c-0.523,10.379-1.172,20.405-1.762,29.914
			c-0.301,4.754-0.594,9.379-0.877,13.852c-0.315,4.472-0.619,8.793-0.911,12.941c-0.56,8.297-1.159,15.899-1.694,22.637
			c-0.509,6.739-1.035,12.611-1.451,17.447c-0.403,4.837-0.792,8.634-1.026,11.225c-0.256,2.589-0.393,3.97-0.393,3.97
			s-0.023-1.388-0.067-3.989c-0.021-2.601-0.099-6.417-0.104-11.271c-0.019-4.854-0.063-10.749-0.018-17.507
			c0.018-6.759,0.043-14.385,0.164-22.7c0.048-4.158,0.099-8.489,0.151-12.972c0.084-4.482,0.17-9.115,0.259-13.878
			c0.189-9.526,0.363-19.572,0.691-29.958c0.146-5.194,0.295-10.475,0.446-15.82c0.075-2.673,0.151-5.362,0.227-8.064
			c0.099-2.702,0.199-5.417,0.298-8.143c0.402-10.903,0.811-21.98,1.219-33.057c0.5-11.073,1.001-22.146,1.493-33.045
			c0.229-5.451,0.514-10.856,0.808-16.195c0.287-5.34,0.57-10.615,0.848-15.803c0.521-10.379,1.18-20.405,1.765-29.914
			c0.56-9.51,1.198-18.498,1.787-26.793c0.558-8.297,1.16-15.899,1.692-22.637c0.507-6.739,1.034-12.611,1.447-17.447
			c0.401-4.837,0.79-8.634,1.023-11.225C1546.457,393.454,1546.593,392.073,1546.593,392.073z"/>
	</g>
	<g>
		<path style="fill:#FEC465;" d="M1533.039,369.265c0,0,0.083,1.555,0.24,4.472c0.134,2.917,0.377,7.194,0.593,12.638
			c0.228,5.444,0.53,12.055,0.779,19.638c0.274,7.583,0.585,16.139,0.825,25.472c0.271,9.333,0.565,19.445,0.762,30.139
			c0.221,10.695,0.496,21.973,0.62,33.64c0.08,5.833,0.161,11.764,0.244,17.768c0.091,6.004,0.168,12.08,0.189,18.206
			c0.076,12.251,0.153,24.696,0.229,37.141c-0.015,12.445-0.03,24.891-0.045,37.142c-0.004,3.063-0.009,6.113-0.013,9.149
			c-0.027,3.035-0.054,6.056-0.081,9.058c-0.054,6.004-0.107,11.935-0.159,17.769c-0.069,11.668-0.28,22.947-0.454,33.643
			c-0.093,5.348-0.184,10.55-0.271,15.582c-0.119,5.032-0.234,9.894-0.345,14.561c-0.197,9.334-0.463,17.891-0.704,25.476
			c-0.214,7.584-0.483,14.197-0.687,19.642c-0.191,5.445-0.414,9.724-0.535,12.641c-0.143,2.917-0.219,4.473-0.219,4.473
			s-0.084-1.555-0.241-4.472c-0.135-2.917-0.379-7.194-0.596-12.638c-0.231-5.444-0.532-12.055-0.783-19.638
			c-0.278-7.583-0.586-16.139-0.828-25.472c-0.133-4.667-0.272-9.528-0.416-14.559c-0.112-5.031-0.228-10.233-0.347-15.58
			c-0.227-10.695-0.492-21.973-0.618-33.64c-0.08-5.834-0.162-11.764-0.245-17.768c-0.041-3.002-0.083-6.022-0.125-9.057
			c-0.019-3.035-0.038-6.086-0.057-9.149c-0.074-12.251-0.15-24.696-0.226-37.141c0.016-12.445,0.033-24.891,0.049-37.142
			c-0.009-6.125,0.039-12.202,0.1-18.206c0.053-6.004,0.106-11.935,0.157-17.769c0.067-11.668,0.288-22.947,0.456-33.643
			c0.145-10.696,0.389-20.808,0.615-30.143c0.195-9.334,0.464-17.891,0.702-25.476c0.212-7.584,0.482-14.197,0.684-19.642
			c0.19-5.445,0.413-9.724,0.532-12.641C1532.964,370.821,1533.039,369.265,1533.039,369.265z"/>
	</g>
	<g>
		<path style="fill:#FEC465;" d="M1560.147,378.037c0,0,0.049,1.208,0.142,3.473c0.07,2.265,0.22,5.588,0.317,9.814
			c0.109,4.227,0.266,9.36,0.349,15.246c0.108,5.886,0.232,12.528,0.268,19.77c0.067,7.243,0.14,15.09,0.102,23.386
			c-0.013,8.297,0.015,17.048-0.116,26.097c-0.115,9.049-0.148,18.402-0.339,27.901c-0.149,9.501-0.378,19.15-0.598,28.8
			c-0.264,9.649-0.513,19.298-0.841,28.794c-0.297,9.497-0.662,18.841-1.032,27.884c-0.356,9.043-0.807,17.782-1.216,26.069
			c-0.21,4.143-0.414,8.174-0.612,12.073c-0.229,3.898-0.451,7.664-0.663,11.279c-0.401,7.231-0.854,13.858-1.261,19.732
			c-0.38,5.874-0.793,10.993-1.117,15.209c-0.31,4.216-0.627,7.527-0.811,9.786c-0.207,2.258-0.317,3.462-0.317,3.462
			s-0.05-1.208-0.143-3.473c-0.071-2.265-0.221-5.588-0.32-9.814c-0.111-4.227-0.268-9.36-0.353-15.246
			c-0.112-5.886-0.232-12.528-0.27-19.77c-0.031-3.621-0.063-7.394-0.097-11.298c-0.002-3.904-0.004-7.939-0.006-12.088
			c0.007-8.297-0.005-17.048,0.093-26.097c0.084-9.05,0.188-18.401,0.367-27.901c0.148-9.501,0.383-19.15,0.604-28.8
			c0.265-9.649,0.519-19.297,0.847-28.794c0.286-9.497,0.722-18.84,1.061-27.883c0.323-9.044,0.79-17.782,1.192-26.07
			c0.379-8.288,0.844-16.121,1.275-23.352c0.399-7.231,0.856-13.858,1.259-19.732c0.378-5.874,0.792-10.993,1.113-15.209
			c0.309-4.217,0.625-7.528,0.808-9.786C1560.038,379.242,1560.147,378.037,1560.147,378.037z"/>
	</g>
	<g>
		<path style="fill:#FEC465;" d="M1564.988,662.251c0,0-0.038-1.134-0.109-3.259c-0.048-2.125-0.167-5.243-0.224-9.208
			c-0.069-3.966-0.178-8.782-0.206-14.303c-0.053-5.522-0.114-11.752-0.082-18.544c0.001-6.794,0.002-14.154,0.118-21.934
			c0.091-7.781,0.145-15.988,0.362-24.473c0.2-8.485,0.322-17.256,0.601-26.162c0.238-8.908,0.559-17.955,0.869-27.002
			c0.354-9.045,0.694-18.091,1.112-26.993c0.386-8.903,0.839-17.661,1.294-26.137c0.441-8.476,0.974-16.666,1.461-24.432
			c0.249-3.883,0.491-7.66,0.726-11.314c0.266-3.652,0.523-7.181,0.769-10.569c0.469-6.777,0.985-12.985,1.447-18.488
			c0.435-5.504,0.897-10.299,1.26-14.249c0.35-3.95,0.698-7.051,0.903-9.167c0.228-2.115,0.349-3.243,0.349-3.243
			s0.038,1.134,0.11,3.259c0.05,2.125,0.169,5.243,0.227,9.208c0.072,3.966,0.18,8.782,0.209,14.303
			c0.056,5.522,0.115,11.752,0.084,18.545c-0.003,3.397-0.006,6.935-0.009,10.597c-0.035,3.661-0.071,7.446-0.108,11.337
			c-0.085,7.781-0.156,15.988-0.339,24.474c-0.169,8.486-0.361,17.254-0.63,26.161c-0.238,8.908-0.564,17.955-0.875,27.001
			c-0.355,9.045-0.701,18.091-1.118,26.993c-0.376,8.903-0.899,17.659-1.323,26.136c-0.407,8.477-0.957,16.666-1.438,24.433
			c-0.457,7.768-0.996,15.108-1.494,21.883c-0.467,6.777-0.986,12.985-1.444,18.488c-0.433,5.504-0.896,10.299-1.256,14.249
			c-0.348,3.95-0.696,7.051-0.9,9.167C1565.109,661.123,1564.988,662.251,1564.988,662.251z"/>
	</g>
	<g>
		<path style="fill:#FEC465;" d="M1583.383,655.233c0,0-0.136-1.051-0.391-3.022c-0.233-1.972-0.622-4.862-1.023-8.545
			c-0.413-3.682-0.94-8.152-1.447-13.285c-0.532-5.131-1.134-10.92-1.691-17.241c-0.589-6.319-1.226-13.165-1.787-20.411
			c-0.585-7.245-1.243-14.884-1.764-22.794c-0.537-7.909-1.177-16.078-1.672-24.386c-0.536-8.306-1.002-16.749-1.479-25.191
			c-0.432-8.444-0.879-16.888-1.236-25.204c-0.388-8.314-0.697-16.501-0.98-24.424c-0.296-7.922-0.477-15.586-0.666-22.853
			c-0.089-3.634-0.176-7.168-0.259-10.587c-0.052-3.421-0.103-6.725-0.151-9.898c-0.121-6.344-0.146-12.164-0.164-17.323
			c-0.045-5.157-0.001-9.658,0.018-13.364c0.005-3.705,0.083-6.62,0.104-8.605c0.043-1.987,0.067-3.047,0.067-3.047
			s0.137,1.051,0.393,3.022c0.234,1.972,0.623,4.862,1.026,8.545c0.416,3.682,0.942,8.152,1.45,13.285
			c0.535,5.131,1.134,10.92,1.694,17.241c0.292,3.16,0.596,6.451,0.911,9.857c0.283,3.408,0.576,6.932,0.877,10.554
			c0.591,7.245,1.233,14.884,1.787,22.792c0.568,7.908,1.139,16.08,1.644,24.388c0.536,8.306,0.997,16.749,1.473,25.191
			c0.431,8.444,0.873,16.888,1.23,25.204c0.399,8.314,0.637,16.504,0.951,24.425c0.33,7.921,0.494,15.585,0.689,22.852
			c0.22,7.265,0.319,14.139,0.411,20.485c0.123,6.344,0.145,12.164,0.167,17.323c0.047,5.157,0.002,9.658-0.014,13.364
			c-0.004,3.705-0.081,6.62-0.101,8.605C1583.405,654.174,1583.383,655.233,1583.383,655.233z"/>
	</g>
	<g>
		<path style="fill:#FEC465;" d="M1572.733,672.777c0,0,0.012-1.137,0.033-3.269c0.044-2.13,0.061-5.259,0.177-9.233
			c0.104-3.975,0.204-8.804,0.417-14.334c0.188-5.533,0.398-11.775,0.725-18.577c0.297-6.805,0.618-14.176,1.072-21.964
			c0.43-7.79,0.841-16.008,1.426-24.496c0.569-8.49,1.072-17.269,1.739-26.178c0.626-8.912,1.339-17.959,2.043-27.007
			c0.748-9.044,1.481-18.09,2.285-26.988c0.773-8.9,1.607-17.653,2.43-26.122c0.81-8.47,1.698-16.65,2.523-24.408
			c0.418-3.879,0.824-7.651,1.217-11.301c0.425-3.647,0.835-7.17,1.228-10.553c0.763-6.767,1.549-12.963,2.25-18.455
			c0.674-5.494,1.344-10.277,1.878-14.217c0.521-3.941,1.004-7.032,1.301-9.142c0.32-2.108,0.49-3.233,0.49-3.233
			s-0.011,1.137-0.032,3.269c-0.043,2.13-0.059,5.259-0.173,9.233c-0.101,3.975-0.202,8.804-0.413,14.335
			c-0.184,5.533-0.397,11.776-0.723,18.578c-0.151,3.402-0.308,6.946-0.47,10.614c-0.194,3.665-0.395,7.455-0.601,11.35
			c-0.424,7.79-0.851,16.007-1.403,24.498c-0.538,8.492-1.111,17.266-1.767,26.176c-0.625,8.912-1.344,17.959-2.049,27.007
			c-0.749,9.044-1.487,18.089-2.291,26.987c-0.763,8.901-1.667,17.648-2.459,26.12c-0.776,8.473-1.681,16.651-2.499,24.41
			c-0.794,7.76-1.652,15.089-2.445,21.854c-0.761,6.767-1.55,12.963-2.247,18.455c-0.672,5.494-1.343,10.277-1.875,14.218
			c-0.52,3.941-1.002,7.032-1.298,9.142C1572.903,671.653,1572.733,672.777,1572.733,672.777z"/>
	</g>
	<g>
		<path style="fill:#FEC465;" d="M1588.223,688.567c0,0,0.009-1.338,0.026-3.847c0.039-2.506,0.05-6.188,0.156-10.862
			c0.079-4.675,0.09-10.345,0.231-16.831c0.109-6.489,0.23-13.8,0.461-21.758c0.193-7.973,0.387-16.641,0.714-25.786
			c0.301-9.15,0.577-18.802,1.023-28.777c0.425-9.977,0.77-20.292,1.281-30.764c0.517-10.472,1.043-21.11,1.569-31.749
			c0.602-10.634,1.203-21.269,1.796-31.737c0.612-10.467,1.286-20.765,1.956-30.729c0.653-9.965,1.39-19.593,2.07-28.723
			c0.346-4.565,0.682-9.005,1.008-13.301c0.357-4.294,0.702-8.442,1.033-12.424c0.636-7.966,1.305-15.264,1.903-21.733
			c0.571-6.47,1.151-12.106,1.611-16.748c0.447-4.643,0.87-8.287,1.128-10.774c0.28-2.485,0.429-3.811,0.429-3.811
			s0.011,1.334,0.031,3.835c-0.002,2.5,0.041,6.168,0.002,10.833c-0.026,4.665-0.036,10.331-0.143,16.825
			c-0.08,6.496-0.175,13.824-0.373,21.813c-0.088,3.995-0.179,8.157-0.273,12.465c-0.126,4.306-0.256,8.757-0.39,13.333
			c-0.279,9.152-0.554,18.804-0.949,28.783c-0.384,9.98-0.797,20.291-1.292,30.765c-0.514,10.473-1.037,21.112-1.559,31.751
			c-0.609,10.635-1.218,21.27-1.818,31.738c-0.608,10.468-1.355,20.762-2.003,30.728c-0.637,9.967-1.407,19.593-2.098,28.724
			c-0.669,9.135-1.399,17.751-2.091,25.731c-0.669,7.994-1.373,15.306-1.994,21.778c-0.603,6.474-1.186,12.106-1.692,16.733
			c-0.509,4.625-0.983,8.251-1.273,10.727C1588.39,687.248,1588.223,688.567,1588.223,688.567z"/>
	</g>
	<g>
		<path style="fill:#FEC465;" d="M1923.348,726.101c0,0,0.009-1.338,0.026-3.847c0.039-2.506,0.05-6.188,0.156-10.862
			c0.079-4.675,0.09-10.345,0.231-16.831c0.109-6.489,0.23-13.8,0.461-21.758c0.193-7.973,0.387-16.641,0.714-25.786
			c0.301-9.15,0.577-18.802,1.023-28.777c0.425-9.977,0.77-20.292,1.281-30.764c0.517-10.472,1.043-21.11,1.569-31.749
			c0.602-10.634,1.204-21.269,1.796-31.737c0.612-10.467,1.287-20.765,1.956-30.729c0.653-9.965,1.39-19.593,2.07-28.723
			c0.346-4.565,0.682-9.005,1.008-13.301c0.357-4.294,0.702-8.442,1.033-12.424c0.636-7.966,1.305-15.264,1.903-21.733
			c0.571-6.47,1.151-12.106,1.611-16.748c0.447-4.643,0.87-8.287,1.128-10.774c0.28-2.485,0.429-3.811,0.429-3.811
			s0.011,1.334,0.031,3.835c-0.002,2.5,0.041,6.169,0.002,10.833c-0.026,4.665-0.036,10.331-0.143,16.825
			c-0.08,6.496-0.175,13.824-0.373,21.813c-0.088,3.995-0.179,8.157-0.274,12.465c-0.126,4.306-0.256,8.757-0.39,13.333
			c-0.279,9.152-0.554,18.804-0.949,28.783c-0.384,9.98-0.797,20.291-1.292,30.765c-0.514,10.473-1.037,21.112-1.559,31.751
			c-0.609,10.635-1.218,21.27-1.817,31.738c-0.608,10.468-1.355,20.762-2.003,30.728c-0.636,9.967-1.407,19.593-2.098,28.724
			c-0.669,9.135-1.399,17.751-2.091,25.731c-0.669,7.994-1.373,15.306-1.994,21.778c-0.603,6.474-1.186,12.106-1.692,16.733
			c-0.509,4.625-0.983,8.251-1.273,10.727C1923.515,724.782,1923.348,726.101,1923.348,726.101z"/>
	</g>
	<g>
		<path style="fill:#FEC465;" d="M1602.745,660.497c0,0-0.019-1.388-0.054-3.99c-0.013-2.601-0.08-6.418-0.071-11.272
			c-0.003-4.855-0.032-10.75,0.033-17.509c0.04-6.76,0.082-14.386,0.228-22.702c0.115-8.317,0.239-17.327,0.484-26.852
			c0.221-9.526,0.412-19.573,0.771-29.96c0.161-5.194,0.325-10.475,0.491-15.82c0.158-5.346,0.331-10.756,0.564-16.207
			c0.431-10.904,0.868-21.98,1.306-33.057c0.529-11.073,1.059-22.145,1.58-33.045c0.131-2.725,0.261-5.439,0.391-8.14
			c0.152-2.7,0.304-5.386,0.455-8.056c0.302-5.34,0.6-10.615,0.893-15.803c0.551-10.378,1.228-20.404,1.844-29.913
			c0.314-4.754,0.619-9.378,0.915-13.851c0.327-4.472,0.643-8.792,0.946-12.94c0.582-8.296,1.202-15.898,1.756-22.635
			c0.527-6.739,1.069-12.609,1.498-17.445c0.416-4.836,0.816-8.633,1.057-11.223c0.263-2.589,0.404-3.97,0.404-3.97
			s0.019,1.388,0.056,3.99c0.014,2.601,0.081,6.418,0.073,11.272c0.005,4.855,0.033,10.75-0.03,17.509
			c-0.036,6.76-0.082,14.386-0.225,22.702c-0.06,4.158-0.122,8.49-0.187,12.973c-0.096,4.482-0.195,9.115-0.297,13.878
			c-0.215,9.526-0.416,19.573-0.773,29.96c-0.161,5.194-0.324,10.475-0.489,15.821c-0.083,2.673-0.166,5.362-0.249,8.064
			c-0.106,2.702-0.213,5.417-0.321,8.143c-0.432,10.904-0.871,21.98-1.309,33.057c-0.531,11.073-1.061,22.145-1.584,33.045
			c-0.244,5.451-0.543,10.855-0.853,16.195c-0.301,5.34-0.599,10.615-0.892,15.803c-0.549,10.378-1.236,20.404-1.846,29.913
			c-0.587,9.51-1.249,18.496-1.86,26.791c-0.58,8.297-1.203,15.898-1.754,22.635c-0.525,6.739-1.068,12.609-1.495,17.445
			c-0.415,4.836-0.814,8.633-1.054,11.223C1602.885,659.116,1602.745,660.497,1602.745,660.497z"/>
	</g>
	<g>
		<path style="fill:#FEC465;" d="M1630.821,651.725c0,0-0.241-1.23-0.694-3.536c-0.43-2.309-1.109-5.69-1.879-10.005
			c-0.782-4.314-1.757-9.548-2.778-15.565c-1.046-6.014-2.228-12.798-3.42-20.213c-1.222-7.41-2.546-15.438-3.833-23.944
			c-1.311-8.503-2.736-17.463-4.05-26.754c-1.33-9.289-2.79-18.876-4.119-28.638c-1.321-9.763-2.664-19.681-4.006-29.599
			c-1.262-9.928-2.523-19.857-3.765-29.63c-1.222-9.776-2.353-19.406-3.431-28.728c-1.091-9.32-2.041-18.343-2.96-26.897
			c-0.454-4.278-0.895-8.439-1.322-12.464c-0.396-4.029-0.778-7.922-1.145-11.659c-0.758-7.471-1.368-14.331-1.903-20.411
			c-0.562-6.077-0.971-11.386-1.324-15.756c-0.367-4.368-0.582-7.81-0.76-10.152c-0.156-2.345-0.24-3.596-0.24-3.596
			s0.242,1.23,0.696,3.536c0.432,2.309,1.11,5.69,1.882,10.005c0.785,4.313,1.759,9.548,2.782,15.565
			c1.05,6.013,2.229,12.798,3.422,20.212c0.609,3.705,1.243,7.565,1.899,11.56c0.625,3.999,1.271,8.133,1.935,12.383
			c1.317,8.502,2.726,17.465,4.073,26.751c1.362,9.285,2.752,18.881,4.09,28.641c1.319,9.763,2.66,19.681,4,29.6
			c1.26,9.929,2.519,19.858,3.759,29.631c1.233,9.775,2.294,19.414,3.402,28.732c1.125,9.316,2.058,18.341,2.983,26.894
			c0.949,8.55,1.739,16.648,2.468,24.123c0.76,7.471,1.366,14.331,1.906,20.411c0.564,6.077,0.972,11.386,1.328,15.755
			c0.368,4.368,0.584,7.809,0.763,10.152C1630.738,650.474,1630.821,651.725,1630.821,651.725z"/>
	</g>
	<g>
		<path style="fill:#FEC465;" d="M1647.28,658.742c0,0-0.253-1.07-0.726-3.077c-0.451-2.01-1.16-4.951-1.969-8.708
			c-0.821-3.756-1.843-8.312-2.919-13.554c-1.1-5.238-2.344-11.147-3.602-17.61c-1.289-6.457-2.686-13.453-4.05-20.87
			c-1.388-7.413-2.894-15.224-4.293-23.33c-1.415-8.103-2.962-16.463-4.379-24.982c-1.458-8.513-2.862-17.173-4.276-25.832
			c-1.37-8.666-2.755-17.329-4.036-25.87c-1.312-8.536-2.531-16.949-3.694-25.093c-1.177-8.141-2.21-16.028-3.208-23.505
			c-0.493-3.739-0.973-7.376-1.437-10.894c-0.433-3.523-0.851-6.927-1.253-10.195c-0.827-6.532-1.5-12.533-2.092-17.852
			c-0.619-5.316-1.076-9.963-1.471-13.787c-0.407-3.822-0.655-6.837-0.855-8.887c-0.178-2.054-0.273-3.15-0.273-3.15
			s0.253,1.07,0.727,3.077c0.452,2.01,1.161,4.951,1.972,8.708c0.824,3.755,1.845,8.312,2.922,13.554
			c1.104,5.238,2.344,11.147,3.605,17.609c0.642,3.229,1.311,6.593,2.004,10.074c0.661,3.486,1.345,7.091,2.048,10.796
			c1.394,7.412,2.884,15.226,4.316,23.326c1.446,8.098,2.923,16.469,4.351,24.987c1.459,8.513,2.857,17.174,4.27,25.833
			c1.369,8.666,2.749,17.33,4.03,25.871c1.322,8.535,2.472,16.958,3.666,25.097c1.21,8.136,2.227,16.026,3.231,23.501
			c1.027,7.471,1.892,14.552,2.691,21.088c0.829,6.531,1.499,12.533,2.095,17.852c0.621,5.315,1.077,9.963,1.474,13.786
			c0.409,3.822,0.657,6.837,0.858,8.887C1647.184,657.647,1647.28,658.742,1647.28,658.742z"/>
	</g>
	<g>
		<path style="fill:#FEC465;" d="M1641.471,672.777c0,0-0.185-1.344-0.532-3.864c-0.325-2.521-0.849-6.216-1.421-10.925
			c-0.585-4.708-1.32-10.424-2.066-16.987c-0.771-6.562-1.643-13.964-2.495-22.048c-0.883-8.081-1.84-16.835-2.738-26.104
			c-0.922-9.267-1.937-19.035-2.827-29.153c-0.905-10.117-1.927-20.564-2.809-31.192c-0.875-10.629-1.763-21.426-2.652-32.223
			c-0.807-10.804-1.615-21.607-2.41-32.242c-0.775-10.636-1.466-21.11-2.117-31.246c-0.665-10.136-1.202-19.942-1.73-29.239
			c-0.258-4.649-0.509-9.172-0.752-13.546c-0.211-4.377-0.416-8.606-0.612-12.666c-0.416-8.118-0.712-15.565-0.97-22.167
			c-0.285-6.6-0.45-12.36-0.604-17.102c-0.167-4.741-0.225-8.472-0.296-11.014c-0.049-2.543-0.075-3.899-0.075-3.899
			s0.186,1.344,0.534,3.863c0.326,2.521,0.85,6.216,1.424,10.925c0.587,4.708,1.322,10.424,2.07,16.987
			c0.775,6.561,1.643,13.964,2.498,22.047c0.439,4.041,0.897,8.25,1.37,12.606c0.442,4.359,0.899,8.865,1.369,13.498
			c0.928,9.266,1.927,19.036,2.85,29.151c0.937,10.114,1.888,20.567,2.78,31.194c0.873,10.629,1.76,21.426,2.646,32.224
			c0.806,10.804,1.611,21.608,2.404,32.243c0.786,10.636,1.406,21.114,2.089,31.249c0.699,10.133,1.22,19.94,1.753,29.237
			c0.558,9.295,0.978,18.092,1.365,26.211c0.418,8.117,0.711,15.566,0.973,22.167c0.287,6.6,0.451,12.36,0.608,17.102
			c0.168,4.741,0.227,8.472,0.299,11.013C1641.444,671.421,1641.471,672.777,1641.471,672.777z"/>
	</g>
	<g>
		<path style="fill:#FEC465;" d="M1632.758,667.514c0,0-0.068-1.303-0.196-3.745c-0.105-2.443-0.307-6.025-0.47-10.584
			c-0.175-4.559-0.413-10.096-0.588-16.445c-0.2-6.35-0.428-13.514-0.578-21.328c-0.181-7.815-0.376-16.281-0.469-25.234
			c-0.117-8.954-0.282-18.396-0.293-28.163c-0.026-9.767-0.14-19.86-0.099-30.114c0.048-10.254,0.097-20.671,0.146-31.089
			c0.13-10.417,0.261-20.833,0.389-31.087c0.148-10.254,0.367-20.344,0.595-30.108c0.214-9.765,0.528-19.203,0.807-28.153
			c0.145-4.475,0.286-8.828,0.423-13.039c0.168-4.21,0.33-8.278,0.486-12.184c0.288-7.811,0.637-14.97,0.952-21.315
			c0.287-6.346,0.621-11.877,0.878-16.433c0.244-4.556,0.509-8.134,0.658-10.575c0.171-2.44,0.263-3.742,0.263-3.742
			s0.069,1.303,0.197,3.745c0.107,2.443,0.309,6.025,0.474,10.584c0.178,4.559,0.415,10.096,0.592,16.445
			c0.204,6.35,0.429,13.514,0.58,21.328c0.088,3.907,0.179,7.978,0.274,12.19c0.063,4.212,0.128,8.567,0.195,13.044
			c0.123,8.954,0.272,18.396,0.316,28.163c0.058,9.767,0.101,19.859,0.07,30.114c-0.05,10.254-0.101,20.672-0.152,31.089
			c-0.132,10.416-0.265,20.833-0.395,31.086c-0.138,10.254-0.427,20.343-0.624,30.108c-0.181,9.765-0.511,19.203-0.784,28.153
			c-0.249,8.95-0.592,17.412-0.908,25.222c-0.286,7.811-0.638,14.97-0.949,21.315c-0.286,6.346-0.62,11.877-0.875,16.433
			c-0.243,4.556-0.507,8.134-0.655,10.575C1632.848,666.213,1632.758,667.514,1632.758,667.514z"/>
	</g>
	<g>
		<path style="fill:#FEC465;" d="M1633.726,690.322c0,0,0.011-1.41,0.033-4.054c0.044-2.642,0.061-6.521,0.176-11.451
			c0.103-4.931,0.203-10.92,0.416-17.784c0.187-6.865,0.397-14.611,0.724-23.054c0.296-8.445,0.618-17.595,1.071-27.264
			c0.43-9.671,0.84-19.873,1.426-30.416c0.275-5.273,0.554-10.633,0.836-16.059c0.274-5.427,0.566-10.919,0.918-16.451
			c0.669-11.067,1.348-22.309,2.028-33.551c0.771-11.236,1.543-22.472,2.302-33.533c0.19-2.765,0.38-5.519,0.569-8.26
			c0.212-2.739,0.422-5.464,0.631-8.173c0.418-5.418,0.832-10.769,1.238-16.034c0.778-10.53,1.673-20.701,2.498-30.346
			c0.418-4.823,0.824-9.514,1.218-14.051c0.425-4.536,0.835-8.918,1.229-13.124c0.764-8.415,1.549-16.124,2.251-22.956
			c0.674-6.834,1.345-12.786,1.879-17.689c0.522-4.904,1.004-8.752,1.302-11.378c0.32-2.625,0.49-4.024,0.49-4.024
			s-0.011,1.41-0.031,4.054c-0.043,2.642-0.059,6.521-0.173,11.451c-0.101,4.931-0.202,10.92-0.412,17.784
			c-0.184,6.866-0.396,14.611-0.722,23.055c-0.151,4.223-0.308,8.621-0.47,13.173c-0.194,4.55-0.394,9.255-0.601,14.091
			c-0.423,9.672-0.844,19.872-1.428,30.415c-0.274,5.273-0.553,10.633-0.835,16.06c-0.141,2.713-0.283,5.443-0.426,8.186
			c-0.165,2.742-0.332,5.498-0.499,8.264c-0.67,11.066-1.351,22.308-2.032,33.551c-0.773,11.236-1.545,22.472-2.306,33.533
			c-0.363,5.531-0.78,11.015-1.206,16.432c-0.418,5.418-0.831,10.77-1.237,16.034c-0.776,10.531-1.681,20.7-2.5,30.346
			c-0.794,9.648-1.653,18.762-2.446,27.175c-0.762,8.415-1.551,16.124-2.248,22.956c-0.672,6.834-1.344,12.786-1.876,17.69
			c-0.52,4.904-1.003,8.752-1.299,11.378C1633.896,688.922,1633.726,690.322,1633.726,690.322z"/>
	</g>
	<g>
		<path style="fill:#FEC465;" d="M1653.089,674.532c0,0-0.011-1.265-0.033-3.638c0.001-2.371-0.044-5.851-0.009-10.276
			c0.024-4.425,0.027-9.8,0.129-15.959c0.077-6.161,0.161-13.112,0.352-20.69c0.16-7.579,0.334-15.79,0.631-24.469
			c0.273-8.68,0.52-17.835,0.935-27.298c0.399-9.463,0.726-19.247,1.214-29.18c0.495-9.932,0.998-20.022,1.501-30.113
			c0.584-10.086,1.168-20.171,1.744-30.099c0.595-9.927,1.253-19.693,1.906-29.142c0.64-9.45,1.364-18.58,2.033-27.238
			c0.34-4.329,0.671-8.54,0.99-12.613c0.351-4.071,0.691-8.005,1.017-11.781c0.628-7.554,1.289-14.474,1.88-20.607
			c0.564-6.135,1.138-11.479,1.593-15.88c0.442-4.402,0.863-7.858,1.118-10.215c0.277-2.356,0.425-3.613,0.425-3.613
			s0.012,1.265,0.034,3.638c0,2.371,0.046,5.852,0.012,10.276c-0.021,4.425-0.026,9.8-0.125,15.959
			c-0.073,6.161-0.161,13.112-0.35,20.69c-0.083,3.789-0.169,7.737-0.258,11.822c-0.12,4.084-0.245,8.306-0.373,12.646
			c-0.267,8.68-0.53,17.835-0.911,27.299c-0.368,9.465-0.765,19.245-1.242,29.178c-0.497,9.932-1.002,20.022-1.507,30.112
			c-0.586,10.086-1.172,20.171-1.75,30.099c-0.584,9.928-1.313,19.689-1.935,29.141c-0.606,9.452-1.347,18.581-2.01,27.24
			c-0.638,8.66-1.35,16.842-2.006,24.394c-0.626,7.554-1.29,14.474-1.877,20.607c-0.562,6.135-1.137,11.479-1.59,15.88
			c-0.441,4.402-0.861,7.858-1.115,10.215C1653.236,673.275,1653.089,674.532,1653.089,674.532z"/>
	</g>
	<g>
		<path style="fill:#FEC465;" d="M1665.674,651.725c0,0,0.023-1.138,0.066-3.272c0.065-2.131,0.114-5.262,0.269-9.238
			c0.143-3.977,0.292-8.809,0.561-14.342c0.243-5.535,0.516-11.781,0.912-18.585c0.365-6.807,0.76-14.181,1.293-21.971
			c0.508-7.792,1.001-16.012,1.672-24.501c0.655-8.491,1.245-17.272,2.002-26.182c0.715-8.913,1.52-17.96,2.314-27.008
			c0.839-9.044,1.662-18.09,2.556-26.986c0.863-8.9,1.784-17.651,2.693-26.119c0.895-8.469,1.865-16.646,2.767-24.402
			c0.457-3.877,0.901-7.649,1.331-11.297c0.461-3.646,0.907-7.168,1.334-10.549c0.831-6.765,1.679-12.958,2.435-18.448
			c0.729-5.492,1.447-10.272,2.021-14.21c0.561-3.939,1.074-7.028,1.393-9.137c0.341-2.107,0.523-3.23,0.523-3.23
			s-0.022,1.138-0.065,3.272c-0.064,2.132-0.112,5.262-0.266,9.238c-0.141,3.977-0.291,8.809-0.557,14.342
			c-0.24,5.536-0.515,11.781-0.909,18.585c-0.185,3.403-0.378,6.948-0.577,10.617c-0.231,3.666-0.469,7.457-0.715,11.353
			c-0.502,7.792-1.012,16.011-1.649,24.503c-0.623,8.494-1.284,17.269-2.03,26.179c-0.714,8.913-1.525,17.96-2.32,27.008
			c-0.839,9.044-1.669,18.089-2.562,26.986c-0.852,8.901-1.844,17.646-2.721,26.117c-0.861,8.472-1.848,16.648-2.744,24.404
			c-0.872,7.759-1.804,15.084-2.664,21.847c-0.829,6.765-1.68,12.958-2.432,18.448c-0.727,5.492-1.446,10.272-2.018,14.21
			c-0.559,3.939-1.073,7.028-1.39,9.137C1665.856,650.601,1665.674,651.725,1665.674,651.725z"/>
	</g>
	<g>
		<path style="fill:#FEC465;" d="M1655.025,700.848c0,0,0.156-0.969,0.448-2.787c0.314-1.813,0.729-4.482,1.348-7.86
			c0.607-3.38,1.32-7.49,2.234-12.183c0.889-4.699,1.89-10,3.078-15.763c1.158-5.769,2.413-12.019,3.853-18.605
			c1.415-6.591,2.866-13.552,4.525-20.718c1.643-7.169,3.256-14.596,5.049-22.11c1.752-7.522,3.608-15.147,5.455-22.774
			c1.898-7.62,3.795-15.246,5.737-22.734c1.913-7.494,3.866-14.854,5.773-21.971c1.893-7.12,3.826-13.979,5.641-20.486
			c0.913-3.252,1.801-6.415,2.66-9.475c0.89-3.052,1.749-6.001,2.574-8.832c1.627-5.667,3.201-10.84,4.601-15.424
			c1.374-4.59,2.651-8.571,3.687-11.854c1.022-3.285,1.897-5.849,2.462-7.604c0.587-1.75,0.9-2.683,0.9-2.683
			s-0.158,0.972-0.453,2.793c-0.317,1.816-0.738,4.491-1.363,7.872c-0.613,3.384-1.335,7.498-2.257,12.194
			c-0.895,4.702-1.91,10.004-3.108,15.766c-0.587,2.883-1.199,5.887-1.832,8.995c-0.664,3.101-1.35,6.306-2.055,9.602
			c-1.421,6.588-2.901,13.539-4.539,20.704c-1.625,7.168-3.319,14.57-5.114,22.075c-1.763,7.513-3.642,15.122-5.496,22.743
			c-1.891,7.618-3.772,15.238-5.698,22.722c-1.887,7.493-3.894,14.835-5.755,21.958c-1.845,7.126-3.781,13.982-5.577,20.491
			c-1.773,6.515-3.554,12.651-5.199,18.316c-1.614,5.671-3.183,10.85-4.571,15.442c-1.364,4.596-2.636,8.586-3.664,11.875
			c-1.016,3.292-1.886,5.863-2.448,7.623C1655.336,699.912,1655.025,700.848,1655.025,700.848z"/>
	</g>
	<g>
		<path style="fill:#FEC465;" d="M1614.363,700.848c0,0,0.344-1.414,0.988-4.066c0.666-2.645,1.597-6.538,2.872-11.466
			c1.264-4.931,2.774-10.927,4.599-17.775c1.802-6.856,3.833-14.591,6.143-23.001c2.281-8.419,4.751-17.54,7.474-27.153
			c2.699-9.621,5.505-19.778,8.562-30.24c1.511-5.236,3.047-10.559,4.603-15.948c1.547-5.391,3.127-10.844,4.774-16.323
			c3.262-10.969,6.575-22.112,9.889-33.255c3.402-11.116,6.803-22.233,10.152-33.176c0.838-2.735,1.672-5.46,2.502-8.171
			c0.852-2.704,1.7-5.395,2.543-8.07c1.685-5.349,3.35-10.634,4.988-15.832c3.241-10.406,6.513-20.423,9.591-29.93
			c1.545-4.752,3.047-9.374,4.5-13.844c1.483-4.462,2.917-8.773,4.293-12.911c2.729-8.284,5.313-15.852,7.607-22.559
			c2.269-6.715,4.326-12.545,6.003-17.351c1.665-4.81,3.043-8.568,3.952-11.14c0.931-2.565,1.427-3.933,1.427-3.933
			s-0.343,1.414-0.987,4.066c-0.665,2.645-1.595,6.539-2.869,11.467c-1.261,4.932-2.772,10.927-4.596,17.776
			c-1.798,6.857-3.832,14.591-6.14,23.002c-1.143,4.209-2.333,8.593-3.565,13.13c-1.262,4.528-2.567,9.21-3.908,14.023
			c-2.694,9.622-5.509,19.777-8.564,30.239c-1.511,5.236-3.047,10.559-4.601,15.948c-0.777,2.694-1.559,5.405-2.345,8.13
			c-0.808,2.718-1.62,5.449-2.435,8.192c-3.263,10.969-6.578,22.111-9.893,33.254c-3.403,11.116-6.806,22.232-10.156,33.174
			c-1.658,5.476-3.358,10.892-5.051,16.24c-1.685,5.35-3.35,10.634-4.987,15.832c-3.24,10.406-6.521,20.421-9.593,29.929
			c-3.049,9.515-6.036,18.48-8.792,26.755c-2.727,8.284-5.314,15.852-7.605,22.56c-2.267,6.715-4.325,12.545-6,17.352
			c-1.663,4.811-3.041,8.569-3.949,11.141C1614.859,699.48,1614.363,700.848,1614.363,700.848z"/>
	</g>
	<g>
		<path style="fill:#FEC465;" d="M1846.865,734.558c0,0,0.011-1.41,0.033-4.054c0.044-2.642,0.061-6.521,0.176-11.451
			c0.103-4.931,0.203-10.92,0.416-17.784c0.188-6.865,0.397-14.611,0.724-23.054c0.296-8.445,0.618-17.595,1.071-27.264
			c0.43-9.671,0.84-19.873,1.426-30.416c0.275-5.273,0.554-10.633,0.836-16.059c0.275-5.427,0.566-10.919,0.918-16.451
			c0.669-11.067,1.349-22.309,2.028-33.551c0.771-11.236,1.543-22.472,2.302-33.533c0.19-2.765,0.38-5.519,0.569-8.26
			c0.212-2.739,0.422-5.464,0.631-8.173c0.418-5.418,0.832-10.769,1.238-16.033c0.778-10.53,1.673-20.701,2.498-30.346
			c0.418-4.823,0.824-9.513,1.218-14.051c0.425-4.536,0.835-8.918,1.229-13.125c0.764-8.415,1.55-16.124,2.251-22.956
			c0.674-6.834,1.345-12.786,1.879-17.689c0.521-4.904,1.004-8.752,1.302-11.378c0.32-2.625,0.49-4.024,0.49-4.024
			s-0.011,1.41-0.031,4.054c-0.043,2.642-0.059,6.521-0.173,11.451c-0.101,4.931-0.202,10.92-0.412,17.784
			c-0.184,6.865-0.396,14.611-0.722,23.054c-0.151,4.223-0.308,8.621-0.47,13.173c-0.194,4.55-0.394,9.255-0.601,14.091
			c-0.423,9.672-0.844,19.872-1.427,30.415c-0.274,5.273-0.553,10.633-0.835,16.06c-0.141,2.713-0.283,5.443-0.426,8.186
			c-0.165,2.742-0.332,5.498-0.499,8.264c-0.67,11.066-1.351,22.309-2.032,33.551c-0.773,11.236-1.545,22.472-2.306,33.533
			c-0.363,5.531-0.78,11.015-1.207,16.432c-0.418,5.418-0.831,10.769-1.237,16.034c-0.776,10.531-1.681,20.7-2.5,30.346
			c-0.794,9.648-1.653,18.762-2.446,27.175c-0.762,8.415-1.551,16.124-2.248,22.956c-0.672,6.834-1.344,12.786-1.876,17.69
			c-0.52,4.904-1.003,8.753-1.299,11.379C1847.035,733.158,1846.865,734.558,1846.865,734.558z"/>
	</g>
	<g>
		<path style="fill:#FEC465;" d="M1827.502,745.084c0,0,0.344-1.414,0.988-4.066c0.666-2.645,1.597-6.538,2.872-11.466
			c1.264-4.931,2.774-10.926,4.599-17.775c1.802-6.856,3.833-14.591,6.143-23.001c2.281-8.419,4.751-17.54,7.474-27.153
			c2.699-9.621,5.505-19.778,8.562-30.24c1.511-5.236,3.047-10.559,4.603-15.948c1.547-5.391,3.127-10.844,4.774-16.323
			c3.262-10.969,6.575-22.112,9.889-33.255c3.402-11.116,6.803-22.233,10.152-33.176c0.838-2.736,1.672-5.46,2.502-8.171
			c0.852-2.704,1.7-5.395,2.543-8.07c1.685-5.349,3.35-10.634,4.988-15.832c3.241-10.406,6.513-20.423,9.591-29.93
			c1.545-4.752,3.047-9.374,4.5-13.844c1.484-4.462,2.917-8.772,4.293-12.911c2.729-8.284,5.313-15.852,7.607-22.559
			c2.269-6.715,4.326-12.545,6.003-17.351c1.665-4.81,3.043-8.568,3.952-11.14c0.931-2.565,1.427-3.933,1.427-3.933
			s-0.343,1.414-0.987,4.066c-0.665,2.645-1.595,6.539-2.869,11.467c-1.261,4.932-2.772,10.927-4.596,17.776
			c-1.798,6.857-3.832,14.592-6.141,23.002c-1.143,4.209-2.333,8.593-3.565,13.13c-1.262,4.528-2.567,9.21-3.908,14.023
			c-2.694,9.622-5.509,19.777-8.564,30.239c-1.511,5.236-3.047,10.559-4.601,15.948c-0.777,2.694-1.559,5.405-2.345,8.13
			c-0.808,2.718-1.62,5.449-2.435,8.192c-3.263,10.969-6.578,22.111-9.893,33.254c-3.403,11.116-6.806,22.232-10.155,33.174
			c-1.658,5.476-3.358,10.892-5.051,16.24c-1.685,5.349-3.35,10.634-4.987,15.832c-3.24,10.406-6.521,20.421-9.593,29.929
			c-3.049,9.515-6.036,18.48-8.792,26.755c-2.727,8.284-5.314,15.852-7.605,22.56c-2.267,6.715-4.325,12.545-6,17.352
			c-1.663,4.811-3.041,8.569-3.949,11.141C1827.998,743.716,1827.502,745.084,1827.502,745.084z"/>
	</g>
	<g>
		<path style="fill:#FEC465;" d="M1687.941,702.602c0,0,0.004-0.776,0.012-2.231c0.03-1.453,0.027-3.589,0.117-6.297
			c0.078-2.71,0.147-6.003,0.323-9.769c0.152-3.769,0.321-8.022,0.603-12.651c0.254-4.632,0.529-9.65,0.903-14.948
			c0.369-5.299,0.782-10.884,1.265-16.656c0.475-5.773,1-11.734,1.589-17.786c0.566-6.054,1.219-12.196,1.863-18.339
			c0.687-6.138,1.36-12.278,2.104-18.312c0.714-6.038,1.488-11.973,2.255-17.714c0.766-5.741,1.557-11.286,2.332-16.541
			c0.771-5.255,1.574-10.216,2.323-14.794c0.718-4.582,1.461-8.772,2.124-12.486c0.636-3.717,1.274-6.948,1.781-9.611
			c0.494-2.664,0.955-4.75,1.239-6.175c0.305-1.423,0.468-2.182,0.468-2.182s-0.004,0.776-0.01,2.231
			c-0.029,1.453-0.026,3.589-0.114,6.297c-0.075,2.71-0.145,6.003-0.32,9.77c-0.148,3.77-0.32,8.022-0.601,12.651
			c-0.25,4.632-0.529,9.65-0.901,14.948c-0.37,5.299-0.784,10.884-1.266,16.656c-0.482,5.772-0.996,11.735-1.593,17.786
			c-0.566,6.054-1.225,12.195-1.869,18.338c-0.688,6.138-1.366,12.277-2.11,18.312c-0.722,6.037-1.486,11.973-2.26,17.713
			c-0.765,5.741-1.558,11.286-2.333,16.54c-0.77,5.255-1.576,10.216-2.321,14.794c-0.716,4.582-1.462,8.772-2.121,12.486
			c-0.635,3.717-1.273,6.948-1.778,9.611c-0.493,2.665-0.954,4.75-1.235,6.176C1688.104,701.843,1687.941,702.602,1687.941,702.602z
			"/>
	</g>
	<g>
		<path style="fill:#FEC465;" d="M1678.26,734.182c0,0,0.035-1.618,0.101-4.651c0.089-3.031,0.171-7.48,0.37-13.135
			c0.187-5.656,0.388-12.526,0.717-20.397c0.303-7.874,0.644-16.757,1.114-26.439c0.439-9.685,0.915-20.177,1.532-31.264
			c0.593-11.089,1.176-22.787,1.939-34.874c0.364-6.045,0.733-12.191,1.108-18.412c0.366-6.222,0.751-12.518,1.195-18.86
			c0.856-12.686,1.725-25.574,2.594-38.461c0.945-12.876,1.891-25.751,2.822-38.426c0.233-3.169,0.465-6.325,0.696-9.465
			c0.254-3.138,0.506-6.261,0.757-9.365c0.502-6.208,0.997-12.34,1.485-18.372c0.94-12.067,1.992-23.72,2.965-34.774
			c0.492-5.526,0.971-10.902,1.434-16.102c0.495-5.198,0.972-10.22,1.431-15.041c0.893-9.645,1.798-18.479,2.604-26.311
			c0.78-7.833,1.542-14.657,2.152-20.278c0.597-5.622,1.139-10.034,1.478-13.045c0.36-3.009,0.553-4.614,0.553-4.614
			s-0.033,1.616-0.094,4.646c-0.083,3.029-0.159,7.474-0.349,13.126c-0.177,5.653-0.37,12.519-0.686,20.389
			c-0.29,7.872-0.621,16.753-1.077,26.435c-0.216,4.842-0.441,9.886-0.673,15.107c-0.264,5.218-0.537,10.613-0.818,16.16
			c-0.573,11.092-1.151,22.792-1.897,34.883c-0.356,6.047-0.717,12.196-1.083,18.419c-0.183,3.112-0.367,6.243-0.552,9.389
			c-0.208,3.145-0.417,6.305-0.626,9.478c-0.843,12.692-1.698,25.585-2.555,38.478c-0.962,12.879-1.924,25.758-2.871,38.436
			c-0.457,6.34-0.966,12.626-1.484,18.834c-0.509,6.209-1.012,12.343-1.507,18.376c-0.954,12.07-2.03,23.723-3.011,34.777
			c-0.957,11.056-1.969,21.5-2.903,31.14c-0.904,9.643-1.822,18.474-2.635,26.302c-0.787,7.83-1.559,14.649-2.174,20.266
			c-0.603,5.618-1.15,10.026-1.49,13.034C1678.454,732.578,1678.26,734.182,1678.26,734.182z"/>
	</g>
	<g>
		<path style="fill:#FEC465;" d="M1727.114,677.429c0,0-0.254-0.559-0.73-1.608c-0.454-1.055-1.166-2.589-1.982-4.569
			c-0.828-1.976-1.857-4.368-2.944-7.141c-1.111-2.765-2.366-5.884-3.641-9.316c-1.303-3.423-2.714-7.131-4.126-11.078
			c-1.418-3.945-2.889-8.113-4.358-12.44c-1.477-4.325-2.969-8.804-4.433-13.372c-1.485-4.561-2.919-9.218-4.363-13.871
			c-1.401-4.667-2.816-9.329-4.13-13.942c-1.344-4.604-2.596-9.157-3.792-13.568c-1.197-4.411-2.304-8.689-3.331-12.753
			c-1.03-4.063-1.933-7.927-2.76-11.495c-0.856-3.559-1.559-6.847-2.178-9.762c-0.645-2.907-1.127-5.466-1.541-7.569
			c-0.427-2.099-0.692-3.769-0.903-4.898c-0.19-1.136-0.291-1.742-0.291-1.742s0.254,0.559,0.731,1.608
			c0.455,1.055,1.168,2.589,1.985,4.568c0.83,1.975,1.858,4.368,2.947,7.14c1.115,2.764,2.367,5.884,3.643,9.315
			c1.307,3.422,2.714,7.131,4.128,11.078c1.417,3.945,2.887,8.113,4.356,12.441c1.47,4.327,2.973,8.803,4.429,13.374
			c1.486,4.561,2.914,9.219,4.357,13.873c1.4,4.667,2.81,9.33,4.125,13.944c1.336,4.607,2.598,9.156,3.788,13.569
			c1.197,4.41,2.303,8.689,3.33,12.754c1.032,4.063,1.931,7.927,2.762,11.494c0.858,3.559,1.558,6.847,2.18,9.762
			c0.646,2.907,1.128,5.466,1.544,7.568c0.428,2.098,0.694,3.768,0.906,4.897C1727.012,676.823,1727.114,677.429,1727.114,677.429z"
			/>
	</g>
	<g>
		<path style="fill:#FEC465;" d="M1683.547,479.181c0,0,0.267,0.847,0.767,2.434c0.478,1.592,1.226,3.917,2.086,6.896
			c0.872,2.976,1.955,6.585,3.102,10.745c1.172,4.155,2.495,8.842,3.842,13.976c1.376,5.128,2.866,10.684,4.36,16.578
			c1.5,5.893,3.057,12.112,4.614,18.558c1.565,6.444,3.148,13.11,4.702,19.896c1.576,6.781,3.101,13.686,4.636,20.589
			c1.491,6.913,2.997,13.822,4.399,20.641c1.432,6.813,2.769,13.533,4.048,20.04c1.279,6.507,2.465,12.808,3.566,18.788
			c1.104,5.979,2.076,11.648,2.965,16.883c0.92,5.228,1.679,10.039,2.348,14.304c0.695,4.259,1.22,7.99,1.669,11.059
			c0.462,3.066,0.754,5.491,0.984,7.137c0.208,1.651,0.319,2.532,0.319,2.532s-0.267-0.846-0.768-2.433
			c-0.479-1.592-1.228-3.916-2.089-6.895c-0.874-2.976-1.957-6.584-3.105-10.744c-1.175-4.154-2.496-8.842-3.845-13.976
			c-1.38-5.127-2.866-10.684-4.362-16.577c-1.499-5.893-3.055-12.113-4.612-18.558c-1.558-6.446-3.151-13.11-4.698-19.897
			c-1.577-6.781-3.096-13.687-4.63-20.591c-1.491-6.913-2.991-13.823-4.393-20.643c-1.423-6.814-2.772-13.532-4.043-20.041
			c-1.279-6.507-2.464-12.808-3.564-18.788c-1.106-5.979-2.074-11.649-2.967-16.883c-0.922-5.228-1.678-10.039-2.351-14.303
			c-0.697-4.259-1.221-7.99-1.673-11.058c-0.464-3.066-0.756-5.49-0.987-7.136C1683.659,480.062,1683.547,479.181,1683.547,479.181z
			"/>
	</g>
	<g>
		<path style="fill:#FEC465;" d="M1685.484,391.461c0,0,0.283,1.29,0.813,3.708c0.508,2.422,1.3,5.966,2.215,10.492
			c0.927,4.524,2.078,10.014,3.301,16.326c1.248,6.308,2.658,13.425,4.098,21.203c1.471,7.774,3.064,16.196,4.637,25.121
			c1.596,8.922,3.322,18.323,4.948,28.074c1.642,9.748,3.423,19.808,5.079,30.055c1.649,10.248,3.324,20.658,4.999,31.068
			c1.594,10.423,3.189,20.846,4.759,31.106c1.55,10.263,3.004,20.375,4.394,30.163c1.404,9.786,2.656,19.262,3.861,28.245
			c0.597,4.492,1.178,8.862,1.74,13.089c0.531,4.232,1.043,8.321,1.536,12.246c1.008,7.847,1.848,15.053,2.587,21.441
			c0.766,6.384,1.352,11.962,1.852,16.553c0.513,4.589,0.844,8.206,1.1,10.667c0.235,2.465,0.36,3.779,0.36,3.779
			s-0.283-1.29-0.814-3.708c-0.509-2.422-1.302-5.966-2.218-10.492c-0.93-4.524-2.079-10.013-3.304-16.325
			c-1.252-6.307-2.659-13.425-4.101-21.203c-0.733-3.887-1.497-7.937-2.287-12.128c-0.759-4.196-1.544-8.534-2.351-12.993
			c-1.603-8.921-3.312-18.325-4.971-28.071c-1.673-9.744-3.385-19.815-5.051-30.059c-1.647-10.248-3.32-20.659-4.993-31.069
			c-1.593-10.423-3.185-20.847-4.753-31.107c-1.561-10.261-2.944-20.384-4.366-30.167c-1.437-9.781-2.673-19.259-3.884-28.241
			c-1.235-8.978-2.297-17.484-3.276-25.335c-1.01-7.846-1.847-15.053-2.59-21.44c-0.768-6.383-1.353-11.962-1.856-16.552
			c-0.514-4.589-0.845-8.206-1.103-10.667C1685.609,392.776,1685.484,391.461,1685.484,391.461z"/>
	</g>
	<g>
		<path style="fill:#FEC465;" d="M1713.56,373.917c0,0,0.166,1.489,0.478,4.282c0.289,2.794,0.761,6.889,1.268,12.106
			c0.519,5.216,1.174,11.549,1.828,18.819c0.679,7.268,1.447,15.468,2.187,24.42c0.77,8.949,1.604,18.645,2.373,28.906
			c0.792,10.26,1.671,21.077,2.418,32.276c0.392,5.599,0.791,11.291,1.194,17.052c0.411,5.761,0.814,11.594,1.162,17.476
			c0.731,11.762,1.473,23.712,2.216,35.661c0.651,11.954,1.301,23.909,1.942,35.677c0.159,2.942,0.318,5.872,0.476,8.788
			c0.135,2.917,0.27,5.819,0.404,8.704c0.268,5.77,0.532,11.47,0.792,17.076c0.555,11.21,0.948,22.056,1.346,32.339
			c0.193,5.142,0.381,10.143,0.562,14.981c0.15,4.84,0.295,9.516,0.435,14.005c0.303,8.977,0.494,17.21,0.66,24.509
			c0.192,7.297,0.277,13.663,0.365,18.904c0.1,5.241,0.106,9.363,0.142,12.172c0.013,2.81,0.021,4.309,0.021,4.309
			s-0.167-1.489-0.48-4.282c-0.291-2.794-0.763-6.889-1.272-12.106c-0.521-5.216-1.176-11.549-1.832-18.819
			c-0.683-7.268-1.448-15.468-2.189-24.42c-0.383-4.475-0.781-9.136-1.194-13.961c-0.381-4.826-0.775-9.816-1.18-14.945
			c-0.799-10.26-1.667-21.077-2.416-32.276c-0.392-5.599-0.791-11.291-1.195-17.052c-0.202-2.881-0.405-5.779-0.609-8.692
			c-0.181-2.914-0.364-5.843-0.547-8.784c-0.729-11.763-1.471-23.712-2.212-35.661c-0.649-11.955-1.299-23.909-1.938-35.677
			c-0.337-5.883-0.614-11.722-0.874-17.493c-0.268-5.77-0.533-11.47-0.793-17.076c-0.557-11.21-0.94-22.056-1.344-32.339
			c-0.428-10.281-0.724-20.008-0.998-28.986c-0.305-8.977-0.493-17.21-0.662-24.508c-0.194-7.297-0.278-13.663-0.368-18.904
			c-0.102-5.241-0.108-9.363-0.145-12.171C1713.567,375.416,1713.56,373.917,1713.56,373.917z"/>
	</g>
	<g>
		<path style="fill:#FEC465;" d="M1733.891,340.583c0,0,0.095,1.596,0.272,4.589c0.155,2.993,0.43,7.382,0.686,12.969
			c0.268,5.587,0.618,12.37,0.922,20.152c0.329,7.782,0.703,16.561,1.011,26.14c0.339,9.578,0.707,19.955,0.982,30.931
			c0.299,10.976,0.656,22.55,0.865,34.525c0.123,5.987,0.247,12.074,0.373,18.236c0.134,6.162,0.256,12.399,0.322,18.686
			c0.165,12.574,0.333,25.348,0.5,38.122c0.076,12.775,0.151,25.549,0.226,38.125c0.018,3.144,0.036,6.275,0.054,9.391
			c-0.005,3.116-0.01,6.216-0.015,9.298c-0.01,6.163-0.02,12.252-0.029,18.24c0.016,11.977-0.112,23.556-0.209,34.536
			c-0.054,5.49-0.107,10.83-0.158,15.996c-0.082,5.166-0.162,10.157-0.239,14.948c-0.129,9.583-0.333,18.368-0.518,26.155
			c-0.158,7.786-0.379,14.576-0.544,20.166c-0.151,5.591-0.343,9.984-0.443,12.979c-0.122,2.995-0.187,4.593-0.187,4.593
			s-0.095-1.596-0.273-4.589c-0.156-2.993-0.431-7.382-0.689-12.969c-0.27-5.587-0.62-12.37-0.926-20.152
			c-0.333-7.782-0.703-16.561-1.014-26.14c-0.167-4.789-0.341-9.778-0.522-14.941c-0.149-5.164-0.302-10.502-0.461-15.99
			c-0.305-10.976-0.653-22.55-0.863-34.525c-0.123-5.987-0.248-12.074-0.375-18.236c-0.063-3.081-0.127-6.181-0.191-9.296
			c-0.041-3.115-0.083-6.247-0.124-9.39c-0.164-12.574-0.33-25.348-0.496-38.122c-0.074-12.775-0.149-25.549-0.222-38.124
			c-0.054-6.287-0.05-12.526-0.032-18.689c0.009-6.163,0.019-12.252,0.028-18.24c-0.018-11.977,0.12-23.556,0.211-34.536
			c0.067-10.979,0.238-21.361,0.396-30.944c0.127-9.583,0.334-18.368,0.516-26.155c0.157-7.786,0.379-14.575,0.541-20.166
			c0.15-5.591,0.342-9.984,0.44-12.979C1733.826,342.181,1733.891,340.583,1733.891,340.583z"/>
	</g>
	<g>
		<path style="fill:#FEC465;" d="M1744.54,379.18c0,0,0.072,1.529,0.207,4.395c0.112,2.866,0.325,7.07,0.501,12.42
			c0.188,5.35,0.443,11.846,0.636,19.298c0.219,7.451,0.467,15.858,0.64,25.029c0.203,9.171,0.423,19.106,0.542,29.613
			c0.143,10.508,0.336,21.589,0.375,33.051c0.037,5.731,0.076,11.558,0.114,17.456c0.047,5.899,0.08,11.869,0.056,17.886
			c-0.014,12.035-0.027,24.261-0.041,36.488c-0.106,12.226-0.212,24.452-0.316,36.486c-0.027,3.009-0.053,6.005-0.08,8.987
			c-0.049,2.982-0.098,5.948-0.147,8.897c-0.097,5.898-0.194,11.724-0.288,17.454c-0.154,11.461-0.447,22.54-0.7,33.046
			c-0.132,5.253-0.261,10.362-0.385,15.305c-0.156,4.942-0.306,9.717-0.451,14.302c-0.265,9.168-0.594,17.572-0.89,25.021
			c-0.269,7.449-0.587,13.943-0.83,19.291c-0.231,5.348-0.485,9.549-0.627,12.414c-0.164,2.865-0.252,4.393-0.252,4.393
			s-0.072-1.529-0.208-4.395c-0.114-2.866-0.326-7.07-0.504-12.42c-0.191-5.35-0.444-11.846-0.639-19.298
			c-0.222-7.452-0.468-15.858-0.642-25.029c-0.099-4.585-0.203-9.362-0.309-14.305c-0.075-4.943-0.153-10.054-0.233-15.308
			c-0.149-10.508-0.332-21.589-0.373-33.051c-0.038-5.731-0.076-11.558-0.115-17.457c-0.02-2.949-0.039-5.916-0.059-8.898
			c0.003-2.982,0.006-5.979,0.009-8.988c0.015-12.035,0.03-24.261,0.045-36.488c0.107-12.226,0.214-24.452,0.32-36.486
			c0.036-6.017,0.128-11.987,0.233-17.885c0.097-5.898,0.193-11.724,0.287-17.454c0.152-11.461,0.455-22.54,0.702-33.046
			c0.223-10.506,0.541-20.438,0.835-29.606c0.263-9.168,0.595-17.572,0.887-25.021c0.267-7.449,0.586-13.943,0.827-19.291
			c0.229-5.348,0.483-9.549,0.624-12.414C1744.453,380.708,1744.54,379.18,1744.54,379.18z"/>
	</g>
	<g>
		<polygon style="fill:#FEC465;" points="1767.775,373.917 1765.711,400.403 1763.548,426.879 1759.07,479.816 1754.398,532.733 
			1749.571,585.635 1747.14,612.084 1744.63,638.525 1739.585,691.404 1729.155,797.129 1721.231,796.091 1738.381,691.299 
			1747.132,638.931 1751.515,612.748 1755.981,586.579 1764.946,534.246 1774.066,481.938 1783.381,429.662 1788.115,403.536 
			1792.947,377.426 1789.308,403.729 1785.57,430.016 1777.943,482.565 1770.121,535.083 1762.143,587.575 1758.139,613.819 
			1754.05,640.049 1745.858,692.507 1729.124,797.366 1721.2,796.328 1732.069,690.647 1737.673,637.824 1740.488,611.414 
			1743.382,585.011 1749.205,532.21 1755.182,479.424 1761.354,426.658 1764.516,400.283 		"/>
	</g>
	<g>
		<path style="fill:#FEC465;" d="M1800.692,394.97c0,0-0.111,1.178-0.318,3.386c-0.23,2.205-0.519,5.446-0.981,9.556
			c-0.45,4.112-0.971,9.109-1.665,14.826c-0.67,5.72-1.423,12.175-2.343,19.2c-0.889,7.03-1.852,14.646-2.984,22.683
			c-1.108,8.041-2.234,16.527-3.558,25.28c-1.308,8.756-2.575,17.817-4.016,26.999c-1.401,9.189-2.901,18.511-4.392,27.835
			c-1.534,9.317-3.054,18.636-4.631,27.796c-1.547,9.165-3.142,18.173-4.701,26.888c-1.546,8.717-3.145,17.126-4.643,25.104
			c-0.755,3.988-1.489,7.867-2.199,11.619c-0.741,3.747-1.457,7.367-2.145,10.843c-1.351,6.955-2.675,13.317-3.853,18.955
			c-1.151,5.642-2.236,10.548-3.113,14.591c-0.863,4.045-1.614,7.211-2.095,9.375c-0.503,2.16-0.771,3.313-0.771,3.313
			s0.11-1.178,0.317-3.386c0.228-2.205,0.518-5.446,0.978-9.557c0.447-4.112,0.969-9.11,1.662-14.826
			c0.666-5.721,1.422-12.175,2.34-19.2c0.447-3.515,0.913-7.176,1.394-10.965c0.513-3.784,1.043-7.696,1.589-11.718
			c1.102-8.042,2.244-16.525,3.535-25.284c1.277-8.761,2.613-17.811,4.044-26.995c1.4-9.189,2.906-18.51,4.397-27.834
			c1.535-9.317,3.06-18.635,4.637-27.795c1.537-9.167,3.201-18.164,4.729-26.884c1.512-8.722,3.128-17.129,4.62-25.108
			c1.469-7.982,2.963-15.512,4.343-22.462c1.349-6.955,2.676-13.317,3.85-18.955c1.149-5.643,2.235-10.548,3.109-14.591
			c0.862-4.045,1.612-7.212,2.092-9.376C1800.424,396.122,1800.692,394.97,1800.692,394.97z"/>
	</g>
	<g>
		<path style="fill:#FEC465;" d="M1819.087,375.672c0,0-0.068,1.318-0.197,3.789c-0.151,2.469-0.325,6.094-0.639,10.698
			c-0.303,4.605-0.645,10.2-1.135,16.607c-0.465,6.41-0.988,13.641-1.656,21.52c-0.638,7.882-1.329,16.42-2.173,25.438
			c-0.82,9.021-1.643,18.539-2.655,28.366c-0.995,9.83-1.938,19.997-3.052,30.31c-1.121,10.313-2.259,20.789-3.398,31.265
			c-1.219,10.467-2.439,20.934-3.639,31.238c-1.22,10.302-2.493,20.431-3.741,30.232c-1.235,9.803-2.534,19.267-3.747,28.243
			c-0.612,4.488-1.208,8.853-1.784,13.075c-0.608,4.219-1.195,8.295-1.758,12.208c-1.103,7.829-2.2,14.996-3.176,21.348
			c-0.95,6.355-1.86,11.886-2.592,16.443c-0.719,4.558-1.357,8.132-1.76,10.572c-0.426,2.438-0.653,3.738-0.653,3.738
			s0.068-1.318,0.195-3.789c0.15-2.469,0.323-6.094,0.636-10.698c0.3-4.606,0.643-10.201,1.132-16.608
			c0.461-6.41,0.987-13.642,1.654-21.52c0.321-3.941,0.656-8.045,1.003-12.294c0.378-4.245,0.768-8.633,1.17-13.145
			c0.814-9.021,1.654-18.537,2.631-28.369c0.964-9.833,1.977-19.992,3.08-30.307c1.123-10.312,2.263-20.788,3.404-31.265
			c1.221-10.467,2.443-20.934,3.645-31.237c1.209-10.303,2.552-20.424,3.77-30.229c1.201-9.806,2.517-19.269,3.724-28.246
			c1.183-8.98,2.41-17.458,3.542-25.284c1.101-7.829,2.201-14.996,3.174-21.349c0.948-6.355,1.859-11.886,2.589-16.444
			c0.718-4.559,1.355-8.132,1.757-10.572C1818.86,376.972,1819.087,375.672,1819.087,375.672z"/>
	</g>
	<g>
		<path style="fill:#FEC465;" d="M1778.425,365.145c0,0,0.042,1.339,0.12,3.849c0.056,2.509,0.185,6.191,0.255,10.874
			c0.083,4.683,0.208,10.371,0.254,16.892c0.071,6.522,0.153,13.88,0.144,21.905c0.022,8.025,0.045,16.719-0.044,25.911
			c-0.065,9.193-0.092,18.889-0.28,28.914c-0.172,10.026-0.264,20.388-0.514,30.914c-0.257,10.525-0.518,21.217-0.778,31.909
			c-0.342,10.69-0.684,21.38-1.021,31.902c-0.356,10.522-0.78,20.875-1.207,30.894c-0.413,10.019-0.918,19.701-1.379,28.883
			c-0.236,4.591-0.466,9.056-0.688,13.376c-0.254,4.318-0.499,8.491-0.734,12.497c-0.446,8.012-0.942,15.354-1.385,21.861
			c-0.417,6.508-0.862,12.18-1.212,16.851c-0.337,4.672-0.674,8.34-0.873,10.842c-0.221,2.501-0.339,3.835-0.339,3.835
			s-0.042-1.339-0.121-3.849c-0.057-2.509-0.186-6.191-0.258-10.874c-0.085-4.683-0.209-10.371-0.257-16.892
			c-0.075-6.522-0.154-13.88-0.146-21.905c-0.008-4.013-0.017-8.192-0.026-12.518c0.022-4.325,0.046-8.797,0.07-13.393
			c0.059-9.193,0.102-18.888,0.256-28.915c0.141-10.027,0.303-20.387,0.542-30.913c0.259-10.525,0.522-21.217,0.784-31.909
			c0.344-10.69,0.688-21.379,1.027-31.902c0.346-10.522,0.84-20.874,1.235-30.893c0.379-10.02,0.901-19.702,1.356-28.884
			c0.431-9.183,0.946-17.861,1.421-25.873c0.444-8.012,0.943-15.354,1.382-21.861c0.415-6.508,0.861-12.18,1.209-16.851
			c0.335-4.672,0.672-8.34,0.87-10.842C1778.308,366.479,1778.425,365.145,1778.425,365.145z"/>
	</g>
	<g>
		<path style="fill:#FEC465;" d="M1851.035,349.355c0,0-0.145,1.295-0.416,3.724c-0.294,2.425-0.677,5.989-1.259,10.509
			c-0.569,4.522-1.236,10.018-2.096,16.305c-0.836,6.291-1.777,13.39-2.901,21.116c-1.094,7.732-2.279,16.108-3.645,24.948
			c-1.342,8.844-2.716,18.178-4.295,27.806c-1.563,9.631-3.094,19.597-4.804,29.698c-1.717,10.099-3.461,20.359-5.204,30.618
			c-1.824,10.245-3.648,20.491-5.444,30.576c-1.815,10.082-3.673,19.991-5.488,29.578c-1.801,9.589-3.646,18.841-5.378,27.617
			c-0.872,4.387-1.719,8.655-2.539,12.782c-0.851,4.122-1.673,8.105-2.463,11.929c-1.555,7.651-3.065,14.651-4.408,20.854
			c-1.316,6.208-2.546,11.605-3.541,16.053c-0.982,4.45-1.826,7.935-2.37,10.315c-0.566,2.377-0.868,3.645-0.868,3.645
			s0.144-1.295,0.415-3.724c0.292-2.425,0.676-5.989,1.255-10.51c0.567-4.523,1.234-10.018,2.093-16.306
			c0.832-6.292,1.776-13.39,2.899-21.117c0.549-3.865,1.121-7.892,1.714-12.06c0.623-4.162,1.268-8.465,1.93-12.888
			c1.336-8.845,2.726-18.176,4.272-27.81c1.532-9.636,3.133-19.59,4.832-29.693c1.719-10.099,3.464-20.358,5.21-30.617
			c1.826-10.245,3.652-20.49,5.45-30.575c1.805-10.084,3.732-19.981,5.516-29.574c1.768-9.595,3.629-18.844,5.355-27.621
			c1.702-8.781,3.418-17.065,5.001-24.712c1.553-7.652,3.066-14.651,4.406-20.854c1.315-6.208,2.545-11.605,3.538-16.054
			c0.981-4.451,1.824-7.935,2.367-10.316C1850.734,350.623,1851.035,349.355,1851.035,349.355z"/>
	</g>
	<g>
		<path style="fill:#FEC465;" d="M1831.672,373.917c0,0-0.133,1.417-0.383,4.073c-0.272,2.653-0.624,6.551-1.164,11.499
			c-0.529,4.949-1.146,10.963-1.95,17.846c-0.78,6.887-1.657,14.657-2.713,23.119c-1.025,8.466-2.135,17.638-3.422,27.322
			c-1.263,9.688-2.554,19.91-4.048,30.461c-0.729,5.278-1.47,10.644-2.22,16.076c-0.742,5.433-1.507,10.931-2.336,16.463
			c-1.622,11.07-3.271,22.317-4.919,33.563c-1.739,11.232-3.478,22.465-5.19,33.522c-0.429,2.764-0.855,5.517-1.28,8.257
			c-0.447,2.736-0.892,5.458-1.335,8.164c-0.885,5.412-1.759,10.758-2.619,16.016c-1.685,10.522-3.455,20.672-5.11,30.301
			c-0.833,4.813-1.643,9.496-2.427,14.025c-0.815,4.524-1.602,8.896-2.358,13.092c-1.488,8.397-2.937,16.081-4.225,22.891
			c-1.262,6.814-2.444,12.743-3.4,17.627c-0.943,4.887-1.757,8.715-2.28,11.33c-0.545,2.612-0.836,4.005-0.836,4.005
			s0.133-1.417,0.381-4.073c0.271-2.653,0.622-6.552,1.161-11.499c0.526-4.949,1.144-10.963,1.947-17.846
			c0.776-6.888,1.657-14.657,2.71-23.119c0.515-4.233,1.051-8.642,1.606-13.206c0.586-4.559,1.192-9.272,1.815-14.117
			c1.257-9.689,2.557-19.91,4.05-30.461c0.729-5.278,1.469-10.644,2.219-16.077c0.375-2.716,0.752-5.449,1.131-8.195
			c0.402-2.743,0.805-5.5,1.211-8.267c1.624-11.07,3.273-22.316,4.922-33.562c1.74-11.232,3.481-22.464,5.194-33.521
			c0.84-5.531,1.729-11.009,2.621-16.42c0.884-5.412,1.758-10.758,2.617-16.017c1.683-10.522,3.463-20.671,5.112-30.301
			c1.625-9.633,3.268-18.725,4.784-27.117c1.486-8.397,2.938-16.081,4.223-22.891c1.26-6.814,2.443-12.743,3.397-17.628
			c0.942-4.887,1.755-8.716,2.277-11.331C1831.382,375.31,1831.672,373.917,1831.672,373.917z"/>
	</g>
	<g>
		<path style="fill:#FEC465;" d="M1802.628,356.373c0,0,0.181,1.296,0.521,3.726c0.318,2.432,0.831,5.994,1.391,10.536
			c0.572,4.541,1.291,10.052,2.018,16.382c0.753,6.328,1.604,13.467,2.433,21.262c0.861,7.793,1.793,16.236,2.665,25.174
			c0.896,8.937,1.884,18.358,2.745,28.116c0.877,9.757,1.869,19.833,2.721,30.083c0.845,10.251,1.703,20.664,2.562,31.078
			c0.777,10.42,1.554,20.84,2.32,31.097c0.746,10.259,1.406,20.36,2.03,30.137c0.637,9.776,1.147,19.234,1.648,28.202
			c0.245,4.484,0.484,8.846,0.714,13.065c0.199,4.222,0.392,8.301,0.577,12.217c0.394,7.83,0.669,15.014,0.908,21.382
			c0.266,6.366,0.416,11.922,0.557,16.496c0.154,4.573,0.202,8.172,0.266,10.624c0.042,2.453,0.064,3.762,0.064,3.762
			s-0.182-1.296-0.523-3.726c-0.319-2.432-0.833-5.994-1.394-10.535c-0.574-4.54-1.293-10.052-2.022-16.382
			c-0.756-6.327-1.604-13.467-2.436-21.262c-0.428-3.897-0.873-7.956-1.335-12.157c-0.43-4.204-0.874-8.549-1.331-13.017
			c-0.902-8.936-1.873-18.358-2.768-28.114c-0.908-9.755-1.83-19.836-2.693-30.085c-0.843-10.251-1.7-20.665-2.556-31.078
			c-0.775-10.42-1.551-20.84-2.314-31.097c-0.756-10.258-1.347-20.365-2.001-30.139c-0.671-9.773-1.164-19.233-1.672-28.2
			c-0.532-8.965-0.927-17.45-1.292-25.282c-0.396-7.83-0.668-15.014-0.911-21.382c-0.268-6.366-0.417-11.922-0.56-16.496
			c-0.155-4.573-0.203-8.172-0.269-10.624C1802.651,357.681,1802.628,356.373,1802.628,356.373z"/>
	</g>
	<g>
		<path style="fill:#FEC465;" d="M1823.927,351.11c0,0,0.14,1.36,0.402,3.911c0.24,2.552,0.639,6.292,1.054,11.056
			c0.427,4.764,0.97,10.547,1.495,17.185c0.55,6.637,1.173,14.125,1.754,22.298c0.612,8.172,1.274,17.024,1.86,26.393
			c0.611,9.367,1.297,19.244,1.846,29.468c0.565,10.223,1.235,20.784,1.76,31.521c0.518,10.738,1.043,21.646,1.569,32.555
			c0.444,10.912,0.889,21.824,1.326,32.565c0.418,10.742,0.756,21.317,1.067,31.552c0.325,10.234,0.532,20.132,0.747,29.516
			c0.102,4.693,0.201,9.257,0.297,13.673c0.064,4.417,0.127,8.684,0.187,12.781c0.144,8.192,0.19,15.706,0.226,22.366
			c0.063,6.659,0.035,12.467,0.03,17.25c0.008,4.782-0.059,8.543-0.073,11.106c-0.036,2.564-0.056,3.931-0.056,3.931
			s-0.141-1.36-0.404-3.911c-0.241-2.551-0.641-6.292-1.057-11.056c-0.429-4.764-0.971-10.547-1.498-17.185
			c-0.554-6.637-1.174-14.125-1.756-22.298c-0.303-4.086-0.619-8.342-0.946-12.747c-0.295-4.407-0.601-8.962-0.915-13.645
			c-0.617-9.367-1.286-19.244-1.87-29.467c-0.597-10.222-1.197-20.785-1.732-31.523c-0.516-10.738-1.039-21.646-1.563-32.555
			c-0.442-10.912-0.885-21.824-1.32-32.566c-0.428-10.742-0.696-21.32-1.038-31.553c-0.358-10.233-0.549-20.131-0.771-29.516
			c-0.245-9.384-0.37-18.26-0.484-26.454c-0.146-8.192-0.188-15.706-0.228-22.366c-0.065-6.659-0.036-12.467-0.033-17.25
			c-0.009-4.782,0.058-8.543,0.071-11.106C1823.908,352.477,1823.927,351.11,1823.927,351.11z"/>
	</g>
	<g>
		<path style="fill:#FEC465;" d="M1854.908,382.689c0,0,0.023,1.388,0.065,3.989c0.02,2.601,0.097,6.417,0.101,11.271
			c0.016,4.854,0.061,10.749,0.015,17.507c-0.021,6.759-0.043,14.385-0.166,22.7c-0.092,8.316-0.192,17.325-0.411,26.85
			c-0.195,9.525-0.359,19.572-0.689,29.958c-0.147,5.194-0.296,10.474-0.447,15.82c-0.143,5.346-0.302,10.756-0.52,16.207
			c-0.401,10.904-0.808,21.98-1.215,33.057c-0.499,11.073-0.998,22.146-1.49,33.045c-0.123,2.725-0.246,5.439-0.369,8.14
			c-0.145,2.7-0.29,5.386-0.433,8.056c-0.287,5.34-0.571,10.615-0.85,15.803c-0.523,10.379-1.172,20.405-1.762,29.914
			c-0.301,4.754-0.594,9.379-0.877,13.852c-0.315,4.472-0.619,8.793-0.911,12.941c-0.56,8.297-1.159,15.899-1.694,22.637
			c-0.509,6.739-1.035,12.611-1.45,17.447c-0.403,4.837-0.792,8.634-1.026,11.224c-0.256,2.589-0.393,3.971-0.393,3.971
			s-0.023-1.388-0.067-3.989c-0.021-2.601-0.099-6.417-0.104-11.271c-0.019-4.854-0.063-10.749-0.018-17.507
			c0.017-6.759,0.042-14.385,0.163-22.7c0.048-4.158,0.099-8.489,0.151-12.972c0.084-4.482,0.17-9.115,0.259-13.878
			c0.189-9.526,0.363-19.572,0.691-29.958c0.146-5.194,0.295-10.474,0.446-15.82c0.075-2.673,0.151-5.362,0.227-8.064
			c0.099-2.702,0.199-5.417,0.299-8.142c0.402-10.904,0.811-21.98,1.219-33.057c0.5-11.073,1.001-22.146,1.493-33.045
			c0.229-5.451,0.514-10.856,0.808-16.195c0.287-5.34,0.57-10.615,0.848-15.804c0.521-10.379,1.18-20.405,1.765-29.914
			c0.561-9.51,1.198-18.497,1.787-26.793c0.558-8.297,1.16-15.899,1.692-22.637c0.507-6.739,1.034-12.611,1.447-17.447
			c0.401-4.837,0.79-8.634,1.023-11.225C1854.772,384.07,1854.908,382.689,1854.908,382.689z"/>
	</g>
	<g>
		<path style="fill:#FEC465;" d="M1841.354,359.882c0,0,0.083,1.556,0.24,4.472c0.134,2.917,0.377,7.194,0.593,12.638
			c0.228,5.444,0.53,12.055,0.779,19.639c0.274,7.583,0.585,16.139,0.825,25.472c0.271,9.333,0.565,19.444,0.762,30.139
			c0.221,10.695,0.496,21.973,0.62,33.64c0.08,5.834,0.161,11.764,0.244,17.768c0.09,6.004,0.168,12.08,0.189,18.206
			c0.076,12.251,0.153,24.696,0.229,37.141c-0.015,12.445-0.03,24.891-0.045,37.142c-0.004,3.063-0.009,6.113-0.013,9.149
			c-0.027,3.035-0.054,6.056-0.081,9.058c-0.054,6.004-0.107,11.935-0.159,17.769c-0.069,11.668-0.28,22.947-0.454,33.643
			c-0.093,5.348-0.184,10.55-0.271,15.582c-0.119,5.032-0.234,9.894-0.345,14.561c-0.197,9.335-0.463,17.891-0.704,25.476
			c-0.214,7.584-0.483,14.197-0.687,19.642c-0.191,5.445-0.414,9.724-0.535,12.641c-0.143,2.917-0.219,4.473-0.219,4.473
			s-0.084-1.555-0.241-4.472c-0.135-2.917-0.379-7.194-0.596-12.638c-0.231-5.444-0.532-12.055-0.783-19.639
			c-0.278-7.583-0.586-16.139-0.828-25.472c-0.133-4.667-0.272-9.528-0.416-14.559c-0.112-5.031-0.228-10.233-0.347-15.58
			c-0.227-10.695-0.492-21.973-0.618-33.64c-0.08-5.833-0.162-11.764-0.245-17.768c-0.041-3.002-0.083-6.022-0.125-9.057
			c-0.019-3.035-0.038-6.086-0.057-9.149c-0.074-12.251-0.15-24.696-0.226-37.141c0.016-12.445,0.033-24.891,0.049-37.142
			c-0.009-6.125,0.039-12.202,0.1-18.207c0.053-6.004,0.106-11.935,0.157-17.769c0.067-11.668,0.288-22.947,0.456-33.643
			c0.145-10.696,0.389-20.808,0.615-30.143c0.195-9.335,0.464-17.891,0.702-25.476c0.212-7.584,0.482-14.197,0.684-19.642
			c0.19-5.445,0.412-9.724,0.532-12.641C1841.278,361.438,1841.354,359.882,1841.354,359.882z"/>
	</g>
</g>
</svg>
