<svg id="BACKGROUND" xmlns="http://www.w3.org/2000/svg" xmlns:xlink="http://www.w3.org/1999/xlink" viewBox="0 0 4000 2500"><defs><style>.cls-1,.cls-12,.cls-14,.cls-18,.cls-19,.cls-20,.cls-21,.cls-23,.cls-25,.cls-26,.cls-27,.cls-28{fill:none;}.cls-2{fill:url(#linear-gradient);}.cls-3{fill:url(#linear-gradient-2);}.cls-4{fill:#f8adb0;}.cls-5{fill:#fee9e1;}.cls-6{fill:#fff;}.cls-7{fill:url(#linear-gradient-3);}.cls-8{fill:url(#linear-gradient-4);}.cls-9{fill:#fabdb8;}.cls-10{fill:#f7abaf;}.cls-11{fill:#e28d99;}.cls-12{stroke:#f8adb0;}.cls-12,.cls-14,.cls-18,.cls-19,.cls-20,.cls-21,.cls-23,.cls-25,.cls-26,.cls-27,.cls-28{stroke-miterlimit:10;}.cls-12,.cls-18{stroke-width:3px;}.cls-13{fill:url(#New_Gradient_Swatch_copy);}.cls-14,.cls-25,.cls-26,.cls-27,.cls-28{stroke:#fff;}.cls-14{stroke-width:24.69px;}.cls-15{fill:#fbc3b6;}.cls-16{fill:#e0aaa9;}.cls-17{fill:#fdddcd;}.cls-18{stroke:#e0aaa9;}.cls-19,.cls-20,.cls-21{stroke-width:34px;}.cls-19{stroke:url(#linear-gradient-5);}.cls-20{stroke-dasharray:179.54 153.34;stroke:url(#linear-gradient-6);}.cls-21{stroke:url(#linear-gradient-7);}.cls-22{fill:#eeada8;}.cls-23{stroke:#d88496;stroke-width:2px;}.cls-24,.cls-33{fill:#d88496;}.cls-25{stroke-width:12px;}.cls-25,.cls-26,.cls-27,.cls-28{opacity:0.37;}.cls-26{stroke-width:5px;}.cls-27{stroke-width:9px;}.cls-28{stroke-width:23px;}.cls-29{fill:#efbaaf;}.cls-30{clip-path:url(#clip-path);}.cls-31{fill:#ec919f;}.cls-32{font-size:68.86px;}.cls-32,.cls-35{fill:#efb7ad;}.cls-32,.cls-33{font-family:LubalinGraphStd-Demi, ITC Lubalin Graph Std;}.cls-33{font-size:83.04px;}.cls-34{letter-spacing:-0.07em;}.cls-36{fill:#f8b1a7;}</style><linearGradient id="linear-gradient" x1="2000" y1="-79.18" x2="2000" y2="878.98" gradientUnits="userSpaceOnUse"><stop offset="0" stop-color="#fcd3c8"/><stop offset="1" stop-color="#fee4cb"/></linearGradient><linearGradient id="linear-gradient-2" x1="577.75" y1="1265.77" x2="848.41" y2="686.18" gradientUnits="userSpaceOnUse"><stop offset="0" stop-color="#fabdb8"/><stop offset="1" stop-color="#f7a9ae"/></linearGradient><linearGradient id="linear-gradient-3" x1="2576.48" y1="1320.57" x2="3066.19" y2="271.9" xlink:href="#linear-gradient-2"/><linearGradient id="linear-gradient-4" x1="1670.02" y1="1173.64" x2="1673.94" y2="955.83" xlink:href="#linear-gradient-2"/><linearGradient id="New_Gradient_Swatch_copy" x1="2000" y1="2927.75" x2="2000" y2="1595.26" gradientUnits="userSpaceOnUse"><stop offset="0" stop-color="#121a3c"/><stop offset="1" stop-color="#1d3658"/></linearGradient><linearGradient id="linear-gradient-5" x1="-0.07" y1="2020.46" x2="4000.07" y2="2020.46" gradientUnits="userSpaceOnUse"><stop offset="0" stop-color="#fec359"/><stop offset="1" stop-color="#f79562"/></linearGradient><linearGradient id="linear-gradient-6" x1="-0.07" y1="2018.86" x2="4000.07" y2="2018.86" xlink:href="#linear-gradient-5"/><linearGradient id="linear-gradient-7" x1="-0.07" y1="2020.45" x2="4000.07" y2="2020.45" xlink:href="#linear-gradient-5"/><clipPath id="clip-path"><polygon class="cls-1" points="772.08 1098.32 1186.12 1098.32 1231.25 1204.29 732.84 1204.29 772.08 1098.32"/></clipPath></defs><title>v copy 10</title><rect class="cls-2" width="4000" height="1239.56"/><path class="cls-3" d="M1262.22,1031.88H956.69a75.43,75.43,0,0,0-39.22,11L891,1059A75.43,75.43,0,0,1,841,1069.19l-142.61-20.7a75.43,75.43,0,0,1-24.66-8.09L448.9,920.51a75.43,75.43,0,0,0-59.18-5.06L70,1021.16A75.43,75.43,0,0,1,40,1024.72l-38.93-3.24L0,1302.7H1251.22Z"/><path class="cls-4" d="M479.52,1293.67a9.4,9.4,0,0,1-4.55-.22L430.52,1280a9.4,9.4,0,0,0-3.8-.34L303.4,1293.8a9.4,9.4,0,0,1-5.28-.93l-38.54-19.27a9.4,9.4,0,0,0-6.48-.71L214,1282.68a9.4,9.4,0,0,1-8.23-1.84l-7.38-6a9.4,9.4,0,0,0-10.84-.75l-25.82,15.72a9.4,9.4,0,0,1-5.07,1.37l-70-1.4a9.4,9.4,0,0,1-1.69-.19L0,1272.38v30.32H483.94Z"/><path class="cls-5" d="M1319.42,1109c0-204.24-172.64-369.81-385.59-369.81S548.23,904.8,548.23,1109"/><circle class="cls-6" cx="2933.18" cy="854.75" r="122.84"/><path class="cls-7" d="M4000,983.83s-318.39-29.43-415.38-29.43c-68,0-75.05,78.49-160.4,78.49H3118.69a75.43,75.43,0,0,0-39.22,11L3053,1060a75.43,75.43,0,0,1-50.05,10.22l-142.61-20.7a75.43,75.43,0,0,1-24.66-8.09l-224.8-119.9a75.43,75.43,0,0,0-59.18-5.06L2232,1022.16a75.43,75.43,0,0,1-29.94,3.55l-38.93-3.24a75.43,75.43,0,0,1-30.72-9.43,75.43,75.43,0,0,0-67.21-3.36L2033,1023.77a75.43,75.43,0,0,1-55.85,1.84l-49.08-17.72a75.43,75.43,0,0,0-56.37,2.07L1763,1058.48a75.43,75.43,0,0,1-57.47,1.66L1346,924l5.89,379.74H4000Z"/><path class="cls-4" d="M1391.19,1284.24l79.4-11.71a9.4,9.4,0,0,1,3.25.09l84.38,17.16a9.4,9.4,0,0,0,1.69.19l70,1.4A9.4,9.4,0,0,0,1635,1290l25.82-15.72a9.4,9.4,0,0,1,10.84.75l7.38,6a9.4,9.4,0,0,0,8.23,1.84l39.14-9.79a9.4,9.4,0,0,1,6.48.71l38.54,19.27a9.4,9.4,0,0,0,5.28.93L1900,1279.86a9.4,9.4,0,0,1,3.8.34l44.45,13.47a9.4,9.4,0,0,0,4.55.22l157-31.12a9.4,9.4,0,0,1,7.33,1.6l19.49,14.08a9.4,9.4,0,0,0,8,1.43l38.9-10.94a9.4,9.4,0,0,1,7.25.91l20.69,12a9.4,9.4,0,0,0,8,.67l54-20.08a9.4,9.4,0,0,1,9.36,1.65l22.6,19.21a9.4,9.4,0,0,0,6.09,2.24h145.23a9.4,9.4,0,0,0,2.78-.42l76.47-23.64a9.4,9.4,0,0,1,6.15.21l32.87,12.64a9.4,9.4,0,0,0,4.84.51l51.66-8.16a9.4,9.4,0,0,1,3.52.11l81.28,18.22a9.4,9.4,0,0,0,4.61-.13l52.46-14.8a9.4,9.4,0,0,1,5.28.05l43.72,13.25a9.4,9.4,0,0,0,4.48.24l119.5-22.76a9.4,9.4,0,0,1,3.69,0l115.61,24.26a9.4,9.4,0,0,0,3.51.07l56.78-9.69a9.4,9.4,0,0,1,3.57.08l50.87,11a9.4,9.4,0,0,0,3.63.07l137.5-24.35a9.4,9.4,0,0,1,3.89.13l85.13,21a9.4,9.4,0,0,1,5,15.09l-.8,1a9.4,9.4,0,0,1-7.26,3.43h-2015a9.4,9.4,0,0,1-9.37-8.61h0A9.4,9.4,0,0,1,1391.19,1284.24Z"/><path class="cls-8" d="M1731.3,1072.81l231.55,88.3-119-9.15a12.07,12.07,0,0,0-12,7.2l-10.3,23.54-154-74.45a12.07,12.07,0,0,0-16.82,14.29l7.94,26.8-133.8-59.18c-12.59-5.57-23.18,10.89-12.91,20L1635.15,1220l-257.06-84.38,19.62-194.26Z"/><path class="cls-9" d="M3101.95,1053.19a65.85,65.85,0,0,1-.92,14.14,110,110,0,0,1-3.1,13.49,108,108,0,0,1-4.74,13,65.12,65.12,0,0,1-6.94,12.35,65.12,65.12,0,0,1,.91-14.14,108,108,0,0,1,3.11-13.49,110,110,0,0,1,4.75-13A65.87,65.87,0,0,1,3101.95,1053.19Z"/><path class="cls-9" d="M3541.68,997.11a65.85,65.85,0,0,1-.92,14.14,110,110,0,0,1-3.1,13.49,108.12,108.12,0,0,1-4.74,13,65.14,65.14,0,0,1-6.94,12.35,65.15,65.15,0,0,1,.91-14.14,108.14,108.14,0,0,1,3.11-13.49,110.14,110.14,0,0,1,4.75-13A65.87,65.87,0,0,1,3541.68,997.11Z"/><path class="cls-9" d="M3132.36,1058.1a157.81,157.81,0,0,1,3.13,21.83c.59,7.28.86,14.55.86,21.83s-.27,14.55-.85,21.83a156.1,156.1,0,0,1-3.15,21.83,156,156,0,0,1-3.15-21.83q-.88-10.91-.85-21.83c0-7.28.28-14.55.86-21.83A157.88,157.88,0,0,1,3132.36,1058.1Z"/><path class="cls-9" d="M3174.55,1062a70.06,70.06,0,0,1,4.35,14,117.49,117.49,0,0,1,2.09,14.15,115.34,115.34,0,0,1,.38,14.3,69.24,69.24,0,0,1-1.91,14.5,69.27,69.27,0,0,1-4.36-14,115.42,115.42,0,0,1-2.08-14.15,117.49,117.49,0,0,1-.37-14.3A70,70,0,0,1,3174.55,1062Z"/><path class="cls-9" d="M3226.55,1052.21a113.05,113.05,0,0,1,3.38,18.35c.67,6.12,1,12.25,1.11,18.38s-.1,12.27-.61,18.41a111.66,111.66,0,0,1-2.9,18.44,111.67,111.67,0,0,1-3.39-18.35c-.67-6.12-1-12.25-1.1-18.38s.11-12.27.62-18.41A113,113,0,0,1,3226.55,1052.21Z"/><path class="cls-9" d="M3264.81,1057.11a69.08,69.08,0,0,1,8.52,11.75,115.7,115.7,0,0,1,6.43,12.66,113.72,113.72,0,0,1,4.86,13.34,68.28,68.28,0,0,1,2.76,14.25,68.29,68.29,0,0,1-8.53-11.75,113.73,113.73,0,0,1-6.42-12.66,115.7,115.7,0,0,1-4.85-13.34A69,69,0,0,1,3264.81,1057.11Z"/><path class="cls-9" d="M2942.14,1094.59a69.05,69.05,0,0,1,12.95,6.56,115.65,115.65,0,0,1,11.51,8.31,113.75,113.75,0,0,1,10.42,9.64,68.29,68.29,0,0,1,9,11.41,68.28,68.28,0,0,1-13-6.55,113.82,113.82,0,0,1-11.5-8.32,115.79,115.79,0,0,1-10.41-9.65A69.07,69.07,0,0,1,2942.14,1094.59Z"/><path class="cls-9" d="M2912.18,1113.23a69.05,69.05,0,0,1,12.95,6.56,115.65,115.65,0,0,1,11.51,8.31,113.75,113.75,0,0,1,10.42,9.64,68.29,68.29,0,0,1,9,11.41,68.28,68.28,0,0,1-13-6.55,113.71,113.71,0,0,1-11.5-8.32,115.79,115.79,0,0,1-10.41-9.65A69.07,69.07,0,0,1,2912.18,1113.23Z"/><path class="cls-9" d="M2882.22,1131.88a69.07,69.07,0,0,1,12.95,6.56,115.65,115.65,0,0,1,11.51,8.31,113.75,113.75,0,0,1,10.42,9.64,68.29,68.29,0,0,1,9,11.41,68.26,68.26,0,0,1-13-6.55,113.71,113.71,0,0,1-11.5-8.32,115.79,115.79,0,0,1-10.41-9.65A69.07,69.07,0,0,1,2882.22,1131.88Z"/><path class="cls-9" d="M2852.26,1150.52a69.07,69.07,0,0,1,12.95,6.56,115.65,115.65,0,0,1,11.51,8.31,113.75,113.75,0,0,1,10.42,9.64,68.29,68.29,0,0,1,9,11.41,68.26,68.26,0,0,1-13-6.55,113.71,113.71,0,0,1-11.5-8.32,115.86,115.86,0,0,1-10.41-9.65A69.09,69.09,0,0,1,2852.26,1150.52Z"/><path class="cls-9" d="M2822.3,1169.17a69.07,69.07,0,0,1,12.95,6.56,115.65,115.65,0,0,1,11.51,8.31,113.75,113.75,0,0,1,10.42,9.64,68.29,68.29,0,0,1,9,11.41,68.28,68.28,0,0,1-13-6.55,113.76,113.76,0,0,1-11.5-8.32,115.73,115.73,0,0,1-10.41-9.65A69.09,69.09,0,0,1,2822.3,1169.17Z"/><path class="cls-9" d="M2792.35,1187.81a69.08,69.08,0,0,1,12.95,6.56,115.65,115.65,0,0,1,11.51,8.31,113.75,113.75,0,0,1,10.42,9.64,68.29,68.29,0,0,1,9,11.41,68.28,68.28,0,0,1-13-6.55,113.76,113.76,0,0,1-11.5-8.32,115.73,115.73,0,0,1-10.41-9.65A69.06,69.06,0,0,1,2792.35,1187.81Z"/><path class="cls-9" d="M2762.39,1206.46a69.08,69.08,0,0,1,12.95,6.56,115.65,115.65,0,0,1,11.51,8.31,113.75,113.75,0,0,1,10.42,9.64,68.31,68.31,0,0,1,9,11.41,68.28,68.28,0,0,1-13-6.55,113.76,113.76,0,0,1-11.5-8.32,115.73,115.73,0,0,1-10.41-9.65A69,69,0,0,1,2762.39,1206.46Z"/><path class="cls-9" d="M3308,1058.1a81.05,81.05,0,0,1,11,11.31,137.3,137.3,0,0,1,9.07,12.53,134.83,134.83,0,0,1,7.62,13.46,80.2,80.2,0,0,1,5.69,14.7,80.2,80.2,0,0,1-11-11.3,135,135,0,0,1-9.06-12.54,137.43,137.43,0,0,1-7.61-13.47A81.1,81.1,0,0,1,3308,1058.1Z"/><path class="cls-9" d="M3608.21,979.61a94.36,94.36,0,0,1,13,11,161.12,161.12,0,0,1,11.22,12.46,158.46,158.46,0,0,1,9.88,13.54,93.34,93.34,0,0,1,8.1,15,93.31,93.31,0,0,1-13-11,158.38,158.38,0,0,1-11.21-12.46,161.32,161.32,0,0,1-9.88-13.54A94.36,94.36,0,0,1,3608.21,979.61Z"/><path class="cls-9" d="M3651.38,980.59a81.88,81.88,0,0,1,14.88,5.42,138.74,138.74,0,0,1,13.7,7.36,136.28,136.28,0,0,1,12.8,8.82,80.92,80.92,0,0,1,11.6,10.78,81,81,0,0,1-14.89-5.41,136.21,136.21,0,0,1-13.69-7.37,138.73,138.73,0,0,1-12.79-8.83A81.83,81.83,0,0,1,3651.38,980.59Z"/><path class="cls-9" d="M3340.36,1065a111.26,111.26,0,0,1,13.32,12.86q6.11,6.84,11.49,14.21t10.1,15.22a110,110,0,0,1,8.26,16.58A110,110,0,0,1,3370.2,1111q-6.11-6.84-11.48-14.21t-10.1-15.23A111.22,111.22,0,0,1,3340.36,1065Z"/><path class="cls-9" d="M3388.44,1065a79.46,79.46,0,0,1,12.62,9.17,134.45,134.45,0,0,1,10.94,10.7,132,132,0,0,1,9.67,11.86,78.54,78.54,0,0,1,8,13.4,78.54,78.54,0,0,1-12.62-9.16,131.93,131.93,0,0,1-10.93-10.71,134.53,134.53,0,0,1-9.66-11.87A79.46,79.46,0,0,1,3388.44,1065Z"/><path class="cls-10" d="M1823.53,1058.1a66.49,66.49,0,0,1,13.11,5.55,111.14,111.14,0,0,1,11.79,7.39,109.22,109.22,0,0,1,10.79,8.79,65.79,65.79,0,0,1,9.45,10.65,65.74,65.74,0,0,1-13.12-5.54,109.14,109.14,0,0,1-11.78-7.4,111.14,111.14,0,0,1-10.78-8.8A66.53,66.53,0,0,1,1823.53,1058.1Z"/><path class="cls-10" d="M1856.89,1042.4a66.51,66.51,0,0,1,13.11,5.55,111.21,111.21,0,0,1,11.79,7.39,109.17,109.17,0,0,1,10.79,8.79,65.75,65.75,0,0,1,9.45,10.65,65.76,65.76,0,0,1-13.12-5.54,109.17,109.17,0,0,1-11.78-7.4,111.22,111.22,0,0,1-10.78-8.8A66.53,66.53,0,0,1,1856.89,1042.4Z"/><path class="cls-10" d="M2533.82,970.86a52.46,52.46,0,0,1,11.74,4.56,86,86,0,0,1,10.42,6.41,84.53,84.53,0,0,1,9.42,7.81,51.92,51.92,0,0,1,8.08,9.67,51.9,51.9,0,0,1-11.75-4.56,84.37,84.37,0,0,1-10.41-6.42,86,86,0,0,1-9.41-7.81A52.46,52.46,0,0,1,2533.82,970.86Z"/><path class="cls-10" d="M2563.26,938.48A52.48,52.48,0,0,1,2575,943a86,86,0,0,1,10.42,6.41,84.48,84.48,0,0,1,9.42,7.81,51.89,51.89,0,0,1,8.08,9.67,51.9,51.9,0,0,1-11.75-4.56,84.53,84.53,0,0,1-10.41-6.42,86.06,86.06,0,0,1-9.41-7.81A52.49,52.49,0,0,1,2563.26,938.48Z"/><path class="cls-10" d="M2503.06,992.18a93.26,93.26,0,0,1,15.34,7.15,159.23,159.23,0,0,1,14,9,156.4,156.4,0,0,1,13,10.39,92.25,92.25,0,0,1,11.68,12.25,92.24,92.24,0,0,1-15.35-7.14,156.35,156.35,0,0,1-14-9,159.34,159.34,0,0,1-13-10.4A93.3,93.3,0,0,1,2503.06,992.18Z"/><path class="cls-10" d="M2494.23,1006.9a93.3,93.3,0,0,1,15.34,7.15,159.23,159.23,0,0,1,14,9,156.51,156.51,0,0,1,13,10.39,92.23,92.23,0,0,1,11.68,12.25,92.17,92.17,0,0,1-15.35-7.14,156.34,156.34,0,0,1-14-9,159.25,159.25,0,0,1-13-10.4A93.27,93.27,0,0,1,2494.23,1006.9Z"/><path class="cls-10" d="M2447.13,1039.28a93.24,93.24,0,0,1,15.34,7.15,159.34,159.34,0,0,1,14,9,156.5,156.5,0,0,1,13,10.39,92.25,92.25,0,0,1,11.68,12.25,92.24,92.24,0,0,1-15.35-7.14,156.49,156.49,0,0,1-14-9,159.34,159.34,0,0,1-13-10.4A93.3,93.3,0,0,1,2447.13,1039.28Z"/><path class="cls-10" d="M2411.81,1077.55a93.26,93.26,0,0,1,15.34,7.15,159.34,159.34,0,0,1,14,9,156.5,156.5,0,0,1,13,10.39,92.22,92.22,0,0,1,11.68,12.25,92.21,92.21,0,0,1-15.35-7.14,156.34,156.34,0,0,1-14-9,159.25,159.25,0,0,1-13-10.4A93.24,93.24,0,0,1,2411.81,1077.55Z"/><path class="cls-10" d="M2385.31,1107a93.3,93.3,0,0,1,15.34,7.15,159.23,159.23,0,0,1,14,9,156.51,156.51,0,0,1,13,10.39,92.26,92.26,0,0,1,11.68,12.25,92.17,92.17,0,0,1-15.35-7.14,156.34,156.34,0,0,1-14-9,159.25,159.25,0,0,1-13-10.4A93.24,93.24,0,0,1,2385.31,1107Z"/><path class="cls-10" d="M2369,1131.92a39.48,39.48,0,0,1,10.27,3.51,62.56,62.56,0,0,1,9,5.36,61.58,61.58,0,0,1,7.95,6.75,39.07,39.07,0,0,1,6.61,8.62,39.07,39.07,0,0,1-10.28-3.5,61.61,61.61,0,0,1-8.95-5.37,62.63,62.63,0,0,1-7.94-6.76A39.49,39.49,0,0,1,2369,1131.92Z"/><path class="cls-10" d="M2180.56,1058.33a39.48,39.48,0,0,1,10.27,3.51,62.63,62.63,0,0,1,9,5.36,61.58,61.58,0,0,1,7.95,6.75,39.06,39.06,0,0,1,6.61,8.62,39.06,39.06,0,0,1-10.28-3.5,61.58,61.58,0,0,1-8.95-5.37,62.56,62.56,0,0,1-7.94-6.76A39.47,39.47,0,0,1,2180.56,1058.33Z"/><path class="cls-10" d="M2151.51,1075.81a82.6,82.6,0,0,1,14.5,6.54,140,140,0,0,1,13.17,8.39,137.49,137.49,0,0,1,12.17,9.78,81.63,81.63,0,0,1,10.84,11.65,81.65,81.65,0,0,1-14.5-6.53,137.6,137.6,0,0,1-13.17-8.4,140,140,0,0,1-12.17-9.79A82.57,82.57,0,0,1,2151.51,1075.81Z"/><path class="cls-10" d="M2136.79,1093.48a82.57,82.57,0,0,1,14.5,6.54,140,140,0,0,1,13.18,8.39,137.56,137.56,0,0,1,12.17,9.78,81.63,81.63,0,0,1,10.84,11.65,81.65,81.65,0,0,1-14.5-6.53,137.56,137.56,0,0,1-13.17-8.4,140,140,0,0,1-12.17-9.79A82.61,82.61,0,0,1,2136.79,1093.48Z"/><path class="cls-10" d="M2122.07,1111.14a82.6,82.6,0,0,1,14.5,6.54,140.14,140.14,0,0,1,13.18,8.39,137.56,137.56,0,0,1,12.17,9.78,81.6,81.6,0,0,1,10.84,11.65,81.65,81.65,0,0,1-14.5-6.53,137.56,137.56,0,0,1-13.17-8.4,140,140,0,0,1-12.17-9.79A82.58,82.58,0,0,1,2122.07,1111.14Z"/><path class="cls-10" d="M2107.35,1128.8a82.58,82.58,0,0,1,14.5,6.54,140.08,140.08,0,0,1,13.18,8.39,137.56,137.56,0,0,1,12.17,9.78,81.63,81.63,0,0,1,10.84,11.65,81.65,81.65,0,0,1-14.5-6.53,137.46,137.46,0,0,1-13.17-8.4,140,140,0,0,1-12.17-9.79A82.55,82.55,0,0,1,2107.35,1128.8Z"/><path class="cls-10" d="M1896.1,1045.34a34.91,34.91,0,0,1,9.69,3.09,54.33,54.33,0,0,1,8.37,4.94,53.44,53.44,0,0,1,7.37,6.34,34.52,34.52,0,0,1,6,8.2,34.51,34.51,0,0,1-9.7-3.09,53.47,53.47,0,0,1-8.36-4.95,54.34,54.34,0,0,1-7.36-6.34A34.89,34.89,0,0,1,1896.1,1045.34Z"/><path class="cls-10" d="M1925.54,1036.51a34.89,34.89,0,0,1,9.69,3.09,54.33,54.33,0,0,1,8.37,4.94,53.46,53.46,0,0,1,7.37,6.34,34.52,34.52,0,0,1,6,8.2,34.51,34.51,0,0,1-9.7-3.09,53.47,53.47,0,0,1-8.36-4.95,54.34,54.34,0,0,1-7.36-6.34A34.88,34.88,0,0,1,1925.54,1036.51Z"/><path class="cls-4" d="M3211.1,1376.43a3.77,3.77,0,0,1-3.77-3.77v-59.8a3.77,3.77,0,0,1,7.54,0v59.8A3.77,3.77,0,0,1,3211.1,1376.43Z"/><path class="cls-4" d="M3210.59,1352.64h-4.94a13.21,13.21,0,0,1-13.2-13.2V1328a3.77,3.77,0,0,1,7.54,0v11.41a5.66,5.66,0,0,0,5.66,5.66h4.94a3.77,3.77,0,0,1,0,7.54Z"/><path class="cls-4" d="M3217.68,1341.86h-6.37a3.77,3.77,0,1,1,0-7.54h6.37a5.66,5.66,0,0,0,5.66-5.66v-12.12a3.77,3.77,0,0,1,7.54,0v12.12A13.21,13.21,0,0,1,3217.68,1341.86Z"/><path class="cls-4" d="M1644.27,1382.1a3.77,3.77,0,0,1-3.77-3.77v-59.8a3.77,3.77,0,0,1,7.54,0v59.8A3.77,3.77,0,0,1,1644.27,1382.1Z"/><path class="cls-4" d="M1643.76,1358.31h-4.94a13.21,13.21,0,0,1-13.2-13.2V1333.7a3.77,3.77,0,1,1,7.54,0v11.41a5.66,5.66,0,0,0,5.66,5.66h4.94a3.77,3.77,0,0,1,0,7.54Z"/><path class="cls-4" d="M1650.85,1347.53h-6.37a3.77,3.77,0,1,1,0-7.54h6.37a5.66,5.66,0,0,0,5.66-5.66v-12.12a3.77,3.77,0,1,1,7.54,0v12.12A13.21,13.21,0,0,1,1650.85,1347.53Z"/><path class="cls-11" d="M3005.94,1330.16a2.54,2.54,0,0,1-2.54-2.54v-40.25a2.54,2.54,0,1,1,5.08,0v40.25A2.54,2.54,0,0,1,3005.94,1330.16Z"/><path class="cls-11" d="M3005.6,1314.14h-3.32a8.89,8.89,0,0,1-8.88-8.88v-7.68a2.54,2.54,0,1,1,5.08,0v7.68a3.81,3.81,0,0,0,3.81,3.81h3.32a2.54,2.54,0,1,1,0,5.08Z"/><path class="cls-11" d="M3010.38,1306.88h-4.29a2.54,2.54,0,1,1,0-5.08h4.29a3.81,3.81,0,0,0,3.81-3.81v-8.16a2.54,2.54,0,0,1,5.08,0V1298A8.89,8.89,0,0,1,3010.38,1306.88Z"/><path class="cls-11" d="M3364.32,1400a3.77,3.77,0,0,1-3.77-3.77v-53.16a3.77,3.77,0,1,1,7.54,0v53.16A3.77,3.77,0,0,1,3364.32,1400Z"/><path class="cls-11" d="M3364.32,1381.37h-8a11.6,11.6,0,0,1-11.59-11.59v-6.55a3.77,3.77,0,1,1,7.54,0v6.55a4,4,0,0,0,4,4h8a3.77,3.77,0,0,1,0,7.54Z"/><path class="cls-11" d="M3370.88,1372.75h-6.55a3.77,3.77,0,1,1,0-7.54h6.55a4,4,0,0,0,4-4v-14.45a3.77,3.77,0,1,1,7.54,0v14.45A11.6,11.6,0,0,1,3370.88,1372.75Z"/><path class="cls-4" d="M3267.34,1417.29a3.77,3.77,0,0,1-3.77-3.77v-56a3.77,3.77,0,1,1,7.54,0v56A3.77,3.77,0,0,1,3267.34,1417.29Z"/><path class="cls-4" d="M3273.52,1395h-13.08a11.25,11.25,0,0,1-11.24-11.24V1374a3.77,3.77,0,1,1,7.54,0v9.77a3.7,3.7,0,0,0,3.7,3.7h13.08a3.7,3.7,0,0,0,3.7-3.7v-15.52a3.77,3.77,0,0,1,7.54,0v15.52A11.25,11.25,0,0,1,3273.52,1395Z"/><path class="cls-11" d="M2834.65,1340.68a3.26,3.26,0,0,1-3.26-3.26V1289a3.26,3.26,0,1,1,6.52,0v48.45A3.26,3.26,0,0,1,2834.65,1340.68Z"/><path class="cls-11" d="M2840,1321.42h-11.31a9.73,9.73,0,0,1-9.72-9.72v-8.45a3.26,3.26,0,0,1,6.52,0v8.45a3.2,3.2,0,0,0,3.2,3.2H2840a3.2,3.2,0,0,0,3.2-3.2v-13.42a3.26,3.26,0,0,1,6.52,0v13.42A9.73,9.73,0,0,1,2840,1321.42Z"/><path class="cls-4" d="M2662,1378a3.88,3.88,0,0,1-3.88-3.88V1316.4a3.88,3.88,0,0,1,7.76,0v57.67A3.88,3.88,0,0,1,2662,1378Z"/><path class="cls-4" d="M2668.39,1355h-13.46a11.58,11.58,0,0,1-11.57-11.57v-10.06a3.88,3.88,0,1,1,7.76,0v10.06a3.81,3.81,0,0,0,3.81,3.81h13.46a3.81,3.81,0,0,0,3.81-3.81v-16a3.88,3.88,0,0,1,7.76,0v16A11.58,11.58,0,0,1,2668.39,1355Z"/><path class="cls-11" d="M1477.3,1336.3a2.63,2.63,0,0,1-2.63-2.63v-39.12a2.63,2.63,0,0,1,5.27,0v39.12A2.63,2.63,0,0,1,1477.3,1336.3Z"/><path class="cls-11" d="M1481.62,1320.75h-9.13a7.86,7.86,0,0,1-7.85-7.85v-6.82a2.63,2.63,0,0,1,5.27,0v6.82a2.59,2.59,0,0,0,2.58,2.58h9.13a2.59,2.59,0,0,0,2.58-2.58v-10.83a2.63,2.63,0,1,1,5.27,0v10.83A7.86,7.86,0,0,1,1481.62,1320.75Z"/><path class="cls-11" d="M41,1336.3a2.63,2.63,0,0,1-2.63-2.63v-39.12a2.63,2.63,0,0,1,5.27,0v39.12A2.63,2.63,0,0,1,41,1336.3Z"/><path class="cls-11" d="M45.29,1320.75H36.16a7.86,7.86,0,0,1-7.85-7.85v-6.82a2.63,2.63,0,0,1,5.27,0v6.82a2.59,2.59,0,0,0,2.58,2.58h9.13a2.59,2.59,0,0,0,2.58-2.58v-10.83a2.63,2.63,0,1,1,5.27,0v10.83A7.86,7.86,0,0,1,45.29,1320.75Z"/><path class="cls-11" d="M2073.69,1320.93a2.63,2.63,0,0,1-2.63-2.63v-39.12a2.63,2.63,0,0,1,5.27,0v39.12A2.63,2.63,0,0,1,2073.69,1320.93Z"/><path class="cls-11" d="M2078,1305.38h-9.13a7.86,7.86,0,0,1-7.85-7.85v-6.82a2.63,2.63,0,1,1,5.27,0v6.82a2.59,2.59,0,0,0,2.58,2.58H2078a2.59,2.59,0,0,0,2.58-2.58V1286.7a2.63,2.63,0,1,1,5.27,0v10.83A7.86,7.86,0,0,1,2078,1305.38Z"/><polygon class="cls-11" points="2895.46 1332.73 2891.66 1316.26 2897.99 1324.7 2895.03 1309.5 2902.64 1323.01 2902.64 1308.66 2907.28 1322.17 2911.5 1307.39 2911.08 1322.59 2917.41 1312.88 2913.61 1326.39 2925.01 1318.79 2919.1 1332.3 2895.46 1332.73"/><polygon class="cls-11" points="3108.72 1390.12 3096.9 1365.76 3112.72 1377.44 3108.05 1353.4 3120.07 1374.77 3120.07 1352.07 3127.41 1373.43 3134.09 1350.07 3133.42 1374.1 3143.43 1358.75 3137.42 1380.11 3155.45 1368.09 3146.1 1389.45 3108.72 1390.12"/><polygon class="cls-11" points="2402.61 1359.71 2390.78 1335.35 2406.61 1347.03 2401.94 1322.99 2413.96 1344.36 2413.96 1321.66 2421.3 1343.02 2427.97 1319.66 2427.31 1343.69 2437.32 1328.33 2431.31 1349.69 2449.34 1337.68 2439.99 1359.04 2402.61 1359.71"/><polygon class="cls-4" points="2286.29 1326.1 2280.41 1313.98 2288.28 1319.79 2285.96 1307.84 2291.94 1318.46 2291.94 1307.17 2295.59 1317.8 2298.91 1306.18 2298.58 1318.13 2303.55 1310.49 2300.57 1321.12 2309.53 1315.14 2304.88 1325.76 2286.29 1326.1"/><polygon class="cls-4" points="1686.2 1333.97 1679.72 1320.63 1688.39 1327.02 1685.83 1313.86 1692.41 1325.56 1692.41 1313.13 1696.43 1324.83 1700.09 1312.04 1699.72 1325.19 1705.2 1316.79 1701.91 1328.48 1711.78 1321.9 1706.66 1333.6 1686.2 1333.97"/><line class="cls-12" x1="1773.91" y1="1327.5" x2="1910.77" y2="1327.5"/><line class="cls-12" x1="70.29" y1="1327.5" x2="207.16" y2="1327.5"/><line class="cls-12" x1="1857.79" y1="1318.67" x2="1994.65" y2="1318.67"/><line class="cls-12" x1="145.7" y1="1369.58" x2="282.56" y2="1369.58"/><line class="cls-12" x1="2449.38" y1="1327.5" x2="2586.24" y2="1327.5"/><line class="cls-12" x1="2823.17" y1="1352.52" x2="3033.62" y2="1352.52"/><line class="cls-12" x1="3313.22" y1="1415.8" x2="3416.24" y2="1415.8"/><line class="cls-12" x1="2933.55" y1="1368.71" x2="3067.46" y2="1368.71"/><line class="cls-12" x1="3384.73" y1="1326.08" x2="3595.18" y2="1326.08"/><line class="cls-12" x1="3495.11" y1="1342.27" x2="3629.02" y2="1342.27"/><path class="cls-11" d="M3594,1392.18a3.26,3.26,0,0,1-3.26-3.26v-48.45a3.26,3.26,0,1,1,6.52,0v48.45A3.26,3.26,0,0,1,3594,1392.18Z"/><path class="cls-11" d="M3599.35,1372.93H3588a9.73,9.73,0,0,1-9.72-9.72v-8.45a3.26,3.26,0,0,1,6.52,0v8.45a3.2,3.2,0,0,0,3.2,3.2h11.31a3.2,3.2,0,0,0,3.2-3.2v-13.42a3.26,3.26,0,0,1,6.52,0v13.42A9.73,9.73,0,0,1,3599.35,1372.93Z"/><polygon class="cls-11" points="3654.81 1384.23 3651.01 1367.77 3657.35 1376.21 3654.39 1361.01 3661.99 1374.52 3661.99 1360.16 3666.64 1373.68 3670.86 1358.9 3670.44 1374.1 3676.77 1364.39 3672.97 1377.9 3684.37 1370.3 3678.46 1383.81 3654.81 1384.23"/><line class="cls-12" x1="3692.9" y1="1420.21" x2="3826.82" y2="1420.21"/><line class="cls-12" x1="3743.92" y1="1347.61" x2="3877.84" y2="1347.61"/><line class="cls-12" x1="3388.75" y1="1396.66" x2="3522.67" y2="1396.66"/><line class="cls-12" x1="3039.5" y1="1321.61" x2="3173.42" y2="1321.61"/><line class="cls-12" x1="1382.45" y1="1345.16" x2="1516.37" y2="1345.16"/><polygon class="cls-13" points="0 1437.42 0 2500 4000 2500 4000 1497.72 0 1437.42"/><path class="cls-14" d="M4000,1729.82c-415.87-1.28-1381.93-2.1-2114.3-2.1-730.91,0-1469.72.82-1885.7,2.09"/><path class="cls-15" d="M348.23,1575H4000v-97c-492-69.48-1306.23-114.21-2172.63-114.21C1179,1363.81,464.51,1388.87,0,1430.59v47.28S-9.78,1575,348.23,1575Z"/><path class="cls-16" d="M1313.59,1643.58c-214.89,0-209-97.14-209-97.14v-47.28q-20.79,3.11-41,6.35v90.17c4.12,23.27,31.39,89.11,208.3,89.11H4000v-41.31Z"/><path class="cls-17" d="M1322.66,1555.17c-214.89,0-209-97.14-209-97.14v-47.28q-24,3.59-47.13,7.34l-1,131.15s-4.73,78.11,149.26,94.25H4000v-88.31Z"/><rect class="cls-6" x="272.55" y="885.46" width="1124.9" height="578.67"/><rect class="cls-5" x="177.22" y="885.46" width="390.65" height="578.67"/><path class="cls-6" d="M1364.55,1109c0-204.24-172.64-369.81-385.59-369.81S593.37,904.8,593.37,1109"/><path class="cls-4" d="M1320.41,1128.74h-41.66c0,34.26,18.72,46.9,20.74,48.17v.11l.09-.05.09.05v-.11C1301.69,1175.64,1320.41,1163,1320.41,1128.74Z"/><path class="cls-4" d="M687.58,1128.74H645.92c0,34.26,18.72,46.9,20.74,48.17v.11l.09-.05.09.05v-.11C668.86,1175.64,687.58,1163,687.58,1128.74Z"/><line class="cls-18" x1="1234.95" y1="1620.15" x2="1297.64" y2="1557.46"/><line class="cls-18" x1="1609.74" y1="1620.15" x2="1672.44" y2="1557.46"/><line class="cls-18" x1="1984.54" y1="1620.15" x2="2047.23" y2="1557.46"/><line class="cls-18" x1="2359.33" y1="1620.15" x2="2422.02" y2="1557.46"/><line class="cls-18" x1="2734.12" y1="1620.15" x2="2796.81" y2="1557.46"/><line class="cls-18" x1="3108.91" y1="1620.15" x2="3171.61" y2="1557.46"/><line class="cls-18" x1="3460.63" y1="1620.15" x2="3523.32" y2="1557.46"/><line class="cls-18" x1="3814.53" y1="1620.15" x2="3877.22" y2="1557.46"/><path class="cls-19" d="M4000,2020.63l-92.5-.34"/><path class="cls-20" d="M3754.17,2019.8c-447.18-1.31-1054.57-2.11-1723.64-2.11-707.93,0-1396.77.9-1861.36,2.35"/><path class="cls-21" d="M92.5,2020.28l-92.5.34"/><rect class="cls-5" x="1148.62" y="1245.49" width="219.89" height="159.26"/><rect class="cls-22" x="846.52" y="1245.49" width="268.64" height="219.01"/><line class="cls-23" x1="980.16" y1="1245.49" x2="980.16" y2="1464.28"/><rect class="cls-17" x="996.11" y="1308.94" width="22.89" height="77.84"/><rect class="cls-17" x="941.17" y="1308.94" width="22.89" height="77.84"/><path class="cls-24" d="M1215.09,1342.08l79.6-33.12c-1.21-2.43-.73-6.41-2.7-8.13-2.14-1.86-6.57-.5-9.08-1.88s-3.67-5.83-6.41-6.69-6.24,2.13-9.1,1.79-5.53-4.07-8.41-3.9-5.09,4.19-7.91,4.85-6.56-2-9.24-.86-3.53,5.68-5.9,7.16-6.93.33-9,2.2-1.44,6.51-3.16,8.72-6.39,2.7-7.69,5.19,1,6.56.23,9.26-4.88,4.94-5.07,7.76C1211.06,1337,1214.22,1339.5,1215.09,1342.08Z"/><path class="cls-22" d="M1308.39,1325.36a49.53,49.53,0,0,0-91.31,38Z"/><circle class="cls-24" cx="1222.63" cy="1340.82" r="2.55" transform="translate(-421.27 572.56) rotate(-22.59)"/><circle class="cls-24" cx="1230.89" cy="1345.21" r="2.55" transform="translate(-422.32 576.07) rotate(-22.59)"/><circle class="cls-24" cx="1250.69" cy="1339.73" r="2.55" transform="translate(-418.7 583.26) rotate(-22.59)"/><circle class="cls-24" cx="1229.43" cy="1330.64" r="2.55" transform="translate(-416.84 574.39) rotate(-22.59)"/><circle class="cls-24" cx="1223.51" cy="1352.88" r="2.55" transform="translate(-425.83 573.83) rotate(-22.59)"/><line class="cls-25" x1="1356.51" y1="1243.53" x2="1193.4" y2="1406.64"/><line class="cls-26" x1="1382.02" y1="1243.53" x2="1218.91" y2="1406.64"/><line class="cls-26" x1="1225.04" y1="1243.53" x2="1128.89" y2="1339.68"/><line class="cls-27" x1="1385.95" y1="1336.74" x2="1289.79" y2="1432.89"/><line class="cls-28" x1="1293.72" y1="1243.53" x2="1130.61" y2="1406.64"/><polygon class="cls-24" points="1152.55 1237.69 1135.76 1273.94 1382.02 1273.94 1365.23 1237.69 1152.55 1237.69"/><rect class="cls-5" x="591.34" y="1245.49" width="219.89" height="159.26"/><path class="cls-24" d="M660.75,1342.08l79.6-33.12c-1.21-2.43-.73-6.41-2.7-8.13-2.14-1.86-6.57-.5-9.08-1.88s-3.67-5.83-6.41-6.69-6.24,2.13-9.1,1.79-5.53-4.07-8.41-3.9-5.09,4.19-7.91,4.85-6.56-2-9.24-.86-3.53,5.68-5.9,7.16-6.93.33-9,2.2-1.44,6.51-3.16,8.72-6.39,2.7-7.69,5.19,1,6.56.23,9.26-4.88,4.94-5.07,7.76C656.72,1337,659.88,1339.5,660.75,1342.08Z"/><path class="cls-22" d="M754,1325.36a49.53,49.53,0,0,0-91.31,38Z"/><circle class="cls-24" cx="668.29" cy="1340.82" r="2.55" transform="translate(-463.81 359.61) rotate(-22.59)"/><circle class="cls-24" cx="676.55" cy="1345.21" r="2.55" transform="translate(-464.85 363.12) rotate(-22.59)"/><circle class="cls-24" cx="696.35" cy="1339.73" r="2.55" transform="translate(-461.23 370.31) rotate(-22.59)"/><circle class="cls-24" cx="675.09" cy="1330.64" r="2.55" transform="translate(-459.37 361.44) rotate(-22.59)"/><circle class="cls-24" cx="669.17" cy="1352.88" r="2.55" transform="translate(-468.37 360.87) rotate(-22.59)"/><line class="cls-25" x1="815.42" y1="1243.53" x2="652.3" y2="1406.64"/><line class="cls-26" x1="840.93" y1="1243.53" x2="677.81" y2="1406.64"/><line class="cls-26" x1="683.95" y1="1243.53" x2="587.79" y2="1339.68"/><line class="cls-28" x1="752.62" y1="1243.53" x2="589.51" y2="1406.64"/><polygon class="cls-24" points="595.26 1237.69 578.47 1273.94 824.74 1273.94 807.95 1237.69 595.26 1237.69"/><rect class="cls-29" x="1171.19" y="1202.41" width="31.37" height="261.95"/><rect class="cls-29" x="759.12" y="1202.41" width="31.37" height="261.95"/><g class="cls-30"><polygon class="cls-31" points="870.2 1098.32 1186.12 1098.32 1231.25 1206.25 870.2 1206.25 870.2 1098.32"/><rect class="cls-31" x="737.92" y="1155.51" width="30.96" height="70.02" rx="15.48" ry="15.48" transform="translate(1506.79 2381.04) rotate(-180)"/><rect class="cls-31" x="861.74" y="1159.92" width="30.96" height="70.02" rx="15.48" ry="15.48" transform="translate(1754.44 2389.87) rotate(180)"/><rect class="cls-24" x="830.79" y="1163.61" width="30.96" height="70.02" rx="15.48" ry="15.48" transform="translate(1692.53 2397.24) rotate(180)"/><rect class="cls-31" x="799.83" y="1158.45" width="30.96" height="70.02" rx="15.48" ry="15.48" transform="translate(1630.62 2386.92) rotate(-180)"/><rect class="cls-24" x="861.74" y="1145.28" width="30.96" height="70.02" rx="15.48" ry="15.48" transform="translate(1754.44 2360.58) rotate(-180)"/><rect class="cls-31" x="861.74" y="1118.72" width="30.96" height="70.02" rx="15.48" ry="15.48" transform="translate(1754.44 2307.45) rotate(180)"/><rect class="cls-24" x="861.74" y="1091.12" width="30.96" height="70.02" rx="15.48" ry="15.48" transform="translate(1754.44 2252.26) rotate(180)"/><rect class="cls-31" x="861.74" y="1060.96" width="30.96" height="70.02" rx="15.48" ry="15.48" transform="translate(1754.44 2191.94) rotate(180)"/><rect class="cls-24" x="861.74" y="1029.33" width="30.96" height="70.02" rx="15.48" ry="15.48" transform="translate(1754.44 2128.68) rotate(-180)"/><rect class="cls-24" x="892.7" y="1176.56" width="30.96" height="70.02" rx="15.48" ry="15.48" transform="translate(1816.35 2423.14) rotate(180)"/><rect class="cls-31" x="892.7" y="1150" width="30.96" height="70.02" rx="15.48" ry="15.48" transform="translate(1816.35 2370.01) rotate(180)"/><rect class="cls-24" x="892.7" y="1122.4" width="30.96" height="70.02" rx="15.48" ry="15.48" transform="translate(1816.35 2314.82) rotate(-180)"/><rect class="cls-31" x="892.7" y="1092.24" width="30.96" height="70.02" rx="15.48" ry="15.48" transform="translate(1816.35 2254.5) rotate(180)"/><rect class="cls-24" x="892.7" y="1060.61" width="30.96" height="70.02" rx="15.48" ry="15.48" transform="translate(1816.35 2191.24) rotate(-180)"/><rect class="cls-24" x="923.65" y="1145.28" width="30.96" height="70.02" rx="15.48" ry="15.48" transform="translate(1878.26 2360.58) rotate(-180)"/><rect class="cls-31" x="923.65" y="1118.72" width="30.96" height="70.02" rx="15.48" ry="15.48" transform="translate(1878.26 2307.45) rotate(180)"/><rect class="cls-24" x="923.65" y="1091.12" width="30.96" height="70.02" rx="15.48" ry="15.48" transform="translate(1878.26 2252.26) rotate(180)"/><rect class="cls-31" x="923.65" y="1060.96" width="30.96" height="70.02" rx="15.48" ry="15.48" transform="translate(1878.26 2191.94) rotate(-180)"/><rect class="cls-24" x="923.65" y="1029.33" width="30.96" height="70.02" rx="15.48" ry="15.48" transform="translate(1878.26 2128.68) rotate(180)"/><rect class="cls-24" x="954.61" y="1176.56" width="30.96" height="70.02" rx="15.48" ry="15.48" transform="translate(1940.17 2423.14) rotate(180)"/><rect class="cls-31" x="954.61" y="1150" width="30.96" height="70.02" rx="15.48" ry="15.48" transform="translate(1940.17 2370.01) rotate(180)"/><rect class="cls-24" x="954.61" y="1122.4" width="30.96" height="70.02" rx="15.48" ry="15.48" transform="translate(1940.17 2314.82) rotate(180)"/><rect class="cls-31" x="954.61" y="1092.24" width="30.96" height="70.02" rx="15.48" ry="15.48" transform="translate(1940.17 2254.5) rotate(-180)"/><rect class="cls-24" x="954.61" y="1060.61" width="30.96" height="70.02" rx="15.48" ry="15.48" transform="translate(1940.17 2191.24) rotate(-180)"/><rect class="cls-24" x="737.92" y="1145.28" width="30.96" height="70.02" rx="15.48" ry="15.48" transform="translate(1506.79 2360.58) rotate(180)"/><rect class="cls-31" x="737.92" y="1118.72" width="30.96" height="70.02" rx="15.48" ry="15.48" transform="translate(1506.79 2307.45) rotate(180)"/><rect class="cls-24" x="737.92" y="1091.12" width="30.96" height="70.02" rx="15.48" ry="15.48" transform="translate(1506.79 2252.26) rotate(-180)"/><rect class="cls-31" x="737.92" y="1060.96" width="30.96" height="70.02" rx="15.48" ry="15.48" transform="translate(1506.79 2191.94) rotate(-180)"/><rect class="cls-31" x="768.88" y="1150" width="30.96" height="70.02" rx="15.48" ry="15.48" transform="translate(1568.71 2370.01) rotate(-180)"/><rect class="cls-24" x="707.06" y="1150" width="30.96" height="70.02" rx="15.48" ry="15.48" transform="translate(1445.08 2370.01) rotate(-180)"/><rect class="cls-24" x="768.88" y="1122.4" width="30.96" height="70.02" rx="15.48" ry="15.48" transform="translate(1568.71 2314.82) rotate(-180)"/><rect class="cls-31" x="768.88" y="1092.24" width="30.96" height="70.02" rx="15.48" ry="15.48" transform="translate(1568.71 2254.5) rotate(-180)"/><rect class="cls-24" x="768.88" y="1060.61" width="30.96" height="70.02" rx="15.48" ry="15.48" transform="translate(1568.71 2191.24) rotate(-180)"/><rect class="cls-24" x="799.83" y="1145.28" width="30.96" height="70.02" rx="15.48" ry="15.48" transform="translate(1630.62 2360.58) rotate(180)"/><rect class="cls-31" x="799.83" y="1118.72" width="30.96" height="70.02" rx="15.48" ry="15.48" transform="translate(1630.62 2307.45) rotate(180)"/><rect class="cls-31" x="799.83" y="1066.72" width="30.96" height="70.02" rx="15.48" ry="15.48" transform="translate(1630.62 2203.45) rotate(180)"/><rect class="cls-24" x="799.83" y="1091.12" width="30.96" height="70.02" rx="15.48" ry="15.48" transform="translate(1630.62 2252.26) rotate(-180)"/><rect class="cls-31" x="830.79" y="1150" width="30.96" height="70.02" rx="15.48" ry="15.48" transform="translate(1692.53 2370.01) rotate(-180)"/><rect class="cls-24" x="830.79" y="1122.4" width="30.96" height="70.02" rx="15.48" ry="15.48" transform="translate(1692.53 2314.82) rotate(-180)"/><rect class="cls-31" x="830.79" y="1092.24" width="30.96" height="70.02" rx="15.48" ry="15.48" transform="translate(1692.53 2254.5) rotate(180)"/><rect class="cls-24" x="830.79" y="1060.61" width="30.96" height="70.02" rx="15.48" ry="15.48" transform="translate(1692.53 2191.24) rotate(-180)"/><rect class="cls-24" x="985.56" y="1145.28" width="30.96" height="70.02" rx="15.48" ry="15.48" transform="translate(2002.08 2360.58) rotate(180)"/><rect class="cls-31" x="985.56" y="1118.72" width="30.96" height="70.02" rx="15.48" ry="15.48" transform="translate(2002.08 2307.45) rotate(180)"/><rect class="cls-24" x="985.56" y="1091.12" width="30.96" height="70.02" rx="15.48" ry="15.48" transform="translate(2002.08 2252.26) rotate(180)"/><rect class="cls-31" x="985.56" y="1060.96" width="30.96" height="70.02" rx="15.48" ry="15.48" transform="translate(2002.08 2191.94) rotate(-180)"/><rect class="cls-24" x="985.56" y="1029.33" width="30.96" height="70.02" rx="15.48" ry="15.48" transform="translate(2002.08 2128.68) rotate(180)"/><rect class="cls-24" x="1016.52" y="1176.56" width="30.96" height="70.02" rx="15.48" ry="15.48" transform="translate(2063.99 2423.14) rotate(180)"/><rect class="cls-31" x="1016.52" y="1150" width="30.96" height="70.02" rx="15.48" ry="15.48" transform="translate(2063.99 2370.01) rotate(-180)"/><rect class="cls-24" x="1016.52" y="1122.4" width="30.96" height="70.02" rx="15.48" ry="15.48" transform="translate(2063.99 2314.82) rotate(180)"/><rect class="cls-31" x="1016.52" y="1092.24" width="30.96" height="70.02" rx="15.48" ry="15.48" transform="translate(2063.99 2254.5) rotate(-180)"/><rect class="cls-24" x="1016.52" y="1060.61" width="30.96" height="70.02" rx="15.48" ry="15.48" transform="translate(2063.99 2191.24) rotate(180)"/><rect class="cls-24" x="1047.47" y="1145.28" width="30.96" height="70.02" rx="15.48" ry="15.48" transform="translate(2125.91 2360.58) rotate(-180)"/><rect class="cls-31" x="1047.47" y="1118.72" width="30.96" height="70.02" rx="15.48" ry="15.48" transform="translate(2125.91 2307.45) rotate(180)"/><rect class="cls-24" x="1047.47" y="1091.12" width="30.96" height="70.02" rx="15.48" ry="15.48" transform="translate(2125.91 2252.26) rotate(-180)"/><rect class="cls-31" x="1047.47" y="1060.96" width="30.96" height="70.02" rx="15.48" ry="15.48" transform="translate(2125.91 2191.94) rotate(-180)"/><rect class="cls-24" x="1047.47" y="1029.33" width="30.96" height="70.02" rx="15.48" ry="15.48" transform="translate(2125.91 2128.68) rotate(-180)"/><rect class="cls-24" x="1078.43" y="1176.56" width="30.96" height="70.02" rx="15.48" ry="15.48" transform="translate(2187.82 2423.14) rotate(-180)"/><rect class="cls-31" x="1078.43" y="1150" width="30.96" height="70.02" rx="15.48" ry="15.48" transform="translate(2187.82 2370.01) rotate(180)"/><rect class="cls-24" x="1078.43" y="1122.4" width="30.96" height="70.02" rx="15.48" ry="15.48" transform="translate(2187.82 2314.82) rotate(-180)"/><rect class="cls-31" x="1078.43" y="1092.24" width="30.96" height="70.02" rx="15.48" ry="15.48" transform="translate(2187.82 2254.5) rotate(-180)"/><rect class="cls-24" x="1078.43" y="1060.61" width="30.96" height="70.02" rx="15.48" ry="15.48" transform="translate(2187.82 2191.24) rotate(-180)"/><rect class="cls-24" x="1109.39" y="1145.28" width="30.96" height="70.02" rx="15.48" ry="15.48" transform="translate(2249.73 2360.58) rotate(180)"/><rect class="cls-31" x="1109.39" y="1118.72" width="30.96" height="70.02" rx="15.48" ry="15.48" transform="translate(2249.73 2307.45) rotate(180)"/><rect class="cls-24" x="1109.39" y="1091.12" width="30.96" height="70.02" rx="15.48" ry="15.48" transform="translate(2249.73 2252.26) rotate(180)"/><rect class="cls-31" x="1109.39" y="1060.96" width="30.96" height="70.02" rx="15.48" ry="15.48" transform="translate(2249.73 2191.94) rotate(180)"/><rect class="cls-24" x="1109.39" y="1029.33" width="30.96" height="70.02" rx="15.48" ry="15.48" transform="translate(2249.73 2128.68) rotate(180)"/><rect class="cls-24" x="1140.34" y="1176.56" width="30.96" height="70.02" rx="15.48" ry="15.48" transform="translate(2311.64 2423.14) rotate(-180)"/><rect class="cls-31" x="1140.34" y="1150" width="30.96" height="70.02" rx="15.48" ry="15.48" transform="translate(2311.64 2370.01) rotate(180)"/><rect class="cls-24" x="1140.34" y="1122.4" width="30.96" height="70.02" rx="15.48" ry="15.48" transform="translate(2311.64 2314.82) rotate(-180)"/><rect class="cls-31" x="1140.34" y="1092.24" width="30.96" height="70.02" rx="15.48" ry="15.48" transform="translate(2311.64 2254.5) rotate(-180)"/><rect class="cls-24" x="1140.34" y="1060.61" width="30.96" height="70.02" rx="15.48" ry="15.48" transform="translate(2311.64 2191.24) rotate(-180)"/><rect class="cls-24" x="1171.3" y="1145.28" width="30.96" height="70.02" rx="15.48" ry="15.48" transform="translate(2373.55 2360.58) rotate(-180)"/><rect class="cls-31" x="1171.3" y="1118.72" width="30.96" height="70.02" rx="15.48" ry="15.48" transform="translate(2373.55 2307.45) rotate(180)"/><rect class="cls-24" x="1171.3" y="1091.12" width="30.96" height="70.02" rx="15.48" ry="15.48" transform="translate(2373.55 2252.26) rotate(-180)"/><rect class="cls-31" x="1171.3" y="1060.96" width="30.96" height="70.02" rx="15.48" ry="15.48" transform="translate(2373.55 2191.94) rotate(180)"/><rect class="cls-24" x="1171.3" y="1029.33" width="30.96" height="70.02" rx="15.48" ry="15.48" transform="translate(2373.55 2128.68) rotate(180)"/><rect class="cls-24" x="1202.25" y="1176.56" width="30.96" height="70.02" rx="15.48" ry="15.48" transform="translate(2435.46 2423.14) rotate(-180)"/><rect class="cls-31" x="1202.25" y="1150" width="30.96" height="70.02" rx="15.48" ry="15.48" transform="translate(2435.46 2370.01) rotate(-180)"/><rect class="cls-24" x="1202.25" y="1122.4" width="30.96" height="70.02" rx="15.48" ry="15.48" transform="translate(2435.46 2314.82) rotate(-180)"/><rect class="cls-31" x="1202.25" y="1092.24" width="30.96" height="70.02" rx="15.48" ry="15.48" transform="translate(2435.46 2254.5) rotate(-180)"/><rect class="cls-24" x="1202.25" y="1060.61" width="30.96" height="70.02" rx="15.48" ry="15.48" transform="translate(2435.46 2191.24) rotate(-180)"/></g><path class="cls-31" d="M1530.72,1446.28a11.24,11.24,0,0,0-4.47-15.11,12.26,12.26,0,0,0-19.5-13.37,15.84,15.84,0,0,0-28.74-3.29,16.36,16.36,0,0,0-12.92-8.72,14.2,14.2,0,0,0-13.31-12.22,19.77,19.77,0,0,0-33.34-21.09,14.13,14.13,0,1,0-27.25,7.42,14.08,14.08,0,0,0-15,6.3,16.61,16.61,0,0,0-21.57-3c0-.09,0-.18,0-.27a14.22,14.22,0,1,0-27.83,4.11,20.2,20.2,0,0,0-27.26,17,14.2,14.2,0,0,0-16,23.43,17.65,17.65,0,0,0-14.85,16.1,19.57,19.57,0,1,0,14.77,35.74,19.49,19.49,0,0,0,23.13-1.19,18,18,0,0,0,31-.82h1.65a14.72,14.72,0,0,0,20.5,1.21,14.75,14.75,0,0,0,27.88,6.26,14.72,14.72,0,0,0,21.07-4.05,17.81,17.81,0,0,0,34-.9,14.18,14.18,0,0,0,22.84-3.22c0,.08,0,.16,0,.24a12.78,12.78,0,0,0,23.31,7.26,34.5,34.5,0,0,0,5.33.42,34.12,34.12,0,0,0,15-3.47,12.25,12.25,0,0,0,19.86-12.33,11.24,11.24,0,1,0,1.63-22.39Zm-116.51-60.14c.16-.15.33-.29.49-.45,0,.27,0,.53.07.79C1414.59,1386.37,1414.41,1386.24,1414.21,1386.14Z"/><path class="cls-31" d="M369.77,1447.52a11.18,11.18,0,0,0,12.71,11.15A12.26,12.26,0,0,0,402.34,1471a34.12,34.12,0,0,0,15,3.47,34.5,34.5,0,0,0,5.33-.42A12.78,12.78,0,0,0,446,1466.8c0-.08,0-.16,0-.24a14.18,14.18,0,0,0,22.84,3.22,17.81,17.81,0,0,0,34,.9,14.72,14.72,0,0,0,21.07,4.05,14.75,14.75,0,0,0,27.88-6.26,14.72,14.72,0,0,0,20.5-1.21H574a18,18,0,0,0,31,.82,19.49,19.49,0,0,0,23.13,1.19,12.29,12.29,0,0,0,19.81-11.69,12.32,12.32,0,1,0-5-24.05,17.65,17.65,0,0,0-14.85-16.1A14.2,14.2,0,0,0,612,1394a20.2,20.2,0,0,0-27.26-17,14.22,14.22,0,1,0-27.83-4.11c0,.09,0,.18,0,.27a16.61,16.61,0,0,0-21.57,3,14.08,14.08,0,0,0-15-6.3,14.13,14.13,0,1,0-27.25-7.42,19.77,19.77,0,0,0-33.34,21.09,14.2,14.2,0,0,0-13.31,12.22,16.36,16.36,0,0,0-12.92,8.72,15.84,15.84,0,0,0-28.74,3.29,12.26,12.26,0,0,0-19.5,13.37,11.24,11.24,0,0,0-4.47,15.11A11.25,11.25,0,0,0,369.77,1447.52Zm127-71c0-.26.05-.53.07-.79.16.16.33.3.49.45C497.17,1376.24,497,1376.37,496.79,1376.48Z"/><path class="cls-31" d="M128.94,1447.52a11.18,11.18,0,0,0,12.71,11.15A12.26,12.26,0,0,0,161.52,1471a34.12,34.12,0,0,0,15,3.47,34.5,34.5,0,0,0,5.33-.42,12.78,12.78,0,0,0,23.31-7.26c0-.08,0-.16,0-.24a14.18,14.18,0,0,0,22.84,3.22,17.81,17.81,0,0,0,34,.9,14.72,14.72,0,0,0,21.07,4.05,14.75,14.75,0,0,0,27.88-6.26,14.72,14.72,0,0,0,20.5-1.21h1.65a18,18,0,0,0,31,.82,19.49,19.49,0,0,0,23.13,1.19,12.29,12.29,0,0,0,19.81-11.69,12.32,12.32,0,1,0-5-24.05,17.65,17.65,0,0,0-14.85-16.1,14.2,14.2,0,0,0-16-23.43,20.2,20.2,0,0,0-27.26-17,14.22,14.22,0,1,0-27.83-4.11c0,.09,0,.18,0,.27a16.61,16.61,0,0,0-21.57,3,14.08,14.08,0,0,0-15-6.3,14.13,14.13,0,1,0-27.25-7.42A19.77,19.77,0,0,0,219,1383.58a14.2,14.2,0,0,0-13.31,12.22,16.36,16.36,0,0,0-12.92,8.72A15.84,15.84,0,0,0,164,1407.8a12.26,12.26,0,0,0-19.5,13.37,11.24,11.24,0,0,0-4.47,15.11A11.25,11.25,0,0,0,128.94,1447.52Zm127-71c0-.26.05-.53.07-.79.16.16.33.3.49.45C256.34,1376.24,256.16,1376.37,256,1376.48Z"/><text class="cls-32" transform="translate(904.35 883.94)">DOS</text><text class="cls-33" transform="translate(834.7 964.63)"><tspan class="cls-34">T</tspan><tspan x="43.93" y="0">ACOS</tspan></text><polygon class="cls-35" points="1080.89 842.42 1093.39 850.45 1105.88 858.48 1089.23 864.71 1072.58 870.94 1076.74 856.68 1080.89 842.42"/><polygon class="cls-35" points="857.2 842.42 869.69 850.45 882.19 858.48 865.54 864.71 848.89 870.94 853.04 856.68 857.2 842.42"/><polygon class="cls-35" points="1145.63 841.88 1145.78 856.74 1145.93 871.59 1131.58 861.09 1117.23 850.59 1131.43 846.24 1145.63 841.88"/><polygon class="cls-35" points="1176.95 841.99 1189.3 850.24 1201.64 858.5 1184.88 864.42 1168.12 870.35 1172.54 856.17 1176.95 841.99"/><polygon class="cls-35" points="774.77 841.88 774.91 856.74 775.06 871.59 760.71 861.09 746.36 850.59 760.57 846.24 774.77 841.88"/><polygon class="cls-35" points="806.08 841.99 818.43 850.24 830.78 858.5 814.02 864.42 797.26 870.35 801.67 856.17 806.08 841.99"/><polygon class="cls-35" points="1398.05 1023.65 1355.62 1004.98 1306.26 1026.69 1256.91 1004.98 1207.56 1026.69 1158.2 1004.98 1108.85 1026.69 1059.5 1004.98 1010.14 1026.69 960.79 1004.98 911.43 1026.69 865.23 1006.37 858.91 1020.74 911.43 1043.84 960.79 1022.13 1010.14 1043.84 1059.5 1022.13 1108.85 1043.84 1158.2 1022.13 1207.56 1043.84 1256.91 1022.13 1306.26 1043.84 1355.62 1022.13 1398.05 1040.8 1398.05 1023.65"/><polygon class="cls-24" points="1398.05 1047.67 1355.62 1029 1306.26 1050.71 1256.91 1029 1207.56 1050.71 1158.2 1029 1108.85 1050.71 1059.5 1029 1010.14 1050.71 960.79 1029 911.43 1050.71 865.23 1030.39 858.91 1044.76 911.43 1067.86 960.79 1046.15 1010.14 1067.86 1059.5 1046.15 1108.85 1067.86 1158.2 1046.15 1207.56 1067.86 1256.91 1046.15 1306.26 1067.86 1355.62 1046.15 1398.05 1064.82 1398.05 1047.67"/><polygon class="cls-35" points="907.67 1025.04 865.23 1006.37 815.88 1028.08 766.53 1006.37 717.18 1028.08 667.82 1006.37 618.47 1028.08 569.12 1006.37 519.76 1028.08 470.41 1006.37 421.05 1028.08 374.85 1007.76 368.53 1022.13 421.05 1045.23 470.41 1023.52 519.76 1045.23 569.12 1023.52 618.47 1045.23 667.82 1023.52 717.18 1045.23 766.53 1023.52 815.88 1045.23 865.23 1023.52 907.67 1042.19 907.67 1025.04"/><polygon class="cls-24" points="907.67 1049.06 865.23 1030.39 815.88 1052.1 766.53 1030.39 717.18 1052.1 667.82 1030.39 618.47 1052.1 569.12 1030.39 519.76 1052.1 470.41 1030.39 421.05 1052.1 374.85 1031.78 368.53 1046.15 421.05 1069.25 470.41 1047.54 519.76 1069.25 569.12 1047.54 618.47 1069.25 667.82 1047.54 717.18 1069.25 766.53 1047.54 815.88 1069.25 865.23 1047.54 907.67 1066.21 907.67 1049.06"/><polyline class="cls-35" points="276.14 1024.91 325.5 1046.63 374.85 1024.91 417.29 1043.58 417.29 1026.43 374.85 1007.76 325.5 1029.47 276.14 1007.76"/><polyline class="cls-24" points="276.14 1048.93 325.5 1070.64 374.85 1048.93 417.29 1067.6 417.29 1050.45 374.85 1031.78 325.5 1053.49 276.14 1031.78"/><polyline class="cls-35" points="177.44 1024.91 226.79 1046.63 276.14 1024.91 318.58 1043.58 318.58 1026.43 276.14 1007.76 226.79 1029.47 177.44 1007.76"/><polyline class="cls-24" points="177.44 1048.93 226.79 1070.64 276.14 1048.93 318.58 1067.6 318.58 1050.45 276.14 1031.78 226.79 1053.49 177.44 1031.78"/><path class="cls-36" d="M1598.78,1443.76a24.41,24.41,0,0,1,2.94,4.36,40.38,40.38,0,0,1,2.14,4.67,39.62,39.62,0,0,1,1.54,4.9,24.08,24.08,0,0,1,.74,5.21,24.12,24.12,0,0,1-2.94-4.36,39.7,39.7,0,0,1-2.14-4.67,40.47,40.47,0,0,1-1.54-4.9A24.42,24.42,0,0,1,1598.78,1443.76Z"/><path class="cls-36" d="M1609.15,1461.34a55.62,55.62,0,0,1-1.91-7.74c-.46-2.6-.81-5.2-1.06-7.82s-.39-5.24-.42-7.88a54.94,54.94,0,0,1,.44-8,54.81,54.81,0,0,1,1.91,7.74q.7,3.89,1.05,7.82c.24,2.62.39,5.24.41,7.88A55.55,55.55,0,0,1,1609.15,1461.34Z"/><path class="cls-36" d="M1613.57,1440.25a29.19,29.19,0,0,1,1.18,5.64,49,49,0,0,1,.32,5.64,48,48,0,0,1-.32,5.64,28.85,28.85,0,0,1-1.18,5.64,28.81,28.81,0,0,1-1.18-5.64,48,48,0,0,1-.32-5.64,48.89,48.89,0,0,1,.32-5.64A29.16,29.16,0,0,1,1613.57,1440.25Z"/><path class="cls-36" d="M1624.36,1433.87a43,43,0,0,1,.56,7c0,2.31-.09,4.61-.29,6.9s-.51,4.57-.93,6.84a42.38,42.38,0,0,1-1.79,6.76,42.43,42.43,0,0,1-.56-7q0-3.46.29-6.9c.21-2.29.51-4.57.94-6.84A43,43,0,0,1,1624.36,1433.87Z"/><path class="cls-36" d="M1627.3,1460.85a29,29,0,0,1,.47-5.73,48.7,48.7,0,0,1,1.28-5.49,47.85,47.85,0,0,1,1.9-5.31,28.72,28.72,0,0,1,2.73-5.06,28.67,28.67,0,0,1-.46,5.73,47.79,47.79,0,0,1-1.29,5.49,48.6,48.6,0,0,1-1.91,5.3A29.05,29.05,0,0,1,1627.3,1460.85Z"/><path class="cls-36" d="M1635.15,1461.83a26.24,26.24,0,0,1,1.55-5.23,43.57,43.57,0,0,1,2.29-4.82,42.83,42.83,0,0,1,2.86-4.51,25.88,25.88,0,0,1,3.61-4.09,25.89,25.89,0,0,1-1.54,5.23,42.83,42.83,0,0,1-2.29,4.81,43.56,43.56,0,0,1-2.86,4.5A26.2,26.2,0,0,1,1635.15,1461.83Z"/><path class="cls-36" d="M3273.49,1495.26a24.41,24.41,0,0,1,2.94,4.36,40.38,40.38,0,0,1,2.14,4.67,39.71,39.71,0,0,1,1.54,4.9,24.11,24.11,0,0,1,.74,5.21,24.09,24.09,0,0,1-2.94-4.36,39.65,39.65,0,0,1-2.14-4.67,40.42,40.42,0,0,1-1.54-4.9A24.39,24.39,0,0,1,3273.49,1495.26Z"/><path class="cls-36" d="M3283.86,1512.85a55.56,55.56,0,0,1-1.91-7.74c-.46-2.6-.81-5.2-1.06-7.82s-.39-5.24-.42-7.88a54.87,54.87,0,0,1,.44-8,54.81,54.81,0,0,1,1.91,7.74q.7,3.89,1.05,7.82c.24,2.62.39,5.24.41,7.88A55.62,55.62,0,0,1,3283.86,1512.85Z"/><path class="cls-36" d="M3288.28,1491.75a29.19,29.19,0,0,1,1.18,5.64,49,49,0,0,1,.32,5.64,48,48,0,0,1-.32,5.64,28.85,28.85,0,0,1-1.18,5.64,28.81,28.81,0,0,1-1.18-5.64,48,48,0,0,1-.32-5.64,48.88,48.88,0,0,1,.32-5.64A29.19,29.19,0,0,1,3288.28,1491.75Z"/><path class="cls-36" d="M3299.07,1485.38a43,43,0,0,1,.56,7c0,2.31-.09,4.61-.29,6.9s-.51,4.57-.93,6.84a42.38,42.38,0,0,1-1.79,6.76,42.43,42.43,0,0,1-.56-7c0-2.31.09-4.61.29-6.9s.51-4.57.94-6.84A43,43,0,0,1,3299.07,1485.38Z"/><path class="cls-36" d="M3302,1512.36a29.07,29.07,0,0,1,.47-5.73,48.7,48.7,0,0,1,1.28-5.49,47.85,47.85,0,0,1,1.9-5.31,28.7,28.7,0,0,1,2.73-5.06,28.71,28.71,0,0,1-.46,5.73,47.79,47.79,0,0,1-1.29,5.49,48.49,48.49,0,0,1-1.91,5.3A29.05,29.05,0,0,1,3302,1512.36Z"/><path class="cls-36" d="M3309.86,1513.34a26.2,26.2,0,0,1,1.55-5.23,43.57,43.57,0,0,1,2.29-4.82,42.83,42.83,0,0,1,2.86-4.51,25.88,25.88,0,0,1,3.61-4.09,25.89,25.89,0,0,1-1.54,5.23,42.83,42.83,0,0,1-2.29,4.81,43.56,43.56,0,0,1-2.86,4.5A26.23,26.23,0,0,1,3309.86,1513.34Z"/><path class="cls-36" d="M2403.76,1459.95a24.39,24.39,0,0,1,2.94,4.36,40.41,40.41,0,0,1,2.14,4.67,39.74,39.74,0,0,1,1.54,4.9,24.11,24.11,0,0,1,.74,5.21,24.14,24.14,0,0,1-2.94-4.36A39.7,39.7,0,0,1,2406,1470a40.38,40.38,0,0,1-1.54-4.9A24.39,24.39,0,0,1,2403.76,1459.95Z"/><path class="cls-36" d="M2414.13,1477.53a55.55,55.55,0,0,1-1.91-7.74c-.46-2.6-.81-5.2-1.06-7.82s-.39-5.24-.42-7.88a54.94,54.94,0,0,1,.44-8,54.79,54.79,0,0,1,1.91,7.74q.7,3.89,1.05,7.82c.24,2.62.39,5.24.41,7.88A55.62,55.62,0,0,1,2414.13,1477.53Z"/><path class="cls-36" d="M2418.55,1456.43a29.2,29.2,0,0,1,1.18,5.64,49,49,0,0,1,.32,5.64,48,48,0,0,1-.32,5.64,28.86,28.86,0,0,1-1.18,5.64,28.82,28.82,0,0,1-1.18-5.64,48,48,0,0,1-.32-5.64,48.9,48.9,0,0,1,.32-5.64A29.21,29.21,0,0,1,2418.55,1456.43Z"/><path class="cls-36" d="M2429.34,1450.06a43,43,0,0,1,.56,7c0,2.31-.09,4.61-.29,6.9s-.51,4.57-.93,6.84a42.38,42.38,0,0,1-1.79,6.76,42.43,42.43,0,0,1-.56-7q0-3.46.29-6.9c.21-2.29.51-4.57.94-6.84A42.94,42.94,0,0,1,2429.34,1450.06Z"/><path class="cls-36" d="M2432.28,1477a29,29,0,0,1,.47-5.73,48.72,48.72,0,0,1,1.28-5.49,47.81,47.81,0,0,1,1.9-5.31,28.71,28.71,0,0,1,2.73-5.06,28.67,28.67,0,0,1-.46,5.73,47.81,47.81,0,0,1-1.29,5.49,48.53,48.53,0,0,1-1.91,5.3A29.09,29.09,0,0,1,2432.28,1477Z"/><path class="cls-36" d="M2440.13,1478a26.2,26.2,0,0,1,1.55-5.23A43.57,43.57,0,0,1,2444,1468a42.78,42.78,0,0,1,2.86-4.51,25.86,25.86,0,0,1,3.61-4.09,25.88,25.88,0,0,1-1.54,5.23,42.79,42.79,0,0,1-2.29,4.82,43.56,43.56,0,0,1-2.86,4.5A26.22,26.22,0,0,1,2440.13,1478Z"/><path class="cls-36" d="M1952,1380.48a24.39,24.39,0,0,1,2.94,4.36,40.41,40.41,0,0,1,2.14,4.67,39.65,39.65,0,0,1,1.54,4.9,24.11,24.11,0,0,1,.74,5.21,24.11,24.11,0,0,1-2.94-4.36,39.62,39.62,0,0,1-2.14-4.67,40.47,40.47,0,0,1-1.54-4.9A24.42,24.42,0,0,1,1952,1380.48Z"/><path class="cls-36" d="M1962.34,1398.06a55.62,55.62,0,0,1-1.91-7.74c-.46-2.6-.81-5.2-1.06-7.82s-.39-5.24-.42-7.88a54.87,54.87,0,0,1,.44-8,54.86,54.86,0,0,1,1.91,7.74q.7,3.89,1.05,7.82c.24,2.62.39,5.24.41,7.88A55.62,55.62,0,0,1,1962.34,1398.06Z"/><path class="cls-36" d="M1966.76,1377a29.16,29.16,0,0,1,1.18,5.64,48.9,48.9,0,0,1,.32,5.64,48,48,0,0,1-.32,5.64,28.81,28.81,0,0,1-1.18,5.64,28.85,28.85,0,0,1-1.18-5.64,48,48,0,0,1-.32-5.64,49,49,0,0,1,.32-5.64A29.19,29.19,0,0,1,1966.76,1377Z"/><path class="cls-36" d="M1977.55,1370.59a43,43,0,0,1,.56,7c0,2.31-.09,4.61-.29,6.9s-.51,4.57-.93,6.84a42.43,42.43,0,0,1-1.79,6.76,42.43,42.43,0,0,1-.56-7q0-3.46.29-6.9c.21-2.29.51-4.57.94-6.84A43,43,0,0,1,1977.55,1370.59Z"/><path class="cls-36" d="M1980.49,1397.57a29.07,29.07,0,0,1,.47-5.73,48.6,48.6,0,0,1,1.28-5.49,47.65,47.65,0,0,1,1.9-5.31,28.71,28.71,0,0,1,2.73-5.06,28.71,28.71,0,0,1-.46,5.73,47.81,47.81,0,0,1-1.29,5.49,48.6,48.6,0,0,1-1.91,5.3A29,29,0,0,1,1980.49,1397.57Z"/><path class="cls-36" d="M1988.34,1398.55a26.2,26.2,0,0,1,1.55-5.23,43.57,43.57,0,0,1,2.29-4.82A42.78,42.78,0,0,1,1995,1384a25.88,25.88,0,0,1,3.61-4.09,25.91,25.91,0,0,1-1.54,5.23,42.71,42.71,0,0,1-2.3,4.82,43.55,43.55,0,0,1-2.86,4.5A26.18,26.18,0,0,1,1988.34,1398.55Z"/><path class="cls-36" d="M1684.14,1504.09a24.4,24.4,0,0,1,2.94,4.36,40.3,40.3,0,0,1,2.14,4.67,39.65,39.65,0,0,1,1.54,4.9,24.14,24.14,0,0,1,.74,5.21,24.11,24.11,0,0,1-2.94-4.36,39.66,39.66,0,0,1-2.14-4.67,40.31,40.31,0,0,1-1.54-4.9A24.41,24.41,0,0,1,1684.14,1504.09Z"/><path class="cls-36" d="M1694.51,1521.68a55.54,55.54,0,0,1-1.91-7.74c-.46-2.6-.81-5.2-1.06-7.82s-.39-5.24-.42-7.88a54.86,54.86,0,0,1,.44-8,54.85,54.85,0,0,1,1.91,7.74q.7,3.89,1.05,7.82c.24,2.62.39,5.24.41,7.88A55.61,55.61,0,0,1,1694.51,1521.68Z"/><path class="cls-36" d="M1698.92,1500.58a29.2,29.2,0,0,1,1.18,5.64,48.77,48.77,0,0,1,.32,5.64,48,48,0,0,1-.32,5.64,28.84,28.84,0,0,1-1.18,5.64,28.84,28.84,0,0,1-1.18-5.64,47.91,47.91,0,0,1-.32-5.64,48.77,48.77,0,0,1,.32-5.64A29.2,29.2,0,0,1,1698.92,1500.58Z"/><path class="cls-36" d="M1709.71,1494.21a43,43,0,0,1,.56,7c0,2.31-.09,4.61-.29,6.9s-.51,4.57-.93,6.84a42.42,42.42,0,0,1-1.79,6.76,42.42,42.42,0,0,1-.56-7q0-3.46.29-6.9c.21-2.29.51-4.57.94-6.84A43,43,0,0,1,1709.71,1494.21Z"/><path class="cls-36" d="M1712.66,1521.19a29,29,0,0,1,.47-5.73,48.62,48.62,0,0,1,1.28-5.49,47.8,47.8,0,0,1,1.9-5.31,28.66,28.66,0,0,1,2.73-5.06,28.71,28.71,0,0,1-.46,5.73,47.83,47.83,0,0,1-1.29,5.49,48.69,48.69,0,0,1-1.91,5.3A29,29,0,0,1,1712.66,1521.19Z"/><path class="cls-36" d="M1720.51,1522.17a26.18,26.18,0,0,1,1.55-5.23,43.52,43.52,0,0,1,2.29-4.82,42.84,42.84,0,0,1,2.86-4.51,25.93,25.93,0,0,1,3.61-4.09,25.89,25.89,0,0,1-1.54,5.23,42.83,42.83,0,0,1-2.3,4.81,43.54,43.54,0,0,1-2.86,4.5A26.22,26.22,0,0,1,1720.51,1522.17Z"/><path class="cls-36" d="M1866.8,1466.75a58.31,58.31,0,0,1,4.16,7q1.84,3.61,3.37,7.35t2.77,7.59a57.49,57.49,0,0,1,2,7.92,57.59,57.59,0,0,1-4.16-7q-1.84-3.61-3.37-7.35t-2.77-7.6A58.26,58.26,0,0,1,1866.8,1466.75Z"/><path class="cls-36" d="M1884.11,1494.23a75,75,0,0,1-3-9c-.85-3-1.55-6.07-2.17-9.13s-1.14-6.15-1.52-9.26a74.3,74.3,0,0,1-.69-9.43,74.22,74.22,0,0,1,3,9c.85,3,1.55,6.07,2.17,9.13s1.14,6.15,1.52,9.26A75.14,75.14,0,0,1,1884.11,1494.23Z"/><path class="cls-36" d="M1891.48,1461.27a66.55,66.55,0,0,1,1.17,8.81c.24,2.94.33,5.88.33,8.81s-.09,5.88-.33,8.81a65.75,65.75,0,0,1-1.17,8.81,65.75,65.75,0,0,1-1.17-8.81c-.24-2.94-.33-5.88-.33-8.81s.09-5.88.33-8.81A66.55,66.55,0,0,1,1891.48,1461.27Z"/><path class="cls-36" d="M2245,1364.61a25.88,25.88,0,0,1,3.32,4.28,43,43,0,0,1,2.55,4.64,42.23,42.23,0,0,1,2,4.92,25.55,25.55,0,0,1,1.19,5.29,25.58,25.58,0,0,1-3.32-4.28,42.21,42.21,0,0,1-2.55-4.65,43.08,43.08,0,0,1-2-4.92A25.89,25.89,0,0,1,2245,1364.61Z"/><path class="cls-36" d="M2257.75,1382.2a36,36,0,0,1-2.12-6,60.64,60.64,0,0,1-1.27-6.16,59.55,59.55,0,0,1-.64-6.26,35.58,35.58,0,0,1,.21-6.39,35.58,35.58,0,0,1,2.12,6,59.54,59.54,0,0,1,1.27,6.17,60.6,60.6,0,0,1,.63,6.26A36.07,36.07,0,0,1,2257.75,1382.2Z"/><path class="cls-36" d="M2263.17,1361.1a29.2,29.2,0,0,1,1.18,5.64,48.79,48.79,0,0,1,.32,5.64,47.92,47.92,0,0,1-.32,5.64,28.86,28.86,0,0,1-1.18,5.64A28.86,28.86,0,0,1,2262,1378a48,48,0,0,1-.32-5.64,48.79,48.79,0,0,1,.32-5.64A29.2,29.2,0,0,1,2263.17,1361.1Z"/><path class="cls-36" d="M2276.42,1354.73a43.14,43.14,0,0,1,.42,7c0,2.31-.18,4.61-.43,6.9s-.6,4.57-1.07,6.83a42.62,42.62,0,0,1-1.93,6.74,42.56,42.56,0,0,1-.42-7q0-3.47.44-6.9c.25-2.29.6-4.57,1.07-6.83A43.14,43.14,0,0,1,2276.42,1354.73Z"/><path class="cls-36" d="M2280,1381.71a30.14,30.14,0,0,1,.85-5.8,50.72,50.72,0,0,1,1.65-5.51,49.75,49.75,0,0,1,2.26-5.29,29.8,29.8,0,0,1,3.07-5,29.83,29.83,0,0,1-.85,5.8,49.76,49.76,0,0,1-1.66,5.51,50.6,50.6,0,0,1-2.26,5.29A30.12,30.12,0,0,1,2280,1381.71Z"/><path class="cls-36" d="M2289.67,1382.69a29.1,29.1,0,0,1,2.19-5.32,48.86,48.86,0,0,1,2.89-4.84,47.93,47.93,0,0,1,3.43-4.48,28.73,28.73,0,0,1,4.14-4,28.72,28.72,0,0,1-2.19,5.32,47.84,47.84,0,0,1-2.9,4.84,48.62,48.62,0,0,1-3.43,4.48A29.05,29.05,0,0,1,2289.67,1382.69Z"/><path class="cls-36" d="M2311.55,1404.44a55.86,55.86,0,0,1-2.07-7.71c-.52-2.59-.92-5.2-1.23-7.81s-.5-5.24-.59-7.89a55,55,0,0,1,.27-8,55.05,55.05,0,0,1,2.08,7.71q.78,3.89,1.22,7.81c.3,2.62.5,5.24.58,7.89A55.87,55.87,0,0,1,2311.55,1404.44Z"/><path class="cls-36" d="M2317,1383.34a29.19,29.19,0,0,1,1.18,5.64,48.88,48.88,0,0,1,.32,5.64,48,48,0,0,1-.32,5.64,28.81,28.81,0,0,1-1.18,5.64,28.84,28.84,0,0,1-1.18-5.64,48,48,0,0,1-.32-5.64,49,49,0,0,1,.32-5.64A29.19,29.19,0,0,1,2317,1383.34Z"/><path class="cls-36" d="M2330.22,1377a43.08,43.08,0,0,1,.42,7c0,2.31-.18,4.61-.43,6.9s-.6,4.57-1.07,6.83a42.51,42.51,0,0,1-1.93,6.74,42.61,42.61,0,0,1-.42-7q0-3.47.43-6.9c.25-2.29.61-4.57,1.08-6.83A43.14,43.14,0,0,1,2330.22,1377Z"/><path class="cls-36" d="M2333.84,1403.95a30.17,30.17,0,0,1,.85-5.8,50.64,50.64,0,0,1,1.65-5.51,49.63,49.63,0,0,1,2.26-5.29,29.75,29.75,0,0,1,3.07-5,29.76,29.76,0,0,1-.85,5.8,49.69,49.69,0,0,1-1.66,5.51,50.65,50.65,0,0,1-2.26,5.29A30.14,30.14,0,0,1,2333.84,1403.95Z"/><path class="cls-36" d="M2343.47,1404.93a29.1,29.1,0,0,1,2.19-5.32,48.56,48.56,0,0,1,2.89-4.84,47.79,47.79,0,0,1,3.43-4.48,28.73,28.73,0,0,1,4.14-4,28.73,28.73,0,0,1-2.19,5.32,47.84,47.84,0,0,1-2.9,4.84,48.71,48.71,0,0,1-3.43,4.48A29.11,29.11,0,0,1,2343.47,1404.93Z"/><path class="cls-36" d="M2304.93,1405.09a19.92,19.92,0,0,1-2.62-3.95,32.36,32.36,0,0,1-1.81-4.23,31.89,31.89,0,0,1-1.2-4.44,19.69,19.69,0,0,1-.39-4.72,19.69,19.69,0,0,1,2.62,3.95,31.84,31.84,0,0,1,1.81,4.23,32.46,32.46,0,0,1,1.2,4.44A19.94,19.94,0,0,1,2304.93,1405.09Z"/><path class="cls-36" d="M2297.7,1404.76a23,23,0,0,1-2.81-4.26,37.87,37.87,0,0,1-2-4.55,37.26,37.26,0,0,1-1.41-4.77,22.72,22.72,0,0,1-.6-5.07,22.76,22.76,0,0,1,2.81,4.25,37.26,37.26,0,0,1,2,4.55,38,38,0,0,1,1.4,4.77A23,23,0,0,1,2297.7,1404.76Z"/><path class="cls-36" d="M2288.47,1404.76a30.48,30.48,0,0,1-3.66-4.62,51.24,51.24,0,0,1-2.9-5,50.32,50.32,0,0,1-2.32-5.3,30.09,30.09,0,0,1-1.56-5.68,30.1,30.1,0,0,1,3.66,4.62,50.18,50.18,0,0,1,2.9,5,51.28,51.28,0,0,1,2.32,5.3A30.46,30.46,0,0,1,2288.47,1404.76Z"/><path class="cls-36" d="M2282.85,1404.44a23,23,0,0,1-3.86-3.32,37.81,37.81,0,0,1-3.17-3.82,37.1,37.1,0,0,1-2.65-4.19,22.63,22.63,0,0,1-2-4.7,22.61,22.61,0,0,1,3.87,3.31,37,37,0,0,1,3.17,3.82,37.69,37.69,0,0,1,2.65,4.2A22.91,22.91,0,0,1,2282.85,1404.44Z"/><path class="cls-36" d="M2280,1407.71a38.44,38.44,0,0,1-6.14-2.44,64.72,64.72,0,0,1-5.69-3.16,63.68,63.68,0,0,1-5.35-3.71,37.93,37.93,0,0,1-4.9-4.44,37.88,37.88,0,0,1,6.14,2.43,63.57,63.57,0,0,1,5.69,3.16,64.79,64.79,0,0,1,5.35,3.71A38.44,38.44,0,0,1,2280,1407.71Z"/><path class="cls-36" d="M2833.67,1479.4a25.9,25.9,0,0,1,3.32,4.28,43,43,0,0,1,2.55,4.64,42.17,42.17,0,0,1,2,4.92,25.58,25.58,0,0,1,1.19,5.29,25.55,25.55,0,0,1-3.32-4.28,42.17,42.17,0,0,1-2.55-4.65,42.93,42.93,0,0,1-2-4.92A25.89,25.89,0,0,1,2833.67,1479.4Z"/><path class="cls-36" d="M2851.82,1475.89a29.19,29.19,0,0,1,1.18,5.64,49,49,0,0,1,.32,5.64,48,48,0,0,1-.32,5.64,28.85,28.85,0,0,1-1.18,5.64,28.81,28.81,0,0,1-1.18-5.64,48,48,0,0,1-.32-5.64,48.89,48.89,0,0,1,.32-5.64A29.16,29.16,0,0,1,2851.82,1475.89Z"/><path class="cls-36" d="M2863.6,1475.89a29.19,29.19,0,0,1,1.18,5.64,48.9,48.9,0,0,1,.32,5.64,48,48,0,0,1-.32,5.64,28.85,28.85,0,0,1-1.18,5.64,28.81,28.81,0,0,1-1.18-5.64,48,48,0,0,1-.32-5.64,48.79,48.79,0,0,1,.32-5.64A29.16,29.16,0,0,1,2863.6,1475.89Z"/><path class="cls-36" d="M2876.25,1476.14a29.18,29.18,0,0,1,0,5.76,48.81,48.81,0,0,1-.86,5.59,47.94,47.94,0,0,1-1.49,5.45,28.82,28.82,0,0,1-2.33,5.27,28.86,28.86,0,0,1,0-5.76,48.12,48.12,0,0,1,.86-5.58,48.92,48.92,0,0,1,1.49-5.45A29.19,29.19,0,0,1,2876.25,1476.14Z"/><path class="cls-36" d="M2900.2,1519.22a55.8,55.8,0,0,1-2.07-7.71c-.52-2.59-.92-5.2-1.23-7.81s-.5-5.24-.59-7.89a55.11,55.11,0,0,1,.27-8,55.12,55.12,0,0,1,2.08,7.71q.78,3.89,1.22,7.81c.3,2.62.5,5.24.58,7.89A55.8,55.8,0,0,1,2900.2,1519.22Z"/><path class="cls-36" d="M2905.62,1498.13a29.2,29.2,0,0,1,1.18,5.64,48.77,48.77,0,0,1,.32,5.64,48,48,0,0,1-.32,5.64,28.84,28.84,0,0,1-1.18,5.64,28.88,28.88,0,0,1-1.18-5.64,48,48,0,0,1-.32-5.64,48.77,48.77,0,0,1,.32-5.64A29.2,29.2,0,0,1,2905.62,1498.13Z"/><path class="cls-36" d="M2918.87,1491.75a43.14,43.14,0,0,1,.42,7c0,2.31-.18,4.61-.43,6.9s-.6,4.57-1.07,6.83a42.61,42.61,0,0,1-1.93,6.74,42.5,42.5,0,0,1-.42-7q0-3.47.43-6.9c.25-2.29.61-4.57,1.07-6.83A43.14,43.14,0,0,1,2918.87,1491.75Z"/><path class="cls-36" d="M2922.49,1518.73a30.17,30.17,0,0,1,.85-5.8,50.64,50.64,0,0,1,1.65-5.51,49.68,49.68,0,0,1,2.26-5.29,29.77,29.77,0,0,1,3.07-5,29.83,29.83,0,0,1-.85,5.8,49.79,49.79,0,0,1-1.66,5.51,50.65,50.65,0,0,1-2.26,5.29A30.16,30.16,0,0,1,2922.49,1518.73Z"/><path class="cls-36" d="M2932.12,1519.71a29.1,29.1,0,0,1,2.19-5.32,48.8,48.8,0,0,1,2.89-4.84,47.94,47.94,0,0,1,3.43-4.48,28.75,28.75,0,0,1,4.14-4,28.73,28.73,0,0,1-2.19,5.32,47.78,47.78,0,0,1-2.9,4.84,48.62,48.62,0,0,1-3.43,4.48A29.11,29.11,0,0,1,2932.12,1519.71Z"/><path class="cls-36" d="M2893.58,1519.88a20,20,0,0,1-2.62-3.95,32.4,32.4,0,0,1-1.81-4.23,31.75,31.75,0,0,1-1.2-4.44,19.7,19.7,0,0,1-.39-4.72,19.71,19.71,0,0,1,2.62,3.95,31.85,31.85,0,0,1,1.81,4.23,32.43,32.43,0,0,1,1.2,4.44A20,20,0,0,1,2893.58,1519.88Z"/><path class="cls-36" d="M2886.35,1519.55a23,23,0,0,1-2.81-4.26,37.87,37.87,0,0,1-2-4.55,37.18,37.18,0,0,1-1.41-4.77,22.74,22.74,0,0,1-.6-5.07,22.74,22.74,0,0,1,2.81,4.25,37.26,37.26,0,0,1,2,4.55,38,38,0,0,1,1.4,4.77A23,23,0,0,1,2886.35,1519.55Z"/><path class="cls-36" d="M2877.12,1519.55a30.48,30.48,0,0,1-3.66-4.62,51.08,51.08,0,0,1-2.9-5,50.28,50.28,0,0,1-2.32-5.3,30.09,30.09,0,0,1-1.56-5.68,30.1,30.1,0,0,1,3.66,4.62,50.27,50.27,0,0,1,2.9,5,51.17,51.17,0,0,1,2.32,5.3A30.51,30.51,0,0,1,2877.12,1519.55Z"/><path class="cls-36" d="M2871.5,1519.22a22.9,22.9,0,0,1-3.86-3.32,37.7,37.7,0,0,1-3.17-3.82,37.05,37.05,0,0,1-2.65-4.19,22.65,22.65,0,0,1-2-4.7,22.65,22.65,0,0,1,3.87,3.31,37.1,37.1,0,0,1,3.17,3.82,37.81,37.81,0,0,1,2.65,4.2A22.94,22.94,0,0,1,2871.5,1519.22Z"/><path class="cls-36" d="M2868.69,1522.49a38.35,38.35,0,0,1-6.14-2.44,64.73,64.73,0,0,1-5.69-3.16,63.76,63.76,0,0,1-5.35-3.71,37.93,37.93,0,0,1-4.9-4.44,37.9,37.9,0,0,1,6.14,2.43,63.57,63.57,0,0,1,5.69,3.16,64.78,64.78,0,0,1,5.35,3.71A38.44,38.44,0,0,1,2868.69,1522.49Z"/><path class="cls-36" d="M1899.67,1495a77.72,77.72,0,0,1,.59-9.6c.35-3.17.84-6.32,1.41-9.45s1.25-6.24,2.06-9.33a76.79,76.79,0,0,1,2.89-9.18,76.88,76.88,0,0,1-.59,9.6c-.35,3.17-.84,6.32-1.42,9.45s-1.25,6.24-2.07,9.33A77.74,77.74,0,0,1,1899.67,1495Z"/><path class="cls-36" d="M1911.54,1494.23a79.16,79.16,0,0,1,.59-9.7c.35-3.21.84-6.38,1.41-9.55s1.25-6.31,2.06-9.43a78.38,78.38,0,0,1,2.89-9.27,78.29,78.29,0,0,1-.59,9.7c-.35,3.2-.84,6.38-1.42,9.54s-1.25,6.31-2.07,9.43A79.28,79.28,0,0,1,1911.54,1494.23Z"/><path class="cls-36" d="M1925.46,1495.76c-.62-4-.95-8-1.17-12-.14-2-.17-4-.25-6l-.08-6c0-4,.11-8,.33-12a119.89,119.89,0,0,1,1.17-12,119.89,119.89,0,0,1,1.17,12c.22,4,.34,8,.33,12l-.08,6c-.08,2-.11,4-.25,6C1926.41,1487.77,1926.08,1491.77,1925.46,1495.76Z"/><path class="cls-36" d="M1934.06,1496.52a70.76,70.76,0,0,1-1.27-9.09c-.27-3-.4-6.06-.44-9.1s0-6.07.23-9.11a70.1,70.1,0,0,1,1.07-9.12,70,70,0,0,1,1.27,9.09c.27,3,.4,6.06.43,9.1s0,6.07-.23,9.11A70.84,70.84,0,0,1,1934.06,1496.52Z"/><path class="cls-36" d="M1940.61,1493.08a72.69,72.69,0,0,1-.45-9.29c0-3.08.15-6.16.38-9.22s.57-6.12,1-9.17a71.89,71.89,0,0,1,1.88-9.11,71.9,71.9,0,0,1,.45,9.29c0,3.08-.15,6.16-.39,9.22s-.57,6.12-1,9.17A72.68,72.68,0,0,1,1940.61,1493.08Z"/><path class="cls-36" d="M1944.3,1493.84a83.56,83.56,0,0,1,2.6-9.63c1-3.15,2.15-6.25,3.38-9.32s2.54-6.1,4-9.08a82.69,82.69,0,0,1,4.77-8.76,82.66,82.66,0,0,1-2.6,9.63c-1,3.15-2.15,6.25-3.38,9.32s-2.54,6.1-4,9.07A83.53,83.53,0,0,1,1944.3,1493.84Z"/><path class="cls-36" d="M1950,1491.93a74.25,74.25,0,0,1,4-8.48c1.47-2.75,3.07-5.41,4.73-8s3.42-5.19,5.29-7.68a73.38,73.38,0,0,1,6-7.23,73.31,73.31,0,0,1-4,8.49c-1.47,2.75-3.07,5.41-4.74,8s-3.42,5.19-5.3,7.68A74.08,74.08,0,0,1,1950,1491.93Z"/><path class="cls-36" d="M1954.54,1492.69a50.21,50.21,0,0,1,5.35-5.36q2.83-2.47,5.85-4.67t6.23-4.15a49.59,49.59,0,0,1,6.73-3.45,49.51,49.51,0,0,1-5.34,5.36q-2.82,2.47-5.85,4.67t-6.23,4.15A50.17,50.17,0,0,1,1954.54,1492.69Z"/><path class="cls-36" d="M1869.37,1494.61a54.64,54.64,0,0,1-4.34-6.6q-1.94-3.41-3.57-7t-3-7.22a53.92,53.92,0,0,1-2.2-7.58,53.91,53.91,0,0,1,4.35,6.6q1.94,3.41,3.57,7t3,7.23A54.58,54.58,0,0,1,1869.37,1494.61Z"/><path class="cls-36" d="M1863.64,1496.52a70,70,0,0,1-5.8-7c-1.81-2.43-3.48-4.94-5.09-7.49s-3.13-5.16-4.53-7.84a69.25,69.25,0,0,1-3.82-8.29,69.26,69.26,0,0,1,5.8,7c1.8,2.43,3.48,4.94,5.09,7.49s3.13,5.16,4.53,7.84A70,70,0,0,1,1863.64,1496.52Z"/><path class="cls-36" d="M1856.67,1496.52a35.2,35.2,0,0,1-5.64-2.91,59.62,59.62,0,0,1-5.11-3.58,58.68,58.68,0,0,1-4.72-4.08,34.72,34.72,0,0,1-4.19-4.76,34.76,34.76,0,0,1,5.64,2.9,58.42,58.42,0,0,1,5.11,3.58,59.54,59.54,0,0,1,4.71,4.09A35.2,35.2,0,0,1,1856.67,1496.52Z"/><path class="cls-36" d="M2547,1401.34a58.27,58.27,0,0,1,4.16,7q1.84,3.61,3.37,7.35t2.77,7.59a57.55,57.55,0,0,1,2,7.92,57.57,57.57,0,0,1-4.16-7q-1.84-3.61-3.37-7.35t-2.77-7.6A58.26,58.26,0,0,1,2547,1401.34Z"/><path class="cls-36" d="M2564.36,1428.82a75,75,0,0,1-3-9c-.85-3-1.55-6.07-2.17-9.13s-1.14-6.15-1.52-9.26a74.31,74.31,0,0,1-.69-9.43,74.22,74.22,0,0,1,3,9c.85,3,1.55,6.07,2.17,9.13s1.14,6.15,1.52,9.26A75.23,75.23,0,0,1,2564.36,1428.82Z"/><path class="cls-36" d="M2571.73,1395.86a66.54,66.54,0,0,1,1.17,8.81c.24,2.94.33,5.88.33,8.81s-.09,5.88-.33,8.81a65.76,65.76,0,0,1-1.17,8.81,65.76,65.76,0,0,1-1.17-8.81c-.24-2.94-.33-5.88-.33-8.81s.09-5.88.33-8.81A66.54,66.54,0,0,1,2571.73,1395.86Z"/><path class="cls-36" d="M2579.92,1429.58a77.73,77.73,0,0,1,.59-9.6c.35-3.17.84-6.32,1.41-9.45s1.25-6.24,2.06-9.33a76.88,76.88,0,0,1,2.89-9.18,76.88,76.88,0,0,1-.59,9.6c-.35,3.17-.84,6.32-1.42,9.45s-1.25,6.24-2.07,9.33A77.73,77.73,0,0,1,2579.92,1429.58Z"/><path class="cls-36" d="M2591.79,1428.82a79.15,79.15,0,0,1,.59-9.7c.35-3.21.84-6.38,1.41-9.55s1.25-6.31,2.06-9.43a78.41,78.41,0,0,1,2.89-9.27,78.31,78.31,0,0,1-.59,9.7c-.35,3.2-.84,6.38-1.42,9.54s-1.25,6.31-2.07,9.42A79.35,79.35,0,0,1,2591.79,1428.82Z"/><path class="cls-36" d="M2605.72,1430.35c-.62-4-.95-8-1.17-12-.14-2-.17-4-.25-6l-.08-6c0-4,.11-8,.33-12a119.89,119.89,0,0,1,1.17-12,119.89,119.89,0,0,1,1.17,12c.22,4,.34,8,.33,12l-.08,6c-.08,2-.11,4-.25,6C2606.66,1422.36,2606.34,1426.36,2605.72,1430.35Z"/><path class="cls-36" d="M2614.31,1431.12A70.77,70.77,0,0,1,2613,1422c-.27-3-.4-6.06-.44-9.1s0-6.07.23-9.11a70,70,0,0,1,1.07-9.12,70.1,70.1,0,0,1,1.27,9.09c.27,3,.4,6.06.43,9.1s0,6.07-.23,9.11A70.75,70.75,0,0,1,2614.31,1431.12Z"/><path class="cls-36" d="M2620.87,1427.67a72.69,72.69,0,0,1-.45-9.29c0-3.08.15-6.16.38-9.22s.57-6.12,1-9.17a71.9,71.9,0,0,1,1.88-9.11,71.91,71.91,0,0,1,.45,9.29c0,3.08-.15,6.16-.39,9.22s-.57,6.12-1,9.17A72.7,72.7,0,0,1,2620.87,1427.67Z"/><path class="cls-36" d="M2624.55,1428.43a83.54,83.54,0,0,1,2.6-9.63c1-3.15,2.15-6.25,3.38-9.32s2.54-6.1,4-9.08a82.6,82.6,0,0,1,4.77-8.76,82.66,82.66,0,0,1-2.6,9.63c-1,3.15-2.15,6.25-3.38,9.32s-2.54,6.1-4,9.07A83.54,83.54,0,0,1,2624.55,1428.43Z"/><path class="cls-36" d="M2630.28,1426.52a74.21,74.21,0,0,1,4-8.48c1.47-2.75,3.07-5.41,4.73-8s3.42-5.19,5.29-7.68a73.38,73.38,0,0,1,6-7.23,73.26,73.26,0,0,1-4,8.49c-1.47,2.75-3.07,5.41-4.74,8s-3.42,5.19-5.3,7.68A74.14,74.14,0,0,1,2630.28,1426.52Z"/><path class="cls-36" d="M2634.79,1427.28a50.13,50.13,0,0,1,5.35-5.36q2.82-2.47,5.85-4.67t6.23-4.15a49.54,49.54,0,0,1,6.73-3.45,49.51,49.51,0,0,1-5.34,5.36q-2.82,2.47-5.85,4.67t-6.23,4.15A50.21,50.21,0,0,1,2634.79,1427.28Z"/><path class="cls-36" d="M2549.62,1429.2a54.6,54.6,0,0,1-4.34-6.6q-1.94-3.41-3.57-7t-3-7.22a53.86,53.86,0,0,1-2.21-7.58,54,54,0,0,1,4.35,6.6q1.94,3.41,3.57,7t3,7.23A54.62,54.62,0,0,1,2549.62,1429.2Z"/><path class="cls-36" d="M2543.89,1431.12a70,70,0,0,1-5.8-7c-1.81-2.43-3.48-4.94-5.09-7.49s-3.13-5.16-4.53-7.84a69.33,69.33,0,0,1-3.82-8.29,69.21,69.21,0,0,1,5.8,7c1.8,2.43,3.48,4.94,5.09,7.49s3.13,5.16,4.53,7.84A70,70,0,0,1,2543.89,1431.12Z"/><path class="cls-36" d="M2536.93,1431.12a35.2,35.2,0,0,1-5.64-2.91,59.62,59.62,0,0,1-5.11-3.58,58.68,58.68,0,0,1-4.72-4.08,34.75,34.75,0,0,1-4.19-4.76,34.76,34.76,0,0,1,5.64,2.9,58.32,58.32,0,0,1,5.11,3.58,59.44,59.44,0,0,1,4.71,4.09A35.17,35.17,0,0,1,2536.93,1431.12Z"/><path class="cls-36" d="M2756.76,1469.59a54.64,54.64,0,0,1-4.34-6.6q-1.94-3.41-3.57-7t-3-7.22a53.92,53.92,0,0,1-2.21-7.58,53.85,53.85,0,0,1,4.35,6.6q1.94,3.41,3.57,7t3,7.23A54.58,54.58,0,0,1,2756.76,1469.59Z"/><path class="cls-36" d="M2751,1471.51a70,70,0,0,1-5.8-7c-1.81-2.43-3.48-4.94-5.09-7.49s-3.13-5.16-4.53-7.84a69.17,69.17,0,0,1-3.82-8.29,69.2,69.2,0,0,1,5.8,7c1.81,2.43,3.48,4.94,5.09,7.49s3.13,5.16,4.53,7.84A70,70,0,0,1,2751,1471.51Z"/><path class="cls-36" d="M2744.06,1471.51a35.2,35.2,0,0,1-5.64-2.91,59.55,59.55,0,0,1-5.11-3.58,58.51,58.51,0,0,1-4.72-4.08,34.72,34.72,0,0,1-4.19-4.76,34.78,34.78,0,0,1,5.64,2.9,58.39,58.39,0,0,1,5.11,3.58,59.52,59.52,0,0,1,4.71,4.09A35.2,35.2,0,0,1,2744.06,1471.51Z"/><path class="cls-36" d="M1979.92,1519.14a26.83,26.83,0,0,1-1.68-5.25,44.64,44.64,0,0,1-.83-5.33,43.85,43.85,0,0,1-.19-5.4,26.47,26.47,0,0,1,.66-5.48,26.47,26.47,0,0,1,1.69,5.25,44,44,0,0,1,.83,5.33,44.65,44.65,0,0,1,.19,5.4A26.8,26.8,0,0,1,1979.92,1519.14Z"/><path class="cls-36" d="M1989.34,1519.9a49,49,0,0,1-1.48-7.33c-.32-2.45-.53-4.9-.63-7.36s-.1-4.92,0-7.39a48.35,48.35,0,0,1,.87-7.43,48.34,48.34,0,0,1,1.49,7.33q.48,3.67.63,7.36c.1,2.46.1,4.92,0,7.39A49,49,0,0,1,1989.34,1519.9Z"/><path class="cls-36" d="M1995.74,1520.67a61.69,61.69,0,0,1,0-8.4q.24-4.16.81-8.28t1.44-8.2a60.84,60.84,0,0,1,2.29-8.08,60.93,60.93,0,0,1,0,8.4q-.24,4.16-.81,8.28c-.38,2.75-.85,5.48-1.45,8.2A61.59,61.59,0,0,1,1995.74,1520.67Z"/><path class="cls-36" d="M1975,1519.52a19.6,19.6,0,0,1-2.55-3.94,31.76,31.76,0,0,1-1.74-4.21,31.22,31.22,0,0,1-1.13-4.41,19.34,19.34,0,0,1-.31-4.68,19.33,19.33,0,0,1,2.55,3.94,31.15,31.15,0,0,1,1.74,4.21,31.75,31.75,0,0,1,1.13,4.41A19.59,19.59,0,0,1,1975,1519.52Z"/><path class="cls-36" d="M2004.19,1519.14a80.22,80.22,0,0,1,.91-9.73c.45-3.21,1-6.39,1.72-9.56s1.45-6.3,2.37-9.42a79.26,79.26,0,0,1,3.19-9.24,79.34,79.34,0,0,1-.9,9.73c-.45,3.21-1,6.39-1.73,9.56s-1.46,6.3-2.37,9.41A80.2,80.2,0,0,1,2004.19,1519.14Z"/><path class="cls-36" d="M2013.1,1519.52a39.43,39.43,0,0,1-.14-6.7c.12-2.21.36-4.39.7-6.57a65.45,65.45,0,0,1,1.34-6.47,39,39,0,0,1,2.19-6.33,39,39,0,0,1,.14,6.7,65.45,65.45,0,0,1-.71,6.56c-.34,2.17-.79,4.33-1.34,6.46A39.48,39.48,0,0,1,2013.1,1519.52Z"/><path class="cls-36" d="M2027.84,1519.14a63.6,63.6,0,0,1,1.12-8.46q.81-4.16,1.94-8.23t2.56-8.06a62.8,62.8,0,0,1,3.39-7.83,62.79,62.79,0,0,1-1.12,8.46q-.81,4.16-1.94,8.23t-2.56,8.06A63.54,63.54,0,0,1,2027.84,1519.14Z"/><path class="cls-36" d="M2043.72,1521.44a87.62,87.62,0,0,1,1.85-10c.76-3.3,1.67-6.56,2.65-9.8s2.07-6.44,3.28-9.61a86.56,86.56,0,0,1,4.09-9.36,86.55,86.55,0,0,1-1.85,10c-.76,3.3-1.67,6.56-2.65,9.8s-2.07,6.44-3.29,9.61A87.51,87.51,0,0,1,2043.72,1521.44Z"/><path class="cls-36" d="M2055.08,1519.22a91.55,91.55,0,0,1,1.75-10.3c.73-3.39,1.6-6.74,2.55-10.07s2-6.63,3.18-9.89a90.58,90.58,0,0,1,4-9.66,90.66,90.66,0,0,1-1.74,10.3c-.73,3.39-1.6,6.74-2.55,10.07s-2,6.63-3.19,9.89A91.68,91.68,0,0,1,2055.08,1519.22Z"/><path class="cls-36" d="M2066,1517a59.09,59.09,0,0,1,.8-8.18c.43-2.69,1-5.34,1.63-8s1.39-5.24,2.26-7.82a58.4,58.4,0,0,1,3.09-7.62,58.34,58.34,0,0,1-.8,8.18q-.65,4-1.63,8t-2.26,7.82A59.09,59.09,0,0,1,2066,1517Z"/><path class="cls-36" d="M2080.27,1514.78a91.65,91.65,0,0,1-1.17-10.4c-.24-3.47-.33-6.93-.33-10.4s.09-6.93.33-10.4a90.89,90.89,0,0,1,1.17-10.4,90.78,90.78,0,0,1,1.17,10.4c.24,3.47.33,6.93.33,10.4s-.09,6.93-.33,10.4A91.87,91.87,0,0,1,2080.27,1514.78Z"/><path class="cls-36" d="M2088.46,1518.11a71.59,71.59,0,0,1-1.37-9.12c-.31-3-.46-6.09-.54-9.14s0-6.1.12-9.16a70.72,70.72,0,0,1,1-9.18,70.81,70.81,0,0,1,1.38,9.12c.31,3,.46,6.09.53,9.14s0,6.1-.13,9.16A71.58,71.58,0,0,1,2088.46,1518.11Z"/><path class="cls-36" d="M2096.14,1519.22a105.11,105.11,0,0,1-.14-11.2c.1-3.72.36-7.42.69-11.12s.77-7.38,1.35-11.06a104,104,0,0,1,2.19-11,103.84,103.84,0,0,1,.14,11.2c-.1,3.72-.36,7.42-.7,11.12s-.78,7.38-1.36,11.06A105.22,105.22,0,0,1,2096.14,1519.22Z"/><path class="cls-36" d="M2102.19,1520.33a110.32,110.32,0,0,1,.9-11.44c.21-1.9.52-3.77.78-5.66l.94-5.63c.67-3.74,1.47-7.47,2.37-11.17a109.23,109.23,0,0,1,3.2-11,109,109,0,0,1-.9,11.44c-.47,3.78-1,7.55-1.72,11.29l-1.1,5.6c-.42,1.86-.79,3.72-1.27,5.57A110.32,110.32,0,0,1,2102.19,1520.33Z"/><path class="cls-36" d="M2117.19,1517a101.75,101.75,0,0,1-1-11c-.17-3.65-.19-7.31-.13-11s.23-7.3.53-10.94a100.66,100.66,0,0,1,1.38-10.93,100.54,100.54,0,0,1,1,11c.17,3.65.19,7.31.12,11s-.23,7.3-.54,10.94A101.62,101.62,0,0,1,2117.19,1517Z"/><path class="cls-36" d="M2124.92,1516.45a56.76,56.76,0,0,1-.14-8.05c.12-2.66.36-5.31.7-7.94s.78-5.25,1.34-7.86a56.07,56.07,0,0,1,2.19-7.75,56,56,0,0,1,.15,8.05q-.18,4-.71,7.94c-.34,2.63-.79,5.25-1.35,7.86A56.77,56.77,0,0,1,2124.92,1516.45Z"/><path class="cls-36" d="M2760.71,1473.52a63.6,63.6,0,0,1,1.12-8.46q.81-4.16,1.94-8.23t2.56-8.06a62.73,62.73,0,0,1,3.39-7.83,62.71,62.71,0,0,1-1.12,8.46q-.81,4.16-1.94,8.23t-2.56,8.06A63.58,63.58,0,0,1,2760.71,1473.52Z"/><path class="cls-36" d="M2776.58,1475.82a87.52,87.52,0,0,1,1.85-10c.76-3.3,1.67-6.56,2.65-9.8s2.07-6.44,3.28-9.61a86.66,86.66,0,0,1,4.09-9.36,86.54,86.54,0,0,1-1.85,10c-.76,3.3-1.67,6.56-2.65,9.8s-2.07,6.44-3.29,9.61A87.61,87.61,0,0,1,2776.58,1475.82Z"/><path class="cls-36" d="M2788,1473.6a91.68,91.68,0,0,1,1.75-10.3c.73-3.39,1.6-6.74,2.55-10.07s2-6.63,3.18-9.89a90.74,90.74,0,0,1,4-9.66,90.56,90.56,0,0,1-1.74,10.3c-.73,3.39-1.6,6.74-2.55,10.07s-2,6.63-3.19,9.89A91.53,91.53,0,0,1,2788,1473.6Z"/><path class="cls-36" d="M2798.86,1471.38a59.11,59.11,0,0,1,.8-8.18c.43-2.69,1-5.34,1.63-8s1.39-5.24,2.26-7.83a58.29,58.29,0,0,1,3.09-7.62,58.35,58.35,0,0,1-.8,8.18q-.65,4-1.63,8t-2.26,7.82A59.16,59.16,0,0,1,2798.86,1471.38Z"/><path class="cls-36" d="M2813.14,1469.16a91.88,91.88,0,0,1-1.17-10.4c-.24-3.47-.33-6.93-.33-10.4s.09-6.93.33-10.4a90.79,90.79,0,0,1,1.17-10.4,90.79,90.79,0,0,1,1.17,10.4c.24,3.47.33,6.93.33,10.4s-.09,6.93-.33,10.4A91.77,91.77,0,0,1,2813.14,1469.16Z"/><path class="cls-36" d="M2821.33,1472.49a71.47,71.47,0,0,1-1.37-9.12c-.31-3-.46-6.09-.54-9.14s0-6.1.12-9.16a70.73,70.73,0,0,1,1-9.18,70.72,70.72,0,0,1,1.37,9.12c.31,3,.46,6.09.53,9.14s0,6.1-.13,9.16A71.57,71.57,0,0,1,2821.33,1472.49Z"/><path class="cls-36" d="M2829,1473.6a105.1,105.1,0,0,1-.14-11.2c.1-3.72.36-7.42.69-11.12s.77-7.38,1.35-11.06a104,104,0,0,1,2.19-11,104,104,0,0,1,.14,11.2c-.1,3.72-.36,7.42-.7,11.12s-.78,7.38-1.36,11.06A105.11,105.11,0,0,1,2829,1473.6Z"/><path class="cls-36" d="M2835.05,1474.71a110.33,110.33,0,0,1,.9-11.44c.21-1.9.52-3.77.78-5.66l.94-5.63c.67-3.74,1.47-7.47,2.37-11.17a109,109,0,0,1,3.2-11,109.11,109.11,0,0,1-.9,11.44c-.47,3.78-1,7.55-1.72,11.29l-1.11,5.6c-.42,1.86-.79,3.72-1.27,5.57A110.32,110.32,0,0,1,2835.05,1474.71Z"/><path class="cls-36" d="M2850.06,1471.38a101.76,101.76,0,0,1-1-11c-.17-3.65-.19-7.31-.13-11s.23-7.3.53-10.94a100.56,100.56,0,0,1,1.38-10.93,100.55,100.55,0,0,1,1,11c.17,3.65.19,7.31.12,11s-.23,7.3-.54,10.94A101.76,101.76,0,0,1,2850.06,1471.38Z"/><path class="cls-36" d="M2857.79,1470.82a56.76,56.76,0,0,1-.14-8.05c.12-2.66.36-5.31.7-7.94s.78-5.25,1.34-7.86a55.9,55.9,0,0,1,2.19-7.75,56.05,56.05,0,0,1,.15,8.05q-.19,4-.71,7.94c-.34,2.63-.79,5.25-1.34,7.86A56.73,56.73,0,0,1,2857.79,1470.82Z"/><path class="cls-36" d="M2953.5,1518.3a36.39,36.39,0,0,1,1.15-6.33,61.28,61.28,0,0,1,1.95-6,60.24,60.24,0,0,1,2.55-5.79,35.94,35.94,0,0,1,3.35-5.49,35.92,35.92,0,0,1-1.15,6.33,60.16,60.16,0,0,1-2,6,61.27,61.27,0,0,1-2.56,5.79A36.44,36.44,0,0,1,2953.5,1518.3Z"/><path class="cls-36" d="M2969.37,1520a52.33,52.33,0,0,1,1.89-7.5q1.18-3.65,2.67-7.17t3.26-6.92a51.68,51.68,0,0,1,4.06-6.58,51.63,51.63,0,0,1-1.88,7.5q-1.18,3.65-2.67,7.16t-3.27,6.91A52.31,52.31,0,0,1,2969.37,1520Z"/><path class="cls-36" d="M2980.73,1518.35a54.26,54.26,0,0,1,1.77-7.67q1.13-3.74,2.56-7.36t3.16-7.12a53.56,53.56,0,0,1,4-6.81,53.6,53.6,0,0,1-1.77,7.68q-1.13,3.74-2.57,7.36t-3.17,7.12A54.3,54.3,0,0,1,2980.73,1518.35Z"/><path class="cls-36" d="M2991.64,1516.75a33.34,33.34,0,0,1,.83-6.11,56.31,56.31,0,0,1,1.64-5.84,55.25,55.25,0,0,1,2.25-5.63,33,33,0,0,1,3.06-5.35,32.91,32.91,0,0,1-.83,6.11,55.29,55.29,0,0,1-1.64,5.84,56.31,56.31,0,0,1-2.25,5.63A33.32,33.32,0,0,1,2991.64,1516.75Z"/><path class="cls-36" d="M3005.92,1515.14a51.1,51.1,0,0,1-1.18-7.54c-.22-2.51-.32-5-.32-7.54s.1-5,.32-7.54a50.41,50.41,0,0,1,1.18-7.54,50.41,50.41,0,0,1,1.18,7.54q.33,3.77.32,7.54c0,2.51-.1,5-.32,7.54A51,51,0,0,1,3005.92,1515.14Z"/><path class="cls-36" d="M3014.11,1517.55a40,40,0,0,1-1.38-6.6c-.29-2.21-.46-4.42-.53-6.63a66.27,66.27,0,0,1,.12-6.65,39.44,39.44,0,0,1,1-6.67,39.48,39.48,0,0,1,1.38,6.6,66.42,66.42,0,0,1,.52,6.63c.07,2.21,0,4.43-.12,6.65A40,40,0,0,1,3014.11,1517.55Z"/><path class="cls-36" d="M3021.79,1518.35a58.77,58.77,0,0,1-.14-8.19c.12-2.71.36-5.4.7-8.09s.78-5.35,1.34-8a58.06,58.06,0,0,1,2.19-7.9,58,58,0,0,1,.15,8.2q-.18,4.06-.71,8.09c-.34,2.68-.79,5.35-1.35,8A58.69,58.69,0,0,1,3021.79,1518.35Z"/><path class="cls-36" d="M3027.84,1519.16a62.86,62.86,0,0,1,.91-8.43q.7-4.15,1.73-8.23t2.36-8.07a62,62,0,0,1,3.19-7.86,62,62,0,0,1-.9,8.43q-.7,4.15-1.74,8.22t-2.36,8.07A62.91,62.91,0,0,1,3027.84,1519.16Z"/><path class="cls-36" d="M3042.84,1516.75a56.44,56.44,0,0,1-1-8c-.15-2.65-.19-5.31-.12-8s.24-5.29.52-7.94a55.74,55.74,0,0,1,1.38-7.92,55.68,55.68,0,0,1,1,8q.23,4,.12,8c-.07,2.65-.24,5.29-.53,7.94A56.51,56.51,0,0,1,3042.84,1516.75Z"/><path class="cls-36" d="M3050.57,1516.34a31,31,0,0,1-.13-5.94,52,52,0,0,1,.7-5.79,51.28,51.28,0,0,1,1.34-5.68,30.64,30.64,0,0,1,2.19-5.53,30.6,30.6,0,0,1,.14,5.94,51,51,0,0,1-.71,5.79,52,52,0,0,1-1.34,5.68A31,31,0,0,1,3050.57,1516.34Z"/><path class="cls-36" d="M2139.66,1517.55c-.82-4-1.35-8-1.78-12-.24-2-.37-4-.56-6l-.39-6c-.21-4-.3-8-.29-12.08s.14-8.07.55-12.12c.83,4,1.36,8,1.78,12s.75,8,.94,12l.22,6c0,2,.09,4,.06,6C2140.19,1509.47,2140.07,1513.5,2139.66,1517.55Z"/><path class="cls-36" d="M2147,1517a65.93,65.93,0,0,1-1.58-8.54c-.36-2.85-.59-5.71-.73-8.58s-.17-5.73-.09-8.61a65,65,0,0,1,.77-8.65,65,65,0,0,1,1.59,8.54q.53,4.28.73,8.58c.13,2.86.17,5.73.09,8.61A65.93,65.93,0,0,1,2147,1517Z"/><path class="cls-36" d="M2156.2,1512.56a52.46,52.46,0,0,1-.56-7.72c0-2.56.09-5.11.29-7.65s.51-5.07.93-7.6a51.69,51.69,0,0,1,1.79-7.53,51.75,51.75,0,0,1,.56,7.72q0,3.84-.29,7.65c-.21,2.54-.51,5.07-.94,7.6A52.4,52.4,0,0,1,2156.2,1512.56Z"/><path class="cls-36" d="M2162.34,1513.12a77.75,77.75,0,0,1,.38-9.61c.28-3.18.7-6.34,1.21-9.48s1.11-6.27,1.86-9.37a76.91,76.91,0,0,1,2.69-9.24,76.91,76.91,0,0,1-.38,9.61c-.28,3.18-.7,6.34-1.21,9.48s-1.12,6.27-1.86,9.37A77.71,77.71,0,0,1,2162.34,1513.12Z"/><path class="cls-36" d="M2170.94,1511.45a66.49,66.49,0,0,1,.81-8.85c.42-2.92,1-5.8,1.62-8.67s1.39-5.71,2.27-8.52a65.76,65.76,0,0,1,3.09-8.34,65.68,65.68,0,0,1-.8,8.85c-.42,2.92-1,5.8-1.62,8.67s-1.39,5.71-2.27,8.52A66.48,66.48,0,0,1,2170.94,1511.45Z"/><path class="cls-36" d="M2180.36,1519.16a53,53,0,0,1,1.13-7.69c.54-2.51,1.19-5,1.94-7.44s1.6-4.87,2.56-7.25a52.16,52.16,0,0,1,3.38-7,52.24,52.24,0,0,1-1.12,7.69q-.81,3.77-1.95,7.44t-2.56,7.25A52.93,52.93,0,0,1,2180.36,1519.16Z"/><path class="cls-36" d="M1286.79,1532.38a26.8,26.8,0,0,1-1.68-5.25,44.64,44.64,0,0,1-.83-5.33,43.75,43.75,0,0,1-.19-5.4,26.47,26.47,0,0,1,.66-5.48,26.47,26.47,0,0,1,1.69,5.25,43.76,43.76,0,0,1,.83,5.33,44.55,44.55,0,0,1,.19,5.4A26.8,26.8,0,0,1,1286.79,1532.38Z"/><path class="cls-36" d="M1296.2,1533.15a49.06,49.06,0,0,1-1.48-7.33c-.32-2.45-.53-4.9-.63-7.36s-.1-4.92,0-7.39a48.35,48.35,0,0,1,.87-7.43,48.4,48.4,0,0,1,1.49,7.33q.48,3.67.63,7.36c.1,2.46.1,4.92,0,7.39A49,49,0,0,1,1296.2,1533.15Z"/><path class="cls-36" d="M1302.61,1533.91a61.61,61.61,0,0,1,0-8.4c.16-2.78.43-5.54.8-8.28s.85-5.48,1.44-8.2a60.76,60.76,0,0,1,2.29-8.08,60.85,60.85,0,0,1,0,8.4q-.24,4.16-.81,8.28c-.38,2.75-.85,5.48-1.45,8.2A61.76,61.76,0,0,1,1302.61,1533.91Z"/><path class="cls-36" d="M1281.87,1532.76a19.62,19.62,0,0,1-2.55-3.94,31.82,31.82,0,0,1-1.74-4.21,31.22,31.22,0,0,1-1.13-4.41,19.39,19.39,0,0,1-.31-4.68,19.35,19.35,0,0,1,2.55,3.94,31.28,31.28,0,0,1,1.74,4.21,31.82,31.82,0,0,1,1.13,4.41A19.59,19.59,0,0,1,1281.87,1532.76Z"/><path class="cls-36" d="M1311.06,1532.38a80.22,80.22,0,0,1,.91-9.73c.45-3.21,1-6.39,1.72-9.56s1.45-6.3,2.37-9.42a79.35,79.35,0,0,1,3.19-9.24,79.34,79.34,0,0,1-.9,9.73c-.45,3.21-1,6.39-1.73,9.56s-1.46,6.3-2.37,9.41A80.19,80.19,0,0,1,1311.06,1532.38Z"/><path class="cls-36" d="M1320,1532.76a39.53,39.53,0,0,1-.14-6.7c.12-2.21.36-4.39.7-6.57a65.59,65.59,0,0,1,1.34-6.47,39,39,0,0,1,2.19-6.33,39,39,0,0,1,.14,6.7,65.74,65.74,0,0,1-.71,6.56c-.34,2.17-.79,4.33-1.34,6.46A39.43,39.43,0,0,1,1320,1532.76Z"/><path class="cls-36" d="M1334.71,1532.38a63.44,63.44,0,0,1,1.12-8.46q.81-4.16,1.94-8.23t2.56-8.06a62.72,62.72,0,0,1,3.39-7.83,62.79,62.79,0,0,1-1.12,8.46q-.81,4.16-1.94,8.23t-2.56,8.06A63.69,63.69,0,0,1,1334.71,1532.38Z"/><path class="cls-36" d="M1350.58,1534.68a87.4,87.4,0,0,1,1.85-10c.76-3.3,1.67-6.56,2.65-9.8s2.07-6.44,3.28-9.61a86.66,86.66,0,0,1,4.09-9.36,86.65,86.65,0,0,1-1.85,10c-.76,3.3-1.67,6.56-2.65,9.8s-2.07,6.44-3.29,9.61A87.61,87.61,0,0,1,1350.58,1534.68Z"/><path class="cls-36" d="M1361.95,1532.46a91.55,91.55,0,0,1,1.75-10.3c.73-3.39,1.6-6.74,2.55-10.07s2-6.63,3.18-9.89a90.58,90.58,0,0,1,4-9.66,90.55,90.55,0,0,1-1.74,10.3c-.73,3.39-1.6,6.74-2.55,10.07s-2,6.63-3.19,9.89A91.48,91.48,0,0,1,1361.95,1532.46Z"/><path class="cls-36" d="M1372.85,1530.24a59.17,59.17,0,0,1,.8-8.18c.44-2.69,1-5.34,1.63-8s1.39-5.24,2.26-7.82a58.26,58.26,0,0,1,3.09-7.62,58.34,58.34,0,0,1-.8,8.18q-.65,4-1.63,8c-.65,2.63-1.4,5.24-2.26,7.82A59.11,59.11,0,0,1,1372.85,1530.24Z"/><path class="cls-36" d="M1387.14,1528a91.87,91.87,0,0,1-1.17-10.4c-.24-3.47-.33-6.93-.33-10.4s.09-6.93.33-10.4a90.78,90.78,0,0,1,1.17-10.4,90.78,90.78,0,0,1,1.17,10.4c.24,3.47.33,6.93.33,10.4s-.09,6.93-.33,10.4A91.87,91.87,0,0,1,1387.14,1528Z"/><path class="cls-36" d="M1395.33,1531.35a71.59,71.59,0,0,1-1.37-9.12c-.31-3-.46-6.09-.54-9.14s0-6.1.12-9.16a70.8,70.8,0,0,1,1-9.18,70.64,70.64,0,0,1,1.38,9.12c.31,3,.46,6.09.53,9.14s0,6.1-.13,9.16A71.49,71.49,0,0,1,1395.33,1531.35Z"/><path class="cls-36" d="M1403,1532.46a105.11,105.11,0,0,1-.14-11.2c.1-3.72.36-7.42.69-11.12s.77-7.38,1.35-11.06a103.85,103.85,0,0,1,2.19-11,104,104,0,0,1,.14,11.2c-.1,3.72-.36,7.42-.7,11.12s-.78,7.38-1.36,11.06A105,105,0,0,1,1403,1532.46Z"/><path class="cls-36" d="M1409.05,1533.57a110.32,110.32,0,0,1,.9-11.44c.21-1.9.52-3.77.78-5.66l.94-5.63c.67-3.74,1.47-7.47,2.37-11.17a109,109,0,0,1,3.2-11,109.12,109.12,0,0,1-.9,11.44c-.47,3.78-1,7.55-1.72,11.29l-1.1,5.6c-.42,1.86-.79,3.72-1.27,5.57A110.19,110.19,0,0,1,1409.05,1533.57Z"/><path class="cls-36" d="M1424.05,1530.24a101.63,101.63,0,0,1-1-11c-.17-3.65-.19-7.31-.13-11s.23-7.3.53-10.94a100.42,100.42,0,0,1,1.38-10.93,100.54,100.54,0,0,1,1,11c.17,3.65.19,7.31.12,11s-.23,7.3-.54,10.94A101.74,101.74,0,0,1,1424.05,1530.24Z"/><path class="cls-36" d="M1431.78,1529.69a56.69,56.69,0,0,1-.14-8.05c.12-2.66.36-5.31.7-7.94s.78-5.25,1.34-7.86a56,56,0,0,1,2.19-7.75,56,56,0,0,1,.15,8.05q-.19,4-.71,7.94c-.34,2.63-.79,5.25-1.35,7.86A56.7,56.7,0,0,1,1431.78,1529.69Z"/><path class="cls-36" d="M1446.52,1530.8c-.82-4-1.35-8-1.78-12-.24-2-.37-4-.56-6l-.39-6c-.21-4-.3-8-.29-12.08s.14-8.07.55-12.12c.83,4,1.36,8,1.78,12s.75,8,.94,12l.22,6c0,2,.09,4,.06,6C1447.06,1522.71,1446.94,1526.75,1446.52,1530.8Z"/><path class="cls-36" d="M1453.85,1530.24a65.85,65.85,0,0,1-1.58-8.54c-.36-2.85-.6-5.71-.73-8.58s-.17-5.73-.09-8.61a65,65,0,0,1,.77-8.65,65,65,0,0,1,1.59,8.54q.53,4.28.73,8.58c.13,2.86.17,5.73.09,8.61A65.85,65.85,0,0,1,1453.85,1530.24Z"/><path class="cls-36" d="M1463.07,1525.81a52.46,52.46,0,0,1-.56-7.72c0-2.56.09-5.11.29-7.65s.51-5.07.93-7.6a51.82,51.82,0,0,1,1.79-7.53,51.75,51.75,0,0,1,.56,7.72q0,3.84-.3,7.65c-.21,2.54-.51,5.07-.94,7.6A52.46,52.46,0,0,1,1463.07,1525.81Z"/><path class="cls-36" d="M1469.21,1526.36a77.75,77.75,0,0,1,.38-9.61c.28-3.18.7-6.34,1.21-9.48s1.11-6.27,1.86-9.37a76.83,76.83,0,0,1,2.69-9.24,76.91,76.91,0,0,1-.38,9.61c-.28,3.18-.7,6.34-1.21,9.48s-1.12,6.27-1.86,9.37A77.71,77.71,0,0,1,1469.21,1526.36Z"/><path class="cls-36" d="M1477.81,1524.7a66.49,66.49,0,0,1,.81-8.85c.42-2.92,1-5.8,1.62-8.67s1.39-5.71,2.27-8.52a65.68,65.68,0,0,1,3.09-8.34,65.76,65.76,0,0,1-.8,8.85c-.42,2.92-1,5.8-1.62,8.67s-1.39,5.71-2.27,8.52A66.4,66.4,0,0,1,1477.81,1524.7Z"/><path class="cls-36" d="M1487.22,1532.41a52.91,52.91,0,0,1,1.13-7.69c.54-2.51,1.19-5,1.94-7.44s1.6-4.87,2.56-7.25a52.23,52.23,0,0,1,3.38-7,52.24,52.24,0,0,1-1.12,7.69q-.81,3.77-1.95,7.44t-2.56,7.25A52.93,52.93,0,0,1,1487.22,1532.41Z"/><path class="cls-36" d="M1726.76,1419.15a105.1,105.1,0,0,1-.14-11.2c.1-3.72.36-7.42.69-11.12s.77-7.38,1.35-11.06a104,104,0,0,1,2.19-11,104,104,0,0,1,.14,11.2c-.1,3.72-.36,7.42-.7,11.12s-.78,7.38-1.36,11.06A105,105,0,0,1,1726.76,1419.15Z"/><path class="cls-36" d="M1732.81,1420.26a110.31,110.31,0,0,1,.9-11.44c.21-1.9.52-3.77.78-5.66l.94-5.63c.67-3.74,1.47-7.47,2.37-11.17a109,109,0,0,1,3.2-11,109.12,109.12,0,0,1-.9,11.44c-.47,3.78-1,7.55-1.72,11.29l-1.1,5.6c-.42,1.86-.79,3.72-1.27,5.57A110.37,110.37,0,0,1,1732.81,1420.26Z"/><path class="cls-36" d="M1747.81,1416.93a101.64,101.64,0,0,1-1-11c-.17-3.66-.19-7.31-.13-11s.23-7.3.53-10.94a100.42,100.42,0,0,1,1.38-10.93,100.55,100.55,0,0,1,1,11c.17,3.65.19,7.31.12,11s-.23,7.3-.54,10.94A101.89,101.89,0,0,1,1747.81,1416.93Z"/><path class="cls-36" d="M1755.54,1416.37a56.68,56.68,0,0,1-.14-8.05c.12-2.66.36-5.31.7-7.94s.78-5.25,1.34-7.86a55.92,55.92,0,0,1,2.19-7.75,56.05,56.05,0,0,1,.15,8.05q-.19,4-.71,7.94c-.34,2.63-.79,5.25-1.35,7.86A56.67,56.67,0,0,1,1755.54,1416.37Z"/><path class="cls-36" d="M1770.28,1417.48c-.82-4-1.35-8-1.78-12-.24-2-.37-4-.56-6l-.39-6c-.21-4-.3-8-.29-12.08s.14-8.07.55-12.12c.83,4,1.36,8,1.78,12s.75,8,.94,12l.22,6c0,2,.09,4,.06,6C1770.82,1409.4,1770.7,1413.43,1770.28,1417.48Z"/><path class="cls-36" d="M1777.6,1416.93a65.85,65.85,0,0,1-1.58-8.54c-.36-2.85-.6-5.71-.73-8.58s-.17-5.73-.09-8.61a65,65,0,0,1,.77-8.65,65,65,0,0,1,1.59,8.54q.53,4.28.73,8.58c.13,2.86.17,5.73.09,8.61A65.86,65.86,0,0,1,1777.6,1416.93Z"/><path class="cls-36" d="M1786.82,1412.49a52.39,52.39,0,0,1-.56-7.72c0-2.56.09-5.11.29-7.65s.51-5.07.93-7.6a51.82,51.82,0,0,1,1.79-7.53,51.75,51.75,0,0,1,.56,7.72q0,3.84-.3,7.65c-.21,2.54-.51,5.07-.94,7.6A52.51,52.51,0,0,1,1786.82,1412.49Z"/><path class="cls-36" d="M1793,1413a77.75,77.75,0,0,1,.38-9.61c.28-3.18.7-6.34,1.21-9.48s1.11-6.27,1.86-9.37a76.8,76.8,0,0,1,2.69-9.24,76.9,76.9,0,0,1-.38,9.61c-.28,3.18-.7,6.34-1.21,9.48s-1.12,6.27-1.86,9.37A77.77,77.77,0,0,1,1793,1413Z"/><path class="cls-36" d="M1801.56,1411.38a66.47,66.47,0,0,1,.81-8.85c.42-2.92,1-5.8,1.62-8.67s1.39-5.71,2.27-8.52a65.68,65.68,0,0,1,3.09-8.34,65.68,65.68,0,0,1-.8,8.85c-.42,2.92-1,5.8-1.62,8.67s-1.39,5.71-2.27,8.52A66.4,66.4,0,0,1,1801.56,1411.38Z"/><path class="cls-36" d="M1811,1419.09a52.91,52.91,0,0,1,1.13-7.69c.54-2.51,1.19-5,1.94-7.44s1.6-4.87,2.56-7.25a52.26,52.26,0,0,1,3.38-7,52.24,52.24,0,0,1-1.12,7.69q-.81,3.77-1.95,7.44t-2.56,7.25A52.94,52.94,0,0,1,1811,1419.09Z"/><path class="cls-4" d="M1856.77,895c-31.13-12.45-62.26-3.74-62.26-3.74s10-32.38,54.79-12.45c0,0,10-46.07,58.53-24.9C1907.82,853.92,1874.2,857.66,1856.77,895Z"/><path class="cls-4" d="M3796.78,1302.94h-438a9.4,9.4,0,0,1-9.37-8.61h0a9.4,9.4,0,0,1,8-10.09l79.4-11.71a9.4,9.4,0,0,1,3.25.09l84.38,17.16a9.4,9.4,0,0,0,1.69.19l70,1.4a9.4,9.4,0,0,0,5.07-1.37l25.82-15.72a9.4,9.4,0,0,1,10.84.75l7.38,6a9.4,9.4,0,0,0,8.23,1.84l39.14-9.79a9.4,9.4,0,0,1,6.48.71l38.54,19.27a9.4,9.4,0,0,0,5.28.93l51.9-6Z"/></svg>