<?xml version="1.0" encoding="UTF-8" standalone="no"?>
<svg
   xmlns:dc="http://purl.org/dc/elements/1.1/"
   xmlns:cc="http://creativecommons.org/ns#"
   xmlns:rdf="http://www.w3.org/1999/02/22-rdf-syntax-ns#"
   xmlns:svg="http://www.w3.org/2000/svg"
   xmlns="http://www.w3.org/2000/svg"
   viewBox="0 0 4752.8799 7768.5068"
   height="7768.5068"
   width="4752.8799"
   xml:space="preserve"
   id="svg2"
   version="1.1"><metadata
     id="metadata8"><rdf:RDF><cc:Work
         rdf:about=""><dc:format>image/svg+xml</dc:format><dc:type
           rdf:resource="http://purl.org/dc/dcmitype/StillImage" /></cc:Work></rdf:RDF></metadata><defs
     id="defs6"><clipPath
       id="clipPath22"
       clipPathUnits="userSpaceOnUse"><path
         id="path20"
         d="m 8972.19,14667.2 h -628.8 c -7.85,-4.5 -1731.54,-424.2 -1614.57,-1009.4 20.36,-101.9 171.32,-136.6 192.06,-238.4 11.73,-57.5 -21.58,-117 -68.95,-151.7 -47.36,-34.6 -106.4,-48.8 -164.25,-58.7 -227.42,-38.5 -462.03,-20.7 -688.31,-65.4 -126.91,-25 -268.78,-90.1 -293.55,-217.1 -31.65,-162.1 149.92,-324.3 84.91,-476.2 -39.9,-93.1 -153.44,-127.5 -254.12,-138.9 -200.4,-22.8 -402.72,0.9 -604.2,9.8 -201.5,8.9 -409.51,1.7 -594.62,-78.3 -185.1,-80.1 -343.93,-246.9 -364,-447.5 -6.24,-62.4 1.51,-127.7 32.68,-182 54.5,-95 166.74,-138.1 271.24,-170.9 1029.15,-322.5 3615.94,-309.1 4694.48,-291.2 z" /></clipPath><linearGradient
       id="linearGradient30"
       spreadMethod="pad"
       gradientTransform="matrix(572.53056,-1243.4637,-1243.4637,-572.53056,6276.2553,13601.994)"
       gradientUnits="userSpaceOnUse"
       y2="0"
       x2="1"
       y1="0"
       x1="0"><stop
         id="stop24"
         offset="0"
         style="stop-opacity:1;stop-color:#c9edf4" /><stop
         id="stop26"
         offset="0.994898"
         style="stop-opacity:1;stop-color:#ade4f3" /><stop
         id="stop28"
         offset="1"
         style="stop-opacity:1;stop-color:#ade4f3" /></linearGradient><clipPath
       id="clipPath40"
       clipPathUnits="userSpaceOnUse"><path
         id="path38"
         d="m 2933.04,13311.8 c 77.01,162 199.98,280.9 336.33,325.2 136.38,44.3 284.69,13.5 405.66,-84.3 52.61,-42.5 100.6,-97.4 157.52,-127.4 131.27,-69.1 275.86,6.3 413.92,41.9 126.58,32.6 257.78,30.7 383.83,-5.6 90.61,-26.2 193.33,-93.5 204.96,-220.6 H 2929.77 Z" /></clipPath><linearGradient
       id="linearGradient48"
       spreadMethod="pad"
       gradientTransform="matrix(2.5175917e-8,-459.12816,-459.12816,-2.5175917e-8,3882.5292,13673.015)"
       gradientUnits="userSpaceOnUse"
       y2="0"
       x2="1"
       y1="0"
       x1="0"><stop
         id="stop42"
         offset="0"
         style="stop-opacity:1;stop-color:#c9edf4" /><stop
         id="stop44"
         offset="0.994898"
         style="stop-opacity:1;stop-color:#ade4f3" /><stop
         id="stop46"
         offset="1"
         style="stop-opacity:1;stop-color:#ade4f3" /></linearGradient><clipPath
       id="clipPath58"
       clipPathUnits="userSpaceOnUse"><path
         id="path56"
         d="m 0,14155.7 c 1596.79,0 2174.06,-450.3 2244.68,-516.5 65.3,-61.2 133.41,-136.8 113.87,-224.1 -23.49,-105 -145.99,-175.7 -143.67,-283.2 1.35,-62.7 48.5,-117.3 104.66,-145.3 56.17,-28.1 120.37,-34.4 182.97,-39 456.51,-33.3 918.92,2.6 1369.9,-75.8 149.92,-26 316.26,-79.1 381.21,-216.8 34.72,-73.5 33.31,-158.3 51.92,-237.5 22.25,-94.7 74.46,-182.1 147.27,-246.6 63.62,-56.4 141.72,-95.1 202.52,-154.5 60.8,-59.4 102.69,-152 67.8,-229.5 -27.62,-61.4 -93.96,-94.6 -156.88,-118.5 -480.88,-183.4 -1016.22,-104 -1529.56,-140.7 C 2511.58,11490 519.43,11328.5 0,11375.3 Z" /></clipPath><linearGradient
       id="linearGradient66"
       spreadMethod="pad"
       gradientTransform="matrix(-387.51275,-1156.8409,1156.8409,-387.51275,2502.7505,13391.674)"
       gradientUnits="userSpaceOnUse"
       y2="0"
       x2="1"
       y1="0"
       x1="0"><stop
         id="stop60"
         offset="0"
         style="stop-opacity:1;stop-color:#c9edf4" /><stop
         id="stop62"
         offset="0.994898"
         style="stop-opacity:1;stop-color:#ade4f3" /><stop
         id="stop64"
         offset="1"
         style="stop-opacity:1;stop-color:#ade4f3" /></linearGradient></defs><g
     transform="matrix(1.3333333,0,0,-1.3333333,0,7768.5067)"
     id="g10"><g
       transform="scale(0.397205)"
       id="g12"><path
         id="path14"
         style="fill:#ade4f3;fill-opacity:1;fill-rule:nonzero;stroke:none"
         d="M 1.67188,0 H 8974.3519 V 14668.4 H 1.67188 Z" /><g
         id="g16"><g
           clip-path="url(#clipPath22)"
           id="g18"><path
             id="path32"
             style="fill:url(#linearGradient30);fill-opacity:1;fill-rule:nonzero;stroke:none"
             d="m 8972.19,14667.2 h -628.8 c -7.85,-4.5 -1731.54,-424.2 -1614.57,-1009.4 20.36,-101.9 171.32,-136.6 192.06,-238.4 11.73,-57.5 -21.58,-117 -68.95,-151.7 -47.36,-34.6 -106.4,-48.8 -164.25,-58.7 -227.42,-38.5 -462.03,-20.7 -688.31,-65.4 -126.91,-25 -268.78,-90.1 -293.55,-217.1 -31.65,-162.1 149.92,-324.3 84.91,-476.2 -39.9,-93.1 -153.44,-127.5 -254.12,-138.9 -200.4,-22.8 -402.72,0.9 -604.2,9.8 -201.5,8.9 -409.51,1.7 -594.62,-78.3 -185.1,-80.1 -343.93,-246.9 -364,-447.5 -6.24,-62.4 1.51,-127.7 32.68,-182 54.5,-95 166.74,-138.1 271.24,-170.9 1029.15,-322.5 3615.94,-309.1 4694.48,-291.2 v 3515.9" /></g></g><g
         id="g34"><g
           clip-path="url(#clipPath40)"
           id="g36"><path
             id="path50"
             style="fill:url(#linearGradient48);fill-opacity:1;fill-rule:nonzero;stroke:none"
             d="m 2933.04,13311.8 c 77.01,162 199.98,280.9 336.33,325.2 136.38,44.3 284.69,13.5 405.66,-84.3 52.61,-42.5 100.6,-97.4 157.52,-127.4 131.27,-69.1 275.86,6.3 413.92,41.9 126.58,32.6 257.78,30.7 383.83,-5.6 90.61,-26.2 193.33,-93.5 204.96,-220.6 H 2929.77 l 3.27,70.8" /></g></g><g
         id="g52"><g
           clip-path="url(#clipPath58)"
           id="g54"><path
             id="path68"
             style="fill:url(#linearGradient66);fill-opacity:1;fill-rule:nonzero;stroke:none"
             d="m 0,14155.7 c 1596.79,0 2174.06,-450.3 2244.68,-516.5 65.3,-61.2 133.41,-136.8 113.87,-224.1 -23.49,-105 -145.99,-175.7 -143.67,-283.2 1.35,-62.7 48.5,-117.3 104.66,-145.3 56.17,-28.1 120.37,-34.4 182.97,-39 456.51,-33.3 918.92,2.6 1369.9,-75.8 149.92,-26 316.26,-79.1 381.21,-216.8 34.72,-73.5 33.31,-158.3 51.92,-237.5 22.25,-94.7 74.46,-182.1 147.27,-246.6 63.62,-56.4 141.72,-95.1 202.52,-154.5 60.8,-59.4 102.69,-152 67.8,-229.5 -27.62,-61.4 -93.96,-94.6 -156.88,-118.5 -480.88,-183.4 -1016.22,-104 -1529.56,-140.7 C 2511.58,11490 519.43,11328.5 0,11375.3 v 2780.4" /></g></g><path
         id="path70"
         style="fill:#ffffff;fill-opacity:1;fill-rule:nonzero;stroke:none"
         d="m 6042.47,13710.7 c 0,-160.3 -129.91,-290.2 -290.18,-290.2 -160.27,0 -290.2,129.9 -290.2,290.2 0,160.3 129.93,290.2 290.2,290.2 160.27,0 290.18,-129.9 290.18,-290.2" /></g></g></svg>