<svg xmlns="http://www.w3.org/2000/svg" xmlns:xlink="http://www.w3.org/1999/xlink" viewBox="0 0 4000 2500"><defs><style>.cls-1{fill:#7ca5b3;}.cls-2{isolation:isolate;}.cls-3{fill:#a7def1;}.cls-4{fill:url(#linear-gradient);}.cls-5{fill:url(#linear-gradient-2);}.cls-6{fill:url(#linear-gradient-3);}.cls-7{fill:#fff;}.cls-8{fill:#78a1ac;}.cls-9{fill:#9accdd;}.cls-10{fill:#daa162;}.cls-11{fill:#aacec6;}.cls-12{fill:#d0edf7;}.cls-13{fill:#e4f4fb;}.cls-14{fill:url(#linear-gradient-4);}.cls-15{fill:#9ccfdf;}.cls-16{fill:#7ca4b0;}.cls-17{fill:#b6dae6;}.cls-18{fill:#87b1c1;}.cls-19{fill:#e0f3fc;}.cls-20{fill:#bae1ef;}.cls-21{fill:#96c7d6;}.cls-22{fill:#bae5f1;}.cls-23{fill:#8bb7c7;}.cls-24{clip-path:url(#clip-path);}.cls-25{fill:#eff9fd;}.cls-26{fill:#6f95a0;}.cls-27{fill:url(#linear-gradient-5);}.cls-28{fill:#abdced;}.cls-29{fill:#b8dad0;}.cls-30{fill:#85b2ae;}.cls-31,.cls-33{font-size:38.11px;font-family:Dude-Hank, Dude;letter-spacing:0.2em;}.cls-31{fill:#9cc4bc;}.cls-32{letter-spacing:0.2em;}.cls-33{fill:#92c1d2;}.cls-34{letter-spacing:0.19em;}.cls-35{letter-spacing:0.18em;}.cls-36{letter-spacing:0.2em;}.cls-37{mix-blend-mode:color;}.cls-38{fill:#aadff1;}.cls-39{fill:url(#New_Gradient_Swatch_copy);}.cls-40{fill:none;stroke:#fff;stroke-miterlimit:10;stroke-width:30px;}</style><linearGradient id="linear-gradient" x1="2831.82" y1="646.33" x2="3074.77" y2="1173.98" gradientUnits="userSpaceOnUse"><stop offset="0" stop-color="#c5e9f3"/><stop offset="0.99" stop-color="#a7def1"/></linearGradient><linearGradient id="linear-gradient-2" x1="1759.49" y1="673.49" x2="1759.49" y2="855.86" xlink:href="#linear-gradient"/><linearGradient id="linear-gradient-3" x1="8443.69" y1="755.62" x2="8606.49" y2="1241.63" gradientTransform="matrix(-1, 0, 0, 1, 9544.66, 0)" xlink:href="#linear-gradient"/><linearGradient id="linear-gradient-4" x1="2168.77" y1="1185.15" x2="2304.06" y2="1185.15" gradientUnits="userSpaceOnUse"><stop offset="0" stop-color="#6f95a0"/><stop offset="1" stop-color="#9accdd"/></linearGradient><clipPath id="clip-path"><path class="cls-1" d="M1448.2,1460.13H1121a18.73,18.73,0,0,1-18.73-18.73h0a18.73,18.73,0,0,1,11.37-17.23l38.68-16.52,12.84-12.45a11,11,0,0,1,7.64-3.09H1448.2Z"/></clipPath><linearGradient id="linear-gradient-5" x1="1862.63" y1="1518.63" x2="1862.63" y2="1169.35" gradientUnits="userSpaceOnUse"><stop offset="0" stop-color="#6f95a0"/><stop offset="1" stop-color="#7ca4b0"/></linearGradient><linearGradient id="New_Gradient_Swatch_copy" x1="2000" y1="2770.32" x2="2000" y2="1928.25" gradientUnits="userSpaceOnUse"><stop offset="0" stop-color="#121a3c"/><stop offset="1" stop-color="#1d3658"/></linearGradient></defs><title>v copy 6</title><g class="cls-2"><g id="BACKGROUND"><rect class="cls-3" width="4000" height="2500"/><path class="cls-4" d="M4000,115.3c-3.13,1.79-1170.77,280-1109.94,564.22,8.64,40.35,68,54.25,76.29,94.68,4.66,22.84-8.58,46.49-27.39,60.25s-42.26,19.42-65.24,23.32c-90.32,15.32-183.51,8.26-273.39,26-50.42,9.95-106.76,35.79-116.61,86.23-12.57,64.4,59.55,128.81,33.73,189.14-15.84,37-60.94,50.65-100.94,55.2-79.6,9.06-160-.37-240-3.91s-162.66-.68-236.18,31.13-136.61,98-144.59,177.74c-2.48,24.76.6,50.7,13,72.28,21.65,37.73,66.23,54.86,107.74,67.87,408.77,128.1,1655.13,122.79,2083.53,115.66Z"/><path class="cls-5" d="M1382.35,817c30.59-64.36,79.43-111.59,133.59-129.17s113.07-5.34,161.13,33.49c20.9,16.89,40,38.67,62.57,50.59,52.14,27.48,109.56-2.51,164.41-16.63a288.23,288.23,0,0,1,152.46,2.25c36,10.37,76.79,37.11,81.41,87.62H1381.06Z"/><path class="cls-6" d="M0,411.77c634.25,0,1080.88,248.83,1108.93,275.13,25.94,24.31,53,54.35,45.23,89-9.33,41.69-58,69.75-57.07,112.46.54,24.93,19.26,46.61,41.57,57.74s47.81,13.65,72.68,15.46c181.33,13.23,365-1,544.13,30.1,59.56,10.35,125.63,31.45,151.43,86.12,13.78,29.21,13.23,62.9,20.62,94.34a190,190,0,0,0,58.5,98c25.27,22.39,56.29,37.78,80.44,61.37s40.78,60.35,26.93,91.13c-11,24.39-37.32,37.57-62.31,47.09-191,72.82-403.65,41.28-607.55,55.88C1214.95,1540.57,206.32,1604.74,0,1586.16Z"/><circle class="cls-7" cx="2452.91" cy="722.05" r="115.27"/><rect class="cls-8" x="2362.46" y="1330.81" width="203.32" height="287.24"/><rect class="cls-8" x="2653.38" y="1108.02" width="136.63" height="404.92"/><rect class="cls-8" x="2776.74" y="1281.09" width="136.63" height="404.92"/><path class="cls-9" d="M3103.57,1281.09a29.35,29.35,0,0,0-20.3,8.12,43.27,43.27,0,0,0-80.16,31.63c-1.18-.1-2.37-.16-3.58-.16a43.1,43.1,0,0,0-28.75,10.95,43.27,43.27,0,1,0-85.12,14.1c-1.32-.12-2.66-.19-4-.19a43.16,43.16,0,0,0-32.61,14.85,28.23,28.23,0,0,0-49.47,14.75,43.17,43.17,0,0,0-53.47,52.75,43.17,43.17,0,1,0-3.27,81.76,43.14,43.14,0,0,0,42.19,15.67,43.17,43.17,0,0,0,52.94-3.95,43.14,43.14,0,0,0,54.15,3.1,43.17,43.17,0,1,0,79.27-32.85,43.16,43.16,0,0,0,8.48-70.24,43.13,43.13,0,0,0,3.07-16c0-.5,0-1,0-1.48a43.27,43.27,0,0,0,58.18-52.07c1.18.1,2.37.16,3.58.16a43.24,43.24,0,0,0,37.33-21.39,29.46,29.46,0,1,0,21.59-49.49Z"/><rect class="cls-8" x="2333" y="1131.95" width="127.05" height="287.24"/><rect class="cls-8" x="2720.12" y="1017.79" width="2.76" height="103.11"/><rect class="cls-8" x="1217.08" y="1337.71" width="362.38" height="115.44"/><circle class="cls-8" cx="1257.24" cy="1321.14" r="41.43"/><circle class="cls-8" cx="1309.7" cy="1350.9" r="31.92"/><circle class="cls-8" cx="1356.65" cy="1325.13" r="31.92"/><circle class="cls-8" cx="1415.75" cy="1328.59" r="45.95"/><circle class="cls-8" cx="1486.64" cy="1353.45" r="45.95"/><circle class="cls-10" cx="1564.53" cy="1358.97" r="45.95"/><polygon class="cls-8" points="2666.27 1597.79 2552.11 1597.79 2552.11 1068.12 2571.99 1028.84 2646.38 1028.84 2666.27 1067.51 2666.27 1597.79"/><rect class="cls-8" x="2491.35" y="1225.86" width="127.05" height="287.24"/><rect class="cls-8" x="2373.97" y="1015.95" width="2.76" height="50.63"/><rect class="cls-8" x="1608" y="1054.62" width="2.76" height="50.63"/><circle class="cls-11" cx="3618.2" cy="1398.01" r="43.27"/><circle class="cls-11" cx="3479.14" cy="1444.05" r="43.27"/><path class="cls-9" d="M3948.6,1348.47a39.74,39.74,0,0,0-70.34,24.23,30.74,30.74,0,0,0-25.36,4,60.73,60.73,0,0,0-100.48-4.9,29.45,29.45,0,0,0-38.81-1.16,43.31,43.31,0,0,0-52.19-23.19,29.46,29.46,0,0,0-41.87-25,43.26,43.26,0,0,0-78.57,22,43.27,43.27,0,0,0-35.75,8.93,43.27,43.27,0,1,0-53.66,61v228.48H4000V1320.08A60.69,60.69,0,0,0,3948.6,1348.47Z"/><rect class="cls-8" x="1633.78" y="1040.81" width="2.76" height="50.63"/><rect class="cls-12" x="2121.71" y="916.53" width="2.76" height="129.81"/><rect class="cls-8" x="2387.78" y="1028.84" width="2.76" height="50.63"/><polygon class="cls-8" points="1526.34 1332.27 1410.47 1332.27 1410.47 1058.62 1526.34 1010.07 1526.34 1332.27"/><rect class="cls-8" x="1498.3" y="1182.32" width="138.51" height="273.1"/><rect class="cls-8" x="1571.54" y="1096.71" width="127.4" height="199.2"/><rect class="cls-8" x="1593.09" y="1080.69" width="84.31" height="131.82"/><rect class="cls-12" x="2052.99" y="1029.63" width="95.56" height="231.75"/><rect class="cls-7" x="2033.13" y="1052.04" width="135.29" height="434.36"/><polygon class="cls-13" points="2344.5 1051.46 2344.5 1070.74 2324.1 1070.74 2324.1 1089.3 2288.45 1089.3 2288.45 1486.39 2414.34 1486.39 2414.34 1474.81 2414.34 1342.31 2414.34 1089.3 2414.34 1070.74 2414.34 1051.46 2344.5 1051.46"/><path class="cls-14" d="M2304.06,1486.4V920A36.05,36.05,0,0,0,2268,883.91h-99.23V1486.4Z"/><rect class="cls-15" x="1977.71" y="1208.83" width="55.24" height="84.81"/><path class="cls-16" d="M2066,1045.11h-7.37v-8.59H2066Zm-22.61,14.12h-5.67v8.59h5.67Zm10.13,0h-5.67v8.59h5.67Zm10.13,0h-5.67v8.59h5.67Zm10.13,0h-5.67v8.59h5.67Zm10.13,0h-5.67v8.59h5.67Zm10.13,0h-5.67v8.59H2094Zm10.13,0h-5.67v8.59h5.67Zm10.13,0h-5.67v8.59h5.67Zm10.13,0h-5.67v8.59h5.67Zm10.13,0h-5.67v8.59h5.67Zm10.13,0H2139v8.59h5.67Zm10.13,0h-5.67v8.59h5.67Zm10.13,0h-5.67v8.59h5.67Zm-121.52,12.89h-5.67v8.59h5.67Zm10.13,0h-5.67v8.59h5.67Zm10.13,0h-5.67v8.59h5.67Zm10.13,0h-5.67v8.59h5.67Zm10.13,0h-5.67v8.59h5.67Zm10.13,0h-5.67v8.59H2094Zm10.13,0h-5.67v8.59h5.67Zm10.13,0h-5.67v8.59h5.67Zm10.13,0h-5.67v8.59h5.67Zm10.13,0h-5.67v8.59h5.67Zm10.13,0H2139v8.59h5.67Zm10.13,0h-5.67v8.59h5.67Zm10.13,0h-5.67v8.59h5.67ZM2043.36,1085h-5.67v8.59h5.67Zm10.13,0h-5.67v8.59h5.67Zm10.13,0h-5.67v8.59h5.67Zm10.13,0h-5.67v8.59h5.67Zm10.13,0h-5.67v8.59h5.67Zm10.13,0h-5.67v8.59H2094Zm10.13,0h-5.67v8.59h5.67Zm10.13,0h-5.67v8.59h5.67Zm10.13,0h-5.67v8.59h5.67Zm10.13,0h-5.67v8.59h5.67Zm10.13,0H2139v8.59h5.67Zm10.13,0h-5.67v8.59h5.67Zm10.13,0h-5.67v8.59h5.67Zm-121.52,12.89h-5.67v8.59h5.67Zm10.13,0h-5.67v8.59h5.67Zm10.13,0h-5.67v8.59h5.67Zm10.13,0h-5.67v8.59h5.67Zm10.13,0h-5.67v8.59h5.67Zm10.13,0h-5.67v8.59H2094Zm10.13,0h-5.67v8.59h5.67Zm10.13,0h-5.67v8.59h5.67Zm10.13,0h-5.67v8.59h5.67Zm10.13,0h-5.67v8.59h5.67Zm10.13,0H2139v8.59h5.67Zm10.13,0h-5.67v8.59h5.67Zm10.13,0h-5.67v8.59h5.67Zm-121.52,12.89h-5.67v8.59h5.67Zm10.13,0h-5.67v8.59h5.67Zm10.13,0h-5.67v8.59h5.67Zm10.13,0h-5.67v8.59h5.67Zm10.13,0h-5.67v8.59h5.67Zm10.13,0h-5.67v8.59H2094Zm10.13,0h-5.67v8.59h5.67Zm10.13,0h-5.67v8.59h5.67Zm10.13,0h-5.67v8.59h5.67Zm10.13,0h-5.67v8.59h5.67Zm10.13,0H2139v8.59h5.67Zm10.13,0h-5.67v8.59h5.67Zm10.13,0h-5.67v8.59h5.67Zm-121.52,12.89h-5.67v8.59h5.67Zm10.13,0h-5.67v8.59h5.67Zm10.13,0h-5.67v8.59h5.67Zm10.13,0h-5.67v8.59h5.67Zm10.13,0h-5.67v8.59h5.67Zm10.13,0h-5.67v8.59H2094Zm10.13,0h-5.67v8.59h5.67Zm10.13,0h-5.67v8.59h5.67Zm10.13,0h-5.67v8.59h5.67Zm10.13,0h-5.67v8.59h5.67Zm10.13,0H2139v8.59h5.67Zm10.13,0h-5.67v8.59h5.67Zm10.13,0h-5.67v8.59h5.67Zm-121.52,12.89h-5.67v8.59h5.67Zm10.13,0h-5.67v8.59h5.67Zm10.13,0h-5.67v8.59h5.67Zm10.13,0h-5.67v8.59h5.67Zm10.13,0h-5.67v8.59h5.67Zm10.13,0h-5.67v8.59H2094Zm10.13,0h-5.67v8.59h5.67Zm10.13,0h-5.67v8.59h5.67Zm10.13,0h-5.67v8.59h5.67Zm10.13,0h-5.67v8.59h5.67Zm10.13,0H2139v8.59h5.67Zm10.13,0h-5.67v8.59h5.67Zm10.13,0h-5.67v8.59h5.67Zm-121.52,12.89h-5.67V1158h5.67Zm10.13,0h-5.67V1158h5.67Zm10.13,0h-5.67V1158h5.67Zm10.13,0h-5.67V1158h5.67Zm10.13,0h-5.67V1158h5.67Zm10.13,0h-5.67V1158H2094Zm10.13,0h-5.67V1158h5.67Zm10.13,0h-5.67V1158h5.67Zm10.13,0h-5.67V1158h5.67Zm10.13,0h-5.67V1158h5.67Zm10.13,0H2139V1158h5.67Zm10.13,0h-5.67V1158h5.67Zm10.13,0h-5.67V1158h5.67Zm-121.52,12.89h-5.67v8.59h5.67Zm10.13,0h-5.67v8.59h5.67Zm10.13,0h-5.67v8.59h5.67Zm10.13,0h-5.67v8.59h5.67Zm10.13,0h-5.67v8.59h5.67Zm10.13,0h-5.67v8.59H2094Zm10.13,0h-5.67v8.59h5.67Zm10.13,0h-5.67v8.59h5.67Zm10.13,0h-5.67v8.59h5.67Zm10.13,0h-5.67v8.59h5.67Zm10.13,0H2139v8.59h5.67Zm10.13,0h-5.67v8.59h5.67Zm10.13,0h-5.67v8.59h5.67Zm-121.52,12.89h-5.67v8.59h5.67Zm10.13,0h-5.67v8.59h5.67Zm10.13,0h-5.67v8.59h5.67Zm10.13,0h-5.67v8.59h5.67Zm10.13,0h-5.67v8.59h5.67Zm10.13,0h-5.67v8.59H2094Zm10.13,0h-5.67v8.59h5.67Zm10.13,0h-5.67v8.59h5.67Zm10.13,0h-5.67v8.59h5.67Zm10.13,0h-5.67v8.59h5.67Zm10.13,0H2139v8.59h5.67Zm10.13,0h-5.67v8.59h5.67Zm10.13,0h-5.67v8.59h5.67Zm-121.52,12.89h-5.67v8.59h5.67Zm10.13,0h-5.67v8.59h5.67Zm10.13,0h-5.67v8.59h5.67Zm10.13,0h-5.67v8.59h5.67Zm10.13,0h-5.67v8.59h5.67Zm10.13,0h-5.67v8.59H2094Zm10.13,0h-5.67v8.59h5.67Zm10.13,0h-5.67v8.59h5.67Zm10.13,0h-5.67v8.59h5.67Zm10.13,0h-5.67v8.59h5.67Zm10.13,0H2139v8.59h5.67Zm10.13,0h-5.67v8.59h5.67Zm10.13,0h-5.67v8.59h5.67ZM2043.36,1201h-5.67v8.59h5.67Zm10.13,0h-5.67v8.59h5.67Zm10.13,0h-5.67v8.59h5.67Zm10.13,0h-5.67v8.59h5.67Zm10.13,0h-5.67v8.59h5.67Zm10.13,0h-5.67v8.59H2094Zm10.13,0h-5.67v8.59h5.67Zm10.13,0h-5.67v8.59h5.67Zm10.13,0h-5.67v8.59h5.67Zm10.13,0h-5.67v8.59h5.67Zm10.13,0H2139v8.59h5.67Zm10.13,0h-5.67v8.59h5.67Zm10.13,0h-5.67v8.59h5.67Zm-121.52,12.89h-5.67v8.59h5.67Zm10.13,0h-5.67v8.59h5.67Zm10.13,0h-5.67v8.59h5.67Zm10.13,0h-5.67v8.59h5.67Zm10.13,0h-5.67v8.59h5.67Zm10.13,0h-5.67v8.59H2094Zm10.13,0h-5.67v8.59h5.67Zm10.13,0h-5.67v8.59h5.67Zm10.13,0h-5.67v8.59h5.67Zm10.13,0h-5.67v8.59h5.67Zm10.13,0H2139v8.59h5.67Zm10.13,0h-5.67v8.59h5.67Zm10.13,0h-5.67v8.59h5.67Zm-121.52,12.89h-5.67v8.59h5.67Zm10.13,0h-5.67v8.59h5.67Zm10.13,0h-5.67v8.59h5.67Zm10.13,0h-5.67v8.59h5.67Zm10.13,0h-5.67v8.59h5.67Zm10.13,0h-5.67v8.59H2094Zm10.13,0h-5.67v8.59h5.67Zm10.13,0h-5.67v8.59h5.67Zm10.13,0h-5.67v8.59h5.67Zm10.13,0h-5.67v8.59h5.67Zm10.13,0H2139v8.59h5.67Zm10.13,0h-5.67v8.59h5.67Zm10.13,0h-5.67v8.59h5.67Zm-121.52,12.89h-5.67v8.59h5.67Zm10.13,0h-5.67v8.59h5.67Zm10.13,0h-5.67v8.59h5.67Zm10.13,0h-5.67v8.59h5.67Zm10.13,0h-5.67v8.59h5.67Zm10.13,0h-5.67v8.59H2094Zm10.13,0h-5.67v8.59h5.67Zm10.13,0h-5.67v8.59h5.67Zm10.13,0h-5.67v8.59h5.67Zm10.13,0h-5.67v8.59h5.67Zm10.13,0H2139v8.59h5.67Zm10.13,0h-5.67v8.59h5.67Zm10.13,0h-5.67v8.59h5.67Zm-121.52,12.89h-5.67v8.59h5.67Zm10.13,0h-5.67v8.59h5.67Zm10.13,0h-5.67v8.59h5.67Zm10.13,0h-5.67v8.59h5.67Zm10.13,0h-5.67v8.59h5.67Zm10.13,0h-5.67v8.59H2094Zm10.13,0h-5.67v8.59h5.67Zm10.13,0h-5.67v8.59h5.67Zm10.13,0h-5.67v8.59h5.67Zm10.13,0h-5.67v8.59h5.67Zm10.13,0H2139v8.59h5.67Zm10.13,0h-5.67v8.59h5.67Zm10.13,0h-5.67v8.59h5.67Zm-121.52,12.89h-5.67V1274h5.67Zm10.13,0h-5.67V1274h5.67Zm10.13,0h-5.67V1274h5.67Zm10.13,0h-5.67V1274h5.67Zm10.13,0h-5.67V1274h5.67Zm10.13,0h-5.67V1274H2094Zm10.13,0h-5.67V1274h5.67Zm10.13,0h-5.67V1274h5.67Zm10.13,0h-5.67V1274h5.67Zm10.13,0h-5.67V1274h5.67Zm10.13,0H2139V1274h5.67Zm10.13,0h-5.67V1274h5.67Zm10.13,0h-5.67V1274h5.67Zm-121.52,12.89h-5.67v8.59h5.67Zm10.13,0h-5.67v8.59h5.67Zm10.13,0h-5.67v8.59h5.67Zm10.13,0h-5.67v8.59h5.67Zm10.13,0h-5.67v8.59h5.67Zm10.13,0h-5.67v8.59H2094Zm10.13,0h-5.67v8.59h5.67Zm10.13,0h-5.67v8.59h5.67Zm10.13,0h-5.67v8.59h5.67Zm10.13,0h-5.67v8.59h5.67Zm10.13,0H2139v8.59h5.67Zm10.13,0h-5.67v8.59h5.67Zm10.13,0h-5.67v8.59h5.67Zm-121.52,12.89h-5.67v8.59h5.67Zm10.13,0h-5.67v8.59h5.67Zm10.13,0h-5.67v8.59h5.67Zm10.13,0h-5.67v8.59h5.67Zm10.13,0h-5.67v8.59h5.67Zm10.13,0h-5.67v8.59H2094Zm10.13,0h-5.67v8.59h5.67Zm10.13,0h-5.67v8.59h5.67Zm10.13,0h-5.67v8.59h5.67Zm10.13,0h-5.67v8.59h5.67Zm10.13,0H2139v8.59h5.67Zm10.13,0h-5.67v8.59h5.67Zm10.13,0h-5.67v8.59h5.67Zm-121.52,12.89h-5.67v8.59h5.67Zm10.13,0h-5.67v8.59h5.67Zm10.13,0h-5.67v8.59h5.67Zm10.13,0h-5.67v8.59h5.67Zm10.13,0h-5.67v8.59h5.67Zm10.13,0h-5.67v8.59H2094Zm10.13,0h-5.67v8.59h5.67Zm10.13,0h-5.67v8.59h5.67Zm10.13,0h-5.67v8.59h5.67Zm10.13,0h-5.67v8.59h5.67Zm10.13,0H2139v8.59h5.67Zm10.13,0h-5.67v8.59h5.67Zm10.13,0h-5.67v8.59h5.67ZM2043.36,1317h-5.67v8.59h5.67Zm10.13,0h-5.67v8.59h5.67Zm10.13,0h-5.67v8.59h5.67Zm10.13,0h-5.67v8.59h5.67Zm10.13,0h-5.67v8.59h5.67Zm10.13,0h-5.67v8.59H2094Zm10.13,0h-5.67v8.59h5.67Zm10.13,0h-5.67v8.59h5.67Zm10.13,0h-5.67v8.59h5.67Zm10.13,0h-5.67v8.59h5.67Zm10.13,0H2139v8.59h5.67Zm10.13,0h-5.67v8.59h5.67Zm10.13,0h-5.67v8.59h5.67Zm-101.27,12.89h-5.67v8.59h5.67Zm10.13,0h-5.67v8.59h5.67Zm10.13,0h-5.67v8.59h5.67Zm10.13,0h-5.67v8.59H2094Zm10.13,0h-5.67v8.59h5.67Zm10.13,0h-5.67v8.59h5.67Zm10.13,0h-5.67v8.59h5.67Zm10.13,0h-5.67v8.59h5.67Zm10.13,0H2139v8.59h5.67Zm10.13,0h-5.67v8.59h5.67Zm10.13,0h-5.67v8.59h5.67Zm-101.27,12.89h-5.67v8.59h5.67Zm10.13,0h-5.67v8.59h5.67Zm10.13,0h-5.67v8.59h5.67Zm10.13,0h-5.67v8.59H2094Zm10.13,0h-5.67v8.59h5.67Zm10.13,0h-5.67v8.59h5.67Zm10.13,0h-5.67v8.59h5.67Zm10.13,0h-5.67v8.59h5.67Zm10.13,0H2139v8.59h5.67Zm10.13,0h-5.67v8.59h5.67Zm10.13,0h-5.67v8.59h5.67Zm-101.27,12.89h-5.67v8.59h5.67Zm10.13,0h-5.67v8.59h5.67Zm10.13,0h-5.67v8.59h5.67Zm10.13,0h-5.67v8.59H2094Zm10.13,0h-5.67v8.59h5.67Zm10.13,0h-5.67v8.59h5.67Zm10.13,0h-5.67v8.59h5.67Zm10.13,0h-5.67v8.59h5.67Zm10.13,0H2139v8.59h5.67Zm10.13,0h-5.67v8.59h5.67Zm10.13,0h-5.67v8.59h5.67Zm-101.27,12.89h-5.67v8.59h5.67Zm10.13,0h-5.67v8.59h5.67Zm10.13,0h-5.67v8.59h5.67Zm10.13,0h-5.67v8.59H2094Zm10.13,0h-5.67v8.59h5.67Zm10.13,0h-5.67v8.59h5.67Zm10.13,0h-5.67v8.59h5.67Zm10.13,0h-5.67v8.59h5.67Zm10.13,0H2139v8.59h5.67Zm10.13,0h-5.67v8.59h5.67Zm10.13,0h-5.67v8.59h5.67Zm-101.27,12.89h-5.67V1390h5.67Zm10.13,0h-5.67V1390h5.67Zm10.13,0h-5.67V1390h5.67Zm10.13,0h-5.67V1390H2094Zm10.13,0h-5.67V1390h5.67Zm10.13,0h-5.67V1390h5.67Zm10.13,0h-5.67V1390h5.67Zm10.13,0h-5.67V1390h5.67Zm10.13,0H2139V1390h5.67Zm10.13,0h-5.67V1390h5.67Zm10.13,0h-5.67V1390h5.67Zm-101.27,12.89h-5.67v8.59h5.67Zm10.13,0h-5.67v8.59h5.67Zm10.13,0h-5.67v8.59h5.67Zm10.13,0h-5.67v8.59H2094Zm10.13,0h-5.67v8.59h5.67Zm10.13,0h-5.67v8.59h5.67Zm10.13,0h-5.67v8.59h5.67Zm10.13,0h-5.67v8.59h5.67Zm10.13,0H2139v8.59h5.67Zm10.13,0h-5.67v8.59h5.67Zm10.13,0h-5.67v8.59h5.67Zm-101.27,12.89h-5.67v8.59h5.67Zm10.13,0h-5.67v8.59h5.67Zm10.13,0h-5.67v8.59h5.67Zm10.13,0h-5.67v8.59H2094Zm10.13,0h-5.67v8.59h5.67Zm10.13,0h-5.67v8.59h5.67Zm10.13,0h-5.67v8.59h5.67Zm10.13,0h-5.67v8.59h5.67Zm10.13,0H2139v8.59h5.67Zm10.13,0h-5.67v8.59h5.67Zm10.13,0h-5.67v8.59h5.67Zm-101.27,12.89h-5.67v8.59h5.67Zm10.13,0h-5.67v8.59h5.67Zm10.13,0h-5.67v8.59h5.67Zm10.13,0h-5.67v8.59H2094Zm10.13,0h-5.67v8.59h5.67Zm10.13,0h-5.67v8.59h5.67Zm10.13,0h-5.67v8.59h5.67Zm10.13,0h-5.67v8.59h5.67Zm10.13,0H2139v8.59h5.67Zm10.13,0h-5.67v8.59h5.67Zm10.13,0h-5.67v8.59h5.67ZM2063.61,1433h-5.67v8.59h5.67Zm10.13,0h-5.67v8.59h5.67Zm10.13,0h-5.67v8.59h5.67Zm10.13,0h-5.67v8.59H2094Zm10.13,0h-5.67v8.59h5.67Zm10.13,0h-5.67v8.59h5.67Zm10.13,0h-5.67v8.59h5.67Zm10.13,0h-5.67v8.59h5.67Zm10.13,0H2139v8.59h5.67Zm10.13,0h-5.67v8.59h5.67Zm10.13,0h-5.67v8.59h5.67Zm-101.27,12.89h-5.67v8.59h5.67Zm10.13,0h-5.67v8.59h5.67Zm10.13,0h-5.67v8.59h5.67Zm10.13,0h-5.67v8.59H2094Zm10.13,0h-5.67v8.59h5.67Zm10.13,0h-5.67v8.59h5.67Zm10.13,0h-5.67v8.59h5.67Zm10.13,0h-5.67v8.59h5.67Zm10.13,0H2139v8.59h5.67Zm10.13,0h-5.67v8.59h5.67Zm10.13,0h-5.67v8.59h5.67Zm-101.27,12.89h-5.67v8.59h5.67Zm10.13,0h-5.67v8.59h5.67Zm10.13,0h-5.67v8.59h5.67Zm10.13,0h-5.67v8.59H2094Zm10.13,0h-5.67v8.59h5.67Zm10.13,0h-5.67v8.59h5.67Zm10.13,0h-5.67v8.59h5.67Zm10.13,0h-5.67v8.59h5.67Zm10.13,0H2139v8.59h5.67Zm10.13,0h-5.67v8.59h5.67Zm10.13,0h-5.67v8.59h5.67Zm-101.27,12.89h-5.67v8.59h5.67Zm10.13,0h-5.67v8.59h5.67Zm10.13,0h-5.67v8.59h5.67Zm10.13,0h-5.67v8.59H2094Zm10.13,0h-5.67v8.59h5.67Zm10.13,0h-5.67v8.59h5.67Zm10.13,0h-5.67v8.59h5.67Zm10.13,0h-5.67v8.59h5.67Zm10.13,0H2139v8.59h5.67Zm10.13,0h-5.67v8.59h5.67Zm10.13,0h-5.67v8.59h5.67Zm-101.27,12.89h-5.67v8.59h5.67Zm10.13,0h-5.67v8.59h5.67Zm10.13,0h-5.67v8.59h5.67Zm10.13,0h-5.67v8.59H2094Zm10.13,0h-5.67v8.59h5.67Zm10.13,0h-5.67v8.59h5.67Zm10.13,0h-5.67v8.59h5.67Zm10.13,0h-5.67v8.59h5.67Zm10.13,0H2139v8.59h5.67Zm10.13,0h-5.67v8.59h5.67Zm10.13,0h-5.67v8.59h5.67Zm-101.27,12.89h-5.67V1506h5.67Zm10.13,0h-5.67V1506h5.67Zm10.13,0h-5.67V1506h5.67Zm10.13,0h-5.67V1506H2094Zm10.13,0h-5.67V1506h5.67Zm10.13,0h-5.67V1506h5.67Zm10.13,0h-5.67V1506h5.67Zm10.13,0h-5.67V1506h5.67Zm10.13,0H2139V1506h5.67Zm10.13,0h-5.67V1506h5.67Zm10.13,0h-5.67V1506h5.67Zm-86-460.93h-7.37v8.59h7.37Zm12.89,0h-7.37v8.59h7.37Zm12.89,0h-7.37v8.59h7.37Zm12.89,0h-7.37v8.59h7.37Zm12.89,0H2123v8.59h7.37Zm12.89,0h-7.37v8.59h7.37Z"/><rect class="cls-17" x="1956.31" y="1225.69" width="98.05" height="260.7"/><rect class="cls-16" x="2010.32" y="1233.22" width="1.84" height="236.14"/><rect class="cls-16" x="2016.76" y="1233.22" width="1.84" height="236.14"/><rect class="cls-16" x="2023.21" y="1233.22" width="1.84" height="236.14"/><rect class="cls-16" x="2029.65" y="1233.22" width="1.84" height="236.14"/><rect class="cls-16" x="2036.1" y="1233.22" width="1.84" height="236.14"/><rect class="cls-16" x="2042.54" y="1233.22" width="1.84" height="236.14"/><rect class="cls-16" x="2048.99" y="1233.22" width="1.84" height="236.14"/><rect class="cls-18" x="1956.31" y="1225.69" width="48.33" height="260.7"/><rect class="cls-1" x="962.18" y="1045.87" width="2.76" height="59.38"/><rect class="cls-1" x="983.82" y="1057.38" width="2.76" height="59.38"/><rect class="cls-1" x="381.26" y="1045.87" width="2.76" height="59.38"/><rect class="cls-1" x="402.9" y="1057.38" width="2.76" height="59.38"/><rect class="cls-1" x="1111.38" y="1030.32" width="2.76" height="77.33"/><polygon class="cls-1" points="1229.46 1123.67 1254.32 1123.67 1230.38 1376.84 1229.46 1123.67"/><polygon class="cls-19" points="1189.9 1725.64 0 1725.64 0 1449.58 299.26 1447.82 298.35 1098.63 1189.9 1098.63 1189.9 1725.64"/><rect class="cls-7" x="903.26" y="1098.63" width="327.96" height="627.01"/><rect class="cls-1" x="1005.58" y="1098.46" width="120.31" height="345.98"/><rect class="cls-7" x="1025.36" y="1130.58" width="81.7" height="170.75"/><rect class="cls-19" x="1036.19" y="1156.38" width="60.04" height="122.42"/><rect class="cls-8" x="919.96" y="1117.73" width="5.48" height="142.42"/><rect class="cls-8" x="930.65" y="1117.73" width="5.48" height="142.42"/><rect class="cls-8" x="941.34" y="1117.73" width="5.48" height="142.42"/><rect class="cls-8" x="952.03" y="1117.73" width="5.48" height="142.42"/><rect class="cls-8" x="962.72" y="1117.73" width="5.48" height="142.42"/><rect class="cls-8" x="973.41" y="1117.73" width="5.48" height="142.42"/><rect class="cls-8" x="984.1" y="1117.73" width="5.48" height="142.42"/><rect class="cls-19" x="800.15" y="1444.97" width="835.49" height="158.35"/><rect class="cls-19" x="975.18" y="1274.66" width="109.56" height="170.75"/><rect class="cls-19" x="1113.27" y="1329.94" width="50.38" height="113.72"/><rect class="cls-7" x="1031.15" y="1274.66" width="97.78" height="170.47"/><rect class="cls-19" x="1043.78" y="1288.05" width="73.44" height="157.67"/><rect class="cls-20" x="1054.9" y="1377.37" width="51.77" height="68.35"/><rect class="cls-1" x="846.51" y="1373.75" width="4.6" height="71.29"/><path class="cls-21" d="M848.75,1373.57,839,1402.92S828.61,1381.62,848.75,1373.57Z"/><path class="cls-1" d="M848.75,1373.57,825,1393.39S827.38,1369.83,848.75,1373.57Z"/><path class="cls-21" d="M848.63,1373.72l-30.89,1.85S833.65,1358,848.63,1373.72Z"/><path class="cls-1" d="M848.32,1373.66l9.79,29.36S868.47,1381.72,848.32,1373.66Z"/><path class="cls-22" d="M848.26,1373.56l27.59,14S868.26,1365.14,848.26,1373.56Z"/><path class="cls-21" d="M848.2,1373.54l29.44-9.54S856.43,1353.46,848.2,1373.54Z"/><path class="cls-22" d="M848.36,1373.56l-21.92-21.84S850.13,1351.93,848.36,1373.56Z"/><path class="cls-1" d="M888.53,1445.5c-2.76-67.52,18.6-98.14,19.51-99.41l3,2.15-1.5-1.07,1.5,1.07c-.22.3-21.52,31-18.82,97.11Z"/><path class="cls-21" d="M909.81,1347.26,891.19,1372S888.15,1348.49,909.81,1347.26Z"/><path class="cls-22" d="M909.92,1347.26l-27.55,14.08S889.9,1338.89,909.92,1347.26Z"/><path class="cls-21" d="M909.76,1347.38l-30.53-5S898.63,1328.76,909.76,1347.38Z"/><path class="cls-1" d="M909.47,1347.25l3,30.79S927.34,1359.57,909.47,1347.25Z"/><path class="cls-22" d="M909.39,1347.11,936.5,1362S929.65,1339.35,909.39,1347.11Z"/><path class="cls-22" d="M909.34,1347.39l28-13.27S914.9,1326.42,909.34,1347.39Z"/><path class="cls-21" d="M909.56,1347.13l-19.53-24S913.56,1325.8,909.56,1347.13Z"/><rect class="cls-23" x="1557.66" y="1351.66" width="4.6" height="93.64"/><path class="cls-23" d="M1559.91,1351.47l-9.79,29.36S1539.76,1359.53,1559.91,1351.47Z"/><path class="cls-23" d="M1559.91,1351.47l-23.76,19.83S1538.53,1347.74,1559.91,1351.47Z"/><path class="cls-23" d="M1559.78,1351.63l-30.89,1.85S1544.81,1335.93,1559.78,1351.63Z"/><path class="cls-23" d="M1559.47,1351.57l9.79,29.36S1579.62,1359.63,1559.47,1351.57Z"/><path class="cls-23" d="M1559.41,1351.47l27.59,14S1579.41,1343,1559.41,1351.47Z"/><path class="cls-23" d="M1559.35,1351.44l29.44-9.54S1567.58,1331.36,1559.35,1351.44Z"/><path class="cls-23" d="M1559.52,1351.47l-21.92-21.84S1561.28,1329.84,1559.52,1351.47Z"/><rect class="cls-7" x="800.15" y="1518.16" width="417.91" height="2.76"/><rect class="cls-7" x="740.93" y="1544.32" width="166.4" height="2.76" transform="translate(-904.52 1828.78) rotate(-71.23)"/><rect class="cls-7" x="764.86" y="1557.6" width="193.95" height="2.76" transform="translate(-889.07 1886.84) rotate(-71.67)"/><rect class="cls-7" x="806.29" y="1557.6" width="193.95" height="2.76" transform="translate(-860.67 1926.16) rotate(-71.67)"/><rect class="cls-7" x="847.72" y="1557.6" width="193.95" height="2.76" transform="translate(-832.27 1965.49) rotate(-71.67)"/><rect class="cls-7" x="889.14" y="1557.6" width="193.95" height="2.76" transform="translate(-803.87 2004.82) rotate(-71.67)"/><rect class="cls-7" x="930.57" y="1557.6" width="193.95" height="2.76" transform="translate(-775.47 2044.14) rotate(-71.67)"/><rect class="cls-7" x="972" y="1557.6" width="193.95" height="2.76" transform="translate(-747.07 2083.47) rotate(-71.67)"/><rect class="cls-7" x="1013.43" y="1557.6" width="193.95" height="2.76" transform="translate(-718.67 2122.8) rotate(-71.67)"/><rect class="cls-7" x="468.11" y="1518.16" width="417.91" height="2.76"/><rect class="cls-7" x="408.89" y="1544.32" width="166.4" height="2.76" transform="translate(-1129.75 1514.39) rotate(-71.23)"/><rect class="cls-7" x="432.82" y="1557.6" width="193.95" height="2.76" transform="translate(-1116.7 1571.64) rotate(-71.67)"/><path class="cls-18" d="M535.12,1571.73c.09-.83.15-1.67.16-2.52a25.55,25.55,0,0,0-37.56-22.87,34.29,34.29,0,0,0-62.15-25.64,46.33,46.33,0,0,0-24.05-.67,25.54,25.54,0,0,0-41-7.9,46.27,46.27,0,0,0-65.38,13.4,34.29,34.29,0,0,0-37.15-11.1A53.46,53.46,0,0,0,165,1517.91a31.85,31.85,0,0,0-13.67,6.32,34.3,34.3,0,0,0-40.3-4.06,25.55,25.55,0,0,0-48.5,6.38A25.55,25.55,0,0,0,33.4,1533,34.3,34.3,0,0,0,0,1504.25v136.39H220.29a25.45,25.45,0,0,0,17.16,6.92c12.38.16,22.81,1.48,25.3-10.18,5.1,2,10.65-6.82,16.47-6.75,15.73.2,64.44,8.27,84.45,8.52,21,.27,39.26,18.4,48.22.93a46.4,46.4,0,0,0,9.83,1.18c.52,0,1,0,1.54,0,4.91,24.08,26,12.35,51.63,12.67a53.38,53.38,0,0,0,15.78-2.16,46.27,46.27,0,1,0,44.45-80Z"/><rect class="cls-7" x="474.25" y="1557.6" width="193.95" height="2.76" transform="translate(-1088.3 1610.97) rotate(-71.67)"/><rect class="cls-7" x="515.68" y="1557.6" width="193.95" height="2.76" transform="translate(-1059.9 1650.29) rotate(-71.67)"/><rect class="cls-7" x="557.1" y="1557.6" width="193.95" height="2.76" transform="translate(-1031.5 1689.62) rotate(-71.67)"/><rect class="cls-7" x="598.53" y="1557.6" width="193.95" height="2.76" transform="translate(-1003.1 1728.95) rotate(-71.67)"/><rect class="cls-7" x="639.96" y="1557.6" width="193.95" height="2.76" transform="translate(-974.7 1768.27) rotate(-71.67)"/><rect class="cls-7" x="681.39" y="1557.6" width="193.95" height="2.76" transform="translate(-946.3 1807.6) rotate(-71.67)"/><rect class="cls-8" x="919.83" y="1117.25" width="37.52" height="57.16"/><rect class="cls-7" x="922.59" y="1120.44" width="3.07" height="3.07" rx="1.53" ry="1.53"/><rect class="cls-7" x="929.79" y="1120.44" width="3.07" height="3.07" rx="1.53" ry="1.53"/><rect class="cls-7" x="936.99" y="1120.44" width="3.07" height="3.07" rx="1.53" ry="1.53"/><rect class="cls-7" x="944.19" y="1120.44" width="3.07" height="3.07" rx="1.53" ry="1.53"/><rect class="cls-7" x="951.39" y="1120.44" width="3.07" height="3.07" rx="1.53" ry="1.53"/><rect class="cls-7" x="926.11" y="1126.12" width="3.07" height="3.07" rx="1.53" ry="1.53"/><rect class="cls-7" x="933.31" y="1126.12" width="3.07" height="3.07" rx="1.53" ry="1.53"/><rect class="cls-7" x="940.51" y="1126.12" width="3.07" height="3.07" rx="1.53" ry="1.53"/><rect class="cls-7" x="947.71" y="1126.12" width="3.07" height="3.07" rx="1.53" ry="1.53"/><rect class="cls-7" x="922.59" y="1132.26" width="3.07" height="3.07" rx="1.53" ry="1.53"/><rect class="cls-7" x="929.79" y="1132.26" width="3.07" height="3.07" rx="1.53" ry="1.53"/><rect class="cls-7" x="936.99" y="1132.26" width="3.07" height="3.07" rx="1.53" ry="1.53"/><rect class="cls-7" x="944.19" y="1132.26" width="3.07" height="3.07" rx="1.53" ry="1.53"/><rect class="cls-7" x="951.39" y="1132.26" width="3.07" height="3.07" rx="1.53" ry="1.53"/><rect class="cls-7" x="926.11" y="1137.94" width="3.07" height="3.07" rx="1.53" ry="1.53"/><rect class="cls-7" x="933.31" y="1137.94" width="3.07" height="3.07" rx="1.53" ry="1.53"/><rect class="cls-7" x="940.51" y="1137.94" width="3.07" height="3.07" rx="1.53" ry="1.53"/><rect class="cls-7" x="947.71" y="1137.94" width="3.07" height="3.07" rx="1.53" ry="1.53"/><rect class="cls-7" x="922.59" y="1144.07" width="3.07" height="3.07" rx="1.53" ry="1.53"/><rect class="cls-7" x="929.79" y="1144.07" width="3.07" height="3.07" rx="1.53" ry="1.53"/><rect class="cls-7" x="936.99" y="1144.07" width="3.07" height="3.07" rx="1.53" ry="1.53"/><rect class="cls-7" x="944.19" y="1144.07" width="3.07" height="3.07" rx="1.53" ry="1.53"/><rect class="cls-7" x="951.39" y="1144.07" width="3.07" height="3.07" rx="1.53" ry="1.53"/><rect class="cls-7" x="926.11" y="1149.75" width="3.07" height="3.07" rx="1.53" ry="1.53"/><rect class="cls-7" x="933.31" y="1149.75" width="3.07" height="3.07" rx="1.53" ry="1.53"/><rect class="cls-7" x="940.51" y="1149.75" width="3.07" height="3.07" rx="1.53" ry="1.53"/><rect class="cls-7" x="947.71" y="1149.75" width="3.07" height="3.07" rx="1.53" ry="1.53"/><rect class="cls-7" x="922.59" y="1155.89" width="3.07" height="3.07" rx="1.53" ry="1.53"/><rect class="cls-7" x="929.79" y="1155.89" width="3.07" height="3.07" rx="1.53" ry="1.53"/><rect class="cls-7" x="936.99" y="1155.89" width="3.07" height="3.07" rx="1.53" ry="1.53"/><rect class="cls-7" x="944.19" y="1155.89" width="3.07" height="3.07" rx="1.53" ry="1.53"/><rect class="cls-7" x="951.39" y="1155.89" width="3.07" height="3.07" rx="1.53" ry="1.53"/><rect class="cls-7" x="922.59" y="1167.55" width="3.07" height="3.07" rx="1.53" ry="1.53"/><rect class="cls-7" x="929.79" y="1167.55" width="3.07" height="3.07" rx="1.53" ry="1.53"/><rect class="cls-7" x="936.99" y="1167.55" width="3.07" height="3.07" rx="1.53" ry="1.53"/><rect class="cls-7" x="944.19" y="1167.55" width="3.07" height="3.07" rx="1.53" ry="1.53"/><rect class="cls-7" x="951.39" y="1167.55" width="3.07" height="3.07" rx="1.53" ry="1.53"/><rect class="cls-7" x="926.11" y="1161.57" width="3.07" height="3.07" rx="1.53" ry="1.53"/><rect class="cls-7" x="933.31" y="1161.57" width="3.07" height="3.07" rx="1.53" ry="1.53"/><rect class="cls-7" x="940.51" y="1161.57" width="3.07" height="3.07" rx="1.53" ry="1.53"/><rect class="cls-7" x="947.71" y="1161.57" width="3.07" height="3.07" rx="1.53" ry="1.53"/><circle class="cls-8" cx="1177.61" cy="1178.98" r="33.14"/><path class="cls-18" d="M1187.3,1196.44a19.38,19.38,0,0,1-2.31-.14,32.19,32.19,0,0,1-24.47-19.82c-1.63-4.79-1.19-9.07,1.23-12.06s6.53-4.31,11.54-3.71a32.19,32.19,0,0,1,24.47,19.82c1.63,4.79,1.19,9.07-1.23,12.06C1194.49,1195.11,1191.26,1196.44,1187.3,1196.44Zm-16.31-35c-3.68,0-6.66,1.21-8.52,3.51-2.22,2.74-2.6,6.71-1.08,11.19a31.28,31.28,0,0,0,23.7,19.21c4.7.56,8.5-.64,10.72-3.37s2.6-6.71,1.08-11.19a31.28,31.28,0,0,0-23.7-19.21A18.45,18.45,0,0,0,1171,1161.49Z"/><path class="cls-7" d="M1149.21,1171.57h3.92l5.24,7.81h0v-7.81h3.23v14.73h-3.16l-6-8.34h0v8.34h-3.23Z"/><path class="cls-7" d="M1168.28,1171.57h4.54l5,14.73h-4.38l-.88-2.81h-5l-1,2.81h-3.33Zm.23,8.88h3.14l-1.48-4.81h0Z"/><path class="cls-7" d="M1188.21,1175.64a3.77,3.77,0,0,0-3.08-1.31c-1.05,0-1.77.37-1.77,1.05,0,2.38,8.09.27,8.09,6.27,0,2.44-1.95,4.91-6.25,4.91-2.63,0-4.95-.62-6.51-2.86l2.53-2a4.67,4.67,0,0,0,3.7,1.79c1.66,0,2.32-.64,2.32-1.29,0-2.24-8-.53-8-6.1,0-2.88,2.4-4.85,5.92-4.85a6.69,6.69,0,0,1,5.47,2.32Z"/><path class="cls-7" d="M1197.5,1171.57H1202l5,14.73h-4.38l-.88-2.81h-5l-1,2.81h-3.33Zm.23,8.88h3.14l-1.48-4.81h0Z"/><circle class="cls-18" cx="1185.28" cy="1154.66" r="1.53"/><circle class="cls-18" cx="1194.49" cy="1163.25" r="1.53"/><circle class="cls-18" cx="1161.96" cy="1195.48" r="1.53"/><circle class="cls-18" cx="1153.44" cy="1193.4" r="1.53"/><circle class="cls-18" cx="1166.56" cy="1200.77" r="1.53"/><circle class="cls-18" cx="1184.67" cy="1204.99" r="1.53"/><rect class="cls-7" x="1043.5" y="1299.81" width="73.65" height="1.84"/><rect class="cls-7" x="1043.5" y="1313.32" width="73.65" height="1.84"/><polygon class="cls-23" points="1428.59 1448.98 1415.17 1448.98 1415.17 1273.53 1419.91 1260.73 1423.72 1260.73 1428.59 1273.53 1428.59 1448.98"/><path class="cls-23" d="M1423.75,1287.15h-3.86v-43.73q0-.28,0-.56l1.58-11.51c.12-.87.56-.86.67,0l1.57,11.51q0,.28,0,.56Z"/><rect class="cls-7" x="1043.5" y="1326.82" width="73.65" height="1.84"/><rect class="cls-7" x="1043.5" y="1340.32" width="73.65" height="1.84"/><rect class="cls-7" x="1043.5" y="1353.82" width="73.65" height="1.84"/><path class="cls-23" d="M1543.35,1438.58c-31.17,0-31.17,5.92-62.35,5.92s-31.17-5.92-62.34-5.92-31.17,5.92-62.34,5.92-31.17-5.92-62.34-5.92-31.17,5.92-62.34,5.92-31.17-5.92-62.34-5.92-31.17,5.92-62.34,5.92-31.17-5.92-62.34-5.92-31.17,5.92-62.34,5.92-31.17-5.92-62.34-5.92-31.17,5.92-62.34,5.92c-29.28,0-31.06-5.22-57-5.86V1450H1605.7v-5.51C1574.53,1444.5,1574.53,1438.58,1543.35,1438.58Z"/><rect class="cls-1" x="274.8" y="1373.75" width="4.6" height="71.29"/><path class="cls-21" d="M277,1373.57l-9.79,29.36S256.9,1381.62,277,1373.57Z"/><path class="cls-1" d="M277,1373.57l-23.76,19.83S255.67,1369.83,277,1373.57Z"/><path class="cls-21" d="M276.92,1373.72,246,1375.57S261.94,1358,276.92,1373.72Z"/><path class="cls-1" d="M276.61,1373.66,286.4,1403S296.76,1381.72,276.61,1373.66Z"/><path class="cls-22" d="M276.55,1373.56l27.59,14S296.55,1365.14,276.55,1373.56Z"/><path class="cls-21" d="M276.49,1373.54l29.44-9.54S284.72,1353.46,276.49,1373.54Z"/><path class="cls-22" d="M276.65,1373.56l-21.92-21.84S278.42,1351.93,276.65,1373.56Z"/><rect class="cls-7" x="1043.5" y="1367.33" width="73.65" height="1.84"/><path class="cls-7" d="M1292,1216.54v-27.06l-5.74-15.88a1.3,1.3,0,0,0-2.44,0l-5.8,15.88v27.05l-8,22.71v156h30.37v-156Z"/><path class="cls-19" d="M1284.57,1172.84a1.26,1.26,0,0,0-.75.75l-5.8,15.88v27.05l-8,22.71v156h14.59Z"/><path class="cls-7" d="M1396.87,1357.68v-80.61l-9.35-55.08v-41.66l-6.44-16.36a1.51,1.51,0,0,0-2.74,0l-6.5,16.36V1222l-9,55.11v80.61l-6.91,36.06h48.18Z"/><polygon class="cls-23" points="1339.94 1413.68 1318.16 1413.68 1318.16 1269.31 1323.99 1246.35 1333.89 1246.35 1339.94 1269.31 1339.94 1413.68"/><rect class="cls-23" x="1321" y="1227.06" width="15.31" height="19.67" rx="4.44" ry="4.44"/><rect class="cls-23" x="1326.94" y="1206.06" width="3.68" height="25.43"/><polygon class="cls-1" points="1465.02 1434.8 1445.77 1427.81 1445.77 1458.18 1465.02 1450.72 1465.02 1434.8"/><polygon class="cls-1" points="1465.02 1434.8 1465.02 1439.23 1465.02 1446.28 1465.02 1450.72 1503.29 1458.92 1503.29 1446.28 1503.29 1439.23 1503.29 1426.6 1465.02 1434.8"/><path class="cls-1" d="M1448.2,1460.13H1121a18.73,18.73,0,0,1-18.73-18.73h0a18.73,18.73,0,0,1,11.37-17.23l38.68-16.52,12.84-12.45a11,11,0,0,1,7.64-3.09H1448.2Z"/><g class="cls-24"><path class="cls-25" d="M1448.2,1460.13H1121a18.73,18.73,0,0,1-18.73-18.73h0a18.73,18.73,0,0,1,11.37-17.23l38.68-16.52,12.84-12.45a11,11,0,0,1,7.64-3.09H1448.2Z"/><rect class="cls-1" x="1150.34" y="1399.39" width="25.27" height="7.77"/><polygon class="cls-1" points="1095.43 1424.17 1173.66 1424.17 1173.66 1467.41 1086.2 1467.41 1095.43 1424.17"/><polygon class="cls-1" points="1149.1 1450.41 1451.6 1450.41 1451.6 1493.65 1113.41 1493.65 1149.1 1450.41"/></g><polygon class="cls-1" points="1465.02 1397.39 1465.02 1401.82 1465.02 1408.87 1465.02 1413.3 1503.29 1421.51 1503.29 1408.87 1503.29 1401.82 1503.29 1389.18 1465.02 1397.39"/><polygon class="cls-25" points="1407.38 1392.1 1478.32 1307.55 1503.59 1307.55 1483.67 1385.78 1445.28 1385.78 1407.38 1392.1"/><path class="cls-1" d="M1273.43,1455.94l150.25-30.31a13,13,0,0,1,15.93,12.65v17.17Z"/><circle class="cls-1" cx="1169.58" cy="1480.36" r="5.52"/><circle class="cls-1" cx="1368.18" cy="1480.36" r="7.63"/><rect class="cls-1" x="1366.8" y="1451.36" width="2.76" height="29"/><rect class="cls-1" x="1168.4" y="1451.36" width="2.76" height="29"/><rect class="cls-1" x="1316.76" y="1426.35" width="16" height="9.96"/><rect class="cls-1" x="1174.85" y="1416.83" width="264.22" height="2.76"/><path class="cls-7" d="M1424.12,1377h47.4a0,0,0,0,1,0,0v43.25a0,0,0,0,1,0,0h-47.4a21.59,21.59,0,0,1-21.59-21.59v-.06a21.59,21.59,0,0,1,21.59-21.59Z"/><rect class="cls-23" x="1269.98" y="1238.78" width="30.37" height="0.92"/><rect class="cls-23" x="1275.2" y="1222.33" width="19.64" height="0.92"/><path class="cls-23" d="M1286.82,1253.52v-7.44h1.06l2.37,3.77a20.86,20.86,0,0,1,1.33,2.42h0c-.09-1-.11-1.9-.11-3.06v-3.11h.91v7.44h-1l-2.36-3.78a21.68,21.68,0,0,1-1.38-2.48h0c.05.94.07,1.83.07,3.07v3.18Z"/><path class="cls-23" d="M1288.28,1262.22l-.77,2.34h-1l2.54-7.44h1.15l2.54,7.44h-1l-.79-2.34Zm2.45-.75-.74-2.14c-.17-.49-.28-.93-.39-1.36h0c-.11.43-.22.89-.37,1.35l-.73,2.15Z"/><path class="cls-23" d="M1287.61,1274.44a3.26,3.26,0,0,0,1.71.49c1,0,1.56-.52,1.56-1.27s-.4-1.09-1.4-1.47c-1.21-.44-2-1.08-2-2.12a2.14,2.14,0,0,1,2.41-2,3.34,3.34,0,0,1,1.63.36l-.27.78a2.76,2.76,0,0,0-1.4-.35c-1,0-1.4.61-1.4,1.12,0,.7.45,1,1.48,1.44,1.26.49,1.89,1.09,1.89,2.19s-.84,2.15-2.59,2.15a3.84,3.84,0,0,1-1.9-.49Z"/><path class="cls-23" d="M1288.28,1284.32l-.77,2.34h-1l2.54-7.44h1.15l2.54,7.44h-1l-.79-2.34Zm2.45-.75-.74-2.14c-.17-.49-.28-.93-.39-1.36h0c-.11.43-.22.89-.37,1.35l-.73,2.15Z"/><rect class="cls-19" x="1371.55" y="1179.83" width="15.96" height="41.03"/><rect class="cls-19" x="1362.92" y="1276.69" width="34.01" height="80.78"/><rect class="cls-23" x="1371.55" y="1187.61" width="15.96" height="2.73"/><rect class="cls-23" x="1366.11" y="1254.63" width="27.85" height="0.92"/><polygon class="cls-23" points="1825.39 1488.31 1825.39 1221.71 1771.54 1145.76 1654.71 1145.76 1600.86 1221.71 1600.86 1488.31 1825.39 1488.31"/><polygon class="cls-1" points="1766.07 1489.94 1766.07 1223.35 1712.22 1147.4 1654.22 1147.4 1600.37 1223.35 1600.37 1489.94 1766.07 1489.94"/><rect class="cls-26" x="1600.92" y="1222.72" width="83.62" height="264.78"/><rect class="cls-26" x="1688.84" y="1222.72" width="4.87" height="9.32"/><rect class="cls-26" x="1698.04" y="1222.72" width="4.87" height="9.32"/><rect class="cls-26" x="1707.25" y="1222.72" width="4.87" height="9.32"/><rect class="cls-26" x="1716.46" y="1222.72" width="4.87" height="9.32"/><rect class="cls-26" x="1725.66" y="1222.72" width="4.87" height="9.32"/><rect class="cls-26" x="1734.87" y="1222.72" width="4.87" height="9.32"/><rect class="cls-26" x="1744.08" y="1222.72" width="4.87" height="9.32"/><rect class="cls-26" x="1753.28" y="1222.72" width="4.87" height="9.32"/><rect class="cls-26" x="1688.84" y="1236.07" width="4.87" height="9.32"/><rect class="cls-26" x="1698.04" y="1236.07" width="4.87" height="9.32"/><rect class="cls-26" x="1707.25" y="1236.07" width="4.87" height="9.32"/><rect class="cls-26" x="1716.46" y="1236.07" width="4.87" height="9.32"/><rect class="cls-26" x="1725.66" y="1236.07" width="4.87" height="9.32"/><rect class="cls-26" x="1734.87" y="1236.07" width="4.87" height="9.32"/><rect class="cls-26" x="1744.08" y="1236.07" width="4.87" height="9.32"/><rect class="cls-26" x="1753.28" y="1236.07" width="4.87" height="9.32"/><rect class="cls-26" x="1688.84" y="1249.42" width="4.87" height="9.32"/><rect class="cls-26" x="1698.04" y="1249.42" width="4.87" height="9.32"/><rect class="cls-26" x="1707.25" y="1249.42" width="4.87" height="9.32"/><rect class="cls-26" x="1716.46" y="1249.42" width="4.87" height="9.32"/><rect class="cls-26" x="1725.66" y="1249.42" width="4.87" height="9.32"/><rect class="cls-26" x="1734.87" y="1249.42" width="4.87" height="9.32"/><rect class="cls-26" x="1744.08" y="1249.42" width="4.87" height="9.32"/><rect class="cls-26" x="1753.28" y="1249.42" width="4.87" height="9.32"/><rect class="cls-26" x="1688.84" y="1262.77" width="4.87" height="9.32"/><rect class="cls-26" x="1698.04" y="1262.77" width="4.87" height="9.32"/><rect class="cls-26" x="1707.25" y="1262.77" width="4.87" height="9.32"/><rect class="cls-26" x="1716.46" y="1262.77" width="4.87" height="9.32"/><rect class="cls-26" x="1725.66" y="1262.77" width="4.87" height="9.32"/><rect class="cls-26" x="1734.87" y="1262.77" width="4.87" height="9.32"/><rect class="cls-26" x="1744.08" y="1262.77" width="4.87" height="9.32"/><rect class="cls-26" x="1753.28" y="1262.77" width="4.87" height="9.32"/><rect class="cls-26" x="1688.84" y="1276.12" width="4.87" height="9.32"/><rect class="cls-26" x="1698.04" y="1276.12" width="4.87" height="9.32"/><rect class="cls-26" x="1707.25" y="1276.12" width="4.87" height="9.32"/><rect class="cls-26" x="1716.46" y="1276.12" width="4.87" height="9.32"/><rect class="cls-26" x="1725.66" y="1276.12" width="4.87" height="9.32"/><rect class="cls-26" x="1734.87" y="1276.12" width="4.87" height="9.32"/><rect class="cls-26" x="1744.08" y="1276.12" width="4.87" height="9.32"/><rect class="cls-26" x="1753.28" y="1276.12" width="4.87" height="9.32"/><rect class="cls-26" x="1688.84" y="1289.47" width="4.87" height="9.32"/><rect class="cls-26" x="1698.04" y="1289.47" width="4.87" height="9.32"/><rect class="cls-26" x="1707.25" y="1289.47" width="4.87" height="9.32"/><rect class="cls-26" x="1716.46" y="1289.47" width="4.87" height="9.32"/><rect class="cls-26" x="1725.66" y="1289.47" width="4.87" height="9.32"/><rect class="cls-26" x="1734.87" y="1289.47" width="4.87" height="9.32"/><rect class="cls-26" x="1744.08" y="1289.47" width="4.87" height="9.32"/><rect class="cls-26" x="1753.28" y="1289.47" width="4.87" height="9.32"/><rect class="cls-26" x="1688.84" y="1302.82" width="4.87" height="9.32"/><rect class="cls-26" x="1698.04" y="1302.82" width="4.87" height="9.32"/><rect class="cls-26" x="1707.25" y="1302.82" width="4.87" height="9.32"/><rect class="cls-26" x="1716.46" y="1302.82" width="4.87" height="9.32"/><rect class="cls-26" x="1725.66" y="1302.82" width="4.87" height="9.32"/><rect class="cls-26" x="1734.87" y="1302.82" width="4.87" height="9.32"/><rect class="cls-26" x="1744.08" y="1302.82" width="4.87" height="9.32"/><rect class="cls-26" x="1753.28" y="1302.82" width="4.87" height="9.32"/><rect class="cls-26" x="1688.84" y="1316.17" width="4.87" height="9.32"/><rect class="cls-26" x="1698.04" y="1316.17" width="4.87" height="9.32"/><rect class="cls-26" x="1707.25" y="1316.17" width="4.87" height="9.32"/><rect class="cls-26" x="1716.46" y="1316.17" width="4.87" height="9.32"/><rect class="cls-26" x="1725.66" y="1316.17" width="4.87" height="9.32"/><rect class="cls-26" x="1734.87" y="1316.17" width="4.87" height="9.32"/><rect class="cls-26" x="1744.08" y="1316.17" width="4.87" height="9.32"/><rect class="cls-26" x="1753.28" y="1316.17" width="4.87" height="9.32"/><rect class="cls-26" x="1688.84" y="1329.36" width="4.87" height="9.32"/><rect class="cls-26" x="1698.04" y="1329.36" width="4.87" height="9.32"/><rect class="cls-26" x="1707.25" y="1329.36" width="4.87" height="9.32"/><rect class="cls-26" x="1716.46" y="1329.36" width="4.87" height="9.32"/><rect class="cls-26" x="1725.66" y="1329.36" width="4.87" height="9.32"/><rect class="cls-26" x="1734.87" y="1329.36" width="4.87" height="9.32"/><rect class="cls-26" x="1744.08" y="1329.36" width="4.87" height="9.32"/><rect class="cls-26" x="1753.28" y="1329.36" width="4.87" height="9.32"/><rect class="cls-26" x="1688.84" y="1342.56" width="4.87" height="9.32"/><rect class="cls-26" x="1698.04" y="1342.56" width="4.87" height="9.32"/><rect class="cls-26" x="1707.25" y="1342.56" width="4.87" height="9.32"/><rect class="cls-26" x="1716.46" y="1342.56" width="4.87" height="9.32"/><rect class="cls-26" x="1725.66" y="1342.56" width="4.87" height="9.32"/><rect class="cls-26" x="1734.87" y="1342.56" width="4.87" height="9.32"/><rect class="cls-26" x="1744.08" y="1342.56" width="4.87" height="9.32"/><rect class="cls-26" x="1753.28" y="1342.56" width="4.87" height="9.32"/><rect class="cls-26" x="1688.84" y="1355.75" width="4.87" height="9.32"/><rect class="cls-26" x="1698.04" y="1355.75" width="4.87" height="9.32"/><rect class="cls-26" x="1707.25" y="1355.75" width="4.87" height="9.32"/><rect class="cls-26" x="1716.46" y="1355.75" width="4.87" height="9.32"/><rect class="cls-26" x="1725.66" y="1355.75" width="4.87" height="9.32"/><rect class="cls-26" x="1734.87" y="1355.75" width="4.87" height="9.32"/><rect class="cls-26" x="1744.08" y="1355.75" width="4.87" height="9.32"/><rect class="cls-26" x="1753.28" y="1355.75" width="4.87" height="9.32"/><rect class="cls-26" x="1688.84" y="1368.95" width="4.87" height="9.32"/><rect class="cls-26" x="1698.04" y="1368.95" width="4.87" height="9.32"/><rect class="cls-26" x="1707.25" y="1368.95" width="4.87" height="9.32"/><rect class="cls-26" x="1716.46" y="1368.95" width="4.87" height="9.32"/><rect class="cls-26" x="1725.66" y="1368.95" width="4.87" height="9.32"/><rect class="cls-26" x="1734.87" y="1368.95" width="4.87" height="9.32"/><rect class="cls-26" x="1744.08" y="1368.95" width="4.87" height="9.32"/><rect class="cls-26" x="1753.28" y="1368.95" width="4.87" height="9.32"/><rect class="cls-26" x="1688.84" y="1382.15" width="4.87" height="9.32"/><rect class="cls-26" x="1698.04" y="1382.15" width="4.87" height="9.32"/><rect class="cls-26" x="1707.25" y="1382.15" width="4.87" height="9.32"/><rect class="cls-26" x="1716.46" y="1382.15" width="4.87" height="9.32"/><rect class="cls-26" x="1725.66" y="1382.15" width="4.87" height="9.32"/><rect class="cls-26" x="1734.87" y="1382.15" width="4.87" height="9.32"/><rect class="cls-26" x="1744.08" y="1382.15" width="4.87" height="9.32"/><rect class="cls-26" x="1753.28" y="1382.15" width="4.87" height="9.32"/><rect class="cls-26" x="1688.84" y="1395.34" width="4.87" height="9.32"/><rect class="cls-26" x="1698.04" y="1395.34" width="4.87" height="9.32"/><rect class="cls-26" x="1707.25" y="1395.34" width="4.87" height="9.32"/><rect class="cls-26" x="1716.46" y="1395.34" width="4.87" height="9.32"/><rect class="cls-26" x="1725.66" y="1395.34" width="4.87" height="9.32"/><rect class="cls-26" x="1734.87" y="1395.34" width="4.87" height="9.32"/><rect class="cls-26" x="1744.08" y="1395.34" width="4.87" height="9.32"/><rect class="cls-26" x="1753.28" y="1395.34" width="4.87" height="9.32"/><rect class="cls-26" x="1688.84" y="1408.54" width="4.87" height="9.32"/><rect class="cls-26" x="1698.04" y="1408.54" width="4.87" height="9.32"/><rect class="cls-26" x="1707.25" y="1408.54" width="4.87" height="9.32"/><rect class="cls-26" x="1716.46" y="1408.54" width="4.87" height="9.32"/><rect class="cls-26" x="1725.66" y="1408.54" width="4.87" height="9.32"/><rect class="cls-26" x="1734.87" y="1408.54" width="4.87" height="9.32"/><rect class="cls-26" x="1744.08" y="1408.54" width="4.87" height="9.32"/><rect class="cls-26" x="1753.28" y="1408.54" width="4.87" height="9.32"/><rect class="cls-26" x="1688.84" y="1421.73" width="4.87" height="9.32"/><rect class="cls-26" x="1698.04" y="1421.73" width="4.87" height="9.32"/><rect class="cls-26" x="1707.25" y="1421.73" width="4.87" height="9.32"/><rect class="cls-26" x="1716.46" y="1421.73" width="4.87" height="9.32"/><rect class="cls-26" x="1725.66" y="1421.73" width="4.87" height="9.32"/><rect class="cls-26" x="1734.87" y="1421.73" width="4.87" height="9.32"/><rect class="cls-26" x="1744.08" y="1421.73" width="4.87" height="9.32"/><rect class="cls-26" x="1753.28" y="1421.73" width="4.87" height="9.32"/><rect class="cls-26" x="1688.84" y="1434.93" width="4.87" height="9.32"/><rect class="cls-26" x="1698.04" y="1434.93" width="4.87" height="9.32"/><rect class="cls-26" x="1707.25" y="1434.93" width="4.87" height="9.32"/><rect class="cls-26" x="1716.46" y="1434.93" width="4.87" height="9.32"/><rect class="cls-26" x="1725.66" y="1434.93" width="4.87" height="9.32"/><rect class="cls-26" x="1734.87" y="1434.93" width="4.87" height="9.32"/><rect class="cls-26" x="1744.08" y="1434.93" width="4.87" height="9.32"/><rect class="cls-26" x="1753.28" y="1434.93" width="4.87" height="9.32"/><rect class="cls-26" x="1688.84" y="1448.12" width="4.87" height="9.32"/><rect class="cls-26" x="1698.04" y="1448.12" width="4.87" height="9.32"/><rect class="cls-26" x="1707.25" y="1448.12" width="4.87" height="9.32"/><rect class="cls-26" x="1716.46" y="1448.12" width="4.87" height="9.32"/><rect class="cls-26" x="1725.66" y="1448.12" width="4.87" height="9.32"/><rect class="cls-26" x="1734.87" y="1448.12" width="4.87" height="9.32"/><rect class="cls-26" x="1744.08" y="1448.12" width="4.87" height="9.32"/><rect class="cls-26" x="1753.28" y="1448.12" width="4.87" height="9.32"/><rect class="cls-26" x="1688.84" y="1461.32" width="4.87" height="9.32"/><rect class="cls-26" x="1698.04" y="1461.32" width="4.87" height="9.32"/><rect class="cls-26" x="1707.25" y="1461.32" width="4.87" height="9.32"/><rect class="cls-26" x="1716.46" y="1461.32" width="4.87" height="9.32"/><rect class="cls-26" x="1725.66" y="1461.32" width="4.87" height="9.32"/><rect class="cls-26" x="1734.87" y="1461.32" width="4.87" height="9.32"/><rect class="cls-26" x="1744.08" y="1461.32" width="4.87" height="9.32"/><rect class="cls-26" x="1753.28" y="1461.32" width="4.87" height="9.32"/><rect class="cls-26" x="1688.84" y="1474.52" width="4.87" height="9.32"/><rect class="cls-26" x="1698.04" y="1474.52" width="4.87" height="9.32"/><rect class="cls-26" x="1707.25" y="1474.52" width="4.87" height="9.32"/><rect class="cls-26" x="1716.46" y="1474.52" width="4.87" height="9.32"/><rect class="cls-26" x="1725.66" y="1474.52" width="4.87" height="9.32"/><rect class="cls-26" x="1734.87" y="1474.52" width="4.87" height="9.32"/><rect class="cls-26" x="1744.08" y="1474.52" width="4.87" height="9.32"/><rect class="cls-26" x="1753.28" y="1474.52" width="4.87" height="9.32"/><rect class="cls-18" x="2168.67" y="892.44" width="79.02" height="2.76"/><rect class="cls-18" x="2168.67" y="901.03" width="79.02" height="2.76"/><rect class="cls-18" x="2168.67" y="909.62" width="79.02" height="2.76"/><rect class="cls-18" x="2168.67" y="918.21" width="79.02" height="2.76"/><rect class="cls-18" x="2168.67" y="926.81" width="79.02" height="2.76"/><rect class="cls-18" x="2168.67" y="935.4" width="79.02" height="2.76"/><rect class="cls-18" x="2168.67" y="943.99" width="79.02" height="2.76"/><rect class="cls-18" x="2168.67" y="952.58" width="79.02" height="2.76"/><rect class="cls-18" x="2168.67" y="961.18" width="79.02" height="2.76"/><rect class="cls-18" x="2168.67" y="969.77" width="79.02" height="2.76"/><rect class="cls-18" x="2168.67" y="978.36" width="79.02" height="2.76"/><rect class="cls-18" x="2168.67" y="986.95" width="79.02" height="2.76"/><rect class="cls-18" x="2168.67" y="995.55" width="79.02" height="2.76"/><rect class="cls-18" x="2168.67" y="1004.14" width="79.02" height="2.76"/><rect class="cls-18" x="2168.67" y="1012.73" width="79.02" height="2.76"/><rect class="cls-18" x="2168.67" y="1021.32" width="79.02" height="2.76"/><rect class="cls-18" x="2168.67" y="1029.92" width="79.02" height="2.76"/><rect class="cls-18" x="2168.67" y="1038.51" width="79.02" height="2.76"/><rect class="cls-18" x="2168.67" y="1047.1" width="79.02" height="2.76"/><rect class="cls-18" x="2168.67" y="1055.69" width="79.02" height="2.76"/><rect class="cls-18" x="2168.67" y="1064.29" width="79.02" height="2.76"/><rect class="cls-18" x="2168.67" y="1072.88" width="79.02" height="2.76"/><rect class="cls-18" x="2168.67" y="1081.47" width="79.02" height="2.76"/><rect class="cls-18" x="2168.67" y="1090.06" width="79.02" height="2.76"/><rect class="cls-18" x="2168.67" y="1098.66" width="79.02" height="2.76"/><rect class="cls-18" x="2168.67" y="1107.25" width="79.02" height="2.76"/><rect class="cls-18" x="2168.67" y="1115.84" width="79.02" height="2.76"/><rect class="cls-18" x="2168.67" y="1124.43" width="79.02" height="2.76"/><rect class="cls-18" x="2168.67" y="1133.03" width="79.02" height="2.76"/><rect class="cls-18" x="2168.67" y="1141.62" width="79.02" height="2.76"/><rect class="cls-18" x="2168.67" y="1150.21" width="79.02" height="2.76"/><rect class="cls-18" x="2168.67" y="1158.8" width="79.02" height="2.76"/><rect class="cls-18" x="2168.67" y="1167.4" width="79.02" height="2.76"/><rect class="cls-18" x="2168.67" y="1175.99" width="79.02" height="2.76"/><rect class="cls-18" x="2168.67" y="1184.58" width="79.02" height="2.76"/><rect class="cls-18" x="2168.67" y="1193.17" width="79.02" height="2.76"/><rect class="cls-18" x="2168.67" y="1201.77" width="79.02" height="2.76"/><rect class="cls-18" x="2168.67" y="1210.36" width="79.02" height="2.76"/><rect class="cls-18" x="2168.67" y="1218.95" width="79.02" height="2.76"/><rect class="cls-18" x="2168.67" y="1227.54" width="79.02" height="2.76"/><rect class="cls-18" x="2168.67" y="1236.14" width="79.02" height="2.76"/><rect class="cls-18" x="2168.67" y="1244.73" width="79.02" height="2.76"/><rect class="cls-18" x="2168.67" y="1253.32" width="79.02" height="2.76"/><rect class="cls-18" x="2168.67" y="1261.91" width="79.02" height="2.76"/><rect class="cls-18" x="2168.67" y="1270.51" width="79.02" height="2.76"/><rect class="cls-18" x="2168.67" y="1279.1" width="79.02" height="2.76"/><rect class="cls-18" x="2168.67" y="1287.69" width="79.02" height="2.76"/><rect class="cls-18" x="2168.67" y="1296.29" width="79.02" height="2.76"/><rect class="cls-18" x="2168.67" y="1304.88" width="79.02" height="2.76"/><rect class="cls-18" x="2168.67" y="1313.47" width="79.02" height="2.76"/><rect class="cls-18" x="2168.67" y="1322.06" width="79.02" height="2.76"/><rect class="cls-18" x="2168.67" y="1330.66" width="79.02" height="2.76"/><rect class="cls-18" x="2168.67" y="1339.25" width="79.02" height="2.76"/><rect class="cls-18" x="2168.67" y="1347.84" width="79.02" height="2.76"/><rect class="cls-18" x="2168.67" y="1356.43" width="79.02" height="2.76"/><rect class="cls-18" x="2168.67" y="1365.03" width="79.02" height="2.76"/><rect class="cls-18" x="2168.67" y="1373.62" width="79.02" height="2.76"/><rect class="cls-18" x="2168.67" y="1382.21" width="79.02" height="2.76"/><rect class="cls-18" x="2168.67" y="1390.8" width="79.02" height="2.76"/><rect class="cls-18" x="2168.67" y="1399.4" width="79.02" height="2.76"/><rect class="cls-18" x="2168.67" y="1407.99" width="79.02" height="2.76"/><rect class="cls-18" x="2168.67" y="1416.58" width="79.02" height="2.76"/><rect class="cls-18" x="2168.67" y="1425.17" width="79.02" height="2.76"/><rect class="cls-18" x="2168.67" y="1433.77" width="79.02" height="2.76"/><rect class="cls-18" x="2168.67" y="1442.36" width="79.02" height="2.76"/><rect class="cls-18" x="2168.67" y="1450.95" width="79.02" height="2.76"/><rect class="cls-18" x="2168.67" y="1459.54" width="79.02" height="2.76"/><rect class="cls-18" x="2168.67" y="1467.37" width="79.02" height="2.76"/><polygon class="cls-13" points="1880.82 1235.52 1858.33 1188.41 1830.26 1188.41 1854.36 1280.95 1854.28 1280.95 1854.28 1486.39 1963.52 1486.39 1961.68 1076.1 1955.23 1070.27 1931.16 978.2 1889.27 978.2 1923.78 1075.33 1891.33 1065.04 1856.56 1065.04 1880.88 1157.58 1880.82 1157.58 1880.82 1235.52"/><polygon class="cls-27" points="1919.51 1061.22 1919.51 1047.41 1915.22 1047.41 1915.22 1033.6 1910.92 1033.6 1910.92 1019.79 1906.62 1019.79 1906.62 1005.98 1902.33 1005.98 1902.33 992.17 1898.03 992.17 1898.03 978.36 1897.8 978.36 1886.19 978.36 1885.96 978.36 1885.96 992.17 1881.66 992.17 1881.66 1005.98 1877.36 1005.98 1877.36 1019.79 1873.07 1019.79 1873.07 1033.6 1868.77 1033.6 1868.77 1047.41 1864.48 1047.41 1864.48 1061.22 1860.18 1061.22 1860.18 1065.36 1848.9 1065.36 1848.67 1065.36 1848.67 1079.17 1844.38 1079.17 1844.38 1092.98 1840.08 1092.98 1840.08 1106.79 1835.78 1106.79 1835.78 1120.6 1831.49 1120.6 1831.49 1134.41 1827.19 1134.41 1827.19 1148.22 1822.89 1148.22 1822.89 1208.37 1822.94 1208.37 1822.94 1216.34 1818.65 1216.34 1818.65 1230.15 1814.35 1230.15 1814.35 1243.96 1810.05 1243.96 1810.05 1257.77 1805.76 1257.77 1805.76 1271.58 1801.46 1271.58 1801.46 1476.88 1862.99 1476.88 1862.99 1271.58 1862.91 1271.58 1862.91 1257.77 1856.5 1257.77 1856.5 1243.96 1852.2 1243.96 1852.2 1230.15 1847.9 1230.15 1847.9 1216.34 1839.79 1216.34 1839.79 1200.46 1844.74 1200.46 1844.74 1211.88 1852.4 1211.88 1852.4 1223.3 1856.09 1223.3 1856.09 1234.72 1861.76 1234.72 1861.76 1246.15 1867.43 1246.15 1867.43 1257.57 1873.77 1257.57 1873.77 1267 1886.72 1267 1886.72 1255.27 1886.52 1255.27 1886.52 1162.4 1886.52 1148.22 1882.23 1148.22 1882.23 1134.41 1877.93 1134.41 1877.93 1120.6 1873.63 1120.6 1873.63 1106.79 1869.34 1106.79 1869.34 1092.98 1865.04 1092.98 1865.04 1079.17 1860.74 1079.17 1860.74 1075.4 1871.77 1075.4 1871.77 1088.29 1878.63 1088.29 1878.63 1102.1 1885.49 1102.1 1885.49 1115.91 1892.35 1115.91 1892.35 1129.72 1899.2 1129.72 1899.2 1143.53 1906.06 1143.53 1906.06 1154.52 1923.64 1154.52 1923.64 1144.73 1923.81 1144.61 1923.81 1075.4 1923.81 1061.22 1919.51 1061.22"/><rect class="cls-13" x="1928.54" y="992.17" width="11.84" height="14.19"/><rect class="cls-13" x="1932.83" y="1005.98" width="11.84" height="14.19"/><rect class="cls-13" x="1937.13" y="1019.79" width="11.84" height="14.19"/><rect class="cls-13" x="1941.42" y="1033.6" width="11.84" height="14.19"/><rect class="cls-13" x="1945.72" y="1047.41" width="11.84" height="14.19"/><rect class="cls-13" x="1950.02" y="1061.22" width="11.84" height="14.19"/><rect class="cls-13" x="1924.01" y="978.36" width="11.84" height="14.19" transform="translate(3859.86 1970.91) rotate(-180)"/><rect class="cls-17" x="1898.66" y="986.56" width="37.75" height="5.45"/><rect class="cls-17" x="1902.81" y="999.91" width="37.75" height="5.45"/><rect class="cls-17" x="1906.95" y="1014.61" width="37.75" height="5.45"/><rect class="cls-17" x="1911.09" y="1027.96" width="37.75" height="5.45"/><rect class="cls-17" x="1915.49" y="1041.77" width="37.75" height="5.45"/><rect class="cls-17" x="1919.64" y="1055.58" width="37.75" height="5.45"/><rect class="cls-17" x="1927.46" y="1067.51" width="5.06" height="6.44"/><rect class="cls-17" x="1936.13" y="1067.51" width="5.06" height="6.44"/><rect class="cls-17" x="1944.8" y="1067.51" width="5.06" height="6.44"/><rect class="cls-17" x="1953.47" y="1067.51" width="5.06" height="6.44"/><rect class="cls-17" x="1927.46" y="1077.64" width="5.06" height="6.44"/><rect class="cls-17" x="1936.13" y="1077.64" width="5.06" height="6.44"/><rect class="cls-17" x="1944.8" y="1077.64" width="5.06" height="6.44"/><rect class="cls-17" x="1953.47" y="1077.64" width="5.06" height="6.44"/><rect class="cls-17" x="1927.46" y="1087.76" width="5.06" height="6.44"/><rect class="cls-17" x="1936.13" y="1087.76" width="5.06" height="6.44"/><rect class="cls-17" x="1944.8" y="1087.76" width="5.06" height="6.44"/><rect class="cls-17" x="1953.47" y="1087.76" width="5.06" height="6.44"/><rect class="cls-17" x="1927.46" y="1097.89" width="5.06" height="6.44"/><rect class="cls-17" x="1936.13" y="1097.89" width="5.06" height="6.44"/><rect class="cls-17" x="1944.8" y="1097.89" width="5.06" height="6.44"/><rect class="cls-17" x="1953.47" y="1097.89" width="5.06" height="6.44"/><rect class="cls-17" x="1927.46" y="1108.02" width="5.06" height="6.44"/><rect class="cls-17" x="1936.13" y="1108.02" width="5.06" height="6.44"/><rect class="cls-17" x="1944.8" y="1108.02" width="5.06" height="6.44"/><rect class="cls-17" x="1953.47" y="1108.02" width="5.06" height="6.44"/><rect class="cls-17" x="1927.46" y="1118.14" width="5.06" height="6.44"/><rect class="cls-17" x="1936.13" y="1118.14" width="5.06" height="6.44"/><rect class="cls-17" x="1944.8" y="1118.14" width="5.06" height="6.44"/><rect class="cls-17" x="1953.47" y="1118.14" width="5.06" height="6.44"/><rect class="cls-17" x="1927.46" y="1128.27" width="5.06" height="6.44"/><rect class="cls-17" x="1936.13" y="1128.27" width="5.06" height="6.44"/><rect class="cls-17" x="1944.8" y="1128.27" width="5.06" height="6.44"/><rect class="cls-17" x="1953.47" y="1128.27" width="5.06" height="6.44"/><rect class="cls-17" x="1927.46" y="1138.4" width="5.06" height="6.44"/><rect class="cls-17" x="1936.13" y="1138.4" width="5.06" height="6.44"/><rect class="cls-17" x="1944.8" y="1138.4" width="5.06" height="6.44"/><rect class="cls-17" x="1953.47" y="1138.4" width="5.06" height="6.44"/><rect class="cls-17" x="1927.46" y="1148.52" width="5.06" height="6.44"/><rect class="cls-17" x="1936.13" y="1148.52" width="5.06" height="6.44"/><rect class="cls-17" x="1944.8" y="1148.52" width="5.06" height="6.44"/><rect class="cls-17" x="1953.47" y="1148.52" width="5.06" height="6.44"/><rect class="cls-17" x="1927.46" y="1158.65" width="5.06" height="6.44"/><rect class="cls-17" x="1936.13" y="1158.65" width="5.06" height="6.44"/><rect class="cls-17" x="1944.8" y="1158.65" width="5.06" height="6.44"/><rect class="cls-17" x="1953.47" y="1158.65" width="5.06" height="6.44"/><rect class="cls-17" x="1927.46" y="1168.78" width="5.06" height="6.44"/><rect class="cls-17" x="1936.13" y="1168.78" width="5.06" height="6.44"/><rect class="cls-17" x="1944.8" y="1168.78" width="5.06" height="6.44"/><rect class="cls-17" x="1953.47" y="1168.78" width="5.06" height="6.44"/><rect class="cls-17" x="1927.46" y="1178.9" width="5.06" height="6.44"/><rect class="cls-17" x="1936.13" y="1178.9" width="5.06" height="6.44"/><rect class="cls-17" x="1944.8" y="1178.9" width="5.06" height="6.44"/><rect class="cls-17" x="1953.47" y="1178.9" width="5.06" height="6.44"/><rect class="cls-17" x="1927.46" y="1189.03" width="5.06" height="6.44"/><rect class="cls-17" x="1936.13" y="1189.03" width="5.06" height="6.44"/><rect class="cls-17" x="1944.8" y="1189.03" width="5.06" height="6.44"/><rect class="cls-17" x="1953.47" y="1189.03" width="5.06" height="6.44"/><rect class="cls-17" x="1927.46" y="1199.16" width="5.06" height="6.44"/><rect class="cls-17" x="1936.13" y="1199.16" width="5.06" height="6.44"/><rect class="cls-17" x="1944.8" y="1199.16" width="5.06" height="6.44"/><rect class="cls-17" x="1953.47" y="1199.16" width="5.06" height="6.44"/><rect class="cls-17" x="1927.46" y="1209.29" width="5.06" height="6.44"/><rect class="cls-17" x="1936.13" y="1209.29" width="5.06" height="6.44"/><rect class="cls-17" x="1944.8" y="1209.29" width="5.06" height="6.44"/><rect class="cls-17" x="1953.47" y="1209.29" width="5.06" height="6.44"/><rect class="cls-17" x="1927.46" y="1219.41" width="5.06" height="6.44"/><rect class="cls-17" x="1936.13" y="1219.41" width="5.06" height="6.44"/><rect class="cls-17" x="1944.8" y="1219.41" width="5.06" height="6.44"/><rect class="cls-17" x="1953.47" y="1219.41" width="5.06" height="6.44"/><rect class="cls-17" x="1927.46" y="1229.54" width="5.06" height="6.44"/><rect class="cls-17" x="1936.13" y="1229.54" width="5.06" height="6.44"/><rect class="cls-17" x="1944.8" y="1229.54" width="5.06" height="6.44"/><rect class="cls-17" x="1953.47" y="1229.54" width="5.06" height="6.44"/><rect class="cls-17" x="1927.46" y="1239.67" width="5.06" height="6.44"/><rect class="cls-17" x="1936.13" y="1239.67" width="5.06" height="6.44"/><rect class="cls-17" x="1944.8" y="1239.67" width="5.06" height="6.44"/><rect class="cls-17" x="1953.47" y="1239.67" width="5.06" height="6.44"/><rect class="cls-17" x="1927.46" y="1249.79" width="5.06" height="6.44"/><rect class="cls-17" x="1936.13" y="1249.79" width="5.06" height="6.44"/><rect class="cls-17" x="1944.8" y="1249.79" width="5.06" height="6.44"/><rect class="cls-17" x="1953.47" y="1249.79" width="5.06" height="6.44"/><rect class="cls-17" x="1927.46" y="1259.92" width="5.06" height="6.44"/><rect class="cls-17" x="1936.13" y="1259.92" width="5.06" height="6.44"/><rect class="cls-17" x="1944.8" y="1259.92" width="5.06" height="6.44"/><rect class="cls-17" x="1953.47" y="1259.92" width="5.06" height="6.44"/><rect class="cls-17" x="1927.46" y="1270.05" width="5.06" height="6.44"/><rect class="cls-17" x="1936.13" y="1270.05" width="5.06" height="6.44"/><rect class="cls-17" x="1944.8" y="1270.05" width="5.06" height="6.44"/><rect class="cls-17" x="1953.47" y="1270.05" width="5.06" height="6.44"/><rect class="cls-17" x="1927.46" y="1280.17" width="5.06" height="6.44"/><rect class="cls-17" x="1936.13" y="1280.17" width="5.06" height="6.44"/><rect class="cls-17" x="1944.8" y="1280.17" width="5.06" height="6.44"/><rect class="cls-17" x="1953.47" y="1280.17" width="5.06" height="6.44"/><rect class="cls-17" x="1927.46" y="1290.3" width="5.06" height="6.44"/><rect class="cls-17" x="1936.13" y="1290.3" width="5.06" height="6.44"/><rect class="cls-17" x="1944.8" y="1290.3" width="5.06" height="6.44"/><rect class="cls-17" x="1953.47" y="1290.3" width="5.06" height="6.44"/><rect class="cls-17" x="1927.46" y="1300.43" width="5.06" height="6.44"/><rect class="cls-17" x="1936.13" y="1300.43" width="5.06" height="6.44"/><rect class="cls-17" x="1944.8" y="1300.43" width="5.06" height="6.44"/><rect class="cls-17" x="1953.47" y="1300.43" width="5.06" height="6.44"/><rect class="cls-17" x="1927.46" y="1310.55" width="5.06" height="6.44"/><rect class="cls-17" x="1936.13" y="1310.55" width="5.06" height="6.44"/><rect class="cls-17" x="1944.8" y="1310.55" width="5.06" height="6.44"/><rect class="cls-17" x="1953.47" y="1310.55" width="5.06" height="6.44"/><rect class="cls-17" x="1927.46" y="1320.68" width="5.06" height="6.44"/><rect class="cls-17" x="1936.13" y="1320.68" width="5.06" height="6.44"/><rect class="cls-17" x="1944.8" y="1320.68" width="5.06" height="6.44"/><rect class="cls-17" x="1953.47" y="1320.68" width="5.06" height="6.44"/><rect class="cls-17" x="1892.63" y="1158.65" width="5.06" height="6.44"/><rect class="cls-17" x="1901.29" y="1158.65" width="5.06" height="6.44"/><rect class="cls-17" x="1909.96" y="1158.65" width="5.06" height="6.44"/><rect class="cls-17" x="1918.63" y="1158.65" width="5.06" height="6.44"/><rect class="cls-17" x="1892.63" y="1168.78" width="5.06" height="6.44"/><rect class="cls-17" x="1901.29" y="1168.78" width="5.06" height="6.44"/><rect class="cls-17" x="1909.96" y="1168.78" width="5.06" height="6.44"/><rect class="cls-17" x="1918.63" y="1168.78" width="5.06" height="6.44"/><rect class="cls-17" x="1892.63" y="1178.9" width="5.06" height="6.44"/><rect class="cls-17" x="1901.29" y="1178.9" width="5.06" height="6.44"/><rect class="cls-17" x="1909.96" y="1178.9" width="5.06" height="6.44"/><rect class="cls-17" x="1918.63" y="1178.9" width="5.06" height="6.44"/><rect class="cls-17" x="1892.63" y="1189.03" width="5.06" height="6.44"/><rect class="cls-17" x="1901.29" y="1189.03" width="5.06" height="6.44"/><rect class="cls-17" x="1909.96" y="1189.03" width="5.06" height="6.44"/><rect class="cls-17" x="1918.63" y="1189.03" width="5.06" height="6.44"/><rect class="cls-17" x="1892.63" y="1199.16" width="5.06" height="6.44"/><rect class="cls-17" x="1901.29" y="1199.16" width="5.06" height="6.44"/><rect class="cls-17" x="1909.96" y="1199.16" width="5.06" height="6.44"/><rect class="cls-17" x="1918.63" y="1199.16" width="5.06" height="6.44"/><rect class="cls-17" x="1892.63" y="1209.29" width="5.06" height="6.44"/><rect class="cls-17" x="1901.29" y="1209.29" width="5.06" height="6.44"/><rect class="cls-17" x="1909.96" y="1209.29" width="5.06" height="6.44"/><rect class="cls-17" x="1918.63" y="1209.29" width="5.06" height="6.44"/><rect class="cls-17" x="1892.63" y="1219.41" width="5.06" height="6.44"/><rect class="cls-17" x="1901.29" y="1219.41" width="5.06" height="6.44"/><rect class="cls-17" x="1909.96" y="1219.41" width="5.06" height="6.44"/><rect class="cls-17" x="1918.63" y="1219.41" width="5.06" height="6.44"/><rect class="cls-17" x="1892.63" y="1229.54" width="5.06" height="6.44"/><rect class="cls-17" x="1901.29" y="1229.54" width="5.06" height="6.44"/><rect class="cls-17" x="1909.96" y="1229.54" width="5.06" height="6.44"/><rect class="cls-17" x="1918.63" y="1229.54" width="5.06" height="6.44"/><rect class="cls-17" x="1892.63" y="1239.67" width="5.06" height="6.44"/><rect class="cls-17" x="1901.29" y="1239.67" width="5.06" height="6.44"/><rect class="cls-17" x="1909.96" y="1239.67" width="5.06" height="6.44"/><rect class="cls-17" x="1918.63" y="1239.67" width="5.06" height="6.44"/><rect class="cls-17" x="1892.63" y="1249.79" width="5.06" height="6.44"/><rect class="cls-17" x="1901.29" y="1249.79" width="5.06" height="6.44"/><rect class="cls-17" x="1909.96" y="1249.79" width="5.06" height="6.44"/><rect class="cls-17" x="1918.63" y="1249.79" width="5.06" height="6.44"/><rect class="cls-17" x="1892.63" y="1259.92" width="5.06" height="6.44"/><rect class="cls-17" x="1901.29" y="1259.92" width="5.06" height="6.44"/><rect class="cls-17" x="1909.96" y="1259.92" width="5.06" height="6.44"/><rect class="cls-17" x="1918.63" y="1259.92" width="5.06" height="6.44"/><rect class="cls-17" x="1892.63" y="1270.05" width="5.06" height="6.44"/><rect class="cls-17" x="1901.29" y="1270.05" width="5.06" height="6.44"/><rect class="cls-17" x="1909.96" y="1270.05" width="5.06" height="6.44"/><rect class="cls-17" x="1918.63" y="1270.05" width="5.06" height="6.44"/><rect class="cls-17" x="1892.63" y="1280.17" width="5.06" height="6.44"/><rect class="cls-17" x="1901.29" y="1280.17" width="5.06" height="6.44"/><rect class="cls-17" x="1909.96" y="1280.17" width="5.06" height="6.44"/><rect class="cls-17" x="1918.63" y="1280.17" width="5.06" height="6.44"/><rect class="cls-17" x="1892.63" y="1290.3" width="5.06" height="6.44"/><rect class="cls-17" x="1901.29" y="1290.3" width="5.06" height="6.44"/><rect class="cls-17" x="1909.96" y="1290.3" width="5.06" height="6.44"/><rect class="cls-17" x="1918.63" y="1290.3" width="5.06" height="6.44"/><rect class="cls-17" x="1892.63" y="1300.43" width="5.06" height="6.44"/><rect class="cls-17" x="1901.29" y="1300.43" width="5.06" height="6.44"/><rect class="cls-17" x="1909.96" y="1300.43" width="5.06" height="6.44"/><rect class="cls-17" x="1918.63" y="1300.43" width="5.06" height="6.44"/><rect class="cls-17" x="1892.63" y="1310.55" width="5.06" height="6.44"/><rect class="cls-17" x="1901.29" y="1310.55" width="5.06" height="6.44"/><rect class="cls-17" x="1909.96" y="1310.55" width="5.06" height="6.44"/><rect class="cls-17" x="1918.63" y="1310.55" width="5.06" height="6.44"/><rect class="cls-17" x="1892.63" y="1320.68" width="5.06" height="6.44"/><rect class="cls-17" x="1901.29" y="1320.68" width="5.06" height="6.44"/><rect class="cls-17" x="1909.96" y="1320.68" width="5.06" height="6.44"/><rect class="cls-17" x="1866.65" y="1270.05" width="5.06" height="6.44"/><rect class="cls-17" x="1875.31" y="1270.05" width="5.06" height="6.44"/><rect class="cls-17" x="1883.98" y="1270.05" width="5.06" height="6.44"/><rect class="cls-17" x="1866.65" y="1280.17" width="5.06" height="6.44"/><rect class="cls-17" x="1875.31" y="1280.17" width="5.06" height="6.44"/><rect class="cls-17" x="1883.98" y="1280.17" width="5.06" height="6.44"/><rect class="cls-17" x="1866.65" y="1290.3" width="5.06" height="6.44"/><rect class="cls-17" x="1875.31" y="1290.3" width="5.06" height="6.44"/><rect class="cls-17" x="1883.98" y="1290.3" width="5.06" height="6.44"/><rect class="cls-17" x="1866.65" y="1300.43" width="5.06" height="6.44"/><rect class="cls-17" x="1875.31" y="1300.43" width="5.06" height="6.44"/><rect class="cls-17" x="1883.98" y="1300.43" width="5.06" height="6.44"/><rect class="cls-17" x="1866.65" y="1310.55" width="5.06" height="6.44"/><rect class="cls-17" x="1875.31" y="1310.55" width="5.06" height="6.44"/><rect class="cls-17" x="1883.98" y="1310.55" width="5.06" height="6.44"/><rect class="cls-17" x="1866.65" y="1320.68" width="5.06" height="6.44"/><rect class="cls-17" x="1875.31" y="1320.68" width="5.06" height="6.44"/><rect class="cls-17" x="1883.98" y="1320.68" width="5.06" height="6.44"/><rect class="cls-17" x="1918.63" y="1320.68" width="5.06" height="6.44"/><rect class="cls-17" x="1927.46" y="1330.35" width="5.06" height="6.44"/><rect class="cls-17" x="1936.13" y="1330.35" width="5.06" height="6.44"/><rect class="cls-17" x="1944.8" y="1330.35" width="5.06" height="6.44"/><rect class="cls-17" x="1953.47" y="1330.35" width="5.06" height="6.44"/><rect class="cls-17" x="1892.63" y="1330.35" width="5.06" height="6.44"/><rect class="cls-17" x="1901.29" y="1330.35" width="5.06" height="6.44"/><rect class="cls-17" x="1909.96" y="1330.35" width="5.06" height="6.44"/><rect class="cls-17" x="1866.65" y="1330.35" width="5.06" height="6.44"/><rect class="cls-17" x="1875.31" y="1330.35" width="5.06" height="6.44"/><rect class="cls-17" x="1883.98" y="1330.35" width="5.06" height="6.44"/><rect class="cls-17" x="1918.63" y="1330.35" width="5.06" height="6.44"/><rect class="cls-17" x="1927.46" y="1340.02" width="5.06" height="6.44"/><rect class="cls-17" x="1936.13" y="1340.02" width="5.06" height="6.44"/><rect class="cls-17" x="1944.8" y="1340.02" width="5.06" height="6.44"/><rect class="cls-17" x="1953.47" y="1340.02" width="5.06" height="6.44"/><rect class="cls-17" x="1892.63" y="1340.02" width="5.06" height="6.44"/><rect class="cls-17" x="1901.29" y="1340.02" width="5.06" height="6.44"/><rect class="cls-17" x="1909.96" y="1340.02" width="5.06" height="6.44"/><rect class="cls-17" x="1866.65" y="1340.02" width="5.06" height="6.44"/><rect class="cls-17" x="1875.31" y="1340.02" width="5.06" height="6.44"/><rect class="cls-17" x="1883.98" y="1340.02" width="5.06" height="6.44"/><rect class="cls-17" x="1918.63" y="1340.02" width="5.06" height="6.44"/><rect class="cls-17" x="1927.46" y="1349.68" width="5.06" height="6.44"/><rect class="cls-17" x="1936.13" y="1349.68" width="5.06" height="6.44"/><rect class="cls-17" x="1944.8" y="1349.68" width="5.06" height="6.44"/><rect class="cls-17" x="1953.47" y="1349.68" width="5.06" height="6.44"/><rect class="cls-17" x="1892.63" y="1349.68" width="5.06" height="6.44"/><rect class="cls-17" x="1901.29" y="1349.68" width="5.06" height="6.44"/><rect class="cls-17" x="1909.96" y="1349.68" width="5.06" height="6.44"/><rect class="cls-17" x="1866.65" y="1349.68" width="5.06" height="6.44"/><rect class="cls-17" x="1875.31" y="1349.68" width="5.06" height="6.44"/><rect class="cls-17" x="1883.98" y="1349.68" width="5.06" height="6.44"/><rect class="cls-17" x="1918.63" y="1349.68" width="5.06" height="6.44"/><rect class="cls-17" x="1927.46" y="1359.35" width="5.06" height="6.44"/><rect class="cls-17" x="1936.13" y="1359.35" width="5.06" height="6.44"/><rect class="cls-17" x="1944.8" y="1359.35" width="5.06" height="6.44"/><rect class="cls-17" x="1953.47" y="1359.35" width="5.06" height="6.44"/><rect class="cls-17" x="1892.63" y="1359.35" width="5.06" height="6.44"/><rect class="cls-17" x="1901.29" y="1359.35" width="5.06" height="6.44"/><rect class="cls-17" x="1909.96" y="1359.35" width="5.06" height="6.44"/><rect class="cls-17" x="1866.65" y="1359.35" width="5.06" height="6.44"/><rect class="cls-17" x="1875.31" y="1359.35" width="5.06" height="6.44"/><rect class="cls-17" x="1883.98" y="1359.35" width="5.06" height="6.44"/><rect class="cls-17" x="1918.63" y="1359.35" width="5.06" height="6.44"/><rect class="cls-17" x="1927.46" y="1369.01" width="5.06" height="6.44"/><rect class="cls-17" x="1936.13" y="1369.01" width="5.06" height="6.44"/><rect class="cls-17" x="1944.8" y="1369.01" width="5.06" height="6.44"/><rect class="cls-17" x="1953.47" y="1369.01" width="5.06" height="6.44"/><rect class="cls-17" x="1892.63" y="1369.01" width="5.06" height="6.44"/><rect class="cls-17" x="1901.29" y="1369.01" width="5.06" height="6.44"/><rect class="cls-17" x="1909.96" y="1369.01" width="5.06" height="6.44"/><rect class="cls-17" x="1866.65" y="1369.01" width="5.06" height="6.44"/><rect class="cls-17" x="1875.31" y="1369.01" width="5.06" height="6.44"/><rect class="cls-17" x="1883.98" y="1369.01" width="5.06" height="6.44"/><rect class="cls-17" x="1918.63" y="1369.01" width="5.06" height="6.44"/><rect class="cls-17" x="1927.46" y="1378.68" width="5.06" height="6.44"/><rect class="cls-17" x="1936.13" y="1378.68" width="5.06" height="6.44"/><rect class="cls-17" x="1944.8" y="1378.68" width="5.06" height="6.44"/><rect class="cls-17" x="1953.47" y="1378.68" width="5.06" height="6.44"/><rect class="cls-17" x="1892.63" y="1378.68" width="5.06" height="6.44"/><rect class="cls-17" x="1901.29" y="1378.68" width="5.06" height="6.44"/><rect class="cls-17" x="1909.96" y="1378.68" width="5.06" height="6.44"/><rect class="cls-17" x="1866.65" y="1378.68" width="5.06" height="6.44"/><rect class="cls-17" x="1875.31" y="1378.68" width="5.06" height="6.44"/><rect class="cls-17" x="1883.98" y="1378.68" width="5.06" height="6.44"/><rect class="cls-17" x="1918.63" y="1378.68" width="5.06" height="6.44"/><rect class="cls-17" x="1927.46" y="1388.35" width="5.06" height="6.44"/><rect class="cls-17" x="1936.13" y="1388.35" width="5.06" height="6.44"/><rect class="cls-17" x="1944.8" y="1388.35" width="5.06" height="6.44"/><rect class="cls-17" x="1953.47" y="1388.35" width="5.06" height="6.44"/><rect class="cls-17" x="1892.63" y="1388.35" width="5.06" height="6.44"/><rect class="cls-17" x="1901.29" y="1388.35" width="5.06" height="6.44"/><rect class="cls-17" x="1909.96" y="1388.35" width="5.06" height="6.44"/><rect class="cls-17" x="1866.65" y="1388.35" width="5.06" height="6.44"/><rect class="cls-17" x="1875.31" y="1388.35" width="5.06" height="6.44"/><rect class="cls-17" x="1883.98" y="1388.35" width="5.06" height="6.44"/><rect class="cls-17" x="1918.63" y="1388.35" width="5.06" height="6.44"/><rect class="cls-17" x="1927.46" y="1398.01" width="5.06" height="6.44"/><rect class="cls-17" x="1936.13" y="1398.01" width="5.06" height="6.44"/><rect class="cls-17" x="1944.8" y="1398.01" width="5.06" height="6.44"/><rect class="cls-17" x="1953.47" y="1398.01" width="5.06" height="6.44"/><rect class="cls-17" x="1892.63" y="1398.01" width="5.06" height="6.44"/><rect class="cls-17" x="1901.29" y="1398.01" width="5.06" height="6.44"/><rect class="cls-17" x="1909.96" y="1398.01" width="5.06" height="6.44"/><rect class="cls-17" x="1866.65" y="1398.01" width="5.06" height="6.44"/><rect class="cls-17" x="1875.31" y="1398.01" width="5.06" height="6.44"/><rect class="cls-17" x="1883.98" y="1398.01" width="5.06" height="6.44"/><rect class="cls-17" x="1918.63" y="1398.01" width="5.06" height="6.44"/><rect class="cls-17" x="1927.46" y="1407.68" width="5.06" height="6.44"/><rect class="cls-17" x="1936.13" y="1407.68" width="5.06" height="6.44"/><rect class="cls-17" x="1944.8" y="1407.68" width="5.06" height="6.44"/><rect class="cls-17" x="1953.47" y="1407.68" width="5.06" height="6.44"/><rect class="cls-17" x="1892.63" y="1407.68" width="5.06" height="6.44"/><rect class="cls-17" x="1901.29" y="1407.68" width="5.06" height="6.44"/><rect class="cls-17" x="1909.96" y="1407.68" width="5.06" height="6.44"/><rect class="cls-17" x="1866.65" y="1407.68" width="5.06" height="6.44"/><rect class="cls-17" x="1875.31" y="1407.68" width="5.06" height="6.44"/><rect class="cls-17" x="1883.98" y="1407.68" width="5.06" height="6.44"/><rect class="cls-17" x="1918.63" y="1407.68" width="5.06" height="6.44"/><rect class="cls-17" x="1927.46" y="1417.35" width="5.06" height="6.44"/><rect class="cls-17" x="1936.13" y="1417.35" width="5.06" height="6.44"/><rect class="cls-17" x="1944.8" y="1417.35" width="5.06" height="6.44"/><rect class="cls-17" x="1953.47" y="1417.35" width="5.06" height="6.44"/><rect class="cls-17" x="1892.63" y="1417.35" width="5.06" height="6.44"/><rect class="cls-17" x="1901.29" y="1417.35" width="5.06" height="6.44"/><rect class="cls-17" x="1909.96" y="1417.35" width="5.06" height="6.44"/><rect class="cls-17" x="1866.65" y="1417.35" width="5.06" height="6.44"/><rect class="cls-17" x="1875.31" y="1417.35" width="5.06" height="6.44"/><rect class="cls-17" x="1883.98" y="1417.35" width="5.06" height="6.44"/><rect class="cls-17" x="1918.63" y="1417.35" width="5.06" height="6.44"/><rect class="cls-17" x="1927.46" y="1427.01" width="5.06" height="6.44"/><rect class="cls-17" x="1936.13" y="1427.01" width="5.06" height="6.44"/><rect class="cls-17" x="1944.8" y="1427.01" width="5.06" height="6.44"/><rect class="cls-17" x="1953.47" y="1427.01" width="5.06" height="6.44"/><rect class="cls-17" x="1892.63" y="1427.01" width="5.06" height="6.44"/><rect class="cls-17" x="1901.29" y="1427.01" width="5.06" height="6.44"/><rect class="cls-17" x="1909.96" y="1427.01" width="5.06" height="6.44"/><rect class="cls-17" x="1866.65" y="1427.01" width="5.06" height="6.44"/><rect class="cls-17" x="1875.31" y="1427.01" width="5.06" height="6.44"/><rect class="cls-17" x="1883.98" y="1427.01" width="5.06" height="6.44"/><rect class="cls-17" x="1918.63" y="1427.01" width="5.06" height="6.44"/><rect class="cls-17" x="1927.46" y="1436.68" width="5.06" height="6.44"/><rect class="cls-17" x="1936.13" y="1436.68" width="5.06" height="6.44"/><rect class="cls-17" x="1944.8" y="1436.68" width="5.06" height="6.44"/><rect class="cls-17" x="1953.47" y="1436.68" width="5.06" height="6.44"/><rect class="cls-17" x="1892.63" y="1436.68" width="5.06" height="6.44"/><rect class="cls-17" x="1901.29" y="1436.68" width="5.06" height="6.44"/><rect class="cls-17" x="1909.96" y="1436.68" width="5.06" height="6.44"/><rect class="cls-17" x="1866.65" y="1436.68" width="5.06" height="6.44"/><rect class="cls-17" x="1875.31" y="1436.68" width="5.06" height="6.44"/><rect class="cls-17" x="1883.98" y="1436.68" width="5.06" height="6.44"/><rect class="cls-17" x="1918.63" y="1436.68" width="5.06" height="6.44"/><rect class="cls-17" x="1927.46" y="1446.35" width="5.06" height="6.44"/><rect class="cls-17" x="1936.13" y="1446.35" width="5.06" height="6.44"/><rect class="cls-17" x="1944.8" y="1446.35" width="5.06" height="6.44"/><rect class="cls-17" x="1953.47" y="1446.35" width="5.06" height="6.44"/><rect class="cls-17" x="1892.63" y="1446.35" width="5.06" height="6.44"/><rect class="cls-17" x="1901.29" y="1446.35" width="5.06" height="6.44"/><rect class="cls-17" x="1909.96" y="1446.35" width="5.06" height="6.44"/><rect class="cls-17" x="1866.65" y="1446.35" width="5.06" height="6.44"/><rect class="cls-17" x="1875.31" y="1446.35" width="5.06" height="6.44"/><rect class="cls-17" x="1883.98" y="1446.35" width="5.06" height="6.44"/><rect class="cls-17" x="1918.63" y="1446.35" width="5.06" height="6.44"/><rect class="cls-17" x="1927.46" y="1456.01" width="5.06" height="6.44"/><rect class="cls-17" x="1936.13" y="1456.01" width="5.06" height="6.44"/><rect class="cls-17" x="1944.8" y="1456.01" width="5.06" height="6.44"/><rect class="cls-17" x="1953.47" y="1456.01" width="5.06" height="6.44"/><rect class="cls-17" x="1892.63" y="1456.01" width="5.06" height="6.44"/><rect class="cls-17" x="1901.29" y="1456.01" width="5.06" height="6.44"/><rect class="cls-17" x="1909.96" y="1456.01" width="5.06" height="6.44"/><rect class="cls-17" x="1866.65" y="1456.01" width="5.06" height="6.44"/><rect class="cls-17" x="1875.31" y="1456.01" width="5.06" height="6.44"/><rect class="cls-17" x="1883.98" y="1456.01" width="5.06" height="6.44"/><rect class="cls-17" x="1918.63" y="1456.01" width="5.06" height="6.44"/><rect class="cls-17" x="1927.46" y="1465.68" width="5.06" height="6.44"/><rect class="cls-17" x="1936.13" y="1465.68" width="5.06" height="6.44"/><rect class="cls-17" x="1944.8" y="1465.68" width="5.06" height="6.44"/><rect class="cls-17" x="1953.47" y="1465.68" width="5.06" height="6.44"/><rect class="cls-17" x="1892.63" y="1465.68" width="5.06" height="6.44"/><rect class="cls-17" x="1901.29" y="1465.68" width="5.06" height="6.44"/><rect class="cls-17" x="1909.96" y="1465.68" width="5.06" height="6.44"/><rect class="cls-17" x="1866.65" y="1465.68" width="5.06" height="6.44"/><rect class="cls-17" x="1875.31" y="1465.68" width="5.06" height="6.44"/><rect class="cls-17" x="1883.98" y="1465.68" width="5.06" height="6.44"/><rect class="cls-17" x="1918.63" y="1465.68" width="5.06" height="6.44"/><rect class="cls-8" x="2352.03" y="1057.69" width="54.22" height="6.31"/><rect class="cls-8" x="2332.6" y="1077.94" width="73.65" height="6.31"/><rect class="cls-8" x="2312.45" y="1098.2" width="93.79" height="6.31"/><rect class="cls-8" x="2312.45" y="1118.45" width="93.79" height="6.31"/><rect class="cls-8" x="2312.45" y="1138.7" width="93.79" height="6.31"/><rect class="cls-8" x="2312.45" y="1158.96" width="93.79" height="6.31"/><rect class="cls-8" x="2312.45" y="1179.21" width="93.79" height="6.31"/><rect class="cls-8" x="2312.45" y="1199.47" width="93.79" height="6.31"/><rect class="cls-8" x="2312.45" y="1219.72" width="93.79" height="6.31"/><rect class="cls-8" x="2312.45" y="1239.97" width="93.79" height="6.31"/><rect class="cls-8" x="2312.45" y="1260.23" width="93.79" height="6.31"/><rect class="cls-8" x="2312.45" y="1280.48" width="93.79" height="6.31"/><rect class="cls-8" x="2312.45" y="1301.35" width="93.79" height="6.31"/><rect class="cls-8" x="2312.45" y="1322.22" width="93.79" height="6.31"/><rect class="cls-8" x="2312.45" y="1343.08" width="93.79" height="6.31"/><rect class="cls-8" x="2312.45" y="1363.95" width="93.79" height="6.31"/><rect class="cls-8" x="2312.45" y="1384.82" width="93.79" height="6.31"/><rect class="cls-8" x="2312.45" y="1405.69" width="93.79" height="6.31"/><rect class="cls-8" x="2312.45" y="1426.55" width="93.79" height="6.31"/><rect class="cls-8" x="2312.45" y="1447.42" width="93.79" height="6.31"/><rect class="cls-8" x="2312.45" y="1468.29" width="93.79" height="6.31"/><rect class="cls-12" x="2965.33" y="1393.95" width="513.79" height="185.04"/><path class="cls-12" d="M2622.31,1421s-45.05-10.12-58.89-58.83v0c-13.84,48.71-58.89,58.83-58.89,58.83l-.26,73.65h118.33Z"/><rect class="cls-28" x="2999.86" y="1441.82" width="58" height="34.53"/><rect class="cls-28" x="2999.86" y="1482.18" width="58" height="34.53"/><rect class="cls-28" x="2999.86" y="1522.53" width="58" height="34.53"/><rect class="cls-28" x="3064.3" y="1441.82" width="58" height="34.53"/><rect class="cls-28" x="3064.3" y="1482.18" width="58" height="34.53"/><rect class="cls-28" x="3064.3" y="1522.53" width="58" height="34.53"/><rect class="cls-28" x="3320.78" y="1441.82" width="58" height="34.53"/><rect class="cls-28" x="3385.22" y="1441.82" width="58" height="34.53"/><rect class="cls-28" x="3385.22" y="1482.18" width="58" height="34.53"/><rect class="cls-29" x="3384.3" y="1522.53" width="58" height="34.53"/><rect class="cls-28" x="3128.74" y="1441.82" width="58" height="34.53"/><rect class="cls-29" x="3128.74" y="1482.18" width="58" height="34.53"/><rect class="cls-29" x="3128.74" y="1522.53" width="58" height="34.53"/><rect class="cls-28" x="3191.89" y="1441.82" width="58" height="34.53"/><rect class="cls-28" x="3191.89" y="1482.18" width="58" height="34.53"/><rect class="cls-29" x="3190.97" y="1522.53" width="58" height="34.53"/><rect class="cls-28" x="3256.33" y="1441.82" width="58" height="34.53"/><rect class="cls-28" x="3256.33" y="1482.18" width="58" height="34.53"/><rect class="cls-29" x="3255.41" y="1522.53" width="58" height="34.53"/><rect class="cls-28" x="3320.78" y="1482.18" width="58" height="34.53"/><rect class="cls-29" x="3319.86" y="1522.53" width="58" height="34.53"/><circle class="cls-30" cx="3193.04" cy="1572.71" r="25.55"/><path class="cls-18" d="M3530.45,1577.55a25.5,25.5,0,0,0-8.11,1.32,46.34,46.34,0,0,0-29.53-34c.08-.83.13-1.67.13-2.53a25.55,25.55,0,0,0-37.85-22.39,34.29,34.29,0,0,0-62.47-24.85,46.33,46.33,0,0,0-24.06-.37,25.54,25.54,0,0,0-41.12-7.38,46.27,46.27,0,0,0-65.2,14.23,34.33,34.33,0,0,0-35-11.3,53.41,53.41,0,0,0-47.89-36c-1-.06-2-.1-3.08-.1a52.46,52.46,0,0,0-43.79,23.53,53.15,53.15,0,0,0-9.15,29.9c0,1.14,0,2.27.12,3.39a45.81,45.81,0,0,0,9.24,90.67h54.55v-41.71c1.44-.29,2.86-.64,4.26-1,0,.62,0,1.23,0,1.86a46.26,46.26,0,0,0,84.23,26.41,53.39,53.39,0,0,0,94.42-2.38,46.38,46.38,0,0,0,9.84,1.06c.52,0,1,0,1.54,0a53.43,53.43,0,0,0,67.91,39.65,46.26,46.26,0,0,0,61.68-5.72,25.54,25.54,0,1,0,19.39-42.17Z"/><text class="cls-31" transform="translate(3017.36 1432.05)">ROD<tspan class="cls-32" x="97.3" y="0">E</tspan><tspan x="129.89" y="0">O</tspan></text><path class="cls-7" d="M2504.52,1421s-45.05-10.12-58.89-58.83v0c-13.84,48.71-58.89,58.83-58.89,58.83l-.26,73.65h118.33Z"/><path class="cls-19" d="M2949.84,1578.92H2604.16L2777,1262.65Zm-322.4-13.81h299.12L2777,1291.45Z"/><path class="cls-7" d="M2776.74,1463.59c-101.46,0-184-82.54-184-184s82.54-184,184-184,184,82.54,184,184S2878.2,1463.59,2776.74,1463.59Zm0-362.48c-98.41,0-178.48,80.07-178.48,178.48s80.07,178.48,178.48,178.48,178.48-80.07,178.48-178.48S2875.16,1101.11,2776.74,1101.11Z"/><circle class="cls-7" cx="2776.74" cy="1279.59" r="19.93"/><path class="cls-7" d="M2776.74,1375.94a96.35,96.35,0,1,1,96.35-96.35A96.46,96.46,0,0,1,2776.74,1375.94Zm0-189.93a93.59,93.59,0,1,0,93.59,93.59A93.69,93.69,0,0,0,2776.74,1186Z"/><rect class="cls-7" x="2775.36" y="1098.35" width="2.76" height="362.48"/><rect class="cls-7" x="2595.5" y="1278.21" width="362.48" height="2.76"/><rect class="cls-7" x="2775.36" y="1098.35" width="2.76" height="362.48" transform="translate(-91.52 2338.23) rotate(-45)"/><rect class="cls-7" x="2595.5" y="1278.21" width="362.48" height="2.76" transform="translate(-91.52 2338.24) rotate(-45)"/><rect class="cls-7" x="2775.36" y="1098.35" width="2.76" height="362.48" transform="translate(-277.5 1140.84) rotate(-22.14)"/><rect class="cls-7" x="2595.5" y="1278.21" width="362.48" height="2.76" transform="translate(-277.5 1140.86) rotate(-22.14)"/><rect class="cls-7" x="2775.36" y="1098.35" width="2.76" height="362.48" transform="translate(518.96 3341.16) rotate(-67.14)"/><rect class="cls-7" x="2595.5" y="1278.21" width="362.48" height="2.76" transform="translate(518.39 3340.54) rotate(-67.12)"/><rect class="cls-7" x="2775.36" y="1214.62" width="2.76" height="129.94" transform="translate(-192.46 550.55) rotate(-10.95)"/><rect class="cls-7" x="2711.77" y="1278.21" width="129.94" height="2.76" transform="translate(-192.62 551.2) rotate(-10.96)"/><rect class="cls-7" x="2775.36" y="1214.62" width="2.76" height="129.94" transform="translate(161.69 2863.62) rotate(-55.95)"/><rect class="cls-7" x="2711.77" y="1278.21" width="129.94" height="2.76" transform="matrix(0.56, -0.83, 0.83, 0.56, 162.02, 2864.17)"/><rect class="cls-7" x="2775.36" y="1214.62" width="2.76" height="129.94" transform="translate(-248.28 1723.34) rotate(-33.09)"/><rect class="cls-7" x="2711.77" y="1278.21" width="129.94" height="2.76" transform="translate(-248.17 1724.06) rotate(-33.1)"/><rect class="cls-7" x="2775.36" y="1214.62" width="2.76" height="129.94" transform="translate(951.49 3732.37) rotate(-78.09)"/><rect class="cls-7" x="2711.77" y="1278.21" width="129.94" height="2.76" transform="translate(951.66 3732.49) rotate(-78.09)"/><path class="cls-18" d="M2764.57,1115.36v7.13a9,9,0,0,0,9,9h6.4a9,9,0,0,0,9-9v-7.13Z"/><path class="cls-18" d="M2789.77,1107.57c-1.86-4-6.88-6.92-12.8-6.92s-10.94,2.89-12.8,6.93C2772.7,1107.54,2781.24,1107.49,2789.77,1107.57Z"/><path class="cls-18" d="M2831.78,1130.09v7.13a9,9,0,0,0,9,9h6.4a9,9,0,0,0,9-9v-7.13Z"/><path class="cls-18" d="M2857,1122.3c-1.86-4-6.88-6.92-12.8-6.92s-10.94,2.89-12.8,6.93C2839.91,1122.27,2848.44,1122.22,2857,1122.3Z"/><path class="cls-18" d="M2886.3,1165.59v7.13a9,9,0,0,0,9,9h6.4a9,9,0,0,0,9-9v-7.13Z"/><path class="cls-18" d="M2911.49,1157.8c-1.86-4-6.88-6.92-12.8-6.92s-10.94,2.89-12.8,6.93C2894.43,1157.77,2903,1157.72,2911.49,1157.8Z"/><path class="cls-18" d="M2929.57,1222.06v7.13a9,9,0,0,0,9,9h6.4a9,9,0,0,0,9-9v-7.13Z"/><path class="cls-18" d="M2954.76,1214.27c-1.86-4-6.88-6.92-12.8-6.92s-10.94,2.89-12.8,6.93C2937.7,1214.25,2946.23,1214.19,2954.76,1214.27Z"/><path class="cls-18" d="M2945.68,1288.61v7.13a9,9,0,0,0,9,9h6.4a9,9,0,0,0,9-9v-7.13Z"/><path class="cls-18" d="M2970.87,1280.81c-1.86-4-6.88-6.92-12.8-6.92s-10.94,2.89-12.8,6.93C2953.81,1280.79,2962.34,1280.74,2970.87,1280.81Z"/><path class="cls-18" d="M2934.32,1358.32v7.13a9,9,0,0,0,9,9h6.4a9,9,0,0,0,9-9v-7.13Z"/><path class="cls-18" d="M2959.51,1350.52c-1.86-4-6.88-6.92-12.8-6.92s-10.94,2.89-12.8,6.93C2942.45,1350.5,2951,1350.45,2959.51,1350.52Z"/><path class="cls-18" d="M2894.53,1416.06v7.13a9,9,0,0,0,9,9h6.4a9,9,0,0,0,9-9v-7.13Z"/><path class="cls-18" d="M2919.72,1408.26c-1.86-4-6.88-6.92-12.8-6.92s-10.94,2.89-12.8,6.93C2902.66,1408.24,2911.19,1408.19,2919.72,1408.26Z"/><path class="cls-18" d="M2834,1454.67v7.13a9,9,0,0,0,9,9h6.4a9,9,0,0,0,9-9v-7.13Z"/><path class="cls-18" d="M2859.22,1446.87c-1.86-4-6.88-6.92-12.8-6.92s-10.94,2.89-12.8,6.93C2842.16,1446.85,2850.69,1446.8,2859.22,1446.87Z"/><path class="cls-18" d="M2720.06,1130.09v7.13a9,9,0,0,1-9,9h-6.4a9,9,0,0,1-9-9v-7.13Z"/><path class="cls-18" d="M2694.87,1122.3c1.86-4,6.88-6.92,12.8-6.92s10.94,2.89,12.8,6.93C2711.93,1122.27,2703.4,1122.22,2694.87,1122.3Z"/><path class="cls-18" d="M2665.54,1165.59v7.13a9,9,0,0,1-9,9h-6.4a9,9,0,0,1-9-9v-7.13Z"/><path class="cls-18" d="M2640.35,1157.8c1.86-4,6.88-6.92,12.8-6.92s10.94,2.89,12.8,6.93C2657.41,1157.77,2648.88,1157.72,2640.35,1157.8Z"/><path class="cls-18" d="M2622.27,1222.06v7.13a9,9,0,0,1-9,9h-6.4a9,9,0,0,1-9-9v-7.13Z"/><path class="cls-18" d="M2597.08,1214.27c1.86-4,6.88-6.92,12.8-6.92s10.94,2.89,12.8,6.93C2614.14,1214.25,2605.61,1214.19,2597.08,1214.27Z"/><path class="cls-18" d="M2606.16,1288.61v7.13a9,9,0,0,1-9,9h-6.4a9,9,0,0,1-9-9v-7.13Z"/><path class="cls-18" d="M2581,1280.81c1.86-4,6.88-6.92,12.8-6.92s10.94,2.89,12.8,6.93C2598,1280.79,2589.5,1280.74,2581,1280.81Z"/><path class="cls-18" d="M2617.52,1358.32v7.13a9,9,0,0,1-9,9h-6.4a9,9,0,0,1-9-9v-7.13Z"/><path class="cls-18" d="M2592.33,1350.52c1.86-4,6.88-6.92,12.8-6.92s10.94,2.89,12.8,6.93C2609.39,1350.5,2600.86,1350.45,2592.33,1350.52Z"/><path class="cls-18" d="M2657.31,1416.06v7.13a9,9,0,0,1-9,9h-6.4a9,9,0,0,1-9-9v-7.13Z"/><path class="cls-18" d="M2632.12,1408.26c1.86-4,6.88-6.92,12.8-6.92s10.94,2.89,12.8,6.93C2649.18,1408.24,2640.65,1408.19,2632.12,1408.26Z"/><path class="cls-18" d="M2717.82,1454.67v7.13a9,9,0,0,1-9,9h-6.4a9,9,0,0,1-9-9v-7.13Z"/><path class="cls-18" d="M2692.62,1446.87c1.86-4,6.88-6.92,12.8-6.92s10.94,2.89,12.8,6.93C2709.68,1446.85,2701.15,1446.8,2692.62,1446.87Z"/><path class="cls-18" d="M2764.57,1469.35v7.13a9,9,0,0,0,9,9h6.4a9,9,0,0,0,9-9v-7.13Z"/><path class="cls-18" d="M2789.77,1461.55c-1.86-4-6.88-6.92-12.8-6.92s-10.94,2.89-12.8,6.93C2772.7,1461.53,2781.24,1461.47,2789.77,1461.55Z"/><polygon class="cls-28" points="2564 1361.65 2564 1352.67 2542.37 1358.2 2564 1361.65"/><polygon class="cls-12" points="2446.16 1361.96 2446.16 1352.98 2424.53 1358.5 2446.16 1361.96"/><polygon class="cls-28" points="2443.78 1440.36 2447.9 1462.38 2452.03 1484.4 2443.78 1484.4 2435.54 1484.4 2439.66 1462.38 2443.78 1440.36"/><polygon class="cls-28" points="2564.38 1441.28 2569.07 1466.3 2573.75 1491.31 2564.38 1491.31 2555.02 1491.31 2559.7 1466.3 2564.38 1441.28"/><path class="cls-12" d="M2386.7,1421.48v3.71a4.53,4.53,0,0,0,9.06,0v-3.71Z"/><path class="cls-12" d="M2395.77,1421.48v3.71a4.53,4.53,0,0,0,9.06,0v-3.71Z"/><path class="cls-12" d="M2404.83,1421.48v3.71a4.53,4.53,0,0,0,9.06,0v-3.71Z"/><path class="cls-12" d="M2413.9,1421.48v3.71a4.53,4.53,0,0,0,9.06,0v-3.71Z"/><path class="cls-12" d="M2423,1421.48v3.71a4.53,4.53,0,0,0,9.06,0v-3.71Z"/><path class="cls-12" d="M2432,1421.48v3.71a4.53,4.53,0,0,0,9.06,0v-3.71Z"/><path class="cls-12" d="M2441.09,1421.48v3.71a4.53,4.53,0,0,0,9.06,0v-3.71Z"/><path class="cls-12" d="M2450.16,1421.48v3.71a4.53,4.53,0,0,0,9.06,0v-3.71Z"/><path class="cls-12" d="M2459.22,1421.48v3.71a4.53,4.53,0,0,0,9.06,0v-3.71Z"/><path class="cls-12" d="M2468.28,1421.48v3.71a4.53,4.53,0,0,0,9.06,0v-3.71Z"/><path class="cls-12" d="M2477.35,1421.48v3.71a4.53,4.53,0,0,0,9.06,0v-3.71Z"/><path class="cls-12" d="M2486.41,1421.48v3.71a4.53,4.53,0,0,0,9.06,0v-3.71Z"/><path class="cls-12" d="M2495.48,1421.48v3.71a4.53,4.53,0,0,0,9.06,0v-3.71Z"/><path class="cls-7" d="M2504.54,1421.48v3.71a4.53,4.53,0,0,0,9.06,0v-3.71Z"/><path class="cls-7" d="M2513.61,1421.48v3.71a4.53,4.53,0,0,0,9.06,0v-3.71Z"/><path class="cls-7" d="M2522.67,1421.48v3.71a4.53,4.53,0,0,0,9.06,0v-3.71Z"/><path class="cls-7" d="M2531.74,1421.48v3.71a4.53,4.53,0,0,0,9.06,0v-3.71Z"/><path class="cls-7" d="M2540.8,1421.48v3.71a4.53,4.53,0,0,0,9.06,0v-3.71Z"/><path class="cls-7" d="M2549.87,1421.48v3.71a4.53,4.53,0,0,0,9.06,0v-3.71Z"/><path class="cls-7" d="M2558.93,1421.48v3.71a4.53,4.53,0,0,0,9.06,0v-3.71Z"/><path class="cls-7" d="M2568,1421.48v3.71a4.53,4.53,0,0,0,9.06,0v-3.71Z"/><path class="cls-7" d="M2577.06,1421.48v3.71a4.53,4.53,0,0,0,9.06,0v-3.71Z"/><path class="cls-7" d="M2586.13,1421.48v3.71a4.53,4.53,0,0,0,9.06,0v-3.71Z"/><path class="cls-7" d="M2595.19,1421.48v3.71a4.53,4.53,0,0,0,9.06,0v-3.71Z"/><path class="cls-7" d="M2604.25,1421.48v3.71a4.53,4.53,0,0,0,9.06,0v-3.71Z"/><path class="cls-7" d="M2613.32,1421.48v3.71a4.53,4.53,0,0,0,9.06,0v-3.71Z"/><path class="cls-7" d="M3258.63,1307.77v.41q-18-1.27-36.82-1.29-18.32,0-36,1.23v-.35c-185.35,13.63-220.5,86.18-220.5,86.18h513.79S3444,1321.39,3258.63,1307.77Z"/><circle class="cls-30" cx="572.01" cy="1630.44" r="25.55" transform="translate(-1065.57 2181.67) rotate(-89.27)"/><text class="cls-33" transform="translate(3017.36 1432.05)">ROD<tspan class="cls-32" x="97.3" y="0">E</tspan><tspan x="129.89" y="0" xml:space="preserve">O  H</tspan><tspan class="cls-34" x="226.39" y="0">OU</tspan><tspan class="cls-35" x="289.43" y="0">S</tspan><tspan class="cls-36" x="316.87" y="0">TON</tspan></text><rect class="cls-7" x="299.26" y="1098.63" width="371.46" height="350.95"/><rect class="cls-1" x="670.72" y="1098.63" width="75.06" height="349.19" transform="translate(1416.49 2546.44) rotate(180)"/><rect class="cls-20" x="563.28" y="1381.06" width="51.77" height="68.35"/><rect class="cls-20" x="354.94" y="1381.06" width="51.77" height="68.35"/><path class="cls-23" d="M743.59,1444.5c-31.17,0-31.17-5.92-62.34-5.92s-31.17,5.92-62.34,5.92-31.17-5.92-62.34-5.92-31.17,5.92-62.34,5.92-31.17-5.92-62.34-5.92-31.17,5.92-62.34,5.92-31.17-5.92-62.34-5.92-31.17,5.92-62.34,5.92a128.55,128.55,0,0,1-27.54-2.49v8H800.59v-11.36C774.65,1439.28,772.87,1444.5,743.59,1444.5Z"/><path class="cls-23" d="M250.21,1444.44c-31.17,0-31.17-5.92-62.34-5.92s-31.17,5.92-62.34,5.92-31.17-5.92-62.34-5.92S32,1444.44.85,1444.44v5.51H307.21v-11.36C281.26,1439.22,279.48,1444.44,250.21,1444.44Z"/><rect class="cls-19" x="354.94" y="1268.3" width="260.11" height="9.67" transform="translate(969.98 2546.27) rotate(180)"/><rect class="cls-19" x="354.94" y="1298.68" width="260.11" height="9.67" transform="translate(969.98 2607.03) rotate(180)"/><rect class="cls-19" x="354.94" y="1329.06" width="260.11" height="9.67" transform="translate(969.98 2667.79) rotate(180)"/><rect class="cls-19" x="430.43" y="1359.44" width="109.12" height="9.67" transform="translate(969.98 2728.55) rotate(180)"/><rect class="cls-19" x="430.43" y="1389.82" width="109.12" height="9.67" transform="translate(969.98 2789.31) rotate(180)"/><rect class="cls-19" x="430.43" y="1420.2" width="109.12" height="9.67" transform="translate(969.98 2850.07) rotate(180)"/><rect class="cls-19" x="355.88" y="1134.72" width="258.22" height="107.34"/><rect class="cls-1" x="400.07" y="1160.5" width="213.14" height="81.57"/><g class="cls-37"><rect class="cls-3" x="2788.98" y="1626.33" width="5.67" height="8.59"/><rect class="cls-3" x="2778.86" y="1626.33" width="5.67" height="8.59"/><rect class="cls-3" x="2748.48" y="1626.33" width="5.67" height="8.59"/><rect class="cls-3" x="2768.73" y="1626.33" width="5.67" height="8.59"/><rect class="cls-3" x="2799.11" y="1626.33" width="5.67" height="8.59"/><rect class="cls-3" x="2758.6" y="1626.33" width="5.67" height="8.59"/><rect class="cls-3" x="2839.62" y="1626.33" width="5.67" height="8.59"/><rect class="cls-3" x="2849.74" y="1626.33" width="5.67" height="8.59"/><rect class="cls-3" x="2809.24" y="1626.33" width="5.67" height="8.59"/><rect class="cls-3" x="2819.36" y="1626.33" width="5.67" height="8.59"/><rect class="cls-3" x="2829.49" y="1626.33" width="5.67" height="8.59"/></g><path class="cls-38" d="M3779.61,1642c-408.54-65.19-1068.24-174.37-1787.71-174.37-718,0-1365.92,108.48-1774.56,173.45v.92Z"/><rect class="cls-39" y="1641.98" width="4000" height="858.02"/><path class="cls-40" d="M4000,1641.06c-458.35-.23-1200.19-.38-2007.38-.38-805.58,0-1534.15.15-1992.62.38"/><path class="cls-40" d="M4000,2007.1c-459-1.68-1206.64-2.77-2015-2.77-806.77,0-1525.83,1.08-1985,2.76"/></g></g></svg>