<?xml version="1.0" encoding="utf-8"?>
<!-- Generator: Adobe Illustrator 17.0.0, SVG Export Plug-In . SVG Version: 6.00 Build 0)  -->
<!DOCTYPE svg PUBLIC "-//W3C//DTD SVG 1.1//EN" "http://www.w3.org/Graphics/SVG/1.1/DTD/svg11.dtd">
<svg version="1.1" id="Layer_1" xmlns="http://www.w3.org/2000/svg" xmlns:xlink="http://www.w3.org/1999/xlink" x="0px" y="0px"
	 width="2592px" height="1580.391px" viewBox="0 0 2592 1580.391" enable-background="new 0 0 2592 1580.391" xml:space="preserve">
<g id="Sky">
	<rect x="-399.782" y="-424.014" fill="#ACE0F4" width="3562.164" height="858.361"/>
	
		<linearGradient id="SVGID_1_" gradientUnits="userSpaceOnUse" x1="1000.894" y1="1375.54" x2="1000.894" y2="1271.319" gradientTransform="matrix(1 0 0 -1 -292.5 1450)">
		<stop  offset="0" style="stop-color:#C5E9F3"/>
		<stop  offset="0.9949" style="stop-color:#A7DEF1"/>
	</linearGradient>
	<path fill="url(#SVGID_1_)" d="M1016.718,157.298H450.643H400.07c0,0,15.025-40.694,50.575-59.536
		c10.709-5.676,23.28-9.369,37.864-9.369c62.997,0,83.593,47.883,134.475,47.883C673.867,136.276,709,30,827.726,30
		S1016.718,157.298,1016.718,157.298z"/>
	
		<linearGradient id="SVGID_2_" gradientUnits="userSpaceOnUse" x1="2086.8845" y1="1305.6897" x2="2086.8845" y2="1204.8239" gradientTransform="matrix(1 0 0 -1 -292.5 1450)">
		<stop  offset="0" style="stop-color:#C5E9F3"/>
		<stop  offset="0.9949" style="stop-color:#A7DEF1"/>
	</linearGradient>
	<path fill="url(#SVGID_2_)" d="M2231.288,236.58h-873.807c0,0,62.994-114.036,142.434-114.036s57.614,31.36,134.432,31.36
		s82.572-112.611,204.524-112.611s124.744,120.774,179.09,133.993c52.912,12.87,54.889-22.807,117.304-22.807
		S2231.288,236.58,2231.288,236.58z"/>
	
		<linearGradient id="SVGID_3_" gradientUnits="userSpaceOnUse" x1="2674.1318" y1="1267.6064" x2="2674.1318" y2="1120.9502" gradientTransform="matrix(1 0 0 -1 -292.5 1450)">
		<stop  offset="0" style="stop-color:#C5E9F3"/>
		<stop  offset="0.9949" style="stop-color:#A7DEF1"/>
	</linearGradient>
	<path fill="url(#SVGID_3_)" d="M2571.323,341.312h-379.382c0,0,7.652-123.003,108.884-123.003
		c41.422,0,64.528,16.493,77.373,35.983c15.185,23.041,44.932,31.999,69.702,19.836c11.531-5.662,24.107-9.557,36.886-9.557
		C2531.592,264.572,2571.323,341.312,2571.323,341.312z"/>
	
		<linearGradient id="SVGID_4_" gradientUnits="userSpaceOnUse" x1="495.68" y1="1298.5289" x2="495.68" y2="1149.1755" gradientTransform="matrix(1 0 0 -1 -292.5 1450)">
		<stop  offset="0" style="stop-color:#C5E9F3"/>
		<stop  offset="0.9949" style="stop-color:#A7DEF1"/>
	</linearGradient>
	<path fill="url(#SVGID_4_)" d="M396.36,313.313H10c0,0,7.792-125.265,110.887-125.265c42.184,0,65.715,16.797,78.796,36.645
		c15.464,23.465,45.759,32.588,70.984,20.201c11.743-5.767,24.551-9.733,37.565-9.733C355.898,235.16,396.36,313.313,396.36,313.313
		z"/>
</g>
<g id="Background" display="none">
</g>
<g id="Scene">
	<g>
		<g>
			<defs>
				<polyline id="SVGID_5_" points="3164.929,-439.747 -399.071,-439.747 -399.071,1345.253 3164.929,1345.253 				"/>
			</defs>
			<clipPath id="SVGID_6_">
				<use xlink:href="#SVGID_5_"  overflow="visible"/>
			</clipPath>
			<g clip-path="url(#SVGID_6_)">
				<g>
					<circle fill="#88B6C6" cx="790.924" cy="295.56" r="16.554"/>
					<circle fill="#88B6C6" cx="868.12" cy="275.125" r="16.554"/>
					<circle fill="#88B6C6" cx="871.81" cy="295.56" r="16.554"/>
					<circle fill="#88B6C6" cx="939.072" cy="305.429" r="16.554"/>
					<circle fill="#88B6C6" cx="905.299" cy="288.875" r="25.161"/>
					<circle fill="#88B6C6" cx="833.313" cy="280.405" r="33.631"/>
				</g>
				<g>
					<g>
						<circle fill="#88B6C6" cx="-284.542" cy="295.56" r="16.554"/>
						<circle fill="#88B6C6" cx="-361.738" cy="275.125" r="16.554"/>
						<circle fill="#88B6C6" cx="-365.427" cy="295.56" r="16.554"/>
						<circle fill="#88B6C6" cx="-432.689" cy="305.429" r="16.554"/>
						<circle fill="#88B6C6" cx="-398.916" cy="288.875" r="25.161"/>
						<circle fill="#88B6C6" cx="-326.931" cy="280.405" r="33.631"/>
					</g>
					<circle fill="#88B6C6" cx="492.178" cy="246.774" r="25.472"/>
					<circle fill="#88B6C6" cx="415.55" cy="289.345" r="25.472"/>
					<circle fill="#88B6C6" cx="453.012" cy="285.939" r="25.472"/>
					<circle fill="#88B6C6" cx="388.304" cy="308.076" r="25.472"/>
					<circle fill="#88B6C6" cx="459.824" cy="299.562" r="25.472"/>
					<circle fill="#88B6C6" cx="481.96" cy="267.208" r="25.472"/>
					<circle fill="#88B6C6" cx="515.335" cy="269.975" r="16.63"/>
					<circle fill="#88B6C6" cx="492.178" cy="280.405" r="25.472"/>
					<circle fill="#88B6C6" cx="559.156" cy="307.651" r="28.097"/>
					<circle fill="#88B6C6" cx="536.167" cy="282.108" r="9.933"/>
					<circle fill="#88B6C6" cx="521.126" cy="300.358" r="22.421"/>
				</g>
				<g>
					<circle fill="#88B6C6" cx="2353.731" cy="278.587" r="21.771"/>
					<circle fill="#88B6C6" cx="2268.694" cy="271.776" r="21.771"/>
					<circle fill="#88B6C6" cx="2074.996" cy="266.988" r="21.771"/>
					<circle fill="#88B6C6" cx="1984.745" cy="300.358" r="21.771"/>
					<circle fill="#88B6C6" cx="2012.842" cy="293.547" r="21.771"/>
					<circle fill="#88B6C6" cx="2029.871" cy="275.338" r="21.771"/>
					<circle fill="#88B6C6" cx="2050.625" cy="262.731" r="16.274"/>
					<circle fill="#88B6C6" cx="2419.794" cy="300.272" r="16.274"/>
					<circle fill="#88B6C6" cx="2002.251" cy="278.587" r="10.591"/>
					<circle fill="#88B6C6" cx="2149.921" cy="296.101" r="21.771"/>
					<circle fill="#88B6C6" cx="2235.324" cy="286.937" r="21.771"/>
					<circle fill="#88B6C6" cx="2253.04" cy="300.358" r="21.771"/>
					<circle fill="#88B6C6" cx="2308.18" cy="262.731" r="33.37"/>
					<circle fill="#88B6C6" cx="1941.085" cy="312.114" r="33.37"/>
					<circle fill="#88B6C6" cx="2102.562" cy="298.535" r="33.37"/>
					<circle fill="#88B6C6" cx="2050.625" cy="300.358" r="33.37"/>
					<circle fill="#88B6C6" cx="2200.05" cy="308.708" r="39.84"/>
					<circle fill="#88B6C6" cx="2375.442" cy="312.114" r="39.84"/>
					<circle fill="#88B6C6" cx="2341.55" cy="308.708" r="33.37"/>
					<circle fill="#88B6C6" cx="2290.465" cy="308.708" r="33.37"/>
				</g>
				<g>
					<circle fill="#88B6C6" cx="3019.078" cy="246.774" r="25.472"/>
					<circle fill="#88B6C6" cx="2942.45" cy="289.345" r="25.472"/>
					<circle fill="#88B6C6" cx="2979.913" cy="285.939" r="25.472"/>
					<circle fill="#88B6C6" cx="2915.205" cy="308.076" r="25.472"/>
					<circle fill="#88B6C6" cx="2986.724" cy="299.562" r="25.472"/>
					<circle fill="#88B6C6" cx="3008.861" cy="267.208" r="25.472"/>
					<circle fill="#88B6C6" cx="3042.235" cy="269.975" r="16.63"/>
					<circle fill="#88B6C6" cx="3019.078" cy="280.405" r="25.472"/>
					<circle fill="#88B6C6" cx="3086.056" cy="307.651" r="28.097"/>
					<circle fill="#88B6C6" cx="3063.068" cy="282.108" r="9.933"/>
					<circle fill="#88B6C6" cx="3048.026" cy="300.358" r="22.421"/>
				</g>
				
					<linearGradient id="SVGID_7_" gradientUnits="userSpaceOnUse" x1="-304.869" y1="1006.091" x2="3659.4019" y2="1006.091" gradientTransform="matrix(1 0 0 -1 -292.5 1450)">
					<stop  offset="0" style="stop-color:#CAEBF9"/>
					<stop  offset="0.9949" style="stop-color:#DAF1FA"/>
				</linearGradient>
				<rect x="-597.369" y="301.276" fill="url(#SVGID_7_)" width="3964.271" height="285.266"/>
				<g>
					<g>
						<path fill="#88B6C6" d="M2357.427,427.527v-130.57c0-4.853,3.936-8.788,8.788-8.788s8.788,3.936,8.788,8.788v130.57"/>
					</g>
					<g>
						<path fill="#88B6C6" d="M2380.614,384.421h-30.473c-14.445,0-26.196-11.751-26.196-26.196v-22.768
							c0-4.853,3.936-8.788,8.788-8.788s8.788,3.936,8.788,8.788v22.768c0,4.752,3.867,8.619,8.619,8.619h30.473
							c4.752,0,8.617-3.867,8.617-8.619v-36.159c0-4.853,3.936-8.788,8.788-8.788s8.788,3.936,8.788,8.788v36.159
							C2406.807,372.671,2395.057,384.421,2380.614,384.421z"/>
					</g>
				</g>
				<rect x="-597.369" y="462.972" fill="#88B6C6" width="3964.271" height="989.536"/>
				
					<line opacity="0.25" fill="none" stroke="#88B6C6" stroke-width="5" stroke-linecap="round" stroke-miterlimit="10" enable-background="new    " x1="513.464" y1="373.222" x2="655.874" y2="373.222"/>
				
					<line opacity="0.25" fill="none" stroke="#88B6C6" stroke-width="5" stroke-linecap="round" stroke-miterlimit="10" enable-background="new    " x1="-50.034" y1="408.847" x2="434.281" y2="408.847"/>
				
					<line opacity="0.25" fill="none" stroke="#88B6C6" stroke-width="5" stroke-linecap="round" stroke-miterlimit="10" enable-background="new    " x1="402.495" y1="324.287" x2="570.508" y2="324.287"/>
				
					<line opacity="0.25" fill="none" stroke="#88B6C6" stroke-width="5" stroke-linecap="round" stroke-miterlimit="10" enable-background="new    " x1="728.589" y1="343.694" x2="896.602" y2="343.694"/>
				
					<line opacity="0.25" fill="none" stroke="#88B6C6" stroke-width="5" stroke-linecap="round" stroke-miterlimit="10" enable-background="new    " x1="957.035" y1="367.538" x2="1071.125" y2="367.538"/>
				
					<line opacity="0.25" fill="none" stroke="#88B6C6" stroke-width="5" stroke-linecap="round" stroke-miterlimit="10" enable-background="new    " x1="265.447" y1="451.822" x2="560.291" y2="451.822"/>
				
					<line opacity="0.25" fill="none" stroke="#88B6C6" stroke-width="5" stroke-linecap="round" stroke-miterlimit="10" enable-background="new    " x1="-39.881" y1="506.542" x2="517.65" y2="506.542"/>
				
					<line opacity="0.25" fill="none" stroke="#88B6C6" stroke-width="5" stroke-linecap="round" stroke-miterlimit="10" enable-background="new    " x1="761.762" y1="429.331" x2="929.775" y2="429.331"/>
				
					<line opacity="0.25" fill="none" stroke="#88B6C6" stroke-width="5" stroke-linecap="round" stroke-miterlimit="10" enable-background="new    " x1="1399.509" y1="455.138" x2="1567.522" y2="455.138"/>
				
					<line opacity="0.25" fill="none" stroke="#88B6C6" stroke-width="5" stroke-linecap="round" stroke-miterlimit="10" enable-background="new    " x1="1510.477" y1="360.988" x2="1624.567" y2="360.988"/>
				
					<line opacity="0.25" fill="none" stroke="#88B6C6" stroke-width="5" stroke-linecap="round" stroke-miterlimit="10" enable-background="new    " x1="1944.701" y1="350.506" x2="2063.9" y2="350.506"/>
				
					<line opacity="0.25" fill="none" stroke="#88B6C6" stroke-width="5" stroke-linecap="round" stroke-miterlimit="10" enable-background="new    " x1="2321.029" y1="336.031" x2="2669.579" y2="336.031"/>
				
					<line opacity="0.25" fill="none" stroke="#88B6C6" stroke-width="5" stroke-linecap="round" stroke-miterlimit="10" enable-background="new    " x1="1802.514" y1="420.006" x2="2601.555" y2="420.006"/>
				
					<line opacity="0.25" fill="none" stroke="#88B6C6" stroke-width="5" stroke-linecap="round" stroke-miterlimit="10" enable-background="new    " x1="681.756" y1="409.299" x2="824.166" y2="409.299"/>
				
					<line opacity="0.25" fill="none" stroke="#88B6C6" stroke-width="5" stroke-linecap="round" stroke-miterlimit="10" enable-background="new    " x1="1289.424" y1="397.689" x2="1431.835" y2="397.689"/>
				
					<line opacity="0.25" fill="none" stroke="#88B6C6" stroke-width="5" stroke-linecap="round" stroke-miterlimit="10" enable-background="new    " x1="3299.626" y1="416.286" x2="3131.613" y2="416.286"/>
				
					<line opacity="0.25" fill="none" stroke="#88B6C6" stroke-width="5" stroke-linecap="round" stroke-miterlimit="10" enable-background="new    " x1="3368.159" y1="343.694" x2="2810.627" y2="343.694"/>
				
					<line opacity="0.25" fill="none" stroke="#88B6C6" stroke-width="5" stroke-linecap="round" stroke-miterlimit="10" enable-background="new    " x1="2936.921" y1="440.488" x2="2768.908" y2="440.488"/>
				
					<line opacity="0.25" fill="none" stroke="#88B6C6" stroke-width="5" stroke-linecap="round" stroke-miterlimit="10" enable-background="new    " x1="3126.771" y1="417.096" x2="2984.361" y2="417.096"/>
				
					<line opacity="0.25" fill="none" stroke="#88B6C6" stroke-width="5" stroke-linecap="round" stroke-miterlimit="10" enable-background="new    " x1="2738.791" y1="379.32" x2="2596.381" y2="379.32"/>
				
					<line opacity="0.25" fill="none" stroke="#88B6C6" stroke-width="5" stroke-linecap="round" stroke-miterlimit="10" enable-background="new    " x1="2038.442" y1="382.681" x2="2180.852" y2="382.681"/>
				
					<line opacity="0.25" fill="none" stroke="#88B6C6" stroke-width="5" stroke-linecap="round" stroke-miterlimit="10" enable-background="new    " x1="2064.863" y1="473.241" x2="2207.273" y2="473.241"/>
				
					<line opacity="0.25" fill="none" stroke="#88B6C6" stroke-width="5" stroke-linecap="round" stroke-miterlimit="10" enable-background="new    " x1="-461.654" y1="350.506" x2="-342.455" y2="350.506"/>
				
					<line opacity="0.25" fill="none" stroke="#88B6C6" stroke-width="5" stroke-linecap="round" stroke-miterlimit="10" enable-background="new    " x1="175.235" y1="336.031" x2="342.413" y2="336.031"/>
				
					<line opacity="0.25" fill="none" stroke="#88B6C6" stroke-width="5" stroke-linecap="round" stroke-miterlimit="10" enable-background="new    " x1="-159.007" y1="374.297" x2="81.853" y2="374.297"/>
				
					<line opacity="0.25" fill="none" stroke="#88B6C6" stroke-width="5" stroke-linecap="round" stroke-miterlimit="10" enable-background="new    " x1="-603.841" y1="471.091" x2="81.853" y2="471.091"/>
				
					<line opacity="0.25" fill="none" stroke="#88B6C6" stroke-width="5" stroke-linecap="round" stroke-miterlimit="10" enable-background="new    " x1="-341.493" y1="422.156" x2="-199.082" y2="422.156"/>
				
					<line opacity="0.25" fill="none" stroke="#88B6C6" stroke-width="5" stroke-linecap="round" stroke-miterlimit="10" enable-background="new    " x1="2348.842" y1="499.788" x2="2468.041" y2="499.788"/>
				<path fill="#88B6C6" d="M-338.597,306.687c-4.779,0-8.654,3.876-8.654,8.654v33.163c0,5.119-4.163,9.282-9.282,9.282h-6.377
					v-50.689c0-4.779-3.876-8.654-8.654-8.654s-8.654,3.876-8.654,8.654v70.47h-9.675c-5.119,0-9.282-4.163-9.282-9.282v-15.031
					c0-4.779-3.875-8.654-8.654-8.654s-8.654,3.876-8.654,8.654v15.031c0,14.662,11.929,26.59,26.591,26.59h9.675v34.206
					c0,4.779,3.876,8.654,8.654,8.654s8.654-3.876,8.654-8.654v-53.987h6.377c14.662,0,26.591-11.929,26.591-26.59v-33.163
					C-329.943,310.562-333.818,306.687-338.597,306.687z"/>
				<g>
					<g>
						<path fill="#88B6C6" d="M-35.835,358.779c-3.502,0-6.341-2.84-6.341-6.341v-94.216c0-3.502,2.84-6.341,6.341-6.341
							s6.341,2.84,6.341,6.341v94.216C-29.494,355.939-32.334,358.779-35.835,358.779z"/>
					</g>
					<g>
						<path fill="#88B6C6" d="M-25.445,321.334h-21.988c-10.423,0-18.902-8.479-18.902-18.902v-16.429
							c0-3.502,2.84-6.341,6.341-6.341c3.502,0,6.341,2.84,6.341,6.341v16.429c0,3.429,2.79,6.219,6.219,6.219h21.988
							c3.429,0,6.218-2.79,6.218-6.219V276.34c0-3.502,2.84-6.341,6.341-6.341s6.341,2.84,6.341,6.341v26.091
							C-6.545,312.855-15.024,321.334-25.445,321.334z"/>
					</g>
				</g>
				<g>
					<g>
						<path fill="#88B6C6" d="M2715.956,365.59c-3.502,0-6.342-2.84-6.342-6.341v-94.216c0-3.502,2.84-6.341,6.342-6.341
							c3.501,0,6.341,2.84,6.341,6.341v94.216C2722.298,362.75,2719.458,365.59,2715.956,365.59z"/>
					</g>
					<g>
						<path fill="#88B6C6" d="M2726.346,328.145h-21.988c-10.423,0-18.902-8.479-18.902-18.902v-16.429
							c0-3.502,2.84-6.341,6.342-6.341s6.342,2.84,6.342,6.341v16.429c0,3.429,2.79,6.219,6.219,6.219h21.988
							c3.429,0,6.218-2.79,6.218-6.219v-26.091c0-3.502,2.84-6.341,6.342-6.341c3.501,0,6.341,2.84,6.341,6.341v26.091
							C2745.246,319.666,2736.768,328.145,2726.346,328.145z"/>
					</g>
				</g>
				<g>
					<path fill="#88B6C6" d="M291.754,378.799H286.7c0.386-0.568,0.808-1.177,1.266-1.825c0.897-1.266,1.937-2.665,3.095-4.166
						c2.318-3,5.145-6.369,8.314-9.831c3.163-3.468,6.681-7.015,10.313-10.44c3.639-3.418,7.39-6.717,11.04-9.668
						c3.646-2.956,7.176-5.579,10.307-7.716c1.566-1.069,3.024-2.024,4.339-2.845c1.316-0.821,2.483-1.517,3.462-2.07
						c1.952-1.114,3.143-1.67,3.143-1.67s-0.626,1.156-1.853,3.038c-0.61,0.945-1.374,2.068-2.271,3.334
						c-0.898,1.265-1.938,2.664-3.097,4.163c-2.319,2.999-5.147,6.368-8.313,9.832c-3.162,3.469-6.677,7.018-10.305,10.448
						c-3.635,3.423-7.384,6.724-11.032,9.676c-3.644,2.958-7.175,5.581-10.306,7.717
						C293.731,377.508,292.714,378.181,291.754,378.799z"/>
					<path fill="#88B6C6" d="M297.802,355.044c-1.094,2.7-2.187,5.297-3.277,7.743c-1.083,2.448-2.149,4.748-3.165,6.86
						c-1.021,2.111-1.99,4.035-2.88,5.729c-0.671,1.275-1.292,2.422-1.851,3.423h-2.269c0.173-1.303,0.403-2.839,0.691-4.575
						c0.314-1.888,0.703-4.007,1.164-6.306c0.466-2.297,1.005-4.774,1.621-7.379c0.609-2.607,1.305-5.338,2.064-8.15
						c1.514-5.626,3.328-11.56,5.295-17.442c1.978-5.879,4.113-11.705,6.301-17.104c1.092-2.7,2.186-5.298,3.274-7.744
						c0.552-1.22,1.072-2.413,1.606-3.556c0.54-1.141,1.047-2.249,1.56-3.304c1.023-2.11,1.992-4.034,2.883-5.728
						c0.893-1.694,1.698-3.161,2.386-4.361c1.368-2.403,2.255-3.741,2.255-3.741s-0.101,1.602-0.462,4.343
						c-0.176,1.372-0.421,3.028-0.732,4.917c-0.312,1.889-0.702,4.007-1.161,6.307c-0.228,1.15-0.493,2.339-0.752,3.575
						c-0.265,1.234-0.571,2.499-0.867,3.805c-0.61,2.607-1.307,5.338-2.067,8.15c-1.517,5.625-3.332,11.558-5.306,17.439
						C302.13,343.82,299.992,349.645,297.802,355.044z"/>
					<path fill="#88B6C6" d="M292.236,339.472c-0.464,5.581-1.095,11.148-1.881,16.351c-0.779,5.204-1.695,10.045-2.632,14.182
						c-0.47,2.068-0.933,3.962-1.379,5.637c-0.31,1.163-0.605,2.218-0.881,3.157h-2.369c-0.125-1.02-0.251-2.178-0.373-3.458
						c-0.164-1.726-0.309-3.669-0.433-5.787c-0.244-4.235-0.351-9.161-0.263-14.422c0.081-5.262,0.375-10.857,0.835-16.438
						c0.471-5.58,1.104-11.147,1.892-16.35c0.782-5.203,1.697-10.045,2.634-14.182c0.468-2.068,0.931-3.962,1.375-5.637
						c0.445-1.675,0.861-3.134,1.23-4.332c0.729-2.398,1.255-3.759,1.255-3.759s0.295,1.429,0.619,3.915
						c0.167,1.243,0.337,2.75,0.501,4.476c0.162,1.726,0.308,3.669,0.429,5.787c0.244,4.235,0.349,9.161,0.264,14.422
						C292.981,328.295,292.689,333.89,292.236,339.472z"/>
					<path fill="#88B6C6" d="M281.934,378.799c-0.528-1.37-1.128-3.01-1.785-4.884c-0.695-1.987-1.441-4.237-2.22-6.698
						c-0.391-1.23-0.77-2.517-1.177-3.846c-0.401-1.33-0.784-2.712-1.194-4.128c-0.805-2.837-1.598-5.839-2.378-8.952
						c-1.563-6.226-3.026-12.907-4.325-19.62c-1.288-6.715-2.417-13.46-3.283-19.821c-0.434-3.18-0.817-6.262-1.125-9.194
						c-0.315-2.931-0.569-5.711-0.771-8.283c-0.196-2.573-0.342-4.939-0.439-7.042c-0.096-2.103-0.152-3.942-0.171-5.462
						c-0.049-3.037,0.031-4.793,0.031-4.793s0.729,1.6,1.815,4.437c0.548,1.417,1.181,3.145,1.876,5.132
						c0.694,1.988,1.439,4.237,2.217,6.698c0.771,2.462,1.571,5.137,2.37,7.974c0.806,2.836,1.6,5.839,2.381,8.952
						c1.566,6.226,3.031,12.906,4.337,19.617c1.295,6.713,2.426,13.458,3.295,19.819c0.436,3.18,0.818,6.261,1.128,9.194
						c0.146,1.468,0.306,2.892,0.43,4.276c0.117,1.385,0.245,2.72,0.34,4.008c0.194,2.574,0.34,4.939,0.435,7.043
						c0.094,2.104,0.149,3.943,0.167,5.462c0.001,0.038,0.001,0.074,0.001,0.112h-1.955V378.799z"/>
					<path fill="#88B6C6" d="M246.497,307.63c0.787,0.955,1.713,2.13,2.747,3.492c1.032,1.363,2.163,2.918,3.364,4.631
						c2.4,3.426,5.04,7.505,7.688,11.966c2.654,4.458,5.299,9.307,7.796,14.232c2.486,4.93,4.828,9.933,6.849,14.711
						c2.027,4.776,3.753,9.317,5.095,13.279c0.671,1.981,1.257,3.812,1.745,5.45c0.375,1.26,0.698,2.401,0.966,3.407h-2.827
						c-0.431-0.55-0.885-1.139-1.365-1.773c-1.031-1.363-2.161-2.919-3.361-4.632c-2.399-3.427-5.039-7.505-7.689-11.965
						c-2.656-4.457-5.303-9.305-7.806-14.227c-2.493-4.927-4.836-9.929-6.859-14.706c-2.029-4.775-3.754-9.316-5.096-13.278
						c-0.67-1.982-1.255-3.813-1.742-5.452c-0.486-1.64-0.886-3.081-1.19-4.281c-0.618-2.395-0.871-3.814-0.871-3.814
						S244.931,305.715,246.497,307.63z"/>
					<path fill="#88B6C6" d="M234.878,322.393c0.919,0.69,2.009,1.55,3.235,2.556c1.225,1.007,2.576,2.168,4.023,3.456
						c2.892,2.579,6.128,5.703,9.439,9.177c3.316,3.471,6.692,7.305,9.939,11.246c3.239,3.947,6.353,7.998,9.12,11.92
						c2.773,3.918,5.218,7.692,7.195,11.025c0.989,1.666,1.869,3.215,2.623,4.61c0.472,0.875,0.892,1.677,1.268,2.416h-3.918
						c-0.049-0.04-0.094-0.076-0.143-0.116c-1.224-1.008-2.575-2.169-4.021-3.459c-2.892-2.58-6.127-5.703-9.44-9.177
						c-3.318-3.469-6.696-7.302-9.949-11.238c-3.244-3.943-6.36-7.992-9.129-11.913c-2.775-3.916-5.219-7.691-7.196-11.024
						c-0.988-1.667-1.867-3.217-2.62-4.612c-0.752-1.396-1.387-2.631-1.888-3.665c-1.01-2.062-1.501-3.311-1.501-3.311
						S233.048,321.006,234.878,322.393z"/>
					<path fill="#88B6C6" d="M293.281,374.333c-1.323,1.416-2.564,2.694-3.691,3.808c-0.23,0.227-0.452,0.443-0.672,0.657h-3.431
						c0.324-0.815,0.693-1.712,1.114-2.694c0.625-1.457,1.361-3.079,2.195-4.828c1.667-3.498,3.761-7.478,6.168-11.631
						c2.402-4.156,5.136-8.472,8.004-12.696c2.877-4.218,5.893-8.343,8.881-12.099c2.983-3.76,5.922-7.164,8.569-9.994
						c1.324-1.415,2.566-2.693,3.694-3.806c1.13-1.113,2.137-2.067,2.99-2.838c1.697-1.547,2.758-2.368,2.758-2.368
						s-0.376,1.288-1.196,3.433c-0.405,1.076-0.926,2.362-1.548,3.821c-0.624,1.458-1.36,3.08-2.192,4.83
						c-1.667,3.499-3.759,7.479-6.169,11.63c-2.404,4.155-5.14,8.469-8.014,12.69c-2.883,4.214-5.9,8.337-8.891,12.092
						C298.867,368.099,295.928,371.503,293.281,374.333z"/>
				</g>
				<g>
					<path fill="#88B6C6" d="M2958.042,394.039h-5.053c0.386-0.568,0.808-1.177,1.266-1.825c0.897-1.266,1.937-2.665,3.095-4.166
						c2.318-3,5.146-6.369,8.314-9.831c3.163-3.467,6.681-7.014,10.312-10.44c3.639-3.418,7.39-6.717,11.04-9.668
						c3.646-2.956,7.176-5.579,10.307-7.716c1.565-1.069,3.024-2.024,4.339-2.845c1.316-0.821,2.483-1.517,3.462-2.07
						c1.952-1.114,3.143-1.67,3.143-1.67s-0.626,1.156-1.853,3.038c-0.61,0.945-1.374,2.068-2.271,3.334
						c-0.898,1.265-1.938,2.664-3.097,4.163c-2.319,2.999-5.147,6.368-8.313,9.832c-3.162,3.469-6.677,7.018-10.305,10.448
						c-3.635,3.423-7.384,6.724-11.032,9.676c-3.644,2.958-7.175,5.581-10.306,7.717
						C2960.019,392.748,2959.002,393.421,2958.042,394.039z"/>
					<path fill="#88B6C6" d="M2964.09,370.284c-1.094,2.7-2.188,5.297-3.277,7.743c-1.083,2.448-2.149,4.748-3.165,6.86
						c-1.021,2.111-1.99,4.035-2.88,5.729c-0.671,1.275-1.292,2.422-1.851,3.423h-2.269c0.173-1.303,0.403-2.839,0.691-4.575
						c0.313-1.888,0.703-4.007,1.164-6.306c0.466-2.297,1.005-4.774,1.621-7.379c0.609-2.607,1.305-5.338,2.064-8.15
						c1.514-5.626,3.328-11.56,5.295-17.442c1.978-5.879,4.114-11.705,6.301-17.104c1.092-2.7,2.186-5.298,3.274-7.744
						c0.552-1.22,1.073-2.413,1.606-3.556c0.54-1.141,1.046-2.249,1.56-3.304c1.023-2.11,1.992-4.034,2.884-5.728
						c0.893-1.694,1.698-3.161,2.386-4.361c1.368-2.403,2.254-3.741,2.254-3.741s-0.101,1.602-0.462,4.343
						c-0.176,1.372-0.421,3.028-0.732,4.917c-0.312,1.889-0.702,4.007-1.161,6.307c-0.228,1.15-0.493,2.339-0.752,3.575
						c-0.265,1.234-0.571,2.498-0.867,3.805c-0.61,2.607-1.307,5.338-2.067,8.15c-1.517,5.625-3.333,11.558-5.306,17.439
						C2968.418,359.06,2966.28,364.885,2964.09,370.284z"/>
					<path fill="#88B6C6" d="M2958.524,354.712c-0.464,5.581-1.095,11.148-1.881,16.351c-0.779,5.204-1.695,10.045-2.633,14.182
						c-0.47,2.068-0.933,3.962-1.379,5.637c-0.31,1.163-0.605,2.218-0.881,3.158h-2.369c-0.125-1.02-0.251-2.178-0.374-3.458
						c-0.164-1.726-0.309-3.669-0.433-5.787c-0.244-4.235-0.351-9.161-0.263-14.422c0.081-5.262,0.375-10.857,0.835-16.438
						c0.471-5.58,1.104-11.147,1.893-16.35c0.782-5.203,1.697-10.045,2.634-14.182c0.468-2.068,0.931-3.962,1.375-5.637
						c0.445-1.675,0.86-3.133,1.23-4.332c0.729-2.398,1.255-3.759,1.255-3.759s0.295,1.429,0.619,3.915
						c0.167,1.243,0.337,2.75,0.501,4.476c0.162,1.726,0.308,3.669,0.429,5.787c0.244,4.235,0.35,9.161,0.265,14.422
						C2959.269,343.534,2958.977,349.13,2958.524,354.712z"/>
					<path fill="#88B6C6" d="M2948.222,394.039c-0.528-1.37-1.128-3.01-1.785-4.884c-0.695-1.987-1.441-4.237-2.22-6.698
						c-0.391-1.23-0.77-2.517-1.177-3.846c-0.402-1.33-0.784-2.712-1.195-4.128c-0.805-2.837-1.598-5.839-2.378-8.952
						c-1.563-6.226-3.026-12.907-4.325-19.62c-1.288-6.715-2.417-13.46-3.283-19.821c-0.435-3.18-0.817-6.262-1.125-9.194
						c-0.315-2.931-0.569-5.711-0.771-8.283c-0.196-2.573-0.342-4.939-0.438-7.042c-0.096-2.103-0.152-3.942-0.171-5.462
						c-0.049-3.037,0.031-4.794,0.031-4.794s0.729,1.6,1.815,4.437c0.548,1.417,1.181,3.145,1.876,5.132
						c0.694,1.988,1.439,4.237,2.217,6.698c0.771,2.462,1.571,5.137,2.37,7.974c0.806,2.836,1.6,5.838,2.381,8.952
						c1.566,6.226,3.031,12.906,4.337,19.617c1.295,6.713,2.426,13.458,3.295,19.819c0.436,3.18,0.818,6.261,1.128,9.194
						c0.146,1.468,0.306,2.892,0.429,4.276c0.117,1.385,0.245,2.72,0.34,4.008c0.194,2.574,0.34,4.939,0.435,7.043
						c0.094,2.104,0.149,3.943,0.167,5.462c0,0.038,0.001,0.074,0.001,0.112L2948.222,394.039L2948.222,394.039z"/>
					<path fill="#88B6C6" d="M2912.784,322.87c0.787,0.955,1.713,2.13,2.747,3.492c1.032,1.363,2.163,2.918,3.364,4.63
						c2.4,3.426,5.04,7.505,7.688,11.966c2.654,4.458,5.299,9.307,7.795,14.232c2.487,4.93,4.828,9.933,6.849,14.711
						c2.027,4.776,3.753,9.317,5.095,13.279c0.671,1.981,1.257,3.812,1.745,5.45c0.375,1.26,0.698,2.401,0.966,3.407h-2.828
						c-0.43-0.55-0.885-1.139-1.365-1.773c-1.031-1.363-2.161-2.919-3.361-4.632c-2.399-3.427-5.039-7.505-7.689-11.965
						c-2.656-4.457-5.303-9.305-7.806-14.227c-2.493-4.927-4.836-9.929-6.859-14.706c-2.029-4.775-3.755-9.316-5.096-13.278
						c-0.67-1.982-1.255-3.813-1.742-5.452c-0.486-1.64-0.886-3.081-1.19-4.281c-0.617-2.395-0.871-3.814-0.871-3.814
						S2911.219,320.955,2912.784,322.87z"/>
					<path fill="#88B6C6" d="M2901.166,337.633c0.919,0.69,2.009,1.55,3.235,2.556c1.225,1.007,2.576,2.168,4.023,3.456
						c2.892,2.579,6.128,5.703,9.439,9.178c3.316,3.471,6.692,7.305,9.939,11.246c3.239,3.947,6.353,7.998,9.121,11.92
						c2.773,3.918,5.218,7.692,7.195,11.025c0.989,1.666,1.869,3.215,2.623,4.61c0.472,0.875,0.892,1.677,1.268,2.416h-3.918
						c-0.049-0.04-0.094-0.076-0.143-0.116c-1.224-1.008-2.575-2.169-4.021-3.459c-2.892-2.58-6.127-5.703-9.44-9.177
						c-3.318-3.469-6.696-7.302-9.949-11.238c-3.244-3.943-6.36-7.992-9.129-11.913c-2.775-3.916-5.219-7.691-7.196-11.024
						c-0.988-1.667-1.867-3.217-2.62-4.612c-0.752-1.396-1.386-2.631-1.887-3.665c-1.01-2.062-1.501-3.311-1.501-3.311
						S2899.336,336.246,2901.166,337.633z"/>
					<path fill="#88B6C6" d="M2959.569,389.573c-1.323,1.416-2.564,2.694-3.691,3.808c-0.23,0.227-0.452,0.443-0.672,0.657h-3.431
						c0.324-0.815,0.693-1.712,1.114-2.695c0.625-1.457,1.361-3.079,2.195-4.828c1.667-3.498,3.76-7.478,6.168-11.631
						c2.402-4.156,5.136-8.472,8.004-12.696c2.877-4.218,5.893-8.343,8.881-12.099c2.982-3.76,5.922-7.164,8.569-9.994
						c1.324-1.415,2.565-2.693,3.694-3.806c1.13-1.113,2.138-2.067,2.99-2.838c1.697-1.547,2.758-2.368,2.758-2.368
						s-0.376,1.288-1.196,3.433c-0.405,1.076-0.926,2.362-1.548,3.821c-0.624,1.458-1.36,3.08-2.192,4.83
						c-1.667,3.499-3.759,7.479-6.169,11.63c-2.404,4.155-5.14,8.469-8.014,12.69c-2.883,4.214-5.9,8.337-8.891,12.092
						C2965.155,383.339,2962.216,386.742,2959.569,389.573z"/>
				</g>
			</g>
		</g>
	</g>
</g>
<g id="Foreground_Road" display="none">
	
		<linearGradient id="SVGID_8_" gradientUnits="userSpaceOnUse" x1="1668.2061" y1="-415.281" x2="1668.2061" y2="439.319" gradientTransform="matrix(1 0 0 -1 -292.5 1450)">
		<stop  offset="0" style="stop-color:#121A3C"/>
		<stop  offset="1" style="stop-color:#1D3658"/>
	</linearGradient>
	<path display="inline" fill="url(#SVGID_8_)" d="M3158.8,1148.808c0,0-648.637-138.127-1783.094-138.127
		s-1783.094,137.69-1783.094,137.69v716.91H3158.8V1148.808z"/>
</g>
<g id="Foreground_Road_1_">
	
		<linearGradient id="SVGID_9_" gradientUnits="userSpaceOnUse" x1="1679.2061" y1="-297.3236" x2="1679.2061" y2="983.319" gradientTransform="matrix(1 0 0 -1 -292.5 1450)">
		<stop  offset="0" style="stop-color:#121A3C"/>
		<stop  offset="1" style="stop-color:#1D3658"/>
	</linearGradient>
	<path fill="url(#SVGID_9_)" d="M3169.8,673.668c0,0-648.637-206.987-1783.094-206.987S-396.388,673.013-396.388,673.013v1074.31
		H3169.8V673.668z"/>
</g>
</svg>
