<?xml version="1.0" encoding="utf-8"?>
<!-- Generator: Adobe Illustrator 17.0.0, SVG Export Plug-In . SVG Version: 6.00 Build 0)  -->
<!DOCTYPE svg PUBLIC "-//W3C//DTD SVG 1.1//EN" "http://www.w3.org/Graphics/SVG/1.1/DTD/svg11.dtd">
<svg version="1.1" xmlns="http://www.w3.org/2000/svg" xmlns:xlink="http://www.w3.org/1999/xlink" x="0px" y="0px" width="2592px"
	 height="1728px" viewBox="0 0 2592 1728" enable-background="new 0 0 2592 1728" xml:space="preserve">
<g id="Sky" display="none">
	<rect x="-406.272" y="21.989" display="inline" fill="#ACE0F4" width="3596.194" height="1176.801"/>
	<linearGradient id="SVGID_1_" gradientUnits="userSpaceOnUse" x1="563.7505" y1="239.0511" x2="563.7505" y2="387.6873">
		<stop  offset="0" style="stop-color:#C5E9F3"/>
		<stop  offset="0.9949" style="stop-color:#A7DEF1"/>
	</linearGradient>
	<path display="inline" fill="url(#SVGID_1_)" d="M1003.471,357.191H196.156H124.03c0,0,21.429-58.037,72.128-84.908
		c15.272-8.095,33.201-13.361,54-13.361c89.845,0,119.217,68.288,191.784,68.288s122.672-151.567,291.995-151.567
		S1003.471,357.191,1003.471,357.191z"/>
	<linearGradient id="SVGID_2_" gradientUnits="userSpaceOnUse" x1="2112.5493" y1="338.6691" x2="2112.5493" y2="482.52">
		<stop  offset="0" style="stop-color:#C5E9F3"/>
		<stop  offset="0.9949" style="stop-color:#A7DEF1"/>
	</linearGradient>
	<path display="inline" fill="url(#SVGID_2_)" d="M2735.644,470.26h-1246.19c0,0,89.84-162.634,203.133-162.634
		s82.166,44.724,191.721,44.724c109.555,0,117.76-160.601,291.685-160.601c173.925,0,177.905,172.244,255.411,191.095
		c75.461,18.354,78.281-32.527,167.295-32.527C2687.714,350.318,2735.644,470.26,2735.644,470.26z"/>
	<linearGradient id="SVGID_3_" gradientUnits="userSpaceOnUse" x1="2950.0591" y1="392.9821" x2="2950.0591" y2="602.1375">
		<stop  offset="0" style="stop-color:#C5E9F3"/>
		<stop  offset="0.9949" style="stop-color:#A7DEF1"/>
	</linearGradient>
	<path display="inline" fill="url(#SVGID_3_)" d="M3220.589,619.626h-541.061c0,0,10.913-175.422,155.287-175.422
		c59.075,0,92.028,23.522,110.346,51.317c21.656,32.86,64.081,45.636,99.406,28.29c16.446-8.076,34.381-13.63,52.606-13.63
		C3163.927,510.181,3220.589,619.626,3220.589,619.626z"/>
	<linearGradient id="SVGID_4_" gradientUnits="userSpaceOnUse" x1="-156.7661" y1="348.8813" x2="-156.7661" y2="561.8837">
		<stop  offset="0" style="stop-color:#C5E9F3"/>
		<stop  offset="0.9949" style="stop-color:#A7DEF1"/>
	</linearGradient>
	<path display="inline" fill="url(#SVGID_4_)" d="M118.74,579.694h-551.012c0,0,11.113-178.649,158.143-178.649
		c60.161,0,93.721,23.955,112.375,52.261c22.054,33.464,65.259,46.475,101.234,28.81c16.748-8.224,35.013-13.88,53.573-13.88
		C61.035,468.236,118.74,579.694,118.74,579.694z"/>
</g>
<g id="Background" display="none">
</g>
<g id="Road">
	<g>
		<defs>
			<polyline id="SVGID_5_" points="3164.929,-29.747 -399.071,-29.747 -399.071,1755.253 3164.929,1755.253 			"/>
		</defs>
		<clipPath id="SVGID_6_">
			<use xlink:href="#SVGID_5_"  overflow="visible"/>
		</clipPath>
		<g clip-path="url(#SVGID_6_)">
			<g>
				<circle fill="#88B6C6" cx="790.924" cy="705.56" r="16.554"/>
				<circle fill="#88B6C6" cx="868.12" cy="685.125" r="16.554"/>
				<circle fill="#88B6C6" cx="871.81" cy="705.56" r="16.554"/>
				<circle fill="#88B6C6" cx="939.072" cy="715.429" r="16.554"/>
				<circle fill="#88B6C6" cx="905.299" cy="698.875" r="25.161"/>
				<circle fill="#88B6C6" cx="833.313" cy="690.405" r="33.631"/>
			</g>
			<g>
				<g>
					<circle fill="#88B6C6" cx="-284.542" cy="705.56" r="16.554"/>
					<circle fill="#88B6C6" cx="-361.738" cy="685.125" r="16.554"/>
					<circle fill="#88B6C6" cx="-365.427" cy="705.56" r="16.554"/>
					<circle fill="#88B6C6" cx="-432.689" cy="715.429" r="16.554"/>
					<circle fill="#88B6C6" cx="-398.916" cy="698.875" r="25.161"/>
					<circle fill="#88B6C6" cx="-326.931" cy="690.405" r="33.631"/>
				</g>
				<circle fill="#88B6C6" cx="492.178" cy="656.774" r="25.472"/>
				<circle fill="#88B6C6" cx="415.55" cy="699.345" r="25.472"/>
				<circle fill="#88B6C6" cx="453.012" cy="695.939" r="25.472"/>
				<circle fill="#88B6C6" cx="388.304" cy="718.076" r="25.472"/>
				<circle fill="#88B6C6" cx="459.824" cy="709.562" r="25.472"/>
				<circle fill="#88B6C6" cx="481.96" cy="677.208" r="25.472"/>
				<circle fill="#88B6C6" cx="515.335" cy="679.975" r="16.63"/>
				<circle fill="#88B6C6" cx="492.178" cy="690.405" r="25.472"/>
				<circle fill="#88B6C6" cx="559.156" cy="717.651" r="28.097"/>
				<circle fill="#88B6C6" cx="536.167" cy="692.108" r="9.933"/>
				<circle fill="#88B6C6" cx="521.126" cy="710.358" r="22.421"/>
			</g>
			<g>
				<circle fill="#88B6C6" cx="2353.731" cy="688.587" r="21.771"/>
				<circle fill="#88B6C6" cx="2268.694" cy="681.776" r="21.771"/>
				<circle fill="#88B6C6" cx="2074.996" cy="676.988" r="21.771"/>
				<circle fill="#88B6C6" cx="1984.745" cy="710.358" r="21.771"/>
				<circle fill="#88B6C6" cx="2012.842" cy="703.547" r="21.771"/>
				<circle fill="#88B6C6" cx="2029.871" cy="685.338" r="21.771"/>
				<circle fill="#88B6C6" cx="2050.625" cy="672.731" r="16.274"/>
				<circle fill="#88B6C6" cx="2419.794" cy="710.272" r="16.274"/>
				<circle fill="#88B6C6" cx="2002.251" cy="688.587" r="10.591"/>
				<circle fill="#88B6C6" cx="2149.921" cy="706.101" r="21.771"/>
				<circle fill="#88B6C6" cx="2235.324" cy="696.937" r="21.771"/>
				<circle fill="#88B6C6" cx="2253.04" cy="710.358" r="21.771"/>
				<circle fill="#88B6C6" cx="2308.18" cy="672.731" r="33.37"/>
				<circle fill="#88B6C6" cx="1941.085" cy="722.114" r="33.37"/>
				<circle fill="#88B6C6" cx="2102.562" cy="708.535" r="33.37"/>
				<circle fill="#88B6C6" cx="2050.625" cy="710.358" r="33.37"/>
				<circle fill="#88B6C6" cx="2200.05" cy="718.708" r="39.84"/>
				<circle fill="#88B6C6" cx="2375.442" cy="722.114" r="39.84"/>
				<circle fill="#88B6C6" cx="2341.55" cy="718.708" r="33.37"/>
				<circle fill="#88B6C6" cx="2290.465" cy="718.708" r="33.37"/>
			</g>
			<g>
				<circle fill="#88B6C6" cx="3019.078" cy="656.774" r="25.472"/>
				<circle fill="#88B6C6" cx="2942.45" cy="699.345" r="25.472"/>
				<circle fill="#88B6C6" cx="2979.913" cy="695.939" r="25.472"/>
				<circle fill="#88B6C6" cx="2915.205" cy="718.076" r="25.472"/>
				<circle fill="#88B6C6" cx="2986.724" cy="709.562" r="25.472"/>
				<circle fill="#88B6C6" cx="3008.861" cy="677.208" r="25.472"/>
				<circle fill="#88B6C6" cx="3042.235" cy="679.975" r="16.63"/>
				<circle fill="#88B6C6" cx="3019.078" cy="690.405" r="25.472"/>
				<circle fill="#88B6C6" cx="3086.056" cy="717.651" r="28.097"/>
				<circle fill="#88B6C6" cx="3063.068" cy="692.108" r="9.933"/>
				<circle fill="#88B6C6" cx="3048.026" cy="710.358" r="22.421"/>
			</g>
			<linearGradient id="SVGID_7_" gradientUnits="userSpaceOnUse" x1="-597.3688" y1="853.9086" x2="3366.9026" y2="853.9086">
				<stop  offset="0" style="stop-color:#CAEBF9"/>
				<stop  offset="0.9949" style="stop-color:#DAF1FA"/>
			</linearGradient>
			<rect x="-597.369" y="711.276" fill="url(#SVGID_7_)" width="3964.271" height="285.266"/>
			<g>
				<g>
					<path fill="#88B6C6" d="M2357.427,907.527v-130.57c0-4.853,3.936-8.788,8.788-8.788s8.788,3.936,8.788,8.788v130.57"/>
				</g>
				<g>
					<path fill="#88B6C6" d="M2380.614,864.421h-30.473c-14.445,0-26.196-11.751-26.196-26.196v-22.768
						c0-4.853,3.936-8.788,8.788-8.788s8.788,3.936,8.788,8.788v22.768c0,4.752,3.867,8.619,8.619,8.619h30.473
						c4.752,0,8.617-3.867,8.617-8.619v-36.159c0-4.853,3.936-8.788,8.788-8.788s8.788,3.936,8.788,8.788v36.159
						C2406.807,852.671,2395.057,864.421,2380.614,864.421z"/>
				</g>
			</g>
			<rect x="-597.369" y="986.983" fill="#88B6C6" width="3964.271" height="227.46"/>
			
				<line opacity="0.25" fill="none" stroke="#88B6C6" stroke-width="5" stroke-linecap="round" stroke-miterlimit="10" x1="513.464" y1="783.222" x2="655.874" y2="783.222"/>
			
				<line opacity="0.25" fill="none" stroke="#88B6C6" stroke-width="5" stroke-linecap="round" stroke-miterlimit="10" x1="-50.034" y1="818.847" x2="434.281" y2="818.847"/>
			
				<line opacity="0.25" fill="none" stroke="#88B6C6" stroke-width="5" stroke-linecap="round" stroke-miterlimit="10" x1="402.495" y1="734.287" x2="570.508" y2="734.287"/>
			
				<line opacity="0.25" fill="none" stroke="#88B6C6" stroke-width="5" stroke-linecap="round" stroke-miterlimit="10" x1="728.589" y1="753.694" x2="896.602" y2="753.694"/>
			
				<line opacity="0.25" fill="none" stroke="#88B6C6" stroke-width="5" stroke-linecap="round" stroke-miterlimit="10" x1="957.035" y1="777.538" x2="1071.125" y2="777.538"/>
			
				<line opacity="0.25" fill="none" stroke="#88B6C6" stroke-width="5" stroke-linecap="round" stroke-miterlimit="10" x1="265.447" y1="861.822" x2="560.291" y2="861.822"/>
			
				<line opacity="0.25" fill="none" stroke="#88B6C6" stroke-width="5" stroke-linecap="round" stroke-miterlimit="10" x1="-39.881" y1="916.542" x2="517.65" y2="916.542"/>
			
				<line opacity="0.25" fill="none" stroke="#88B6C6" stroke-width="5" stroke-linecap="round" stroke-miterlimit="10" x1="761.762" y1="839.331" x2="929.775" y2="839.331"/>
			
				<line opacity="0.25" fill="none" stroke="#88B6C6" stroke-width="5" stroke-linecap="round" stroke-miterlimit="10" x1="1399.509" y1="865.138" x2="1567.522" y2="865.138"/>
			
				<line opacity="0.25" fill="none" stroke="#88B6C6" stroke-width="5" stroke-linecap="round" stroke-miterlimit="10" x1="1510.477" y1="770.988" x2="1624.567" y2="770.988"/>
			
				<line opacity="0.25" fill="none" stroke="#88B6C6" stroke-width="5" stroke-linecap="round" stroke-miterlimit="10" x1="1944.701" y1="760.506" x2="2063.9" y2="760.506"/>
			
				<line opacity="0.25" fill="none" stroke="#88B6C6" stroke-width="5" stroke-linecap="round" stroke-miterlimit="10" x1="2321.029" y1="746.031" x2="2669.579" y2="746.031"/>
			
				<line opacity="0.25" fill="none" stroke="#88B6C6" stroke-width="5" stroke-linecap="round" stroke-miterlimit="10" x1="1802.514" y1="830.006" x2="2601.555" y2="830.006"/>
			
				<line opacity="0.25" fill="none" stroke="#88B6C6" stroke-width="5" stroke-linecap="round" stroke-miterlimit="10" x1="681.756" y1="819.299" x2="824.166" y2="819.299"/>
			
				<line opacity="0.25" fill="none" stroke="#88B6C6" stroke-width="5" stroke-linecap="round" stroke-miterlimit="10" x1="1289.424" y1="807.689" x2="1431.835" y2="807.689"/>
			
				<line opacity="0.25" fill="none" stroke="#88B6C6" stroke-width="5" stroke-linecap="round" stroke-miterlimit="10" x1="3299.626" y1="826.286" x2="3131.613" y2="826.286"/>
			
				<line opacity="0.25" fill="none" stroke="#88B6C6" stroke-width="5" stroke-linecap="round" stroke-miterlimit="10" x1="3368.159" y1="753.694" x2="2810.627" y2="753.694"/>
			
				<line opacity="0.25" fill="none" stroke="#88B6C6" stroke-width="5" stroke-linecap="round" stroke-miterlimit="10" x1="2936.921" y1="850.488" x2="2768.908" y2="850.488"/>
			
				<line opacity="0.25" fill="none" stroke="#88B6C6" stroke-width="5" stroke-linecap="round" stroke-miterlimit="10" x1="3126.771" y1="827.096" x2="2984.361" y2="827.096"/>
			
				<line opacity="0.25" fill="none" stroke="#88B6C6" stroke-width="5" stroke-linecap="round" stroke-miterlimit="10" x1="2738.791" y1="789.32" x2="2596.381" y2="789.32"/>
			
				<line opacity="0.25" fill="none" stroke="#88B6C6" stroke-width="5" stroke-linecap="round" stroke-miterlimit="10" x1="2038.442" y1="792.681" x2="2180.852" y2="792.681"/>
			
				<line opacity="0.25" fill="none" stroke="#88B6C6" stroke-width="5" stroke-linecap="round" stroke-miterlimit="10" x1="2064.863" y1="883.241" x2="2207.273" y2="883.241"/>
			
				<line opacity="0.25" fill="none" stroke="#88B6C6" stroke-width="5" stroke-linecap="round" stroke-miterlimit="10" x1="-461.654" y1="760.506" x2="-342.455" y2="760.506"/>
			
				<line opacity="0.25" fill="none" stroke="#88B6C6" stroke-width="5" stroke-linecap="round" stroke-miterlimit="10" x1="175.235" y1="746.031" x2="342.413" y2="746.031"/>
			
				<line opacity="0.25" fill="none" stroke="#88B6C6" stroke-width="5" stroke-linecap="round" stroke-miterlimit="10" x1="-159.007" y1="784.297" x2="81.853" y2="784.297"/>
			
				<line opacity="0.25" fill="none" stroke="#88B6C6" stroke-width="5" stroke-linecap="round" stroke-miterlimit="10" x1="-603.841" y1="881.091" x2="81.853" y2="881.091"/>
			
				<line opacity="0.25" fill="none" stroke="#88B6C6" stroke-width="5" stroke-linecap="round" stroke-miterlimit="10" x1="-341.493" y1="832.156" x2="-199.082" y2="832.156"/>
			
				<line opacity="0.25" fill="none" stroke="#88B6C6" stroke-width="5" stroke-linecap="round" stroke-miterlimit="10" x1="2348.842" y1="909.788" x2="2468.041" y2="909.788"/>
			<path fill="#88B6C6" d="M-338.597,786.687c-4.779,0-8.654,3.876-8.654,8.654v33.163c0,5.119-4.163,9.282-9.282,9.282h-6.377
				v-50.689c0-4.779-3.876-8.654-8.654-8.654s-8.654,3.876-8.654,8.654v70.47h-9.675c-5.119,0-9.282-4.163-9.282-9.282v-15.031
				c0-4.779-3.875-8.654-8.654-8.654c-4.779,0-8.654,3.876-8.654,8.654v15.031c0,14.662,11.929,26.59,26.591,26.59h9.675v34.206
				c0,4.779,3.876,8.654,8.654,8.654s8.654-3.876,8.654-8.654v-53.987h6.377c14.662,0,26.591-11.929,26.591-26.59v-33.163
				C-329.943,790.562-333.818,786.687-338.597,786.687z"/>
			<g>
				<g>
					<path fill="#88B6C6" d="M-35.835,768.779c-3.502,0-6.341-2.84-6.341-6.341v-94.216c0-3.502,2.84-6.341,6.341-6.341
						s6.341,2.84,6.341,6.341v94.216C-29.494,765.939-32.334,768.779-35.835,768.779z"/>
				</g>
				<g>
					<path fill="#88B6C6" d="M-25.445,731.334h-21.988c-10.423,0-18.902-8.479-18.902-18.902v-16.429
						c0-3.502,2.84-6.341,6.341-6.341c3.502,0,6.341,2.84,6.341,6.341v16.429c0,3.429,2.79,6.219,6.219,6.219h21.988
						c3.429,0,6.218-2.79,6.218-6.219V686.34c0-3.502,2.84-6.341,6.341-6.341s6.341,2.84,6.341,6.341v26.091
						C-6.545,722.855-15.024,731.334-25.445,731.334z"/>
				</g>
			</g>
			<g>
				<g>
					<path fill="#88B6C6" d="M2715.956,775.59c-3.502,0-6.342-2.84-6.342-6.341v-94.216c0-3.502,2.84-6.341,6.342-6.341
						c3.501,0,6.341,2.84,6.341,6.341v94.216C2722.298,772.75,2719.458,775.59,2715.956,775.59z"/>
				</g>
				<g>
					<path fill="#88B6C6" d="M2726.346,738.145h-21.988c-10.423,0-18.902-8.479-18.902-18.902v-16.429
						c0-3.502,2.84-6.341,6.342-6.341s6.342,2.84,6.342,6.341v16.429c0,3.429,2.79,6.219,6.219,6.219h21.988
						c3.429,0,6.218-2.79,6.218-6.219v-26.091c0-3.502,2.84-6.341,6.342-6.341c3.501,0,6.341,2.84,6.341,6.341v26.091
						C2745.246,729.666,2736.768,738.145,2726.346,738.145z"/>
				</g>
			</g>
			<g>
				<path fill="#88B6C6" d="M291.754,858.799h-5.054c0.386-0.568,0.808-1.177,1.266-1.825c0.897-1.266,1.937-2.665,3.095-4.166
					c2.318-3,5.145-6.369,8.314-9.831c3.163-3.468,6.681-7.015,10.313-10.44c3.639-3.418,7.39-6.717,11.04-9.668
					c3.646-2.956,7.176-5.579,10.307-7.716c1.566-1.069,3.024-2.024,4.339-2.845c1.316-0.821,2.483-1.517,3.462-2.07
					c1.952-1.114,3.143-1.67,3.143-1.67s-0.626,1.156-1.853,3.038c-0.61,0.945-1.374,2.068-2.271,3.334
					c-0.898,1.265-1.938,2.664-3.097,4.163c-2.319,2.999-5.147,6.368-8.313,9.832c-3.162,3.469-6.677,7.018-10.305,10.448
					c-3.635,3.423-7.384,6.724-11.032,9.676c-3.644,2.958-7.175,5.581-10.306,7.717
					C293.731,857.508,292.714,858.181,291.754,858.799z"/>
				<path fill="#88B6C6" d="M297.802,835.044c-1.094,2.7-2.187,5.297-3.277,7.743c-1.083,2.448-2.149,4.748-3.165,6.86
					c-1.021,2.111-1.99,4.035-2.88,5.729c-0.671,1.275-1.292,2.422-1.851,3.423h-2.269c0.173-1.303,0.403-2.839,0.691-4.575
					c0.314-1.888,0.703-4.007,1.164-6.306c0.466-2.297,1.005-4.774,1.621-7.379c0.609-2.607,1.305-5.338,2.064-8.15
					c1.514-5.626,3.328-11.56,5.295-17.442c1.978-5.879,4.113-11.705,6.301-17.104c1.092-2.7,2.186-5.298,3.274-7.744
					c0.552-1.22,1.072-2.413,1.606-3.556c0.54-1.141,1.047-2.249,1.56-3.304c1.023-2.11,1.992-4.034,2.883-5.728
					c0.893-1.694,1.698-3.161,2.386-4.361c1.368-2.403,2.255-3.741,2.255-3.741s-0.101,1.602-0.462,4.343
					c-0.176,1.372-0.421,3.028-0.732,4.917c-0.312,1.889-0.702,4.007-1.161,6.307c-0.228,1.15-0.493,2.339-0.752,3.575
					c-0.265,1.234-0.571,2.499-0.867,3.805c-0.61,2.607-1.307,5.338-2.067,8.15c-1.517,5.625-3.332,11.558-5.306,17.439
					C302.13,823.82,299.992,829.645,297.802,835.044z"/>
				<path fill="#88B6C6" d="M292.236,819.472c-0.464,5.581-1.095,11.148-1.881,16.351c-0.779,5.204-1.695,10.045-2.632,14.182
					c-0.47,2.068-0.933,3.962-1.379,5.637c-0.31,1.163-0.605,2.218-0.881,3.157h-2.369c-0.125-1.02-0.251-2.178-0.373-3.458
					c-0.164-1.726-0.309-3.669-0.433-5.787c-0.244-4.235-0.351-9.161-0.263-14.422c0.081-5.262,0.375-10.857,0.835-16.438
					c0.471-5.58,1.104-11.147,1.892-16.35c0.782-5.203,1.697-10.045,2.634-14.182c0.468-2.068,0.931-3.962,1.375-5.637
					c0.445-1.675,0.861-3.134,1.23-4.332c0.729-2.398,1.255-3.759,1.255-3.759s0.295,1.429,0.619,3.915
					c0.167,1.243,0.337,2.75,0.501,4.476c0.162,1.726,0.308,3.669,0.429,5.787c0.244,4.235,0.349,9.161,0.264,14.422
					C292.981,808.295,292.689,813.89,292.236,819.472z"/>
				<path fill="#88B6C6" d="M281.934,858.799c-0.528-1.37-1.128-3.01-1.785-4.884c-0.695-1.987-1.441-4.237-2.22-6.698
					c-0.391-1.23-0.77-2.517-1.177-3.846c-0.401-1.33-0.784-2.712-1.194-4.128c-0.805-2.837-1.598-5.839-2.378-8.952
					c-1.563-6.226-3.026-12.907-4.325-19.62c-1.288-6.715-2.417-13.46-3.283-19.821c-0.434-3.18-0.817-6.262-1.125-9.194
					c-0.315-2.931-0.569-5.711-0.771-8.283c-0.196-2.573-0.342-4.939-0.439-7.042c-0.096-2.103-0.152-3.942-0.171-5.462
					c-0.049-3.037,0.031-4.793,0.031-4.793s0.729,1.6,1.815,4.437c0.548,1.417,1.181,3.145,1.876,5.132
					c0.694,1.988,1.439,4.237,2.217,6.698c0.771,2.462,1.571,5.137,2.37,7.974c0.806,2.836,1.6,5.839,2.381,8.952
					c1.566,6.226,3.031,12.906,4.337,19.617c1.295,6.713,2.426,13.458,3.295,19.819c0.436,3.18,0.818,6.261,1.128,9.194
					c0.146,1.468,0.306,2.892,0.43,4.276c0.117,1.385,0.245,2.72,0.34,4.008c0.194,2.574,0.34,4.939,0.435,7.043
					c0.094,2.104,0.149,3.943,0.167,5.462c0.001,0.038,0.001,0.074,0.001,0.112H281.934z"/>
				<path fill="#88B6C6" d="M246.497,787.63c0.787,0.955,1.713,2.13,2.747,3.492c1.032,1.363,2.163,2.918,3.364,4.631
					c2.4,3.426,5.04,7.505,7.688,11.966c2.654,4.458,5.299,9.307,7.796,14.232c2.486,4.93,4.828,9.933,6.849,14.711
					c2.027,4.776,3.753,9.317,5.095,13.279c0.671,1.981,1.257,3.812,1.745,5.45c0.375,1.26,0.698,2.401,0.966,3.407h-2.827
					c-0.431-0.55-0.885-1.139-1.365-1.773c-1.031-1.363-2.161-2.919-3.361-4.632c-2.399-3.427-5.039-7.505-7.689-11.965
					c-2.656-4.457-5.303-9.305-7.806-14.227c-2.493-4.927-4.836-9.929-6.859-14.706c-2.029-4.775-3.754-9.316-5.096-13.278
					c-0.67-1.982-1.255-3.813-1.742-5.452c-0.486-1.64-0.886-3.081-1.19-4.281c-0.618-2.395-0.871-3.814-0.871-3.814
					S244.931,785.715,246.497,787.63z"/>
				<path fill="#88B6C6" d="M234.878,802.393c0.919,0.69,2.009,1.55,3.235,2.556c1.225,1.007,2.576,2.168,4.023,3.456
					c2.892,2.579,6.128,5.703,9.439,9.177c3.316,3.471,6.692,7.305,9.939,11.246c3.239,3.947,6.353,7.998,9.12,11.92
					c2.773,3.918,5.218,7.692,7.195,11.025c0.989,1.666,1.869,3.215,2.623,4.61c0.472,0.875,0.892,1.677,1.268,2.416h-3.918
					c-0.049-0.04-0.094-0.076-0.143-0.116c-1.224-1.008-2.575-2.169-4.021-3.459c-2.892-2.58-6.127-5.703-9.44-9.177
					c-3.318-3.469-6.696-7.302-9.949-11.238c-3.244-3.943-6.36-7.992-9.129-11.913c-2.775-3.916-5.219-7.691-7.196-11.024
					c-0.988-1.667-1.867-3.217-2.62-4.612c-0.752-1.396-1.387-2.631-1.888-3.665c-1.01-2.062-1.501-3.311-1.501-3.311
					S233.048,801.006,234.878,802.393z"/>
				<path fill="#88B6C6" d="M293.281,854.333c-1.323,1.416-2.564,2.694-3.691,3.808c-0.23,0.227-0.452,0.443-0.672,0.657h-3.431
					c0.324-0.815,0.693-1.712,1.114-2.694c0.625-1.457,1.361-3.079,2.195-4.828c1.667-3.498,3.761-7.478,6.168-11.631
					c2.402-4.156,5.136-8.472,8.004-12.696c2.877-4.218,5.893-8.343,8.881-12.099c2.983-3.76,5.922-7.164,8.569-9.994
					c1.324-1.415,2.566-2.693,3.694-3.806c1.13-1.113,2.137-2.067,2.99-2.838c1.697-1.547,2.758-2.368,2.758-2.368
					s-0.376,1.288-1.196,3.433c-0.405,1.076-0.926,2.362-1.548,3.821c-0.624,1.458-1.36,3.08-2.192,4.83
					c-1.667,3.499-3.759,7.479-6.169,11.63c-2.404,4.155-5.14,8.469-8.014,12.69c-2.883,4.214-5.9,8.337-8.891,12.092
					C298.867,848.099,295.928,851.503,293.281,854.333z"/>
			</g>
			<g>
				<path fill="#88B6C6" d="M2958.042,874.039h-5.053c0.386-0.568,0.808-1.177,1.266-1.825c0.897-1.266,1.937-2.665,3.095-4.166
					c2.318-3,5.146-6.369,8.314-9.831c3.163-3.467,6.681-7.014,10.312-10.44c3.639-3.418,7.39-6.717,11.04-9.668
					c3.646-2.956,7.176-5.579,10.307-7.716c1.565-1.069,3.024-2.024,4.339-2.845c1.316-0.821,2.483-1.517,3.462-2.07
					c1.952-1.114,3.143-1.67,3.143-1.67s-0.626,1.156-1.853,3.038c-0.61,0.945-1.374,2.068-2.271,3.334
					c-0.898,1.265-1.938,2.664-3.097,4.163c-2.319,2.999-5.147,6.368-8.313,9.832c-3.162,3.469-6.677,7.018-10.305,10.448
					c-3.635,3.423-7.384,6.724-11.032,9.676c-3.644,2.958-7.175,5.581-10.306,7.717
					C2960.019,872.748,2959.002,873.421,2958.042,874.039z"/>
				<path fill="#88B6C6" d="M2964.09,850.284c-1.094,2.7-2.188,5.297-3.277,7.743c-1.083,2.448-2.149,4.748-3.165,6.86
					c-1.021,2.111-1.99,4.035-2.88,5.729c-0.671,1.275-1.292,2.422-1.851,3.423h-2.269c0.173-1.303,0.403-2.839,0.691-4.575
					c0.313-1.888,0.703-4.007,1.164-6.306c0.466-2.297,1.005-4.774,1.621-7.379c0.609-2.607,1.305-5.338,2.064-8.15
					c1.514-5.626,3.328-11.56,5.295-17.442c1.978-5.879,4.114-11.705,6.301-17.104c1.092-2.7,2.186-5.298,3.274-7.744
					c0.552-1.22,1.073-2.413,1.606-3.556c0.54-1.141,1.046-2.249,1.56-3.304c1.023-2.11,1.992-4.034,2.884-5.728
					c0.893-1.694,1.698-3.161,2.386-4.361c1.368-2.403,2.254-3.741,2.254-3.741s-0.101,1.602-0.462,4.343
					c-0.176,1.372-0.421,3.028-0.732,4.917c-0.312,1.889-0.702,4.007-1.161,6.307c-0.228,1.15-0.493,2.339-0.752,3.575
					c-0.265,1.234-0.571,2.498-0.867,3.805c-0.61,2.607-1.307,5.338-2.067,8.15c-1.517,5.625-3.333,11.558-5.306,17.439
					C2968.418,839.06,2966.28,844.885,2964.09,850.284z"/>
				<path fill="#88B6C6" d="M2958.524,834.712c-0.464,5.581-1.095,11.148-1.881,16.351c-0.779,5.204-1.695,10.045-2.633,14.182
					c-0.47,2.068-0.933,3.962-1.379,5.637c-0.31,1.163-0.605,2.218-0.881,3.158h-2.369c-0.125-1.02-0.251-2.178-0.374-3.458
					c-0.164-1.726-0.309-3.669-0.433-5.787c-0.244-4.235-0.351-9.161-0.263-14.422c0.081-5.262,0.375-10.857,0.835-16.438
					c0.471-5.58,1.104-11.147,1.893-16.35c0.782-5.203,1.697-10.045,2.634-14.182c0.468-2.068,0.931-3.962,1.375-5.637
					c0.445-1.675,0.86-3.133,1.23-4.332c0.729-2.398,1.255-3.759,1.255-3.759s0.295,1.429,0.619,3.915
					c0.167,1.243,0.337,2.75,0.501,4.476c0.162,1.726,0.308,3.669,0.429,5.787c0.244,4.235,0.35,9.161,0.265,14.422
					C2959.269,823.534,2958.977,829.13,2958.524,834.712z"/>
				<path fill="#88B6C6" d="M2948.222,874.039c-0.528-1.37-1.128-3.01-1.785-4.884c-0.695-1.987-1.441-4.237-2.22-6.698
					c-0.391-1.23-0.77-2.517-1.177-3.846c-0.402-1.33-0.784-2.712-1.195-4.128c-0.805-2.837-1.598-5.839-2.378-8.952
					c-1.563-6.226-3.026-12.907-4.325-19.62c-1.288-6.715-2.417-13.46-3.283-19.821c-0.435-3.18-0.817-6.262-1.125-9.194
					c-0.315-2.931-0.569-5.711-0.771-8.283c-0.196-2.573-0.342-4.939-0.438-7.042c-0.096-2.103-0.152-3.942-0.171-5.462
					c-0.049-3.037,0.031-4.794,0.031-4.794s0.729,1.6,1.815,4.437c0.548,1.417,1.181,3.145,1.876,5.132
					c0.694,1.988,1.439,4.237,2.217,6.698c0.771,2.462,1.571,5.137,2.37,7.974c0.806,2.836,1.6,5.838,2.381,8.952
					c1.566,6.226,3.031,12.906,4.337,19.617c1.295,6.713,2.426,13.458,3.295,19.819c0.436,3.18,0.818,6.261,1.128,9.194
					c0.146,1.468,0.306,2.892,0.429,4.276c0.117,1.385,0.245,2.72,0.34,4.008c0.194,2.574,0.34,4.939,0.435,7.043
					c0.094,2.104,0.149,3.943,0.167,5.462c0,0.038,0.001,0.074,0.001,0.112H2948.222z"/>
				<path fill="#88B6C6" d="M2912.784,802.87c0.787,0.955,1.713,2.13,2.747,3.492c1.032,1.363,2.163,2.918,3.364,4.63
					c2.4,3.426,5.04,7.505,7.688,11.966c2.654,4.458,5.299,9.307,7.795,14.232c2.487,4.93,4.828,9.933,6.849,14.711
					c2.027,4.776,3.753,9.317,5.095,13.279c0.671,1.981,1.257,3.812,1.745,5.45c0.375,1.26,0.698,2.401,0.966,3.407h-2.828
					c-0.43-0.55-0.885-1.139-1.365-1.773c-1.031-1.363-2.161-2.919-3.361-4.632c-2.399-3.427-5.039-7.505-7.689-11.965
					c-2.656-4.457-5.303-9.305-7.806-14.227c-2.493-4.927-4.836-9.929-6.859-14.706c-2.029-4.775-3.755-9.316-5.096-13.278
					c-0.67-1.982-1.255-3.813-1.742-5.452c-0.486-1.64-0.886-3.081-1.19-4.281c-0.617-2.395-0.871-3.814-0.871-3.814
					S2911.219,800.955,2912.784,802.87z"/>
				<path fill="#88B6C6" d="M2901.166,817.633c0.919,0.69,2.009,1.55,3.235,2.556c1.225,1.007,2.576,2.168,4.023,3.456
					c2.892,2.579,6.128,5.703,9.439,9.178c3.316,3.471,6.692,7.305,9.939,11.246c3.239,3.947,6.353,7.998,9.121,11.92
					c2.773,3.918,5.218,7.692,7.195,11.025c0.989,1.666,1.869,3.215,2.623,4.61c0.472,0.875,0.892,1.677,1.268,2.416h-3.918
					c-0.049-0.04-0.094-0.076-0.143-0.116c-1.224-1.008-2.575-2.169-4.021-3.459c-2.892-2.58-6.127-5.703-9.44-9.177
					c-3.318-3.469-6.696-7.302-9.949-11.238c-3.244-3.943-6.36-7.992-9.129-11.913c-2.775-3.916-5.219-7.691-7.196-11.024
					c-0.988-1.667-1.867-3.217-2.62-4.612c-0.752-1.396-1.386-2.631-1.887-3.665c-1.01-2.062-1.501-3.311-1.501-3.311
					S2899.336,816.246,2901.166,817.633z"/>
				<path fill="#88B6C6" d="M2959.569,869.573c-1.323,1.416-2.564,2.694-3.691,3.808c-0.23,0.227-0.452,0.443-0.672,0.657h-3.431
					c0.324-0.815,0.693-1.712,1.114-2.695c0.625-1.457,1.361-3.079,2.195-4.828c1.667-3.498,3.76-7.478,6.168-11.631
					c2.402-4.156,5.136-8.472,8.004-12.696c2.877-4.218,5.893-8.343,8.881-12.099c2.982-3.76,5.922-7.164,8.569-9.994
					c1.324-1.415,2.565-2.693,3.694-3.806c1.13-1.113,2.138-2.067,2.99-2.838c1.697-1.547,2.758-2.368,2.758-2.368
					s-0.376,1.288-1.196,3.433c-0.405,1.076-0.926,2.362-1.548,3.821c-0.624,1.458-1.36,3.08-2.192,4.83
					c-1.667,3.499-3.759,7.479-6.169,11.63c-2.404,4.155-5.14,8.469-8.014,12.69c-2.883,4.214-5.9,8.337-8.891,12.092
					C2965.155,863.339,2962.216,866.742,2959.569,869.573z"/>
			</g>
		</g>
	</g>
</g>
<g id="Foreground_Road" display="none">
	<linearGradient id="SVGID_8_" gradientUnits="userSpaceOnUse" x1="1375.7051" y1="1865.28" x2="1375.7051" y2="1010.6804">
		<stop  offset="0" style="stop-color:#121A3C"/>
		<stop  offset="1" style="stop-color:#1D3658"/>
	</linearGradient>
	<path display="inline" fill="url(#SVGID_8_)" d="M3158.8,1148.808c0,0-648.637-138.127-1783.094-138.127
		s-1783.094,137.69-1783.094,137.69v716.91H3158.8V1148.808z"/>
</g>
</svg>
