<?xml version="1.0" encoding="utf-8"?>
<!-- Generator: Adobe Illustrator 17.0.0, SVG Export Plug-In . SVG Version: 6.00 Build 0)  -->
<!DOCTYPE svg PUBLIC "-//W3C//DTD SVG 1.1//EN" "http://www.w3.org/Graphics/SVG/1.1/DTD/svg11.dtd">
<svg version="1.1" id="Layer_2" xmlns="http://www.w3.org/2000/svg" xmlns:xlink="http://www.w3.org/1999/xlink" x="0px" y="0px"
	 width="3564px" height="2180px" viewBox="0 0 3564 2180" enable-background="new 0 0 3564 2180" xml:space="preserve">
<g>
	<polygon id="water_1_" fill="#8CCCE2" points="2160.791,2256.961 1989.793,2624.992 2047.928,3102.242 2226.191,3588.57 
		2364.521,3774.148 2425.386,3959.726 2559.181,3977.126 4440.468,3977.126 4440.468,1243.42 4169.341,1343.347 3970.146,1136.356 
		3567.49,1179.182 3498.758,1357.622 3350.428,1428.497 2861.036,1292.38 2729.776,1307.157 2459.583,957.916 1922.863,1793.016 	
		"/>
	<path fill="#EEE1D0" d="M1277.044,341.548l421.683,79.665c8.008,0,14.6,6.682,14.968,15.17l10.285,237.385
		c0.326,7.531,5.591,13.783,12.606,14.971l597.909,101.281c1.685,0.285,3.407,0.263,5.083-0.065l181.066-35.473
		c2.177-0.427,4.425-0.335,6.56,0.267l171.56,48.359c5.63,1.587,9.884,6.494,10.905,12.58l34.883,207.865
		c0.538,3.203,1.988,6.155,4.156,8.456l83.1,88.185c3.497,3.711,13.63,112.59,12.719,117.748l-29.957,63.659
		c-5.613,11.928-15.088,21.612-26.89,27.485l-536.892,267.162c-3.684,1.834-6.506,5.178-7.819,9.265l-39.396,122.635
		c-1.093,3.403,78.165,43.92,79.3,47.309l-45.838,70.241c-8.395,12.865-23.556,19.608-38.732,17.227l-274.397-43.045
		c-4.259-0.668-8.041-3.248-10.382-7.081l-95.744-156.759c-0.808-1.323-1.797-2.511-2.934-3.525l-336.122-299.74
		c-2.808-2.504-6.384-3.828-10.05-3.721l-197.189,5.733c-4.459,0.13-8.631,2.36-11.383,6.086l-72.238,97.806
		c-4.05,5.483-10.992,7.53-17.127,5.05l-225.188-91.036c-3.858-1.56-6.939-4.739-8.515-8.789l-50.368-129.406
		c-1.171-3.008-3.183-5.562-5.765-7.318L644.24,1064.32c-9.884-6.802-13.49-19.699-8.566-30.641l36.263-80.588l528.666,90.277
		c8.264,0.201,15.12-6.738,15.323-15.507l13.202-571.59c0.297-12.873,3.431-25.522,9.178-37.045L1277.044,341.548z"/>
	<path fill="#FFFFFF" d="M1287.433,338.325h454.169c8.008,0,14.6,6.682,14.968,15.17l10.285,237.385
		c0.326,7.531,5.591,13.783,12.606,14.971l597.91,101.281c1.685,0.285,3.404,0.263,5.082-0.065l181.066-35.473
		c2.181-0.427,4.424-0.335,6.567,0.269l171.553,48.357c5.63,1.587,9.883,6.494,10.905,12.58l34.883,207.865
		c0.538,3.203,1.988,6.155,4.156,8.456l83.1,88.185c3.497,3.711,5.043,9.015,4.132,14.174l-31.636,179.051
		c-0.888,5.027-4,9.293-8.364,11.465l-545.152,271.364c-3.684,1.834-6.506,5.178-7.819,9.265l-39.396,122.633
		c-1.09,3.394-1.068,7.079,0.064,10.458l35.91,107.179c3.786,11.3-5.129,22.81-16.309,21.056l-299.334-46.957
		c-4.259-0.668-8.041-3.248-10.382-7.081l-95.744-156.759c-0.808-1.323-1.797-2.511-2.934-3.525l-336.122-299.74
		c-2.808-2.504-6.384-3.828-10.05-3.721l-197.189,5.733c-4.459,0.13-8.631,2.36-11.383,6.086l-72.238,97.806
		c-4.05,5.483-10.992,7.53-17.127,5.05l-225.188-91.036c-3.858-1.56-6.939-4.739-8.515-8.789l-50.368-129.407
		c-1.171-3.008-3.183-5.562-5.765-7.318L676.531,976.17c-12.752-8.671-6.714-29.653,8.427-29.284l558.52,13.594
		c8.264,0.201,15.12-6.738,15.323-15.507l13.653-591.137C1272.654,345.209,1279.301,338.325,1287.433,338.325z"/>
</g>
<path id="wave_1_" fill="#ACD6E4" d="M2710.61,1720.346c1.124,17.414,15.596,31.192,33.294,31.192
	c17.698,0,32.17-13.779,33.294-31.192H2710.61z M2777.562,1720.346c1.124,17.414,15.596,31.192,33.294,31.192
	s32.17-13.779,33.294-31.192H2777.562z M2844.514,1720.346c1.124,17.414,15.596,31.192,33.294,31.192
	c17.698,0,32.17-13.779,33.294-31.192H2844.514z M3365.673,1626.556c1.124,17.414,15.596,31.192,33.293,31.192
	c17.698,0,32.17-13.779,33.294-31.192H3365.673z M3432.625,1626.556c1.124,17.414,15.596,31.192,33.294,31.192
	c17.698,0,32.17-13.779,33.294-31.192H3432.625z M3499.577,1626.556c1.124,17.414,15.596,31.192,33.294,31.192
	s32.17-13.779,33.294-31.192H3499.577z M2825.786,1413.981c1.124,17.414,15.596,31.192,33.294,31.192
	c17.698,0,32.17-13.779,33.294-31.192H2825.786z M2892.738,1413.981c1.124,17.414,15.596,31.192,33.294,31.192
	c17.698,0,32.17-13.779,33.294-31.192H2892.738z M2324.281,1647.131c1.124,17.414,15.596,31.192,33.293,31.192
	c17.698,0,32.17-13.779,33.294-31.192H2324.281z M2391.233,1647.131c1.124,17.414,15.596,31.192,33.294,31.192
	c17.698,0,32.17-13.779,33.294-31.192H2391.233z M2458.186,1647.131c1.124,17.414,15.596,31.192,33.294,31.192
	c17.698,0,32.17-13.779,33.294-31.192H2458.186z M2525.138,1647.131c1.124,17.414,15.596,31.192,33.294,31.192
	c17.698,0,32.17-13.779,33.294-31.192H2525.138z M3168.605,1539.488c1.124,17.414,15.596,31.192,33.293,31.192
	c17.698,0,32.17-13.779,33.294-31.192H3168.605z M3235.557,1539.488c1.124,17.414,15.596,31.192,33.294,31.192
	c17.698,0,32.17-13.779,33.294-31.192H3235.557z M3302.509,1539.488c1.124,17.414,15.596,31.192,33.294,31.192
	s32.17-13.779,33.294-31.192H3302.509z M3369.461,1539.488c1.124,17.414,15.596,31.192,33.294,31.192
	c17.698,0,32.17-13.779,33.294-31.192H3369.461z M2367.171,1814.801c1.124,17.414,15.596,31.192,33.294,31.192
	c17.698,0,32.17-13.779,33.294-31.192H2367.171z M2434.123,1814.801c1.124,17.414,15.596,31.192,33.294,31.192
	c17.698,0,32.17-13.779,33.294-31.192H2434.123z M2499.633,1814.801c1.124,17.414,15.596,31.192,33.294,31.192
	c17.698,0,32.17-13.779,33.294-31.192H2499.633z M2565.142,1814.801c1.124,17.414,15.596,31.192,33.294,31.192
	c17.698,0,32.17-13.779,33.294-31.192H2565.142z M2630.652,1814.801c1.124,17.414,15.596,31.192,33.294,31.192
	c17.698,0,32.17-13.779,33.294-31.192H2630.652z M2696.162,1814.801c1.124,17.414,15.596,31.192,33.294,31.192
	c17.698,0,32.17-13.779,33.293-31.192H2696.162z M3217.673,1894.556c1.124,17.414,15.596,31.192,33.293,31.192
	c17.698,0,32.17-13.779,33.294-31.192H3217.673z M3284.625,1894.556c1.124,17.414,15.596,31.192,33.294,31.192
	c17.698,0,32.17-13.779,33.294-31.192H3284.625z M3351.577,1894.556c1.124,17.414,15.596,31.192,33.294,31.192
	s32.17-13.779,33.294-31.192H3351.577z M3020.605,1807.488c1.124,17.414,15.596,31.192,33.293,31.192
	c17.698,0,32.17-13.779,33.294-31.192H3020.605z M3087.557,1807.488c1.124,17.414,15.596,31.192,33.294,31.192
	c17.698,0,32.17-13.779,33.294-31.192H3087.557z M3154.509,1807.488c1.124,17.414,15.596,31.192,33.294,31.192
	s32.17-13.779,33.294-31.192H3154.509z M3221.461,1807.488c1.124,17.414,15.596,31.192,33.294,31.192
	c17.698,0,32.17-13.779,33.294-31.192H3221.461z M2517.673,2362.556c1.124,17.414,15.596,31.192,33.293,31.192
	c17.698,0,32.17-13.779,33.294-31.192H2517.673z M2584.625,2362.556c1.124,17.414,15.596,31.192,33.294,31.192
	c17.698,0,32.17-13.779,33.294-31.192H2584.625z M2651.577,2362.556c1.124,17.414,15.596,31.192,33.294,31.192
	s32.17-13.779,33.294-31.192H2651.577z M2320.605,2275.488c1.124,17.414,15.596,31.192,33.293,31.192
	c17.698,0,32.17-13.779,33.294-31.192H2320.605z M2387.557,2275.488c1.124,17.414,15.596,31.192,33.294,31.192
	c17.698,0,32.17-13.779,33.294-31.192H2387.557z M2454.509,2275.488c1.124,17.414,15.596,31.192,33.294,31.192
	s32.17-13.779,33.294-31.192H2454.509z M2521.461,2275.488c1.124,17.414,15.596,31.192,33.294,31.192
	c17.698,0,32.17-13.779,33.294-31.192H2521.461z M2929.673,2138.556c1.124,17.414,15.596,31.192,33.293,31.192
	c17.698,0,32.17-13.779,33.294-31.192H2929.673z M2996.625,2138.556c1.124,17.414,15.596,31.192,33.294,31.192
	c17.698,0,32.17-13.779,33.294-31.192H2996.625z M3063.577,2138.556c1.124,17.414,15.596,31.192,33.294,31.192
	s32.17-13.779,33.294-31.192H3063.577z M2732.605,2051.488c1.124,17.414,15.596,31.192,33.293,31.192
	c17.698,0,32.17-13.779,33.294-31.192H2732.605z M2799.557,2051.488c1.124,17.414,15.596,31.192,33.294,31.192
	c17.698,0,32.17-13.779,33.294-31.192H2799.557z M2866.509,2051.488c1.124,17.414,15.596,31.192,33.294,31.192
	s32.17-13.779,33.294-31.192H2866.509z M2933.461,2051.488c1.124,17.414,15.596,31.192,33.294,31.192
	c17.698,0,32.17-13.779,33.294-31.192H2933.461z M2351.622,2747.352c1.124,17.414,15.596,31.192,33.294,31.192
	s32.17-13.779,33.294-31.192H2351.622z M2418.574,2747.352c1.124,17.414,15.596,31.192,33.294,31.192
	c17.698,0,32.17-13.779,33.294-31.192H2418.574z M2484.083,2747.352c1.124,17.414,15.596,31.192,33.294,31.192
	s32.17-13.779,33.294-31.192H2484.083z M2549.593,2747.352c1.124,17.414,15.596,31.192,33.294,31.192
	c17.698,0,32.17-13.779,33.294-31.192H2549.593z M2615.103,2747.352c1.124,17.414,15.596,31.192,33.293,31.192
	c17.698,0,32.17-13.779,33.294-31.192H2615.103z M2680.612,2747.352c1.124,17.414,15.596,31.192,33.294,31.192
	c17.698,0,32.17-13.779,33.294-31.192H2680.612z M3202.123,2827.107c1.124,17.414,15.596,31.192,33.294,31.192
	c17.698,0,32.17-13.779,33.293-31.192H3202.123z M3269.075,2827.107c1.124,17.414,15.596,31.192,33.294,31.192
	c17.698,0,32.17-13.779,33.294-31.192H3269.075z M3336.027,2827.107c1.124,17.414,15.596,31.192,33.294,31.192
	c17.698,0,32.17-13.779,33.294-31.192H3336.027z M3005.056,2740.039c1.124,17.414,15.596,31.192,33.294,31.192
	c17.698,0,32.17-13.779,33.293-31.192H3005.056z M3072.008,2740.039c1.124,17.414,15.596,31.192,33.293,31.192
	c17.698,0,32.17-13.779,33.294-31.192H3072.008z M3138.96,2740.039c1.124,17.414,15.596,31.192,33.294,31.192
	c17.698,0,32.17-13.779,33.294-31.192H3138.96z M3205.912,2740.039c1.124,17.414,15.596,31.192,33.294,31.192
	s32.17-13.779,33.294-31.192H3205.912z M2502.123,3295.107c1.124,17.414,15.596,31.192,33.294,31.192
	c17.698,0,32.17-13.779,33.293-31.192H2502.123z M2569.075,3295.107c1.124,17.414,15.596,31.192,33.294,31.192
	c17.698,0,32.17-13.779,33.294-31.192H2569.075z M2636.027,3295.107c1.124,17.414,15.596,31.192,33.294,31.192
	c17.698,0,32.17-13.779,33.294-31.192H2636.027z M2305.056,3208.039c1.124,17.414,15.596,31.192,33.294,31.192
	c17.698,0,32.17-13.779,33.293-31.192H2305.056z M2372.008,3208.039c1.124,17.414,15.596,31.192,33.293,31.192
	c17.698,0,32.17-13.779,33.294-31.192H2372.008z M2438.96,3208.039c1.124,17.414,15.596,31.192,33.294,31.192
	c17.698,0,32.17-13.779,33.294-31.192H2438.96z M2505.912,3208.039c1.124,17.414,15.596,31.192,33.294,31.192
	s32.17-13.779,33.294-31.192H2505.912z M2914.123,3071.107c1.124,17.414,15.596,31.192,33.294,31.192
	c17.698,0,32.17-13.779,33.293-31.192H2914.123z M2981.075,3071.107c1.124,17.414,15.596,31.192,33.294,31.192
	c17.698,0,32.17-13.779,33.294-31.192H2981.075z M3048.027,3071.107c1.124,17.414,15.596,31.192,33.294,31.192
	c17.698,0,32.17-13.779,33.294-31.192H3048.027z M2717.056,2984.039c1.124,17.414,15.596,31.192,33.294,31.192
	c17.698,0,32.17-13.779,33.293-31.192H2717.056z M2784.008,2984.039c1.124,17.414,15.596,31.192,33.293,31.192
	c17.698,0,32.17-13.779,33.294-31.192H2784.008z M2850.96,2984.039c1.124,17.414,15.596,31.192,33.294,31.192
	c17.698,0,32.17-13.779,33.294-31.192H2850.96z M2917.912,2984.039c1.124,17.414,15.596,31.192,33.294,31.192
	s32.17-13.779,33.294-31.192H2917.912z M3314.574,1727.352c1.124,17.414,15.596,31.192,33.294,31.192
	c17.698,0,32.17-13.779,33.294-31.192H3314.574z M3381.526,1727.352c1.124,17.414,15.596,31.192,33.294,31.192
	c17.698,0,32.17-13.779,33.294-31.192H3381.526z M3447.036,1727.352c1.124,17.414,15.596,31.192,33.294,31.192
	c17.698,0,32.17-13.779,33.294-31.192H3447.036z M3512.545,1727.352c1.124,17.414,15.596,31.192,33.294,31.192
	c17.698,0,32.17-13.779,33.294-31.192H3512.545z M3578.055,1727.352c1.124,17.414,15.596,31.192,33.294,31.192
	c17.698,0,32.17-13.779,33.294-31.192H3578.055z M3643.564,1727.352c1.124,17.414,15.596,31.192,33.294,31.192
	c17.698,0,32.17-13.779,33.293-31.192H3643.564z M4165.075,1807.107c1.124,17.414,15.596,31.192,33.294,31.192
	c17.698,0,32.169-13.779,33.293-31.192H4165.075z M4232.027,1807.107c1.124,17.414,15.596,31.192,33.294,31.192
	c17.698,0,32.169-13.779,33.293-31.192H4232.027z M4298.979,1807.107c1.124,17.414,15.596,31.192,33.293,31.192
	c17.698,0,32.17-13.779,33.294-31.192H4298.979z M3968.008,1720.039c1.124,17.414,15.596,31.192,33.293,31.192
	c17.698,0,32.17-13.779,33.294-31.192H3968.008z M4034.96,1720.039c1.124,17.414,15.596,31.192,33.294,31.192
	c17.698,0,32.17-13.779,33.294-31.192H4034.96z M4101.912,1720.039c1.124,17.414,15.596,31.192,33.293,31.192
	s32.17-13.779,33.293-31.192H4101.912z M4168.864,1720.039c1.124,17.414,15.596,31.192,33.294,31.192s32.169-13.779,33.293-31.192
	H4168.864z M3465.075,2275.107c1.124,17.414,15.596,31.192,33.293,31.192c17.698,0,32.17-13.779,33.294-31.192H3465.075z
	 M3532.027,2275.107c1.124,17.414,15.596,31.192,33.294,31.192c17.698,0,32.17-13.779,33.294-31.192H3532.027z M3598.979,2275.107
	c1.124,17.414,15.596,31.192,33.294,31.192s32.17-13.779,33.294-31.192H3598.979z M3268.008,2188.039
	c1.124,17.414,15.596,31.192,33.293,31.192c17.698,0,32.17-13.779,33.294-31.192H3268.008z M3334.96,2188.039
	c1.124,17.414,15.596,31.192,33.294,31.192c17.698,0,32.17-13.779,33.294-31.192H3334.96z M3401.912,2188.039
	c1.124,17.414,15.596,31.192,33.294,31.192s32.17-13.779,33.294-31.192H3401.912z M3468.864,2188.039
	c1.124,17.414,15.596,31.192,33.294,31.192c17.698,0,32.17-13.779,33.294-31.192H3468.864z M3877.075,2051.107
	c1.124,17.414,15.596,31.192,33.293,31.192c17.698,0,32.17-13.779,33.294-31.192H3877.075z M3944.027,2051.107
	c1.124,17.414,15.596,31.192,33.294,31.192c17.698,0,32.17-13.779,33.294-31.192H3944.027z M4010.979,2051.107
	c1.124,17.414,15.596,31.192,33.294,31.192s32.17-13.779,33.294-31.192H4010.979z M3680.008,1964.039
	c1.124,17.414,15.596,31.192,33.293,31.192c17.698,0,32.17-13.779,33.294-31.192H3680.008z M3746.96,1964.039
	c1.124,17.414,15.596,31.192,33.294,31.192c17.698,0,32.17-13.779,33.294-31.192H3746.96z M3813.912,1964.039
	c1.124,17.414,15.596,31.192,33.294,31.192s32.17-13.779,33.294-31.192H3813.912z M3880.864,1964.039
	c1.124,17.414,15.596,31.192,33.294,31.192c17.698,0,32.17-13.779,33.294-31.192H3880.864z M3752.83,2679.915
	c1.124,17.414,15.596,31.192,33.294,31.192c17.698,0,32.17-13.779,33.293-31.192H3752.83z M3819.781,2679.915
	c1.124,17.414,15.596,31.192,33.294,31.192c17.698,0,32.17-13.779,33.294-31.192H3819.781z M3886.734,2679.915
	c1.124,17.414,15.596,31.192,33.294,31.192c17.698,0,32.17-13.779,33.294-31.192H3886.734z M3555.762,2592.847
	c1.124,17.414,15.596,31.192,33.294,31.192c17.698,0,32.17-13.779,33.293-31.192H3555.762z M3622.714,2592.847
	c1.124,17.414,15.596,31.192,33.293,31.192c17.698,0,32.17-13.779,33.294-31.192H3622.714z M3689.666,2592.847
	c1.124,17.414,15.596,31.192,33.294,31.192c17.698,0,32.17-13.779,33.294-31.192H3689.666z M3756.618,2592.847
	c1.124,17.414,15.596,31.192,33.294,31.192s32.17-13.779,33.294-31.192H3756.618z"/>
<g id="boat_1_">
	<rect x="2613.233" y="1505.919" fill="#FFFFFF" width="69.185" height="43.953"/>
	<g>
		<g>
			<rect x="2710.603" y="1495.517" fill="#FFFFFF" width="47.816" height="54.355"/>
		</g>
		<g>
			<rect x="2730.238" y="1459.247" fill="#FFFFFF" width="8.546" height="63.447"/>
		</g>
		<g>
			<rect x="2711.314" y="1473.267" fill="#FFFFFF" width="46.395" height="8.546"/>
		</g>
	</g>
	<path fill="#1D3658" d="M2920.224,1587.144c11.676-10.221,32.269-25.647,60.509-36.816c3.92-1.551,2.812-7.376-1.404-7.377
		c-93.763-0.02-432.671-0.166-431.619-1.218l22.706,45.411H2920.224z"/>
	<path fill="#E5545A" d="M2564.116,1574.544l11.676,23.351h333.31c0,0,9.464-10.802,27.12-23.351H2564.116z"/>
</g>
<g>
	<g>
		<path fill="#EEE1D0" d="M2526.525,1305.033c-2.064,0-3.738-1.674-3.738-3.737v-59.263c0-2.064,1.674-3.737,3.738-3.737
			s3.737,1.674,3.737,3.737v59.263C2530.263,1303.359,2528.589,1305.033,2526.525,1305.033z"/>
	</g>
	<g>
		<path fill="#EEE1D0" d="M2526.022,1281.45h-4.894c-7.213,0-13.081-5.868-13.081-13.081v-11.302c0-2.064,1.674-3.737,3.738-3.737
			c2.064,0,3.737,1.674,3.737,3.737v11.302c0,3.091,2.515,5.606,5.606,5.606h4.894c2.064,0,3.737,1.674,3.737,3.737
			S2528.085,1281.45,2526.022,1281.45z"/>
	</g>
	<g>
		<path fill="#EEE1D0" d="M2533.051,1270.771h-6.317c-2.064,0-3.738-1.674-3.738-3.738s1.674-3.737,3.738-3.737h6.317
			c3.091,0,5.606-2.515,5.606-5.606v-12.013c0-2.064,1.674-3.737,3.738-3.737s3.737,1.674,3.737,3.737v12.013
			C2546.132,1264.903,2540.264,1270.771,2533.051,1270.771z"/>
	</g>
</g>
<g>
	<g>
		<path fill="#EEE1D0" d="M1937.595,1507.532c-2.636,0-4.774-2.138-4.774-4.774v-75.704c0-2.636,2.138-4.774,4.774-4.774
			s4.774,2.138,4.774,4.774v75.704C1942.37,1505.394,1940.232,1507.532,1937.595,1507.532z"/>
	</g>
	<g>
		<path fill="#EEE1D0" d="M1936.952,1477.406h-6.252c-9.214,0-16.71-7.496-16.71-16.71v-14.438c0-2.636,2.138-4.774,4.774-4.774
			s4.774,2.138,4.774,4.774v14.438c0,3.948,3.213,7.161,7.161,7.161h6.252c2.636,0,4.774,2.138,4.774,4.774
			S1939.588,1477.406,1936.952,1477.406z"/>
	</g>
	<g>
		<path fill="#EEE1D0" d="M1945.932,1463.765h-8.07c-2.636,0-4.774-2.138-4.774-4.774s2.138-4.774,4.774-4.774h8.07
			c3.948,0,7.161-3.213,7.161-7.161v-15.346c0-2.636,2.138-4.774,4.774-4.774s4.774,2.138,4.774,4.774v15.346
			C1962.642,1456.269,1955.146,1463.765,1945.932,1463.765z"/>
	</g>
</g>
<g>
	<g>
		<path fill="#EEE1D0" d="M1339.672,863.482c-2.78,0-5.035-2.255-5.035-5.035v-74.803c0-2.78,2.255-5.035,5.035-5.035
			s5.035,2.255,5.035,5.035v74.803C1344.707,861.227,1342.452,863.482,1339.672,863.482z"/>
	</g>
	<g>
		<path fill="#EEE1D0" d="M1347.921,833.752h-17.458c-8.276,0-15.007-6.732-15.007-15.007v-13.044c0-2.78,2.255-5.035,5.035-5.035
			c2.78,0,5.035,2.255,5.035,5.035v13.044c0,2.722,2.215,4.938,4.938,4.938h17.458c2.722,0,4.936-2.215,4.936-4.938v-20.715
			c0-2.78,2.255-5.035,5.035-5.035s5.035,2.255,5.035,5.035v20.715C1362.927,827.02,1356.195,833.752,1347.921,833.752z"/>
	</g>
</g>
<g>
	<g>
		<path fill="#EEE1D0" d="M1372.8,639.634c-4.06,0-7.352-3.292-7.352-7.352V523.049c0-4.06,3.292-7.352,7.352-7.352
			s7.352,3.292,7.352,7.352v109.233C1380.152,636.342,1376.859,639.634,1372.8,639.634z"/>
	</g>
	<g>
		<path fill="#EEE1D0" d="M1384.846,596.221h-25.493c-12.085,0-21.915-9.83-21.915-21.915v-19.047c0-4.06,3.292-7.352,7.352-7.352
			s7.352,3.292,7.352,7.352v19.047c0,3.976,3.235,7.211,7.211,7.211h25.493c3.976,0,7.209-3.235,7.209-7.211v-30.25
			c0-4.06,3.292-7.352,7.352-7.352s7.352,3.293,7.352,7.352v30.25C1406.759,586.39,1396.928,596.221,1384.846,596.221z"/>
	</g>
</g>
<g>
	<path fill="#EEE1D0" d="M1804.622,1429.581h-3.383c0.258-0.38,0.541-0.788,0.848-1.222c0.601-0.847,1.297-1.784,2.072-2.789
		c1.552-2.008,3.445-4.264,5.566-6.582c2.118-2.322,4.473-4.696,6.904-6.99c2.437-2.288,4.948-4.497,7.392-6.473
		c2.441-1.979,4.804-3.735,6.901-5.166c1.048-0.715,2.024-1.355,2.905-1.905c0.881-0.55,1.662-1.016,2.318-1.386
		c1.307-0.745,2.104-1.118,2.104-1.118s-0.419,0.774-1.241,2.034c-0.408,0.633-0.92,1.385-1.521,2.232
		c-0.601,0.847-1.297,1.783-2.074,2.787c-1.552,2.008-3.446,4.263-5.565,6.583c-2.117,2.323-4.471,4.698-6.899,6.995
		c-2.433,2.291-4.943,4.501-7.386,6.478c-2.44,1.98-4.803,3.736-6.9,5.167C1805.946,1428.717,1805.265,1429.167,1804.622,1429.581z"
		/>
	<path fill="#EEE1D0" d="M1808.671,1413.677c-0.732,1.807-1.464,3.547-2.194,5.184c-0.725,1.639-1.438,3.179-2.119,4.593
		c-0.684,1.413-1.332,2.701-1.928,3.836c-0.449,0.854-0.865,1.621-1.239,2.292h-1.519c0.116-0.872,0.27-1.901,0.462-3.063
		c0.21-1.264,0.471-2.682,0.779-4.222c0.312-1.538,0.673-3.197,1.085-4.94c0.408-1.745,0.874-3.574,1.382-5.457
		c1.014-3.766,2.228-7.739,3.545-11.677c1.324-3.936,2.754-7.836,4.219-11.451c0.731-1.808,1.464-3.547,2.192-5.184
		c0.37-0.817,0.718-1.615,1.075-2.381c0.361-0.764,0.701-1.506,1.044-2.212c0.685-1.413,1.334-2.701,1.93-3.835
		c0.598-1.134,1.136-2.117,1.598-2.92c0.916-1.609,1.509-2.505,1.509-2.505s-0.068,1.073-0.309,2.908
		c-0.117,0.919-0.282,2.027-0.49,3.292c-0.209,1.264-0.47,2.683-0.777,4.222c-0.152,0.77-0.33,1.566-0.503,2.393
		c-0.177,0.826-0.382,1.673-0.581,2.547c-0.409,1.745-0.875,3.573-1.384,5.456c-1.016,3.766-2.231,7.738-3.553,11.675
		C1811.569,1406.163,1810.138,1410.062,1808.671,1413.677z"/>
	<path fill="#EEE1D0" d="M1804.945,1403.251c-0.311,3.736-0.733,7.464-1.259,10.947c-0.522,3.484-1.135,6.725-1.762,9.495
		c-0.315,1.385-0.625,2.652-0.923,3.774c-0.208,0.778-0.405,1.485-0.59,2.114h-1.586c-0.084-0.683-0.168-1.458-0.25-2.315
		c-0.11-1.155-0.207-2.457-0.29-3.874c-0.164-2.835-0.235-6.133-0.176-9.655c0.054-3.523,0.251-7.268,0.559-11.005
		c0.315-3.736,0.739-7.463,1.267-10.947c0.523-3.484,1.136-6.725,1.763-9.494c0.313-1.385,0.623-2.652,0.921-3.774
		c0.298-1.122,0.576-2.098,0.823-2.9c0.488-1.606,0.84-2.517,0.84-2.517s0.197,0.957,0.414,2.621
		c0.112,0.832,0.226,1.841,0.335,2.996c0.109,1.155,0.206,2.457,0.287,3.874c0.163,2.835,0.234,6.133,0.177,9.655
		C1805.444,1395.768,1805.248,1399.514,1804.945,1403.251z"/>
	<path fill="#EEE1D0" d="M1798.048,1429.581c-0.353-0.917-0.755-2.015-1.195-3.27c-0.465-1.331-0.965-2.837-1.486-4.484
		c-0.262-0.824-0.515-1.685-0.788-2.575c-0.269-0.891-0.525-1.815-0.8-2.764c-0.539-1.899-1.07-3.909-1.592-5.993
		c-1.047-4.168-2.026-8.641-2.896-13.135c-0.863-4.495-1.618-9.011-2.198-13.27c-0.291-2.129-0.547-4.192-0.753-6.156
		c-0.211-1.962-0.381-3.823-0.516-5.546c-0.131-1.723-0.229-3.307-0.294-4.715c-0.064-1.408-0.102-2.639-0.114-3.657
		c-0.033-2.033,0.021-3.209,0.021-3.209s0.488,1.071,1.215,2.97c0.367,0.949,0.791,2.105,1.256,3.436
		c0.465,1.331,0.964,2.837,1.484,4.485c0.516,1.648,1.052,3.439,1.587,5.339c0.54,1.899,1.071,3.909,1.594,5.993
		c1.048,4.168,2.029,8.641,2.903,13.134c0.867,4.495,1.625,9.01,2.206,13.268c0.292,2.129,0.547,4.192,0.755,6.155
		c0.098,0.983,0.205,1.936,0.287,2.863c0.078,0.927,0.164,1.821,0.228,2.683c0.13,1.723,0.228,3.307,0.291,4.715
		c0.063,1.408,0.1,2.64,0.111,3.657c0,0.026,0.001,0.049,0.001,0.075H1798.048z"/>
	<path fill="#EEE1D0" d="M1774.323,1381.934c0.527,0.639,1.147,1.426,1.839,2.338c0.691,0.912,1.448,1.953,2.252,3.1
		c1.607,2.294,3.374,5.024,5.147,8.011c1.777,2.985,3.548,6.231,5.219,9.528c1.665,3.3,3.233,6.65,4.585,9.849
		c1.357,3.197,2.512,6.238,3.411,8.89c0.449,1.326,0.841,2.552,1.168,3.649c0.251,0.843,0.467,1.608,0.647,2.281h-1.893
		c-0.288-0.368-0.593-0.763-0.914-1.187c-0.691-0.913-1.447-1.954-2.25-3.101c-1.606-2.294-3.373-5.025-5.148-8.01
		c-1.778-2.984-3.551-6.23-5.226-9.525c-1.669-3.298-3.238-6.647-4.592-9.846c-1.359-3.197-2.514-6.237-3.412-8.89
		c-0.448-1.327-0.84-2.553-1.166-3.65c-0.326-1.098-0.593-2.063-0.797-2.866c-0.413-1.603-0.583-2.553-0.583-2.553
		S1773.275,1380.652,1774.323,1381.934z"/>
	<path fill="#EEE1D0" d="M1766.544,1391.818c0.615,0.462,1.345,1.038,2.166,1.711c0.82,0.674,1.725,1.451,2.694,2.314
		c1.936,1.727,4.103,3.818,6.319,6.144c2.22,2.323,4.48,4.891,6.654,7.529c2.168,2.643,4.253,5.355,6.106,7.98
		c1.856,2.623,3.493,5.15,4.817,7.381c0.662,1.116,1.251,2.153,1.756,3.086c0.316,0.586,0.597,1.123,0.849,1.617h-2.623
		c-0.032-0.027-0.063-0.051-0.096-0.078c-0.819-0.675-1.724-1.452-2.692-2.316c-1.936-1.727-4.102-3.818-6.32-6.144
		c-2.221-2.322-4.483-4.889-6.661-7.524c-2.172-2.64-4.258-5.351-6.112-7.975c-1.858-2.622-3.494-5.149-4.818-7.381
		c-0.661-1.116-1.25-2.154-1.754-3.088c-0.503-0.935-0.928-1.761-1.264-2.454c-0.676-1.381-1.005-2.217-1.005-2.217
		S1765.319,1390.889,1766.544,1391.818z"/>
	<path fill="#EEE1D0" d="M1805.645,1426.591c-0.886,0.948-1.716,1.804-2.471,2.55c-0.154,0.152-0.303,0.297-0.45,0.44h-2.297
		c0.217-0.545,0.464-1.146,0.746-1.804c0.418-0.975,0.911-2.062,1.469-3.232c1.116-2.342,2.518-5.007,4.129-7.787
		c1.608-2.783,3.438-5.672,5.359-8.5c1.926-2.824,3.945-5.585,5.946-8.1c1.997-2.518,3.965-4.796,5.737-6.691
		c0.887-0.947,1.718-1.803,2.473-2.548c0.756-0.745,1.431-1.384,2.002-1.9c1.136-1.036,1.847-1.585,1.847-1.585
		s-0.252,0.862-0.801,2.299c-0.271,0.72-0.62,1.582-1.036,2.558c-0.418,0.976-0.91,2.062-1.468,3.234
		c-1.116,2.342-2.517,5.007-4.13,7.786c-1.609,2.782-3.441,5.67-5.365,8.496c-1.93,2.822-3.95,5.582-5.952,8.096
		C1809.384,1422.417,1807.416,1424.696,1805.645,1426.591z"/>
</g>
<g>
	<g>
		<g>
			<g>
				<polygon fill="#1D3658" points="2743.552,1171.845 2726.536,1162.363 2721.931,1190.879 2741.138,1186.788 				"/>
			</g>
		</g>
		<g>
			<g>
				<polygon fill="#1D3658" points="2743.552,1171.845 2742.879,1176.008 2741.811,1182.625 2741.138,1186.788 2775.831,1200.295 
					2777.747,1188.429 2778.816,1181.812 2780.732,1169.946 				"/>
			</g>
		</g>
		<g>
			<defs>
				<path id="SVGID_1_" d="M2723.917,1193.072l-307.26-49.627c-9.713-1.569-16.316-10.715-14.747-20.428l0,0
					c1.137-7.043,6.367-12.728,13.291-14.449l38.821-9.648l13.948-9.746c2.223-1.553,4.963-2.18,7.64-1.747l258.624,41.772
					L2723.917,1193.072z"/>
			</defs>
			<clipPath id="SVGID_2_">
				<use xlink:href="#SVGID_1_"  overflow="visible"/>
			</clipPath>
			<g clip-path="url(#SVGID_2_)">
				<g>
					<path fill="#EEE1D0" d="M2723.917,1193.072l-307.26-49.627c-9.713-1.569-16.316-10.715-14.747-20.428l0,0
						c1.137-7.043,6.367-12.728,13.291-14.449l38.821-9.648l13.948-9.746c2.223-1.553,4.963-2.18,7.64-1.747l258.624,41.772
						L2723.917,1193.072z"/>
				</g>
			</g>
			<g clip-path="url(#SVGID_2_)">
				<g>
					
						<rect x="2452.706" y="1092.737" transform="matrix(0.9872 0.1594 -0.1594 0.9872 206.3587 -378.9699)" fill="#1D3658" width="24.032" height="7.395"/>
				</g>
			</g>
			<g clip-path="url(#SVGID_2_)">
				<g>
					<polygon fill="#1D3658" points="2398.135,1105.81 2471.591,1117.674 2465.032,1158.28 2382.908,1145.016 					"/>
				</g>
			</g>
			<g clip-path="url(#SVGID_2_)">
				<g>
					<polygon fill="#1D3658" points="2444.556,1138.588 2728.585,1184.463 2722.026,1225.069 2404.479,1173.78 					"/>
				</g>
			</g>
		</g>
		<g>
			<g>
				<polygon fill="#1D3658" points="2749.226,1136.714 2748.553,1140.877 2747.485,1147.494 2746.812,1151.657 2781.505,1165.164 
					2783.421,1153.298 2784.49,1146.681 2786.406,1134.815 				"/>
			</g>
		</g>
		<g>
			<g>
				<polygon fill="#EEE1D0" points="2695.909,1123.007 2775.344,1054.38 2799.068,1058.211 2768.498,1128.646 2732.454,1122.824 
									"/>
			</g>
		</g>
		<g>
			<g>
				<path fill="#1D3658" d="M2560.455,1162.638l145.674-5.672c7.935-0.543,14.308,6.444,13.04,14.295l-2.604,16.123
					L2560.455,1162.638z"/>
			</g>
		</g>
	</g>
	<g>
		<g>
			<circle fill="#1D3658" cx="2459.241" cy="1170.813" r="5.254"/>
		</g>
	</g>
	<g>
		<g>
			<circle fill="#1D3658" cx="2645.717" cy="1200.932" r="7.26"/>
		</g>
	</g>
	<g>
		<g>
			
				<rect x="2646.603" y="1173.526" transform="matrix(0.9872 0.1594 -0.1594 0.9872 223.1936 -407.0172)" fill="#1D3658" width="2.627" height="27.583"/>
		</g>
	</g>
	<g>
		<g>
			
				<rect x="2460.317" y="1143.438" transform="matrix(0.9872 0.1594 -0.1594 0.9872 216.0127 -377.6991)" fill="#1D3658" width="2.627" height="27.583"/>
		</g>
	</g>
	<g>
		<g>
			<path fill="#D6CBB4" d="M2751.86,1164.197l-44.484-7.185c-11.213-1.811-18.835-12.369-17.024-23.582l0,0
				c1.811-11.213,12.369-18.835,23.582-17.024l44.484,7.185L2751.86,1164.197z"/>
		</g>
	</g>
</g>
<polygon fill="#1D3658" points="1382.622,902.347 1391.467,929.568 1420.089,929.568 1396.933,946.392 1405.778,973.613 
	1382.622,956.79 1359.466,973.613 1368.311,946.392 1345.155,929.568 1373.777,929.568 "/>
<polygon fill="#1D3658" points="2010.443,902.347 2019.288,929.568 2047.91,929.568 2024.754,946.392 2033.599,973.613 
	2010.443,956.79 1987.287,973.613 1996.132,946.392 1972.976,929.568 2001.599,929.568 "/>
<g>
	<path fill="#EEE1D0" d="M2092.26,916.83h-4.165c0.318-0.468,0.666-0.97,1.044-1.504c0.74-1.043,1.596-2.197,2.551-3.433
		c1.91-2.472,4.241-5.249,6.853-8.103c2.607-2.858,5.507-5.782,8.5-8.605c3-2.817,6.091-5.536,9.1-7.969
		c3.005-2.436,5.915-4.599,8.496-6.36c1.29-0.881,2.492-1.668,3.576-2.345c1.085-0.677,2.047-1.25,2.854-1.706
		c1.609-0.918,2.59-1.376,2.59-1.376s-0.516,0.953-1.527,2.504c-0.503,0.779-1.132,1.705-1.872,2.748
		c-0.74,1.042-1.597,2.196-2.553,3.432c-1.911,2.472-4.242,5.249-6.852,8.104c-2.606,2.86-5.504,5.784-8.493,8.612
		c-2.996,2.821-6.086,5.542-9.093,7.976c-3.004,2.438-5.914,4.6-8.495,6.361C2093.889,915.766,2093.051,916.32,2092.26,916.83z"/>
	<path fill="#EEE1D0" d="M2097.245,897.25c-0.901,2.225-1.803,4.366-2.701,6.382c-0.892,2.018-1.771,3.914-2.608,5.655
		c-0.842,1.74-1.64,3.325-2.374,4.722c-0.553,1.051-1.065,1.996-1.525,2.821h-1.87c0.143-1.074,0.333-2.34,0.569-3.771
		c0.259-1.556,0.58-3.302,0.959-5.198c0.384-1.893,0.829-3.935,1.336-6.082c0.502-2.149,1.076-4.4,1.701-6.718
		c1.248-4.637,2.743-9.528,4.365-14.377c1.63-4.846,3.391-9.648,5.194-14.098c0.9-2.226,1.802-4.367,2.698-6.383
		c0.455-1.006,0.884-1.989,1.324-2.931c0.445-0.941,0.863-1.854,1.285-2.723c0.844-1.739,1.642-3.325,2.377-4.721
		c0.736-1.396,1.399-2.606,1.967-3.595c1.127-1.981,1.858-3.084,1.858-3.084s-0.083,1.32-0.381,3.58
		c-0.145,1.131-0.347,2.496-0.603,4.053c-0.257,1.557-0.578,3.303-0.957,5.198c-0.188,0.948-0.406,1.928-0.62,2.947
		c-0.219,1.017-0.47,2.059-0.715,3.136c-0.503,2.149-1.077,4.4-1.703,6.717c-1.25,4.636-2.747,9.527-4.374,14.374
		C2100.812,887.999,2099.05,892.8,2097.245,897.25z"/>
	<path fill="#EEE1D0" d="M2092.656,884.415c-0.383,4.6-0.903,9.189-1.55,13.477c-0.642,4.289-1.397,8.279-2.17,11.689
		c-0.387,1.705-0.77,3.265-1.136,4.646c-0.256,0.958-0.499,1.828-0.726,2.603h-1.953c-0.103-0.841-0.207-1.796-0.308-2.85
		c-0.135-1.422-0.255-3.025-0.357-4.77c-0.201-3.491-0.289-7.551-0.217-11.887c0.067-4.337,0.309-8.948,0.688-13.549
		c0.388-4.6,0.91-9.188,1.56-13.477c0.645-4.289,1.398-8.279,2.171-11.689c0.386-1.705,0.768-3.265,1.134-4.646
		c0.367-1.381,0.709-2.583,1.014-3.571c0.601-1.977,1.034-3.099,1.034-3.099s0.243,1.178,0.51,3.227
		c0.138,1.025,0.278,2.267,0.413,3.689c0.134,1.422,0.254,3.024,0.354,4.77c0.201,3.49,0.288,7.55,0.218,11.887
		C2093.271,875.202,2093.03,879.814,2092.656,884.415z"/>
	<path fill="#EEE1D0" d="M2084.165,916.83c-0.435-1.129-0.93-2.481-1.471-4.026c-0.573-1.638-1.188-3.492-1.83-5.521
		c-0.322-1.014-0.634-2.075-0.97-3.17c-0.331-1.096-0.646-2.235-0.985-3.403c-0.663-2.338-1.317-4.812-1.96-7.379
		c-1.288-5.132-2.494-10.639-3.565-16.171c-1.062-5.534-1.993-11.094-2.706-16.337c-0.358-2.621-0.673-5.161-0.927-7.578
		c-0.26-2.416-0.469-4.707-0.635-6.828c-0.162-2.121-0.282-4.071-0.362-5.804c-0.079-1.734-0.125-3.249-0.141-4.502
		c-0.04-2.503,0.026-3.951,0.026-3.951s0.601,1.319,1.496,3.657c0.452,1.168,0.974,2.592,1.546,4.23
		c0.572,1.638,1.187,3.493,1.827,5.521c0.636,2.03,1.295,4.234,1.954,6.573c0.665,2.338,1.318,4.812,1.963,7.378
		c1.291,5.132,2.498,10.638,3.575,16.17c1.067,5.533,2,11.093,2.716,16.335c0.359,2.621,0.674,5.161,0.929,7.578
		c0.121,1.21,0.252,2.384,0.354,3.525c0.096,1.142,0.202,2.242,0.281,3.303c0.16,2.121,0.28,4.071,0.359,5.805
		c0.077,1.734,0.123,3.25,0.137,4.502c0,0.031,0.001,0.061,0.001,0.092H2084.165z"/>
	<path fill="#EEE1D0" d="M2054.956,858.17c0.649,0.787,1.412,1.756,2.264,2.879c0.851,1.123,1.783,2.405,2.772,3.817
		c1.978,2.824,4.154,6.186,6.337,9.863c2.188,3.674,4.368,7.672,6.426,11.731c2.049,4.063,3.98,8.187,5.645,12.126
		c1.67,3.936,3.093,7.68,4.199,10.945c0.553,1.633,1.036,3.142,1.439,4.492c0.309,1.038,0.575,1.979,0.796,2.808h-2.33
		c-0.355-0.453-0.729-0.939-1.125-1.461c-0.85-1.124-1.781-2.406-2.77-3.818c-1.978-2.824-4.153-6.186-6.338-9.862
		c-2.189-3.673-4.371-7.67-6.434-11.726c-2.055-4.061-3.987-8.184-5.654-12.122c-1.673-3.935-3.094-7.679-4.2-10.945
		c-0.552-1.633-1.034-3.143-1.436-4.494c-0.401-1.351-0.73-2.54-0.98-3.529c-0.509-1.974-0.718-3.143-0.718-3.143
		S2053.666,856.591,2054.956,858.17z"/>
	<path fill="#EEE1D0" d="M2045.38,870.338c0.757,0.569,1.656,1.277,2.666,2.106c1.01,0.83,2.124,1.787,3.316,2.849
		c2.384,2.126,5.051,4.7,7.78,7.565c2.733,2.861,5.516,6.021,8.192,9.269c2.67,3.254,5.236,6.592,7.518,9.825
		c2.286,3.229,4.301,6.34,5.93,9.087c0.815,1.373,1.54,2.65,2.162,3.799c0.389,0.721,0.736,1.383,1.045,1.991h-3.229
		c-0.04-0.033-0.077-0.063-0.118-0.096c-1.009-0.83-2.123-1.787-3.314-2.851c-2.383-2.126-5.05-4.701-7.781-7.564
		c-2.735-2.859-5.519-6.019-8.2-9.263c-2.674-3.25-5.242-6.587-7.525-9.819c-2.287-3.228-4.302-6.339-5.931-9.087
		c-0.814-1.374-1.539-2.651-2.16-3.801c-0.62-1.151-1.143-2.168-1.556-3.021c-0.833-1.7-1.238-2.729-1.238-2.729
		S2043.872,869.195,2045.38,870.338z"/>
	<path fill="#EEE1D0" d="M2093.518,913.149c-1.09,1.167-2.113,2.221-3.042,3.139c-0.19,0.187-0.373,0.365-0.554,0.542h-2.828
		c0.267-0.672,0.572-1.411,0.918-2.221c0.515-1.201,1.122-2.538,1.809-3.98c1.374-2.883,3.1-6.164,5.083-9.587
		c1.979-3.426,4.233-6.983,6.597-10.465c2.372-3.477,4.857-6.876,7.32-9.972c2.458-3.099,4.882-5.905,7.063-8.237
		c1.092-1.166,2.115-2.22,3.045-3.137c0.931-0.917,1.762-1.704,2.465-2.339c1.399-1.275,2.273-1.952,2.273-1.952
		s-0.31,1.062-0.986,2.83c-0.334,0.886-0.763,1.947-1.276,3.149c-0.514,1.201-1.121,2.539-1.807,3.981
		c-1.374,2.884-3.099,6.165-5.084,9.586c-1.981,3.425-4.236,6.981-6.605,10.459c-2.376,3.474-4.863,6.872-7.328,9.967
		C2098.122,908.01,2095.699,910.816,2093.518,913.149z"/>
</g>
<linearGradient id="SVGID_3_" gradientUnits="userSpaceOnUse" x1="1155.2987" y1="1145.1908" x2="1260.3033" y2="1145.1908">
	<stop  offset="0" style="stop-color:#51C0B0"/>
	<stop  offset="1" style="stop-color:#6CC396"/>
</linearGradient>
<path fill="url(#SVGID_3_)" d="M1249.803,1070.688c-5.798,0-10.5,4.702-10.5,10.5v40.238c0,6.211-5.051,11.262-11.262,11.262h-7.737
	v-61.503c0-5.798-4.703-10.5-10.501-10.5c-5.798,0-10.501,4.702-10.501,10.5v85.504h-11.739c-6.211,0-11.262-5.051-11.262-11.262
	v-18.238c0-5.798-4.702-10.5-10.5-10.5c-5.798,0-10.501,4.702-10.501,10.5v18.238c0,17.79,14.473,32.263,32.263,32.263h11.739
	v41.504c0,5.798,4.703,10.5,10.501,10.5c5.798,0,10.501-4.702,10.501-10.5v-65.505h7.737c17.79,0,32.263-14.473,32.263-32.263
	v-40.238C1260.303,1075.391,1255.601,1070.688,1249.803,1070.688z"/>
<g>
	<g>
		
			<linearGradient id="SVGID_4_" gradientUnits="userSpaceOnUse" x1="808.0743" y1="859.5164" x2="994.9245" y2="859.5164" gradientTransform="matrix(0.9997 0.0224 -0.0224 0.9997 90.2812 110.8361)">
			<stop  offset="0" style="stop-color:#51C0B0"/>
			<stop  offset="1" style="stop-color:#6CC396"/>
		</linearGradient>
		<path fill="url(#SVGID_4_)" d="M886.237,1046.551l179.81-70.13c-2.831-5.385-1.32-14.389-5.634-18.32
			c-4.689-4.273-14.681-1.446-20.227-4.659c-5.459-3.162-7.91-13.236-14.009-15.3c-5.959-2.017-14.069,4.462-20.46,3.559
			c-6.218-0.878-12.174-9.383-18.636-9.146c-6.263,0.23-11.607,9.119-17.949,10.452c-6.117,1.286-14.573-4.747-20.629-2.385
			c-6.056,2.362-8.195,12.527-13.567,15.722c-5.57,3.313-15.522,0.39-20.287,4.461c-4.915,4.2-3.54,14.492-7.52,19.347
			c-4.092,4.991-14.447,5.714-17.467,11.233c-3.091,5.648,1.926,14.721,0.049,20.745c-1.906,6.119-11.174,10.803-11.732,17.123
			C877.467,1035.067,884.406,1040.749,886.237,1046.551z"/>
		<path fill="#FDC259" d="M1094.015,1014.143c-23.094-52.57-83.514-78.556-137.968-58.199
			c-54.454,20.356-83.011,79.604-65.957,134.432L1094.015,1014.143z"/>
		<circle fill="#F79952" cx="900.46" cy="1037.192" r="5.703"/>
		<circle fill="#F79952" cx="918.281" cy="1048.173" r="5.703"/>
		<circle fill="#F79952" cx="963.295" cy="1038.799" r="5.703"/>
		<circle fill="#F79952" cx="917.12" cy="1015.418" r="5.703"/>
	</g>
	<circle fill="#F79952" cx="905.125" cy="1067.93" r="5.716"/>
</g>
<g>
	<rect x="1701.509" y="1117.823" fill="#EEE1D0" width="326.776" height="108.925"/>
	<path fill="#EEE1D0" d="M1861.31,1063.517c15.65,0,17.841,15.337,17.841,15.337h5.321c9.703,24.727,38.5,20.658,38.5,20.658v5.321
		h18.78v15.024h-160.584v-15.024h18.78v-5.321c0,0,28.796,4.069,38.5-20.658h5.321c0,0,2.191-15.337,17.841-15.337"/>
	<rect x="1743.06" y="1129.561" fill="#1D3658" width="11.033" height="17.372"/>
	<rect x="1853.548" y="1120.141" fill="#1D3658" width="14.745" height="23.215"/>
	<rect x="1743.06" y="1173.225" fill="#1D3658" width="11.033" height="17.372"/>
	<rect x="1968.16" y="1129.561" fill="#1D3658" width="11.033" height="17.372"/>
	<rect x="1968.16" y="1173.225" fill="#1D3658" width="11.033" height="17.372"/>
	<polygon fill="#FFFFFF" points="1797.992,1149.984 1797.992,1150.421 1797.992,1155.59 1797.992,1161.722 1924.524,1161.722 
		1924.524,1155.59 1924.524,1150.421 1924.524,1149.984 	"/>
	<path fill="#1D3658" d="M1820.951,1150.103v-26.764c0-2.905-2.377-5.282-5.282-5.282c-2.905,0-5.282,2.377-5.282,5.282v26.764
		H1820.951z"/>
	<path fill="#1D3658" d="M1820.951,1206.444v-26.764c0-2.905-2.377-5.282-5.282-5.282c-2.905,0-5.282,2.377-5.282,5.282v26.764
		H1820.951z"/>
	<path fill="#1D3658" d="M1912.974,1206.444v-26.764c0-2.905-2.377-5.282-5.282-5.282c-2.905,0-5.282,2.377-5.282,5.282v26.764
		H1912.974z"/>
	<path fill="#1D3658" d="M1912.524,1150.103v-26.764c0-2.905-2.377-5.282-5.282-5.282c-2.905,0-5.282,2.377-5.282,5.282v26.764
		H1912.524z"/>
	<path fill="#FFFFFF" d="M1867.248,1161.761h-6.26l-0.002,0.533l-0.002-0.533h-6.26c0,0-0.269,9.867,6.219,13.758v0.054
		c0.015-0.009,0.028-0.018,0.042-0.027c0.014,0.009,0.028,0.018,0.042,0.027l0-0.054
		C1867.517,1171.628,1867.248,1161.761,1867.248,1161.761z"/>
	<path fill="#1D3658" d="M1877.818,1227.102v-34.74c0-9.234-7.555-16.79-16.79-16.79l0,0c-9.234,0-16.79,7.555-16.79,16.79v34.74
		H1877.818z"/>
	<g>
		<polygon fill="#FFFFFF" points="1806.209,1226.905 1795.019,1226.905 1795.019,1210.629 1797.983,1203.43 1803.472,1203.43 
			1806.209,1210.629 		"/>
		<rect x="1797.903" y="1150.18" fill="#FFFFFF" width="5.679" height="56.248"/>
	</g>
	<g>
		<polygon fill="#FFFFFF" points="1834.379,1226.905 1823.189,1226.905 1823.189,1210.629 1826.153,1203.43 1831.643,1203.43 
			1834.379,1210.629 		"/>
		<rect x="1826.073" y="1150.18" fill="#FFFFFF" width="5.679" height="56.248"/>
	</g>
	<g>
		<polygon fill="#FFFFFF" points="1899.255,1226.905 1888.066,1226.905 1888.066,1210.629 1891.03,1203.43 1896.519,1203.43 
			1899.255,1210.629 		"/>
		<rect x="1890.95" y="1150.18" fill="#FFFFFF" width="5.679" height="56.248"/>
	</g>
	<g>
		<polygon fill="#FFFFFF" points="1927.426,1226.905 1916.236,1226.905 1916.236,1210.629 1919.2,1203.43 1924.69,1203.43 
			1927.426,1210.629 		"/>
		<rect x="1919.12" y="1150.18" fill="#FFFFFF" width="5.679" height="56.248"/>
	</g>
</g>
<g>
	<path fill="#EEE1D0" d="M2348.298,638.339l4.329-1.273c0.535-0.157,0.999-0.518,1.307-1.016l4.598-7.438
		c0.574-0.929,1.655-1.329,2.637-0.976l0,0c1.275,0.458,1.914,1.994,1.385,3.326l-0.464,1.167c-0.699,1.758,0.636,3.671,2.396,3.434
		l5.447-0.734c0.823-0.111,1.527-0.692,1.841-1.52l1.815-4.784c0.409-1.079,1.46-1.704,2.525-1.501l1.341,0.255
		c1.355,0.258,2.198,1.735,1.799,3.156l-3.244,11.571c-0.233,0.832-0.854,1.471-1.635,1.684L2351.258,650
		c-1.207,0.33-2.438-0.438-2.775-1.731l-1.792-6.87C2346.346,640.075,2347.067,638.701,2348.298,638.339z"/>
	<path fill="#EEE1D0" d="M2126.404,659.317l8.22-0.834c1.877-0.19,2.968-2.217,2.092-3.889l-4.056-7.744
		c-0.48-0.917-0.386-2.029,0.241-2.852l3.938-5.169c0.847-1.112,0.691-2.689-0.357-3.614l0,0c-0.925-0.816-2.289-0.891-3.297-0.181
		l-1.127,0.793c-1.36,0.957-3.255,0.449-3.953-1.061l-3.904-8.438c-0.579-1.251-2.017-1.855-3.316-1.391l-8.997,3.213
		c-1.517,0.542-2.21,2.295-1.475,3.727l13.349,26.005C2124.264,658.858,2125.312,659.427,2126.404,659.317z"/>
	<polygon fill="#1D3658" points="2170.086,618.254 2216.185,618.254 2216.185,719.008 2190.305,719.008 2170.086,659.865 	"/>
	<path fill="#EEE1D0" d="M2234.257,570.494v-19.905c0-6.39-3.77-11.569-8.42-11.569h-19.954c-4.65,0-8.42,5.18-8.42,11.569v19.905
		H2234.257z"/>
	<linearGradient id="SVGID_5_" gradientUnits="userSpaceOnUse" x1="2215.3757" y1="668.6309" x2="2261.4744" y2="668.6309">
		<stop  offset="0" style="stop-color:#E5577D"/>
		<stop  offset="1" style="stop-color:#E74B56"/>
	</linearGradient>
	<path fill="url(#SVGID_5_)" d="M2253.667,629.235c-9.273-2.36-18.75-5.216-26.336-10.981h-11.955v100.754h25.88l20.219-59.143
		v-24.85C2257.662,636.785,2252.144,634.081,2253.667,629.235z"/>
	<polygon fill="#FFFFFF" points="2192.369,627.87 2196.192,639.637 2208.565,639.637 2198.555,646.91 2202.379,658.677 
		2192.369,651.404 2182.359,658.677 2186.183,646.91 2176.173,639.637 2188.546,639.637 	"/>
	<ellipse fill="#FFFFFF" cx="2216.019" cy="574.304" rx="40.842" ry="26.007"/>
	<path fill="#FFFFFF" d="M2215.376,618.254v19.41l24.262,14.557l21.836-12.94v-21.027
		C2261.474,618.254,2215.376,619.063,2215.376,618.254z"/>
	<polygon fill="#FFFFFF" points="2199.201,608.447 2199.201,618.254 2206.749,629.576 2215.376,618.254 2215.376,608.447 	"/>
	<polygon fill="#FFFFFF" points="2231.281,608.447 2231.281,618.254 2223.733,629.576 2215.106,618.254 2215.106,608.447 	"/>
	<path fill="#DFD4C2" d="M2197.438,570.422c-0.248,1.034-0.393,2.107-0.393,3.214v23.996c0,7.635,6.247,13.882,13.882,13.882h9.439
		c7.635,0,13.882-6.247,13.882-13.882v-23.996c0-1.107-0.145-2.18-0.393-3.214H2197.438z"/>
	<linearGradient id="SVGID_6_" gradientUnits="userSpaceOnUse" x1="2210.1189" y1="616.2807" x2="2220.6326" y2="616.2807">
		<stop  offset="0" style="stop-color:#E5577D"/>
		<stop  offset="1" style="stop-color:#E74B56"/>
	</linearGradient>
	<circle fill="url(#SVGID_6_)" cx="2215.376" cy="616.281" r="5.257"/>
	<linearGradient id="SVGID_7_" gradientUnits="userSpaceOnUse" x1="2211.5288" y1="628.5656" x2="2218.4141" y2="628.5656">
		<stop  offset="0" style="stop-color:#E5577D"/>
		<stop  offset="1" style="stop-color:#E74B56"/>
	</linearGradient>
	<path fill="url(#SVGID_7_)" d="M2218.414,628.566c0,5.025-3.443,9.098-3.443,9.098s-3.443-4.073-3.443-9.098
		s3.443-9.098,3.443-9.098S2218.414,623.541,2218.414,628.566z"/>
	<polygon fill="#1D3658" points="2170.086,618.254 2149.059,670.014 2143.118,660.874 2125.177,666.854 2142.589,699.937 
		2155.529,699.937 2174.13,660.309 	"/>
	<linearGradient id="SVGID_8_" gradientUnits="userSpaceOnUse" x1="2118.3262" y1="660.3466" x2="2143.1177" y2="660.3466">
		<stop  offset="0" style="stop-color:#E5577D"/>
		<stop  offset="1" style="stop-color:#E74B56"/>
	</linearGradient>
	<polygon fill="url(#SVGID_8_)" points="2138.545,653.839 2118.326,653.839 2125.177,666.854 2143.118,660.874 	"/>
	<linearGradient id="SVGID_9_" gradientUnits="userSpaceOnUse" x1="2197.1814" y1="576.2903" x2="2220.1445" y2="576.2903">
		<stop  offset="0" style="stop-color:#E5577D"/>
		<stop  offset="1" style="stop-color:#E74B56"/>
	</linearGradient>
	<path fill="url(#SVGID_9_)" d="M2197.181,582.281c0,0,14.395,0.114,22.963-11.982h-22.933L2197.181,582.281z"/>
	<circle fill="#1D3658" cx="2208.804" cy="586.902" r="2.273"/>
	<circle fill="#DFD4C2" cx="2197.716" cy="587.742" r="5.566"/>
	<circle fill="#DFD4C2" cx="2233.501" cy="587.742" r="5.566"/>
	<circle fill="#1D3658" cx="2223.043" cy="586.902" r="2.273"/>
	<linearGradient id="SVGID_10_" gradientUnits="userSpaceOnUse" x1="2212.2764" y1="588.5709" x2="2219.6965" y2="588.5709">
		<stop  offset="0" style="stop-color:#E5577D"/>
		<stop  offset="1" style="stop-color:#E74B56"/>
	</linearGradient>
	<polygon fill="url(#SVGID_10_)" points="2215.987,581.828 2212.276,595.314 2219.697,595.314 2215.987,581.828 2212.276,595.314 
		2219.697,595.314 	"/>
	<path fill="#FFFFFF" d="M2206.158,600.484c0,0,10.703,6.901,19.153-0.141"/>
	<linearGradient id="SVGID_11_" gradientUnits="userSpaceOnUse" x1="2224.8909" y1="578.7112" x2="2233.8792" y2="578.7112">
		<stop  offset="0" style="stop-color:#E5577D"/>
		<stop  offset="1" style="stop-color:#E74B56"/>
	</linearGradient>
	<polygon fill="url(#SVGID_11_)" points="2224.891,570.563 2233.879,570.563 2233.879,586.86 	"/>
	<path fill="#1D3658" d="M2185.248,850.012h25.631l4.896-87.661v-43.326c0,0-26.412-1.116-25.319,0l-10.405,53.468
		c-0.375,1.926-0.488,3.893-0.337,5.849L2185.248,850.012z"/>
	<path fill="#1D3658" d="M2221.825,850.012h24.541l5.534-71.67c0.151-1.956,0.038-3.923-0.337-5.849l-10.405-53.468
		c1.093-1.116-25.319,0-25.319,0v43.326l4.9,87.738C2221.086,850.043,2221.444,850.012,2221.825,850.012z"/>
	<rect x="2188.727" y="714.677" fill="#EEE1D0" width="53.93" height="11.928"/>
	<ellipse fill="#FDC259" cx="2214.937" cy="720.977" rx="9.973" ry="7.959"/>
	<linearGradient id="SVGID_12_" gradientUnits="userSpaceOnUse" x1="2167.3906" y1="872.3762" x2="2210.7363" y2="872.3762">
		<stop  offset="0" style="stop-color:#E5577D"/>
		<stop  offset="1" style="stop-color:#E74B56"/>
	</linearGradient>
	<path fill="url(#SVGID_12_)" d="M2208.72,886.429l2.016-36.625c-12.768-12.105-25.537,0-25.537,0l3.36,37.246
		c0,0-7.061,7.606-18.703,4.518c-0.399,0.521-0.793,1.046-1.181,1.575c3.013,4.585,11.791,13.187,30.972,0.736l0.672,5.587h6.385
		C2206.704,899.465,2209.224,885.964,2208.72,886.429z"/>
	
		<linearGradient id="SVGID_13_" gradientUnits="userSpaceOnUse" x1="9531.0029" y1="871.9106" x2="9574.3496" y2="871.9106" gradientTransform="matrix(-1 0 0 1 11795.2754 0)">
		<stop  offset="0" style="stop-color:#E5577D"/>
		<stop  offset="1" style="stop-color:#E74B56"/>
	</linearGradient>
	<path fill="url(#SVGID_13_)" d="M2222.942,885.964l-2.016-36.625c12.768-12.105,25.537,0,25.537,0l-3.36,37.246
		c0,0,7.061,7.606,18.703,4.518c0.399,0.521,0.793,1.046,1.181,1.575c-3.013,4.585-11.791,13.187-30.972,0.736l-0.672,5.587h-6.384
		C2224.958,899,2222.438,885.498,2222.942,885.964z"/>
	<linearGradient id="SVGID_14_" gradientUnits="userSpaceOnUse" x1="2261.4744" y1="644.4114" x2="2352.4485" y2="644.4114">
		<stop  offset="0" style="stop-color:#E5577D"/>
		<stop  offset="1" style="stop-color:#E74B56"/>
	</linearGradient>
	<polygon fill="url(#SVGID_14_)" points="2348.081,635.434 2336.053,637.803 2291.716,647.048 2261.474,618.254 2261.474,653.768 
		2290.708,670.569 2341.025,655.949 2352.448,652.906 	"/>
</g>
<linearGradient id="SVGID_15_" gradientUnits="userSpaceOnUse" x1="1027.0093" y1="1225.7458" x2="1183.4664" y2="1225.7458">
	<stop  offset="0" style="stop-color:#814461"/>
	<stop  offset="1" style="stop-color:#99476E"/>
</linearGradient>
<path fill="url(#SVGID_15_)" d="M1182.679,1212.646c-11.442,6.488-23.557,7.326-37.067,13.608c3.621-14.562,2.023-26.52,6.106-39.38
	c-0.376-0.187-0.75-0.377-1.126-0.566c-6.089,8.451-14.041,13.858-21.88,21.375c-1.857-10.527-5.006-19.472-5.032-29.993
	c-0.415-0.063-0.83-0.13-1.245-0.195c-4.05,12.454-12.371,21.224-18.1,34.873c-7.169-12.844-16.28-20.509-21.922-32.568
	c-0.403,0.118-0.807,0.232-1.211,0.348c1.607,13.249-2.426,24.894-1.684,40.101c-11.88-8.319-23.284-11.333-33.473-19.705
	c-0.313,0.28-0.629,0.557-0.943,0.836c5.386,8.476,7.499,17.509,11.292,27.172c-10.034-1.777-19.199-2.284-28.769-5.867
	c-0.203,0.368-0.41,0.733-0.615,1.1c14.592,11.403,19.825,27.756,42.67,40.674c19.917,11.263,35.629,9.968,41.822,8.771
	c6.716,0.176,21.365-1.247,37.742-14.228c19.833-15.72,22.015-31.949,34.224-45.373
	C1183.203,1213.303,1182.942,1212.974,1182.679,1212.646z"/>
<linearGradient id="SVGID_16_" gradientUnits="userSpaceOnUse" x1="1027.0093" y1="1225.7458" x2="1183.4664" y2="1225.7458">
	<stop  offset="0" style="stop-color:#814461"/>
	<stop  offset="1" style="stop-color:#99476E"/>
</linearGradient>
<path fill="url(#SVGID_16_)" d="M1182.679,1212.646c-11.442,6.488-23.557,7.326-37.067,13.608c3.621-14.562,2.023-26.52,6.106-39.38
	c-0.376-0.187-0.75-0.377-1.126-0.566c-6.089,8.451-14.041,13.858-21.88,21.375c-1.857-10.527-5.006-19.472-5.032-29.993
	c-0.415-0.063-0.83-0.13-1.245-0.195c-4.05,12.454-12.371,21.224-18.1,34.873c-7.169-12.844-16.28-20.509-21.922-32.568
	c-0.403,0.118-0.807,0.232-1.211,0.348c1.607,13.249-2.426,24.894-1.684,40.101c-11.88-8.319-23.284-11.333-33.473-19.705
	c-0.313,0.28-0.629,0.557-0.943,0.836c5.386,8.476,7.499,17.509,11.292,27.172c-10.034-1.777-19.199-2.284-28.769-5.867
	c-0.203,0.368-0.41,0.733-0.615,1.1c14.592,11.403,19.825,27.756,42.67,40.674c19.917,11.263,35.629,9.968,41.822,8.771
	c6.716,0.176,21.365-1.247,37.742-14.228c19.833-15.72,22.015-31.949,34.224-45.373
	C1183.203,1213.303,1182.942,1212.974,1182.679,1212.646z"/>
<linearGradient id="SVGID_17_" gradientUnits="userSpaceOnUse" x1="2163.4148" y1="988.481" x2="2173.1016" y2="988.481">
	<stop  offset="0" style="stop-color:#FBC15A"/>
	<stop  offset="1" style="stop-color:#F69363"/>
</linearGradient>
<path fill="url(#SVGID_17_)" d="M2167.04,984.705c-0.424-0.904-1.636-1.073-2.301-0.328c-1.346,1.51-1.744,3.731-0.831,5.679
	c0.913,1.948,2.875,3.063,4.896,2.995c0.998-0.034,1.644-1.073,1.22-1.978l0,0c-0.324-0.692-0.026-1.515,0.666-1.84l1.615-0.757
	c0.692-0.324,0.99-1.148,0.666-1.84l-0.491-1.049c-0.324-0.692-1.148-0.99-1.84-0.666l-1.615,0.757
	c-0.692,0.324-1.515,0.026-1.84-0.666L2167.04,984.705z"/>
<linearGradient id="SVGID_18_" gradientUnits="userSpaceOnUse" x1="2157.887" y1="977.5574" x2="2167.5737" y2="977.5574">
	<stop  offset="0" style="stop-color:#FBC15A"/>
	<stop  offset="1" style="stop-color:#F69363"/>
</linearGradient>
<path fill="url(#SVGID_18_)" d="M2161.512,973.781c-0.424-0.904-1.636-1.073-2.301-0.328c-1.346,1.51-1.744,3.731-0.831,5.679
	c0.913,1.948,2.875,3.063,4.896,2.995c0.998-0.034,1.644-1.073,1.22-1.978l0,0c-0.324-0.692-0.026-1.515,0.666-1.84l1.615-0.757
	c0.692-0.324,0.99-1.148,0.666-1.84l-0.491-1.049c-0.324-0.692-1.148-0.99-1.84-0.666l-1.615,0.757
	c-0.692,0.324-1.515,0.026-1.84-0.666L2161.512,973.781z"/>
<linearGradient id="SVGID_19_" gradientUnits="userSpaceOnUse" x1="2152.3953" y1="966.8066" x2="2162.082" y2="966.8066">
	<stop  offset="0" style="stop-color:#FBC15A"/>
	<stop  offset="1" style="stop-color:#F69363"/>
</linearGradient>
<path fill="url(#SVGID_19_)" d="M2156.021,963.031c-0.424-0.904-1.636-1.073-2.301-0.328c-1.346,1.51-1.744,3.731-0.831,5.679
	c0.913,1.948,2.875,3.063,4.896,2.995c0.998-0.034,1.644-1.073,1.22-1.978l0,0c-0.324-0.692-0.026-1.515,0.666-1.84l1.615-0.757
	c0.692-0.324,0.99-1.148,0.666-1.84l-0.491-1.049c-0.324-0.692-1.148-0.99-1.84-0.666l-1.615,0.757
	c-0.692,0.324-1.515,0.026-1.84-0.666L2156.021,963.031z"/>
<linearGradient id="SVGID_20_" gradientUnits="userSpaceOnUse" x1="2181.8052" y1="951.3635" x2="2191.5049" y2="951.3635">
	<stop  offset="0" style="stop-color:#FBC15A"/>
	<stop  offset="1" style="stop-color:#F69363"/>
</linearGradient>
<path fill="url(#SVGID_20_)" d="M2187.81,955.143c0.404,0.913,1.612,1.109,2.293,0.378c1.379-1.48,1.826-3.691,0.956-5.659
	s-2.806-3.125-4.829-3.102c-0.999,0.012-1.667,1.037-1.263,1.95l0,0c0.309,0.699-0.007,1.516-0.706,1.825l-1.631,0.721
	c-0.699,0.309-1.015,1.126-0.706,1.825l0.468,1.059c0.309,0.699,1.126,1.015,1.825,0.706l1.631-0.721
	c0.699-0.309,1.516,0.007,1.825,0.706L2187.81,955.143z"/>
<linearGradient id="SVGID_21_" gradientUnits="userSpaceOnUse" x1="2187.0916" y1="962.4059" x2="2196.7913" y2="962.4059">
	<stop  offset="0" style="stop-color:#FBC15A"/>
	<stop  offset="1" style="stop-color:#F69363"/>
</linearGradient>
<path fill="url(#SVGID_21_)" d="M2193.097,966.185c0.404,0.914,1.612,1.109,2.292,0.378c1.379-1.48,1.826-3.691,0.956-5.659
	c-0.87-1.968-2.807-3.125-4.829-3.102c-0.999,0.012-1.667,1.037-1.263,1.95l0,0c0.309,0.699-0.007,1.516-0.706,1.825l-1.631,0.721
	c-0.699,0.309-1.015,1.126-0.706,1.825l0.468,1.059c0.309,0.699,1.126,1.015,1.824,0.706l1.631-0.721
	c0.699-0.309,1.516,0.007,1.824,0.706L2193.097,966.185z"/>
<linearGradient id="SVGID_22_" gradientUnits="userSpaceOnUse" x1="2192.3455" y1="973.2748" x2="2202.0452" y2="973.2748">
	<stop  offset="0" style="stop-color:#FBC15A"/>
	<stop  offset="1" style="stop-color:#F69363"/>
</linearGradient>
<path fill="url(#SVGID_22_)" d="M2198.351,977.054c0.404,0.914,1.612,1.109,2.293,0.378c1.379-1.48,1.826-3.691,0.956-5.659
	s-2.806-3.125-4.829-3.102c-0.999,0.012-1.667,1.037-1.263,1.95l0,0c0.309,0.699-0.007,1.516-0.706,1.825l-1.631,0.721
	c-0.699,0.309-1.015,1.126-0.706,1.825l0.468,1.059c0.309,0.699,1.126,1.015,1.825,0.706l1.631-0.721
	c0.699-0.309,1.516,0.007,1.825,0.706L2198.351,977.054z"/>
<linearGradient id="SVGID_23_" gradientUnits="userSpaceOnUse" x1="2199.4783" y1="1144.6761" x2="2330.2437" y2="1144.6761">
	<stop  offset="0" style="stop-color:#E5577D"/>
	<stop  offset="1" style="stop-color:#E74B56"/>
</linearGradient>
<path fill="url(#SVGID_23_)" d="M2203.597,1131.398c2.557,5.27,6.113,9.755,10.366,13.366c5.442,4.62,8.07,11.684,6.676,18.686
	c-2.068,10.389-0.957,21.285,3.89,31.276c12.534,25.835,45.266,35.829,73.109,22.321c27.843-13.508,40.252-45.403,27.718-71.238
	c-4.848-9.992-12.719-17.608-22.158-22.414c-6.362-3.239-10.284-9.675-10.545-16.81c-0.204-5.576-1.525-11.144-4.082-16.414
	c-10.564-21.774-38.15-30.196-61.615-18.811C2203.492,1082.744,2193.033,1109.624,2203.597,1131.398z"/>
<circle fill="none" stroke="#FFFFFF" stroke-width="2" stroke-miterlimit="10" cx="2251.729" cy="1122.512" r="18.562"/>
<circle fill="none" stroke="#FFFFFF" stroke-width="2" stroke-miterlimit="10" cx="2251.729" cy="1122.512" r="24.11"/>
<linearGradient id="SVGID_24_" gradientUnits="userSpaceOnUse" x1="2177.2083" y1="1047.6901" x2="2253.9148" y2="1047.6901">
	<stop  offset="0" style="stop-color:#FBC15A"/>
	<stop  offset="1" style="stop-color:#F69363"/>
</linearGradient>
<polygon fill="url(#SVGID_24_)" points="2191.467,979.874 2253.915,1108.589 2239.656,1115.507 2177.208,986.792 "/>
<circle fill="#0C233F" cx="2251.729" cy="1122.512" r="14.602"/>
<linearGradient id="SVGID_25_" gradientUnits="userSpaceOnUse" x1="2159.0876" y1="970.1749" x2="2194.6565" y2="970.1749">
	<stop  offset="0" style="stop-color:#E5577D"/>
	<stop  offset="1" style="stop-color:#E74B56"/>
</linearGradient>
<path fill="url(#SVGID_25_)" d="M2182.288,951.007l11.123,23.199c2.997,6.178,0.395,13.685-5.783,16.682l-0.223,0.108
	c-6.178,2.997-13.685,0.395-16.682-5.783l-11.123-23.199c-1.236-2.547-0.163-5.643,2.385-6.879l13.424-6.513
	C2177.957,947.386,2181.052,948.459,2182.288,951.007z"/>
<rect x="2262.438" y="1175.34" transform="matrix(0.8924 -0.4511 0.4511 0.8924 -286.7099 1154.6398)" fill="#EEE1D0" width="31.83" height="6.635"/>
<g>
	<path fill="#1D3658" d="M2085.595,979.805c-1.913,2.597-3.946,4.001-6.042,4.175c-2.45,0.203-4.537-1.295-5.275-1.904l-0.85,0.318
		l-0.005,0.005l-4.059,1.52l13.122,35.039c-2.112,0.438-4.421,1.63-6.463,3.5c-4.203,3.849-5.671,9.085-3.281,11.696
		c2.391,2.611,7.736,1.607,11.938-2.241c3.338-3.057,4.943-6.986,4.267-9.783l0,0l-0.001-0.002
		c-0.089-0.367-0.219-0.712-0.388-1.035l-12.174-32.507c1.07,0.273,2.247,0.419,3.507,0.322c1.006-0.077,1.984-0.294,2.933-0.649
		c2.456-0.92,4.717-2.769,6.746-5.524L2085.595,979.805z"/>
</g>
<g>
	<path fill="#1D3658" d="M2293.488,975.617c-3.137,0.747-5.596,0.507-7.309-0.714c-2.001-1.427-2.628-3.919-2.799-4.86l-0.855-0.306
		l-0.007,0.001l-4.081-1.46l-12.604,35.229c-1.896-1.029-4.429-1.61-7.195-1.501c-5.694,0.225-10.197,3.276-10.057,6.813
		c0.14,3.537,4.869,6.222,10.563,5.997c4.523-0.179,8.285-2.143,9.575-4.715l0,0l0.001-0.002c0.169-0.338,0.293-0.685,0.373-1.041
		l11.693-32.683c0.64,0.899,1.445,1.77,2.47,2.511c0.818,0.591,1.705,1.057,2.659,1.398c2.469,0.883,5.39,0.931,8.718,0.137
		L2293.488,975.617z"/>
</g>
<g>
	<path fill="#1D3658" d="M2331.815,1029.111c-1.549,2.829-3.376,4.492-5.43,4.944c-2.401,0.528-4.67-0.677-5.482-1.182l-0.8,0.429
		l-0.004,0.005l-3.819,2.049l17.686,32.972c-2.034,0.717-4.164,2.206-5.938,4.332c-3.651,4.376-4.407,9.761-1.688,12.029
		c2.718,2.268,7.881,0.559,11.532-3.817c2.9-3.476,3.965-7.584,2.922-10.265l0,0l-0.001-0.002c-0.137-0.352-0.312-0.677-0.523-0.974
		l-16.408-30.589c1.097,0.128,2.282,0.115,3.519-0.149c0.987-0.211,1.927-0.556,2.82-1.035c2.311-1.24,4.304-3.374,5.947-6.376
		L2331.815,1029.111z"/>
</g>
<path fill="#1D3658" d="M2160.233,1074.418c0.148-0.309,0.255-0.626,0.323-0.95l12.14-35.786l-35.942-12.192l-10.93,32.221
	c-1.743-0.909-4.06-1.4-6.58-1.259c-5.185,0.291-9.242,3.139-9.061,6.36c0.181,3.221,4.531,5.597,9.717,5.305
	c4.119-0.231,7.517-2.078,8.654-4.441l0,0l0.001-0.004c0.148-0.309,0.255-0.626,0.322-0.95l9.538-28.116l27.416,9.3l-8.328,24.551
	c-1.743-0.909-4.06-1.401-6.58-1.259c-5.185,0.291-9.242,3.138-9.061,6.36s4.531,5.596,9.717,5.305
	c4.119-0.231,7.517-2.078,8.654-4.441l0,0L2160.233,1074.418z"/>
<g>
	<path fill="#5EBF92" d="M2059.781,1564.835c2.91-44.572-46.247-45.032-46.247-45.032l42.33,42.187
		c-30.193-25.538-60.667,8.066-60.667,8.066l41.815-2.499c-23.403,9.198-26.53,40.065-26.53,40.065l28.085-23.442
		c-10.309,19.535,1.353,43.517,1.353,43.517l15.894-47.682v136.444h9.7v-132.759l14.733,44.199c0,0,19.046-39.162-13.057-58.161
		l50.444,25.615c0,0-13.959-41.218-50.122-32.215l53.89-17.465C2121.402,1545.675,2077.392,1523.818,2059.781,1564.835z
		 M2059.824,1565.702c-0.017-0.018-0.035-0.035-0.052-0.053l0.961-0.312C2060.431,1565.457,2060.129,1565.576,2059.824,1565.702z"/>
	<path fill="#4EA37D" d="M2361.247,1324.821l65.501,0.225c0,0-40.132-39.53-74.164-1.651l-0.173-0.173
		c18.484-47.421-34.861-65.463-34.861-65.463l31.311,61.601c-23.974-38.935-69.562-12.993-69.562-12.993l46.844,12.319
		c-29.027,1.674-43.583,34.463-43.583,34.463l39.302-15.638c-18.364,17.75-14.19,48.301-14.19,48.301l24.454-32.941
		c-13.845,43.634-14.589,107.189-14.619,110.46l11.216,0.101c0.008-0.93,1.053-92.509,22.865-127.89l0.32,65.021
		c0,0,35.036-36.168,6.606-68.607l46.197,46.318C2404.71,1378.273,2404.223,1327.957,2361.247,1324.821z"/>
	<linearGradient id="SVGID_26_" gradientUnits="userSpaceOnUse" x1="2096.8877" y1="1385.2191" x2="2227.5156" y2="1385.2191">
		<stop  offset="0" style="stop-color:#51C0B0"/>
		<stop  offset="1" style="stop-color:#6CC396"/>
	</linearGradient>
	<path fill="url(#SVGID_26_)" d="M2164.723,1348.919l43.813-43.665c0,0-50.88,0.476-47.868,46.609
		c-18.228-42.454-63.781-19.83-63.781-19.83l55.778,18.077c-37.43-9.319-51.878,33.343-51.878,33.343l52.212-26.513
		c-33.229,19.664-13.515,60.199-13.515,60.199l17.456-52.367v100.413h7.073v-99.889l17.211,51.634c0,0,12.071-24.823,1.401-45.042
		l29.069,24.263c0,0-3.236-31.949-27.459-41.469l43.28,2.587C2227.516,1357.267,2195.974,1322.486,2164.723,1348.919z
		 M2160.678,1352.706c-0.019,0.019-0.036,0.036-0.055,0.055c-0.315-0.131-0.628-0.254-0.941-0.377L2160.678,1352.706z
		 M2160.038,1353.366l0.023,0.07c-0.312,0.129-0.625,0.258-0.93,0.39L2160.038,1353.366z M2159.985,1355.641l0.406-1.218
		l0.406,1.218H2159.985z"/>
</g>
<linearGradient id="SVGID_27_" gradientUnits="userSpaceOnUse" x1="2888.6694" y1="1947.271" x2="3045.5881" y2="1947.271" gradientTransform="matrix(0.9687 0.2484 -0.2484 0.9687 463.7679 -1589.2061)">
	<stop  offset="0" style="stop-color:#51C0B0"/>
	<stop  offset="1" style="stop-color:#6CC396"/>
</linearGradient>
<path fill="url(#SVGID_27_)" d="M2868.073,992.478l64.009-37.739c0,0-59.347-14.626-69.606,39.955
	c-8.545-54.838-68.3-42.104-68.3-42.104l59.511,37.676c-40.774-22.011-70.314,23.322-70.314,23.322l68.666-15.274
	c-44.532,12.968-33.686,66.017-33.686,66.017l35.935-55.728l-29.958,116.844l8.23,2.11l29.801-116.233l4.623,65.217
	c0,0,21.452-25.283,15.068-51.994l26.586,36.906c0,0,5.766-38.143-19.58-56.447l49.59,15.922
	C2938.649,1020.927,2912.323,971.044,2868.073,992.478z M2862.236,995.678c-0.027,0.016-0.053,0.032-0.08,0.048
	c-0.328-0.246-0.655-0.483-0.982-0.72L2862.236,995.678z M2861.294,996.255l0.006,0.088c-0.401,0.058-0.804,0.114-1.198,0.177
	L2861.294,996.255z M2860.553,998.887l0.836-1.296l0.109,1.538L2860.553,998.887z"/>
<path fill="#8CCCE2" d="M1482.584,974.064h11.873v17.353h-44.448v-17.353h11.873v-72.914h-15.984v15.831h-16.44v-34.25h85.548v34.25
	h-16.44v-15.831h-15.983V974.064z"/>
<path fill="#1D3658" d="M1533.671,974.064h11.873v-73.98h-11.873v-17.353h80.525v32.727h-20.702v-14.156h-27.248v27.095h31.662
	v16.136h-31.662v28.77h27.248v-14.765h20.702v32.88h-80.525V974.064z"/>
<linearGradient id="SVGID_28_" gradientUnits="userSpaceOnUse" x1="1634.7186" y1="937.0737" x2="1741.5785" y2="937.0737">
	<stop  offset="0" style="stop-color:#E5577D"/>
	<stop  offset="1" style="stop-color:#E74B56"/>
</linearGradient>
<path fill="url(#SVGID_28_)" d="M1741.578,991.417h-44.602v-15.983h10.656l-19.484-24.812l-19.636,24.812h10.807v15.983h-44.601
	v-17.353h10.656l30.292-37.751l-28.617-36.229h-11.112v-17.353h44.753v15.983h-10.047l17.506,23.138l17.505-23.138h-10.046v-15.983
	h44.905v17.353h-10.96l-29.227,36.229l30.14,37.751h11.113V991.417z"/>
<path fill="#8CCCE2" d="M1826.012,976.195h12.026l-6.393-16.288h-38.208l-6.241,16.288h11.721v15.222h-44.297v-17.353h11.569
	l31.662-73.98h-12.025v-17.353h36.381l38.055,91.333h11.569v17.353h-45.819V976.195z M1812.769,906.629h-0.152l-13.852,37.294
	h27.704L1812.769,906.629z"/>
<path fill="#1D3658" d="M1904.055,959.146c0,8.981,6.089,16.592,16.135,16.592c8.981,0,15.984-5.632,15.984-14.918
	c0-10.808-10.199-13.548-18.571-15.983c-7.916-2.283-14.613-4.263-21.311-9.286c-7.763-5.784-11.874-14.004-11.874-23.747
	c0-17.962,15.375-31.357,32.881-31.357c7.458,0,14.765,2.436,19.332,8.372v-6.089h15.831v29.227h-18.571
	c-0.152-8.068-6.089-14.157-14.156-14.157c-8.068,0-14.766,5.023-14.766,13.548c0,10.656,9.438,12.939,17.81,15.375
	c8.372,2.283,16.288,4.566,23.29,9.894c7.002,5.632,10.807,13.7,10.807,22.833c0,19.637-14.613,34.098-34.402,34.098
	c-8.373,0-15.679-2.892-20.855-9.286v7.155h-16.44v-32.271H1904.055z"/>
<linearGradient id="SVGID_29_" gradientUnits="userSpaceOnUse" x1="1305.9558" y1="1210.4282" x2="1403.9108" y2="1210.4282">
	<stop  offset="0" style="stop-color:#FBC15A"/>
	<stop  offset="1" style="stop-color:#F69363"/>
</linearGradient>
<path fill="url(#SVGID_29_)" d="M1401.275,1205.939c-0.818,0.614-1.788,1.379-2.879,2.274c-1.09,0.896-2.293,1.929-3.581,3.076
	c-2.574,2.296-5.454,5.075-8.4,8.168c-2.581,2.701-5.202,5.65-7.752,8.693c0.175-0.34,0.351-0.681,0.524-1.022
	c2.219-4.385,4.304-8.836,6.105-13.088c1.806-4.249,3.341-8.291,4.535-11.818c0.596-1.764,1.117-3.393,1.551-4.852
	c0.433-1.459,0.788-2.742,1.059-3.81c0.55-2.131,0.776-3.394,0.776-3.394s-0.884,0.929-2.277,2.634
	c-0.701,0.85-1.524,1.896-2.445,3.108c-0.919,1.213-1.925,2.597-2.994,4.121c-2.136,3.049-4.486,6.679-6.842,10.649
	c-2.362,3.968-4.717,8.283-6.938,12.666c-2.119,4.201-4.117,8.46-5.862,12.549c0.449-1.663,0.894-3.372,1.333-5.127
	c1.391-5.541,2.693-11.487,3.849-17.461c1.147-5.976,2.151-11.979,2.922-17.64c0.387-2.83,0.727-5.573,1.001-8.183
	c0.281-2.609,0.507-5.083,0.686-7.372c0.174-2.29,0.304-4.396,0.39-6.267c0.085-1.872,0.135-3.508,0.152-4.861
	c0.044-2.703-0.028-4.266-0.028-4.266s-0.648,1.424-1.615,3.949c-0.488,1.261-1.051,2.799-1.67,4.568
	c-0.618,1.769-1.281,3.771-1.973,5.962c-0.686,2.191-1.398,4.572-2.109,7.097c-0.717,2.524-1.424,5.196-2.119,7.967
	c-1.393,5.541-2.697,11.486-3.86,17.459c-1.153,5.975-2.16,11.978-2.932,17.638c-0.213,1.553-0.41,3.076-0.591,4.568
	c-0.094-4.344-0.344-8.914-0.72-13.477c-0.419-4.966-0.983-9.921-1.684-14.552c-0.696-4.631-1.51-8.94-2.344-12.621
	c-0.417-1.841-0.829-3.526-1.224-5.017c-0.396-1.491-0.766-2.789-1.095-3.855c-0.649-2.134-1.117-3.346-1.117-3.346
	s-0.262,1.272-0.551,3.484c-0.149,1.106-0.3,2.447-0.445,3.983c-0.145,1.536-0.274,3.266-0.382,5.15
	c-0.217,3.769-0.311,8.153-0.235,12.835c0.07,4.683,0.329,9.662,0.733,14.63c0.175,2.101,0.378,4.199,0.605,6.272
	c-0.997-3.393-2.087-6.855-3.239-10.3c-1.76-5.232-3.661-10.417-5.608-15.223c-0.972-2.403-1.946-4.715-2.914-6.892
	c-0.491-1.086-0.954-2.147-1.429-3.165c-0.48-1.016-0.931-2.002-1.388-2.94c-0.911-1.878-1.773-3.59-2.566-5.098
	c-0.795-1.507-1.511-2.814-2.124-3.882c-1.217-2.139-2.007-3.329-2.007-3.329s0.09,1.426,0.411,3.866
	c0.156,1.221,0.375,2.695,0.651,4.376c0.278,1.681,0.625,3.566,1.033,5.613c0.203,1.024,0.439,2.082,0.669,3.182
	c0.236,1.098,0.508,2.224,0.772,3.386c0.543,2.32,1.163,4.75,1.839,7.253c1.35,5.006,2.966,10.287,4.723,15.52
	c1.724,5.106,3.579,10.166,5.479,14.874c-1.417-2.283-2.916-4.586-4.459-6.859c-2.561-3.754-5.245-7.425-7.904-10.768
	c-2.654-3.347-5.271-6.375-7.627-8.895c-1.179-1.259-2.283-2.396-3.288-3.388c-1.006-0.99-1.902-1.84-2.661-2.526
	c-1.51-1.377-2.455-2.108-2.455-2.108s0.335,1.147,1.064,3.056c0.361,0.957,0.824,2.102,1.378,3.4
	c0.555,1.297,1.21,2.741,1.951,4.299c1.483,3.114,3.346,6.656,5.49,10.351c1.833,3.168,3.883,6.439,6.041,9.674
	c-2.593-2.369-5.222-4.646-7.797-6.727c-3.245-2.63-6.387-4.965-9.173-6.867c-1.393-0.951-2.691-1.801-3.862-2.532
	c-1.172-0.731-2.21-1.35-3.081-1.842c-1.737-0.991-2.797-1.486-2.797-1.486s0.557,1.029,1.649,2.704
	c0.543,0.841,1.223,1.841,2.021,2.967c0.799,1.126,1.725,2.371,2.756,3.705c2.064,2.669,4.58,5.667,7.398,8.751
	c2.814,3.088,5.943,6.246,9.171,9.299c3.235,3.046,6.572,5.984,9.819,8.612c3.243,2.632,6.385,4.967,9.172,6.868
	c0.954,0.65,1.859,1.249,2.713,1.799h2.524h1.973h0.063h1.017h0.022h0.98h0.422h0.707h0.31h0.722h0.19h1.605h1.882
	c0.043-0.035,0.083-0.068,0.127-0.104c1.089-0.897,2.292-1.93,3.578-3.078c2.573-2.296,5.453-5.076,8.401-8.167
	c2.953-3.087,5.959-6.499,8.854-10.002c2.887-3.509,5.66-7.113,8.125-10.602c2.47-3.485,4.645-6.845,6.404-9.811
	c0.879-1.484,1.662-2.863,2.332-4.104c0.669-1.243,1.234-2.341,1.68-3.262c0.899-1.835,1.336-2.947,1.336-2.947
	S1402.904,1204.705,1401.275,1205.939z"/>
<g>
	<g>
		
			<linearGradient id="SVGID_30_" gradientUnits="userSpaceOnUse" x1="2577.5957" y1="-74.3756" x2="2651.866" y2="-74.3756" gradientTransform="matrix(0.9014 -0.1524 0.3843 0.713 341.5533 1289.9609)">
			<stop  offset="0" style="stop-color:#51C0B0"/>
			<stop  offset="1" style="stop-color:#6CC396"/>
		</linearGradient>
		<path fill="url(#SVGID_30_)" d="M2675.158,820.311c23.929,6.979,38.045,30.779,38.045,30.779s-24.701,12.485-48.629,5.51
			c-23.926-6.979-38.035-30.774-38.035-30.774S2651.235,813.331,2675.158,820.311z"/>
	</g>
	<g>
		
			<linearGradient id="SVGID_31_" gradientUnits="userSpaceOnUse" x1="5646.8872" y1="-3257.7168" x2="5721.1577" y2="-3257.7168" gradientTransform="matrix(0.4395 -0.8016 0.7976 0.1407 2863.9712 5860.3325)">
			<stop  offset="0" style="stop-color:#51C0B0"/>
			<stop  offset="1" style="stop-color:#6CC396"/>
		</linearGradient>
		<path fill="url(#SVGID_31_)" d="M2752.719,830.073c20.315-14.443,47.74-10.755,47.74-10.755s-5.525,27.12-25.837,41.564
			c-20.313,14.44-47.73,10.751-47.73,10.751S2732.407,844.511,2752.719,830.073z"/>
	</g>
	<g>
		
			<linearGradient id="SVGID_32_" gradientUnits="userSpaceOnUse" x1="2980.6443" y1="-661.0422" x2="3021.489" y2="-661.0422" gradientTransform="matrix(0.9162 -0.4006 0.4006 0.9162 235.3494 2667.3472)">
			<stop  offset="0" style="stop-color:#51C0B0"/>
			<stop  offset="1" style="stop-color:#6CC396"/>
		</linearGradient>
		<polygon fill="url(#SVGID_32_)" points="2732.586,912.278 2721.674,913.696 2707.788,806.363 2718.7,804.946 		"/>
	</g>
	<g>
		
			<linearGradient id="SVGID_33_" gradientUnits="userSpaceOnUse" x1="2655.8865" y1="666.414" x2="2706.7517" y2="666.414" gradientTransform="matrix(0.9998 0.02 -0.02 0.9998 29.0464 -24.7017)">
			<stop  offset="0" style="stop-color:#E5577D"/>
			<stop  offset="1" style="stop-color:#E74B56"/>
		</linearGradient>
		<path fill="url(#SVGID_33_)" d="M2694.016,679.851c-13.984,2.242-24.257,10.988-22.894,19.475
			c1.371,8.502,13.86,13.582,27.844,11.333c13.985-2.248,24.25-10.985,22.887-19.484
			C2720.489,682.686,2708,677.597,2694.016,679.851z M2697.703,702.794c-6.022,0.971-11.271-1.589-11.947-5.82
			c-0.683-4.224,3.502-8.288,9.519-9.26c6.022-0.965,11.267,1.589,11.947,5.814C2707.905,697.755,2703.717,701.825,2697.703,702.794
			z"/>
		
			<linearGradient id="SVGID_34_" gradientUnits="userSpaceOnUse" x1="2674.5181" y1="666.4131" x2="2688.1199" y2="666.4131" gradientTransform="matrix(0.9998 0.02 -0.02 0.9998 29.0464 -24.7017)">
			<stop  offset="0" style="stop-color:#E5577D"/>
			<stop  offset="1" style="stop-color:#E74B56"/>
		</linearGradient>
		<path fill="url(#SVGID_34_)" d="M2695.906,691.641c-3.891,0.632-6.49,3.002-6.218,4.705c0.273,1.707,3.483,3.141,7.38,2.518
			c3.889-0.632,6.49-2.998,6.219-4.708C2703.011,692.458,2699.799,691.024,2695.906,691.641z"/>
		
			<linearGradient id="SVGID_35_" gradientUnits="userSpaceOnUse" x1="2635.9292" y1="671.8741" x2="2730.9565" y2="671.8741" gradientTransform="matrix(0.9998 0.02 -0.02 0.9998 29.0464 -24.7017)">
			<stop  offset="0" style="stop-color:#E5577D"/>
			<stop  offset="1" style="stop-color:#E74B56"/>
		</linearGradient>
		<path fill="url(#SVGID_35_)" d="M2727.046,672.416c-9.918-6.307-22.099-9.148-34.62-7.139
			c-22.891,3.685-39.556,22.434-41.627,44.491l53.077,27.259l42.265-42.03C2742.14,685.567,2735.421,677.743,2727.046,672.416z
			 M2699.595,714.593c-16.153,2.6-30.687-3.96-32.406-14.632c-1.708-10.665,10.035-21.453,26.191-24.049
			c16.15-2.596,30.693,3.97,32.406,14.629C2727.498,701.212,2715.748,712,2699.595,714.593z"/>
		
			<linearGradient id="SVGID_36_" gradientUnits="userSpaceOnUse" x1="2693.3059" y1="702.028" x2="2744.3435" y2="702.028" gradientTransform="matrix(0.9998 0.02 -0.02 0.9998 29.0464 -24.7017)">
			<stop  offset="0" style="stop-color:#E5577D"/>
			<stop  offset="1" style="stop-color:#E74B56"/>
		</linearGradient>
		<path fill="url(#SVGID_36_)" d="M2758.13,764.892c0.02-2.739-0.131-5.506-0.58-8.3l-8.042-50.046
			c-0.415-2.568-1.08-5.026-1.856-7.428l-40.051,39.824L2758.13,764.892z"/>
		
			<linearGradient id="SVGID_37_" gradientUnits="userSpaceOnUse" x1="2643.197" y1="633.8364" x2="2713.3452" y2="633.8364" gradientTransform="matrix(0.9998 0.02 -0.02 0.9998 29.0464 -24.7017)">
			<stop  offset="0" style="stop-color:#E5577D"/>
			<stop  offset="1" style="stop-color:#E74B56"/>
		</linearGradient>
		<path fill="url(#SVGID_37_)" d="M2691.797,661.344c12.946-2.079,26.169,0.633,37.249,7.63
			c-5.435-16.716-22.346-27.44-40.214-24.482c-17.833,2.976-30.37,18.523-30.162,36.061
			C2666.701,670.644,2678.237,663.524,2691.797,661.344z"/>
		
			<linearGradient id="SVGID_38_" gradientUnits="userSpaceOnUse" x1="2607.103" y1="665.925" x2="2643.0007" y2="665.925" gradientTransform="matrix(0.9998 0.02 -0.02 0.9998 29.0464 -24.7017)">
			<stop  offset="0" style="stop-color:#E5577D"/>
			<stop  offset="1" style="stop-color:#E74B56"/>
		</linearGradient>
		<path fill="url(#SVGID_38_)" d="M2658.451,680.81c-13.751-3.661-28.584,2.055-36.195,14.476l24.776,12.615
			C2648.272,697.861,2652.295,688.504,2658.451,680.81z"/>
		
			<linearGradient id="SVGID_39_" gradientUnits="userSpaceOnUse" x1="2714.4033" y1="648.0745" x2="2753.9863" y2="648.0745" gradientTransform="matrix(0.9998 0.02 -0.02 0.9998 29.0464 -24.7017)">
			<stop  offset="0" style="stop-color:#E5577D"/>
			<stop  offset="1" style="stop-color:#E74B56"/>
		</linearGradient>
		<path fill="url(#SVGID_39_)" d="M2749.137,692.016l18.947-18.842l1.558-1.571c-11.316-9.587-27.568-10.19-39.552-1.925
			C2738.465,675.252,2745,683.028,2749.137,692.016z"/>
		
			<linearGradient id="SVGID_40_" gradientUnits="userSpaceOnUse" x1="2635.7991" y1="735.7155" x2="2744.2056" y2="735.7155" gradientTransform="matrix(0.9998 0.02 -0.02 0.9998 29.0464 -24.7017)">
			<stop  offset="0" style="stop-color:#E5577D"/>
			<stop  offset="1" style="stop-color:#E74B56"/>
		</linearGradient>
		<path fill="url(#SVGID_40_)" d="M2651.16,722.354l8.035,50.046c4.375,27.158,29.925,45.636,57.083,41.268
			c22.871-3.675,39.524-22.387,41.626-44.415L2650.58,714.14C2650.566,716.851,2650.716,719.589,2651.16,722.354z"/>
	</g>
</g>
<linearGradient id="SVGID_41_" gradientUnits="userSpaceOnUse" x1="2385.5125" y1="937.3049" x2="2527.2971" y2="937.3049">
	<stop  offset="0" style="stop-color:#51C0B0"/>
	<stop  offset="1" style="stop-color:#6CC396"/>
</linearGradient>
<ellipse fill="url(#SVGID_41_)" cx="2456.405" cy="937.305" rx="70.892" ry="47.427"/>
<g>
	<rect x="2452.154" y="916.803" fill="#1D3658" width="5.127" height="125.949"/>
</g>
<g>
	<path fill="#1D3658" d="M2454.149,952.978h-11.606c-8.207,0-14.885-6.678-14.885-14.886v-15.023h5.127v15.023
		c0,5.381,4.377,9.758,9.758,9.758h11.606V952.978z"/>
</g>
<g>
	<path fill="#1D3658" d="M2465.185,973.487h-10.467v-5.127h10.467c5.381,0,9.758-4.377,9.758-9.758v-29.836h5.127v29.836
		C2480.07,966.81,2473.392,973.487,2465.185,973.487z"/>
</g>
<linearGradient id="SVGID_42_" gradientUnits="userSpaceOnUse" x1="2492.7246" y1="985.3712" x2="2587.0166" y2="985.3712">
	<stop  offset="0" style="stop-color:#51C0B0"/>
	<stop  offset="1" style="stop-color:#6CC396"/>
</linearGradient>
<ellipse fill="url(#SVGID_42_)" cx="2539.871" cy="985.371" rx="47.146" ry="39.775"/>
<g>
	<rect x="2535.899" y="969.215" fill="#1D3658" width="5.127" height="73.537"/>
</g>
<g>
	<path fill="#1D3658" d="M2538.463,995.135h-9.387c-6.604,0-11.976-5.372-11.976-11.976v-4.26h5.127v4.26
		c0,3.776,3.073,6.848,6.849,6.848h9.387V995.135z"/>
</g>
<g>
	<path fill="#1D3658" d="M2546.711,1011.087h-8.248v-5.127h8.248c3.776,0,6.849-3.073,6.849-6.849V977.76h5.127v21.351
		C2558.688,1005.715,2553.315,1011.087,2546.711,1011.087z"/>
</g>
<g>
	<polygon fill="#1D3658" points="1567.104,702.309 1586.636,678.689 1582.559,612.233 1552.785,650.767 	"/>
	<linearGradient id="SVGID_43_" gradientUnits="userSpaceOnUse" x1="1567.1045" y1="658.4172" x2="1614.7501" y2="658.4172">
		<stop  offset="0" style="stop-color:#7FBBDE"/>
		<stop  offset="1" style="stop-color:#A7DEF0"/>
	</linearGradient>
	<circle fill="url(#SVGID_43_)" cx="1590.927" cy="658.417" r="23.821"/>
	<circle fill="#FFFFFF" cx="1590.927" cy="658.417" r="10.562"/>
	<linearGradient id="SVGID_44_" gradientUnits="userSpaceOnUse" x1="1476.0981" y1="652.0786" x2="1601.9918" y2="652.0786">
		<stop  offset="0" style="stop-color:#814461"/>
		<stop  offset="1" style="stop-color:#99476E"/>
	</linearGradient>
	<path fill="url(#SVGID_44_)" d="M1601.992,555.166l-0.405,1.859l-5.003,22.98l-1.668,7.65l-5.034,23.125
		c0,0-10.97-2.884-25.076,34.424c-1.905,5.057-3.159,9.494-3.901,13.387c-0.688,3.626-0.926,6.785-0.834,9.532
		c0.513,16.134,12.393,18.237,12.393,18.237l-11.949,35.549l-2.685,8.002l-12.806,38.089h-68.925l7.183-17.817l3.045-7.558
		l12.783-31.709c0,0-3.489-9.738,2.325-27.792c4.001-12.439,12.63-35.013,17.61-47.842c1.615-4.169,2.846-7.313,3.397-8.736
		c0.229-0.558,0.344-0.857,0.344-0.857l7.856-43.551l16.715-45.983c0,0,0.811,1.27,2.15,3.198c1.331,1.897,3.175,4.437,5.263,7.023
		c1.201,1.492,2.479,2.991,3.794,4.406c2.356,2.524,4.819,4.751,7.083,6.036c0.398,0.229,0.796,0.421,1.178,0.589l7.115-10.924
		l7.015,5.737l6.043-2.502l2.586,0.941l5.561,2.02l1.721,0.627L1601.992,555.166z"/>
	<g>
		<linearGradient id="SVGID_45_" gradientUnits="userSpaceOnUse" x1="1483.2811" y1="736.1161" x2="1560.5142" y2="736.1161">
			<stop  offset="0" style="stop-color:#E5577D"/>
			<stop  offset="1" style="stop-color:#E74B56"/>
		</linearGradient>
		<path fill="url(#SVGID_45_)" d="M1560.514,721.91l-2.685,8.002c-10.809,1.507-20.662,5.676-30.844,9.983
			c-6.976,2.953-14.182,5.997-21.656,8.078c-6.128,1.698-12.087,2.349-17.625,2.349c-1.507,0-2.984-0.046-4.422-0.138l3.045-7.558
			c5.317,0.13,11.069-0.398,16.952-2.027c7-1.943,13.67-4.758,20.723-7.749C1535.446,728.015,1547.142,723.065,1560.514,721.91z"/>
	</g>
	<g>
		<path fill="#1D3658" d="M1537.51,710.709c-5.565,0-10.396-1.928-14.163-5.695c-9.497-9.496-4.374-22.023-0.338-27.321
			c1.28-1.68,3.678-2.006,5.361-0.725c1.676,1.277,2.003,3.67,0.733,5.35c-0.315,0.419-7.47,10.163-0.347,17.286
			c7.477,7.477,19.734,0.507,19.857,0.436c1.829-1.059,4.169-0.436,5.228,1.391c1.059,1.828,0.436,4.168-1.391,5.228
			c-0.175,0.101-4.333,2.487-9.82,3.543C1540.865,710.54,1539.155,710.709,1537.51,710.709z"/>
	</g>
	<g>
		<path fill="#FDC259" d="M1560.07,668.124c-6.449-5.929-16.439-14.389-25.665-19.117c-6.502-3.335-11.567-8.522-15.361-13.724
			c1.615-4.169,2.846-7.313,3.397-8.736c3.419,5.676,8.514,12.094,15.452,15.652c8.101,4.154,16.516,10.733,23.011,16.394
			C1560.216,662.219,1559.979,665.378,1560.07,668.124z"/>
	</g>
	<g>
		<linearGradient id="SVGID_46_" gradientUnits="userSpaceOnUse" x1="1543.1991" y1="580.8775" x2="1566.7644" y2="580.8775">
			<stop  offset="0" style="stop-color:#7FBBDE"/>
			<stop  offset="1" style="stop-color:#A7DEF0"/>
		</linearGradient>
		<path fill="url(#SVGID_46_)" d="M1564.202,619.884c-0.566,1.553-2.035,2.517-3.596,2.517c-0.436,0-0.88-0.076-1.308-0.237
			c-1.989-0.719-3.006-2.915-2.287-4.904c0.322-0.872,7.635-21.848-6.93-36.413c-11.467-11.467-6.411-29.207-0.574-41.493
			c1.331,1.897,3.175,4.437,5.263,7.023c-0.26,0.62-0.505,1.247-0.75,1.882c-4.697,12.362-4.207,21.504,1.469,27.18
			C1573.55,593.492,1564.592,618.813,1564.202,619.884z"/>
	</g>
	<g>
		<linearGradient id="SVGID_47_" gradientUnits="userSpaceOnUse" x1="1574.2476" y1="569.0011" x2="1601.9918" y2="569.0011">
			<stop  offset="0" style="stop-color:#E5577D"/>
			<stop  offset="1" style="stop-color:#E74B56"/>
		</linearGradient>
		<path fill="url(#SVGID_47_)" d="M1593.845,564.996l-9.256,9.524l3.81,1.744l8.186,3.741l-1.668,7.65l-12.89-5.898l-5.546-2.532
			c-1.132-0.52-1.935-1.553-2.165-2.777c-0.13-0.688-0.069-1.385,0.168-2.02c0.176-0.497,0.467-0.956,0.842-1.346l11.827-12.171
			l7.994-8.231l2.265-2.333c-0.168,0.972-0.352,1.958-0.544,2.961l5.126,1.859l-0.405,1.859L1593.845,564.996z"/>
	</g>
	<g>
		<linearGradient id="SVGID_48_" gradientUnits="userSpaceOnUse" x1="1537.6992" y1="682.2401" x2="1550.1035" y2="682.2401">
			<stop  offset="0" style="stop-color:#7FBBDE"/>
			<stop  offset="1" style="stop-color:#A7DEF0"/>
		</linearGradient>
		<circle fill="url(#SVGID_48_)" cx="1543.901" cy="682.24" r="6.202"/>
	</g>
	<g>
		<path fill="#1D3658" d="M1544.121,768.001h-9.371c-2.609-4.529-4.039-9.899-2.257-15.667c0.627-2.02,2.769-3.144,4.789-2.524
			c2.019,0.627,3.144,2.769,2.524,4.789C1538.315,759.418,1540.9,764.222,1544.121,768.001z"/>
	</g>
	<g>
		<linearGradient id="SVGID_49_" gradientUnits="userSpaceOnUse" x1="1504.3024" y1="720.1955" x2="1525.0316" y2="720.1955">
			<stop  offset="0" style="stop-color:#E5577D"/>
			<stop  offset="1" style="stop-color:#E74B56"/>
		</linearGradient>
		<polygon fill="url(#SVGID_49_)" points="1504.302,727.469 1515.612,712.922 1525.032,720.755 		"/>
	</g>
	<g>
		<polygon fill="#FFFFFF" points="1517.382,664.805 1522.349,649.683 1536.149,661.627 1525.032,661.627 		"/>
	</g>
	<g>
		<polygon fill="#FFD577" points="1562.902,695.582 1560.606,686.402 1572.465,686.36 		"/>
	</g>
	<g>
		<linearGradient id="SVGID_50_" gradientUnits="userSpaceOnUse" x1="1535.5352" y1="612.5635" x2="1558.4346" y2="612.5635">
			<stop  offset="0" style="stop-color:#51C0B0"/>
			<stop  offset="1" style="stop-color:#6CC396"/>
		</linearGradient>
		<path fill="url(#SVGID_50_)" d="M1535.535,624.261l2.164-43.427c0,0,15.382,11.804,12.832,24.007
			c-2.55,12.203-3.371,23.792,4.434,26.922c7.805,3.13,0,12.53,0,12.53s-9.585-9.47-13.384-9.47S1535.535,624.261,1535.535,624.261z
			"/>
	</g>
	<g>
		<path fill="#FDC259" d="M1597.41,550.347c-0.168,0.972-0.352,1.958-0.544,2.961c-0.757,3.848-1.744,7.879-3.021,11.689
			c-1.423,4.23-3.205,8.185-5.447,11.268c-1.492,2.065-3.198,3.741-5.125,4.858c-0.383,0.222-0.796,0.436-1.247,0.635
			c-1.331,0.581-2.938,1.017-4.812,1.017c-1.897,0-4.062-0.451-6.457-1.652c-9.692-4.842-14.022-14.519-12.515-27.976
			c0.092-0.803,0.199-1.591,0.321-2.364c2.356,2.524,4.819,4.751,7.083,6.036c-0.023,0.421-0.031,0.849-0.031,1.27
			c0,6.495,1.974,12.898,8.561,16.195c0.107,0.054,0.207,0.099,0.306,0.145c2.494,1.155,3.955,0.65,4.957,0.077
			c3.205-1.851,5.768-7.13,7.711-13.594c0.964-3.213,1.775-6.724,2.432-10.251l5.561,2.02L1597.41,550.347z"/>
	</g>
	<g>
		<path fill="#FDC259" d="M1508.863,748.065c-10.343,0-18.765,8.415-18.765,18.765c0,0.39,0.015,0.788,0.038,1.17h7.681
			c-0.046-0.383-0.069-0.773-0.069-1.17c0-6.128,4.988-11.115,11.115-11.115c6.127,0,11.115,4.988,11.115,11.115
			c0,0.398-0.023,0.788-0.069,1.17h7.681c0.023-0.383,0.038-0.78,0.038-1.17C1527.628,756.48,1519.213,748.065,1508.863,748.065z"/>
	</g>
	<path fill="#FFD577" d="M1490.018,643.34c-3.749-2.59-8.844-1.894-11.776,1.595c-4.66,5.545-11.325,14.434-15.812,24.503
		c-6.162,13.828-19.081,76.248-23.59,98.563l7.644,0l5.51-17.029l26.142,12.063l2.259-5.697l-26.504-12.23l4.915-29.262
		c0,0,5.997-35.98,24.541-53.015c2.954-2.714,7.37-3.089,10.743-0.918l12.004,7.727l4.457-12.113L1490.018,643.34z"/>
	<path fill="#FFD577" d="M1504.302,653.209c0,0,9.15-26.871,9.15-36.746s0-33.079,2.04-42.004
		c2.04-8.925,13.515-33.659,13.515-33.659l11.389,14.504l-9.757,26.833l-7.857,43.55l-12.231,31.84L1504.302,653.209z"/>
	<path fill="#733653" d="M1529.007,540.8c0,0-11.475,24.735-13.515,33.659c-2.04,8.925-2.04,32.129-2.04,42.004
		c0,9.874-9.149,36.745-9.149,36.745l-14.285-9.868c-3.749-2.59-8.844-1.894-11.776,1.595c-4.66,5.545-11.325,14.434-15.812,24.503
		c-6.162,13.828-19.081,76.248-23.59,98.563l7.644,0l5.51-17.029l26.142,12.063l2.259-5.697l-26.504-12.23l4.915-29.262
		c0,0,5.997-35.98,24.541-53.016c2.954-2.714,7.37-3.089,10.743-0.918l12.004,7.727l4.457-12.113l12.231-31.84l7.857-43.55
		l9.757-26.833L1529.007,540.8z"/>
	<polygon fill="#1D3658" points="1750.306,702.309 1769.837,678.689 1765.761,612.233 1735.987,650.767 	"/>
	<linearGradient id="SVGID_51_" gradientUnits="userSpaceOnUse" x1="1750.3062" y1="658.4172" x2="1797.9518" y2="658.4172">
		<stop  offset="0" style="stop-color:#7FBBDE"/>
		<stop  offset="1" style="stop-color:#A7DEF0"/>
	</linearGradient>
	<circle fill="url(#SVGID_51_)" cx="1774.129" cy="658.417" r="23.821"/>
	<circle fill="#FFFFFF" cx="1774.129" cy="658.417" r="10.562"/>
	<path fill="#7ACBC3" d="M1785.193,555.166l-0.405,1.859l-5.003,22.98l-1.668,7.65l-5.034,23.125c0,0-10.97-2.884-25.076,34.424
		c-1.905,5.057-3.159,9.494-3.901,13.387c-0.688,3.626-0.926,6.785-0.834,9.532c0.513,16.134,12.393,18.237,12.393,18.237
		l-11.949,35.549l-2.685,8.002l-12.806,38.089H1659.3l7.183-17.817l3.045-7.558l12.783-31.709c0,0-3.489-9.738,2.325-27.792
		c4.001-12.439,12.63-35.013,17.61-47.842c1.615-4.169,2.846-7.313,3.397-8.736c0.229-0.558,0.344-0.857,0.344-0.857l7.856-43.551
		l16.715-45.983c0,0,0.811,1.27,2.15,3.198c1.331,1.897,3.175,4.437,5.263,7.023c1.201,1.492,2.479,2.991,3.794,4.406
		c2.356,2.524,4.819,4.751,7.083,6.036c0.398,0.229,0.796,0.421,1.178,0.589l7.115-10.924l7.015,5.737l6.043-2.502l2.586,0.941
		l5.561,2.02l1.721,0.627L1785.193,555.166z"/>
	<g>
		<path fill="#733653" d="M1743.716,721.91l-2.685,8.002c-10.809,1.507-20.662,5.676-30.844,9.983
			c-6.976,2.953-14.182,5.997-21.656,8.078c-6.128,1.698-12.087,2.349-17.625,2.349c-1.507,0-2.984-0.046-4.422-0.138l3.045-7.558
			c5.317,0.13,11.069-0.398,16.952-2.027c7-1.943,13.67-4.758,20.723-7.749C1718.648,728.015,1730.344,723.065,1743.716,721.91z"/>
	</g>
	<g>
		<path fill="#FDC259" d="M1719.712,710.709c-5.565,0-10.396-1.928-14.163-5.695c-9.497-9.496-4.374-22.023-0.338-27.321
			c1.28-1.68,3.678-2.006,5.361-0.725c1.676,1.277,2.003,3.67,0.733,5.35c-0.315,0.419-7.47,10.163-0.347,17.286
			c7.477,7.477,19.734,0.507,19.857,0.436c1.829-1.059,4.169-0.436,5.228,1.391c1.059,1.828,0.436,4.168-1.391,5.228
			c-0.175,0.101-4.333,2.487-9.82,3.543C1723.067,710.54,1721.357,710.709,1719.712,710.709z"/>
	</g>
	<g>
		<path fill="#733653" d="M1743.272,668.124c-6.448-5.929-16.439-14.389-25.665-19.117c-6.502-3.335-11.567-8.522-15.361-13.724
			c1.615-4.169,2.846-7.313,3.397-8.736c3.419,5.676,8.514,12.094,15.452,15.652c8.101,4.154,16.516,10.733,23.011,16.394
			C1743.418,662.219,1743.181,665.378,1743.272,668.124z"/>
	</g>
	<g>
		<linearGradient id="SVGID_52_" gradientUnits="userSpaceOnUse" x1="1726.4008" y1="580.8775" x2="1749.9661" y2="580.8775">
			<stop  offset="0" style="stop-color:#FBC15A"/>
			<stop  offset="1" style="stop-color:#F69363"/>
		</linearGradient>
		<path fill="url(#SVGID_52_)" d="M1747.403,619.884c-0.566,1.553-2.035,2.517-3.596,2.517c-0.436,0-0.88-0.076-1.308-0.237
			c-1.989-0.719-3.006-2.915-2.287-4.904c0.322-0.872,7.635-21.848-6.93-36.413c-11.467-11.467-6.411-29.207-0.574-41.493
			c1.331,1.897,3.175,4.437,5.263,7.023c-0.26,0.62-0.505,1.247-0.75,1.882c-4.697,12.362-4.207,21.504,1.469,27.18
			C1756.751,593.492,1747.793,618.813,1747.403,619.884z"/>
	</g>
	<g>
		<path fill="#1D3658" d="M1777.047,564.996l-9.256,9.524l3.81,1.744l8.186,3.741l-1.668,7.65l-12.89-5.898l-5.546-2.532
			c-1.132-0.52-1.935-1.553-2.165-2.777c-0.13-0.688-0.069-1.385,0.168-2.02c0.176-0.497,0.467-0.956,0.842-1.346l11.827-12.171
			l7.994-8.231l2.265-2.333c-0.168,0.972-0.352,1.958-0.544,2.961l5.126,1.859l-0.405,1.859L1777.047,564.996z"/>
	</g>
	<g>
		<circle fill="#1D3658" cx="1727.103" cy="682.24" r="6.202"/>
	</g>
	<g>
		<linearGradient id="SVGID_53_" gradientUnits="userSpaceOnUse" x1="1714.9023" y1="758.82" x2="1727.3224" y2="758.82">
			<stop  offset="0" style="stop-color:#E5577D"/>
			<stop  offset="1" style="stop-color:#E74B56"/>
		</linearGradient>
		<path fill="url(#SVGID_53_)" d="M1727.322,768.001h-9.371c-2.609-4.529-4.039-9.899-2.257-15.667
			c0.627-2.02,2.769-3.144,4.789-2.524c2.019,0.627,3.144,2.769,2.524,4.789C1721.516,759.418,1724.102,764.222,1727.322,768.001z"
			/>
	</g>
	<g>
		<polygon fill="#FFD577" points="1687.504,727.469 1698.813,712.922 1708.233,720.755 		"/>
	</g>
	<g>
		<polygon fill="#FFFFFF" points="1700.583,664.805 1705.551,649.683 1719.351,661.627 1708.233,661.627 		"/>
	</g>
	<g>
		<polygon fill="#FFD577" points="1746.104,695.582 1743.808,686.402 1755.667,686.36 		"/>
	</g>
	<g>
		<linearGradient id="SVGID_54_" gradientUnits="userSpaceOnUse" x1="1718.7368" y1="612.5635" x2="1741.6362" y2="612.5635">
			<stop  offset="0" style="stop-color:#E5577D"/>
			<stop  offset="1" style="stop-color:#E74B56"/>
		</linearGradient>
		<path fill="url(#SVGID_54_)" d="M1718.737,624.261l2.164-43.427c0,0,15.382,11.804,12.832,24.007
			c-2.55,12.203-3.371,23.792,4.434,26.922c7.805,3.13,0,12.53,0,12.53s-9.585-9.47-13.384-9.47S1718.737,624.261,1718.737,624.261z
			"/>
	</g>
	<g>
		<linearGradient id="SVGID_55_" gradientUnits="userSpaceOnUse" x1="1741.1511" y1="566.5608" x2="1780.6115" y2="566.5608">
			<stop  offset="0" style="stop-color:#E5577D"/>
			<stop  offset="1" style="stop-color:#E74B56"/>
		</linearGradient>
		<path fill="url(#SVGID_55_)" d="M1780.611,550.347c-0.168,0.972-0.352,1.958-0.544,2.961c-0.757,3.848-1.744,7.879-3.021,11.689
			c-1.423,4.23-3.205,8.185-5.447,11.268c-1.492,2.065-3.198,3.741-5.125,4.858c-0.382,0.222-0.796,0.436-1.247,0.635
			c-1.331,0.581-2.938,1.017-4.812,1.017c-1.897,0-4.062-0.451-6.457-1.652c-9.692-4.842-14.022-14.519-12.515-27.976
			c0.092-0.803,0.199-1.591,0.321-2.364c2.356,2.524,4.819,4.751,7.083,6.036c-0.023,0.421-0.031,0.849-0.031,1.27
			c0,6.495,1.974,12.898,8.561,16.195c0.107,0.054,0.207,0.099,0.306,0.145c2.494,1.155,3.955,0.65,4.957,0.077
			c3.205-1.851,5.768-7.13,7.711-13.594c0.964-3.213,1.775-6.724,2.432-10.251l5.561,2.02L1780.611,550.347z"/>
	</g>
	<g>
		<path fill="#FFFFFF" d="M1692.064,748.065c-10.343,0-18.765,8.415-18.765,18.765c0,0.39,0.015,0.788,0.038,1.17h7.681
			c-0.046-0.383-0.069-0.773-0.069-1.17c0-6.128,4.988-11.115,11.115-11.115c6.127,0,11.115,4.988,11.115,11.115
			c0,0.398-0.023,0.788-0.069,1.17h7.681c0.023-0.383,0.038-0.78,0.038-1.17C1710.829,756.48,1702.414,748.065,1692.064,748.065z"/>
	</g>
	<path fill="#FFD577" d="M1673.22,643.34c-3.749-2.59-8.844-1.894-11.776,1.595c-4.66,5.545-11.325,14.434-15.812,24.503
		c-6.162,13.828-19.081,76.248-23.59,98.563l7.644,0l5.51-17.029l26.142,12.063l2.259-5.697l-26.504-12.23l4.915-29.262
		c0,0,5.997-35.98,24.541-53.015c2.954-2.714,7.37-3.089,10.743-0.918l12.004,7.727l4.457-12.113L1673.22,643.34z"/>
	<path fill="#FFD577" d="M1687.504,653.209c0,0,9.15-26.871,9.15-36.746s0-33.079,2.04-42.004
		c2.04-8.925,13.515-33.659,13.515-33.659l11.389,14.504l-9.757,26.833l-7.857,43.55l-12.231,31.84L1687.504,653.209z"/>
	<linearGradient id="SVGID_56_" gradientUnits="userSpaceOnUse" x1="1622.0419" y1="654.4005" x2="1723.5979" y2="654.4005">
		<stop  offset="0" style="stop-color:#51C0B0"/>
		<stop  offset="1" style="stop-color:#6CC396"/>
	</linearGradient>
	<path fill="url(#SVGID_56_)" d="M1712.208,540.8c0,0-11.475,24.735-13.515,33.659c-2.04,8.925-2.04,32.129-2.04,42.004
		c0,9.874-9.149,36.745-9.149,36.745l-14.285-9.868c-3.749-2.59-8.844-1.894-11.776,1.595c-4.66,5.545-11.325,14.434-15.812,24.503
		c-6.162,13.828-19.081,76.248-23.59,98.563l7.644,0l5.51-17.029l26.142,12.063l2.259-5.697l-26.504-12.23l4.915-29.262
		c0,0,5.997-35.98,24.541-53.016c2.954-2.714,7.37-3.089,10.743-0.918l12.004,7.727l4.457-12.113l12.231-31.84l7.857-43.55
		l9.757-26.833L1712.208,540.8z"/>
</g>
<path fill="#EEE1D0" d="M1914.024,648.495c-3.362,0-6.089,2.727-6.089,6.089v23.332c0,3.602-2.929,6.53-6.531,6.53h-4.486v-35.662
	c0-3.362-2.727-6.089-6.089-6.089c-3.362,0-6.089,2.727-6.089,6.089v49.579h-6.807c-3.602,0-6.531-2.929-6.531-6.53v-10.575
	c0-3.362-2.727-6.089-6.089-6.089c-3.362,0-6.089,2.727-6.089,6.089v10.575c0,10.315,8.392,18.708,18.708,18.708h6.807v24.066
	c0,3.362,2.727,6.089,6.089,6.089c3.362,0,6.089-2.727,6.089-6.089v-37.983h4.486c10.316,0,18.708-8.392,18.708-18.708v-23.332
	C1920.113,651.222,1917.386,648.495,1914.024,648.495z"/>
<g>
	<g>
		<g>
			<polygon fill="#D8CDBF" points="1469.696,1198.726 1506.196,1116.515 1542.694,1198.726 1551.812,1198.726 1506.196,1095.977 
				1460.58,1198.726 			"/>
		</g>
	</g>
	<g>
		<g>
			
				<rect x="1437.777" y="1093.885" transform="matrix(0.9345 0.3559 -0.3559 0.9345 489.4964 -464.4486)" fill="#D8CDBF" width="138.352" height="8.333"/>
		</g>
	</g>
	<g>
		<g>
			<polygon fill="#D8CDBF" points="1579.169,1138.531 1554.815,1125.251 1560.816,1109.936 1587.381,1117.573 			"/>
		</g>
	</g>
	<g>
		<g>
			<polygon fill="#D8CDBF" points="1453.971,1057.02 1451.431,1056.013 1441.909,1052.239 1430.314,1081.492 1429.889,1099.243 
				1433.698,1100.753 1436.237,1101.76 1440.047,1103.269 1451.899,1090.047 1463.494,1060.794 			"/>
		</g>
	</g>
	<g>
		
			<rect x="1477.553" y="1167.929" transform="matrix(0.8699 0.4931 -0.4931 0.8699 773.9402 -593.2498)" fill="#D8CDBF" width="68.36" height="5.573"/>
	</g>
	<g>
		
			<rect x="1498.478" y="1136.536" transform="matrix(0.4932 0.8699 -0.8699 0.4932 1779.2085 -712.6634)" fill="#D8CDBF" width="5.573" height="68.36"/>
	</g>
	<g>
		
			<rect x="1490.95" y="1140.462" transform="matrix(0.8361 0.5486 -0.5486 0.8361 874.8908 -641.8708)" fill="#D8CDBF" width="41.412" height="5.574"/>
	</g>
	<g>
		
			<rect x="1499.709" y="1120.404" transform="matrix(0.5485 0.8362 -0.8362 0.5485 1633.7839 -740.4704)" fill="#D8CDBF" width="5.574" height="44.174"/>
	</g>
	<g>
		<rect x="1433.712" y="1100.451" fill="#D8CDBF" width="5.574" height="99.621"/>
	</g>
	<g>
		<rect x="1568.56" y="1128.86" fill="#D8CDBF" width="5.574" height="65.151"/>
	</g>
	<g>
		<rect x="1561.499" y="1184.287" fill="#D8CDBF" width="20.076" height="13.891"/>
	</g>
</g>
<circle fill="#1D3658" cx="2232.367" cy="1497.345" r="27.896"/>
<circle fill="#1D3658" cx="2232.367" cy="1497.345" r="27.896"/>
<circle fill="#1D3658" cx="2697.047" cy="1255.249" r="27.896"/>
<circle fill="#1D3658" cx="1438.65" cy="476.184" r="27.896"/>
<circle fill="#1D3658" cx="2596.632" cy="890.494" r="27.896"/>
<circle fill="#1D3658" cx="2343.471" cy="837.401" r="27.896"/>
<circle fill="#1D3658" cx="807.717" cy="1008.708" r="27.896"/>
<circle fill="#1D3658" cx="2154.888" cy="1147.649" r="27.896"/>
<circle fill="#1D3658" cx="1210.6" cy="1292.931" r="27.896"/>
<circle fill="#1D3658" cx="2049.873" cy="1276.304" r="27.896"/>
<circle fill="#1D3658" cx="2232.367" cy="1497.345" r="27.896"/>
<circle fill="#8CCCE2" cx="2232.367" cy="1497.345" r="35.825"/>
<circle fill="#1D3658" cx="2232.367" cy="1497.345" r="27.896"/>
<polygon fill="#E5545A" points="2232.367,1458.515 2241.058,1485.263 2269.183,1485.263 2246.429,1501.794 2255.12,1528.542 
	2232.367,1512.011 2209.614,1528.542 2218.305,1501.794 2195.552,1485.263 2223.676,1485.263 "/>
<g>
	<path fill="#1D3658" d="M2171.177,1569.184c-1.618-2.752-4.855-4.411-7.972-4.411c-5.463,0-9.469,4.128-9.469,9.551
		c0,5.18,4.168,9.509,9.388,9.509c3.318,0,6.354-1.578,8.134-4.37h5.948c-1.901,5.908-7.85,10.076-14.041,10.076
		c-3.885,0-7.851-1.699-10.603-4.451c-2.833-2.873-4.37-6.758-4.37-10.805c0-8.093,6.556-14.973,14.77-14.973
		c3.359,0,6.597,1.134,8.943,3.562v-2.914h4.532v9.227H2171.177z"/>
	<path fill="#1D3658" d="M2179.753,1574.526c0-8.498,6.839-15.175,15.256-15.175c8.214,0,15.053,6.717,15.053,14.932
		c0,8.458-6.717,15.297-15.175,15.297C2186.551,1589.58,2179.753,1582.862,2179.753,1574.526z M2204.396,1574.324
		c0-5.18-4.249-9.47-9.429-9.47c-5.261,0-9.55,4.209-9.55,9.51c0,5.342,4.128,9.712,9.469,9.712
		C2200.27,1584.076,2204.396,1579.665,2204.396,1574.324z"/>
	<path fill="#1D3658" d="M2215.318,1564.693h-3.115v-4.613h12.908c2.833,0,5.301,0.283,7.567,2.226s3.439,4.653,3.439,7.607
		c0,4.168-2.792,8.336-7.162,8.7l4.491,5.746h3.278v4.613h-6.758l-9.146-12.989v8.376h2.469v4.613h-11.088v-4.613h3.115V1564.693z
		 M2223.816,1575.457c1.7,0,3.359-0.081,4.815-1.174c1.295-1.012,1.983-2.549,1.983-4.168c0-1.537-0.647-3.116-1.902-4.087
		c-1.214-1.012-2.549-1.012-4.087-1.012h-3.804v10.44H2223.816z"/>
	<path fill="#1D3658" d="M2250.44,1560.08c2.59,0,5.544,0.323,7.688,1.901c2.429,1.78,3.562,4.532,3.562,7.527
		c0,2.549-0.972,5.018-2.792,6.798c-2.104,2.145-4.451,2.671-7.365,2.671h-3.966v5.382h3.156v4.613h-11.775v-4.613h3.116v-19.666
		h-3.116v-4.613H2250.44z M2250.846,1574c1.376,0,2.63-0.04,3.723-0.971c1.052-0.891,1.578-2.186,1.578-3.521
		c0-1.417-0.688-2.752-1.821-3.521c-1.173-0.851-2.388-0.891-3.723-0.891h-3.035V1574H2250.846z"/>
	<path fill="#1D3658" d="M2290.863,1560.08v4.613h-3.116v14.324c0,2.995-0.485,5.383-2.63,7.608
		c-2.063,2.145-4.775,2.913-7.648,2.913c-2.792,0-5.382-0.647-7.445-2.671c-2.348-2.307-2.873-4.855-2.873-8.012v-14.163h-3.116
		v-4.613h11.25v4.613h-2.631v13.596c0,1.376,0.041,2.833,0.85,4.047c0.891,1.336,2.388,2.023,3.966,2.023
		c1.457,0,2.793-0.566,3.724-1.74c0.971-1.254,1.052-2.832,1.052-4.33v-13.596h-2.631v-4.613H2290.863z"/>
	<path fill="#1D3658" d="M2298.265,1580.393c0,2.388,1.619,4.411,4.29,4.411c2.387,0,4.248-1.497,4.248-3.966
		c0-2.873-2.711-3.602-4.937-4.249c-2.104-0.606-3.885-1.133-5.665-2.469c-2.063-1.537-3.156-3.723-3.156-6.312
		c0-4.774,4.087-8.336,8.74-8.336c1.983,0,3.926,0.647,5.14,2.226v-1.618h4.208v7.77h-4.937c-0.04-2.146-1.619-3.764-3.764-3.764
		s-3.925,1.335-3.925,3.602c0,2.832,2.509,3.439,4.734,4.087c2.226,0.607,4.33,1.214,6.191,2.63c1.861,1.498,2.873,3.643,2.873,6.07
		c0,5.221-3.885,9.064-9.146,9.064c-2.226,0-4.168-0.769-5.544-2.469v1.902h-4.37v-8.579H2298.265z"/>
	<path fill="#1D3658" d="M2171.986,1609.646c-1.618-2.752-4.855-4.411-7.972-4.411c-5.463,0-9.469,4.128-9.469,9.551
		c0,5.18,4.168,9.509,9.388,9.509c3.318,0,6.354-1.578,8.134-4.37h5.948c-1.901,5.908-7.85,10.076-14.041,10.076
		c-3.885,0-7.851-1.699-10.603-4.451c-2.833-2.873-4.37-6.758-4.37-10.805c0-8.093,6.556-14.973,14.77-14.973
		c3.359,0,6.597,1.134,8.943,3.562v-2.914h4.532v9.227H2171.986z"/>
	<path fill="#1D3658" d="M2200.432,1605.154h-3.116v-4.612h11.735v4.612h-3.116v19.667h3.116v4.613h-11.735v-4.613h3.116v-7.203
		h-11.129v7.203h3.116v4.613h-11.775v-4.613h3.156v-19.667h-3.156v-4.612h11.775v4.612h-3.116v6.961h11.129V1605.154z"/>
	<path fill="#1D3658" d="M2214.509,1605.154h-3.115v-4.612h12.908c2.833,0,5.302,0.283,7.567,2.226s3.439,4.653,3.439,7.607
		c0,4.168-2.792,8.336-7.162,8.7l4.491,5.746h3.278v4.613h-6.758l-9.146-12.989v8.376h2.468v4.613h-11.087v-4.613h3.115V1605.154z
		 M2223.007,1615.919c1.7,0,3.358-0.081,4.815-1.174c1.295-1.012,1.983-2.549,1.983-4.168c0-1.538-0.647-3.116-1.902-4.087
		c-1.214-1.012-2.549-1.012-4.087-1.012h-3.804v10.44H2223.007z"/>
	<path fill="#1D3658" d="M2246.758,1624.821h3.116v4.613h-11.775v-4.613h3.156v-19.667h-3.156v-4.612h11.775v4.612h-3.116V1624.821z
		"/>
	<path fill="#1D3658" d="M2257.804,1620.855c0,2.388,1.619,4.411,4.29,4.411c2.387,0,4.248-1.497,4.248-3.966
		c0-2.873-2.711-3.602-4.937-4.249c-2.104-0.606-3.885-1.133-5.665-2.469c-2.063-1.537-3.156-3.723-3.156-6.312
		c0-4.774,4.087-8.336,8.74-8.336c1.983,0,3.926,0.647,5.14,2.226v-1.618h4.208v7.77h-4.937c-0.04-2.146-1.619-3.764-3.764-3.764
		s-3.925,1.335-3.925,3.602c0,2.833,2.509,3.439,4.734,4.087c2.226,0.607,4.33,1.214,6.191,2.631
		c1.861,1.497,2.873,3.642,2.873,6.069c0,5.221-3.885,9.064-9.146,9.064c-2.226,0-4.168-0.769-5.544-2.469v1.902h-4.37v-8.579
		H2257.804z"/>
	<path fill="#1D3658" d="M2288.555,1624.821h3.157v4.613h-11.816v-4.613h3.156v-19.383h-4.249v4.208h-4.37v-9.104h22.742v9.104
		h-4.371v-4.208h-4.249V1624.821z"/>
	<path fill="#1D3658" d="M2308.259,1624.821h3.116v4.613H2299.6v-4.613h3.156v-19.667h-3.156v-4.612h11.775v4.612h-3.116V1624.821z"
		/>
</g>
</svg>
