<svg id="BACKGROUND" xmlns="http://www.w3.org/2000/svg" xmlns:xlink="http://www.w3.org/1999/xlink" viewBox="0 0 4000 2500"><defs><style>.cls-1{fill:#a7def1;}.cls-2{fill:url(#linear-gradient);}.cls-3{fill:#89bfd6;}.cls-4{fill:url(#linear-gradient-2);}.cls-5{fill:#d2eef9;}.cls-6{fill:url(#linear-gradient-3);}.cls-7{fill:url(#linear-gradient-4);}.cls-8{fill:#fff;}.cls-9{fill:#a3d4e6;}.cls-10,.cls-15,.cls-27,.cls-28,.cls-33,.cls-36,.cls-39,.cls-40,.cls-41,.cls-44,.cls-46{fill:none;stroke-miterlimit:10;}.cls-10{stroke:#8bb6c5;}.cls-10,.cls-28{stroke-width:2px;}.cls-11{fill:#85bccf;}.cls-12{fill:url(#linear-gradient-5);}.cls-13{fill:#83a9b5;}.cls-14{fill:url(#linear-gradient-6);}.cls-15,.cls-46{stroke:#fff;}.cls-15,.cls-27,.cls-36{stroke-width:4px;}.cls-16{fill:url(#linear-gradient-7);}.cls-17{fill:url(#linear-gradient-8);}.cls-18{fill:#7ca5b2;}.cls-19{fill:#8bb6c5;}.cls-20{fill:url(#linear-gradient-9);}.cls-21{fill:url(#linear-gradient-10);}.cls-22{fill:#c9e7f5;}.cls-23{fill:#bad7dd;}.cls-24{fill:#bfdbe9;}.cls-25{fill:#a8d1dc;}.cls-26{fill:#dff3fd;}.cls-27,.cls-28{stroke:#bfdbe9;}.cls-29{fill:#7091a0;}.cls-30{fill:#ddf2fc;}.cls-31{fill:url(#linear-gradient-11);}.cls-32{fill:#d0edf8;}.cls-33{stroke:#a8d1dc;stroke-width:7px;}.cls-34{fill:url(#linear-gradient-12);}.cls-35{fill:url(#linear-gradient-13);}.cls-36{stroke:#89bfd6;}.cls-37{fill:url(#New_Gradient_Swatch_copy);}.cls-38{fill:#87cbe3;}.cls-39,.cls-40,.cls-41{stroke-width:34px;}.cls-39{stroke:url(#linear-gradient-14);}.cls-40{stroke-dasharray:179.54 153.34;stroke:url(#linear-gradient-15);}.cls-41{stroke:url(#linear-gradient-16);}.cls-42{fill:#c3e8f3;}.cls-43{fill:#9cccdd;}.cls-44{stroke:#9cccdd;stroke-width:3px;}.cls-45{fill:#5dbbda;}.cls-46{stroke-width:30px;}</style><linearGradient id="linear-gradient" x1="-1708.21" y1="629.97" x2="-1529.3" y2="1164.09" gradientTransform="matrix(-1, 0, 0, 1, -431.36, 0)" gradientUnits="userSpaceOnUse"><stop offset="0" stop-color="#c5e9f3"/><stop offset="0.99" stop-color="#a7def1"/></linearGradient><linearGradient id="linear-gradient-2" x1="2905.8" y1="551.48" x2="3156.99" y2="1097.03" gradientTransform="matrix(1, 0, 0, 1, 0, 0)" xlink:href="#linear-gradient"/><linearGradient id="linear-gradient-3" x1="3126.52" y1="1354.01" x2="3806.51" y2="1354.01" gradientUnits="userSpaceOnUse"><stop offset="0" stop-color="#749ba7"/><stop offset="1" stop-color="#5f828d"/></linearGradient><linearGradient id="linear-gradient-4" x1="2111.27" y1="460.69" x2="2111.27" y2="658.79" gradientTransform="matrix(1, 0, 0, 1, 0, 0)" xlink:href="#linear-gradient"/><linearGradient id="linear-gradient-5" x1="917.9" y1="621.53" x2="918.9" y2="579.53" gradientUnits="userSpaceOnUse"><stop offset="0" stop-color="#c6e3f1"/><stop offset="1" stop-color="#ddf2fc"/></linearGradient><linearGradient id="linear-gradient-6" x1="874.77" y1="729.17" x2="860.77" y2="660.17" xlink:href="#linear-gradient-5"/><linearGradient id="linear-gradient-7" x1="1138.29" y1="834.68" x2="1138.29" y2="751.59" xlink:href="#linear-gradient-5"/><linearGradient id="linear-gradient-8" x1="1138.29" y1="1060.84" x2="1138.29" y2="917.8" xlink:href="#linear-gradient-5"/><linearGradient id="linear-gradient-9" x1="309.22" y1="1255.68" x2="475.22" y2="1255.68" xlink:href="#linear-gradient-3"/><linearGradient id="linear-gradient-10" x1="1653.43" y1="609.84" x2="1527.43" y2="1609.84" xlink:href="#linear-gradient-3"/><linearGradient id="linear-gradient-11" x1="1341.85" y1="1469.59" x2="1351.85" y2="1277.59" xlink:href="#linear-gradient-3"/><linearGradient id="linear-gradient-12" x1="1833.87" y1="1096.37" x2="1871.87" y2="1576.37" xlink:href="#linear-gradient-3"/><linearGradient id="linear-gradient-13" x1="384.3" y1="1243.84" x2="429.81" y2="1818.69" xlink:href="#linear-gradient-3"/><linearGradient id="New_Gradient_Swatch_copy" x1="2000" y1="2818.09" x2="2000" y2="1827.22" gradientUnits="userSpaceOnUse"><stop offset="0" stop-color="#121a3c"/><stop offset="1" stop-color="#1d3658"/></linearGradient><linearGradient id="linear-gradient-14" x1="-0.07" y1="2060.52" x2="4000.07" y2="2060.52" gradientUnits="userSpaceOnUse"><stop offset="0" stop-color="#fec359"/><stop offset="1" stop-color="#f79562"/></linearGradient><linearGradient id="linear-gradient-15" x1="-0.07" y1="2058.88" x2="4000.07" y2="2058.88" xlink:href="#linear-gradient-14"/><linearGradient id="linear-gradient-16" x1="-0.07" y1="2060.51" x2="4000.07" y2="2060.51" xlink:href="#linear-gradient-14"/></defs><title>v copy 13</title><rect class="cls-1" width="4000" height="2500"/><path class="cls-2" d="M2435.68,1175.47c-36.9-25.62-84.28-42.34-122.88-66.66-44.18-27.84-75.86-65.56-89.37-106.42-11.29-34.15-10.44-70.75-31.49-102.48-39.41-59.38-140.34-82.3-231.32-93.55C1687,772.55,1406.39,788,1129.4,773.67c-38-2-76.94-4.7-111-16.79s-62.69-35.64-63.51-62.72c-1.41-46.39,58.27-71.18,74.35-115.84,57.22-158.88-455.83-368-1029.22-368V1455.18c261.16-5.6,1190.38-55.46,1453.52-68.87,311.48-15.87,636.31,18.4,928.11-60.7,38.17-10.35,78.42-24.66,95.18-51.15C2498,1241,2472.57,1201.09,2435.68,1175.47Z"/><path class="cls-3" d="M0,1220.85v260.53H181.66V1262.18a46.49,46.49,0,0,0-2.72-92.73,46.49,46.49,0,1,0-91.27-3.67A33,33,0,0,0,57,1165.6a57,57,0,0,0-57-56.37"/><path class="cls-4" d="M4000,122.4c-3.4,1.95-924.36,69-843.27,345.63,12.61,43,73.91,58.93,82.86,102.85,5.06,24.81-9.31,50.5-29.75,65.45s-45.91,21.09-70.87,25.33c-98.11,16.64-199.33,9-297,28.23-54.76,10.81-116,38.88-126.66,93.66C2701.7,853.5,2780,923.46,2752,989c-17.21,40.19-66.2,55-109.64,60-86.46,9.84-173.75-.41-260.68-4.25s-176.68-.74-256.55,33.82S1976.73,1185,1968.07,1271.57c-2.69,26.89.66,55.07,14.11,78.52,23.52,41,71.94,59.59,117,73.72C2480.58,1543.32,3598.76,1555.93,4000,1552.2Z"/><path class="cls-3" d="M3293,1011.17A40.63,40.63,0,0,0,3228,983a40.61,40.61,0,0,0-68.81,6,40.43,40.43,0,0,0-25.88-6,41.06,41.06,0,0,0-4.29.68,37.89,37.89,0,0,0-61.73-38.53,38,38,0,0,0-15.05-15.71A25.69,25.69,0,0,0,3021.46,893a23.1,23.1,0,1,0-44.71-1.13,29.57,29.57,0,0,0-37.32,31.2,32.21,32.21,0,0,0-24.87,37.69,46.78,46.78,0,0,0-21.3-5.11c-1.39,0-2.75.07-4.11.19a40,40,0,0,0-77.88,12.43,35,35,0,1,0-23.16,64.13l18.15,234.25h475V1044.18A40.53,40.53,0,0,0,3293,1011.17Z"/><path class="cls-3" d="M4000,1095.22V1038a51,51,0,0,0-43.85,25,51,51,0,0,0-70.54,14.19c-8.82-1.16-17.45-2.34-25.57-3.53a51,51,0,0,0-55.9-22,45.31,45.31,0,0,0-70.85-23.33,45.3,45.3,0,0,0-76.74,6.7,45.1,45.1,0,0,0-28.86-6.73,45.71,45.71,0,0,0-4.79.76,42.26,42.26,0,0,0-68.85-43,42.38,42.38,0,0,0-16.79-17.52,28.65,28.65,0,0,0-34.37-40.62,25.77,25.77,0,1,0-49.87-1.26,33,33,0,0,0-41.63,34.79,35.92,35.92,0,0,0-27.74,42,52.18,52.18,0,0,0-23.76-5.7c-1.54,0-3.07.08-4.58.21a44.61,44.61,0,0,0-86.87,13.86,39,39,0,1,0-25.83,71.52l11.54,148.93q54.85-1.18,109.71-1.14c87.09,0-61.93,192.36,25.13,194.68,55.85,1.49,555.15,52.53,611,54V1096.51A.83.83,0,0,0,4000,1095.22Z"/><path class="cls-5" d="M3381.22,1212.81a23.5,23.5,0,0,0-45.57-8.08,15.89,15.89,0,0,0-13-1.75,30.5,30.5,0,0,0-60,.55,23.5,23.5,0,0,0-33.47,21.28,23.64,23.64,0,0,0,.23,3.28c-2.73,2.26-4.23,4.69-4.23,7.22a6.71,6.71,0,0,0,.39,2.23,25.44,25.44,0,0,0,30.21,40.78,23.5,23.5,0,0,0,41.85,3.91,16,16,0,0,0,11.7-25c38.66-1.1,68.85-10.48,68.85-21.89,0-2.24-1.17-4.41-3.35-6.45A23.41,23.41,0,0,0,3381.22,1212.81Z"/><path class="cls-6" d="M3806,1367.53a64,64,0,0,0-98.34-46,43.28,43.28,0,0,0-29.08-58.33,64,64,0,0,0-117.41-47.64,33.52,33.52,0,0,0-45.41,4.66,43.24,43.24,0,0,0-66.28-7.11,43.26,43.26,0,0,0-79.92,33.14,64,64,0,0,0-87.69,31.34,43.26,43.26,0,0,0-75.39,39.69,64,64,0,1,0,31,105.44,64,64,0,0,0,94.27-2.42,23,23,0,0,0,38.9,11.15,70,70,0,0,0,121.29,13.91,56,56,0,0,0,106.43,13.77,20,20,0,0,0,27.86,5.92,33.4,33.4,0,0,0,59,26.27,59,59,0,1,0,96.67-65.62A64,64,0,0,0,3806,1367.53Z"/><path class="cls-7" d="M1701.62,616.53c33.22-69.91,86.28-121.21,145.11-140.31s122.82-5.8,175,36.38c22.7,18.34,43.41,42,68,54.95,56.63,29.85,119-2.72,178.58-18.06a313.08,313.08,0,0,1,165.61,2.44c39.09,11.26,83.41,40.31,88.43,95.17H1700.21Z"/><circle class="cls-8" cx="2904.51" cy="517.44" r="78.21"/><path class="cls-3" d="M2256.11,1116.43,2266.45,1250q49.17-1.05,98.36-1c78.09,0,156.16,1.67,234.22,3.75,50.07,1.33,100.14,2.83,150.22,4.14V1128.18A40.62,40.62,0,0,0,2696,1067a40.61,40.61,0,0,0-68.81,6,40.43,40.43,0,0,0-25.88-6,41.06,41.06,0,0,0-4.29.68,37.89,37.89,0,0,0-61.73-38.53,38,38,0,0,0-15.05-15.71A25.69,25.69,0,0,0,2489.46,977a23.1,23.1,0,1,0-44.71-1.13,29.57,29.57,0,0,0-37.32,31.2,32.21,32.21,0,0,0-24.87,37.69,46.78,46.78,0,0,0-21.3-5.11c-1.39,0-2.75.07-4.11.19a40,40,0,0,0-77.88,12.43,35,35,0,1,0-23.16,64.13Z"/><rect class="cls-9" x="653.25" y="907.68" width="224" height="158"/><rect class="cls-9" x="1319.49" y="937.68" width="371.77" height="158"/><rect class="cls-9" x="1609.49" y="887.51" width="168.88" height="140.17"/><rect class="cls-9" x="1644.57" y="863.8" width="98.72" height="44.77"/><line class="cls-10" x1="914.25" y1="540.68" x2="914.25" y2="471.68"/><path class="cls-11" d="M2330.59,941.68a99.18,99.18,0,0,0-22-10.76v38.67a99.18,99.18,0,0,1,22,10.76s30,18.67,62.67-4V937.68C2360.59,960.35,2330.59,941.68,2330.59,941.68Z"/><rect class="cls-12" x="883.33" y="536.85" width="63.84" height="391.66"/><path class="cls-8" d="M2330.59,898.35a99.18,99.18,0,0,0-22-10.76v43.33a99.18,99.18,0,0,1,22,10.76s30,18.67,62.67-4V894.35C2360.59,917,2330.59,898.35,2330.59,898.35Z"/><path class="cls-13" d="M2259.92,883v82s22.28-4.53,48.67,4.57v-82C2282.2,878.49,2259.92,883,2259.92,883Z"/><rect class="cls-14" x="863.25" y="609.68" width="104" height="638"/><polygon class="cls-8" points="2284.59 907.28 2288.51 919.35 2301.2 919.35 2290.93 926.81 2294.86 938.88 2284.59 931.42 2274.32 938.88 2278.24 926.81 2267.97 919.35 2280.66 919.35 2284.59 907.28"/><circle class="cls-8" cx="2260.59" cy="879.02" r="6.67"/><line class="cls-15" x1="2260.59" y1="885.68" x2="2260.59" y2="1053.02"/><rect class="cls-16" x="863.54" y="690.68" width="549.5" height="559.34"/><rect class="cls-17" x="863.54" y="809.73" width="549.5" height="440.3"/><rect class="cls-18" x="899.53" y="838.68" width="33.09" height="33.09"/><rect class="cls-18" x="955.16" y="838.68" width="33.09" height="33.09"/><rect class="cls-18" x="1010.78" y="838.68" width="33.09" height="33.09"/><rect class="cls-18" x="1066.41" y="838.68" width="33.09" height="33.09"/><rect class="cls-18" x="1122.03" y="838.68" width="33.09" height="33.09"/><rect class="cls-18" x="1177.66" y="838.68" width="33.09" height="33.09"/><rect class="cls-18" x="1233.28" y="838.68" width="33.09" height="33.09"/><rect class="cls-18" x="1288.91" y="838.68" width="33.09" height="33.09"/><rect class="cls-18" x="1344.53" y="838.68" width="33.09" height="33.09"/><rect class="cls-18" x="899.53" y="891.68" width="33.09" height="33.09"/><rect class="cls-18" x="955.16" y="891.68" width="33.09" height="33.09"/><rect class="cls-18" x="1010.78" y="891.68" width="33.09" height="33.09"/><rect class="cls-18" x="1066.41" y="891.68" width="33.09" height="33.09"/><rect class="cls-18" x="1122.03" y="891.68" width="33.09" height="33.09"/><rect class="cls-18" x="1177.66" y="891.68" width="33.09" height="33.09"/><rect class="cls-18" x="1233.28" y="891.68" width="33.09" height="33.09"/><rect class="cls-18" x="1288.91" y="891.68" width="33.09" height="33.09"/><rect class="cls-18" x="1344.53" y="891.68" width="33.09" height="33.09"/><rect class="cls-18" x="899.53" y="944.68" width="33.09" height="33.09"/><rect class="cls-18" x="955.16" y="944.68" width="33.09" height="33.09"/><rect class="cls-18" x="1010.78" y="944.68" width="33.09" height="33.09"/><rect class="cls-18" x="1066.41" y="944.68" width="33.09" height="33.09"/><rect class="cls-18" x="1122.03" y="944.68" width="33.09" height="33.09"/><rect class="cls-18" x="1177.66" y="944.68" width="33.09" height="33.09"/><rect class="cls-18" x="1233.28" y="944.68" width="33.09" height="33.09"/><rect class="cls-18" x="1288.91" y="944.68" width="33.09" height="33.09"/><rect class="cls-18" x="1344.53" y="944.68" width="33.09" height="33.09"/><rect class="cls-18" x="899.53" y="997.68" width="33.09" height="33.09"/><rect class="cls-18" x="955.16" y="997.68" width="33.09" height="33.09"/><rect class="cls-18" x="1010.78" y="997.68" width="33.09" height="33.09"/><rect class="cls-18" x="1066.41" y="997.68" width="33.09" height="33.09"/><rect class="cls-18" x="1122.03" y="997.68" width="33.09" height="33.09"/><rect class="cls-18" x="1177.66" y="997.68" width="33.09" height="33.09"/><rect class="cls-18" x="1233.28" y="997.68" width="33.09" height="33.09"/><rect class="cls-18" x="1288.91" y="997.68" width="33.09" height="33.09"/><rect class="cls-18" x="1344.53" y="997.68" width="33.09" height="33.09"/><rect class="cls-18" x="899.53" y="1050.68" width="33.09" height="33.09"/><rect class="cls-18" x="955.16" y="1050.68" width="33.09" height="33.09"/><rect class="cls-18" x="1010.78" y="1050.68" width="33.09" height="33.09"/><rect class="cls-18" x="1066.41" y="1050.68" width="33.09" height="33.09"/><rect class="cls-18" x="1122.03" y="1050.68" width="33.09" height="33.09"/><rect class="cls-18" x="1177.66" y="1050.68" width="33.09" height="33.09"/><rect class="cls-18" x="1233.28" y="1050.68" width="33.09" height="33.09"/><rect class="cls-18" x="1288.91" y="1050.68" width="33.09" height="33.09"/><rect class="cls-18" x="1344.53" y="1050.68" width="33.09" height="33.09"/><rect class="cls-18" x="899.53" y="1103.68" width="33.09" height="33.09"/><rect class="cls-18" x="955.16" y="1103.68" width="33.09" height="33.09"/><rect class="cls-18" x="1010.78" y="1103.68" width="33.09" height="33.09"/><rect class="cls-18" x="1066.41" y="1103.68" width="33.09" height="33.09"/><rect class="cls-18" x="1122.03" y="1103.68" width="33.09" height="33.09"/><rect class="cls-18" x="1177.66" y="1103.68" width="33.09" height="33.09"/><rect class="cls-18" x="1233.28" y="1103.68" width="33.09" height="33.09"/><rect class="cls-18" x="1288.91" y="1103.68" width="33.09" height="33.09"/><rect class="cls-18" x="1344.53" y="1103.68" width="33.09" height="33.09"/><rect class="cls-18" x="899.53" y="1156.68" width="33.09" height="33.09"/><rect class="cls-18" x="955.16" y="1156.68" width="33.09" height="33.09"/><rect class="cls-18" x="1010.78" y="1156.68" width="33.09" height="33.09"/><rect class="cls-18" x="1066.41" y="1156.68" width="33.09" height="33.09"/><rect class="cls-18" x="1122.03" y="1156.68" width="33.09" height="33.09"/><rect class="cls-18" x="1177.66" y="1156.68" width="33.09" height="33.09"/><rect class="cls-18" x="1233.28" y="1156.68" width="33.09" height="33.09"/><rect class="cls-18" x="1288.91" y="1156.68" width="33.09" height="33.09"/><rect class="cls-18" x="1344.53" y="1156.68" width="33.09" height="33.09"/><rect class="cls-19" x="401.22" y="1027.68" width="534.03" height="456"/><rect class="cls-20" x="309.22" y="1027.68" width="166" height="456"/><rect class="cls-18" x="831.19" y="1209.77" width="46.46" height="71.81"/><path class="cls-21" d="M2268.14,1385.77l-9-319.48-12.44-14.63A44.29,44.29,0,0,0,2215.48,979a44.3,44.3,0,0,0-61.25-61.67,24.73,24.73,0,0,0-47.52,3.5,44.17,44.17,0,0,0-25.78-13,44.3,44.3,0,0,0-51.6-56.88A34.43,34.43,0,1,0,1961,857.1c-1.4-.13-2.81-.21-4.24-.21a44.3,44.3,0,0,0-20.9,83.36,44.12,44.12,0,0,0-6.59,13.4,32.78,32.78,0,0,0-34.77,49.49,32.77,32.77,0,0,0-37.13,11.87,47.33,47.33,0,0,0-82.27-9.56,43.57,43.57,0,0,0-30.39-25.64,43.49,43.49,0,0,0-74.81-43.36,49.82,49.82,0,0,0-89.35,43,49.81,49.81,0,0,0-48.48,42.16,49.77,49.77,0,0,0-72.29.77,43.69,43.69,0,0,0-59.47-9,66.65,66.65,0,0,0-132.6,8.11,50.66,50.66,0,0,0-72.84-17.45,58.6,58.6,0,1,0-108.59,44,58.59,58.59,0,0,0-61.77,98.29,50.42,50.42,0,0,0-48.43,37.08,50.41,50.41,0,0,0-82.83,49.34,36,36,0,1,0,18.63,67.32l142.81,133.64Z"/><rect class="cls-8" x="2316.25" y="1034.68" width="696" height="232"/><rect class="cls-8" x="2994.25" y="1149.68" width="189" height="117.08"/><path class="cls-5" d="M3175.64,1196.05a14.93,14.93,0,0,0,4.62,24.28,14.92,14.92,0,0,0-3.58,28.3,18.89,18.89,0,0,0,3.26,19.18h29.29l81-96.13c-1.63-.09-3.73-.14-6.17-.16,0-.3,0-.6,0-.91a14.93,14.93,0,0,0-28.94-5.16,19,19,0,0,0-33.72-4.35,14.93,14.93,0,0,0-28.73,1.11,19,19,0,0,0-17.1,33.83Z"/><path class="cls-8" d="M2656.61,919c33.33,0,38,32.67,38,32.67h11.33c20.67,52.67,82,44,82,44V1007h40v32h-342v-32h40V995.68s61.33,8.67,82-44h11.33s4.67-32.67,38-32.67"/><rect class="cls-18" x="2404.75" y="1059.68" width="23.5" height="37"/><rect class="cls-18" x="2640.08" y="1039.62" width="31.4" height="49.45"/><rect class="cls-18" x="2404.75" y="1152.68" width="23.5" height="37"/><rect class="cls-18" x="2884.19" y="1059.68" width="23.5" height="37"/><rect class="cls-18" x="2884.19" y="1152.68" width="23.5" height="37"/><path class="cls-18" d="M3132.77,1268.44v-55a35.76,35.76,0,0,0-71.52,0v55Z"/><rect class="cls-22" x="2521.75" y="1103.18" width="269.5" height="25"/><rect class="cls-23" x="2521.75" y="1134.56" width="269.5" height="3.62"/><rect class="cls-24" x="2521.75" y="1104.11" width="269.5" height="11.01"/><path class="cls-25" d="M2570.65,1103.44v-57a11.25,11.25,0,0,0-22.5,0v57Z"/><path class="cls-25" d="M2570.65,1223.44v-57a11.25,11.25,0,0,0-22.5,0v57Z"/><path class="cls-25" d="M2766.65,1223.44v-57a11.25,11.25,0,0,0-22.5,0v57Z"/><path class="cls-25" d="M2765.69,1103.44v-57a11.25,11.25,0,0,0-22.5,0v57Z"/><rect class="cls-26" x="2590.52" y="1003.99" width="26.46" height="13.36" rx="4.83" ry="4.83"/><rect class="cls-26" x="2501.27" y="1035.01" width="27.57" height="17.6" rx="5.66" ry="5.66"/><rect class="cls-26" x="2484.02" y="1055.01" width="27.57" height="17.6" rx="5.66" ry="5.66"/><rect class="cls-26" x="2442.02" y="1088.3" width="37.23" height="14.05" rx="5.88" ry="5.88"/><rect class="cls-26" x="2457.79" y="1104.9" width="32.88" height="14.05" rx="5.53" ry="5.53"/><rect class="cls-26" x="2319.79" y="1066.15" width="32.88" height="14.05" rx="5.53" ry="5.53"/><rect class="cls-26" x="2329.79" y="1082.21" width="32.88" height="18.86" rx="6.4" ry="6.4"/><rect class="cls-26" x="2334.04" y="1136.71" width="32.88" height="18.86" rx="6.4" ry="6.4"/><rect class="cls-26" x="2812.7" y="1106.05" width="32.88" height="18.86" rx="6.4" ry="6.4"/><rect class="cls-26" x="2451.6" y="1192.08" width="20.26" height="11.62" rx="3.94" ry="3.94"/><rect class="cls-26" x="2514.77" y="1054.26" width="27.57" height="17.6" rx="5.66" ry="5.66"/><rect class="cls-26" x="2608.44" y="988.94" width="21.66" height="13.36" rx="4.37" ry="4.37"/><rect class="cls-26" x="1122.2" y="1296" width="28.12" height="13.36" rx="4.98" ry="4.98"/><rect class="cls-26" x="1139.7" y="1314" width="22.47" height="13.36" rx="4.45" ry="4.45"/><rect class="cls-26" x="2639.69" y="1000.94" width="21.66" height="13.36" rx="4.37" ry="4.37"/><rect class="cls-26" x="2834.09" y="1126.77" width="30" height="14.56" rx="5.37" ry="5.37"/><rect class="cls-26" x="2960.09" y="1192.02" width="30" height="14.56" rx="5.37" ry="5.37"/><rect class="cls-26" x="2935" y="1066.65" width="30" height="14.56" rx="5.37" ry="5.37"/><rect class="cls-26" x="2956" y="1052.14" width="13.57" height="13.07" rx="3.42" ry="3.42"/><rect class="cls-26" x="2970.5" y="1064.89" width="13.57" height="13.07" rx="3.42" ry="3.42"/><rect class="cls-26" x="2954" y="1122.39" width="13.57" height="13.07" rx="3.42" ry="3.42"/><rect class="cls-26" x="2823.17" y="1142.77" width="22.67" height="14.23" rx="4.62" ry="4.62"/><path class="cls-23" d="M2669.26,1128.27h-13.33v0h-13.33s-.57,21,13.25,29.3v.11l.09-.06.09.06v-.11C2669.83,1149.28,2669.26,1128.27,2669.26,1128.27Z"/><line class="cls-27" x1="2315.25" y1="1224.68" x2="3010.25" y2="1224.68"/><line class="cls-28" x1="2315.25" y1="1230.68" x2="3010.25" y2="1230.68"/><path class="cls-18" d="M2691.77,1267.44v-74a35.87,35.87,0,0,0-35.76-35.76h0a35.87,35.87,0,0,0-35.76,35.76v74Z"/><rect class="cls-29" x="2625.84" y="1221.89" width="26.79" height="16.92"/><rect class="cls-18" x="732.43" y="1070.28" width="46.46" height="71.81"/><rect class="cls-18" x="831.19" y="1070.28" width="46.46" height="71.81"/><rect class="cls-18" x="732.43" y="1209.77" width="46.46" height="71.81"/><rect class="cls-18" x="732.43" y="1349.27" width="46.46" height="71.81"/><rect class="cls-18" x="633.68" y="1070.28" width="46.46" height="71.81"/><rect class="cls-18" x="633.68" y="1209.77" width="46.46" height="71.81"/><rect class="cls-18" x="633.68" y="1349.27" width="46.46" height="71.81"/><rect class="cls-18" x="534.92" y="1070.28" width="46.46" height="71.81"/><rect class="cls-18" x="534.92" y="1209.77" width="46.46" height="71.81"/><rect class="cls-18" x="534.92" y="1349.27" width="46.46" height="71.81"/><rect class="cls-18" x="831.19" y="1349.27" width="46.46" height="71.81"/><rect class="cls-29" x="2625.84" y="1244.56" width="26.79" height="16.26"/><rect class="cls-29" x="2625.84" y="1196.56" width="26.79" height="19.59"/><path class="cls-29" d="M2652.63,1190.81v-25.72a30.32,30.32,0,0,0-26.49,25.72Z"/><path class="cls-29" d="M2685.89,1190.81a30.31,30.31,0,0,0-27-25.78v25.78Z"/><rect class="cls-29" x="2658.9" y="1196.56" width="27.29" height="19.59"/><rect class="cls-29" x="2658.9" y="1244.56" width="27.29" height="16.26"/><rect class="cls-29" x="2658.9" y="1221.89" width="27.29" height="16.92"/><polygon class="cls-30" points="2539.25 1267.02 2515.42 1267.02 2515.42 1232.35 2521.73 1217.02 2533.43 1217.02 2539.25 1232.35 2539.25 1267.02"/><rect class="cls-30" x="2521.56" y="1103.6" width="12.1" height="119.8"/><polygon class="cls-30" points="2599.25 1267.02 2575.42 1267.02 2575.42 1232.35 2581.73 1217.02 2593.43 1217.02 2599.25 1232.35 2599.25 1267.02"/><rect class="cls-30" x="2581.56" y="1103.6" width="12.1" height="119.8"/><polygon class="cls-30" points="2737.43 1267.02 2713.6 1267.02 2713.6 1232.35 2719.91 1217.02 2731.61 1217.02 2737.43 1232.35 2737.43 1267.02"/><rect class="cls-30" x="2719.74" y="1103.6" width="12.1" height="119.8"/><polygon class="cls-30" points="2797.43 1267.02 2773.6 1267.02 2773.6 1232.35 2779.91 1217.02 2791.61 1217.02 2797.43 1232.35 2797.43 1267.02"/><rect class="cls-30" x="2779.74" y="1103.6" width="12.1" height="119.8"/><path class="cls-25" d="M3031.59,1201.35h15.67a0,0,0,0,1,0,0v15.83a7.83,7.83,0,0,1-7.83,7.83h0a7.83,7.83,0,0,1-7.83-7.83v-15.83A0,0,0,0,1,3031.59,1201.35Z"/><path class="cls-25" d="M3146.25,1201.35h15.67a0,0,0,0,1,0,0v15.83a7.83,7.83,0,0,1-7.83,7.83h0a7.83,7.83,0,0,1-7.83-7.83v-15.83A0,0,0,0,1,3146.25,1201.35Z"/><polygon class="cls-3" points="2279.25 1377.68 2438.25 1301.68 2885.25 1301.68 3134.25 1450.68 2703.25 1423.68 2269.25 1399.68 2279.25 1377.68"/><path class="cls-31" d="M1690,1293.53a64,64,0,0,0-98.34-46,43.28,43.28,0,0,0-29.08-58.33,64,64,0,0,0-117.41-47.64,33.52,33.52,0,0,0-45.41,4.66,43.24,43.24,0,0,0-66.28-7.11,43.26,43.26,0,0,0-79.92,33.14,64,64,0,0,0-87.69,31.34,43.26,43.26,0,0,0-75.39,39.69,64,64,0,1,0,31,105.44,64,64,0,0,0,102.6-14.55,64,64,0,0,0,81.3,2.93,64,64,0,0,0,75-4.19A64,64,0,0,0,1459,1310a64,64,0,0,0,105.36,6.65A64,64,0,0,0,1690,1293.53Z"/><ellipse class="cls-32" cx="2264.96" cy="1160.87" rx="94.5" ry="132.09"/><line class="cls-33" x1="2264.96" y1="1081.28" x2="2264.96" y2="1409.76"/><path class="cls-34" d="M2065.53,1215.6a47.76,47.76,0,0,0-26.24,7.82,48,48,0,0,0-63.47-25.88c.11-1.35.19-2.71.19-4.09a48,48,0,0,0-48-48c-.76,0-1.52,0-2.27.06a30,30,0,0,0-50.26-32.74,48,48,0,0,0-77.92,32.92,48,48,0,0,0-47.16-3.73,48.49,48.49,0,0,0,.28-5.16,48,48,0,1,0-96,0c0,.58,0,1.16,0,1.73a30,30,0,0,0-30.29,51.66,48,48,0,1,0,25.44,90,48,48,0,0,0,67.26-6.94,48,48,0,0,0,68.73,7.05,48,48,0,0,0,62.62,5.48,47.94,47.94,0,0,0,57.43,1.55,48,48,0,0,0,55.23-11.54,48,48,0,0,0,60,6,48,48,0,1,0,44.42-66.18Zm-173.33-54.1-.22,0q.39-1.59.66-3.23,1.1.3,2.23.51Q1893.48,1160.06,1892.2,1161.49Z"/><path class="cls-35" d="M661.74,1386.63a57.2,57.2,0,0,0-31.43,9.36,57.5,57.5,0,0,0-76-31c.14-1.62.22-3.25.22-4.9A57.48,57.48,0,0,0,497,1302.62c-.91,0-1.82,0-2.72.07a35.92,35.92,0,0,0-60.2-39.22,57.46,57.46,0,0,0-93.31,39.42,57.5,57.5,0,0,0-56.48-4.47,58.08,58.08,0,0,0,.34-6.18,57.48,57.48,0,1,0-115,0c0,.7,0,1.39.05,2.08a35.93,35.93,0,0,0-36.27,61.87,57.48,57.48,0,1,0,30.47,107.74,57.46,57.46,0,0,0,80.55-8.31A57.44,57.44,0,0,0,326.8,1464a57.43,57.43,0,0,0,75,6.57,57.42,57.42,0,0,0,68.77,1.86,57.47,57.47,0,0,0,66.15-13.82,57.45,57.45,0,0,0,71.82,7.23,57.48,57.48,0,1,0,53.2-79.26Zm-207.59-64.8-.27,0q.46-1.91.79-3.86,1.32.36,2.67.61Q455.69,1320.12,454.15,1321.83Z"/><path class="cls-33" d="M2227.64,1123V1151a20,20,0,0,0,20,20h15.95"/><path class="cls-33" d="M2265.14,1204h18.95a20,20,0,0,0,20-20v-65.45"/><path class="cls-33" d="M2265.14,1241.53h-12.95a20,20,0,0,1-20-20V1198"/><rect class="cls-8" x="797.25" y="1267.68" width="1332" height="232"/><rect class="cls-26" x="1961.59" y="1304.69" width="21.66" height="13.36" rx="4.37" ry="4.37"/><rect class="cls-26" x="1974.09" y="1287.19" width="28.12" height="13.36" rx="4.98" ry="4.98"/><rect class="cls-26" x="1680.09" y="1323.19" width="28.12" height="13.36" rx="4.98" ry="4.98"/><rect class="cls-26" x="1736.11" y="1296.82" width="28.12" height="13.36" rx="4.98" ry="4.98"/><rect class="cls-26" x="1407.11" y="1337.82" width="28.12" height="13.36" rx="4.98" ry="4.98"/><rect class="cls-26" x="864.7" y="1307.5" width="28.12" height="13.36" rx="4.98" ry="4.98"/><rect class="cls-26" x="908.22" y="1312.87" width="28.12" height="13.36" rx="4.98" ry="4.98"/><rect class="cls-26" x="811.22" y="1407.87" width="28.12" height="13.36" rx="4.98" ry="4.98"/><rect class="cls-26" x="952.7" y="1380" width="22.47" height="13.36" rx="6.68" ry="6.68"/><rect class="cls-26" x="893.52" y="1294" width="22.47" height="13.36" rx="6.68" ry="6.68"/><rect class="cls-26" x="1711.99" y="1286.48" width="19.54" height="13.36" rx="4.15" ry="4.15"/><path class="cls-18" d="M1007.2,1387.31h120S1076.2,1241,1007.2,1387.31Z"/><path class="cls-18" d="M1762.2,1377.26h120S1831.2,1253.52,1762.2,1377.26Z"/><path class="cls-18" d="M1523.2,1377.26h120S1592.2,1253.52,1523.2,1377.26Z"/><rect class="cls-18" x="858.25" y="1329.68" width="35" height="65.63"/><rect class="cls-18" x="2023.25" y="1329.68" width="35" height="54"/><rect class="cls-18" x="1292.75" y="1329.68" width="85.84" height="54"/><rect class="cls-18" x="903.62" y="630.54" width="24.37" height="39.88"/><rect class="cls-18" x="906.67" y="557.53" width="18.27" height="29.9"/><rect class="cls-18" x="899.31" y="734.8" width="33" height="54"/><rect class="cls-18" x="973.46" y="734.8" width="33" height="54"/><rect class="cls-18" x="1047.6" y="734.8" width="33" height="54"/><rect class="cls-18" x="1121.75" y="734.8" width="33" height="54"/><rect class="cls-18" x="1195.89" y="734.8" width="33" height="54"/><rect class="cls-18" x="1270.04" y="734.8" width="33" height="54"/><rect class="cls-18" x="1344.19" y="734.8" width="33" height="54"/><line class="cls-10" x1="863.25" y1="704.52" x2="1414.25" y2="704.52"/><rect class="cls-3" x="1191.19" y="1075.28" width="13.5" height="338.98"/><path class="cls-8" d="M1199.25,995.69h-2.55c-6.32,0-22.25.13-22.78.66l8,58,9.27,20.93h13.56l9.27-20.93,8-58C1221.5,995.82,1205.57,995.71,1199.25,995.69Z"/><path class="cls-3" d="M1203.92,977.68v-2.33a5.17,5.17,0,0,0-5.17-5.17h-1.33a5.17,5.17,0,0,0-5.17,5.17v2.33l-18.33,18.67h48.33Z"/><line class="cls-36" x1="1181.92" y1="1054.35" x2="1214.03" y2="1054.35"/><line class="cls-36" x1="1192.25" y1="1054.18" x2="1186.25" y2="994.18"/><line class="cls-36" x1="1202.85" y1="1054.18" x2="1208.85" y2="994.18"/><rect class="cls-3" x="1869.16" y="1075.28" width="13.5" height="338.98"/><path class="cls-8" d="M1877.22,995.69h-2.55c-6.32,0-22.25.13-22.78.66l8,58,9.27,20.93h13.56l9.27-20.93,8-58C1899.47,995.82,1883.54,995.71,1877.22,995.69Z"/><path class="cls-3" d="M1881.89,977.68v-2.33a5.17,5.17,0,0,0-5.17-5.17h-1.33a5.17,5.17,0,0,0-5.17,5.17v2.33l-18.33,18.67h48.33Z"/><line class="cls-36" x1="1859.89" y1="1054.35" x2="1892" y2="1054.35"/><line class="cls-36" x1="1870.22" y1="1054.18" x2="1864.22" y2="994.18"/><line class="cls-36" x1="1880.82" y1="1054.18" x2="1886.82" y2="994.18"/><rect class="cls-37" y="1607.54" width="4000" height="892.46"/><path class="cls-38" d="M4000,1472.69c-462.46-70.81-1187-116.41-2001.38-116.41-812.8,0-1536,45.41-1998.62,116v135.28H4000Z"/><path class="cls-39" d="M4000,2060.69l-92.5-.34"/><path class="cls-40" d="M3754.17,2059.85c-454.79-1.34-1073.65-2.17-1755.55-2.17-719.59,0-1369,.92-1829.45,2.39"/><path class="cls-41" d="M92.5,2060.33l-92.5.34"/><path class="cls-42" d="M720.71,1571.54q-9.49,0-18.6-.11H0v90.12H4000v-90Z"/><rect class="cls-43" y="1624.32" width="4000" height="37.22"/><line class="cls-44" x1="1142.79" y1="1634.54" x2="1206.69" y2="1570.65"/><line class="cls-44" x1="792.79" y1="1634.54" x2="856.69" y2="1570.65"/><line class="cls-44" x1="1524.79" y1="1634.54" x2="1588.69" y2="1570.65"/><line class="cls-44" x1="1906.79" y1="1634.54" x2="1970.69" y2="1570.65"/><line class="cls-44" x1="2288.79" y1="1634.54" x2="2352.69" y2="1570.65"/><line class="cls-44" x1="2670.79" y1="1634.54" x2="2734.69" y2="1570.65"/><line class="cls-44" x1="3052.79" y1="1634.54" x2="3116.69" y2="1570.65"/><path class="cls-45" d="M997.85,1478.19a57.7,57.7,0,0,1-1.92-7.89c-.47-2.65-.82-5.3-1.07-8s-.4-5.34-.43-8a56.85,56.85,0,0,1,.42-8.11,57,57,0,0,1,1.92,7.89q.7,4,1.07,8c.25,2.67.4,5.34.43,8A57.7,57.7,0,0,1,997.85,1478.19Z"/><path class="cls-45" d="M1002.35,1456.69a30.26,30.26,0,0,1,1.18,5.75,50.89,50.89,0,0,1,.32,5.75,49.88,49.88,0,0,1-.32,5.75,29.9,29.9,0,0,1-1.18,5.75,29.86,29.86,0,0,1-1.18-5.75,49.88,49.88,0,0,1-.32-5.75,50.78,50.78,0,0,1,.32-5.75A30.26,30.26,0,0,1,1002.35,1456.69Z"/><path class="cls-45" d="M1013.35,1450.19a44.54,44.54,0,0,1,.55,7.1c0,2.35-.1,4.7-.3,7s-.52,4.66-.94,7a44.06,44.06,0,0,1-1.8,6.9,44,44,0,0,1-.55-7.1q0-3.53.31-7c.21-2.33.52-4.66.95-7A44.55,44.55,0,0,1,1013.35,1450.19Z"/><path class="cls-45" d="M1016.35,1477.69a30.09,30.09,0,0,1,.5-5.83,50.59,50.59,0,0,1,1.31-5.59,49.66,49.66,0,0,1,1.93-5.41,29.72,29.72,0,0,1,2.76-5.17,29.75,29.75,0,0,1-.49,5.83,49.55,49.55,0,0,1-1.32,5.59,50.48,50.48,0,0,1-1.94,5.41A30.12,30.12,0,0,1,1016.35,1477.69Z"/><path class="cls-45" d="M1024.35,1478.69a27.12,27.12,0,0,1,1.6-5.32,45.19,45.19,0,0,1,2.34-4.91,44.4,44.4,0,0,1,2.91-4.6,26.79,26.79,0,0,1,3.66-4.18,26.85,26.85,0,0,1-1.59,5.32,44.48,44.48,0,0,1-2.34,4.9,45.28,45.28,0,0,1-2.91,4.59A27.18,27.18,0,0,1,1024.35,1478.69Z"/><path class="cls-45" d="M2694.19,1512.76a25.29,25.29,0,0,1,3,4.45,41.88,41.88,0,0,1,2.18,4.76,41.25,41.25,0,0,1,1.58,5,25,25,0,0,1,.77,5.3,25,25,0,0,1-3-4.45,41.17,41.17,0,0,1-2.17-4.76,41.86,41.86,0,0,1-1.57-5A25.26,25.26,0,0,1,2694.19,1512.76Z"/><path class="cls-45" d="M2704.76,1530.69a57.7,57.7,0,0,1-1.92-7.89c-.47-2.65-.82-5.3-1.07-8s-.4-5.34-.43-8a56.85,56.85,0,0,1,.42-8.11,57,57,0,0,1,1.92,7.89q.7,4,1.07,8c.25,2.67.4,5.34.43,8A57.7,57.7,0,0,1,2704.76,1530.69Z"/><path class="cls-45" d="M2709.26,1509.19a30.26,30.26,0,0,1,1.18,5.75,50.78,50.78,0,0,1,.32,5.75,49.77,49.77,0,0,1-.32,5.75,29.89,29.89,0,0,1-1.18,5.75,29.86,29.86,0,0,1-1.18-5.75,49.88,49.88,0,0,1-.32-5.75,50.66,50.66,0,0,1,.32-5.75A30.26,30.26,0,0,1,2709.26,1509.19Z"/><path class="cls-45" d="M2720.26,1502.69a44.6,44.6,0,0,1,.55,7.1c0,2.35-.1,4.7-.3,7s-.52,4.66-.94,7a44,44,0,0,1-1.8,6.9,44,44,0,0,1-.55-7.1q0-3.53.31-7c.21-2.33.52-4.66.95-7A44.61,44.61,0,0,1,2720.26,1502.69Z"/><path class="cls-45" d="M2723.26,1530.19a30.13,30.13,0,0,1,.5-5.83,50.59,50.59,0,0,1,1.31-5.59,49.55,49.55,0,0,1,1.93-5.41,29.75,29.75,0,0,1,2.76-5.17,29.71,29.71,0,0,1-.49,5.83,49.55,49.55,0,0,1-1.32,5.59A50.48,50.48,0,0,1,2726,1525,30.09,30.09,0,0,1,2723.26,1530.19Z"/><path class="cls-45" d="M2731.26,1531.19a27.15,27.15,0,0,1,1.6-5.32,45.28,45.28,0,0,1,2.34-4.91,44.49,44.49,0,0,1,2.91-4.6,26.82,26.82,0,0,1,3.66-4.18,26.82,26.82,0,0,1-1.59,5.32,44.49,44.49,0,0,1-2.34,4.9,45.28,45.28,0,0,1-2.91,4.59A27.16,27.16,0,0,1,2731.26,1531.19Z"/><path class="cls-45" d="M3073.19,1519.76a25.29,25.29,0,0,1,3,4.45,41.88,41.88,0,0,1,2.18,4.76,41.25,41.25,0,0,1,1.58,5,25,25,0,0,1,.77,5.3,25,25,0,0,1-3-4.45,41.17,41.17,0,0,1-2.17-4.76,41.86,41.86,0,0,1-1.57-5A25.26,25.26,0,0,1,3073.19,1519.76Z"/><path class="cls-45" d="M3083.76,1537.69a57.7,57.7,0,0,1-1.92-7.89c-.47-2.65-.82-5.3-1.07-8s-.4-5.34-.43-8a56.85,56.85,0,0,1,.42-8.11,57,57,0,0,1,1.92,7.89q.7,4,1.07,8c.25,2.67.4,5.34.43,8A57.7,57.7,0,0,1,3083.76,1537.69Z"/><path class="cls-45" d="M3088.26,1516.19a30.26,30.26,0,0,1,1.18,5.75,50.78,50.78,0,0,1,.32,5.75,49.77,49.77,0,0,1-.32,5.75,29.89,29.89,0,0,1-1.18,5.75,29.86,29.86,0,0,1-1.18-5.75,49.88,49.88,0,0,1-.32-5.75,50.66,50.66,0,0,1,.32-5.75A30.26,30.26,0,0,1,3088.26,1516.19Z"/><path class="cls-45" d="M3099.26,1509.69a44.6,44.6,0,0,1,.55,7.1c0,2.35-.1,4.7-.3,7s-.52,4.66-.94,7a44,44,0,0,1-1.8,6.9,44,44,0,0,1-.55-7.1q0-3.53.31-7c.21-2.33.52-4.66.95-7A44.61,44.61,0,0,1,3099.26,1509.69Z"/><path class="cls-45" d="M3102.26,1537.19a30.13,30.13,0,0,1,.5-5.83,50.59,50.59,0,0,1,1.31-5.59,49.55,49.55,0,0,1,1.93-5.41,29.75,29.75,0,0,1,2.76-5.17,29.71,29.71,0,0,1-.49,5.83,49.55,49.55,0,0,1-1.32,5.59A50.48,50.48,0,0,1,3105,1532,30.09,30.09,0,0,1,3102.26,1537.19Z"/><path class="cls-45" d="M3110.26,1538.19a27.15,27.15,0,0,1,1.6-5.32,45.28,45.28,0,0,1,2.34-4.91,44.49,44.49,0,0,1,2.91-4.6,26.82,26.82,0,0,1,3.66-4.18,26.82,26.82,0,0,1-1.59,5.32,44.49,44.49,0,0,1-2.34,4.9,45.28,45.28,0,0,1-2.91,4.59A27.16,27.16,0,0,1,3110.26,1538.19Z"/><path class="cls-45" d="M1807.74,1476.77a25.29,25.29,0,0,1,3,4.45,42,42,0,0,1,2.18,4.76,41.25,41.25,0,0,1,1.58,5,25,25,0,0,1,.77,5.3,25,25,0,0,1-3-4.45,41.09,41.09,0,0,1-2.17-4.76,41.87,41.87,0,0,1-1.57-5A25.26,25.26,0,0,1,1807.74,1476.77Z"/><path class="cls-45" d="M1818.31,1494.69a57.63,57.63,0,0,1-1.92-7.89c-.47-2.65-.82-5.3-1.07-8s-.4-5.34-.43-8a56.85,56.85,0,0,1,.42-8.11,57,57,0,0,1,1.92,7.89q.7,4,1.07,8c.25,2.67.4,5.34.43,8A57.7,57.7,0,0,1,1818.31,1494.69Z"/><path class="cls-45" d="M1822.81,1473.19a30.26,30.26,0,0,1,1.18,5.75,50.89,50.89,0,0,1,.32,5.75,49.88,49.88,0,0,1-.32,5.75,29.89,29.89,0,0,1-1.18,5.75,29.86,29.86,0,0,1-1.18-5.75,49.88,49.88,0,0,1-.32-5.75,50.77,50.77,0,0,1,.32-5.75A30.26,30.26,0,0,1,1822.81,1473.19Z"/><path class="cls-45" d="M1833.81,1466.69a44.54,44.54,0,0,1,.55,7.1c0,2.35-.1,4.7-.3,7s-.52,4.66-.94,7a44.05,44.05,0,0,1-1.8,6.9,44,44,0,0,1-.55-7.1q0-3.53.31-7c.21-2.33.52-4.66.95-7A44.55,44.55,0,0,1,1833.81,1466.69Z"/><path class="cls-45" d="M1836.81,1494.19a30.09,30.09,0,0,1,.5-5.83,50.48,50.48,0,0,1,1.31-5.59,49.66,49.66,0,0,1,1.93-5.41,29.72,29.72,0,0,1,2.76-5.17,29.75,29.75,0,0,1-.49,5.83,49.55,49.55,0,0,1-1.32,5.59,50.48,50.48,0,0,1-1.94,5.41A30.12,30.12,0,0,1,1836.81,1494.19Z"/><path class="cls-45" d="M1844.81,1495.19a27.12,27.12,0,0,1,1.6-5.32,45.19,45.19,0,0,1,2.34-4.91,44.39,44.39,0,0,1,2.91-4.6,26.79,26.79,0,0,1,3.66-4.18,26.85,26.85,0,0,1-1.59,5.32,44.48,44.48,0,0,1-2.34,4.9,45.28,45.28,0,0,1-2.91,4.59A27.18,27.18,0,0,1,1844.81,1495.19Z"/><path class="cls-45" d="M2595.74,1399.77a25.29,25.29,0,0,1,3,4.45,42,42,0,0,1,2.18,4.76,41.26,41.26,0,0,1,1.58,5,25,25,0,0,1,.77,5.3,25,25,0,0,1-3-4.45,41.09,41.09,0,0,1-2.17-4.76,41.87,41.87,0,0,1-1.57-5A25.26,25.26,0,0,1,2595.74,1399.77Z"/><path class="cls-45" d="M2606.31,1417.69a57.63,57.63,0,0,1-1.92-7.89c-.47-2.65-.82-5.3-1.07-8s-.4-5.34-.43-8a56.85,56.85,0,0,1,.42-8.11,57,57,0,0,1,1.92,7.89q.7,4,1.07,8c.25,2.67.4,5.34.43,8A57.7,57.7,0,0,1,2606.31,1417.69Z"/><path class="cls-45" d="M2610.81,1396.19a30.26,30.26,0,0,1,1.18,5.75,50.89,50.89,0,0,1,.32,5.75,49.88,49.88,0,0,1-.32,5.75,29.89,29.89,0,0,1-1.18,5.75,29.86,29.86,0,0,1-1.18-5.75,49.88,49.88,0,0,1-.32-5.75,50.77,50.77,0,0,1,.32-5.75A30.26,30.26,0,0,1,2610.81,1396.19Z"/><path class="cls-45" d="M2621.81,1389.69a44.54,44.54,0,0,1,.55,7.1c0,2.35-.1,4.7-.3,7s-.52,4.66-.94,7a44.05,44.05,0,0,1-1.8,6.9,44,44,0,0,1-.55-7.1q0-3.53.31-7c.21-2.33.52-4.66.95-7A44.55,44.55,0,0,1,2621.81,1389.69Z"/><path class="cls-45" d="M2624.81,1417.19a30.09,30.09,0,0,1,.5-5.83,50.48,50.48,0,0,1,1.31-5.59,49.66,49.66,0,0,1,1.93-5.41,29.72,29.72,0,0,1,2.76-5.17,29.75,29.75,0,0,1-.49,5.83,49.55,49.55,0,0,1-1.32,5.59,50.48,50.48,0,0,1-1.94,5.41A30.12,30.12,0,0,1,2624.81,1417.19Z"/><path class="cls-45" d="M2632.81,1418.19a27.12,27.12,0,0,1,1.6-5.32,45.19,45.19,0,0,1,2.34-4.91,44.4,44.4,0,0,1,2.91-4.6,26.8,26.8,0,0,1,3.66-4.18,26.85,26.85,0,0,1-1.59,5.32,44.48,44.48,0,0,1-2.34,4.9,45.28,45.28,0,0,1-2.91,4.59A27.18,27.18,0,0,1,2632.81,1418.19Z"/><path class="cls-45" d="M1074.28,1521.76a25.29,25.29,0,0,1,3,4.45,42,42,0,0,1,2.18,4.76,41.26,41.26,0,0,1,1.58,5,25,25,0,0,1,.77,5.3,25,25,0,0,1-3-4.45,41.18,41.18,0,0,1-2.17-4.76,41.87,41.87,0,0,1-1.57-5A25.26,25.26,0,0,1,1074.28,1521.76Z"/><path class="cls-45" d="M1084.85,1539.69a57.7,57.7,0,0,1-1.92-7.89c-.47-2.65-.82-5.3-1.07-8s-.4-5.34-.43-8a56.85,56.85,0,0,1,.42-8.11,57,57,0,0,1,1.92,7.89q.7,4,1.07,8c.25,2.67.4,5.34.43,8A57.63,57.63,0,0,1,1084.85,1539.69Z"/><path class="cls-45" d="M1089.35,1518.19a30.25,30.25,0,0,1,1.18,5.75,50.77,50.77,0,0,1,.32,5.75,49.88,49.88,0,0,1-.32,5.75,29.9,29.9,0,0,1-1.18,5.75,29.86,29.86,0,0,1-1.18-5.75,49.88,49.88,0,0,1-.32-5.75,50.66,50.66,0,0,1,.32-5.75A30.22,30.22,0,0,1,1089.35,1518.19Z"/><path class="cls-45" d="M1100.35,1511.69a44.54,44.54,0,0,1,.55,7.1c0,2.35-.1,4.7-.3,7s-.52,4.66-.94,7a44.06,44.06,0,0,1-1.8,6.9,44,44,0,0,1-.55-7.1q0-3.53.31-7c.21-2.33.52-4.66.95-7A44.55,44.55,0,0,1,1100.35,1511.69Z"/><path class="cls-45" d="M1103.35,1539.19a30.09,30.09,0,0,1,.5-5.83,50.48,50.48,0,0,1,1.31-5.59,49.55,49.55,0,0,1,1.93-5.41,29.71,29.71,0,0,1,2.76-5.17,29.75,29.75,0,0,1-.49,5.83,49.55,49.55,0,0,1-1.32,5.59,50.48,50.48,0,0,1-1.94,5.41A30.12,30.12,0,0,1,1103.35,1539.19Z"/><path class="cls-45" d="M1111.35,1540.19a27.15,27.15,0,0,1,1.6-5.32,45.28,45.28,0,0,1,2.34-4.91,44.49,44.49,0,0,1,2.91-4.6,26.8,26.8,0,0,1,3.66-4.18,26.82,26.82,0,0,1-1.59,5.32,44.49,44.49,0,0,1-2.34,4.9A45.28,45.28,0,0,1,1115,1536,27.18,27.18,0,0,1,1111.35,1540.19Z"/><path class="cls-45" d="M1260.45,1483.7a60.46,60.46,0,0,1,4.22,7.17q1.87,3.68,3.43,7.49t2.83,7.74a59.72,59.72,0,0,1,2,8.06,59.72,59.72,0,0,1-4.22-7.17q-1.87-3.68-3.43-7.49t-2.83-7.74A60.53,60.53,0,0,1,1260.45,1483.7Z"/><path class="cls-45" d="M1278.09,1511.71a77.89,77.89,0,0,1-3-9.15c-.86-3.08-1.57-6.19-2.21-9.31s-1.16-6.27-1.56-9.44a77,77,0,0,1-.73-9.6,77,77,0,0,1,3,9.14c.86,3.08,1.57,6.19,2.2,9.31s1.16,6.27,1.55,9.44A78,78,0,0,1,1278.09,1511.71Z"/><path class="cls-45" d="M1285.61,1478.11a68.89,68.89,0,0,1,1.17,9c.24,3,.33,6,.33,9s-.09,6-.33,9a68.24,68.24,0,0,1-1.17,9,68.24,68.24,0,0,1-1.17-9c-.24-3-.33-6-.33-9s.09-6,.33-9A69.06,69.06,0,0,1,1285.61,1478.11Z"/><path class="cls-45" d="M1713.76,1420.19a57.89,57.89,0,0,1-2.09-7.87c-.53-2.64-.93-5.3-1.24-8s-.51-5.34-.6-8a57.18,57.18,0,0,1,.25-8.13,57.18,57.18,0,0,1,2.09,7.87q.79,4,1.24,8c.31,2.67.51,5.35.6,8A58,58,0,0,1,1713.76,1420.19Z"/><path class="cls-45" d="M1719.28,1398.69a30.26,30.26,0,0,1,1.18,5.75,50.66,50.66,0,0,1,.32,5.75,49.77,49.77,0,0,1-.32,5.75,29.89,29.89,0,0,1-1.18,5.75,29.9,29.9,0,0,1-1.18-5.75,49.88,49.88,0,0,1-.32-5.75,50.66,50.66,0,0,1,.32-5.75A30.26,30.26,0,0,1,1719.28,1398.69Z"/><path class="cls-45" d="M1732.79,1392.19a44.74,44.74,0,0,1,.4,7.13c0,2.36-.19,4.7-.44,7s-.61,4.66-1.09,7a44.19,44.19,0,0,1-1.94,6.87,44.19,44.19,0,0,1-.41-7.13q.06-3.54.45-7c.26-2.33.62-4.66,1.09-7A44.74,44.74,0,0,1,1732.79,1392.19Z"/><path class="cls-45" d="M1736.47,1419.69a31.23,31.23,0,0,1,.89-5.9,52.58,52.58,0,0,1,1.69-5.61,51.6,51.6,0,0,1,2.3-5.39,30.88,30.88,0,0,1,3.1-5.1,30.84,30.84,0,0,1-.89,5.9,51.6,51.6,0,0,1-1.69,5.61,52.47,52.47,0,0,1-2.3,5.39A31.23,31.23,0,0,1,1736.47,1419.69Z"/><path class="cls-45" d="M1746.29,1420.69a30.11,30.11,0,0,1,2.25-5.41,50.68,50.68,0,0,1,3-4.93,49.75,49.75,0,0,1,3.49-4.57,29.8,29.8,0,0,1,4.2-4.09,29.77,29.77,0,0,1-2.25,5.41,49.66,49.66,0,0,1-3,4.93,50.58,50.58,0,0,1-3.49,4.57A30.12,30.12,0,0,1,1746.29,1420.69Z"/><path class="cls-45" d="M1707,1420.86a20.64,20.64,0,0,1-2.64-4,33.62,33.62,0,0,1-1.84-4.31,33.13,33.13,0,0,1-1.23-4.52,20.39,20.39,0,0,1-.42-4.8,20.41,20.41,0,0,1,2.65,4,33.12,33.12,0,0,1,1.84,4.31,33.69,33.69,0,0,1,1.23,4.52A20.62,20.62,0,0,1,1707,1420.86Z"/><path class="cls-45" d="M1699.64,1420.52a23.83,23.83,0,0,1-2.84-4.35,39.34,39.34,0,0,1-2-4.64,38.68,38.68,0,0,1-1.44-4.86,23.56,23.56,0,0,1-.63-5.16,23.56,23.56,0,0,1,2.85,4.34,38.68,38.68,0,0,1,2,4.64,39.34,39.34,0,0,1,1.43,4.86A23.83,23.83,0,0,1,1699.64,1420.52Z"/><path class="cls-45" d="M1690.23,1420.52a31.61,31.61,0,0,1-3.71-4.72,53.15,53.15,0,0,1-2.95-5.1,52.23,52.23,0,0,1-2.37-5.39,31.19,31.19,0,0,1-1.61-5.78,31.23,31.23,0,0,1,3.71,4.72,52.23,52.23,0,0,1,2.95,5.11,53.16,53.16,0,0,1,2.37,5.4A31.61,31.61,0,0,1,1690.23,1420.52Z"/><path class="cls-45" d="M1684.5,1420.19a23.75,23.75,0,0,1-3.92-3.39,39.16,39.16,0,0,1-3.23-3.89,38.5,38.5,0,0,1-2.71-4.27,23.47,23.47,0,0,1-2-4.78,23.45,23.45,0,0,1,3.92,3.39,38.5,38.5,0,0,1,3.23,3.9,39.16,39.16,0,0,1,2.7,4.27A23.75,23.75,0,0,1,1684.5,1420.19Z"/><path class="cls-45" d="M1681.64,1423.52a39.83,39.83,0,0,1-6.25-2.5q-3-1.47-5.8-3.22a66.2,66.2,0,0,1-5.46-3.77,39.31,39.31,0,0,1-5-4.5,39.31,39.31,0,0,1,6.25,2.5,66.18,66.18,0,0,1,5.8,3.23q2.81,1.75,5.46,3.78A39.84,39.84,0,0,1,1681.64,1423.52Z"/><path class="cls-45" d="M2544.76,1417.19a57.89,57.89,0,0,1-2.09-7.87c-.53-2.64-.93-5.3-1.24-8s-.51-5.34-.6-8a57.18,57.18,0,0,1,.25-8.13,57.18,57.18,0,0,1,2.09,7.87q.79,4,1.24,8c.31,2.67.51,5.35.6,8A58,58,0,0,1,2544.76,1417.19Z"/><path class="cls-45" d="M2550.28,1395.69a30.26,30.26,0,0,1,1.18,5.75,50.66,50.66,0,0,1,.32,5.75,49.77,49.77,0,0,1-.32,5.75,29.89,29.89,0,0,1-1.18,5.75,29.9,29.9,0,0,1-1.18-5.75,49.88,49.88,0,0,1-.32-5.75,50.66,50.66,0,0,1,.32-5.75A30.26,30.26,0,0,1,2550.28,1395.69Z"/><path class="cls-45" d="M2563.79,1389.19a44.74,44.74,0,0,1,.4,7.13c0,2.36-.19,4.7-.44,7s-.61,4.66-1.09,7a44.19,44.19,0,0,1-1.94,6.87,44.19,44.19,0,0,1-.41-7.13q.06-3.54.45-7c.26-2.33.62-4.66,1.09-7A44.74,44.74,0,0,1,2563.79,1389.19Z"/><path class="cls-45" d="M2567.47,1416.69a31.23,31.23,0,0,1,.89-5.9,52.58,52.58,0,0,1,1.69-5.61,51.6,51.6,0,0,1,2.3-5.39,30.88,30.88,0,0,1,3.1-5.1,30.84,30.84,0,0,1-.89,5.9,51.6,51.6,0,0,1-1.69,5.61,52.47,52.47,0,0,1-2.3,5.39A31.23,31.23,0,0,1,2567.47,1416.69Z"/><path class="cls-45" d="M2577.29,1417.69a30.11,30.11,0,0,1,2.25-5.41,50.68,50.68,0,0,1,3-4.93,49.75,49.75,0,0,1,3.49-4.57,29.8,29.8,0,0,1,4.2-4.09,29.77,29.77,0,0,1-2.25,5.41,49.66,49.66,0,0,1-3,4.93,50.58,50.58,0,0,1-3.49,4.57A30.12,30.12,0,0,1,2577.29,1417.69Z"/><path class="cls-45" d="M2538,1417.86a20.64,20.64,0,0,1-2.64-4,33.62,33.62,0,0,1-1.84-4.31,33.13,33.13,0,0,1-1.23-4.52,20.39,20.39,0,0,1-.42-4.8,20.41,20.41,0,0,1,2.65,4,33.12,33.12,0,0,1,1.84,4.31,33.69,33.69,0,0,1,1.23,4.52A20.62,20.62,0,0,1,2538,1417.86Z"/><path class="cls-45" d="M2530.64,1417.52a23.83,23.83,0,0,1-2.84-4.35,39.34,39.34,0,0,1-2-4.64,38.68,38.68,0,0,1-1.44-4.86,23.56,23.56,0,0,1-.63-5.16,23.56,23.56,0,0,1,2.85,4.34,38.68,38.68,0,0,1,2,4.64,39.34,39.34,0,0,1,1.43,4.86A23.83,23.83,0,0,1,2530.64,1417.52Z"/><path class="cls-45" d="M2521.23,1417.52a31.61,31.61,0,0,1-3.71-4.72,53.15,53.15,0,0,1-2.95-5.1,52.23,52.23,0,0,1-2.37-5.39,31.19,31.19,0,0,1-1.61-5.78,31.23,31.23,0,0,1,3.71,4.72,52.23,52.23,0,0,1,2.95,5.11,53.16,53.16,0,0,1,2.37,5.4A31.61,31.61,0,0,1,2521.23,1417.52Z"/><path class="cls-45" d="M2515.5,1417.19a23.75,23.75,0,0,1-3.92-3.39,39.16,39.16,0,0,1-3.23-3.89,38.5,38.5,0,0,1-2.71-4.27,23.47,23.47,0,0,1-2-4.78,23.45,23.45,0,0,1,3.92,3.39,38.5,38.5,0,0,1,3.23,3.9,39.16,39.16,0,0,1,2.7,4.27A23.75,23.75,0,0,1,2515.5,1417.19Z"/><path class="cls-45" d="M2512.64,1420.52a39.83,39.83,0,0,1-6.25-2.5q-3-1.47-5.8-3.22a66.2,66.2,0,0,1-5.46-3.77,39.31,39.31,0,0,1-5-4.5,39.31,39.31,0,0,1,6.25,2.5,66.18,66.18,0,0,1,5.8,3.23q2.81,1.75,5.46,3.78A39.84,39.84,0,0,1,2512.64,1420.52Z"/><path class="cls-45" d="M2245.92,1496.6a26.84,26.84,0,0,1,3.36,4.37,44.67,44.67,0,0,1,2.6,4.74,44,44,0,0,1,2,5,26.5,26.5,0,0,1,1.23,5.38,26.5,26.5,0,0,1-3.37-4.37,43.9,43.9,0,0,1-2.59-4.74,44.68,44.68,0,0,1-2-5A26.79,26.79,0,0,1,2245.92,1496.6Z"/><path class="cls-45" d="M2264.42,1493a30.26,30.26,0,0,1,1.18,5.75,50.66,50.66,0,0,1,.32,5.75,49.88,49.88,0,0,1-.32,5.75,29.86,29.86,0,0,1-1.18,5.75,29.89,29.89,0,0,1-1.18-5.75,49.88,49.88,0,0,1-.32-5.75,50.78,50.78,0,0,1,.32-5.75A30.26,30.26,0,0,1,2264.42,1493Z"/><path class="cls-45" d="M2276.42,1493a30.26,30.26,0,0,1,1.18,5.75,50.66,50.66,0,0,1,.32,5.75,49.77,49.77,0,0,1-.32,5.75,29.89,29.89,0,0,1-1.18,5.75,29.89,29.89,0,0,1-1.18-5.75,49.88,49.88,0,0,1-.32-5.75,50.66,50.66,0,0,1,.32-5.75A30.26,30.26,0,0,1,2276.42,1493Z"/><path class="cls-45" d="M2289.31,1493.27a30.28,30.28,0,0,1,0,5.87,50.79,50.79,0,0,1-.88,5.69,49.77,49.77,0,0,1-1.51,5.56,29.87,29.87,0,0,1-2.35,5.38,29.87,29.87,0,0,1,0-5.87,49.88,49.88,0,0,1,.89-5.69,50.8,50.8,0,0,1,1.52-5.56A30.24,30.24,0,0,1,2289.31,1493.27Z"/><path class="cls-45" d="M2313.73,1537.18a58,58,0,0,1-2.09-7.87c-.53-2.64-.93-5.3-1.24-8s-.51-5.34-.6-8a57.11,57.11,0,0,1,.25-8.13,57.17,57.17,0,0,1,2.09,7.87q.79,4,1.24,8c.31,2.67.51,5.35.6,8A57.89,57.89,0,0,1,2313.73,1537.18Z"/><path class="cls-45" d="M2319.25,1515.68a30.25,30.25,0,0,1,1.18,5.75,50.89,50.89,0,0,1,.32,5.75,49.88,49.88,0,0,1-.32,5.75,29.9,29.9,0,0,1-1.18,5.75,29.86,29.86,0,0,1-1.18-5.75,50,50,0,0,1-.32-5.75,50.89,50.89,0,0,1,.32-5.75A30.22,30.22,0,0,1,2319.25,1515.68Z"/><path class="cls-45" d="M2332.76,1509.18a44.74,44.74,0,0,1,.4,7.13c0,2.36-.19,4.7-.45,7s-.61,4.66-1.09,7a44.14,44.14,0,0,1-1.94,6.87,44.14,44.14,0,0,1-.41-7.13q.06-3.54.45-7c.26-2.33.61-4.66,1.09-7A44.74,44.74,0,0,1,2332.76,1509.18Z"/><path class="cls-45" d="M2336.44,1536.68a31.23,31.23,0,0,1,.89-5.9,52.58,52.58,0,0,1,1.69-5.61,51.71,51.71,0,0,1,2.3-5.39,30.87,30.87,0,0,1,3.1-5.1,30.87,30.87,0,0,1-.89,5.9,51.6,51.6,0,0,1-1.69,5.61,52.58,52.58,0,0,1-2.3,5.39A31.27,31.27,0,0,1,2336.44,1536.68Z"/><path class="cls-45" d="M2346.26,1537.68a30.15,30.15,0,0,1,2.25-5.41,50.49,50.49,0,0,1,3-4.93,49.57,49.57,0,0,1,3.49-4.57,29.77,29.77,0,0,1,4.2-4.09,29.8,29.8,0,0,1-2.25,5.41,49.76,49.76,0,0,1-3,4.93,50.6,50.6,0,0,1-3.49,4.57A30.16,30.16,0,0,1,2346.26,1537.68Z"/><path class="cls-45" d="M2307,1537.85a20.65,20.65,0,0,1-2.65-4,33.69,33.69,0,0,1-1.84-4.31,33.05,33.05,0,0,1-1.23-4.52,20.39,20.39,0,0,1-.42-4.8,20.39,20.39,0,0,1,2.65,4,33.06,33.06,0,0,1,1.84,4.31,33.61,33.61,0,0,1,1.23,4.52A20.64,20.64,0,0,1,2307,1537.85Z"/><path class="cls-45" d="M2299.61,1537.52a23.83,23.83,0,0,1-2.84-4.35,39.34,39.34,0,0,1-2-4.64,38.61,38.61,0,0,1-1.44-4.86,23.53,23.53,0,0,1-.63-5.16,23.54,23.54,0,0,1,2.85,4.34,38.68,38.68,0,0,1,2,4.64,39.33,39.33,0,0,1,1.43,4.86A23.83,23.83,0,0,1,2299.61,1537.52Z"/><path class="cls-45" d="M2290.2,1537.52a31.57,31.57,0,0,1-3.71-4.72,53.14,53.14,0,0,1-2.95-5.1,52.22,52.22,0,0,1-2.37-5.39,31.23,31.23,0,0,1-1.61-5.78,31.23,31.23,0,0,1,3.71,4.72,52.32,52.32,0,0,1,2.95,5.11,53.14,53.14,0,0,1,2.37,5.4A31.61,31.61,0,0,1,2290.2,1537.52Z"/><path class="cls-45" d="M2284.47,1537.18a23.72,23.72,0,0,1-3.92-3.39,39.16,39.16,0,0,1-3.23-3.89,38.42,38.42,0,0,1-2.71-4.27,23.44,23.44,0,0,1-2-4.78,23.47,23.47,0,0,1,3.92,3.39,38.5,38.5,0,0,1,3.23,3.9,39.23,39.23,0,0,1,2.7,4.27A23.75,23.75,0,0,1,2284.47,1537.18Z"/><path class="cls-45" d="M2281.61,1540.52a39.84,39.84,0,0,1-6.25-2.5q-3-1.47-5.8-3.22a66.16,66.16,0,0,1-5.46-3.77,39.34,39.34,0,0,1-5-4.5,39.34,39.34,0,0,1,6.25,2.5,66.11,66.11,0,0,1,5.8,3.23q2.81,1.75,5.46,3.78A39.87,39.87,0,0,1,2281.61,1540.52Z"/><path class="cls-45" d="M1294,1512.49a80.67,80.67,0,0,1,.63-9.78c.36-3.23.86-6.44,1.45-9.63s1.27-6.36,2.1-9.51a79.79,79.79,0,0,1,2.92-9.36,79.8,79.8,0,0,1-.62,9.78c-.36,3.23-.86,6.44-1.45,9.63s-1.28,6.36-2.1,9.51A80.68,80.68,0,0,1,1294,1512.49Z"/><path class="cls-45" d="M1306.05,1511.71a82.36,82.36,0,0,1,.63-9.88c.36-3.27.86-6.5,1.45-9.73s1.27-6.43,2.1-9.61a81.37,81.37,0,0,1,2.92-9.46,81.37,81.37,0,0,1-.62,9.88c-.36,3.27-.86,6.5-1.45,9.73s-1.28,6.43-2.1,9.61A82.17,82.17,0,0,1,1306.05,1511.71Z"/><path class="cls-45" d="M1320.24,1513.27c-.62-4.07-.95-8.14-1.17-12.21-.14-2-.17-4.07-.25-6.1l-.08-6.1c0-4.07.11-8.14.33-12.21s.55-8.14,1.17-12.21c.62,4.07,1,8.14,1.17,12.21s.34,8.14.33,12.21l-.08,6.1c-.08,2-.11,4.07-.25,6.1C1321.19,1505.13,1320.86,1509.2,1320.24,1513.27Z"/><path class="cls-45" d="M1329,1514a73.43,73.43,0,0,1-1.27-9.26c-.27-3.09-.4-6.18-.44-9.27s0-6.19.22-9.28a72.65,72.65,0,0,1,1.07-9.29,72.65,72.65,0,0,1,1.27,9.26c.27,3.09.4,6.18.43,9.27s0,6.19-.23,9.28A73.52,73.52,0,0,1,1329,1514Z"/><path class="cls-45" d="M1335.69,1510.53a75.44,75.44,0,0,1-.43-9.47c0-3.14.16-6.28.4-9.4s.58-6.24,1.06-9.35a74.54,74.54,0,0,1,1.9-9.28,74.63,74.63,0,0,1,.44,9.47c0,3.14-.16,6.28-.4,9.4s-.58,6.24-1.06,9.35A75.44,75.44,0,0,1,1335.69,1510.53Z"/><path class="cls-45" d="M1339.44,1511.31a86.71,86.71,0,0,1,2.67-9.81c1-3.21,2.2-6.37,3.45-9.5s2.59-6.22,4.06-9.25a85.81,85.81,0,0,1,4.84-8.94,85.72,85.72,0,0,1-2.67,9.81c-1,3.21-2.2,6.37-3.45,9.5s-2.59,6.21-4.07,9.25A86.73,86.73,0,0,1,1339.44,1511.31Z"/><path class="cls-45" d="M1345.28,1509.36a77,77,0,0,1,4.13-8.64c1.5-2.8,3.13-5.51,4.83-8.19s3.49-5.29,5.39-7.83a76.15,76.15,0,0,1,6.1-7.38,76.16,76.16,0,0,1-4.13,8.64c-1.5,2.8-3.13,5.51-4.83,8.18s-3.49,5.29-5.39,7.83A77,77,0,0,1,1345.28,1509.36Z"/><path class="cls-45" d="M1349.87,1510.14a52.05,52.05,0,0,1,5.46-5.44q2.88-2.51,6-4.75t6.34-4.23a51.39,51.39,0,0,1,6.85-3.54,51.43,51.43,0,0,1-5.46,5.44q-2.88,2.51-6,4.75t-6.35,4.23A52.08,52.08,0,0,1,1349.87,1510.14Z"/><path class="cls-45" d="M1263.07,1512.1a56.64,56.64,0,0,1-4.41-6.73q-2-3.47-3.63-7.09t-3-7.36a56,56,0,0,1-2.27-7.72,55.89,55.89,0,0,1,4.41,6.73q2,3.47,3.63,7.09t3,7.36A56.65,56.65,0,0,1,1263.07,1512.1Z"/><path class="cls-45" d="M1257.23,1514a72.65,72.65,0,0,1-5.89-7.19c-1.84-2.48-3.55-5-5.19-7.64s-3.19-5.26-4.62-8a71.85,71.85,0,0,1-3.91-8.43,71.77,71.77,0,0,1,5.9,7.19c1.84,2.48,3.55,5,5.18,7.64s3.19,5.26,4.62,8A72.67,72.67,0,0,1,1257.23,1514Z"/><path class="cls-45" d="M1250.13,1514a36.74,36.74,0,0,1-5.73-3,61.87,61.87,0,0,1-5.21-3.65,60.79,60.79,0,0,1-4.81-4.16,36.27,36.27,0,0,1-4.28-4.84,36.27,36.27,0,0,1,5.73,3,60.83,60.83,0,0,1,5.2,3.65,61.79,61.79,0,0,1,4.81,4.16A36.74,36.74,0,0,1,1250.13,1514Z"/><path class="cls-45" d="M1953.78,1417a60.51,60.51,0,0,1,4.22,7.17q1.87,3.68,3.43,7.49t2.83,7.74a59.72,59.72,0,0,1,2,8.07,59.72,59.72,0,0,1-4.22-7.17q-1.87-3.68-3.43-7.49t-2.83-7.74A60.52,60.52,0,0,1,1953.78,1417Z"/><path class="cls-45" d="M1971.43,1445a78,78,0,0,1-3-9.15c-.86-3.08-1.57-6.19-2.21-9.31s-1.16-6.27-1.56-9.44a77,77,0,0,1-.73-9.6,77.13,77.13,0,0,1,3,9.14c.86,3.08,1.57,6.19,2.2,9.31s1.16,6.27,1.55,9.44A77.89,77.89,0,0,1,1971.43,1445Z"/><path class="cls-45" d="M1978.94,1411.45a69.06,69.06,0,0,1,1.17,9c.24,3,.33,6,.33,9s-.09,6-.33,9a68.24,68.24,0,0,1-1.17,9,68.24,68.24,0,0,1-1.17-9c-.24-3-.33-6-.33-9s.09-6,.33-9A69.06,69.06,0,0,1,1978.94,1411.45Z"/><path class="cls-45" d="M1987.29,1445.82a80.77,80.77,0,0,1,.63-9.78c.36-3.23.86-6.44,1.45-9.63s1.27-6.36,2.1-9.51a79.8,79.8,0,0,1,2.92-9.36,79.8,79.8,0,0,1-.62,9.78c-.36,3.23-.86,6.44-1.45,9.63s-1.28,6.36-2.1,9.51A80.67,80.67,0,0,1,1987.29,1445.82Z"/><path class="cls-45" d="M1999.39,1445a82.27,82.27,0,0,1,.63-9.88c.36-3.27.86-6.5,1.45-9.73s1.27-6.43,2.1-9.61a81.28,81.28,0,0,1,2.92-9.46,81.27,81.27,0,0,1-.62,9.88c-.36,3.27-.86,6.5-1.45,9.73s-1.28,6.43-2.1,9.61A82.26,82.26,0,0,1,1999.39,1445Z"/><path class="cls-45" d="M2013.58,1446.6c-.62-4.07-.95-8.14-1.17-12.21-.14-2-.17-4.07-.25-6.1l-.08-6.1c0-4.07.11-8.14.33-12.21s.55-8.14,1.17-12.21c.62,4.07,1,8.14,1.17,12.21s.34,8.14.33,12.21l-.08,6.1c-.08,2-.11,4.07-.25,6.1C2014.52,1438.46,2014.2,1442.53,2013.58,1446.6Z"/><path class="cls-45" d="M2022.34,1447.38a73.52,73.52,0,0,1-1.27-9.26c-.27-3.09-.4-6.18-.44-9.27s0-6.19.22-9.28a72.65,72.65,0,0,1,1.07-9.29,72.65,72.65,0,0,1,1.27,9.26c.27,3.09.4,6.18.43,9.27s0,6.19-.23,9.28A73.52,73.52,0,0,1,2022.34,1447.38Z"/><path class="cls-45" d="M2029,1443.87a75.44,75.44,0,0,1-.43-9.47c0-3.14.16-6.28.4-9.4s.58-6.24,1.06-9.35a74.63,74.63,0,0,1,1.9-9.28,74.54,74.54,0,0,1,.44,9.47c0,3.14-.16,6.28-.4,9.4s-.58,6.24-1.06,9.35A75.44,75.44,0,0,1,2029,1443.87Z"/><path class="cls-45" d="M2032.77,1444.65a86.82,86.82,0,0,1,2.67-9.81c1-3.21,2.2-6.37,3.45-9.5s2.59-6.22,4.06-9.25a85.82,85.82,0,0,1,4.84-8.94,85.82,85.82,0,0,1-2.67,9.81c-1,3.21-2.2,6.37-3.45,9.5s-2.59,6.21-4.07,9.25A86.81,86.81,0,0,1,2032.77,1444.65Z"/><path class="cls-45" d="M2038.62,1442.7a76.94,76.94,0,0,1,4.13-8.64c1.5-2.8,3.13-5.51,4.83-8.19s3.49-5.29,5.39-7.83a76.09,76.09,0,0,1,6.1-7.38,76.08,76.08,0,0,1-4.13,8.64c-1.5,2.8-3.13,5.51-4.83,8.18s-3.49,5.29-5.39,7.83A76.94,76.94,0,0,1,2038.62,1442.7Z"/><path class="cls-45" d="M2043.21,1443.48a52.1,52.1,0,0,1,5.46-5.44q2.88-2.51,6-4.75T2061,1429a51.37,51.37,0,0,1,6.85-3.54,51.33,51.33,0,0,1-5.46,5.44q-2.88,2.51-6,4.75t-6.35,4.23A52.05,52.05,0,0,1,2043.21,1443.48Z"/><path class="cls-45" d="M1956.4,1445.43a56.64,56.64,0,0,1-4.41-6.73q-2-3.47-3.63-7.09t-3-7.36a55.88,55.88,0,0,1-2.27-7.72,55.83,55.83,0,0,1,4.41,6.73q2,3.47,3.63,7.09t3,7.36A56.64,56.64,0,0,1,1956.4,1445.43Z"/><path class="cls-45" d="M1950.56,1447.38a72.66,72.66,0,0,1-5.89-7.19c-1.84-2.48-3.55-5-5.19-7.64s-3.19-5.26-4.62-8a71.85,71.85,0,0,1-3.91-8.43,71.85,71.85,0,0,1,5.9,7.19c1.84,2.48,3.55,5,5.18,7.64s3.19,5.26,4.62,8A72.74,72.74,0,0,1,1950.56,1447.38Z"/><path class="cls-45" d="M1943.47,1447.38a36.74,36.74,0,0,1-5.73-3,61.86,61.86,0,0,1-5.21-3.65,60.78,60.78,0,0,1-4.81-4.16,36.32,36.32,0,0,1-4.28-4.84,36.25,36.25,0,0,1,5.73,3,60.79,60.79,0,0,1,5.21,3.65,62,62,0,0,1,4.81,4.16A36.77,36.77,0,0,1,1943.47,1447.38Z"/><path class="cls-45" d="M2167.52,1486.6a56.65,56.65,0,0,1-4.41-6.73q-2-3.47-3.63-7.09t-3-7.36a55.88,55.88,0,0,1-2.27-7.72,55.94,55.94,0,0,1,4.41,6.73q2,3.47,3.63,7.09t3,7.36A56.64,56.64,0,0,1,2167.52,1486.6Z"/><path class="cls-45" d="M2161.68,1488.55a72.65,72.65,0,0,1-5.89-7.19c-1.84-2.48-3.55-5-5.19-7.64s-3.19-5.26-4.62-8a71.85,71.85,0,0,1-3.91-8.43,71.92,71.92,0,0,1,5.9,7.19c1.84,2.48,3.55,5,5.18,7.64s3.19,5.26,4.62,8A72.66,72.66,0,0,1,2161.68,1488.55Z"/><path class="cls-45" d="M2154.59,1488.55a36.74,36.74,0,0,1-5.73-3,61.85,61.85,0,0,1-5.21-3.65,60.78,60.78,0,0,1-4.81-4.16,36.24,36.24,0,0,1-4.28-4.84,36.28,36.28,0,0,1,5.73,3,60.79,60.79,0,0,1,5.21,3.65,61.94,61.94,0,0,1,4.81,4.16A36.77,36.77,0,0,1,2154.59,1488.55Z"/><path class="cls-45" d="M1375.75,1537.1a27.76,27.76,0,0,1-1.69-5.36,46.26,46.26,0,0,1-.84-5.44,45.54,45.54,0,0,1-.2-5.5,27.46,27.46,0,0,1,.65-5.58,27.43,27.43,0,0,1,1.7,5.36,45.54,45.54,0,0,1,.84,5.44,46.37,46.37,0,0,1,.2,5.5A27.8,27.8,0,0,1,1375.75,1537.1Z"/><path class="cls-45" d="M1385.35,1537.88a50.77,50.77,0,0,1-1.49-7.47c-.32-2.5-.53-5-.64-7.51s-.11-5,0-7.53a50.15,50.15,0,0,1,.87-7.57,50.21,50.21,0,0,1,1.49,7.47q.49,3.75.63,7.51c.1,2.51.1,5,0,7.53A50.84,50.84,0,0,1,1385.35,1537.88Z"/><path class="cls-45" d="M1391.87,1538.66a64,64,0,0,1,0-8.56c.16-2.83.45-5.64.83-8.44s.86-5.59,1.46-8.35a63.14,63.14,0,0,1,2.32-8.24,63.14,63.14,0,0,1,0,8.56q-.25,4.24-.83,8.44c-.38,2.8-.87,5.58-1.47,8.35A63.94,63.94,0,0,1,1391.87,1538.66Z"/><path class="cls-45" d="M1370.74,1537.49a20.3,20.3,0,0,1-2.58-4,33,33,0,0,1-1.77-4.29,32.44,32.44,0,0,1-1.16-4.5,20,20,0,0,1-.34-4.77,20,20,0,0,1,2.58,4,32.44,32.44,0,0,1,1.76,4.29,33,33,0,0,1,1.15,4.5A20.25,20.25,0,0,1,1370.74,1537.49Z"/><path class="cls-45" d="M1400.49,1537.1a83.37,83.37,0,0,1,.95-9.91c.46-3.27,1.07-6.51,1.76-9.74s1.48-6.43,2.41-9.6a82.46,82.46,0,0,1,3.23-9.42,82.36,82.36,0,0,1-.94,9.91c-.46,3.27-1.07,6.51-1.77,9.74s-1.48,6.43-2.41,9.6A83.28,83.28,0,0,1,1400.49,1537.1Z"/><path class="cls-45" d="M1409.57,1537.49a40.94,40.94,0,0,1-.12-6.82c.13-2.25.38-4.48.72-6.69s.79-4.41,1.36-6.59a40.43,40.43,0,0,1,2.21-6.46,40.39,40.39,0,0,1,.12,6.82q-.2,3.37-.73,6.69c-.35,2.21-.8,4.41-1.36,6.59A40.89,40.89,0,0,1,1409.57,1537.49Z"/><path class="cls-45" d="M1424.59,1537.1a66.08,66.08,0,0,1,1.16-8.61q.83-4.24,2-8.39t2.6-8.22a65.07,65.07,0,0,1,3.43-8,65.16,65.16,0,0,1-1.16,8.61q-.83,4.24-2,8.39t-2.61,8.21A65.93,65.93,0,0,1,1424.59,1537.1Z"/><path class="cls-45" d="M1440.77,1539.44a90.85,90.85,0,0,1,1.91-10.23c.78-3.37,1.7-6.69,2.71-10s2.1-6.57,3.34-9.79a89.85,89.85,0,0,1,4.15-9.55,89.93,89.93,0,0,1-1.91,10.23c-.78,3.37-1.7,6.69-2.71,10s-2.11,6.57-3.34,9.79A91,91,0,0,1,1440.77,1539.44Z"/><path class="cls-45" d="M1452.35,1537.18a95.05,95.05,0,0,1,1.8-10.49c.74-3.46,1.63-6.87,2.6-10.26s2-6.76,3.24-10.08a94.1,94.1,0,0,1,4-9.85,94.11,94.11,0,0,1-1.8,10.5c-.75,3.46-1.63,6.87-2.61,10.26s-2,6.76-3.24,10.08A95.06,95.06,0,0,1,1452.35,1537.18Z"/><path class="cls-45" d="M1463.47,1534.92a61.4,61.4,0,0,1,.84-8.33c.45-2.74,1-5.45,1.67-8.13s1.42-5.34,2.29-8a60.54,60.54,0,0,1,3.13-7.77,60.47,60.47,0,0,1-.84,8.34q-.67,4.11-1.67,8.13t-2.3,8A61.31,61.31,0,0,1,1463.47,1534.92Z"/><path class="cls-45" d="M1478,1532.66a95.37,95.37,0,0,1-1.17-10.6c-.24-3.53-.33-7.06-.33-10.6s.09-7.06.33-10.6a94.24,94.24,0,0,1,1.17-10.6,94.24,94.24,0,0,1,1.17,10.6c.24,3.53.33,7.06.33,10.6s-.09,7.06-.33,10.6A95.37,95.37,0,0,1,1478,1532.66Z"/><path class="cls-45" d="M1486.38,1536a74.19,74.19,0,0,1-1.37-9.3c-.31-3.1-.47-6.21-.54-9.32s0-6.22.12-9.33a73.49,73.49,0,0,1,1-9.35,73.4,73.4,0,0,1,1.38,9.3c.31,3.1.47,6.21.54,9.32s0,6.22-.12,9.33A74.28,74.28,0,0,1,1486.38,1536Z"/><path class="cls-45" d="M1494.2,1537.18a109,109,0,0,1-.12-11.41c0-1.9.18-3.78.27-5.67l.44-5.66c.34-3.77.81-7.53,1.37-11.27a107.81,107.81,0,0,1,2.21-11.2,107.94,107.94,0,0,1,.12,11.41c-.13,3.79-.36,7.57-.72,11.33l-.6,5.64c-.25,1.88-.46,3.76-.77,5.63A109.25,109.25,0,0,1,1494.2,1537.18Z"/><path class="cls-45" d="M1500.36,1538.31a114.54,114.54,0,0,1,.94-11.65c.21-1.93.53-3.84.8-5.77l1-5.74c.69-3.82,1.5-7.61,2.41-11.39a113.28,113.28,0,0,1,3.24-11.23,113.15,113.15,0,0,1-.94,11.65c-.48,3.85-1.06,7.69-1.76,11.5l-1.12,5.71c-.43,1.89-.81,3.79-1.29,5.68A114.53,114.53,0,0,1,1500.36,1538.31Z"/><path class="cls-45" d="M1515.66,1534.92a105.64,105.64,0,0,1-1-11.18c-.17-3.73-.19-7.45-.12-11.17s.23-7.44.54-11.16a104.39,104.39,0,0,1,1.38-11.14,104.38,104.38,0,0,1,1,11.18c.17,3.73.19,7.45.12,11.17s-.23,7.44-.54,11.16A105.51,105.51,0,0,1,1515.66,1534.92Z"/><path class="cls-45" d="M1523.53,1534.35a58.89,58.89,0,0,1-.12-8.2c.13-2.71.38-5.41.72-8.09s.79-5.36,1.36-8a58,58,0,0,1,2.21-7.9,58.16,58.16,0,0,1,.13,8.2q-.19,4.07-.73,8.09c-.35,2.68-.8,5.36-1.36,8A58.89,58.89,0,0,1,1523.53,1534.35Z"/><path class="cls-45" d="M2171.56,1490.6a65.92,65.92,0,0,1,1.16-8.61q.83-4.24,2-8.39t2.6-8.22a65.15,65.15,0,0,1,3.43-8,65.07,65.07,0,0,1-1.16,8.61q-.83,4.24-2,8.39t-2.61,8.21A66,66,0,0,1,2171.56,1490.6Z"/><path class="cls-45" d="M2187.73,1492.94a90.85,90.85,0,0,1,1.91-10.23c.78-3.37,1.7-6.69,2.71-10s2.1-6.57,3.34-9.79a89.93,89.93,0,0,1,4.15-9.55,89.83,89.83,0,0,1-1.91,10.23c-.78,3.37-1.7,6.69-2.71,10s-2.11,6.57-3.34,9.79A90.85,90.85,0,0,1,2187.73,1492.94Z"/><path class="cls-45" d="M2199.32,1490.68a95.17,95.17,0,0,1,1.8-10.49c.74-3.46,1.63-6.87,2.6-10.26s2-6.76,3.24-10.08a94,94,0,0,1,4-9.85,94,94,0,0,1-1.8,10.5c-.75,3.46-1.63,6.87-2.6,10.26s-2,6.76-3.24,10.08A95.07,95.07,0,0,1,2199.32,1490.68Z"/><path class="cls-45" d="M2210.44,1488.42a61.24,61.24,0,0,1,.84-8.33q.67-4.11,1.67-8.13t2.29-8a60.54,60.54,0,0,1,3.13-7.77,60.54,60.54,0,0,1-.84,8.34q-.67,4.11-1.67,8.13t-2.3,8A61.39,61.39,0,0,1,2210.44,1488.42Z"/><path class="cls-45" d="M2225,1486.16a95.37,95.37,0,0,1-1.17-10.6c-.24-3.53-.33-7.06-.33-10.6s.09-7.06.33-10.6a94.24,94.24,0,0,1,1.17-10.6,94.24,94.24,0,0,1,1.17,10.6c.24,3.53.33,7.06.33,10.6s-.09,7.06-.33,10.6A95.14,95.14,0,0,1,2225,1486.16Z"/><path class="cls-45" d="M2233.34,1489.55a74.37,74.37,0,0,1-1.37-9.3c-.31-3.1-.47-6.21-.54-9.32s0-6.22.12-9.33a73.4,73.4,0,0,1,1-9.35,73.49,73.49,0,0,1,1.38,9.3c.31,3.1.47,6.21.54,9.32s0,6.22-.12,9.33A74.19,74.19,0,0,1,2233.34,1489.55Z"/><path class="cls-45" d="M2241.17,1490.68a109.25,109.25,0,0,1-.12-11.41c0-1.9.18-3.78.27-5.67l.44-5.66c.34-3.77.81-7.53,1.37-11.27a107.93,107.93,0,0,1,2.21-11.2,107.81,107.81,0,0,1,.12,11.41c-.13,3.79-.36,7.57-.72,11.33l-.6,5.64c-.25,1.88-.46,3.76-.77,5.63A109.12,109.12,0,0,1,2241.17,1490.68Z"/><path class="cls-45" d="M2247.33,1491.81a114.54,114.54,0,0,1,.94-11.65c.21-1.93.53-3.85.8-5.77l1-5.74c.69-3.82,1.5-7.61,2.41-11.39a113.14,113.14,0,0,1,3.24-11.23,113.29,113.29,0,0,1-.94,11.65c-.48,3.85-1.06,7.69-1.76,11.5l-1.12,5.71c-.43,1.89-.81,3.79-1.29,5.68A114.39,114.39,0,0,1,2247.33,1491.81Z"/><path class="cls-45" d="M2262.62,1488.42a105.64,105.64,0,0,1-1-11.18c-.17-3.73-.19-7.45-.12-11.17s.23-7.44.54-11.16a104.38,104.38,0,0,1,1.38-11.14,104.51,104.51,0,0,1,1,11.18c.17,3.72.19,7.45.12,11.17s-.23,7.44-.54,11.16A105.64,105.64,0,0,1,2262.62,1488.42Z"/><path class="cls-45" d="M2270.5,1487.86a59,59,0,0,1-.12-8.2c.13-2.71.38-5.41.72-8.1s.8-5.36,1.36-8a58.16,58.16,0,0,1,2.21-7.9,58,58,0,0,1,.13,8.2q-.19,4.07-.73,8.09c-.35,2.68-.8,5.36-1.37,8A58.82,58.82,0,0,1,2270.5,1487.86Z"/><path class="cls-45" d="M2965.52,1512.6a56.65,56.65,0,0,1-4.41-6.73q-2-3.47-3.63-7.09t-3-7.36a55.88,55.88,0,0,1-2.27-7.72,55.94,55.94,0,0,1,4.41,6.73q2,3.47,3.63,7.09t3,7.36A56.64,56.64,0,0,1,2965.52,1512.6Z"/><path class="cls-45" d="M2959.68,1514.55a72.65,72.65,0,0,1-5.89-7.19c-1.84-2.48-3.55-5-5.19-7.64s-3.19-5.26-4.62-8a71.85,71.85,0,0,1-3.91-8.43,71.91,71.91,0,0,1,5.9,7.19c1.84,2.48,3.55,5,5.18,7.64s3.19,5.26,4.62,8A72.66,72.66,0,0,1,2959.68,1514.55Z"/><path class="cls-45" d="M2952.59,1514.55a36.74,36.74,0,0,1-5.73-3,61.85,61.85,0,0,1-5.21-3.65,60.78,60.78,0,0,1-4.81-4.16,36.24,36.24,0,0,1-4.28-4.84,36.27,36.27,0,0,1,5.73,3,60.79,60.79,0,0,1,5.21,3.65,61.94,61.94,0,0,1,4.81,4.16A36.77,36.77,0,0,1,2952.59,1514.55Z"/><path class="cls-45" d="M2969.56,1516.6a65.92,65.92,0,0,1,1.16-8.61q.83-4.24,2-8.39t2.6-8.22a65.15,65.15,0,0,1,3.43-8,65.07,65.07,0,0,1-1.16,8.61q-.83,4.24-2,8.39t-2.61,8.21A66,66,0,0,1,2969.56,1516.6Z"/><path class="cls-45" d="M2985.73,1518.94a90.85,90.85,0,0,1,1.91-10.23c.78-3.37,1.7-6.69,2.71-10s2.1-6.57,3.34-9.79a90,90,0,0,1,4.15-9.55,89.83,89.83,0,0,1-1.91,10.23c-.78,3.37-1.7,6.69-2.71,10s-2.11,6.57-3.34,9.79A90.85,90.85,0,0,1,2985.73,1518.94Z"/><path class="cls-45" d="M2997.32,1516.68a95.17,95.17,0,0,1,1.8-10.49c.74-3.46,1.63-6.87,2.6-10.26s2-6.76,3.24-10.08a94,94,0,0,1,4-9.85,94,94,0,0,1-1.8,10.5c-.75,3.46-1.63,6.87-2.6,10.26s-2,6.76-3.24,10.08A95.07,95.07,0,0,1,2997.32,1516.68Z"/><path class="cls-45" d="M3008.44,1514.42a61.24,61.24,0,0,1,.84-8.33q.67-4.11,1.67-8.13t2.29-8a60.55,60.55,0,0,1,3.13-7.77,60.54,60.54,0,0,1-.84,8.34q-.67,4.11-1.67,8.13t-2.3,8A61.39,61.39,0,0,1,3008.44,1514.42Z"/><path class="cls-45" d="M3023,1512.16a95.37,95.37,0,0,1-1.17-10.6c-.24-3.53-.33-7.06-.33-10.6s.09-7.06.33-10.6a94.24,94.24,0,0,1,1.17-10.6,94.24,94.24,0,0,1,1.17,10.6c.24,3.53.33,7.06.33,10.6s-.09,7.06-.33,10.6A95.14,95.14,0,0,1,3023,1512.16Z"/><path class="cls-45" d="M3031.34,1515.55a74.37,74.37,0,0,1-1.37-9.3c-.31-3.1-.47-6.21-.54-9.32s0-6.22.12-9.33a73.4,73.4,0,0,1,1-9.35,73.49,73.49,0,0,1,1.38,9.3c.31,3.1.47,6.21.54,9.32s0,6.22-.12,9.33A74.19,74.19,0,0,1,3031.34,1515.55Z"/><path class="cls-45" d="M3039.17,1516.68a109.25,109.25,0,0,1-.12-11.41c0-1.9.18-3.78.27-5.67l.44-5.66c.34-3.77.81-7.53,1.37-11.27a107.94,107.94,0,0,1,2.21-11.2,107.81,107.81,0,0,1,.12,11.41c-.13,3.79-.36,7.57-.72,11.33l-.6,5.64c-.25,1.88-.46,3.76-.77,5.63A109.12,109.12,0,0,1,3039.17,1516.68Z"/><path class="cls-45" d="M3045.33,1517.81a114.54,114.54,0,0,1,.94-11.65c.21-1.93.53-3.84.8-5.77l1-5.74c.69-3.82,1.5-7.61,2.41-11.39a113.14,113.14,0,0,1,3.24-11.23,113.29,113.29,0,0,1-.94,11.65c-.48,3.85-1.06,7.69-1.76,11.5l-1.12,5.71c-.43,1.89-.81,3.79-1.29,5.68A114.39,114.39,0,0,1,3045.33,1517.81Z"/><path class="cls-45" d="M3060.62,1514.42a105.64,105.64,0,0,1-1-11.18c-.17-3.73-.19-7.45-.12-11.17s.23-7.44.54-11.16a104.38,104.38,0,0,1,1.38-11.14,104.51,104.51,0,0,1,1,11.18c.17,3.73.19,7.45.12,11.17s-.23,7.44-.54,11.16A105.64,105.64,0,0,1,3060.62,1514.42Z"/><path class="cls-45" d="M3068.5,1513.86a59,59,0,0,1-.12-8.2c.13-2.71.38-5.41.72-8.09s.8-5.36,1.36-8a58.16,58.16,0,0,1,2.21-7.9,58,58,0,0,1,.13,8.2q-.19,4.07-.73,8.09c-.35,2.68-.8,5.36-1.37,8A58.82,58.82,0,0,1,3068.5,1513.86Z"/><path class="cls-45" d="M2368,1536.24a37.78,37.78,0,0,1,1.2-6.44,63.69,63.69,0,0,1,2-6.14,62.62,62.62,0,0,1,2.59-5.91,37.33,37.33,0,0,1,3.4-5.6,37.29,37.29,0,0,1-1.19,6.44,62.62,62.62,0,0,1-2,6.14,63.69,63.69,0,0,1-2.6,5.91A37.78,37.78,0,0,1,2368,1536.24Z"/><path class="cls-45" d="M2384.22,1537.94a54.28,54.28,0,0,1,1.94-7.63q1.21-3.72,2.73-7.3t3.32-7.05a53.62,53.62,0,0,1,4.11-6.72,53.55,53.55,0,0,1-1.94,7.63q-1.21,3.72-2.73,7.3t-3.32,7A54.33,54.33,0,0,1,2384.22,1537.94Z"/><path class="cls-45" d="M2395.81,1536.3a56.36,56.36,0,0,1,1.83-7.81q1.15-3.81,2.62-7.5t3.22-7.26a55.61,55.61,0,0,1,4-6.95,55.62,55.62,0,0,1-1.82,7.81q-1.15,3.81-2.62,7.5t-3.22,7.26A56.3,56.3,0,0,1,2395.81,1536.3Z"/><path class="cls-45" d="M2406.93,1534.66a34.55,34.55,0,0,1,.87-6.22,58.33,58.33,0,0,1,1.68-5.95,57.37,57.37,0,0,1,2.29-5.74,34.15,34.15,0,0,1,3.1-5.46,34.11,34.11,0,0,1-.87,6.22,57.38,57.38,0,0,1-1.68,5.95,58.33,58.33,0,0,1-2.29,5.74A34.51,34.51,0,0,1,2406.93,1534.66Z"/><path class="cls-45" d="M2421.48,1533a53,53,0,0,1-1.18-7.69c-.22-2.56-.32-5.13-.32-7.69s.1-5.13.32-7.69a52.23,52.23,0,0,1,1.18-7.69,52.3,52.3,0,0,1,1.18,7.69q.33,3.84.32,7.69c0,2.56-.1,5.13-.32,7.69A53,53,0,0,1,2421.48,1533Z"/><path class="cls-45" d="M2429.83,1535.48a41.5,41.5,0,0,1-1.38-6.73c-.29-2.25-.46-4.5-.53-6.76s0-4.51.11-6.78a40.94,40.94,0,0,1,1-6.8,40.89,40.89,0,0,1,1.39,6.73q.43,3.37.53,6.76c.07,2.26,0,4.51-.12,6.78A41.5,41.5,0,0,1,2429.83,1535.48Z"/><path class="cls-45" d="M2437.66,1536.3a61,61,0,0,1-.12-8.35c.13-2.76.38-5.51.72-8.24s.79-5.45,1.36-8.16a60.15,60.15,0,0,1,2.21-8.05,60.15,60.15,0,0,1,.13,8.35q-.19,4.14-.73,8.24t-1.36,8.16A60.9,60.9,0,0,1,2437.66,1536.3Z"/><path class="cls-45" d="M2443.82,1537.12a65.23,65.23,0,0,1,.95-8.59q.72-4.23,1.77-8.38t2.4-8.23a64.4,64.4,0,0,1,3.23-8,64.48,64.48,0,0,1-.94,8.59q-.72,4.23-1.78,8.38t-2.4,8.22A65.3,65.3,0,0,1,2443.82,1537.12Z"/><path class="cls-45" d="M2459.11,1534.66a58.56,58.56,0,0,1-1-8.13c-.15-2.71-.18-5.41-.12-8.11s.24-5.4.53-8.09a57.84,57.84,0,0,1,1.39-8.07,57.84,57.84,0,0,1,1,8.13q.23,4.06.11,8.11c-.07,2.7-.24,5.4-.53,8.09A58.64,58.64,0,0,1,2459.11,1534.66Z"/><path class="cls-45" d="M2467,1534.25a32.14,32.14,0,0,1-.11-6,54.09,54.09,0,0,1,.72-5.9,53,53,0,0,1,1.36-5.79,31.75,31.75,0,0,1,2.2-5.64,31.67,31.67,0,0,1,.12,6.05,53.12,53.12,0,0,1-.73,5.9,54.09,54.09,0,0,1-1.36,5.79A32.11,32.11,0,0,1,2467,1534.25Z"/><path class="cls-45" d="M1538.56,1535.48c-.83-4.07-1.36-8.15-1.79-12.23-.24-2-.38-4.09-.56-6.13l-.4-6.14c-.22-4.1-.31-8.2-.3-12.31s.13-8.22.54-12.35c.83,4.07,1.37,8.15,1.79,12.23s.75,8.18,1,12.28l.23,6.15c0,2.05.1,4.1.06,6.16C1539.09,1527.24,1539,1531.35,1538.56,1535.48Z"/><path class="cls-45" d="M1546,1534.92a65.81,65.81,0,0,1-1.58-8.7c-.38-2.91-.61-5.82-.75-8.74s-.19-5.84-.09-8.78a65.19,65.19,0,0,1,.75-8.82,65,65,0,0,1,1.59,8.7c.38,2.91.61,5.82.75,8.74s.18,5.84.08,8.78A65.89,65.89,0,0,1,1546,1534.92Z"/><path class="cls-45" d="M1555.42,1530.4a54.42,54.42,0,0,1-.55-7.87c0-2.61.1-5.21.3-7.8s.52-5.17.94-7.75a53.75,53.75,0,0,1,1.8-7.68,53.75,53.75,0,0,1,.55,7.87q0,3.91-.31,7.8c-.21,2.59-.52,5.17-.95,7.74A54.42,54.42,0,0,1,1555.42,1530.4Z"/><path class="cls-45" d="M1561.68,1531a80.8,80.8,0,0,1,.41-9.8c.29-3.24.72-6.46,1.24-9.66s1.13-6.39,1.89-9.55a79.73,79.73,0,0,1,2.72-9.42,79.82,79.82,0,0,1-.41,9.8c-.29,3.24-.72,6.46-1.24,9.66s-1.14,6.39-1.89,9.55A80.7,80.7,0,0,1,1561.68,1531Z"/><path class="cls-45" d="M1570.44,1529.27a69,69,0,0,1,.84-9c.43-3,1-5.91,1.66-8.83s1.41-5.82,2.3-8.69a68.17,68.17,0,0,1,3.12-8.5,68.16,68.16,0,0,1-.84,9c-.43,3-1,5.91-1.66,8.83s-1.41,5.82-2.31,8.69A69,69,0,0,1,1570.44,1529.27Z"/><path class="cls-45" d="M1580,1537.12a54.9,54.9,0,0,1,1.17-7.83c.55-2.56,1.22-5.09,2-7.58s1.63-5,2.6-7.39a54.2,54.2,0,0,1,3.42-7.14,54.13,54.13,0,0,1-1.17,7.83q-.83,3.84-2,7.58c-.77,2.5-1.63,5-2.61,7.39A54.9,54.9,0,0,1,1580,1537.12Z"/><path class="cls-45" d="M700.77,1530.44a90.91,90.91,0,0,1,1.91-10.23c.78-3.37,1.7-6.69,2.71-10s2.1-6.57,3.34-9.79a89.89,89.89,0,0,1,4.14-9.55,89.88,89.88,0,0,1-1.91,10.23c-.78,3.37-1.7,6.69-2.71,10s-2.11,6.57-3.34,9.79A90.9,90.9,0,0,1,700.77,1530.44Z"/><path class="cls-45" d="M712.35,1528.18a95.11,95.11,0,0,1,1.8-10.49c.74-3.46,1.63-6.87,2.6-10.26s2-6.76,3.24-10.08a94.05,94.05,0,0,1,4-9.85,94,94,0,0,1-1.8,10.5c-.75,3.46-1.63,6.87-2.6,10.26s-2,6.76-3.24,10.08A95.12,95.12,0,0,1,712.35,1528.18Z"/><path class="cls-45" d="M723.47,1525.92a61.32,61.32,0,0,1,.84-8.33c.45-2.74,1-5.45,1.67-8.13s1.42-5.34,2.29-8a60.51,60.51,0,0,1,3.13-7.77,60.54,60.54,0,0,1-.84,8.34q-.67,4.11-1.67,8.13t-2.3,8A61.35,61.35,0,0,1,723.47,1525.92Z"/><path class="cls-45" d="M738,1523.66a95.25,95.25,0,0,1-1.17-10.6c-.24-3.53-.33-7.06-.33-10.6s.09-7.06.33-10.6a94.24,94.24,0,0,1,1.17-10.6,94.3,94.3,0,0,1,1.17,10.6c.24,3.53.33,7.06.33,10.6s-.09,7.06-.33,10.6A95.37,95.37,0,0,1,738,1523.66Z"/><path class="cls-45" d="M746.38,1527a74.23,74.23,0,0,1-1.37-9.3c-.31-3.1-.47-6.21-.54-9.32s0-6.22.12-9.33a73.44,73.44,0,0,1,1-9.35,73.44,73.44,0,0,1,1.38,9.3c.31,3.1.47,6.21.54,9.32s0,6.22-.12,9.33A74.32,74.32,0,0,1,746.38,1527Z"/><path class="cls-45" d="M754.2,1528.18a109.18,109.18,0,0,1-.12-11.41c0-1.9.18-3.78.27-5.67l.44-5.66c.34-3.77.81-7.53,1.37-11.27a107.87,107.87,0,0,1,2.21-11.2,107.87,107.87,0,0,1,.12,11.41c-.13,3.79-.36,7.57-.72,11.33l-.6,5.64c-.25,1.88-.46,3.76-.77,5.63A109.12,109.12,0,0,1,754.2,1528.18Z"/><path class="cls-45" d="M760.36,1529.31a114.54,114.54,0,0,1,.94-11.65c.21-1.93.53-3.84.8-5.77l1-5.74c.69-3.82,1.5-7.61,2.41-11.39a113.22,113.22,0,0,1,3.24-11.23,113.22,113.22,0,0,1-.94,11.65c-.48,3.85-1.06,7.69-1.76,11.5l-1.12,5.71c-.43,1.89-.81,3.79-1.29,5.68A114.46,114.46,0,0,1,760.36,1529.31Z"/><path class="cls-45" d="M775.66,1525.92a105.51,105.51,0,0,1-1-11.18c-.17-3.73-.19-7.45-.12-11.17s.23-7.44.54-11.16a104.45,104.45,0,0,1,1.38-11.14,104.38,104.38,0,0,1,1,11.18c.17,3.73.19,7.45.12,11.17s-.23,7.44-.54,11.16A105.64,105.64,0,0,1,775.66,1525.92Z"/><path class="cls-45" d="M783.53,1525.35a58.85,58.85,0,0,1-.12-8.2c.13-2.71.38-5.41.72-8.09s.79-5.36,1.36-8a58.13,58.13,0,0,1,2.21-7.9,58.09,58.09,0,0,1,.13,8.2q-.19,4.07-.73,8.09c-.35,2.68-.8,5.36-1.36,8A58.89,58.89,0,0,1,783.53,1525.35Z"/><path class="cls-45" d="M798.56,1526.48c-.83-4.07-1.36-8.15-1.79-12.23-.24-2-.38-4.09-.56-6.13l-.4-6.14c-.22-4.1-.31-8.2-.3-12.31s.13-8.22.54-12.35c.83,4.07,1.37,8.15,1.79,12.23s.75,8.18,1,12.28L799,1508c0,2.05.1,4.1.06,6.16C799.09,1518.24,799,1522.35,798.56,1526.48Z"/><path class="cls-45" d="M806,1525.92a65.85,65.85,0,0,1-1.58-8.7c-.38-2.91-.61-5.82-.75-8.74s-.19-5.84-.09-8.78a65.11,65.11,0,0,1,.75-8.82,65.11,65.11,0,0,1,1.59,8.7c.38,2.91.61,5.82.75,8.74s.18,5.84.08,8.78A65.81,65.81,0,0,1,806,1525.92Z"/><path class="cls-45" d="M815.42,1521.4a54.39,54.39,0,0,1-.55-7.87c0-2.61.1-5.21.3-7.8s.52-5.17.95-7.75a53.69,53.69,0,0,1,1.8-7.68,53.68,53.68,0,0,1,.55,7.87q0,3.91-.31,7.8c-.21,2.59-.52,5.17-.95,7.74A54.42,54.42,0,0,1,815.42,1521.4Z"/><path class="cls-45" d="M821.68,1522a80.75,80.75,0,0,1,.41-9.8c.29-3.24.72-6.46,1.24-9.66s1.13-6.39,1.89-9.55a79.82,79.82,0,0,1,2.72-9.42,79.77,79.77,0,0,1-.41,9.8c-.29,3.24-.72,6.46-1.24,9.66s-1.14,6.39-1.89,9.55A80.7,80.7,0,0,1,821.68,1522Z"/><path class="cls-45" d="M830.44,1520.27a69,69,0,0,1,.84-9c.43-3,1-5.91,1.66-8.83s1.41-5.82,2.3-8.69a68.25,68.25,0,0,1,3.12-8.5,68.24,68.24,0,0,1-.84,9c-.43,3-1,5.91-1.66,8.83s-1.41,5.82-2.31,8.69A69,69,0,0,1,830.44,1520.27Z"/><path class="cls-45" d="M840,1528.12a54.9,54.9,0,0,1,1.17-7.83q.83-3.84,2-7.58t2.6-7.39a54.17,54.17,0,0,1,3.42-7.14,54.16,54.16,0,0,1-1.17,7.83q-.83,3.84-2,7.58t-2.61,7.39A54.9,54.9,0,0,1,840,1528.12Z"/><path class="cls-45" d="M1117.72,1435.18a109.25,109.25,0,0,1-.12-11.41c0-1.9.18-3.78.27-5.67l.44-5.66c.34-3.77.81-7.53,1.37-11.27a107.94,107.94,0,0,1,2.21-11.2,107.81,107.81,0,0,1,.12,11.41c-.13,3.79-.36,7.57-.72,11.33l-.6,5.64c-.25,1.88-.46,3.76-.77,5.63A109.11,109.11,0,0,1,1117.72,1435.18Z"/><path class="cls-45" d="M1123.88,1436.31a114.54,114.54,0,0,1,.94-11.65c.21-1.93.53-3.85.8-5.77l1-5.74c.69-3.82,1.5-7.61,2.41-11.39a113.15,113.15,0,0,1,3.24-11.23,113.42,113.42,0,0,1-.94,11.65c-.48,3.85-1.06,7.69-1.76,11.5l-1.12,5.71c-.43,1.89-.81,3.79-1.29,5.68A114.54,114.54,0,0,1,1123.88,1436.31Z"/><path class="cls-45" d="M1139.17,1432.92a105.51,105.51,0,0,1-1-11.18c-.17-3.73-.19-7.45-.12-11.17s.23-7.44.54-11.16a104.38,104.38,0,0,1,1.38-11.14,104.51,104.51,0,0,1,1,11.18c.17,3.73.19,7.45.12,11.17s-.23,7.44-.54,11.16A105.64,105.64,0,0,1,1139.17,1432.92Z"/><path class="cls-45" d="M1147.05,1432.36a59,59,0,0,1-.12-8.2c.13-2.71.38-5.41.72-8.1s.8-5.36,1.36-8a58.16,58.16,0,0,1,2.21-7.9,58,58,0,0,1,.13,8.2q-.19,4.07-.73,8.09c-.35,2.68-.8,5.36-1.37,8A58.82,58.82,0,0,1,1147.05,1432.36Z"/><path class="cls-45" d="M1162.08,1433.49c-.83-4.07-1.36-8.15-1.79-12.23-.24-2-.38-4.09-.56-6.13l-.4-6.14c-.22-4.1-.31-8.2-.3-12.31s.13-8.22.54-12.35c.83,4.07,1.37,8.15,1.8,12.23s.75,8.18,1,12.28l.23,6.15c0,2.05.1,4.1.06,6.16C1162.6,1425.25,1162.49,1429.36,1162.08,1433.49Z"/><path class="cls-45" d="M1169.54,1432.92a65.81,65.81,0,0,1-1.58-8.7c-.38-2.91-.61-5.82-.75-8.74s-.19-5.84-.09-8.78a65.11,65.11,0,0,1,.75-8.82,65.11,65.11,0,0,1,1.59,8.7c.38,2.91.61,5.82.75,8.74s.18,5.84.08,8.78A65.89,65.89,0,0,1,1169.54,1432.92Z"/><path class="cls-45" d="M1178.94,1428.4a54.42,54.42,0,0,1-.55-7.87c0-2.61.1-5.21.3-7.8s.52-5.17.95-7.75a53.68,53.68,0,0,1,1.8-7.68,53.69,53.69,0,0,1,.55,7.87q0,3.91-.31,7.8c-.21,2.59-.52,5.17-.95,7.74A54.42,54.42,0,0,1,1178.94,1428.4Z"/><path class="cls-45" d="M1185.2,1429a80.6,80.6,0,0,1,.41-9.8c.29-3.24.72-6.46,1.24-9.66s1.13-6.39,1.89-9.55a79.91,79.91,0,0,1,2.72-9.42,79.82,79.82,0,0,1-.41,9.8c-.29,3.24-.72,6.46-1.24,9.66s-1.14,6.39-1.89,9.55A80.7,80.7,0,0,1,1185.2,1429Z"/><path class="cls-45" d="M1194,1427.27a69,69,0,0,1,.85-9c.43-3,1-5.91,1.66-8.83s1.41-5.82,2.3-8.69a68.17,68.17,0,0,1,3.12-8.5,68.24,68.24,0,0,1-.84,9c-.43,3-1,5.91-1.66,8.83s-1.41,5.82-2.31,8.69A68.92,68.92,0,0,1,1194,1427.27Z"/><path class="cls-45" d="M1203.56,1435.13a54.9,54.9,0,0,1,1.17-7.83q.83-3.84,2-7.58t2.6-7.39a54.2,54.2,0,0,1,3.42-7.14,54.2,54.2,0,0,1-1.17,7.83q-.83,3.84-2,7.58T1207,1428A54.9,54.9,0,0,1,1203.56,1435.13Z"/><path class="cls-46" d="M4000,1927.59c-462.46-1.83-1187-3-2001.38-3-812.8,0-1536,1.17-1998.62,3"/><circle class="cls-5" cx="3280.22" cy="1180.31" r="16"/></svg>