<?xml version="1.0" encoding="UTF-8" standalone="no"?>
<svg
   xmlns:dc="http://purl.org/dc/elements/1.1/"
   xmlns:cc="http://creativecommons.org/ns#"
   xmlns:rdf="http://www.w3.org/1999/02/22-rdf-syntax-ns#"
   xmlns:svg="http://www.w3.org/2000/svg"
   xmlns="http://www.w3.org/2000/svg"
   viewBox="0 0 4916.3599 6937"
   height="6937"
   width="4916.3599"
   xml:space="preserve"
   id="svg2"
   version="1.1"><metadata
     id="metadata8"><rdf:RDF><cc:Work
         rdf:about=""><dc:format>image/svg+xml</dc:format><dc:type
           rdf:resource="http://purl.org/dc/dcmitype/StillImage" /></cc:Work></rdf:RDF></metadata><defs
     id="defs6"><clipPath
       id="clipPath20"
       clipPathUnits="userSpaceOnUse"><path
         id="path18"
         d="M 0,0 V 14669 H 10396 V 0 Z" /></clipPath><clipPath
       id="clipPath26"
       clipPathUnits="userSpaceOnUse"><path
         id="path24"
         d="M 0,14669.3 H 10396.4 V 22.5586 L 0,0 Z" /></clipPath><linearGradient
       id="linearGradient32"
       spreadMethod="pad"
       gradientTransform="matrix(7618.8503,-11972.487,11972.487,7618.8503,4313.5712,8724.7828)"
       gradientUnits="userSpaceOnUse"
       y2="0"
       x2="1"
       y1="0"
       x1="0"><stop
         id="stop28"
         offset="0"
         style="stop-opacity:1;stop-color:#f8bc41" /><stop
         id="stop30"
         offset="1"
         style="stop-opacity:1;stop-color:#f68451" /></linearGradient><clipPath
       id="clipPath128"
       clipPathUnits="userSpaceOnUse"><path
         id="path126"
         d="m 177.77,9552.56 h 10048.8 v 5032.87 H 177.77 Z" /></clipPath></defs><g
     transform="matrix(1.3333333,0,0,-1.3333333,0,6937)"
     id="g10"><g
       transform="scale(0.354669)"
       id="g12"><g
         id="g14"><g
           clip-path="url(#clipPath20)"
           id="g16"><g
             clip-path="url(#clipPath26)"
             id="g22"><path
               id="path34"
               style="fill:url(#linearGradient32);fill-opacity:1;fill-rule:nonzero;stroke:none"
               d="M 0,0 V 14669 H 10396 V 22 h -258 V 21 H 9677 V 20 H 9216 V 19 H 8755 V 18 H 8294 V 17 H 7833 V 16 H 7372 V 15 H 6912 V 14 H 6451 V 13 H 5990 V 12 H 5529 V 11 H 5068 V 10 H 4607 V 9 H 4146 V 8 H 3686 V 7 H 3225 V 6 H 2764 V 5 H 2303 V 4 H 1842 V 3 H 1381 V 2 H 920 V 1 H 460 V 0" /></g></g></g><path
         id="path36"
         style="fill:#f8a53f;fill-opacity:1;fill-rule:nonzero;stroke:none"
         d="m 3085.32,13300 c -15.25,0 -27.6,-12.4 -27.6,-27.6 v -105.8 c 0,-16.3 -13.28,-29.6 -29.6,-29.6 h -20.36 v 161.7 c 0,15.2 -12.35,27.6 -27.6,27.6 -15.26,0 -27.61,-12.4 -27.61,-27.6 v -224.8 h -30.87 c -16.33,0 -29.61,13.2 -29.61,29.6 v 47.9 c 0,15.3 -12.37,27.6 -27.63,27.6 -15.22,0 -27.6,-12.3 -27.6,-27.6 v -47.9 c 0,-46.8 38.06,-84.8 84.84,-84.8 h 30.87 v -109.2 c 0,-15.2 12.35,-27.6 27.61,-27.6 15.25,0 27.6,12.4 27.6,27.6 v 172.3 h 20.36 c 46.77,0 84.81,38 84.81,84.8 v 105.8 c 0,15.2 -12.35,27.6 -27.61,27.6" /><path
         id="path38"
         style="fill:#f8a53f;fill-opacity:1;fill-rule:nonzero;stroke:none"
         d="m 2377.53,10962.9 c -15.24,0 -27.61,-12.3 -27.61,-27.6 v -105.8 c 0,-16.3 -13.28,-29.6 -29.61,-29.6 h -20.34 v 161.7 c 0,15.2 -12.36,27.6 -27.61,27.6 -15.25,0 -27.61,-12.4 -27.61,-27.6 v -224.8 h -30.87 c -16.33,0 -29.61,13.3 -29.61,29.6 v 48 c 0,15.2 -12.36,27.6 -27.61,27.6 -15.25,0 -27.61,-12.4 -27.61,-27.6 v -48 c 0,-46.8 38.06,-84.8 84.83,-84.8 h 30.87 v -109.2 c 0,-15.2 12.36,-27.6 27.61,-27.6 15.25,0 27.61,12.4 27.61,27.6 v 172.3 h 20.34 c 46.78,0 84.83,38 84.83,84.8 v 105.8 c 0,15.3 -12.36,27.6 -27.61,27.6" /><path
         id="path40"
         style="fill:#f8a53f;fill-opacity:1;fill-rule:nonzero;stroke:none"
         d="m 8215.59,14240.8 c -10.43,0 -18.91,-8.4 -18.91,-18.9 v -72.5 c 0,-11.2 -9.08,-20.3 -20.28,-20.3 h -13.95 v 110.8 c 0,10.5 -8.46,19 -18.92,19 -10.44,0 -18.89,-8.5 -18.89,-19 v -154 h -21.18 c -11.16,0 -20.27,9.1 -20.27,20.3 v 32.9 c 0,10.4 -8.49,18.9 -18.92,18.9 -10.46,0 -18.92,-8.5 -18.92,-18.9 v -32.9 c 0,-32.1 26.08,-58.1 58.14,-58.1 h 21.15 v -74.8 c 0,-10.4 8.45,-18.9 18.91,-18.9 10.44,0 18.9,8.5 18.9,18.9 v 118 h 13.95 c 32.06,0 58.12,26.1 58.12,58.1 v 72.5 c 0,10.5 -8.47,18.9 -18.93,18.9" /><path
         id="path42"
         style="fill:#f8a53f;fill-opacity:1;fill-rule:nonzero;stroke:none"
         d="m 4053.58,10751.6 c -10.46,0 -18.92,-8.5 -18.92,-19 v -72.4 c 0,-11.2 -9.11,-20.3 -20.3,-20.3 h -13.93 v 110.8 c 0,10.4 -8.49,18.9 -18.92,18.9 -10.46,0 -18.92,-8.5 -18.92,-18.9 v -154.1 h -21.14 c -11.2,0 -20.31,9.1 -20.31,20.3 v 32.9 c 0,10.4 -8.45,18.9 -18.91,18.9 -10.44,0 -18.92,-8.5 -18.92,-18.9 v -32.9 c 0,-32 26.08,-58.1 58.14,-58.1 h 21.14 v -74.8 c 0,-10.4 8.49,-18.9 18.92,-18.9 10.43,0 18.92,8.5 18.92,18.9 v 118 h 13.93 c 32.06,0 58.14,26.1 58.14,58.2 v 72.4 c 0,10.5 -8.49,19 -18.92,19" /><path
         id="path44"
         style="fill:#f8a53f;fill-opacity:1;fill-rule:nonzero;stroke:none"
         d="m 2071.37,13077.8 h -16.12 c 1.23,1.8 2.58,3.8 4.04,5.8 2.87,4.1 6.18,8.5 9.87,13.3 7.4,9.6 16.42,20.3 26.53,31.4 10.09,11 21.31,22.4 32.9,33.3 11.61,10.9 23.57,21.4 35.22,30.8 11.63,9.5 22.89,17.8 32.88,24.7 4.99,3.4 9.65,6.4 13.85,9 4.19,2.7 7.92,4.9 11.04,6.6 6.23,3.6 10.03,5.4 10.03,5.4 0,0 -2,-3.7 -5.91,-9.7 -1.95,-3 -4.39,-6.6 -7.25,-10.7 -2.86,-4 -6.18,-8.5 -9.88,-13.3 -7.4,-9.5 -16.42,-20.3 -26.52,-31.3 -10.09,-11.1 -21.31,-22.4 -32.88,-33.3 -11.6,-11 -23.55,-21.5 -35.2,-30.9 -11.62,-9.5 -22.88,-17.8 -32.87,-24.6 -3.42,-2.4 -6.67,-4.5 -9.73,-6.5" /><path
         id="path46"
         style="fill:#f8a53f;fill-opacity:1;fill-rule:nonzero;stroke:none"
         d="m 2090.66,13153.6 c -3.48,-8.6 -6.97,-16.9 -10.45,-24.7 -3.45,-7.8 -6.85,-15.1 -10.09,-21.9 -3.26,-6.7 -6.35,-12.9 -9.19,-18.3 -2.14,-4 -4.13,-7.7 -5.91,-10.9 h -7.23 c 0.55,4.2 1.28,9.1 2.2,14.6 1,6 2.24,12.8 3.71,20.1 1.49,7.4 3.21,15.3 5.18,23.6 1.94,8.3 4.16,17 6.58,26 4.83,17.9 10.62,36.8 16.89,55.6 6.31,18.8 13.13,37.4 20.11,54.6 3.48,8.6 6.97,16.9 10.44,24.7 1.76,3.9 3.42,7.7 5.13,11.3 1.72,3.7 3.33,7.2 4.97,10.6 3.27,6.7 6.36,12.8 9.2,18.2 2.85,5.4 5.42,10.1 7.62,14 4.36,7.6 7.19,11.9 7.19,11.9 0,0 -0.32,-5.1 -1.47,-13.9 -0.57,-4.3 -1.35,-9.6 -2.34,-15.7 -1,-6 -2.24,-12.7 -3.7,-20.1 -0.73,-3.6 -1.57,-7.4 -2.4,-11.4 -0.85,-3.9 -1.82,-8 -2.77,-12.1 -1.95,-8.3 -4.17,-17 -6.59,-26 -4.84,-18 -10.63,-36.9 -16.93,-55.7 -6.34,-18.7 -13.16,-37.3 -20.15,-54.5" /><path
         id="path48"
         style="fill:#f8a53f;fill-opacity:1;fill-rule:nonzero;stroke:none"
         d="m 2072.91,13203.3 c -1.48,-17.8 -3.5,-35.6 -6,-52.2 -2.49,-16.6 -5.41,-32 -8.4,-45.2 -1.5,-6.6 -2.98,-12.7 -4.4,-18 -0.99,-3.7 -1.93,-7.1 -2.81,-10.1 h -7.56 c -0.4,3.3 -0.8,7 -1.19,11 -0.52,5.5 -0.99,11.7 -1.39,18.5 -0.78,13.5 -1.11,29.2 -0.84,46 0.26,16.8 1.2,34.6 2.67,52.5 1.5,17.8 3.52,35.5 6.04,52.1 2.49,16.6 5.41,32.1 8.4,45.3 1.49,6.6 2.97,12.6 4.39,17.9 1.41,5.4 2.74,10 3.92,13.9 2.33,7.6 4.01,12 4.01,12 0,0 0.94,-4.6 1.97,-12.5 0.53,-4 1.08,-8.8 1.59,-14.3 0.52,-5.5 0.99,-11.7 1.37,-18.5 0.78,-13.5 1.12,-29.2 0.85,-46 -0.24,-16.8 -1.17,-34.6 -2.62,-52.4" /><path
         id="path50"
         style="fill:#f8a53f;fill-opacity:1;fill-rule:nonzero;stroke:none"
         d="m 2040.04,13077.8 c -1.68,4.4 -3.59,9.6 -5.69,15.6 -2.22,6.3 -4.6,13.5 -7.08,21.4 -1.25,3.9 -2.46,8 -3.76,12.2 -1.28,4.3 -2.5,8.7 -3.81,13.2 -2.57,9.1 -5.1,18.6 -7.59,28.6 -4.99,19.8 -9.65,41.1 -13.8,62.6 -4.11,21.4 -7.71,42.9 -10.47,63.2 -1.39,10.1 -2.61,20 -3.59,29.3 -1.01,9.4 -1.82,18.2 -2.46,26.4 -0.63,8.3 -1.09,15.8 -1.4,22.5 -0.3,6.7 -0.48,12.6 -0.54,17.4 -0.16,9.7 0.1,15.3 0.1,15.3 0,0 2.32,-5.1 5.78,-14.1 1.75,-4.5 3.77,-10.1 5.99,-16.4 2.21,-6.3 4.59,-13.5 7.07,-21.4 2.46,-7.8 5.01,-16.4 7.56,-25.4 2.58,-9.1 5.11,-18.6 7.6,-28.6 5,-19.8 9.67,-41.1 13.84,-62.6 4.12,-21.4 7.73,-42.9 10.51,-63.2 1.38,-10.1 2.6,-20 3.59,-29.3 0.47,-4.7 0.98,-9.2 1.37,-13.7 0.38,-4.4 0.78,-8.6 1.09,-12.7 0.62,-8.3 1.08,-15.8 1.38,-22.5 0.31,-6.7 0.48,-12.6 0.54,-17.4 0,-0.2 0,-0.3 0,-0.4 h -6.23 v 0" /><path
         id="path52"
         style="fill:#f8a53f;fill-opacity:1;fill-rule:nonzero;stroke:none"
         d="m 1926.98,13304.9 c 2.52,-3.1 5.47,-6.8 8.77,-11.2 3.29,-4.3 6.9,-9.3 10.73,-14.8 7.66,-10.9 16.08,-23.9 24.53,-38.1 8.46,-14.2 16.9,-29.7 24.87,-45.4 7.93,-15.8 15.4,-31.7 21.85,-47 6.47,-15.2 11.97,-29.7 16.25,-42.3 2.15,-6.3 4.01,-12.2 5.57,-17.4 1.2,-4 2.23,-7.7 3.08,-10.9 h -9.02 c -1.37,1.8 -2.82,3.6 -4.35,5.7 -3.29,4.3 -6.9,9.3 -10.72,14.7 -7.66,11 -16.08,24 -24.53,38.2 -8.48,14.2 -16.92,29.7 -24.9,45.4 -7.96,15.7 -15.43,31.7 -21.89,46.9 -6.47,15.3 -11.97,29.7 -16.26,42.4 -2.13,6.3 -4,12.1 -5.55,17.4 -1.55,5.2 -2.83,9.8 -3.8,13.6 -1.97,7.7 -2.78,12.2 -2.78,12.2 0,0 3.16,-3.3 8.15,-9.4" /><path
         id="path54"
         style="fill:#f8a53f;fill-opacity:1;fill-rule:nonzero;stroke:none"
         d="m 1889.92,13257.8 c 2.93,-2.2 6.41,-5 10.32,-8.2 3.91,-3.2 8.22,-6.9 12.83,-11 9.23,-8.2 19.56,-18.2 30.12,-29.3 10.58,-11.1 21.35,-23.3 31.7,-35.9 10.34,-12.6 20.27,-25.5 29.1,-38 8.85,-12.5 16.65,-24.5 22.96,-35.2 3.15,-5.3 5.96,-10.2 8.37,-14.7 1.5,-2.8 2.84,-5.3 4.04,-7.7 h -12.5 c -0.15,0.1 -0.3,0.3 -0.45,0.4 -3.91,3.2 -8.22,6.9 -12.83,11 -9.22,8.2 -19.54,18.2 -30.12,29.3 -10.58,11.1 -21.36,23.3 -31.73,35.8 -10.35,12.6 -20.3,25.5 -29.13,38.1 -8.85,12.4 -16.65,24.5 -22.96,35.1 -3.15,5.3 -5.96,10.3 -8.36,14.7 -2.4,4.5 -4.42,8.4 -6.02,11.7 -3.22,6.6 -4.79,10.6 -4.79,10.6 0,0 3.62,-2.3 9.45,-6.7" /><path
         id="path56"
         style="fill:#f8a53f;fill-opacity:1;fill-rule:nonzero;stroke:none"
         d="m 2076.24,13092.1 c -4.22,-4.6 -8.18,-8.6 -11.78,-12.2 -0.73,-0.7 -1.43,-1.4 -2.14,-2.1 h -10.94 c 1.03,2.6 2.21,5.5 3.55,8.6 2,4.7 4.34,9.8 7,15.4 5.32,11.2 12,23.9 19.68,37.1 7.66,13.3 16.39,27 25.54,40.5 9.18,13.5 18.8,26.6 28.33,38.6 9.52,12 18.9,22.9 27.34,31.9 4.23,4.5 8.18,8.6 11.79,12.1 3.6,3.6 6.82,6.6 9.53,9.1 5.42,4.9 8.81,7.6 8.81,7.6 0,0 -1.21,-4.2 -3.82,-11 -1.29,-3.4 -2.95,-7.5 -4.94,-12.2 -1.99,-4.6 -4.34,-9.8 -6.99,-15.4 -5.32,-11.2 -12,-23.9 -19.68,-37.1 -7.67,-13.3 -16.4,-27 -25.57,-40.5 -9.2,-13.4 -18.82,-26.6 -28.36,-38.6 -9.53,-12 -18.91,-22.8 -27.35,-31.8" /><path
         id="path58"
         style="fill:#f8a53f;fill-opacity:1;fill-rule:nonzero;stroke:none"
         d="m 9279.15,13662 h -16.13 c 1.24,1.8 2.59,3.7 4.03,5.8 2.88,4 6.21,8.5 9.9,13.3 7.39,9.6 16.41,20.3 26.5,31.4 10.1,11 21.32,22.3 32.91,33.3 11.61,10.9 23.57,21.4 35.21,30.8 11.65,9.4 22.9,17.8 32.91,24.6 4.99,3.4 9.64,6.5 13.84,9.1 4.2,2.6 7.92,4.8 11.02,6.6 6.24,3.6 10.04,5.3 10.04,5.3 0,0 -2,-3.7 -5.92,-9.7 -1.94,-3 -4.37,-6.6 -7.25,-10.6 -2.84,-4 -6.17,-8.5 -9.86,-13.3 -7.42,-9.5 -16.44,-20.3 -26.53,-31.3 -10.1,-11.1 -21.29,-22.4 -32.88,-33.4 -11.59,-10.9 -23.54,-21.4 -35.19,-30.8 -11.61,-9.5 -22.89,-17.8 -32.87,-24.7 -3.42,-2.3 -6.68,-4.4 -9.73,-6.4" /><path
         id="path60"
         style="fill:#f8a53f;fill-opacity:1;fill-rule:nonzero;stroke:none"
         d="m 9298.43,13737.8 c -3.47,-8.6 -6.96,-16.9 -10.43,-24.7 -3.46,-7.8 -6.88,-15.2 -10.12,-21.9 -3.24,-6.8 -6.34,-12.9 -9.19,-18.3 -2.12,-4.1 -4.12,-7.7 -5.89,-10.9 h -7.25 c 0.56,4.1 1.3,9 2.23,14.6 0.99,6 2.22,12.8 3.69,20.1 1.49,7.3 3.21,15.2 5.19,23.5 1.91,8.4 4.14,17.1 6.57,26 4.85,18 10.63,36.9 16.89,55.7 6.31,18.7 13.14,37.3 20.1,54.6 3.49,8.6 6.99,16.9 10.46,24.7 1.75,3.9 3.41,7.7 5.11,11.3 1.74,3.6 3.35,7.2 4.98,10.5 3.28,6.8 6.35,12.9 9.19,18.3 2.85,5.4 5.42,10.1 7.62,13.9 4.37,7.7 7.19,12 7.19,12 0,0 -0.31,-5.1 -1.47,-13.9 -0.56,-4.4 -1.35,-9.7 -2.34,-15.7 -0.98,-6 -2.23,-12.8 -3.69,-20.1 -0.73,-3.7 -1.58,-7.5 -2.4,-11.4 -0.84,-3.9 -1.83,-8 -2.76,-12.1 -1.95,-8.4 -4.17,-17.1 -6.6,-26 -4.85,-18 -10.63,-36.9 -16.94,-55.7 -6.32,-18.7 -13.14,-37.3 -20.14,-54.5" /><path
         id="path62"
         style="fill:#f8a53f;fill-opacity:1;fill-rule:nonzero;stroke:none"
         d="m 9280.67,13787.4 c -1.46,-17.8 -3.49,-35.5 -5.97,-52.1 -2.52,-16.6 -5.42,-32.1 -8.41,-45.3 -1.49,-6.6 -2.99,-12.6 -4.4,-17.9 -0.98,-3.8 -1.94,-7.1 -2.82,-10.1 h -7.55 c -0.39,3.2 -0.79,6.9 -1.19,11 -0.53,5.5 -0.98,11.7 -1.38,18.5 -0.79,13.5 -1.13,29.2 -0.84,46 0.25,16.8 1.18,34.6 2.65,52.4 1.52,17.8 3.52,35.6 6.03,52.2 2.51,16.6 5.41,32 8.4,45.2 1.5,6.6 2.99,12.7 4.4,18 1.41,5.4 2.73,10 3.92,13.8 2.34,7.7 4,12 4,12 0,0 0.96,-4.5 1.98,-12.5 0.53,-3.9 1.07,-8.7 1.6,-14.2 0.51,-5.5 0.99,-11.7 1.36,-18.5 0.79,-13.5 1.12,-29.2 0.84,-46 -0.22,-16.8 -1.15,-34.6 -2.62,-52.5" /><path
         id="path64"
         style="fill:#f8a53f;fill-opacity:1;fill-rule:nonzero;stroke:none"
         d="m 9247.82,13662 c -1.69,4.4 -3.61,9.6 -5.69,15.6 -2.23,6.3 -4.6,13.5 -7.08,21.3 -1.27,4 -2.48,8.1 -3.78,12.3 -1.27,4.2 -2.48,8.7 -3.8,13.2 -2.57,9 -5.11,18.6 -7.59,28.5 -4.99,19.9 -9.64,41.2 -13.79,62.6 -4.11,21.4 -7.72,43 -10.48,63.3 -1.39,10.1 -2.6,19.9 -3.59,29.3 -1.01,9.3 -1.83,18.2 -2.45,26.4 -0.64,8.2 -1.1,15.8 -1.41,22.5 -0.31,6.7 -0.48,12.6 -0.53,17.4 -0.17,9.7 0.08,15.3 0.08,15.3 0,0 2.34,-5.1 5.81,-14.2 1.75,-4.5 3.75,-10 5.98,-16.3 2.2,-6.4 4.59,-13.5 7.07,-21.4 2.46,-7.9 5,-16.4 7.56,-25.4 2.57,-9.1 5.1,-18.7 7.58,-28.6 5,-19.9 9.68,-41.2 13.85,-62.6 4.12,-21.4 7.73,-42.9 10.51,-63.2 1.39,-10.2 2.6,-20 3.59,-29.3 0.48,-4.7 0.98,-9.3 1.38,-13.7 0.37,-4.4 0.79,-8.7 1.07,-12.8 0.62,-8.2 1.1,-15.7 1.41,-22.4 0.28,-6.7 0.45,-12.6 0.51,-17.5 0,-0.1 0.02,-0.2 0.02,-0.3 h -6.23 v 0" /><path
         id="path66"
         style="fill:#f8a53f;fill-opacity:1;fill-rule:nonzero;stroke:none"
         d="m 9134.76,13889 c 2.51,-3 5.47,-6.8 8.77,-11.1 3.3,-4.4 6.91,-9.3 10.71,-14.8 7.67,-10.9 16.1,-23.9 24.53,-38.2 8.49,-14.2 16.92,-29.6 24.87,-45.4 7.95,-15.7 15.43,-31.6 21.85,-46.9 6.49,-15.2 11.99,-29.7 16.27,-42.4 2.15,-6.3 4.01,-12.1 5.56,-17.3 1.21,-4.1 2.22,-7.7 3.1,-10.9 h -9.03 c -1.38,1.7 -2.82,3.6 -4.36,5.6 -3.28,4.4 -6.89,9.4 -10.72,14.8 -7.64,11 -16.07,24 -24.53,38.2 -8.46,14.2 -16.92,29.7 -24.9,45.4 -7.95,15.7 -15.42,31.7 -21.88,46.9 -6.48,15.2 -11.98,29.7 -16.26,42.4 -2.15,6.3 -4.01,12.1 -5.56,17.3 -1.55,5.3 -2.82,9.9 -3.78,13.7 -1.97,7.6 -2.79,12.2 -2.79,12.2 0,0 3.16,-3.4 8.15,-9.5" /><path
         id="path68"
         style="fill:#f8a53f;fill-opacity:1;fill-rule:nonzero;stroke:none"
         d="m 9097.71,13841.9 c 2.93,-2.2 6.4,-4.9 10.29,-8.1 3.92,-3.2 8.24,-6.9 12.86,-11 9.22,-8.3 19.54,-18.2 30.11,-29.3 10.58,-11.1 21.35,-23.3 31.69,-35.9 10.35,-12.6 20.28,-25.5 29.1,-38 8.86,-12.5 16.67,-24.6 22.95,-35.2 3.16,-5.3 5.98,-10.3 8.38,-14.7 1.52,-2.8 2.84,-5.4 4.06,-7.7 h -12.52 c -0.14,0.1 -0.28,0.2 -0.45,0.4 -3.89,3.2 -8.21,6.9 -12.83,11 -9.22,8.2 -19.54,18.2 -30.11,29.3 -10.58,11 -21.35,23.3 -31.75,35.8 -10.35,12.6 -20.28,25.5 -29.13,38 -8.82,12.5 -16.63,24.6 -22.95,35.2 -3.13,5.3 -5.95,10.3 -8.34,14.7 -2.4,4.5 -4.43,8.4 -6.04,11.7 -3.21,6.6 -4.79,10.6 -4.79,10.6 0,0 3.61,-2.3 9.47,-6.8" /><path
         id="path70"
         style="fill:#f8a53f;fill-opacity:1;fill-rule:nonzero;stroke:none"
         d="m 9284.03,13676.2 c -4.23,-4.5 -8.18,-8.6 -11.79,-12.1 -0.73,-0.7 -1.44,-1.4 -2.14,-2.1 h -10.94 c 1.01,2.6 2.2,5.4 3.55,8.6 2,4.6 4.34,9.8 6.99,15.4 5.33,11.1 12.01,23.8 19.68,37.1 7.67,13.2 16.39,27 25.55,40.5 9.16,13.5 18.8,26.6 28.34,38.6 9.5,12 18.89,22.8 27.32,31.9 4.23,4.5 8.2,8.6 11.78,12.1 3.61,3.6 6.83,6.6 9.56,9.1 5.41,4.9 8.8,7.5 8.8,7.5 0,0 -1.21,-4.1 -3.84,-10.9 -1.26,-3.5 -2.93,-7.6 -4.93,-12.2 -1.98,-4.7 -4.34,-9.8 -7,-15.4 -5.3,-11.2 -11.98,-23.9 -19.67,-37.1 -7.67,-13.3 -16.39,-27 -25.55,-40.5 -9.22,-13.5 -18.83,-26.6 -28.36,-38.6 -9.53,-12 -18.92,-22.8 -27.35,-31.9" /><path
         id="path72"
         style="fill:#f8a53f;fill-opacity:1;fill-rule:nonzero;stroke:none"
         d="m 1433.21,13815 h -16.12 c 1.23,1.8 2.58,3.7 4.04,5.8 2.87,4 6.18,8.5 9.88,13.3 7.4,9.6 16.42,20.3 26.52,31.4 10.1,11 21.31,22.3 32.9,33.3 11.61,10.9 23.58,21.4 35.23,30.8 11.63,9.4 22.89,17.8 32.88,24.6 4.99,3.4 9.64,6.5 13.84,9.1 4.2,2.6 7.92,4.8 11.05,6.6 6.23,3.6 10.03,5.3 10.03,5.3 0,0 -2,-3.7 -5.92,-9.7 -1.94,-3 -4.38,-6.6 -7.24,-10.6 -2.87,-4 -6.19,-8.5 -9.89,-13.3 -7.39,-9.5 -16.41,-20.3 -26.52,-31.3 -10.09,-11.1 -21.3,-22.4 -32.87,-33.4 -11.6,-10.9 -23.56,-21.4 -35.2,-30.8 -11.62,-9.5 -22.89,-17.8 -32.87,-24.7 -3.43,-2.3 -6.67,-4.4 -9.74,-6.4" /><path
         id="path74"
         style="fill:#f8a53f;fill-opacity:1;fill-rule:nonzero;stroke:none"
         d="m 1452.51,13890.8 c -3.48,-8.6 -6.97,-16.9 -10.45,-24.7 -3.45,-7.8 -6.85,-15.2 -10.1,-21.9 -3.25,-6.8 -6.34,-12.9 -9.18,-18.3 -2.14,-4.1 -4.13,-7.7 -5.91,-10.9 h -7.24 c 0.55,4.1 1.29,9 2.21,14.6 1,6 2.24,12.8 3.71,20.1 1.49,7.3 3.21,15.2 5.17,23.5 1.94,8.4 4.17,17.1 6.59,26 4.83,18 10.62,36.9 16.89,55.7 6.31,18.7 13.12,37.3 20.1,54.6 3.49,8.6 6.98,16.9 10.45,24.7 1.76,3.9 3.42,7.7 5.13,11.3 1.72,3.6 3.33,7.2 4.97,10.5 3.27,6.8 6.36,12.9 9.2,18.3 2.85,5.4 5.42,10.1 7.61,13.9 4.37,7.7 7.2,12 7.2,12 0,0 -0.32,-5.1 -1.48,-13.9 -0.56,-4.4 -1.34,-9.7 -2.33,-15.7 -1,-6 -2.24,-12.8 -3.71,-20.1 -0.72,-3.7 -1.57,-7.5 -2.39,-11.4 -0.85,-3.9 -1.82,-8 -2.77,-12.1 -1.95,-8.4 -4.17,-17.1 -6.59,-26 -4.84,-18 -10.64,-36.9 -16.93,-55.7 -6.34,-18.7 -13.16,-37.3 -20.15,-54.5" /><path
         id="path76"
         style="fill:#f8a53f;fill-opacity:1;fill-rule:nonzero;stroke:none"
         d="m 1434.75,13940.4 c -1.48,-17.8 -3.49,-35.5 -6,-52.1 -2.48,-16.6 -5.4,-32.1 -8.39,-45.3 -1.5,-6.6 -2.98,-12.6 -4.4,-17.9 -1,-3.8 -1.94,-7.1 -2.82,-10.1 h -7.55 c -0.41,3.2 -0.8,6.9 -1.2,11 -0.52,5.5 -0.98,11.7 -1.38,18.5 -0.78,13.5 -1.12,29.2 -0.84,46 0.26,16.8 1.2,34.6 2.67,52.4 1.5,17.8 3.52,35.6 6.03,52.2 2.5,16.6 5.42,32 8.4,45.2 1.5,6.6 2.98,12.7 4.39,18 1.42,5.4 2.75,10 3.93,13.8 2.32,7.7 4,12 4,12 0,0 0.94,-4.5 1.97,-12.5 0.54,-3.9 1.08,-8.7 1.6,-14.2 0.52,-5.5 0.98,-11.7 1.37,-18.5 0.78,-13.5 1.11,-29.2 0.84,-46 -0.24,-16.8 -1.17,-34.6 -2.62,-52.5" /><path
         id="path78"
         style="fill:#f8a53f;fill-opacity:1;fill-rule:nonzero;stroke:none"
         d="m 1401.89,13815 c -1.68,4.4 -3.6,9.6 -5.7,15.6 -2.21,6.3 -4.6,13.5 -7.08,21.3 -1.25,4 -2.45,8.1 -3.75,12.3 -1.29,4.2 -2.5,8.7 -3.82,13.2 -2.57,9 -5.1,18.6 -7.58,28.5 -4.99,19.9 -9.66,41.2 -13.8,62.6 -4.11,21.4 -7.71,43 -10.48,63.3 -1.38,10.1 -2.6,19.9 -3.59,29.3 -1,9.3 -1.81,18.2 -2.46,26.4 -0.62,8.2 -1.09,15.8 -1.4,22.5 -0.3,6.7 -0.48,12.6 -0.54,17.4 -0.15,9.7 0.1,15.3 0.1,15.3 0,0 2.33,-5.1 5.79,-14.2 1.75,-4.5 3.77,-10 5.99,-16.3 2.21,-6.4 4.59,-13.5 7.07,-21.4 2.46,-7.9 5.01,-16.4 7.56,-25.4 2.57,-9.1 5.1,-18.7 7.59,-28.6 5,-19.9 9.67,-41.2 13.84,-62.6 4.13,-21.4 7.74,-42.9 10.51,-63.2 1.39,-10.2 2.61,-20 3.6,-29.3 0.47,-4.7 0.97,-9.3 1.37,-13.7 0.37,-4.4 0.78,-8.7 1.09,-12.8 0.61,-8.2 1.08,-15.7 1.38,-22.4 0.3,-6.7 0.47,-12.6 0.53,-17.5 0,-0.1 0,-0.2 0.01,-0.3 h -6.23 v 0" /><path
         id="path80"
         style="fill:#f8a53f;fill-opacity:1;fill-rule:nonzero;stroke:none"
         d="m 1288.84,14042 c 2.51,-3 5.46,-6.8 8.76,-11.1 3.29,-4.4 6.9,-9.3 10.73,-14.8 7.65,-10.9 16.08,-23.9 24.53,-38.2 8.46,-14.2 16.9,-29.6 24.87,-45.4 7.93,-15.7 15.4,-31.6 21.85,-46.9 6.46,-15.2 11.97,-29.7 16.25,-42.4 2.15,-6.3 4.01,-12.1 5.57,-17.3 1.2,-4.1 2.23,-7.7 3.08,-10.9 h -9.02 c -1.37,1.7 -2.82,3.6 -4.35,5.6 -3.29,4.4 -6.9,9.3 -10.72,14.8 -7.66,10.9 -16.08,24 -24.53,38.2 -8.48,14.2 -16.92,29.7 -24.91,45.4 -7.95,15.7 -15.42,31.7 -21.88,46.9 -6.47,15.2 -11.98,29.7 -16.25,42.4 -2.14,6.3 -4.01,12.1 -5.56,17.3 -1.55,5.3 -2.83,9.9 -3.8,13.7 -1.97,7.6 -2.78,12.2 -2.78,12.2 0,0 3.16,-3.4 8.16,-9.5" /><path
         id="path82"
         style="fill:#f8a53f;fill-opacity:1;fill-rule:nonzero;stroke:none"
         d="m 1251.77,13994.9 c 2.93,-2.2 6.41,-4.9 10.32,-8.1 3.91,-3.2 8.22,-6.9 12.83,-11 9.23,-8.3 19.55,-18.2 30.12,-29.3 10.57,-11.1 21.34,-23.3 31.7,-35.9 10.34,-12.6 20.27,-25.5 29.1,-38 8.85,-12.5 16.65,-24.6 22.95,-35.2 3.16,-5.3 5.97,-10.3 8.37,-14.7 1.51,-2.8 2.85,-5.4 4.05,-7.7 h -12.5 c -0.16,0.1 -0.3,0.2 -0.46,0.4 -3.9,3.2 -8.21,6.9 -12.82,11 -9.23,8.2 -19.55,18.2 -30.12,29.3 -10.58,11 -21.36,23.3 -31.74,35.8 -10.35,12.6 -20.28,25.5 -29.12,38 -8.86,12.5 -16.66,24.6 -22.96,35.2 -3.15,5.3 -5.96,10.3 -8.36,14.7 -2.4,4.5 -4.42,8.4 -6.02,11.7 -3.22,6.6 -4.79,10.6 -4.79,10.6 0,0 3.61,-2.3 9.45,-6.8" /><path
         id="path84"
         style="fill:#f8a53f;fill-opacity:1;fill-rule:nonzero;stroke:none"
         d="m 1438.09,13829.2 c -4.22,-4.5 -8.18,-8.6 -11.78,-12.1 -0.74,-0.7 -1.44,-1.4 -2.14,-2.1 h -10.95 c 1.03,2.6 2.21,5.4 3.56,8.6 1.99,4.6 4.34,9.8 7,15.4 5.32,11.1 12,23.8 19.68,37.1 7.66,13.2 16.38,27 25.53,40.5 9.18,13.5 18.8,26.6 28.34,38.6 9.51,12 18.89,22.9 27.33,31.9 4.23,4.5 8.19,8.6 11.79,12.1 3.61,3.6 6.82,6.6 9.54,9.1 5.41,4.9 8.8,7.5 8.8,7.5 0,0 -1.2,-4.1 -3.82,-10.9 -1.29,-3.5 -2.95,-7.6 -4.93,-12.2 -1.99,-4.7 -4.34,-9.8 -7,-15.4 -5.31,-11.2 -11.99,-23.9 -19.68,-37.1 -7.66,-13.3 -16.4,-27 -25.56,-40.5 -9.2,-13.5 -18.83,-26.6 -28.37,-38.6 -9.52,-12 -18.9,-22.8 -27.34,-31.9" /><path
         id="path86"
         style="fill:#f8a53f;fill-opacity:1;fill-rule:nonzero;stroke:none"
         d="m 1106.66,11114.5 h -16.12 c 1.23,1.8 2.57,3.7 4.03,5.8 2.87,4 6.18,8.5 9.88,13.3 7.39,9.6 16.41,20.3 26.52,31.3 10.09,11.1 21.32,22.4 32.9,33.4 11.61,10.8 23.58,21.4 35.22,30.8 11.64,9.4 22.9,17.8 32.89,24.6 4.99,3.4 9.65,6.5 13.84,9.1 4.2,2.6 7.93,4.8 11.05,6.6 6.23,3.5 10.02,5.3 10.02,5.3 0,0 -1.99,-3.7 -5.91,-9.7 -1.94,-3 -4.38,-6.6 -7.24,-10.6 -2.87,-4 -6.19,-8.5 -9.88,-13.3 -7.4,-9.6 -16.42,-20.3 -26.53,-31.4 -10.08,-11 -21.3,-22.4 -32.87,-33.3 -11.6,-10.9 -23.56,-21.4 -35.2,-30.9 -11.62,-9.4 -22.89,-17.8 -32.88,-24.6 -3.42,-2.3 -6.66,-4.5 -9.72,-6.4" /><path
         id="path88"
         style="fill:#f8a53f;fill-opacity:1;fill-rule:nonzero;stroke:none"
         d="m 1125.95,11190.3 c -3.49,-8.6 -6.98,-16.9 -10.45,-24.7 -3.46,-7.9 -6.86,-15.2 -10.1,-21.9 -3.26,-6.8 -6.35,-12.9 -9.19,-18.3 -2.14,-4.1 -4.12,-7.7 -5.9,-10.9 h -7.24 c 0.55,4.1 1.29,9 2.21,14.6 1,6 2.24,12.7 3.71,20.1 1.49,7.3 3.21,15.2 5.17,23.5 1.94,8.3 4.16,17 6.58,26 4.83,18 10.62,36.9 16.9,55.7 6.31,18.7 13.12,37.3 20.1,54.6 3.49,8.6 6.98,16.8 10.45,24.7 1.76,3.8 3.42,7.7 5.12,11.3 1.73,3.6 3.34,7.2 4.98,10.5 3.26,6.8 6.35,12.9 9.2,18.3 2.85,5.4 5.41,10.1 7.61,13.9 4.36,7.7 7.19,12 7.19,12 0,0 -0.32,-5.1 -1.47,-13.9 -0.56,-4.4 -1.34,-9.7 -2.34,-15.7 -1,-6 -2.23,-12.8 -3.7,-20.1 -0.73,-3.7 -1.57,-7.5 -2.4,-11.4 -0.84,-4 -1.82,-8 -2.77,-12.2 -1.94,-8.3 -4.16,-17 -6.59,-26 -4.84,-17.9 -10.63,-36.8 -16.93,-55.6 -6.33,-18.7 -13.15,-37.3 -20.14,-54.5" /><path
         id="path90"
         style="fill:#f8a53f;fill-opacity:1;fill-rule:nonzero;stroke:none"
         d="m 1108.19,11239.9 c -1.48,-17.8 -3.49,-35.5 -6,-52.1 -2.48,-16.6 -5.4,-32.1 -8.4,-45.3 -1.5,-6.6 -2.97,-12.6 -4.4,-17.9 -0.98,-3.8 -1.93,-7.1 -2.81,-10.1 h -7.56 c -0.39,3.2 -0.8,6.9 -1.19,11 -0.52,5.5 -0.99,11.7 -1.38,18.5 -0.78,13.5 -1.12,29.2 -0.84,46 0.26,16.7 1.19,34.6 2.66,52.4 1.51,17.8 3.53,35.6 6.04,52.2 2.49,16.6 5.42,32 8.4,45.2 1.5,6.6 2.97,12.7 4.39,18 1.42,5.3 2.75,10 3.93,13.8 2.32,7.7 4,12 4,12 0,0 0.94,-4.6 1.97,-12.5 0.54,-4 1.08,-8.7 1.6,-14.2 0.52,-5.6 0.98,-11.8 1.37,-18.5 0.78,-13.5 1.11,-29.2 0.84,-46 -0.24,-16.8 -1.17,-34.6 -2.62,-52.5" /><path
         id="path92"
         style="fill:#f8a53f;fill-opacity:1;fill-rule:nonzero;stroke:none"
         d="m 1075.32,11114.5 c -1.68,4.3 -3.59,9.6 -5.69,15.6 -2.22,6.3 -4.6,13.5 -7.08,21.3 -1.25,3.9 -2.46,8.1 -3.76,12.3 -1.28,4.2 -2.5,8.6 -3.81,13.2 -2.57,9 -5.1,18.6 -7.59,28.5 -4.98,19.9 -9.65,41.2 -13.8,62.6 -4.11,21.4 -7.71,43 -10.47,63.3 -1.39,10.1 -2.6,19.9 -3.59,29.3 -1.01,9.3 -1.82,18.2 -2.46,26.4 -0.62,8.2 -1.09,15.8 -1.4,22.5 -0.3,6.7 -0.48,12.5 -0.54,17.4 -0.16,9.7 0.1,15.3 0.1,15.3 0,0 2.32,-5.1 5.79,-14.2 1.75,-4.5 3.77,-10 5.98,-16.3 2.21,-6.4 4.59,-13.6 7.07,-21.4 2.47,-7.9 5.01,-16.4 7.57,-25.5 2.57,-9 5.1,-18.6 7.59,-28.5 5,-19.9 9.67,-41.2 13.84,-62.6 4.13,-21.4 7.73,-42.9 10.51,-63.2 1.39,-10.2 2.6,-20 3.6,-29.4 0.46,-4.6 0.97,-9.2 1.37,-13.6 0.37,-4.4 0.78,-8.7 1.08,-12.8 0.62,-8.2 1.08,-15.7 1.39,-22.4 0.3,-6.8 0.47,-12.6 0.53,-17.5 0,-0.1 0,-0.2 0,-0.3 h -6.23 v 0" /><path
         id="path94"
         style="fill:#f8a53f;fill-opacity:1;fill-rule:nonzero;stroke:none"
         d="m 962.27,11341.5 c 2.511,-3 5.464,-6.8 8.765,-11.1 3.293,-4.4 6.899,-9.3 10.731,-14.8 7.656,-10.9 16.078,-23.9 24.524,-38.2 8.47,-14.2 16.91,-29.7 24.87,-45.4 7.93,-15.7 15.41,-31.7 21.86,-46.9 6.46,-15.3 11.96,-29.7 16.25,-42.4 2.14,-6.3 4.01,-12.1 5.57,-17.4 1.19,-4 2.22,-7.6 3.08,-10.8 h -9.02 c -1.37,1.7 -2.82,3.6 -4.36,5.6 -3.29,4.4 -6.89,9.3 -10.72,14.8 -7.66,10.9 -16.07,23.9 -24.53,38.2 -8.47,14.2 -16.92,29.7 -24.9,45.3 -7.956,15.8 -15.429,31.7 -21.882,47 -6.477,15.2 -11.981,29.7 -16.258,42.3 -2.137,6.4 -4.004,12.2 -5.559,17.4 -1.55,5.3 -2.824,9.8 -3.793,13.7 -1.972,7.6 -2.781,12.2 -2.781,12.2 0,0 3.16,-3.4 8.153,-9.5" /><path
         id="path96"
         style="fill:#f8a53f;fill-opacity:1;fill-rule:nonzero;stroke:none"
         d="m 925.207,11294.4 c 2.93,-2.2 6.406,-4.9 10.316,-8.1 3.911,-3.3 8.219,-6.9 12.836,-11.1 9.227,-8.2 19.551,-18.2 30.114,-29.2 10.578,-11.1 21.347,-23.4 31.707,-35.9 10.34,-12.6 20.27,-25.5 29.1,-38 8.85,-12.6 16.65,-24.6 22.95,-35.2 3.16,-5.3 5.97,-10.3 8.37,-14.7 1.51,-2.8 2.85,-5.4 4.04,-7.7 h -12.49 c -0.16,0.1 -0.3,0.2 -0.46,0.3 -3.9,3.2 -8.22,7 -12.83,11.1 -9.22,8.2 -19.54,18.2 -30.11,29.2 -10.59,11.1 -21.363,23.3 -31.742,35.9 -10.348,12.6 -20.289,25.5 -29.125,38 -8.852,12.5 -16.653,24.6 -22.957,35.2 -3.149,5.3 -5.957,10.2 -8.36,14.7 -2.398,4.5 -4.421,8.4 -6.023,11.7 -3.223,6.6 -4.789,10.5 -4.789,10.5 0,0 3.613,-2.3 9.453,-6.7" /><path
         id="path98"
         style="fill:#f8a53f;fill-opacity:1;fill-rule:nonzero;stroke:none"
         d="m 1111.52,11128.7 c -4.22,-4.5 -8.17,-8.6 -11.77,-12.1 -0.74,-0.8 -1.44,-1.5 -2.14,-2.1 h -10.95 c 1.03,2.6 2.21,5.4 3.55,8.6 2,4.6 4.34,9.8 7,15.4 5.33,11.1 12,23.8 19.68,37.1 7.66,13.2 16.39,27 25.54,40.5 9.18,13.4 18.8,26.6 28.33,38.6 9.52,12 18.9,22.8 27.34,31.9 4.23,4.5 8.19,8.5 11.79,12.1 3.6,3.5 6.82,6.6 9.54,9.1 5.41,4.9 8.8,7.5 8.8,7.5 0,0 -1.21,-4.1 -3.82,-10.9 -1.29,-3.5 -2.95,-7.6 -4.94,-12.2 -1.99,-4.7 -4.34,-9.9 -6.99,-15.4 -5.32,-11.2 -12,-23.9 -19.68,-37.1 -7.67,-13.3 -16.4,-27.1 -25.57,-40.5 -9.19,-13.5 -18.82,-26.6 -28.36,-38.6 -9.53,-12 -18.9,-22.8 -27.35,-31.9" /><path
         id="path100"
         style="fill:#f8a53f;fill-opacity:1;fill-rule:nonzero;stroke:none"
         d="m 1463.88,10159.2 h -16.12 c 1.23,1.8 2.58,3.7 4.04,5.8 2.86,4 6.18,8.5 9.88,13.3 7.39,9.6 16.41,20.3 26.52,31.3 10.09,11.1 21.31,22.4 32.9,33.3 11.61,11 23.58,21.5 35.22,30.9 11.63,9.4 22.89,17.8 32.88,24.6 5,3.4 9.65,6.5 13.85,9.1 4.2,2.6 7.92,4.8 11.04,6.6 6.23,3.5 10.03,5.3 10.03,5.3 0,0 -1.99,-3.7 -5.91,-9.7 -1.95,-3 -4.38,-6.6 -7.25,-10.6 -2.86,-4 -6.18,-8.5 -9.88,-13.3 -7.4,-9.6 -16.42,-20.3 -26.52,-31.3 -10.08,-11.1 -21.3,-22.4 -32.87,-33.4 -11.6,-10.9 -23.56,-21.4 -35.2,-30.8 -11.62,-9.5 -22.89,-17.9 -32.88,-24.7 -3.42,-2.3 -6.66,-4.4 -9.73,-6.4" /><path
         id="path102"
         style="fill:#f8a53f;fill-opacity:1;fill-rule:nonzero;stroke:none"
         d="m 1483.18,10235 c -3.49,-8.7 -6.98,-16.9 -10.46,-24.8 -3.45,-7.8 -6.85,-15.1 -10.09,-21.8 -3.26,-6.8 -6.35,-12.9 -9.19,-18.3 -2.14,-4.1 -4.12,-7.7 -5.9,-10.9 h -7.24 c 0.55,4.1 1.28,9 2.2,14.6 1,6 2.25,12.8 3.71,20.1 1.49,7.3 3.21,15.2 5.18,23.5 1.94,8.4 4.16,17.1 6.58,26 4.83,18 10.62,36.9 16.89,55.7 6.32,18.7 13.12,37.3 20.11,54.5 3.48,8.6 6.97,16.9 10.44,24.7 1.77,3.9 3.42,7.7 5.13,11.4 1.72,3.6 3.34,7.2 4.97,10.5 3.27,6.8 6.36,12.9 9.2,18.3 2.85,5.4 5.42,10.1 7.61,13.9 4.37,7.7 7.2,11.9 7.2,11.9 0,0 -0.32,-5.1 -1.48,-13.8 -0.56,-4.4 -1.34,-9.7 -2.33,-15.7 -1,-6 -2.24,-12.8 -3.7,-20.1 -0.73,-3.7 -1.58,-7.5 -2.4,-11.4 -0.85,-3.9 -1.82,-8 -2.77,-12.1 -1.95,-8.4 -4.17,-17.1 -6.59,-26 -4.84,-18 -10.64,-36.9 -16.93,-55.7 -6.34,-18.7 -13.16,-37.3 -20.14,-54.5" /><path
         id="path104"
         style="fill:#f8a53f;fill-opacity:1;fill-rule:nonzero;stroke:none"
         d="m 1465.42,10284.6 c -1.48,-17.8 -3.49,-35.5 -6,-52.1 -2.49,-16.6 -5.41,-32.1 -8.4,-45.3 -1.5,-6.6 -2.98,-12.6 -4.4,-18 -0.99,-3.7 -1.93,-7 -2.81,-10 h -7.56 c -0.4,3.2 -0.8,6.9 -1.19,11 -0.52,5.5 -0.99,11.7 -1.38,18.5 -0.79,13.5 -1.12,29.2 -0.84,46 0.25,16.8 1.19,34.6 2.66,52.4 1.5,17.8 3.52,35.6 6.04,52.2 2.49,16.6 5.41,32 8.4,45.2 1.49,6.6 2.97,12.6 4.39,18 1.42,5.3 2.74,10 3.92,13.8 2.33,7.7 4,12 4,12 0,0 0.95,-4.5 1.98,-12.5 0.53,-3.9 1.07,-8.8 1.59,-14.3 0.52,-5.5 0.98,-11.7 1.38,-18.4 0.77,-13.5 1.11,-29.2 0.84,-46 -0.24,-16.8 -1.18,-34.7 -2.62,-52.5" /><path
         id="path106"
         style="fill:#f8a53f;fill-opacity:1;fill-rule:nonzero;stroke:none"
         d="m 1432.55,10159.2 c -1.68,4.4 -3.59,9.6 -5.69,15.5 -2.22,6.4 -4.6,13.6 -7.08,21.4 -1.25,3.9 -2.46,8.1 -3.76,12.3 -1.28,4.2 -2.5,8.6 -3.81,13.1 -2.57,9.1 -5.1,18.7 -7.59,28.6 -4.99,19.9 -9.65,41.2 -13.8,62.6 -4.11,21.4 -7.71,42.9 -10.47,63.2 -1.39,10.2 -2.61,20 -3.59,29.4 -1.01,9.3 -1.82,18.2 -2.46,26.4 -0.63,8.2 -1.09,15.7 -1.4,22.5 -0.3,6.7 -0.48,12.5 -0.54,17.4 -0.16,9.7 0.1,15.3 0.1,15.3 0,0 2.32,-5.1 5.79,-14.2 1.74,-4.5 3.77,-10 5.98,-16.3 2.21,-6.4 4.59,-13.5 7.07,-21.4 2.46,-7.9 5.01,-16.4 7.56,-25.4 2.57,-9.1 5.1,-18.7 7.6,-28.6 5,-19.9 9.67,-41.2 13.83,-62.6 4.14,-21.4 7.75,-42.9 10.51,-63.2 1.4,-10.2 2.61,-20 3.6,-29.4 0.47,-4.6 0.98,-9.2 1.37,-13.6 0.37,-4.4 0.78,-8.7 1.09,-12.8 0.62,-8.2 1.09,-15.7 1.39,-22.5 0.3,-6.7 0.47,-12.5 0.53,-17.4 0,-0.1 0,-0.2 0,-0.3 h -6.23 v 0" /><path
         id="path108"
         style="fill:#f8a53f;fill-opacity:1;fill-rule:nonzero;stroke:none"
         d="m 1319.5,10386.2 c 2.51,-3 5.46,-6.8 8.76,-11.1 3.29,-4.4 6.9,-9.3 10.73,-14.8 7.66,-10.9 16.08,-23.9 24.53,-38.2 8.46,-14.2 16.9,-29.7 24.87,-45.4 7.93,-15.7 15.4,-31.7 21.85,-46.9 6.47,-15.2 11.97,-29.7 16.26,-42.4 2.14,-6.3 4,-12.1 5.56,-17.4 1.2,-4 2.23,-7.6 3.08,-10.8 h -9.01 c -1.38,1.7 -2.83,3.6 -4.36,5.6 -3.29,4.4 -6.89,9.4 -10.72,14.8 -7.66,10.9 -16.08,24 -24.53,38.2 -8.48,14.2 -16.92,29.7 -24.91,45.4 -7.95,15.7 -15.42,31.6 -21.88,46.9 -6.47,15.2 -11.98,29.7 -16.25,42.3 -2.14,6.4 -4.01,12.2 -5.56,17.4 -1.55,5.3 -2.83,9.9 -3.8,13.7 -1.97,7.6 -2.78,12.2 -2.78,12.2 0,0 3.16,-3.4 8.16,-9.5" /><path
         id="path110"
         style="fill:#f8a53f;fill-opacity:1;fill-rule:nonzero;stroke:none"
         d="m 1282.43,10339.1 c 2.93,-2.2 6.41,-4.9 10.32,-8.1 3.91,-3.2 8.22,-7 12.84,-11.1 9.22,-8.2 19.55,-18.2 30.11,-29.2 10.58,-11.1 21.35,-23.3 31.71,-35.9 10.33,-12.6 20.26,-25.5 29.09,-38 8.85,-12.5 16.65,-24.6 22.96,-35.2 3.15,-5.3 5.96,-10.3 8.36,-14.7 1.51,-2.8 2.85,-5.4 4.05,-7.7 h -12.5 c -0.15,0.1 -0.3,0.2 -0.46,0.3 -3.9,3.3 -8.21,7 -12.82,11.1 -9.23,8.2 -19.55,18.2 -30.12,29.2 -10.58,11.1 -21.36,23.4 -31.74,35.9 -10.35,12.6 -20.28,25.5 -29.12,38 -8.85,12.5 -16.65,24.5 -22.96,35.2 -3.15,5.3 -5.95,10.2 -8.36,14.7 -2.4,4.4 -4.42,8.4 -6.02,11.7 -3.22,6.6 -4.79,10.5 -4.79,10.5 0,0 3.61,-2.2 9.45,-6.7" /><path
         id="path112"
         style="fill:#f8a53f;fill-opacity:1;fill-rule:nonzero;stroke:none"
         d="m 1468.75,10173.4 c -4.22,-4.5 -8.18,-8.6 -11.77,-12.1 -0.74,-0.8 -1.44,-1.4 -2.15,-2.1 h -10.94 c 1.03,2.6 2.21,5.4 3.55,8.6 1.99,4.6 4.34,9.8 7.01,15.4 5.32,11.1 11.99,23.8 19.67,37.1 7.66,13.2 16.39,27 25.54,40.5 9.18,13.4 18.8,26.6 28.33,38.6 9.52,12 18.9,22.8 27.34,31.9 4.23,4.5 8.19,8.6 11.79,12.1 3.6,3.6 6.82,6.6 9.53,9.1 5.42,4.9 8.8,7.5 8.8,7.5 0,0 -1.2,-4.1 -3.81,-11 -1.3,-3.4 -2.95,-7.5 -4.94,-12.1 -1.99,-4.7 -4.34,-9.8 -6.99,-15.4 -5.32,-11.2 -12,-23.9 -19.68,-37.1 -7.67,-13.3 -16.4,-27.1 -25.57,-40.5 -9.2,-13.5 -18.82,-26.6 -28.37,-38.6 -9.52,-12 -18.89,-22.9 -27.34,-31.9" /><path
         id="path114"
         style="fill:#f8a53f;fill-opacity:1;fill-rule:nonzero;stroke:none"
         d="m 8793.77,13104.3 c -9.28,0 -16.78,7.5 -16.78,16.8 v 249.2 c 0,9.3 7.5,16.8 16.78,16.8 9.25,0 16.75,-7.5 16.75,-16.8 v -249.2 c 0,-9.3 -7.5,-16.8 -16.75,-16.8" /><path
         id="path116"
         style="fill:#f8a53f;fill-opacity:1;fill-rule:nonzero;stroke:none"
         d="m 8821.23,13203.4 h -58.14 c -27.57,0 -50.02,22.4 -50.02,50 v 43.4 c 0,9.3 7.53,16.8 16.78,16.8 9.28,0 16.78,-7.5 16.78,-16.8 v -43.4 c 0,-9.1 7.38,-16.5 16.46,-16.5 h 58.14 c 9.08,0 16.47,7.4 16.47,16.5 v 69 c 0,9.2 7.5,16.7 16.77,16.7 9.25,0 16.75,-7.5 16.75,-16.7 v -69 c 0,-27.6 -22.42,-50 -49.99,-50" /><path
         id="path118"
         style="fill:#f8a53f;fill-opacity:1;fill-rule:nonzero;stroke:none"
         d="m 822.547,12627.9 c -11.172,0 -20.231,9 -20.231,20.2 v 300.6 c 0,11.1 9.059,20.2 20.231,20.2 11.172,0 20.23,-9.1 20.23,-20.2 v -300.6 c 0,-11.2 -9.058,-20.2 -20.23,-20.2" /><path
         id="path120"
         style="fill:#f8a53f;fill-opacity:1;fill-rule:nonzero;stroke:none"
         d="m 855.691,12747.3 h -70.144 c -33.254,0 -60.305,27.1 -60.305,60.3 v 52.4 c 0,11.2 9.059,20.3 20.231,20.3 11.172,0 20.23,-9.1 20.23,-20.3 v -52.4 c 0,-10.9 8.899,-19.8 19.84,-19.8 h 70.148 c 10.938,0 19.832,8.9 19.832,19.8 v 83.3 c 0,11.1 9.063,20.2 20.231,20.2 11.172,0 20.23,-9.1 20.23,-20.2 v -83.3 c 0.004,-33.2 -27.043,-60.3 -60.293,-60.3" /><g
         id="g122"><g
           clip-path="url(#clipPath128)"
           id="g124"><path
             id="path130"
             style="fill:none;stroke:#f8a53f;stroke-width:14.09759998;stroke-linecap:butt;stroke-linejoin:miter;stroke-miterlimit:10;stroke-dasharray:none;stroke-opacity:1"
             d="M 2698.02,13661.3 H 3982.27" /><path
             id="path132"
             style="fill:none;stroke:#f8a53f;stroke-width:14.09759998;stroke-linecap:butt;stroke-linejoin:miter;stroke-miterlimit:10;stroke-dasharray:none;stroke-opacity:1"
             d="m 5938.49,13976.4 h 726" /><path
             id="path134"
             style="fill:none;stroke:#f8a53f;stroke-width:14.09759998;stroke-linecap:butt;stroke-linejoin:miter;stroke-miterlimit:10;stroke-dasharray:none;stroke-opacity:1"
             d="M 6161.2,13927.5 H 7282.47" /><path
             id="path136"
             style="fill:none;stroke:#f8a53f;stroke-width:14.09759998;stroke-linecap:butt;stroke-linejoin:miter;stroke-miterlimit:10;stroke-dasharray:none;stroke-opacity:1"
             d="M 5574.49,13846 H 6695.76" /><path
             id="path138"
             style="fill:none;stroke:#f8a53f;stroke-width:14.09759998;stroke-linecap:butt;stroke-linejoin:miter;stroke-miterlimit:10;stroke-dasharray:none;stroke-opacity:1"
             d="m 1858.63,12702.4 h 898.53" /><path
             id="path140"
             style="fill:none;stroke:#f8a53f;stroke-width:14.09759998;stroke-linecap:butt;stroke-linejoin:miter;stroke-miterlimit:10;stroke-dasharray:none;stroke-opacity:1"
             d="m 2209.02,14028 h 898.52" /><path
             id="path142"
             style="fill:none;stroke:#f8a53f;stroke-width:14.09759998;stroke-linecap:butt;stroke-linejoin:miter;stroke-miterlimit:10;stroke-dasharray:none;stroke-opacity:1"
             d="M 1931.43,14188.2 H 2626.8" /><path
             id="path144"
             style="fill:none;stroke:#f8a53f;stroke-width:14.09759998;stroke-linecap:butt;stroke-linejoin:miter;stroke-miterlimit:10;stroke-dasharray:none;stroke-opacity:1"
             d="m 3439.51,10939.6 h 898.53" /><path
             id="path146"
             style="fill:none;stroke:#f8a53f;stroke-width:14.09759998;stroke-linecap:butt;stroke-linejoin:miter;stroke-miterlimit:10;stroke-dasharray:none;stroke-opacity:1"
             d="m 3461.25,9836.8 h 898.53" /><path
             id="path148"
             style="fill:none;stroke:#f8a53f;stroke-width:14.09759998;stroke-linecap:butt;stroke-linejoin:miter;stroke-miterlimit:10;stroke-dasharray:none;stroke-opacity:1"
             d="M 2027.05,11216.6 H 2610.5" /><path
             id="path150"
             style="fill:none;stroke:#f8a53f;stroke-width:14.09759998;stroke-linecap:butt;stroke-linejoin:miter;stroke-miterlimit:10;stroke-dasharray:none;stroke-opacity:1"
             d="m 1864.08,11113.4 h 887.67" /><path
             id="path152"
             style="fill:none;stroke:#f8a53f;stroke-width:14.09759998;stroke-linecap:butt;stroke-linejoin:miter;stroke-miterlimit:10;stroke-dasharray:none;stroke-opacity:1"
             d="M 4460.83,10184.5 H 5131.2" /><path
             id="path154"
             style="fill:none;stroke:#f8a53f;stroke-width:14.09759998;stroke-linecap:butt;stroke-linejoin:miter;stroke-miterlimit:10;stroke-dasharray:none;stroke-opacity:1"
             d="m 2195.46,10695.1 h 670.36" /><path
             id="path156"
             style="fill:none;stroke:#f8a53f;stroke-width:14.09759998;stroke-linecap:butt;stroke-linejoin:miter;stroke-miterlimit:10;stroke-dasharray:none;stroke-opacity:1"
             d="M 372.699,13427.9 H 1260.37" /><path
             id="path158"
             style="fill:none;stroke:#f8a53f;stroke-width:14.09759998;stroke-linecap:butt;stroke-linejoin:miter;stroke-miterlimit:10;stroke-dasharray:none;stroke-opacity:1"
             d="M 704.082,13009.6 H 1374.45" /><path
             id="path160"
             style="fill:none;stroke:#f8a53f;stroke-width:14.09759998;stroke-linecap:butt;stroke-linejoin:miter;stroke-miterlimit:10;stroke-dasharray:none;stroke-opacity:1"
             d="M 3.21875,10051.3 H 673.582" /><path
             id="path162"
             style="fill:none;stroke:#f8a53f;stroke-width:14.09759998;stroke-linecap:butt;stroke-linejoin:miter;stroke-miterlimit:10;stroke-dasharray:none;stroke-opacity:1"
             d="M 467.742,10222.4 H 1138.11" /><path
             id="path164"
             style="fill:none;stroke:#f8a53f;stroke-width:14.09759998;stroke-linecap:butt;stroke-linejoin:miter;stroke-miterlimit:10;stroke-dasharray:none;stroke-opacity:1"
             d="m 7747.5,13520 h 670.37" /><path
             id="path166"
             style="fill:none;stroke:#f8a53f;stroke-width:14.09759998;stroke-linecap:butt;stroke-linejoin:miter;stroke-miterlimit:10;stroke-dasharray:none;stroke-opacity:1"
             d="M 603.582,11471.8 H 1502.12" /><path
             id="path168"
             style="fill:none;stroke:#f8a53f;stroke-width:14.09759998;stroke-linecap:butt;stroke-linejoin:miter;stroke-miterlimit:10;stroke-dasharray:none;stroke-opacity:1"
             d="M 717.664,11526.1 H 2001.91" /><path
             id="path170"
             style="fill:none;stroke:#f8a53f;stroke-width:14.09759998;stroke-linecap:butt;stroke-linejoin:miter;stroke-miterlimit:10;stroke-dasharray:none;stroke-opacity:1"
             d="m 8391.79,13057.5 h 898.55" /><path
             id="path172"
             style="fill:none;stroke:#f8a53f;stroke-width:14.09759998;stroke-linecap:butt;stroke-linejoin:miter;stroke-miterlimit:10;stroke-dasharray:none;stroke-opacity:1"
             d="M 8505.89,13111.8 H 9790.13" /><path
             id="path174"
             style="fill:none;stroke:#f8a53f;stroke-width:14.09759998;stroke-linecap:butt;stroke-linejoin:miter;stroke-miterlimit:10;stroke-dasharray:none;stroke-opacity:1"
             d="M 603.582,13941.1 H 1502.12" /><path
             id="path176"
             style="fill:none;stroke:#f8a53f;stroke-width:14.09759998;stroke-linecap:butt;stroke-linejoin:miter;stroke-miterlimit:10;stroke-dasharray:none;stroke-opacity:1"
             d="M 717.664,13995.5 H 2001.91" /><path
             id="path178"
             style="fill:none;stroke:#f8a53f;stroke-width:14.09759998;stroke-linecap:butt;stroke-linejoin:miter;stroke-miterlimit:10;stroke-dasharray:none;stroke-opacity:1"
             d="M 0,12653.1 H 306.844" /><path
             id="path180"
             style="fill:none;stroke:#f8a53f;stroke-width:14.09759998;stroke-linecap:butt;stroke-linejoin:miter;stroke-miterlimit:10;stroke-dasharray:none;stroke-opacity:1"
             d="M 0,12707.4 H 806.637" /></g></g></g></g></svg>