<?xml version="1.0" encoding="iso-8859-1"?>
<!-- Generator: Adobe Illustrator 17.0.0, SVG Export Plug-In . SVG Version: 6.00 Build 0)  -->
<!DOCTYPE svg PUBLIC "-//W3C//DTD SVG 1.1//EN" "http://www.w3.org/Graphics/SVG/1.1/DTD/svg11.dtd">
<svg version="1.1" id="Layer_3" xmlns="http://www.w3.org/2000/svg" xmlns:xlink="http://www.w3.org/1999/xlink" x="0px" y="0px"
	 width="2128.381px" height="1724px" viewBox="0 0 2128.381 1724" style="enable-background:new 0 0 2128.381 1724;"
	 xml:space="preserve">
<g>
	<defs>
		<rect id="SVGID_1_" x="-816.876" y="-12.476" width="3564" height="1785"/>
	</defs>
	<clipPath id="SVGID_2_">
		<use xlink:href="#SVGID_1_"  style="overflow:visible;"/>
	</clipPath>
	<g style="clip-path:url(#SVGID_2_);">
		<rect x="-817.505" y="-223.33" style="fill:#FBE3CB;" width="3567" height="1425.949"/>
		<path style="fill:#D58294;" d="M2698.156,587.909c-54.861,0-99.335,44.474-99.335,99.335c0,8.101,0.977,15.973,2.807,23.512
			c-30.214,10.541-53.247,36.394-59.791,68.266c-16.306-9.238-35.149-14.517-55.228-14.517c-27.54,0-52.757,9.927-72.283,26.39
			c-5.2-49.972-47.447-88.934-98.795-88.934c-32.648,0-61.616,15.752-79.723,40.068c-4.642-37.203-36.356-65.997-74.817-65.997
			c-41.656,0-75.425,33.769-75.425,75.425c0,9.186,1.647,17.987,4.654,26.129c-10.701-12.492-26.58-20.419-44.318-20.419
			c-29.047,0-53.128,21.229-57.595,49.017c-0.291,0.045-0.579,0.097-0.869,0.144c-5.422-12.493-17.862-21.234-32.348-21.234
			c-11.322,0-21.39,5.343-27.84,13.639c-12.919-18.721-34.509-30.998-58.975-30.998c-39.552,0-71.616,32.064-71.616,71.616
			c0,9.023,1.685,17.648,4.73,25.6c-9.321-5.913-20.367-9.351-32.223-9.351c-14.684,0-28.137,5.258-38.59,13.987
			c0.188-1.939,0.29-3.903,0.29-5.891c0-33.276-26.976-60.252-60.252-60.252c-16.574,0-31.582,6.695-42.475,17.524
			c0.257-2.148,0.405-4.33,0.405-6.548c0-30.081-24.385-54.467-54.466-54.467c-16.697,0-31.63,7.52-41.621,19.35
			c-5.373-6.745-13.651-11.074-22.945-11.074c-5.697,0-11.012,1.63-15.512,4.441c1.346-3.846,2.088-7.977,2.088-12.283
			c0-20.527-16.641-37.168-37.169-37.168c-4.818,0-9.418,0.927-13.643,2.596c-13.404-31.127-44.351-52.921-80.392-52.921
			c-48.321,0-87.494,39.172-87.494,87.494c0,7.617,0.975,15.006,2.805,22.05c-8.092-4.764-17.516-7.507-27.585-7.507
			c-18.415,0-34.683,9.148-44.542,23.138c-7.756-9.54-19.582-15.638-32.836-15.638c-12.518,0-23.762,5.441-31.508,14.083
			c-5.401-12.482-16.637-21.851-30.274-24.654c-1.568-21.936-19.847-39.248-42.182-39.248c-23.364,0-42.304,18.94-42.304,42.304
			c0,4.673,0.769,9.164,2.168,13.367c-10.068,5.941-17.461,15.926-19.936,27.727c-4.188-1.032-8.562-1.589-13.068-1.589
			c-30.081,0-54.467,24.386-54.467,54.467c0,0.924,0.024,1.843,0.07,2.756c-11.682-8.724-26.176-13.889-41.877-13.889
			c-23.319,0-43.964,11.402-56.698,28.925c-3.102-0.446-6.27-0.688-9.496-0.688c-5.795,0-11.414,0.75-16.771,2.149
			c1.849-6.093,2.853-12.554,2.853-19.252c0-29.357-19.118-54.235-45.578-62.903c-8.088-27.423-33.44-47.444-63.484-47.444
			c-28.37,0-52.561,17.852-61.979,42.931c-13.078-7.666-28.302-12.065-44.555-12.065c-11.197,0-21.903,2.09-31.759,5.894
			c-3.756-45.272-41.685-80.844-87.927-80.844c-44.731,0-81.683,33.286-87.45,76.439c-5.202-4.275-11.859-6.843-19.117-6.843
			c-4.257,0-8.304,0.887-11.975,2.48c0.5-3.801,0.762-7.677,0.762-11.615c0-48.732-39.505-88.237-88.237-88.237
			c-38.958,0-72.016,25.249-83.711,60.275c-0.55-22.397-18.864-40.388-41.394-40.388c-20.008,0-36.702,14.187-40.573,33.05
			c-10.1-8.85-22.903-14.686-37.02-16.078c4.383-8.845,6.858-18.804,6.858-29.344c0-36.558-29.636-66.195-66.195-66.195
			c-16.109,0-30.87,5.76-42.348,15.325c-14.476-33.387-47.724-56.745-86.432-56.745c-27.105,0-51.531,11.456-68.713,29.785
			c-5.029-17.21-20.917-29.785-39.752-29.785c-13.306,0-25.139,6.282-32.717,16.034c-17.623-14.907-40.409-23.9-65.298-23.9
			c-31.651,0-59.904,14.537-78.456,37.295c-21.078-21.857-50.661-35.456-83.424-35.456c-28.197,0-54.033,10.08-74.126,26.82
			c1.558-6.85,2.384-13.979,2.384-21.301c0-52.829-42.827-95.656-95.656-95.656c-41.728,0-77.21,26.722-90.281,63.985
			c-11.378-9.245-24.084-16.919-37.807-22.656c0.755-3.541,1.16-7.211,1.16-10.977c0-27.404-21.029-49.883-47.828-52.214v566.366
			h513.435c29.526,50.795,84.528,84.95,147.513,84.95c46.878,0,89.333-18.921,120.156-49.538
			c31.109,33.169,75.323,53.898,124.385,53.898c39.995,0,76.769-13.776,105.85-36.833c11.35-3.376,22.209-7.891,32.434-13.432
			c30.844,43.932,81.885,72.652,139.64,72.652c37.09,0,71.409-11.849,99.393-31.959c31.242,35.367,76.925,57.678,127.826,57.678
			c15.823,0,31.139-2.164,45.678-6.197c31.277,37.538,78.372,61.434,131.054,61.434c94.17,0,170.51-76.34,170.51-170.51
			c0-3.248-0.1-6.472-0.279-9.675c21.652,69.304,86.34,119.603,162.779,119.603c40.213,0,77.168-13.929,106.322-37.214
			c22.652,11.126,48.129,17.384,75.07,17.384c37.214,0,71.637-11.93,99.671-32.162c15.618,4.713,32.176,7.257,49.33,7.257
			c15.754,0,31.004-2.147,45.486-6.146c31.183,40.359,80.052,66.356,134.999,66.356c53.693,0,101.58-24.826,132.835-63.615
			c28.517,54.311,85.454,91.362,151.053,91.362c54.615,0,103.229-25.681,134.437-65.622c27.737-2.238,53.596-11.116,75.994-25.041
			c12.769,3.053,26.091,4.681,39.795,4.681c71.991,0,133.558-44.616,158.568-107.705h446.62V602.289
			C2734.644,593.164,2717.014,587.909,2698.156,587.909z"/>
		<path style="fill:#EC919F;" d="M-22.955,798.792c-17.611,0-33.091,9.086-42.036,22.818c3.409-6.771,5.34-14.414,5.34-22.512
			c0-27.695-22.451-50.146-50.146-50.146c-14.768,0-28.042,6.386-37.219,16.544c-9.357-7.884-21.439-12.635-34.633-12.635
			c-29.717,0-53.808,24.09-53.808,53.808c0,6.241,1.074,12.228,3.029,17.802c-8.689,9.306-15.869,20.039-21.143,31.813
			c-15.899-31.525-48.561-53.149-86.279-53.149c-38.942,0-72.496,23.052-87.774,56.252c-27.632-18.114-60.672-28.659-96.18-28.659
			c-4.495,0-8.949,0.171-13.359,0.502c-7.1-37.979-40.419-66.726-80.458-66.726c-27.784,0-52.33,13.845-67.129,35.009
			c-5.051-16.027-20.029-27.65-37.725-27.65c-17.844,0-32.922,11.819-37.847,28.054c-11.437-14.819-29.364-24.375-49.531-24.375
			c-5.071,0-9.995,0.619-14.716,1.758v358.792h182.267c31.241,28.562,72.833,45.989,118.498,45.989
			c37.183,0,71.66-11.562,100.054-31.272h195.193V986.894c20.924,20.383,49.504,32.945,81.023,32.945
			c64.138,0,116.132-51.994,116.132-116.133c0-1.799-0.042-3.589-0.123-5.368c2.786,0.48,5.646,0.744,8.57,0.744
			c27.694,0,50.146-22.451,50.146-50.146C27.191,821.243,4.74,798.792-22.955,798.792z"/>
		<ellipse style="fill:#EA7F96;" cx="-478.71" cy="1019.247" rx="76.304" ry="51.047"/>
		
			<line style="fill:none;stroke:#FBE3CB;stroke-width:5;stroke-miterlimit:10;" x1="-480.525" y1="997.179" x2="-480.525" y2="1132.741"/>
		<path style="fill:none;stroke:#FBE3CB;stroke-width:5;stroke-miterlimit:10;" d="M-506.892,1003.924v16.17
			c0,7.325,5.938,13.263,13.262,13.263h12.491"/>
		<path style="fill:none;stroke:#FBE3CB;stroke-width:5;stroke-miterlimit:10;" d="M-480.525,1055.432h11.265
			c7.325,0,13.262-5.938,13.262-13.262v-32.113"/>
		<path style="fill:#EC919F;" d="M2753.342,850.957c-4.956-2.067-10.392-3.212-16.096-3.212c-3.663,0-7.214,0.474-10.6,1.358
			c-14.731-20.063-38.483-33.09-65.281-33.09c-24.269,0-46.04,10.684-60.875,27.602c-12.39-15.421-31.395-25.302-52.717-25.302
			c-32.824,0-60.176,23.397-66.309,54.422c-7.663-8.561-18.793-13.952-31.187-13.952c-23.113,0-41.85,18.737-41.85,41.85
			c0,0.119,0.008,0.236,0.009,0.354c-4.884-1.122-9.961-1.734-15.185-1.734c-13.781,0-26.593,4.134-37.281,11.214
			c-0.638-22.555-19.11-40.647-41.819-40.647c-23.113,0-41.85,18.737-41.85,41.85c0,10.174,3.634,19.498,9.671,26.752
			c-1.491,4.299-2.312,8.911-2.312,13.718c0,23.113,18.737,41.85,41.85,41.85c3.218,0,6.346-0.375,9.355-1.063
			c10.205,24.392,34.292,41.533,62.387,41.533c14.163,0,27.303-4.363,38.165-11.807c11.919,19.228,33.205,32.042,57.491,32.042
			c22.96,0,43.234-11.456,55.452-28.954c9.827,8.034,22.382,12.858,36.065,12.858c7.938,0,15.496-1.626,22.363-4.556
			c6.206,15.342,21.235,26.171,38.802,26.171c13.901,0,26.211-6.783,33.822-17.213c11.861,6.99,25.686,11.005,40.449,11.005
			c13.548,0,26.305-3.381,37.481-9.339V850.957z M2488.908,919.487c-0.432,0-0.859,0.025-1.289,0.033
			c0.238-0.47,0.468-0.944,0.688-1.424c0.256,0.472,0.533,0.931,0.8,1.396C2489.04,919.492,2488.975,919.487,2488.908,919.487z"/>
		<circle style="fill:#EC919F;" cx="2259.618" cy="923.013" r="59.592"/>
		
			<linearGradient id="SVGID_3_" gradientUnits="userSpaceOnUse" x1="5046.8242" y1="122.15" x2="5339.0518" y2="628.3028" gradientTransform="matrix(-1 0 0 1 6942.1099 0)">
			<stop  offset="0" style="stop-color:#FCD3C8"/>
			<stop  offset="1" style="stop-color:#FEE4CB"/>
		</linearGradient>
		<path style="fill:url(#SVGID_3_);" d="M1201.5,396.464h983.078h87.829c0,0-26.094-73.312-87.831-107.255
			c-18.598-10.225-40.429-16.878-65.757-16.878c-109.405,0-145.172,86.262-233.537,86.262c-88.366,0-149.38-191.459-355.566-191.459
			S1201.5,396.464,1201.5,396.464z"/>
		
			<linearGradient id="SVGID_4_" gradientUnits="userSpaceOnUse" x1="6434.1191" y1="121.7783" x2="6808.4775" y2="770.186" gradientTransform="matrix(-1 0 0 1 6942.1099 0)">
			<stop  offset="0" style="stop-color:#FCD3C8"/>
			<stop  offset="1" style="stop-color:#FEE4CB"/>
		</linearGradient>
		<path style="fill:url(#SVGID_4_);" d="M-367.49,480.863h1341.49c0,0-96.71-196.555-218.668-196.555s-88.45,54.053-206.383,54.053
			S422.184,144.262,234.959,144.262S43.449,352.431-39.985,375.215c-81.232,22.182-84.268-39.311-180.089-39.311
			S-367.49,480.863-367.49,480.863z"/>
		
			<linearGradient id="SVGID_5_" gradientUnits="userSpaceOnUse" x1="5707.8374" y1="446.0277" x2="5888.9097" y2="759.6543" gradientTransform="matrix(-1 0 0 1 6942.1099 0)">
			<stop  offset="0" style="stop-color:#FCD3C8"/>
			<stop  offset="1" style="stop-color:#FEE4CB"/>
		</linearGradient>
		<path style="fill:url(#SVGID_5_);" d="M851.846,643.403h537.116c0,0-10.833-174.143-154.155-174.143
			c-58.644,0-91.357,23.351-109.541,50.943c-21.498,32.62-63.614,45.303-98.681,28.084c-16.326-8.017-34.13-13.53-52.222-13.53
			C908.096,534.756,851.846,643.403,851.846,643.403z"/>
		
			<linearGradient id="SVGID_6_" gradientUnits="userSpaceOnUse" x1="4510.1753" y1="-81.054" x2="4691.2476" y2="232.5725" gradientTransform="matrix(-1 0 0 1 6942.1099 0)">
			<stop  offset="0" style="stop-color:#FCD3C8"/>
			<stop  offset="1" style="stop-color:#FEE4CB"/>
		</linearGradient>
		<path style="fill:url(#SVGID_6_);" d="M2049.509,116.321h537.116c0,0-10.833-174.143-154.155-174.143
			c-58.644,0-91.357,23.351-109.541,50.943c-21.498,32.62-63.614,45.303-98.681,28.084c-16.326-8.017-34.13-13.53-52.222-13.53
			C2105.759,7.674,2049.509,116.321,2049.509,116.321z"/>
		
			<linearGradient id="SVGID_7_" gradientUnits="userSpaceOnUse" x1="7302.8809" y1="72.772" x2="7483.9531" y2="386.3986" gradientTransform="matrix(-1 0 0 1 6942.1099 0)">
			<stop  offset="0" style="stop-color:#FCD3C8"/>
			<stop  offset="1" style="stop-color:#FEE4CB"/>
		</linearGradient>
		<path style="fill:url(#SVGID_7_);" d="M-743.197,270.147h537.116c0,0-10.833-174.143-154.155-174.143
			c-58.644,0-91.357,23.351-109.541,50.943c-21.498,32.62-63.614,45.303-98.681,28.084c-16.326-8.017-34.13-13.53-52.222-13.53
			C-686.947,161.5-743.197,270.147-743.197,270.147z"/>
		<polyline style="fill:#FBE3CB;" points="789.506,850.939 789.506,879.146 822.617,879.146 		"/>
		<rect x="1480.185" y="969.813" style="fill:#FBE3CB;" width="1265.799" height="182.835"/>
		<g>
			<rect x="1475.579" y="963.848" style="fill:#FFFFFF;" width="1271.325" height="5.965"/>
			<rect x="1475.579" y="946.637" style="fill:#FFFFFF;" width="1271.325" height="5.965"/>
			<rect x="1475.579" y="929.427" style="fill:#FFFFFF;" width="1271.325" height="5.965"/>
			<rect x="1510.766" y="918.849" style="fill:#FFFFFF;" width="5.965" height="50.964"/>
			<rect x="1575.84" y="922.682" style="fill:#FFFFFF;" width="5.965" height="47.132"/>
			<rect x="1640.914" y="918.849" style="fill:#FFFFFF;" width="5.965" height="50.964"/>
			<rect x="1705.988" y="922.682" style="fill:#FFFFFF;" width="5.965" height="47.132"/>
			<rect x="1771.062" y="918.849" style="fill:#FFFFFF;" width="5.965" height="50.964"/>
			<rect x="1836.136" y="922.682" style="fill:#FFFFFF;" width="5.965" height="47.132"/>
			<rect x="1901.209" y="918.849" style="fill:#FFFFFF;" width="5.965" height="50.964"/>
			<rect x="1966.283" y="922.682" style="fill:#FFFFFF;" width="5.965" height="47.132"/>
			<rect x="2031.357" y="918.849" style="fill:#FFFFFF;" width="5.965" height="50.964"/>
			<rect x="2096.431" y="922.682" style="fill:#FFFFFF;" width="5.965" height="47.132"/>
			<rect x="2161.505" y="918.849" style="fill:#FFFFFF;" width="5.965" height="50.964"/>
			<rect x="2226.579" y="922.682" style="fill:#FFFFFF;" width="5.965" height="47.132"/>
			<rect x="2291.652" y="918.849" style="fill:#FFFFFF;" width="5.965" height="50.964"/>
			<rect x="2356.726" y="922.682" style="fill:#FFFFFF;" width="5.965" height="47.132"/>
			<rect x="2421.8" y="918.849" style="fill:#FFFFFF;" width="5.965" height="50.964"/>
			<rect x="2486.874" y="922.682" style="fill:#FFFFFF;" width="5.965" height="47.132"/>
			<rect x="2551.948" y="918.849" style="fill:#FFFFFF;" width="5.965" height="50.964"/>
			<rect x="2617.021" y="922.682" style="fill:#FFFFFF;" width="5.965" height="47.132"/>
			<rect x="2682.095" y="918.849" style="fill:#FFFFFF;" width="5.965" height="50.964"/>
		</g>
		<path style="fill:#CDBAAF;" d="M1816.383,971.429c0,0-1.839,14.026,6.438,21.155l-1.812,20.925l3.192-0.23l4.369-21.385
			l-3.219-21.845l-0.46-7.588l-5.749,1.38L1816.383,971.429z"/>
		<path style="fill:#CDBAAF;" d="M1834.548,949.815c0,0,16.786,6.898,9.198,41.16c0,0-16.326-8.738-14.716-21.155
			S1834.548,949.815,1834.548,949.815z"/>
		<polygon style="fill:#EA929A;" points="2032.989,1000.402 2038.277,1051.45 2041.957,1050.99 2041.267,1004.311 		"/>
		<polygon style="fill:#EA929A;" points="2080.357,1008.45 2085.416,1025.466 2095.993,1036.273 2095.303,1052.369 
			2098.062,1052.139 2101.282,1035.354 2093.694,1019.028 2090.704,1002.242 2085.646,1002.012 		"/>
		<polygon style="fill:#EA929A;" points="2107.72,987.066 2114.848,1025.696 2106.341,1027.536 2098.522,1013.509 
			2095.073,1003.391 2100.822,997.183 		"/>
		<polygon style="fill:#CDBAAF;" points="1781.891,973.959 1787.18,999.023 1785.57,1014.889 1788.1,1015.119 1792.009,1003.162 
			1788.33,973.959 1782.121,970.97 		"/>
		<path style="fill:#FFFDED;" d="M1833.398,972.349c0,0,13.337-30.352-15.636-31.732l-15.636,5.979l-15.176-2.759
			c0,0-25.754,10.117-26.214,48.288c0,0-6.898-2.759-11.957,1.84l9.198,2.299l-1.579,6.316c-0.288,1.153,0.245,2.355,1.294,2.914
			c1.009,0.538,1.597,1.628,1.494,2.766l-0.75,8.254c-0.124,1.366,0.924,2.557,2.295,2.608l1.617,0.06
			c1.192,0.044,2.24-0.783,2.474-1.953l0.361-1.803c0.547-2.735,1.697-5.346,3.531-7.446c1.525-1.747,3.106-4.656,2.6-8.956
			c0,0-0.92-23.454,14.256-24.834c0,0,0.173,0.086,0.482,0.226l4.346,24.837l0.23,17.016l2.759-0.23l1.839-16.326l-0.593-22.536
			c7.243,1.514,17.331,1.573,24.507-6.666l3.679-5.059c0,0,1.38,18.395,11.037,28.053l3.219,23.454h3.219v-29.893L1833.398,972.349z
			"/>
		<path style="fill:#955F71;" d="M1663.506,968.852c0,0-1.467,11.187,5.135,16.873l-1.445,16.689l2.546-0.183l3.485-17.056
			l-2.568-17.423l-0.367-6.052l-4.585,1.1L1663.506,968.852z"/>
		<path style="fill:#955F71;" d="M1677.995,951.612c0,0,13.388,5.502,7.336,32.828c0,0-13.021-6.969-11.737-16.873
			C1674.877,957.664,1677.995,951.612,1677.995,951.612z"/>
		<polygon style="fill:#955F71;" points="1635.997,970.869 1640.215,990.859 1638.931,1003.514 1640.948,1003.697 1644.066,994.161 
			1641.132,970.869 1636.18,968.485 		"/>
		<path style="fill:#B87181;" d="M1677.078,969.585c0,0,10.637-24.208-12.471-25.309l-12.471,4.768l-12.104-2.201
			c0,0-20.541,8.07-20.907,38.514c0,0-5.502-2.201-9.537,1.467l7.336,1.834l-1.259,5.037c-0.23,0.92,0.196,1.878,1.032,2.324
			c0.805,0.429,1.274,1.298,1.191,2.206l-0.599,6.583c-0.099,1.09,0.737,2.04,1.83,2.08l1.29,0.048
			c0.951,0.035,1.786-0.625,1.973-1.557l0.288-1.438c0.436-2.181,1.354-4.263,2.817-5.939c1.217-1.394,2.477-3.713,2.074-7.143
			c0,0-0.734-18.707,11.371-19.807c0,0,0.138,0.068,0.385,0.18l3.467,19.81l0.183,13.571l2.201-0.183l1.467-13.021l-0.473-17.975
			c5.777,1.208,13.823,1.254,19.546-5.317l2.934-4.035c0,0,1.1,14.672,8.803,22.375l2.568,18.707h2.568v-23.842L1677.078,969.585z"
			/>
		<path style="fill:#EEADA8;" d="M2022.641,960.852l0.69-11.037l4.369,7.818l6.898-7.588l-0.92,10.807l14.486,19.315l19.545,4.139
			l25.753-5.289c0,0,20.695-0.92,13.337,20.695l-4.829,16.096l8.968,18.855l-1.84,17.936l-3.219,0.92l0.23-17.706l-16.326-18.166
			l-3.679-11.497c0,0-12.647,17.246-33.802,6.668l-0.69,38.4l-3.909,0.23l-3.219-40.47c0,0-8.278,0-13.107-13.797l-1.38-15.406
			l-1.38,4.369l-5.749-0.23l-2.529-20.925L2022.641,960.852z"/>
		<rect x="1040.204" y="944.199" style="fill:#EEADA8;" width="341.695" height="89.732"/>
		<polygon style="fill:#E0AAA9;" points="1381.899,1033.931 1487.048,1033.931 1487.048,944.199 1439.018,878.161 1381.899,944.199 
					"/>
		<polygon style="fill:#FFFFFF;" points="1040.203,944.199 1381.899,944.199 1439.018,878.161 1097.323,878.161 		"/>
		<rect x="1174.514" y="849.648" style="fill:#FDD9CB;" width="32.93" height="28.513"/>
		<rect x="1251.705" y="849.648" style="fill:#FDD9CB;" width="32.93" height="28.513"/>
		<rect x="1328.896" y="849.648" style="fill:#FDD9CB;" width="32.93" height="28.513"/>
		<rect x="1421.75" y="946.417" style="fill:#D88496;" width="34.536" height="60.683"/>
		<rect x="1071.267" y="956.904" style="fill:#EC919F;" width="31.063" height="31.063"/>
		<rect x="1133.393" y="956.904" style="fill:#EC919F;" width="31.063" height="31.063"/>
		<rect x="1195.52" y="956.904" style="fill:#EC919F;" width="31.063" height="31.063"/>
		<rect x="1257.646" y="956.904" style="fill:#EC919F;" width="31.063" height="31.063"/>
		<rect x="1319.772" y="956.904" style="fill:#EC919F;" width="31.063" height="31.063"/>
		<g>
			<circle style="fill:#EC919F;" cx="62.836" cy="852.857" r="44.432"/>
			<circle style="fill:#EC919F;" cx="232.074" cy="860.215" r="44.432"/>
			<circle style="fill:#EC919F;" cx="365.587" cy="869.872" r="44.432"/>
			<circle style="fill:#EC919F;" cx="515.509" cy="914.304" r="44.432"/>
			<circle style="fill:#EC919F;" cx="574.695" cy="929.692" r="23.452"/>
			<circle style="fill:#EC919F;" cx="579.866" cy="974.18" r="32.846"/>
			<circle style="fill:#EC919F;" cx="300.088" cy="869.872" r="31.489"/>
			<circle style="fill:#EC919F;" cx="160.786" cy="850.677" r="57.638"/>
			<circle style="fill:#EC919F;" cx="437.528" cy="886.561" r="57.638"/>
			<circle style="fill:#EC919F;" cx="519.848" cy="965.953" r="57.638"/>
			<circle style="fill:#EC919F;" cx="-159.942" cy="1010.394" r="116.133"/>
			<circle style="fill:#EC919F;" cx="-13.07" cy="973.968" r="116.133"/>
			<circle style="fill:#EC919F;" cx="107.268" cy="972.436" r="116.133"/>
			<circle style="fill:#EC919F;" cx="237.816" cy="969.609" r="116.133"/>
			<circle style="fill:#EC919F;" cx="374.736" cy="980.692" r="116.133"/>
		</g>
		<g>
			<circle style="fill:#EEADA8;" cx="-110.71" cy="924.067" r="23.141"/>
			<circle style="fill:#EEADA8;" cx="268.599" cy="926.848" r="23.141"/>
			<circle style="fill:#EEADA8;" cx="390.438" cy="930.376" r="23.141"/>
			<circle style="fill:#EEADA8;" cx="413.58" cy="939.753" r="23.141"/>
			<circle style="fill:#EEADA8;" cx="579.866" cy="916.612" r="23.141"/>
			<circle style="fill:#EEADA8;" cx="789.515" cy="971.99" r="23.141"/>
			<circle style="fill:#EEADA8;" cx="680.348" cy="921.352" r="23.141"/>
			<circle style="fill:#EEADA8;" cx="719.898" cy="901.881" r="23.141"/>
			<circle style="fill:#EEADA8;" cx="756.138" cy="908.381" r="23.141"/>
			<circle style="fill:#EEADA8;" cx="450.83" cy="929.692" r="23.141"/>
			<circle style="fill:#EEADA8;" cx="-177.481" cy="929.692" r="17.478"/>
			<circle style="fill:#EEADA8;" cx="-145.516" cy="933.462" r="17.478"/>
			<circle style="fill:#EEADA8;" cx="302.902" cy="919.359" r="17.478"/>
			<circle style="fill:#EEADA8;" cx="331.577" cy="930.376" r="17.478"/>
			<circle style="fill:#EEADA8;" cx="-83.757" cy="915.984" r="17.478"/>
			<circle style="fill:#EEADA8;" cx="-36.235" cy="929.692" r="17.478"/>
			<circle style="fill:#EEADA8;" cx="-5.477" cy="933.462" r="17.478"/>
			<circle style="fill:#EEADA8;" cx="196.754" cy="921.352" r="22.847"/>
			<circle style="fill:#EEADA8;" cx="-63.477" cy="919.359" r="15.686"/>
			<circle style="fill:#EEADA8;" cx="232.074" cy="929.692" r="15.686"/>
			<circle style="fill:#EEADA8;" cx="359.049" cy="924.067" r="15.686"/>
			<circle style="fill:#EEADA8;" cx="547.02" cy="912.898" r="15.686"/>
			<circle style="fill:#EEADA8;" cx="636.35" cy="926.848" r="15.686"/>
			<circle style="fill:#EEADA8;" cx="657.595" cy="926.848" r="15.686"/>
			<circle style="fill:#EEADA8;" cx="783.181" cy="919.359" r="15.686"/>
			<circle style="fill:#EEADA8;" cx="794.559" cy="941.334" r="15.686"/>
			<circle style="fill:#EEADA8;" cx="482.005" cy="915.984" r="13.161"/>
			<circle style="fill:#EEADA8;" cx="498.32" cy="916.612" r="13.161"/>
			<circle style="fill:#EEADA8;" cx="522.139" cy="924.067" r="13.161"/>
			<circle style="fill:#EEADA8;" cx="612.711" cy="919.359" r="13.161"/>
			<rect x="441.985" y="916.612" style="fill:#EEADA8;" width="347.338" height="99.395"/>
			<rect x="-233.121" y="928.584" style="fill:#EEADA8;" width="689.822" height="168.24"/>
			<circle style="fill:#EEADA8;" cx="-209.979" cy="924.067" r="23.141"/>
			<circle style="fill:#EEADA8;" cx="-303.183" cy="1098.211" r="23.141"/>
			<circle style="fill:#EEADA8;" cx="-285.401" cy="1080.429" r="23.141"/>
			<circle style="fill:#EEADA8;" cx="-299.504" cy="1042.411" r="23.141"/>
			<circle style="fill:#EEADA8;" cx="-263.326" cy="1046.09" r="23.141"/>
			<circle style="fill:#EEADA8;" cx="-243.091" cy="923.454" r="23.141"/>
			<circle style="fill:#EEADA8;" cx="-253.515" cy="952.887" r="23.141"/>
			<circle style="fill:#EEADA8;" cx="-289.693" cy="955.953" r="23.141"/>
			<circle style="fill:#EEADA8;" cx="-284.174" cy="982.319" r="23.141"/>
			<circle style="fill:#EEADA8;" cx="-312.38" cy="1009.913" r="23.141"/>
			<circle style="fill:#EEADA8;" cx="-401.828" cy="1118.446" r="23.141"/>
			<circle style="fill:#EEADA8;" cx="-330.086" cy="1045.784" r="23.141"/>
			<circle style="fill:#EEADA8;" cx="-362.738" cy="1046.474" r="23.141"/>
			<circle style="fill:#EEADA8;" cx="-439.995" cy="1132.008" r="23.141"/>
			<circle style="fill:#EEADA8;" cx="-412.636" cy="1107.179" r="23.141"/>
			<circle style="fill:#EEADA8;" cx="-371.706" cy="1110.857" r="23.141"/>
			<circle style="fill:#EEADA8;" cx="-378.374" cy="1085.104" r="23.141"/>
			<circle style="fill:#EEADA8;" cx="-348.022" cy="1080.275" r="23.141"/>
			<circle style="fill:#EEADA8;" cx="-316.06" cy="1070.618" r="23.141"/>
			<circle style="fill:#EEADA8;" cx="-339.744" cy="1104.419" r="23.141"/>
			<circle style="fill:#EEADA8;" cx="-247.996" cy="978.641" r="23.141"/>
			<circle style="fill:#EEADA8;" cx="-277.429" cy="1016.658" r="23.141"/>
			<circle style="fill:#EEADA8;" cx="-261.758" cy="1011.887" r="23.141"/>
			<circle style="fill:#EC919F;" cx="-231.759" cy="1006.847" r="17.305"/>
			<circle style="fill:#EEADA8;" cx="-272.524" cy="1099.437" r="23.141"/>
			<circle style="fill:#EEADA8;" cx="-249.836" cy="1082.881" r="23.141"/>
			<circle style="fill:#EEADA8;" cx="-236.346" cy="1047.93" r="23.141"/>
			<circle style="fill:#EC919F;" cx="-240.614" cy="1030.896" r="17.305"/>
			<circle style="fill:#EC919F;" cx="-258.397" cy="1050.518" r="17.305"/>
			<circle style="fill:#EC919F;" cx="-254.104" cy="1071.979" r="17.305"/>
			<circle style="fill:#EC919F;" cx="-270.66" cy="1094.054" r="17.305"/>
			<circle style="fill:#EC919F;" cx="-241.841" cy="1089.761" r="17.305"/>
			<circle style="fill:#EC919F;" cx="-235.709" cy="1059.715" r="17.305"/>
		</g>
		<circle style="fill:#EC919F;" cx="-162.764" cy="936.785" r="3.679"/>
		<circle style="fill:#EC919F;" cx="-141.916" cy="939.237" r="3.679"/>
		<circle style="fill:#EC919F;" cx="-72.627" cy="945.982" r="3.679"/>
		<circle style="fill:#EC919F;" cx="-148.661" cy="925.134" r="3.679"/>
		<circle style="fill:#EC919F;" cx="-49.939" cy="932.493" r="3.679"/>
		<circle style="fill:#EC919F;" cx="-40.128" cy="949.662" r="3.679"/>
		<circle style="fill:#EC919F;" cx="-181.327" cy="945.561" r="3.679"/>
		<circle style="fill:#EC919F;" cx="-177.519" cy="928.538" r="3.679"/>
		<circle style="fill:#EC919F;" cx="51.236" cy="981.547" r="3.679"/>
		<circle style="fill:#EC919F;" cx="84.348" cy="982.16" r="3.679"/>
		<circle style="fill:#EC919F;" cx="69.018" cy="1001.169" r="3.679"/>
		<circle style="fill:#EC919F;" cx="69.018" cy="975.415" r="3.679"/>
		<circle style="fill:#EC919F;" cx="76.376" cy="990.131" r="3.679"/>
		<circle style="fill:#EC919F;" cx="65.291" cy="1026.575" r="3.679"/>
		<circle style="fill:#EC919F;" cx="51.334" cy="1016.369" r="3.679"/>
		<circle style="fill:#EC919F;" cx="14.074" cy="1017.317" r="3.679"/>
		<circle style="fill:#EC919F;" cx="21.877" cy="1005.993" r="3.679"/>
		<circle style="fill:#EC919F;" cx="22.265" cy="1028.68" r="3.679"/>
		<circle style="fill:#EC919F;" cx="97.622" cy="971.537" r="3.679"/>
		<circle style="fill:#EC919F;" cx="218.562" cy="942.119" r="3.679"/>
		<circle style="fill:#EC919F;" cx="198.399" cy="915.323" r="3.679"/>
		<circle style="fill:#EC919F;" cx="241.935" cy="943.53" r="3.679"/>
		<circle style="fill:#EC919F;" cx="260.101" cy="956.507" r="3.679"/>
		<circle style="fill:#EC919F;" cx="265.305" cy="938.028" r="3.679"/>
		<circle style="fill:#EC919F;" cx="269.615" cy="916.921" r="3.679"/>
		<circle style="fill:#EC919F;" cx="315.067" cy="929.925" r="3.679"/>
		<circle style="fill:#EC919F;" cx="296.992" cy="945.589" r="3.679"/>
		<circle style="fill:#EC919F;" cx="341.256" cy="954.426" r="3.679"/>
		<circle style="fill:#EC919F;" cx="339.498" cy="932.425" r="3.679"/>
		<circle style="fill:#EC919F;" cx="367.302" cy="926.856" r="3.679"/>
		<circle style="fill:#EC919F;" cx="365.105" cy="946.864" r="3.679"/>
		<circle style="fill:#EC919F;" cx="385.839" cy="949.046" r="3.679"/>
		<circle style="fill:#EC919F;" cx="466.592" cy="932.387" r="3.679"/>
		<circle style="fill:#EC919F;" cx="451.535" cy="923.513" r="3.679"/>
		<circle style="fill:#EC919F;" cx="452.486" cy="946.227" r="3.679"/>
		<circle style="fill:#EC919F;" cx="517.433" cy="941.012" r="3.679"/>
		<circle style="fill:#EC919F;" cx="495.998" cy="927.455" r="3.679"/>
		<circle style="fill:#EC919F;" cx="489.533" cy="945.189" r="3.679"/>
		<circle style="fill:#EC919F;" cx="546.89" cy="955.827" r="3.679"/>
		<circle style="fill:#EC919F;" cx="541.39" cy="927.357" r="3.679"/>
		<circle style="fill:#EC919F;" cx="600.033" cy="928.2" r="3.679"/>
		<circle style="fill:#EC919F;" cx="594.747" cy="947.467" r="3.679"/>
		<circle style="fill:#EC919F;" cx="696.4" cy="952.581" r="3.679"/>
		<circle style="fill:#EC919F;" cx="762.526" cy="945.982" r="3.679"/>
		<circle style="fill:#EC919F;" cx="742.904" cy="958.859" r="3.679"/>
		<circle style="fill:#EC919F;" cx="743.685" cy="987.612" r="3.679"/>
		<circle style="fill:#EC919F;" cx="794.572" cy="969.271" r="3.679"/>
		<circle style="fill:#EC919F;" cx="751.821" cy="910.37" r="3.679"/>
		<circle style="fill:#EC919F;" cx="697.354" cy="921.929" r="3.679"/>
		<circle style="fill:#EC919F;" cx="724.382" cy="917.774" r="3.679"/>
		<circle style="fill:#EC919F;" cx="716.211" cy="934.296" r="3.679"/>
		<circle style="fill:#EC919F;" cx="719.567" cy="903.512" r="3.679"/>
		<circle style="fill:#EC919F;" cx="778.061" cy="931.546" r="3.679"/>
		<circle style="fill:#EC919F;" cx="742.291" cy="925.134" r="3.679"/>
		<circle style="fill:#EC919F;" cx="678.918" cy="911.328" r="3.679"/>
		<circle style="fill:#EC919F;" cx="724.47" cy="964.905" r="3.679"/>
		<circle style="fill:#EC919F;" cx="701.224" cy="975.375" r="3.679"/>
		<circle style="fill:#EC919F;" cx="767.975" cy="975.671" r="3.679"/>
		<circle style="fill:#EC919F;" cx="673.66" cy="963.501" r="3.679"/>
		<circle style="fill:#EC919F;" cx="555.79" cy="916.612" r="3.679"/>
		<circle style="fill:#EC919F;" cx="576.131" cy="933.556" r="3.679"/>
		<circle style="fill:#EC919F;" cx="574.892" cy="910.418" r="3.679"/>
		<circle style="fill:#EC919F;" cx="230.285" cy="924.521" r="3.679"/>
		<circle style="fill:#EC919F;" cx="188.588" cy="940.464" r="3.679"/>
		<circle style="fill:#EC919F;" cx="84.209" cy="1018.22" r="3.679"/>
		<circle style="fill:#EC919F;" cx="-21.12" cy="944.143" r="3.679"/>
		<circle style="fill:#EC919F;" cx="73.924" cy="956.406" r="3.679"/>
		<circle style="fill:#EC919F;" cx="-191.926" cy="939.211" r="3.679"/>
		<ellipse style="fill:#B87181;" cx="103.969" cy="1033.054" rx="18.395" ry="49.668"/>
		<circle style="fill:#EC919F;" cx="-97.767" cy="954.567" r="3.679"/>
		<circle style="fill:#EC919F;" cx="-207.553" cy="912.842" r="3.679"/>
		<circle style="fill:#EC919F;" cx="-211.122" cy="942.217" r="3.679"/>
		<circle style="fill:#EC919F;" cx="-82.438" cy="908.579" r="3.679"/>
		<circle style="fill:#EC919F;" cx="-136.398" cy="955.793" r="3.679"/>
		<g>
			<rect x="-123.618" y="806.125" style="fill:#B87181;" width="2.868" height="21.131"/>
			<rect x="-133.656" y="1041.205" style="fill:#B87181;" width="22.946" height="45.138"/>
			<rect x="-125.156" y="841.876" style="fill:#B87181;" width="5.946" height="199.328"/>
			<polygon style="fill:#B87181;" points="-111.075,886.348 -133.291,886.348 -137.392,841.876 -106.975,841.876 			"/>
			<path style="fill:#B87181;" d="M-106.975,841.876h-30.417c0-8.399,6.809-15.209,15.209-15.209S-106.975,833.477-106.975,841.876z
				"/>
		</g>
		<g>
			<rect x="517.048" y="793.149" style="fill:#B87181;" width="2.868" height="21.131"/>
			<rect x="515.509" y="828.9" style="fill:#B87181;" width="5.946" height="199.328"/>
			<polygon style="fill:#B87181;" points="529.59,873.372 507.374,873.372 503.274,828.9 533.691,828.9 			"/>
			<path style="fill:#B87181;" d="M533.691,828.9h-30.417c0-8.399,6.809-15.209,15.209-15.209
				C526.882,813.691,533.691,820.5,533.691,828.9z"/>
		</g>
		<g>
			<rect x="187.64" y="956.904" style="fill:#FFFFFF;" width="451.879" height="33.228"/>
			<rect x="-224.389" y="956.904" style="fill:#FFFFFF;" width="204.411" height="33.841"/>
			<g>
				<path style="fill:#FFFFFF;" d="M-19.979,1058.043v-0.068C-19.999,1057.997-20.003,1058.02-19.979,1058.043z"/>
				<path style="fill:#FFFFFF;" d="M151.087,889.137H16.576c0,20.189-16.366,36.555-36.555,36.555v132.283
					c0.385-0.426,8.826-0.549,19.708-0.528v-51.68c0-7.925,6.484-14.41,14.41-14.41h0c7.925,0,14.41,6.484,14.41,14.41v51.939
					c11.772,0.161,21.042,0.337,21.042,0.337v-70.658c0-18.833,15.408-34.241,34.241-34.241c18.833,0,34.241,15.408,34.241,34.241
					v70.658h7.133h13.102v-52.276c0-7.925,6.484-14.41,14.41-14.41c7.925,0,14.41,6.484,14.41,14.41v52.276h13.841h6.674V925.693
					C167.453,925.693,151.087,909.326,151.087,889.137z"/>
			</g>
			<rect x="382.163" y="941.334" style="fill:#FFFFFF;" width="48.299" height="77.464"/>
			<rect x="624.983" y="941.334" style="fill:#FFFFFF;" width="48.299" height="77.464"/>
			<polygon style="fill:#FFFFFF;" points="430.462,916.006 406.312,906.801 382.163,916.006 382.163,941.334 430.462,941.334 			"/>
			<polygon style="fill:#FFFFFF;" points="673.281,916.006 649.132,906.801 624.983,916.006 624.983,941.334 673.281,941.334 			"/>
		</g>
		<g>
			<rect x="283.293" y="740.038" style="fill:#FDD9CB;" width="3.219" height="23.716"/>
			<rect x="272.026" y="1003.88" style="fill:#FFFFFF;" width="25.754" height="50.661"/>
			<rect x="281.566" y="780.163" style="fill:#FDD9CB;" width="6.674" height="223.718"/>
			<polygon style="fill:#FFFFFF;" points="297.37,830.077 272.435,830.077 267.833,780.163 301.972,780.163 			"/>
			<path style="fill:#EEADA8;" d="M301.972,780.163h-34.139c0-9.427,7.642-17.07,17.07-17.07
				C294.33,763.093,301.972,770.736,301.972,780.163z"/>
		</g>
		<path style="fill:#EC919F;" d="M-21.595,1033.984c4.787-1.969,8.161-6.674,8.161-12.171c0-4.774-2.55-8.942-6.355-11.249
			c2.762-2.412,4.515-5.951,4.515-9.906c0-7.268-5.892-13.161-13.161-13.161c-3.702,0-7.041,1.533-9.432,3.993
			c-2.584-5.074-7.844-8.556-13.929-8.556c-5.78,0-10.816,3.145-13.522,7.809c-2.868-3.372-7.135-5.517-11.908-5.517
			c-4.971,0-9.391,2.327-12.255,5.943c-2.388-3.333-6.283-5.512-10.696-5.512c-4.378,0-8.247,2.147-10.639,5.436
			c-2.867-3.302-7.086-5.4-11.802-5.4c-4.876,0-9.229,2.234-12.097,5.732c-2.261-3.99-6.537-6.688-11.451-6.688
			c-4.26,0-8.037,2.033-10.442,5.173c-2.208-4.169-6.586-7.012-11.632-7.012c-6.156,0-11.31,4.233-12.748,9.943
			c-2.867-3.522-7.233-5.775-12.129-5.775c-2.553,0-4.956,0.625-7.085,1.71c-2.381-5.596-7.928-9.521-14.393-9.521
			c-8.636,0-15.636,7-15.636,15.636c0,0.949,0.098,1.874,0.26,2.777l-1.777-0.025l0.46,112.672l205.569-44.149l-0.616-7.339
			c6.714-0.598,11.98-6.231,11.98-13.101C-14.354,1040.589-17.304,1036.151-21.595,1033.984z"/>
		<ellipse style="fill:#EC919F;" cx="823.206" cy="873.006" rx="76.304" ry="51.047"/>
		<rect x="375.097" y="933.462" style="fill:#FEE9E3;" width="62.431" height="7.872"/>
		<rect x="617.916" y="933.462" style="fill:#FEE9E3;" width="62.431" height="7.872"/>
		
			<line style="fill:none;stroke:#EEADA8;stroke-width:4;stroke-miterlimit:10;" x1="279.186" y1="779.427" x2="279.186" y2="829.325"/>
		
			<line style="fill:none;stroke:#EEADA8;stroke-width:4;stroke-miterlimit:10;" x1="290.223" y1="779.427" x2="290.223" y2="829.325"/>
		<path style="fill:#EC919F;" d="M380.998,1018.292c4.404-1.811,7.508-6.14,7.508-11.197c0-4.392-2.346-8.226-5.846-10.348
			c2.541-2.219,4.154-5.474,4.154-9.113c0-6.687-5.421-12.107-12.107-12.107c-3.406,0-6.477,1.411-8.677,3.674
			c-2.378-4.668-7.216-7.871-12.813-7.871c-5.318,0-9.95,2.893-12.44,7.184c-2.639-3.102-6.564-5.075-10.955-5.075
			c-4.573,0-8.639,2.141-11.274,5.468c-2.197-3.066-5.78-5.071-9.84-5.071c-4.028,0-7.586,1.975-9.787,5.001
			c-2.638-3.038-6.518-4.968-10.857-4.968c-4.486,0-8.491,2.055-11.128,5.273c-2.08-3.671-6.014-6.152-10.534-6.152
			c-3.919,0-7.394,1.871-9.606,4.759c-2.031-3.835-6.058-6.451-10.701-6.451c-5.663,0-10.404,3.894-11.727,9.147
			c-2.638-3.24-6.654-5.313-11.159-5.313c-2.348,0-4.559,0.575-6.517,1.573c-2.19-5.148-7.294-8.759-13.241-8.759
			c-6.99,0-12.811,4.988-14.11,11.598c-5.501,1.074-9.653,5.915-9.653,11.73c0,4.137,2.102,7.782,5.295,9.929
			c-1.553,2.018-2.487,4.537-2.487,7.281c0,3.283,1.325,6.255,3.467,8.416c-2.804,2.188-4.613,5.59-4.613,9.422
			c0,4.649,2.659,8.669,6.535,10.647l0.21,51.545l189.114-40.615l-0.567-6.751c6.177-0.55,11.021-5.732,11.021-12.052
			C387.66,1024.369,384.946,1020.287,380.998,1018.292z"/>
		<path style="fill:#EC919F;" d="M623.358,1018.292c4.404-1.811,7.508-6.14,7.508-11.197c0-4.392-2.346-8.226-5.846-10.348
			c2.541-2.219,4.154-5.474,4.154-9.113c0-6.687-5.421-12.107-12.107-12.107c-3.406,0-6.477,1.411-8.677,3.674
			c-2.378-4.668-7.216-7.871-12.813-7.871c-5.318,0-9.95,2.893-12.44,7.184c-2.638-3.102-6.564-5.075-10.955-5.075
			c-4.573,0-8.639,2.141-11.274,5.468c-2.197-3.066-5.78-5.071-9.84-5.071c-4.028,0-7.586,1.975-9.787,5.001
			c-2.638-3.038-6.518-4.968-10.857-4.968c-4.486,0-8.491,2.055-11.128,5.273c-2.08-3.671-6.014-6.152-10.534-6.152
			c-3.919,0-7.394,1.871-9.606,4.759c-2.031-3.835-6.058-6.451-10.701-6.451c-5.663,0-10.404,3.894-11.727,9.147
			c-2.638-3.24-6.654-5.313-11.159-5.313c-2.348,0-4.559,0.575-6.517,1.573c-2.19-5.148-7.294-8.759-13.241-8.759
			c-6.99,0-12.811,4.988-14.11,11.598c-5.501,1.074-9.653,5.915-9.653,11.73c0,4.137,2.102,7.782,5.295,9.929
			c-1.553,2.018-2.487,4.537-2.487,7.281c0,3.283,1.325,6.255,3.467,8.416c-2.804,2.188-4.613,5.59-4.613,9.422
			c0,4.649,2.659,8.669,6.534,10.647l0.21,51.545l189.114-40.615l-0.567-6.751c6.177-0.55,11.021-5.732,11.021-12.052
			C630.019,1024.369,627.306,1020.287,623.358,1018.292z"/>
		<g>
			<rect x="-166.213" y="778.392" style="fill:#FDD9CB;" width="3.219" height="23.716"/>
			<rect x="-177.481" y="1042.235" style="fill:#FFFFFF;" width="25.754" height="50.661"/>
			<rect x="-167.941" y="818.517" style="fill:#FDD9CB;" width="6.674" height="223.718"/>
			<polygon style="fill:#FFFFFF;" points="-152.137,868.431 -177.071,868.431 -181.673,818.517 -147.534,818.517 			"/>
			<path style="fill:#EEADA8;" d="M-147.534,818.517h-34.139c0-9.427,7.642-17.07,17.07-17.07
				C-155.177,801.448-147.534,809.09-147.534,818.517z"/>
		</g>
		
			<line style="fill:none;stroke:#EEADA8;stroke-width:4;stroke-miterlimit:10;" x1="-170.123" y1="818.058" x2="-170.123" y2="867.955"/>
		
			<line style="fill:none;stroke:#EEADA8;stroke-width:4;stroke-miterlimit:10;" x1="-159.085" y1="818.058" x2="-159.085" y2="867.955"/>
		
			<line style="fill:none;stroke:#FBE3CB;stroke-width:5;stroke-miterlimit:10;" x1="821.391" y1="850.939" x2="821.391" y2="986.501"/>
		<path style="fill:none;stroke:#FBE3CB;stroke-width:5;stroke-miterlimit:10;" d="M795.024,857.684v16.17
			c0,7.325,5.938,13.262,13.262,13.262h12.491"/>
		<path style="fill:none;stroke:#FBE3CB;stroke-width:5;stroke-miterlimit:10;" d="M821.391,909.192h11.265
			c7.325,0,13.262-5.938,13.262-13.262v-32.113"/>
		<circle style="fill:#FFFFFF;" cx="-196.489" cy="1010.979" r="4.905"/>
		<circle style="fill:#FFFFFF;" cx="-250.632" cy="1054.233" r="4.905"/>
		<circle style="fill:#FFFFFF;" cx="-230.167" cy="1035.838" r="4.905"/>
		<circle style="fill:#FFFFFF;" cx="-235.915" cy="1073.088" r="4.905"/>
		<circle style="fill:#FFFFFF;" cx="-226.718" cy="1004.565" r="4.905"/>
		<circle style="fill:#FFFFFF;" cx="-255.231" cy="1086.425" r="4.905"/>
		<circle style="fill:#FFFFFF;" cx="-196.489" cy="1048.384" r="4.905"/>
		<circle style="fill:#FFFFFF;" cx="-99.94" cy="1027.703" r="4.905"/>
		<circle style="fill:#FFFFFF;" cx="-127.842" cy="1022.396" r="4.905"/>
		<circle style="fill:#FFFFFF;" cx="-178.525" cy="1025.936" r="4.905"/>
		<circle style="fill:#FFFFFF;" cx="-50.902" cy="1011.26" r="4.905"/>
		<circle style="fill:#FFFFFF;" cx="-74.409" cy="1052.597" r="4.905"/>
		<circle style="fill:#FFFFFF;" cx="-131.969" cy="1050.944" r="4.905"/>
		<circle style="fill:#FFFFFF;" cx="-103.097" cy="1054.207" r="4.905"/>
		<circle style="fill:#FFFFFF;" cx="-210.01" cy="1076.76" r="4.905"/>
		<circle style="fill:#FFFFFF;" cx="-40.255" cy="1036.072" r="4.905"/>
		<circle style="fill:#FFFFFF;" cx="-102.153" cy="1000.22" r="4.905"/>
		<circle style="fill:#FFFFFF;" cx="229.772" cy="997.416" r="4.905"/>
		<circle style="fill:#FFFFFF;" cx="336.365" cy="1003.622" r="4.905"/>
		<circle style="fill:#FFFFFF;" cx="312.257" cy="991.022" r="4.905"/>
		<circle style="fill:#FFFFFF;" cx="363.704" cy="991.013" r="4.905"/>
		<circle style="fill:#FFFFFF;" cx="461.205" cy="989.149" r="4.905"/>
		<circle style="fill:#FFFFFF;" cx="568.761" cy="993.197" r="4.905"/>
		<circle style="fill:#FFFFFF;" cx="594.909" cy="985.113" r="4.905"/>
		<circle style="fill:#FFFFFF;" cx="532.758" cy="986.012" r="4.905"/>
		<circle style="fill:#FFFFFF;" cx="493.917" cy="1000.043" r="4.905"/>
		<circle style="fill:#FFFFFF;" cx="259.818" cy="986.991" r="4.905"/>
		<circle style="fill:#FFFFFF;" cx="203.906" cy="986.206" r="4.905"/>
		<circle style="fill:#FFFFFF;" cx="207.573" cy="1011.665" r="4.905"/>
		<circle style="fill:#FFFFFF;" cx="283.895" cy="1000.611" r="4.905"/>
		<g>
			<rect x="1696.157" y="1083.716" style="fill:#FFFFFF;" width="1050.747" height="9.127"/>
			<rect x="1696.157" y="1057.384" style="fill:#FFFFFF;" width="1050.747" height="9.127"/>
			<rect x="1696.157" y="1031.051" style="fill:#FFFFFF;" width="1050.747" height="9.127"/>
			<rect x="1696.157" y="1020.732" style="fill:#FFFFFF;" width="9.127" height="72.112"/>
			<rect x="1795.721" y="1014.868" style="fill:#FFFFFF;" width="9.127" height="77.976"/>
			<rect x="1895.285" y="1020.732" style="fill:#FFFFFF;" width="9.127" height="72.112"/>
			<rect x="1994.849" y="1014.868" style="fill:#FFFFFF;" width="9.127" height="77.976"/>
			<rect x="2094.412" y="1020.732" style="fill:#FFFFFF;" width="9.127" height="72.112"/>
			<rect x="2193.976" y="1014.868" style="fill:#FFFFFF;" width="9.127" height="77.976"/>
			<rect x="2293.54" y="1020.732" style="fill:#FFFFFF;" width="9.127" height="72.112"/>
			<rect x="2393.104" y="1014.868" style="fill:#FFFFFF;" width="9.127" height="77.976"/>
			<rect x="2492.668" y="1020.732" style="fill:#FFFFFF;" width="9.127" height="72.112"/>
			<rect x="2592.232" y="1014.868" style="fill:#FFFFFF;" width="9.127" height="77.976"/>
			<rect x="2691.795" y="1020.732" style="fill:#FFFFFF;" width="9.127" height="72.112"/>
		</g>
		<path style="fill:#FDD9CB;" d="M-685.668,1353.962h3361.181v-122.097c-406.338-150.333-1019.826-246.092-1706.253-246.092
			c-658.113,0-1249.184,88.021-1654.927,227.769V1353.962z"/>
		<ellipse style="fill:#EA7F96;" cx="913.043" cy="924.742" rx="50.745" ry="42.811"/>
		
			<line style="fill:none;stroke:#FBE3CB;stroke-width:5;stroke-miterlimit:10;" x1="911.529" y1="907.352" x2="911.529" y2="986.501"/>
		<linearGradient id="SVGID_8_" gradientUnits="userSpaceOnUse" x1="965.9954" y1="2083.1802" x2="965.9954" y2="1235.7109">
			<stop  offset="0" style="stop-color:#121A3C"/>
			<stop  offset="1" style="stop-color:#1D3658"/>
		</linearGradient>
		<rect x="-818.005" y="1125.601" style="fill:url(#SVGID_8_);" width="3568" height="685.527"/>
		<rect x="27.168" y="918.083" style="fill:#FDD9CB;" width="25.231" height="10.286"/>
		<rect x="137.081" y="955.333" style="fill:#FDD9CB;" width="25.231" height="10.286"/>
		<rect x="385.879" y="945.676" style="fill:#FDD9CB;" width="18.374" height="9.16"/>
		<rect x="396.457" y="957.173" style="fill:#FDD9CB;" width="18.374" height="9.16"/>
		<rect x="391.398" y="983.846" style="fill:#FDD9CB;" width="18.374" height="9.16"/>
		<rect x="630.079" y="947.055" style="fill:#FDD9CB;" width="18.374" height="9.16"/>
		<rect x="641.116" y="958.093" style="fill:#FDD9CB;" width="18.374" height="9.16"/>
		<rect x="630.079" y="969.13" style="fill:#FDD9CB;" width="18.374" height="9.16"/>
		<rect x="651.233" y="979.248" style="fill:#FDD9CB;" width="18.374" height="9.16"/>
		<rect x="407.965" y="945.676" style="fill:#FDD9CB;" width="18.374" height="9.16"/>
		<rect x="39.847" y="904.661" style="fill:#FDD9CB;" width="25.231" height="10.286"/>
		<rect x="56.863" y="918.458" style="fill:#FDD9CB;" width="25.231" height="10.286"/>
		<rect x="-0.623" y="960.307" style="fill:#FDD9CB;" width="25.231" height="10.286"/>
		<rect x="-134.91" y="964.907" style="fill:#FDD9CB;" width="25.231" height="10.286"/>
		<rect x="-105.068" y="964.907" style="fill:#FDD9CB;" width="25.231" height="10.286"/>
		<rect x="121.247" y="940.533" style="fill:#FDD9CB;" width="25.231" height="10.286"/>
		<path style="fill:none;stroke:#FBE3CB;stroke-width:5;stroke-miterlimit:10;" d="M891.294,917.776v4.586
			c0,5.595,4.536,10.131,10.131,10.131h10.104"/>
		<path style="fill:none;stroke:#FBE3CB;stroke-width:5;stroke-miterlimit:10;" d="M911.529,949.661h8.878
			c5.595,0,10.131-4.536,10.131-10.131V916.55"/>
		<path style="fill:none;stroke:#FFFFFF;stroke-width:21.9963;stroke-miterlimit:10;" d="M2750.995,1371.254
			c-411.893-0.904-1064.554-1.485-1789.927-1.485c-723.925,0-1368.073,0.579-1780.073,1.48"/>
		<g>
			<g>
				<linearGradient id="SVGID_9_" gradientUnits="userSpaceOnUse" x1="-820.0182" y1="1226.8408" x2="2752.009" y2="1226.8408">
					<stop  offset="0" style="stop-color:#FEC359"/>
					<stop  offset="1" style="stop-color:#F79562"/>
				</linearGradient>
				<path style="fill:none;stroke:url(#SVGID_9_);stroke-width:19.8098;stroke-miterlimit:10;" d="M2751.995,1226.877
					c-17.547-0.024-35.514-0.048-53.892-0.072"/>
				<linearGradient id="SVGID_10_" gradientUnits="userSpaceOnUse" x1="-820.0182" y1="1226.3419" x2="2752.009" y2="1226.3419">
					<stop  offset="0" style="stop-color:#FEC359"/>
					<stop  offset="1" style="stop-color:#F79562"/>
				</linearGradient>
				
					<path style="fill:none;stroke:url(#SVGID_10_);stroke-width:19.8098;stroke-miterlimit:10;stroke-dasharray:107.0094,91.3918;" d="
					M2606.713,1226.695c-411.466-0.466-994.12-0.756-1640.889-0.756c-669.776,0-1272.609,0.312-1686.241,0.807"/>
				<linearGradient id="SVGID_11_" gradientUnits="userSpaceOnUse" x1="-820.0182" y1="1226.8375" x2="2752.009" y2="1226.8375">
					<stop  offset="0" style="stop-color:#FEC359"/>
					<stop  offset="1" style="stop-color:#F79562"/>
				</linearGradient>
				<path style="fill:none;stroke:url(#SVGID_11_);stroke-width:19.8098;stroke-miterlimit:10;" d="M-766.113,1226.802
					c-18.379,0.023-36.346,0.047-53.892,0.071"/>
			</g>
		</g>
		<path style="fill:none;stroke:#FFFFFF;stroke-width:12.1516;stroke-miterlimit:10;" d="M2750.995,1149.469
			c-411.893-0.276-1059.188-0.453-1784.561-0.453c-723.925,0-1373.439,0.177-1785.439,0.452"/>
		<circle style="fill:#EC919F;" cx="-87.343" cy="934.945" r="3.679"/>
		<circle style="fill:#EC919F;" cx="-300.571" cy="1016.658" r="3.679"/>
		<circle style="fill:#EC919F;" cx="-289.533" cy="964.537" r="3.679"/>
		<circle style="fill:#EC919F;" cx="-268.685" cy="1045.477" r="3.679"/>
		<circle style="fill:#EC919F;" cx="-245.384" cy="1070.618" r="3.679"/>
		<circle style="fill:#EC919F;" cx="-278.225" cy="1093.17" r="3.679"/>
		<circle style="fill:#EC919F;" cx="-244.771" cy="944.916" r="3.679"/>
		<circle style="fill:#EC919F;" cx="-258.874" cy="942.463" r="3.679"/>
		<circle style="fill:#EC919F;" cx="-239.866" cy="1011.752" r="3.679"/>
		<circle style="fill:#EC919F;" cx="-252.742" cy="996.423" r="3.679"/>
		<circle style="fill:#EC919F;" cx="-256.422" cy="1020.337" r="3.679"/>
		<circle style="fill:#EC919F;" cx="-281.562" cy="989.678" r="3.679"/>
		<circle style="fill:#EC919F;" cx="-318.353" cy="1000.102" r="3.679"/>
		<circle style="fill:#EC919F;" cx="-295.665" cy="1045.477" r="3.679"/>
		<circle style="fill:#EC919F;" cx="-309.155" cy="1096.984" r="3.679"/>
		<circle style="fill:#EC919F;" cx="-288.92" cy="1073.07" r="3.679"/>
		<circle style="fill:#EC919F;" cx="-265.006" cy="1074.297" r="3.679"/>
		<circle style="fill:#EC919F;" cx="-272.977" cy="1014.205" r="3.679"/>
		<circle style="fill:#EC919F;" cx="-239.866" cy="971.282" r="3.679"/>
		<circle style="fill:#EC919F;" cx="-265.006" cy="972.509" r="3.679"/>
		<circle style="fill:#EC919F;" cx="-282.788" cy="946.755" r="3.679"/>
		<circle style="fill:#EC919F;" cx="-233.121" cy="918.549" r="3.679"/>
		<circle style="fill:#EC919F;" cx="-252.742" cy="914.87" r="3.679"/>
		<circle style="fill:#EC919F;" cx="-245.997" cy="926.52" r="3.679"/>
		<circle style="fill:#EC919F;" cx="-302.41" cy="956.566" r="3.679"/>
		<circle style="fill:#EC919F;" cx="-308.542" cy="1038.732" r="3.679"/>
		<circle style="fill:#EC919F;" cx="-362.808" cy="1046.32" r="3.679"/>
		<circle style="fill:#EC919F;" cx="-324.673" cy="1042.276" r="3.679"/>
		<circle style="fill:#EC919F;" cx="-391.817" cy="1102.981" r="3.679"/>
		<circle style="fill:#EC919F;" cx="-335.941" cy="1099.532" r="3.679"/>
		<circle style="fill:#EC919F;" cx="-316.625" cy="1068.26" r="3.679"/>
		<circle style="fill:#EC919F;" cx="-355.946" cy="1077.228" r="3.679"/>
		<circle style="fill:#EC919F;" cx="-361.924" cy="1105.97" r="3.679"/>
		<circle style="fill:#EC919F;" cx="-381.929" cy="1080.907" r="3.679"/>
		<circle style="fill:#EC919F;" cx="-414.121" cy="1110.569" r="3.679"/>
		<circle style="fill:#EC919F;" cx="-101.446" cy="920.229" r="3.679"/>
		<circle style="fill:#EC919F;" cx="-114.936" cy="938.011" r="3.679"/>
		<circle style="fill:#EC919F;" cx="-29.704" cy="923.908" r="3.679"/>
		<circle style="fill:#EC919F;" cx="-72.627" cy="921.455" r="3.679"/>
		<circle style="fill:#FFFFFF;" cx="1578.823" cy="596.829" r="115.159"/>
		<g>
			<g>
				<path style="fill:#F8B1A7;" d="M852.382,1033.725c-0.382,2.573-1.053,5.026-1.792,7.452c-0.756,2.419-1.621,4.793-2.579,7.129
					c-0.957,2.336-2.012,4.632-3.175,6.884c-1.179,2.245-2.429,4.461-3.97,6.557c0.378-2.574,1.048-5.028,1.788-7.454
					c0.756-2.419,1.621-4.793,2.583-7.127c0.961-2.335,2.015-4.631,3.179-6.882C849.597,1038.039,850.845,1035.823,852.382,1033.725
					z"/>
			</g>
			<g>
				<path style="fill:#F8B1A7;" d="M836.153,1059.48c-0.033-2.996,0.224-5.934,0.584-8.852c0.342-2.921,0.83-5.813,1.4-8.688
					c0.577-2.874,1.241-5.731,2.05-8.558c0.791-2.831,1.687-5.641,2.875-8.393c0.036,2.997-0.219,5.935-0.58,8.853
					c-0.343,2.921-0.831,5.813-1.405,8.687c-0.582,2.873-1.245,5.73-2.054,8.557C838.231,1053.918,837.337,1056.728,836.153,1059.48
					z"/>
			</g>
			<g>
				<path style="fill:#F8B1A7;" d="M829.243,1028.582c0.625,2.754,0.936,5.509,1.175,8.263c0.22,2.754,0.322,5.509,0.324,8.263
					c0.002,2.755-0.1,5.509-0.32,8.263c-0.238,2.755-0.551,5.509-1.179,8.263c-0.628-2.754-0.942-5.509-1.179-8.263
					c-0.22-2.754-0.323-5.509-0.32-8.263c0.002-2.754,0.104-5.509,0.324-8.263C828.307,1034.091,828.619,1031.337,829.243,1028.582z
					"/>
			</g>
			<g>
				<path style="fill:#F8B1A7;" d="M821.566,1060.199c-1.154-2.821-2.017-5.696-2.778-8.59c-0.779-2.891-1.41-5.808-1.959-8.741
					c-0.542-2.934-0.998-5.885-1.308-8.862c-0.328-2.974-0.551-5.968-0.48-9.016c1.158,2.82,2.022,5.695,2.782,8.589
					c0.777,2.891,1.409,5.808,1.955,8.742c0.538,2.935,0.994,5.885,1.303,8.863C821.408,1054.158,821.633,1057.152,821.566,1060.199
					z"/>
			</g>
			<g>
				<path style="fill:#F8B1A7;" d="M810.435,1059.48c-1.154-2.852-2.018-5.757-2.778-8.682c-0.779-2.921-1.41-5.869-1.959-8.832
					c-0.542-2.964-0.998-5.945-1.308-8.952c-0.328-3.004-0.55-6.027-0.48-9.103c1.158,2.851,2.023,5.757,2.783,8.681
					c0.778,2.921,1.41,5.869,1.955,8.833c0.538,2.965,0.994,5.945,1.303,8.952C810.277,1053.382,810.501,1056.404,810.435,1059.48z"
					/>
			</g>
			<g>
				<path style="fill:#F8B1A7;" d="M797.384,1060.917c-0.621-3.743-0.945-7.485-1.166-11.228c-0.239-3.742-0.328-7.485-0.333-11.227
					c0.002-3.743,0.091-7.485,0.329-11.228c0.22-3.742,0.546-7.485,1.17-11.227c0.624,3.742,0.951,7.485,1.171,11.227
					c0.238,3.743,0.327,7.485,0.329,11.228c-0.006,3.742-0.095,7.485-0.333,11.227
					C798.329,1053.432,798.005,1057.175,797.384,1060.917z"/>
			</g>
			<g>
				<path style="fill:#F8B1A7;" d="M789.323,1061.636c-0.593-2.851-0.872-5.699-1.079-8.546c-0.188-2.847-0.258-5.692-0.228-8.536
					c0.03-2.844,0.164-5.688,0.416-8.529c0.27-2.842,0.615-5.682,1.275-8.52c0.596,2.851,0.878,5.699,1.083,8.546
					c0.188,2.847,0.258,5.692,0.224,8.536c-0.034,2.844-0.168,5.687-0.42,8.529C790.323,1055.958,789.98,1058.799,789.323,1061.636z
					"/>
			</g>
			<g>
				<path style="fill:#F8B1A7;" d="M783.181,1058.402c-0.847-2.826-1.381-5.676-1.844-8.531c-0.443-2.857-0.769-5.723-0.995-8.598
					c-0.226-2.874-0.348-5.756-0.353-8.648c0.013-2.893,0.102-5.791,0.504-8.714c0.85,2.826,1.387,5.675,1.848,8.531
					c0.443,2.857,0.769,5.724,0.991,8.598c0.222,2.874,0.344,5.757,0.349,8.648C783.667,1052.581,783.58,1055.48,783.181,1058.402z"
					/>
			</g>
			<g>
				<path style="fill:#F8B1A7;" d="M779.727,1059.121c-1.728-2.643-3.181-5.397-4.537-8.189c-1.373-2.785-2.607-5.627-3.764-8.499
					c-1.15-2.875-2.218-5.782-3.149-8.745c-0.948-2.956-1.796-5.952-2.368-9.058c1.731,2.642,3.186,5.395,4.541,8.187
					c1.372,2.786,2.607,5.627,3.76,8.5c1.146,2.876,2.215,5.784,3.145,8.747C778.301,1053.021,779.151,1056.016,779.727,1059.121z"
					/>
			</g>
			<g>
				<path style="fill:#F8B1A7;" d="M774.353,1057.325c-2.094-2.119-3.924-4.406-5.693-6.733c-1.753-2.337-3.407-4.737-4.975-7.191
					c-1.569-2.454-3.05-4.964-4.432-7.537c-1.367-2.583-2.67-5.207-3.708-8c2.097,2.117,3.929,4.403,5.696,6.731
					c1.753,2.337,3.407,4.737,4.972,7.193c1.566,2.456,3.047,4.966,4.429,7.54C772.007,1051.911,773.312,1054.533,774.353,1057.325z
					"/>
			</g>
			<g>
				<path style="fill:#F8B1A7;" d="M770.13,1058.043c-2.256-0.872-4.326-1.998-6.355-3.182c-2.017-1.199-3.965-2.494-5.853-3.87
					c-1.889-1.375-3.715-2.835-5.473-4.39c-1.747-1.569-3.45-3.2-4.966-5.084c2.258,0.87,4.33,1.994,6.357,3.179
					c2.017,1.2,3.965,2.494,5.85,3.873c1.886,1.379,3.713,2.839,5.471,4.394C766.908,1054.533,768.612,1056.161,770.13,1058.043z"/>
			</g>
			<g>
				<path style="fill:#F8B1A7;" d="M849.971,1059.84c0.456-2.478,1.197-4.824,2.004-7.14c0.824-2.308,1.755-4.566,2.777-6.783
					c1.021-2.217,2.138-4.389,3.361-6.512c1.239-2.116,2.547-4.2,4.141-6.152c-0.453,2.479-1.192,4.826-2,7.141
					c-0.824,2.308-1.754,4.566-2.78,6.781c-1.025,2.215-2.142,4.387-3.365,6.511C852.868,1055.801,851.562,1057.886,849.971,1059.84
					z"/>
			</g>
			<g>
				<path style="fill:#F8B1A7;" d="M855.345,1061.636c0.974-2.727,2.214-5.288,3.515-7.81c1.317-2.512,2.734-4.962,4.236-7.358
					c1.501-2.396,3.092-4.737,4.781-7.015c1.705-2.269,3.474-4.497,5.509-6.559c-0.971,2.729-2.209,5.291-3.511,7.813
					c-1.317,2.512-2.734,4.962-4.239,7.356c-1.505,2.394-3.095,4.735-4.785,7.013
					C859.145,1057.343,857.378,1059.573,855.345,1061.636z"/>
			</g>
			<g>
				<path style="fill:#F8B1A7;" d="M861.871,1061.636c1.154-1.687,2.491-3.139,3.883-4.52c1.4-1.371,2.872-2.649,4.407-3.848
					c1.534-1.199,3.133-2.316,4.803-3.34c1.678-1.015,3.412-1.958,5.332-2.663c-1.151,1.69-2.488,3.143-3.881,4.523
					c-1.4,1.371-2.872,2.649-4.409,3.845c-1.536,1.196-3.135,2.313-4.806,3.337C865.521,1059.984,863.788,1060.928,861.871,1061.636
					z"/>
			</g>
			<g>
				<path style="fill:#F8B1A7;" d="M1715.811,1058.425c0.005,1.717-0.27,3.328-0.627,4.906c-0.37,1.574-0.849,3.105-1.422,4.6
					c-0.573,1.495-1.243,2.953-2.023,4.369c-0.791,1.411-1.667,2.79-2.825,4.06c-0.008-1.719,0.265-3.329,0.624-4.907
					c0.37-1.573,0.849-3.105,1.426-4.599c0.576-1.494,1.247-2.952,2.027-4.367
					C1713.781,1061.075,1714.657,1059.696,1715.811,1058.425z"/>
			</g>
			<g>
				<path style="fill:#F8B1A7;" d="M1706.089,1074.908c-0.392-2.511-0.472-4.993-0.48-7.468c0.011-2.473,0.139-4.936,0.367-7.388
					c0.228-2.453,0.56-4.896,1.009-7.328c0.467-2.431,1.009-4.854,1.864-7.248c0.396,2.511,0.478,4.993,0.484,7.468
					c-0.011,2.473-0.139,4.936-0.371,7.388c-0.232,2.453-0.564,4.896-1.013,7.328
					C1707.48,1070.09,1706.941,1072.514,1706.089,1074.908z"/>
			</g>
			<g>
				<path style="fill:#F8B1A7;" d="M1701.95,1055.133c0.621,1.763,0.943,3.526,1.175,5.289c0.22,1.763,0.323,3.526,0.324,5.289
					c0.002,1.763-0.1,3.526-0.32,5.289c-0.232,1.763-0.555,3.526-1.18,5.289c-0.625-1.763-0.948-3.526-1.179-5.289
					c-0.22-1.763-0.323-3.526-0.32-5.289c0.002-1.763,0.104-3.526,0.324-5.289
					C1701.007,1058.659,1701.329,1056.896,1701.95,1055.133z"/>
			</g>
			<g>
				<path style="fill:#F8B1A7;" d="M1691.832,1049.155c0.814,2.091,1.316,4.209,1.746,6.334c0.411,2.127,0.704,4.264,0.898,6.41
					c0.194,2.146,0.283,4.301,0.256,6.467c-0.045,2.167-0.166,4.341-0.6,6.543c-0.818-2.09-1.321-4.208-1.75-6.333
					c-0.411-2.127-0.704-4.264-0.894-6.41c-0.19-2.146-0.28-4.302-0.252-6.467
					C1691.283,1053.53,1691.401,1051.357,1691.832,1049.155z"/>
			</g>
			<g>
				<path style="fill:#F8B1A7;" d="M1689.073,1074.448c-1.094-1.51-1.901-3.105-2.622-4.726c-0.709-1.624-1.306-3.281-1.805-4.967
					c-0.5-1.686-0.9-3.401-1.188-5.149c-0.276-1.752-0.464-3.53-0.364-5.393c1.097,1.509,1.906,3.104,2.626,4.724
					c0.709,1.624,1.306,3.281,1.802,4.968c0.496,1.687,0.896,3.402,1.184,5.151
					C1688.981,1070.809,1689.17,1072.586,1689.073,1074.448z"/>
			</g>
			<g>
				<path style="fill:#F8B1A7;" d="M1681.715,1075.368c-1.348-1.156-2.435-2.457-3.443-3.8c-0.997-1.35-1.892-2.757-2.698-4.212
					c-0.807-1.455-1.522-2.961-2.134-4.524c-0.602-1.568-1.124-3.181-1.382-4.939c1.352,1.154,2.439,2.454,3.447,3.798
					c0.997,1.35,1.892,2.757,2.695,4.214c0.803,1.457,1.518,2.963,2.131,4.526C1680.93,1072,1681.453,1073.612,1681.715,1075.368z"
					/>
			</g>
			<g>
				<path style="fill:#F8B1A7;" d="M653.381,1071.776c0.005,1.717-0.27,3.328-0.627,4.906c-0.37,1.574-0.849,3.105-1.422,4.6
					c-0.573,1.495-1.243,2.953-2.023,4.369c-0.791,1.411-1.667,2.79-2.825,4.06c-0.008-1.719,0.265-3.329,0.624-4.907
					c0.37-1.573,0.849-3.105,1.426-4.599c0.576-1.494,1.247-2.952,2.027-4.367C651.351,1074.427,652.226,1073.048,653.381,1071.776z
					"/>
			</g>
			<g>
				<path style="fill:#F8B1A7;" d="M643.658,1088.26c-0.392-2.511-0.472-4.993-0.48-7.468c0.011-2.473,0.139-4.936,0.367-7.388
					c0.228-2.453,0.56-4.896,1.008-7.328c0.466-2.431,1.008-4.854,1.864-7.248c0.396,2.511,0.478,4.993,0.484,7.468
					c-0.011,2.473-0.139,4.936-0.371,7.388c-0.232,2.453-0.564,4.896-1.013,7.328C645.05,1083.442,644.51,1085.866,643.658,1088.26z
					"/>
			</g>
			<g>
				<path style="fill:#F8B1A7;" d="M639.519,1068.485c0.621,1.763,0.943,3.526,1.175,5.289c0.22,1.763,0.322,3.526,0.324,5.289
					c0.002,1.763-0.1,3.526-0.32,5.289c-0.231,1.763-0.555,3.526-1.179,5.289c-0.625-1.763-0.948-3.526-1.18-5.289
					c-0.22-1.763-0.322-3.526-0.32-5.289c0.002-1.763,0.104-3.526,0.324-5.289C638.576,1072.011,638.898,1070.248,639.519,1068.485z
					"/>
			</g>
			<g>
				<path style="fill:#F8B1A7;" d="M629.402,1062.506c0.814,2.091,1.316,4.209,1.746,6.334c0.411,2.127,0.704,4.264,0.898,6.41
					c0.194,2.146,0.283,4.301,0.256,6.467c-0.045,2.167-0.166,4.341-0.6,6.543c-0.818-2.09-1.321-4.208-1.75-6.333
					c-0.411-2.127-0.704-4.264-0.894-6.41c-0.19-2.146-0.279-4.302-0.252-6.467C628.853,1066.882,628.971,1064.708,629.402,1062.506
					z"/>
			</g>
			<g>
				<path style="fill:#F8B1A7;" d="M626.642,1087.8c-1.094-1.51-1.901-3.105-2.622-4.726c-0.709-1.624-1.306-3.281-1.806-4.967
					c-0.5-1.686-0.9-3.401-1.188-5.149c-0.276-1.752-0.464-3.53-0.364-5.393c1.097,1.509,1.906,3.104,2.626,4.725
					c0.709,1.624,1.306,3.281,1.802,4.968c0.497,1.687,0.897,3.402,1.184,5.151C626.55,1084.161,626.74,1085.938,626.642,1087.8z"/>
			</g>
			<g>
				<path style="fill:#F8B1A7;" d="M619.284,1088.72c-1.348-1.156-2.435-2.457-3.443-3.8c-0.997-1.35-1.892-2.757-2.698-4.212
					c-0.807-1.455-1.522-2.961-2.134-4.524c-0.602-1.568-1.124-3.181-1.382-4.939c1.352,1.154,2.439,2.454,3.447,3.798
					c0.997,1.35,1.892,2.757,2.695,4.214c0.803,1.457,1.518,2.963,2.131,4.526C618.5,1085.351,619.023,1086.963,619.284,1088.72z"/>
			</g>
			<g>
				<path style="fill:#F8B1A7;" d="M1391.621,1045.678c0.005,1.717-0.27,3.328-0.627,4.906c-0.37,1.574-0.849,3.105-1.422,4.6
					c-0.573,1.495-1.243,2.953-2.023,4.369c-0.791,1.411-1.667,2.79-2.825,4.06c-0.008-1.719,0.265-3.329,0.624-4.907
					c0.37-1.573,0.849-3.105,1.426-4.599c0.576-1.494,1.247-2.952,2.027-4.367
					C1389.591,1048.329,1390.467,1046.95,1391.621,1045.678z"/>
			</g>
			<g>
				<path style="fill:#F8B1A7;" d="M1381.899,1062.162c-0.392-2.511-0.472-4.993-0.48-7.468c0.011-2.473,0.139-4.936,0.367-7.388
					c0.228-2.453,0.56-4.896,1.009-7.328c0.467-2.431,1.009-4.854,1.864-7.248c0.396,2.511,0.478,4.993,0.484,7.468
					c-0.011,2.473-0.139,4.936-0.371,7.388c-0.232,2.453-0.563,4.896-1.012,7.328
					C1383.291,1057.344,1382.751,1059.768,1381.899,1062.162z"/>
			</g>
			<g>
				<path style="fill:#F8B1A7;" d="M1377.76,1042.387c0.621,1.763,0.943,3.526,1.175,5.289c0.22,1.763,0.322,3.526,0.324,5.289
					c0.002,1.763-0.1,3.526-0.32,5.289c-0.231,1.763-0.555,3.526-1.179,5.289c-0.625-1.763-0.948-3.526-1.179-5.289
					c-0.22-1.763-0.323-3.526-0.32-5.289c0.002-1.763,0.104-3.526,0.324-5.289C1376.817,1045.913,1377.139,1044.15,1377.76,1042.387
					z"/>
			</g>
			<g>
				<path style="fill:#F8B1A7;" d="M1367.642,1036.409c0.814,2.091,1.316,4.209,1.746,6.334c0.411,2.127,0.704,4.264,0.898,6.41
					c0.194,2.146,0.283,4.301,0.256,6.467c-0.045,2.167-0.166,4.341-0.6,6.543c-0.818-2.09-1.321-4.208-1.75-6.333
					c-0.411-2.127-0.704-4.264-0.894-6.41c-0.19-2.146-0.28-4.302-0.252-6.467
					C1367.093,1040.784,1367.211,1038.61,1367.642,1036.409z"/>
			</g>
			<g>
				<path style="fill:#F8B1A7;" d="M1364.883,1061.702c-1.094-1.51-1.901-3.105-2.622-4.726c-0.709-1.624-1.306-3.281-1.805-4.967
					c-0.501-1.686-0.9-3.401-1.188-5.149c-0.276-1.752-0.464-3.53-0.364-5.393c1.097,1.509,1.906,3.104,2.626,4.725
					c0.709,1.624,1.306,3.281,1.802,4.968c0.497,1.687,0.897,3.402,1.184,5.151
					C1364.791,1058.063,1364.98,1059.84,1364.883,1061.702z"/>
			</g>
			<g>
				<path style="fill:#F8B1A7;" d="M1357.525,1062.622c-1.348-1.156-2.435-2.457-3.443-3.8c-0.997-1.35-1.892-2.757-2.698-4.212
					c-0.807-1.455-1.522-2.961-2.134-4.524c-0.602-1.568-1.124-3.181-1.382-4.939c1.352,1.154,2.439,2.454,3.447,3.798
					c0.997,1.35,1.892,2.757,2.695,4.214c0.803,1.457,1.518,2.963,2.131,4.526
					C1356.74,1059.254,1357.263,1060.866,1357.525,1062.622z"/>
			</g>
			<g>
				<path style="fill:#F8B1A7;" d="M-8.271,1089.827c0.005,1.717-0.27,3.328-0.627,4.906c-0.369,1.573-0.849,3.105-1.422,4.6
					c-0.573,1.495-1.243,2.953-2.023,4.369c-0.791,1.411-1.667,2.79-2.825,4.06c-0.008-1.719,0.265-3.329,0.624-4.907
					c0.37-1.573,0.849-3.105,1.426-4.599c0.576-1.494,1.247-2.952,2.027-4.367C-10.301,1092.478-9.425,1091.099-8.271,1089.827z"/>
			</g>
			<g>
				<path style="fill:#F8B1A7;" d="M-17.994,1106.311c-0.392-2.511-0.472-4.993-0.48-7.468c0.011-2.473,0.139-4.936,0.367-7.388
					c0.228-2.453,0.56-4.896,1.009-7.328c0.466-2.431,1.008-4.854,1.864-7.248c0.396,2.511,0.478,4.993,0.484,7.468
					c-0.011,2.473-0.139,4.936-0.371,7.388c-0.232,2.453-0.564,4.896-1.013,7.328C-16.602,1101.493-17.141,1103.917-17.994,1106.311
					z"/>
			</g>
			<g>
				<path style="fill:#F8B1A7;" d="M-22.133,1086.536c0.621,1.763,0.943,3.526,1.175,5.289c0.22,1.763,0.322,3.526,0.324,5.289
					c0.002,1.763-0.1,3.526-0.32,5.289c-0.231,1.763-0.555,3.526-1.179,5.289c-0.625-1.763-0.948-3.526-1.179-5.289
					c-0.22-1.763-0.323-3.526-0.32-5.289c0.002-1.763,0.104-3.526,0.324-5.289C-23.075,1090.062-22.753,1088.299-22.133,1086.536z"
					/>
			</g>
			<g>
				<path style="fill:#F8B1A7;" d="M-32.25,1080.558c0.814,2.091,1.316,4.209,1.746,6.334c0.411,2.127,0.704,4.264,0.898,6.41
					c0.194,2.146,0.283,4.301,0.256,6.467c-0.045,2.167-0.166,4.341-0.6,6.543c-0.818-2.09-1.321-4.208-1.75-6.333
					c-0.411-2.127-0.704-4.264-0.894-6.41c-0.19-2.146-0.28-4.302-0.252-6.467C-32.799,1084.933-32.681,1082.759-32.25,1080.558z"/>
			</g>
			<g>
				<path style="fill:#F8B1A7;" d="M-35.009,1105.851c-1.094-1.51-1.901-3.105-2.622-4.726c-0.709-1.624-1.306-3.281-1.805-4.967
					c-0.501-1.686-0.9-3.401-1.188-5.149c-0.276-1.752-0.464-3.53-0.363-5.393c1.097,1.509,1.906,3.104,2.626,4.724
					c0.709,1.624,1.306,3.281,1.802,4.968c0.497,1.687,0.897,3.402,1.184,5.151C-35.101,1102.212-34.912,1103.989-35.009,1105.851z"
					/>
			</g>
			<g>
				<path style="fill:#F8B1A7;" d="M-42.368,1106.771c-1.348-1.156-2.435-2.457-3.443-3.8c-0.997-1.35-1.892-2.757-2.698-4.212
					c-0.807-1.455-1.522-2.961-2.134-4.524c-0.602-1.568-1.124-3.181-1.382-4.939c1.352,1.154,2.439,2.454,3.447,3.798
					c0.997,1.35,1.892,2.757,2.695,4.214c0.803,1.457,1.518,2.963,2.131,4.526C-43.152,1103.402-42.629,1105.015-42.368,1106.771z"
					/>
			</g>
			<g>
				<path style="fill:#F8B1A7;" d="M278.697,1049.358c0.005,1.717-0.27,3.328-0.627,4.906c-0.369,1.574-0.849,3.105-1.422,4.6
					c-0.573,1.495-1.243,2.953-2.023,4.369c-0.791,1.411-1.667,2.79-2.825,4.06c-0.008-1.719,0.265-3.329,0.624-4.907
					c0.37-1.573,0.849-3.105,1.426-4.599c0.576-1.494,1.247-2.952,2.027-4.367C276.668,1052.008,277.543,1050.629,278.697,1049.358z
					"/>
			</g>
			<g>
				<path style="fill:#F8B1A7;" d="M268.975,1065.841c-0.392-2.511-0.472-4.993-0.48-7.468c0.011-2.473,0.139-4.936,0.367-7.388
					c0.228-2.453,0.56-4.896,1.009-7.328c0.466-2.431,1.008-4.854,1.864-7.248c0.396,2.511,0.478,4.993,0.484,7.468
					c-0.011,2.473-0.139,4.936-0.371,7.388c-0.232,2.453-0.564,4.896-1.013,7.328
					C270.367,1061.023,269.827,1063.447,268.975,1065.841z"/>
			</g>
			<g>
				<path style="fill:#F8B1A7;" d="M264.836,1046.066c0.621,1.763,0.943,3.526,1.175,5.289c0.22,1.763,0.322,3.526,0.324,5.289
					c0.002,1.763-0.1,3.526-0.32,5.289c-0.231,1.763-0.555,3.526-1.179,5.289c-0.625-1.763-0.948-3.526-1.179-5.289
					c-0.22-1.763-0.322-3.526-0.32-5.289c0.002-1.763,0.104-3.526,0.324-5.289C263.893,1049.592,264.215,1047.829,264.836,1046.066z
					"/>
			</g>
			<g>
				<path style="fill:#F8B1A7;" d="M254.719,1040.088c0.814,2.091,1.316,4.209,1.746,6.334c0.411,2.127,0.704,4.264,0.898,6.41
					c0.194,2.146,0.283,4.301,0.256,6.467c-0.045,2.167-0.166,4.341-0.6,6.543c-0.818-2.09-1.321-4.208-1.75-6.333
					c-0.411-2.127-0.704-4.264-0.894-6.41c-0.19-2.146-0.28-4.302-0.252-6.467C254.17,1044.463,254.288,1042.289,254.719,1040.088z"
					/>
			</g>
			<g>
				<path style="fill:#F8B1A7;" d="M251.959,1065.381c-1.094-1.51-1.901-3.105-2.622-4.726c-0.709-1.624-1.306-3.281-1.806-4.967
					c-0.501-1.686-0.9-3.401-1.188-5.149c-0.276-1.752-0.464-3.53-0.363-5.393c1.097,1.509,1.906,3.104,2.626,4.725
					c0.709,1.624,1.306,3.281,1.802,4.968c0.497,1.687,0.897,3.402,1.184,5.151C251.867,1061.742,252.056,1063.519,251.959,1065.381
					z"/>
			</g>
			<g>
				<path style="fill:#F8B1A7;" d="M244.601,1066.301c-1.348-1.156-2.435-2.457-3.443-3.8c-0.997-1.35-1.892-2.757-2.698-4.212
					c-0.807-1.455-1.522-2.961-2.134-4.524c-0.602-1.568-1.124-3.181-1.382-4.939c1.352,1.154,2.439,2.454,3.447,3.798
					c0.997,1.35,1.892,2.757,2.695,4.214c0.803,1.457,1.518,2.963,2.131,4.526C243.817,1062.932,244.34,1064.545,244.601,1066.301z"
					/>
			</g>
			<g>
				<path style="fill:#F8B1A7;" d="M1135.334,1055.571c-0.339-2.524-0.365-5.012-0.321-7.493c0.064-2.478,0.244-4.942,0.525-7.395
					c0.28-2.453,0.664-4.894,1.165-7.322c0.518-2.426,1.112-4.842,2.019-7.223c0.342,2.525,0.371,5.013,0.325,7.493
					c-0.064,2.478-0.244,4.942-0.529,7.395c-0.284,2.453-0.668,4.894-1.169,7.321
					C1136.828,1050.772,1136.237,1053.189,1135.334,1055.571z"/>
			</g>
			<g>
				<path style="fill:#F8B1A7;" d="M1130.253,1035.796c0.621,1.763,0.943,3.526,1.175,5.289c0.22,1.763,0.322,3.526,0.324,5.289
					c0.002,1.763-0.1,3.526-0.32,5.289c-0.231,1.763-0.555,3.526-1.179,5.289c-0.625-1.763-0.948-3.526-1.179-5.289
					c-0.22-1.763-0.323-3.526-0.32-5.289c0.002-1.763,0.104-3.526,0.324-5.289
					C1129.31,1039.321,1129.632,1037.558,1130.253,1035.796z"/>
			</g>
			<g>
				<path style="fill:#F8B1A7;" d="M1117.832,1029.817c0.856,2.078,1.401,4.19,1.874,6.31c0.454,2.122,0.791,4.257,1.028,6.403
					c0.238,2.146,0.371,4.303,0.388,6.473c-0.001,2.172-0.077,4.352-0.467,6.567c-0.86-2.078-1.407-4.19-1.878-6.31
					c-0.454-2.122-0.791-4.257-1.024-6.404c-0.234-2.146-0.367-4.304-0.384-6.474
					C1117.372,1034.211,1117.446,1032.031,1117.832,1029.817z"/>
			</g>
			<g>
				<path style="fill:#F8B1A7;" d="M1114.444,1055.111c-1.195-1.475-2.11-3.051-2.94-4.658c-0.818-1.611-1.526-3.263-2.14-4.948
					c-0.614-1.685-1.129-3.407-1.534-5.168c-0.394-1.765-0.702-3.562-0.726-5.461c1.199,1.473,2.115,3.049,2.944,4.657
					c0.818,1.611,1.526,3.262,2.136,4.95c0.61,1.687,1.125,3.408,1.53,5.169C1114.107,1051.417,1114.416,1053.213,1114.444,1055.111
					z"/>
			</g>
			<g>
				<path style="fill:#F8B1A7;" d="M1105.411,1056.031c-1.502-1.108-2.756-2.383-3.937-3.709c-1.17-1.333-2.243-2.732-3.232-4.187
					c-0.99-1.455-1.893-2.969-2.699-4.549c-0.797-1.586-1.517-3.224-1.988-5.031c1.505,1.106,2.761,2.38,3.94,3.707
					c1.17,1.333,2.243,2.732,3.229,4.189c0.987,1.457,1.89,2.971,2.696,4.551
					C1104.215,1052.589,1104.937,1054.226,1105.411,1056.031z"/>
			</g>
			<g>
				<path style="fill:#F8B1A7;" d="M1141.544,1056.184c-0.116-1.558,0.05-3.018,0.301-4.448c0.263-1.426,0.636-2.814,1.105-4.169
					c0.468-1.355,1.036-2.675,1.714-3.957c0.689-1.278,1.465-2.526,2.526-3.675c0.12,1.559-0.046,3.019-0.297,4.449
					c-0.263,1.426-0.636,2.814-1.109,4.167c-0.472,1.354-1.039,2.674-1.718,3.956
					C1143.376,1053.785,1142.601,1055.033,1141.544,1056.184z"/>
			</g>
			<g>
				<path style="fill:#F8B1A7;" d="M1148.319,1055.877c-0.05-1.67,0.181-3.237,0.496-4.773c0.327-1.532,0.764-3.023,1.295-4.48
					c0.531-1.457,1.161-2.878,1.9-4.259c0.75-1.377,1.587-2.722,2.707-3.963c0.053,1.671-0.176,3.239-0.492,4.775
					c-0.327,1.532-0.764,3.023-1.299,4.479c-0.535,1.456-1.164,2.877-1.904,4.257
					C1150.271,1053.289,1149.435,1054.634,1148.319,1055.877z"/>
			</g>
			<g>
				<path style="fill:#F8B1A7;" d="M1156.976,1055.877c0.262-1.89,0.79-3.645,1.398-5.36c0.619-1.709,1.343-3.365,2.157-4.975
					c0.813-1.611,1.721-3.174,2.732-4.684c1.022-1.505,2.126-2.969,3.499-4.296c-0.258,1.892-0.785,3.648-1.394,5.362
					c-0.62,1.709-1.343,3.365-2.161,4.974c-0.817,1.609-1.724,3.172-2.736,4.682
					C1159.448,1053.084,1158.345,1054.548,1156.976,1055.877z"/>
			</g>
			<g>
				<path style="fill:#F8B1A7;" d="M1162.246,1055.571c0.407-1.617,1.056-3.058,1.778-4.447c0.732-1.381,1.558-2.693,2.467-3.946
					c0.908-1.253,1.9-2.445,2.988-3.568c1.097-1.116,2.268-2.178,3.683-3.062c-0.404,1.619-1.052,3.061-1.775,4.449
					c-0.732,1.381-1.558,2.693-2.47,3.944c-0.911,1.251-1.903,2.443-2.991,3.565
					C1164.828,1053.621,1163.657,1054.684,1162.246,1055.571z"/>
			</g>
			<g>
				<path style="fill:#F8B1A7;" d="M1164.88,1058.636c1.397-1.6,2.952-2.947,4.554-4.217c1.609-1.26,3.28-2.42,5.004-3.494
					c1.724-1.075,3.503-2.061,5.344-2.947c1.847-0.877,3.743-1.675,5.798-2.218c-1.395,1.604-2.95,2.951-4.552,4.221
					c-1.609,1.26-3.28,2.42-5.006,3.491c-1.726,1.072-3.505,2.058-5.347,2.944
					C1168.829,1057.291,1166.933,1058.091,1164.88,1058.636z"/>
			</g>
		</g>
		<polygon style="fill:#E28D99;" points="459.215,1081.013 468.844,1061.176 455.953,1070.683 459.758,1051.112 449.973,1068.509 
			449.973,1050.025 443.993,1067.422 438.556,1048.394 439.1,1067.965 430.946,1055.462 435.838,1072.858 421.16,1063.073 
			428.771,1080.469 		"/>
		<polygon style="fill:#E28D99;" points="1831.317,1103.695 1840.946,1083.858 1828.055,1093.366 1831.86,1073.795 
			1822.075,1091.192 1822.075,1072.708 1816.095,1090.104 1810.658,1071.077 1811.202,1090.648 1803.047,1078.144 1807.94,1095.541 
			1793.262,1085.755 1800.873,1103.152 		"/>
	</g>
</g>
</svg>
