<?xml version="1.0" encoding="utf-8"?>
<!-- Generator: Adobe Illustrator 17.0.0, SVG Export Plug-In . SVG Version: 6.00 Build 0)  -->
<!DOCTYPE svg PUBLIC "-//W3C//DTD SVG 1.1//EN" "http://www.w3.org/Graphics/SVG/1.1/DTD/svg11.dtd">
<svg version="1.1" id="Layer_2" xmlns="http://www.w3.org/2000/svg" xmlns:xlink="http://www.w3.org/1999/xlink" x="0px" y="0px"
	 width="2128.381px" height="1724px" viewBox="0 0 2128.381 1724" enable-background="new 0 0 2128.381 1724" xml:space="preserve">
<g>
	
		<linearGradient id="SVGID_1_" gradientUnits="userSpaceOnUse" x1="1265.9672" y1="837.2664" x2="1308.0923" y2="837.2664" gradientTransform="matrix(1 0 0 -1 668 2281)">
		<stop  offset="0" style="stop-color:#FAC15B"/>
		<stop  offset="1" style="stop-color:#F79464"/>
	</linearGradient>
	<path fill="url(#SVGID_1_)" d="M1972.209,1521.163h-34.358c-2.145,0-3.884-1.739-3.884-3.884v-147.091
		c0-2.145,1.739-3.884,3.884-3.884h34.358c2.145,0,3.884,1.739,3.884,3.884v147.091
		C1976.093,1519.424,1974.354,1521.163,1972.209,1521.163z"/>
	<path fill="#FFFCEE" d="M2010.377,1319.36c-0.701-0.701-1.426-1.369-2.184-2.007l-0.759-0.627l-57.325-47.363l-0.074-0.063
		l-0.269-0.221c-0.051-0.042-0.103-0.084-0.154-0.126l-0.346-0.285l-0.034-0.029l-0.2-0.16l-0.085-0.051
		c-2.427-1.899-5.098-3.498-7.965-4.726l-0.013-0.007l-0.001,0.001c-4.288-1.834-9-2.853-13.938-2.853l0,0
		c-19.63,0-35.69,16.061-35.69,35.69v45.231h0.003l0,0l55.514,45.865c1.503,1.242,3.694,1.177,5.121-0.152l62.144-57.895
		c1.387-1.293,1.661-3.414,0.595-4.982C2013.435,1322.719,2011.979,1320.962,2010.377,1319.36z"/>
	<path fill="#F2E3D0" d="M2020.864,1344.569v41.347c0,2.145-1.739,3.884-3.884,3.884h-63.614c-2.145,0-3.884-1.739-3.884-3.884
		v-41.347c0-0.947,0.04-1.882,0.109-2.805c0.787-10.008,5.748-18.886,13.127-24.891c6.147-4.99,13.964-7.994,22.456-7.994
		c8.4,0,16.149,2.943,22.262,7.846l0.759,0.627c0.759,0.638,1.483,1.306,2.184,2.007c2.377,2.377,4.43,5.092,6.067,8.057
		C2019.261,1332.515,2020.864,1338.359,2020.864,1344.569z"/>
	<path fill="#E6555B" d="M1924.296,1298.381l-14.779-8.624c-2.589-1.511-5.841,0.357-5.841,3.355v17.118v24.559
		c0,1.15,0.51,2.241,1.391,2.979l3.095,2.59c2.529,2.116,6.376,0.318,6.376-2.979v-14.043c0-2.998,3.253-4.866,5.842-3.354l0,0
		c2.589,1.512,5.842-0.356,5.842-3.354v-14.892C1926.222,1300.354,1925.488,1299.077,1924.296,1298.381z"/>
</g>
<g>
	<polygon fill="#D1D2D3" points="148.309,1722.737 457.533,1722.737 326.729,1534.829 17.505,1534.829 	"/>
	<polygon fill="#D1D2D3" points="640.503,1534.829 331.279,1534.829 462.083,1722.737 771.306,1722.737 	"/>
	<polygon fill="#D1D2D3" points="954.277,1534.829 645.052,1534.829 775.856,1722.737 1085.08,1722.737 	"/>
	<polygon fill="#D1D2D3" points="1586.902,1534.829 1717.705,1722.737 1752.461,1722.737 1752.461,1534.829 	"/>
	<polygon fill="#D1D2D3" points="12.956,1534.829 -42.727,1534.829 -42.727,1722.737 143.759,1722.737 	"/>
	<polygon fill="#D1D2D3" points="1268.05,1534.829 958.827,1534.829 1089.63,1722.737 1398.854,1722.737 	"/>
	<polygon fill="#D1D2D3" points="1581.297,1534.829 1272.6,1534.829 1403.404,1722.737 1712.1,1722.737 	"/>
	<polygon fill="#D1D2D3" points="1896.216,1534.829 1587.519,1534.829 1718.323,1722.737 2027.019,1722.737 	"/>
	<polygon fill="#D1D2D3" points="2211.135,1534.829 1902.438,1534.829 2033.241,1722.737 2341.938,1722.737 	"/>
</g>
<linearGradient id="SVGID_2_" gradientUnits="userSpaceOnUse" x1="1194.713" y1="493.0356" x2="1255.4531" y2="701.8299" gradientTransform="matrix(1 0 0 -1 668 2281)">
	<stop  offset="0" style="stop-color:#52C1B1"/>
	<stop  offset="1" style="stop-color:#6DC497"/>
</linearGradient>
<path fill="url(#SVGID_2_)" d="M2285.045,1462.405c-23.816,0-43.122,19.306-43.122,43.122c0,0.655,0.021,1.305,0.05,1.953
	c-5.115-4.196-11.657-6.717-18.79-6.717c-12.362,0-22.951,7.57-27.399,18.325c-0.017-0.001-0.016,0-0.032-0.001
	c-4.745-14.324-18.237-24.662-34.153-24.662c-5.608,0-10.913,1.292-15.644,3.581c-0.061-0.052-0.063-0.054-0.124-0.106
	c1.033-3.391,1.481-7.037,1.207-10.825c-1.075-14.849-13.279-26.739-28.15-27.431c-14.759-0.687-27.273,9.428-30.335,23.111
	c0.026-0.372,0.052-0.745,0.052-1.124c0-8.942-6.951-16.256-15.743-16.845c0.491-2.605,0.759-5.288,0.759-8.035
	c0-23.816-19.306-43.122-43.122-43.122s-43.122,19.306-43.122,43.122c0,0.655,0.021,1.305,0.049,1.953
	c-5.115-4.196-11.657-6.717-18.789-6.717c-12.378,0-22.979,7.589-27.417,18.366c-4.733-14.346-18.237-24.703-34.168-24.703
	c-5.677,0-11.046,1.32-15.821,3.661c0.87-2.79,1.339-5.756,1.339-8.832c0-16.372-13.272-29.644-29.644-29.644
	c0-3.93-0.465-7.749-1.318-11.419c-3.387-23.459-23.566-41.485-47.962-41.485c-14.296,0-27.143,6.192-36.015,16.037
	c-6.393-3.106-13.57-4.852-21.155-4.852c-26.769,0-48.47,21.701-48.47,48.47c0,0.811,0.022,1.617,0.061,2.418
	c-4.683-2.271-9.927-3.564-15.48-3.564c-15.898,0-29.356,10.432-33.911,24.823c-3.598-16.594-18.768-28.874-36.642-27.949
	c-18.207,0.942-32.914,15.833-33.648,34.051c-0.218,5.418,0.778,10.579,2.736,15.237c-3.866-0.952-7.903-1.466-12.062-1.466
	c-27.78,0-50.3,22.52-50.3,50.3c0,10.281,3.095,19.833,8.391,27.797c-23.371,11.745-39.41,35.934-39.41,63.873
	c0,39.458,31.987,71.445,71.445,71.445c1.866,0,3.716-0.072,5.547-0.213c-1.003,3.713-1.547,7.614-1.547,11.644
	c0,24.622,19.96,44.581,44.582,44.581c0.064,0,0.126-0.004,0.189-0.005c12.664-0.176,683.543-1.229,683.543-1.229v-263.665
	C2296.428,1463.568,2290.873,1462.405,2285.045,1462.405z"/>
<g>
	<g>
		<path fill="#7D8F94" d="M1901.497,1594.546c14.103,4.113,22.421,18.139,22.421,18.139s-14.557,7.358-28.659,3.247
			c-14.101-4.113-22.416-18.137-22.416-18.137S1887.398,1590.433,1901.497,1594.546z"/>
	</g>
	<g>
		<path fill="#7D8F94" d="M1947.208,1600.3c11.972-8.512,28.135-6.339,28.135-6.339s-3.256,15.983-15.228,24.495
			c-11.972,8.51-28.129,6.336-28.129,6.336S1935.236,1608.808,1947.208,1600.3z"/>
	</g>
	<g>
		<polygon fill="#7D8F94" points="1935.343,1648.747 1928.911,1649.582 1920.727,1586.326 1927.158,1585.491 		"/>
	</g>
	<g>
		
			<linearGradient id="SVGID_3_" gradientUnits="userSpaceOnUse" x1="1123.8964" y1="770.3364" x2="1153.8735" y2="770.3364" gradientTransform="matrix(0.9998 0.02 0.02 -0.9998 760.0028 2268.249)">
			<stop  offset="0" style="stop-color:#E6587D"/>
			<stop  offset="1" style="stop-color:#E84B56"/>
		</linearGradient>
		<path fill="url(#SVGID_3_)" d="M1912.61,1511.767c-8.241,1.321-14.296,6.476-13.492,11.477c0.808,5.011,8.168,8.004,16.409,6.679
			c8.242-1.325,14.292-6.474,13.489-11.483C1928.212,1513.437,1920.852,1510.438,1912.61,1511.767z M1914.784,1525.288
			c-3.549,0.573-6.642-0.937-7.041-3.43c-0.403-2.49,2.064-4.885,5.61-5.457c3.549-0.569,6.641,0.936,7.041,3.426
			C1920.796,1522.318,1918.328,1524.717,1914.784,1525.288z"/>
		
			<linearGradient id="SVGID_4_" gradientUnits="userSpaceOnUse" x1="1134.8958" y1="770.3365" x2="1142.912" y2="770.3365" gradientTransform="matrix(0.9998 0.02 0.02 -0.9998 760.0028 2268.249)">
			<stop  offset="0" style="stop-color:#E6587D"/>
			<stop  offset="1" style="stop-color:#E84B56"/>
		</linearGradient>
		<path fill="url(#SVGID_4_)" d="M1913.725,1518.715c-2.294,0.372-3.825,1.769-3.665,2.773c0.161,1.006,2.053,1.851,4.349,1.484
			c2.292-0.372,3.825-1.767,3.665-2.775C1917.912,1519.197,1916.019,1518.352,1913.725,1518.715z"/>
		
			<linearGradient id="SVGID_5_" gradientUnits="userSpaceOnUse" x1="1112.1355" y1="767.1182" x2="1168.1398" y2="767.1182" gradientTransform="matrix(0.9998 0.02 0.02 -0.9998 760.0028 2268.249)">
			<stop  offset="0" style="stop-color:#E6587D"/>
			<stop  offset="1" style="stop-color:#E84B56"/>
		</linearGradient>
		<path fill="url(#SVGID_5_)" d="M1932.077,1507.385c-5.845-3.717-13.024-5.391-20.403-4.208
			c-13.49,2.172-23.312,13.222-24.533,26.22l31.281,16.065l24.909-24.77C1940.973,1515.135,1937.012,1510.524,1932.077,1507.385z
			 M1915.899,1532.241c-9.52,1.532-18.085-2.334-19.099-8.623c-1.006-6.286,5.914-12.643,15.436-14.173
			c9.518-1.53,18.089,2.34,19.099,8.622C1932.343,1524.356,1925.419,1530.713,1915.899,1532.241z"/>
		
			<linearGradient id="SVGID_6_" gradientUnits="userSpaceOnUse" x1="1145.9493" y1="749.3468" x2="1176.0283" y2="749.3468" gradientTransform="matrix(0.9998 0.02 0.02 -0.9998 760.0028 2268.249)">
			<stop  offset="0" style="stop-color:#E6587D"/>
			<stop  offset="1" style="stop-color:#E84B56"/>
		</linearGradient>
		<path fill="url(#SVGID_6_)" d="M1950.397,1561.885c0.011-1.614-0.077-3.245-0.342-4.891l-4.739-29.495
			c-0.244-1.513-0.637-2.962-1.094-4.378l-23.604,23.47L1950.397,1561.885z"/>
		
			<linearGradient id="SVGID_7_" gradientUnits="userSpaceOnUse" x1="1116.4185" y1="789.5361" x2="1157.7604" y2="789.5361" gradientTransform="matrix(0.9998 0.02 0.02 -0.9998 760.0028 2268.249)">
			<stop  offset="0" style="stop-color:#E6587D"/>
			<stop  offset="1" style="stop-color:#E84B56"/>
		</linearGradient>
		<path fill="url(#SVGID_7_)" d="M1911.303,1500.859c7.629-1.225,15.422,0.373,21.953,4.497c-3.203-9.852-13.17-16.172-23.7-14.429
			c-10.51,1.754-17.899,10.917-17.776,21.253C1896.513,1506.34,1903.311,1502.145,1911.303,1500.859z"/>
		
			<linearGradient id="SVGID_8_" gradientUnits="userSpaceOnUse" x1="1095.1464" y1="770.6249" x2="1116.303" y2="770.6249" gradientTransform="matrix(0.9998 0.02 0.02 -0.9998 760.0028 2268.249)">
			<stop  offset="0" style="stop-color:#E6587D"/>
			<stop  offset="1" style="stop-color:#E84B56"/>
		</linearGradient>
		<path fill="url(#SVGID_8_)" d="M1891.651,1512.332c-8.104-2.157-16.846,1.211-21.331,8.531l14.602,7.435
			C1885.651,1522.38,1888.022,1516.866,1891.651,1512.332z"/>
		
			<linearGradient id="SVGID_9_" gradientUnits="userSpaceOnUse" x1="1158.3844" y1="781.1444" x2="1181.7126" y2="781.1444" gradientTransform="matrix(0.9998 0.02 0.02 -0.9998 760.0028 2268.249)">
			<stop  offset="0" style="stop-color:#E6587D"/>
			<stop  offset="1" style="stop-color:#E84B56"/>
		</linearGradient>
		<path fill="url(#SVGID_9_)" d="M1945.097,1518.936l11.167-11.105l0.918-0.926c-6.669-5.65-16.247-6.006-23.31-1.134
			C1938.807,1509.056,1942.658,1513.639,1945.097,1518.936z"/>
		
			<linearGradient id="SVGID_10_" gradientUnits="userSpaceOnUse" x1="1112.0575" y1="729.4936" x2="1175.9462" y2="729.4936" gradientTransform="matrix(0.9998 0.02 0.02 -0.9998 760.0028 2268.249)">
			<stop  offset="0" style="stop-color:#E6587D"/>
			<stop  offset="1" style="stop-color:#E84B56"/>
		</linearGradient>
		<path fill="url(#SVGID_10_)" d="M1887.354,1536.815l4.735,29.495c2.578,16.005,17.636,26.896,33.642,24.322
			c13.479-2.166,23.293-13.194,24.532-26.176l-63.252-32.481C1887.004,1533.572,1887.092,1535.186,1887.354,1536.815z"/>
	</g>
</g>
<g>
	<g>
		<path fill="#7D8F94" d="M2015.925,1612.324c13.488,7.953,18.397,24.627,18.397,24.627s-16.971,3.778-30.458-4.173
			c-13.486-7.952-18.392-24.623-18.392-24.623S2002.441,1604.372,2015.925,1612.324z"/>
	</g>
	<g>
		<path fill="#7D8F94" d="M2061.633,1630.275c14.604-5.648,30.729,0.842,30.729,0.842s-7.562,15.655-22.164,21.305
			c-14.602,5.647-30.723-0.844-30.723-0.844S2047.032,1635.92,2061.633,1630.275z"/>
	</g>
	<g>
		<polygon fill="#7D8F94" points="2036.651,1677.204 2029.788,1676.378 2037.949,1608.884 2044.812,1609.71 		"/>
	</g>
	<g>
		
			<linearGradient id="SVGID_11_" gradientUnits="userSpaceOnUse" x1="124.7555" y1="-658.0193" x2="156.7749" y2="-658.0193" gradientTransform="matrix(0.9692 0.2464 0.2464 -0.9692 2074.0618 867.0771)">
			<stop  offset="0" style="stop-color:#E6587D"/>
			<stop  offset="1" style="stop-color:#E84B56"/>
		</linearGradient>
		<path fill="url(#SVGID_11_)" d="M2049.149,1529.732c-8.861-0.799-16.469,2.935-16.953,8.313
			c-0.482,5.389,6.335,10.414,15.197,11.21c8.862,0.796,16.464-2.934,16.95-8.32
			C2064.827,1535.555,2058.012,1530.524,2049.149,1529.732z M2047.842,1544.27c-3.816-0.341-6.616-2.713-6.372-5.393
			c0.238-2.678,3.415-4.504,7.229-4.164c3.816,0.344,6.614,2.711,6.374,5.389C2054.833,1542.782,2051.653,1544.612,2047.842,1544.27
			z"/>
		
			<linearGradient id="SVGID_12_" gradientUnits="userSpaceOnUse" x1="57.9489" y1="-669.7905" x2="66.4932" y2="-669.7905" gradientTransform="matrix(0.964 0.2658 0.2658 -0.964 2166.2556 877.2575)">
			<stop  offset="0" style="stop-color:#E6587D"/>
			<stop  offset="1" style="stop-color:#E84B56"/>
		</linearGradient>
		<path fill="url(#SVGID_12_)" d="M2048.475,1537.202c-2.467-0.218-4.416,0.823-4.514,1.902c-0.098,1.082,1.634,2.451,4.103,2.676
			c2.466,0.217,4.415-0.82,4.514-1.904C2052.674,1538.8,2050.94,1537.429,2048.475,1537.202z"/>
		
			<linearGradient id="SVGID_13_" gradientUnits="userSpaceOnUse" x1="112.0646" y1="-661.5237" x2="171.9545" y2="-661.5237" gradientTransform="matrix(0.9692 0.2464 0.2464 -0.9692 2074.0618 867.0771)">
			<stop  offset="0" style="stop-color:#E6587D"/>
			<stop  offset="1" style="stop-color:#E84B56"/>
		</linearGradient>
		<path fill="url(#SVGID_13_)" d="M2070.409,1530.318c-5.062-5.375-12.038-8.99-19.972-9.705
			c-14.507-1.301-27.555,7.535-32.23,20.642l28.093,24.812l32.238-19.045C2077.563,1540.662,2074.683,1534.858,2070.409,1530.318z
			 M2047.168,1551.746c-10.236-0.918-18.069-7.161-17.464-13.924c0.611-6.757,9.431-11.507,19.668-10.587
			c10.234,0.92,18.072,7.168,17.464,13.923C2066.226,1547.919,2057.403,1552.668,2047.168,1551.746z"/>
		
			<linearGradient id="SVGID_14_" gradientUnits="userSpaceOnUse" x1="69.7508" y1="-692.1627" x2="101.8129" y2="-692.1627" gradientTransform="matrix(0.964 0.2658 0.2658 -0.964 2166.2556 877.2575)">
			<stop  offset="0" style="stop-color:#E6587D"/>
			<stop  offset="1" style="stop-color:#E84B56"/>
		</linearGradient>
		<path fill="url(#SVGID_14_)" d="M2075.018,1591.43c0.436-1.664,0.773-3.373,0.932-5.143l2.851-31.713
			c0.146-1.628,0.121-3.227,0.02-4.809l-30.548,18.045L2075.018,1591.43z"/>
		
			<linearGradient id="SVGID_15_" gradientUnits="userSpaceOnUse" x1="38.2738" y1="-649.326" x2="82.3398" y2="-649.326" gradientTransform="matrix(0.964 0.2658 0.2658 -0.964 2166.2556 877.2575)">
			<stop  offset="0" style="stop-color:#E6587D"/>
			<stop  offset="1" style="stop-color:#E84B56"/>
		</linearGradient>
		<path fill="url(#SVGID_15_)" d="M2050.663,1518.121c8.203,0.738,15.834,4.436,21.496,10.411
			c-0.721-11.018-9.356-20.165-20.692-21.13c-11.318-0.949-21.357,6.575-23.945,17.285
			C2033.945,1519.898,2042.07,1517.35,2050.663,1518.121z"/>
		
			<linearGradient id="SVGID_16_" gradientUnits="userSpaceOnUse" x1="15.6005" y1="-669.4849" x2="38.151" y2="-669.4849" gradientTransform="matrix(0.964 0.2658 0.2658 -0.964 2166.2556 877.2575)">
			<stop  offset="0" style="stop-color:#E6587D"/>
			<stop  offset="1" style="stop-color:#E84B56"/>
		</linearGradient>
		<path fill="url(#SVGID_16_)" d="M2027.348,1524.81c-7.805-4.358-17.72-3.174-24.276,3.21l13.131,11.515
			C2018.512,1533.615,2022.41,1528.541,2027.348,1524.81z"/>
		
			<linearGradient id="SVGID_17_" gradientUnits="userSpaceOnUse" x1="83.0037" y1="-658.2698" x2="107.8698" y2="-658.2698" gradientTransform="matrix(0.964 0.2658 0.2658 -0.964 2166.2556 877.2575)">
			<stop  offset="0" style="stop-color:#E6587D"/>
			<stop  offset="1" style="stop-color:#E84B56"/>
		</linearGradient>
		<path fill="url(#SVGID_17_)" d="M2080.824,1545.671l14.452-8.538l1.192-0.715c-5.405-7.589-15.206-10.472-23.782-7.295
			C2076.922,1533.812,2079.697,1539.558,2080.824,1545.671z"/>
		
			<linearGradient id="SVGID_18_" gradientUnits="userSpaceOnUse" x1="33.6921" y1="-713.3257" x2="101.7926" y2="-713.3257" gradientTransform="matrix(0.964 0.2658 0.2658 -0.964 2166.2556 877.2575)">
			<stop  offset="0" style="stop-color:#E6587D"/>
			<stop  offset="1" style="stop-color:#E84B56"/>
		</linearGradient>
		<path fill="url(#SVGID_18_)" d="M2016.479,1548.973l-2.855,31.712c-1.541,17.211,11.154,32.416,28.364,33.961
			c14.493,1.303,27.528-7.511,32.218-20.596l-56.808-50.167C2016.97,1545.531,2016.637,1547.221,2016.479,1548.973z"/>
	</g>
</g>
</svg>
